DBRep_DrawableShape

CASCADE Topology V1, (c) Matra-Datavision
Locations 42
1
              0               0               1               0 
              1               0               0               0 
              0               1               0               0 
1
              0               0               1               0 
              1               0               0               0 
              0               1               0               0 
1
              0 1.11022302462516e-16               1               0 
              1               0 1.11022302462516e-16               0 
1.11022302462516e-16               1               0               0 
1
              0               0               1               0 
              1               0               0               0 
              0               1               0               0 
1
              0 1.11022302462516e-16               1               0 
              1               0 1.11022302462516e-16               0 
1.11022302462516e-16               1               0               0 
2  2 1 3 -1 4 1 5 -1 0
2  1 -1 5 1 4 -1 3 1 2 -1 0
1
              0               0               1               0 
              1               0               0               0 
              0               1               0               0 
1
              0 1.11022302462516e-16               1               0 
              1               0 1.11022302462516e-16               0 
1.11022302462516e-16               1               0               0 
2  8 1 9 -1 0
2  9 1 8 -1 0
2  8 -1 0
2  1 -1 5 1 4 -1 3 1 2 -1 9 1 8 -1 0
1
              1               0               0               0 
              0               1               0 1.40998324127395e-15 
              0               0               1            12.7 
2  8 1 9 -1 14 1 0
2  14 -1 9 1 8 -1 0
2  1 -1 5 1 4 -1 3 1 2 -1 14 -1 9 1 8 -1 0
2  9 -1 2 1 3 -1 4 1 5 -1 0
2  4 1 5 -1 0
2  9 -1 2 1 3 -1 0
2  1 -1 5 1 4 -1 0
2  8 1 9 -1 2 1 3 -1 4 1 5 -1 0
1
              0 1.11022302462516e-16              -1 -1.83630888273001e-14 
              1 -2.22044604925031e-16 1.11022302462516e-16 -2.26342544921216e-46 
-1.11022302462516e-16              -1 -2.22044604925031e-16 -4.0774248038611e-30 
2  23 1 5 -1 0
2  9 -1 2 1 3 -1 4 1 23 -1 0
2  5 1 23 -1 0
2  1 -1 5 1 23 -1 0
2  9 -1 14 1 2 1 3 -1 0
2  8 1 9 -1 14 1 2 1 3 -1 0
1
-2.22044604925031e-16 -1.11022302462516e-16               1            12.7 
              1 -2.22044604925031e-16 1.11022302462516e-16              -0 
1.11022302462516e-16               1               0 1.40998324127395e-15 
2  30 1 3 -1 0
2  9 -1 14 1 2 1 30 -1 0
2  3 1 30 -1 0
2  1 -1 5 1 4 -1 3 1 30 -1 0
2  30 1 3 -1 4 1 5 -1 0
2  1 -1 0
1
              1               0               0 -1.11022302462516e-15 
              0               1               0 2.22044604925031e-15 
              0               0               1              10 
2  23 1 5 -1 37 1 0
2  37 -1 5 1 23 -1 0
2  23 -1 0
2  1 -1 37 -1 5 1 23 -1 0
2  5 -1 37 1 0
Curve2ds 100
1 0 0 3.3306690738754706e-16 -1 
1 82.699999999999989 1.8363088827300087e-14 -3.3306690738754706e-16 -1 
1 82.69999999999996 -1.836308882730008e-14 3.3306690738754706e-16 -1 
1 0 0 3.3306690738754706e-16 -1 
1 0 0 1 -2.2204460492503128e-16 
1 -0 -0 -3.3306690738754686e-16 -1 
1 4.2299497238218466e-15 -12.699999999999996 1 -2.2204460492503128e-16 
1 -0 -0 -3.3306690738754686e-16 -1 
1 -0 0 -3.3306690738754706e-16 -1 
1 82.69999999999996 1.836308882730008e-14 -3.3306690738754706e-16 -1 
1 -0 0 1 2.2204460492503136e-16 
1 -82.699999999999989 -2.8421709430404001e-14 1 3.3306690738754691e-16 
1 -7.1054273576010019e-15 -12.699999999999996 1 2.2204460492503136e-16 
1 -82.699999999999989 -2.8421709430404001e-14 1 3.3306690738754691e-16 
1 82.699999999999989 -1.8363088827300087e-14 3.3306690738754706e-16 -1 
1 -0 0 -3.3306690738754706e-16 -1 
1 0 0 1 -2.2204460492503136e-16 
1 -2.7544633240950121e-14 -82.69999999999996 -1 -3.3306690738754691e-16 
1 7.1054273576010019e-15 -12.699999999999996 1 -2.2204460492503136e-16 
1 -2.7544633240950121e-14 -82.69999999999996 -1 -3.3306690738754691e-16 
2 -28.45000000000001 -54.249999999999986 1 -1.2325951644078318e-32 -1.2325951644078318e-32 -1 9
1 4.7123889803846897 -12.700000000000001 1 0 
2 -28.45000000000001 -54.249999999999986 1 -1.2325951644078318e-32 -1.2325951644078318e-32 -1 9
1 -1.5707963267948966 -12.700000000000001 1 0 
2 -28.450000000000003 -28.449999999999989 1 -1.2325951644078318e-32 -1.2325951644078318e-32 -1 9
1 4.7123889803846897 -12.700000000000005 1 0 
2 -28.450000000000003 -28.449999999999989 1 -1.2325951644078318e-32 -1.2325951644078318e-32 -1 9
1 -1.5707963267948966 -12.700000000000005 1 0 
2 -54.25 -28.449999999999985 1 -1.2325951644078318e-32 -1.2325951644078318e-32 -1 9
1 4.7123889803846897 -12.700000000000008 1 0 
2 -54.25 -28.449999999999985 1 -1.2325951644078318e-32 -1.2325951644078318e-32 -1 9
1 -1.5707963267948966 -12.700000000000008 1 0 
2 -54.250000000000014 -54.249999999999986 1 -1.2325951644078318e-32 -1.2325951644078318e-32 -1 9
1 4.7123889803846897 -12.700000000000005 1 0 
2 -54.250000000000014 -54.249999999999986 1 -1.2325951644078318e-32 -1.2325951644078318e-32 -1 9
1 -1.5707963267948966 -12.700000000000005 1 0 
1 -82.700000000000017 -82.699999999999989 3.3306690738754686e-16 1 
1 -0 0 1 2.2204460492503128e-16 
1 -44.550000000000004 -35.807437415779987 -0.50000000000002776 -0.86602540378442272 
1 0 0 1 0 
1 -47.75 -41.349999999999987 0.50000000000002764 -0.86602540378442283 
1 0 0 1 1.2325951644078309e-32 
1 -38.149999999999999 -46.892562584219988 -1 -3.3306690738754696e-16 
1 0 0 1 0 
1 -34.950000000000003 -41.349999999999987 -0.50000000000002776 -0.86602540378442272 
1 0 0 1 0 
1 -38.150000000000006 -35.807437415779987 0.50000000000002764 -0.86602540378442283 
1 0 0 1 1.2325951644078309e-32 
1 -44.550000000000004 -35.807437415779987 1 3.3306690738754696e-16 
1 0 0 1 0 
1 -82.700000000000017 -82.699999999999989 3.3306690738754686e-16 1 
1 -4.2299497238218466e-15 -12.699999999999996 1 2.2204460492503128e-16 
2 -28.450000000000006 -54.249999999999986 -4.4408920985006257e-16 -1 -1 4.4408920985006257e-16 9.0000000000000018
1 0 0 1 0 
2 -28.449999999999996 -28.449999999999989 -4.4408920985006257e-16 -1 -1 4.4408920985006257e-16 9
1 0 0 1 0 
2 -54.249999999999986 -28.449999999999989 -4.4408920985006257e-16 -1 -1 4.4408920985006257e-16 9
1 0 0 1 0 
2 -54.250000000000007 -54.249999999999986 -4.4408920985006257e-16 -1 -1 4.4408920985006257e-16 9.0000000000000018
1 0 0 1 0 
2 -41.350000000000001 -41.349999999999987 -4.4408920985006257e-16 -1 -1 4.4408920985006257e-16 3.1499999999999999
1 0 0 1 0 
1 0 0 0 -1 
1 6.2831853071795862 0 0 -1 
1 0 0 0 -1 
1 6.2831853071795862 0 0 -1 
1 0 0 0 -1 
1 6.2831853071795862 0 0 -1 
1 0 0 0 -1 
1 6.2831853071795862 0 0 -1 
1 0 0 5.5511151231260921e-17 -1 
1 0 0 -1.1102230246251568e-16 -1 
1 7.4740778095096152e-16 -10 1 0 
1 0 -0 -0.50000000000002753 -0.86602540378442283 
1 6.3999999999996469 1.1832913578315177e-30 5.5511151231260921e-17 -1 
1 -3.4158679198688594e-31 -2.4828700941565244e-47 -5.5511151231260909e-17 -1 
1 -1.6653345369378817e-16 -10.000000000000002 1 1.2325951644078309e-32 
1 -3.1999999999999993 -5.5425625842199997 0.50000000000002776 -0.86602540378442272 
1 6.3999999999996451 -2.6624055551209148e-30 -5.5511151231260909e-17 -1 
1 6.3999999999999995 -2.4651903288156619e-30 1.1102230246251568e-16 -1 
1 0 0 1.1102230246251568e-16 -1 
1 6.3999999999996469 1.1832913578315177e-30 5.5511151231260921e-17 -1 
1 1.1102230246251561e-15 -10.000000000000002 1 0 
1 6.3999999999999995 -11.085125168439996 -1 -3.3306690738754696e-16 
1 3.4158679198688603e-31 6.2752453078735813e-47 5.5511151231260921e-17 -1 
1 6.3999999999996451 4.9303806576313238e-31 -5.5511151231260909e-17 -1 
1 1.6653345369378837e-16 -10 1 0 
1 9.5999999999999996 -5.5425625842199953 -0.50000000000002753 -0.86602540378442283 
1 -4.7855232513795969e-46 3.1554436208840472e-30 -5.5511151231260909e-17 -1 
1 6.3999999999999995 2.4651903288156619e-30 -1.1102230246251568e-16 -1 
1 -3.6281524367425625e-16 -10 1 1.2325951644078309e-32 
1 6.3999999999999995 1.7763568394002503e-15 0.50000000000002776 -0.86602540378442272 
1 -1.1102230246251563e-15 -10 1 0 
1 0 -0 1 3.3306690738754696e-16 
1 0 0 0 -1 
1 6.2831853071795862 0 0 -1 
1 4.7123889803846897 -2.7000000000000046 1 0 
2 3.1999999999999984 -5.5425625842199988 1 -2.465190328815663e-32 -2.465190328815663e-32 -1 3.1499999999999999
1 -1.5707963267948966 -2.7000000000000046 1 0 
2 3.1999999999999984 -5.5425625842199988 1 -2.465190328815663e-32 -2.465190328815663e-32 -1 3.1499999999999999
Curves 50
1 -41.349999999999987 -41.349999999999994 -4.5907722068250209e-15 0 1.1102230246251568e-16 1 
1 41.349999999999987 -41.349999999999994 4.5907722068250225e-15 0 1.1102230246251568e-16 1 
1 -41.349999999999987 -41.350000000000001 0 1 0 0 
1 -41.349999999999987 -41.350000000000001 0 1 0 0 
1 -41.349999999999973 41.350000000000009 -4.5907722068250209e-15 0 1.1102230246251568e-16 1 
1 -41.349999999999987 41.350000000000016 0 0 -1 0 
1 -41.349999999999987 41.350000000000016 0 0 -1 0 
1 41.350000000000001 41.350000000000009 4.5907722068250225e-15 0 1.1102230246251568e-16 1 
1 41.350000000000001 -41.350000000000001 0 0 1 0 
1 41.350000000000001 -41.350000000000001 0 0 1 0 
2 12.899999999999999 -12.899999999999995 -1.4210854715202004e-14 1.1102230246251563e-16 1.1102230246251568e-16 1 0 -1 1.1102230246251568e-16 1 -1.2325951644078309e-32 -1.1102230246251563e-16 9
2 12.899999999999999 -12.899999999999995 -1.4210854715202004e-14 1.1102230246251563e-16 1.1102230246251568e-16 1 0 -1 1.1102230246251568e-16 1 -1.2325951644078309e-32 -1.1102230246251563e-16 9
2 -12.899999999999999 -12.899999999999999 -1.4210854715202004e-14 1.1102230246251563e-16 1.1102230246251568e-16 1 0 -1 1.1102230246251568e-16 1 -1.2325951644078309e-32 -1.1102230246251563e-16 9
2 -12.899999999999999 -12.899999999999999 -1.4210854715202004e-14 1.1102230246251563e-16 1.1102230246251568e-16 1 0 -1 1.1102230246251568e-16 1 -1.2325951644078309e-32 -1.1102230246251563e-16 9
2 -12.900000000000002 12.899999999999999 -2.1316282072803006e-14 1.1102230246251563e-16 1.1102230246251568e-16 1 0 -1 1.1102230246251568e-16 1 -1.2325951644078309e-32 -1.1102230246251563e-16 9
2 -12.900000000000002 12.899999999999999 -2.1316282072803006e-14 1.1102230246251563e-16 1.1102230246251568e-16 1 0 -1 1.1102230246251568e-16 1 -1.2325951644078309e-32 -1.1102230246251563e-16 9
2 12.899999999999995 12.900000000000002 -2.1316282072803006e-14 1.1102230246251563e-16 1.1102230246251568e-16 1 0 -1 1.1102230246251568e-16 1 -1.2325951644078309e-32 -1.1102230246251563e-16 9
2 12.899999999999995 12.900000000000002 -2.1316282072803006e-14 1.1102230246251563e-16 1.1102230246251568e-16 1 0 -1 1.1102230246251568e-16 1 -1.2325951644078309e-32 -1.1102230246251563e-16 9
1 41.350000000000001 41.350000000000016 0 -1 0 0 
1 -5.5425625842199997 -3.2000000000000002 0 0.86602540378442272 -0.50000000000002764 0 
1 0 -6.4000000000000004 0 0.86602540378442272 0.50000000000002764 0 
1 5.5425625842199997 3.2000000000000002 0 0 -1 0 
1 0 6.4000000000000004 0 0.86602540378442272 -0.50000000000002764 0 
1 -5.5425625842199997 3.2000000000000002 0 0.86602540378442272 0.50000000000002764 0 
1 -5.5425625842199997 -3.2000000000000002 0 0 1 0 
1 41.350000000000001 41.350000000000016 0 -1 0 0 
2 12.9 -12.9 0 0 0 1 1 0 -0 -0 1 0 9
2 -12.9 -12.9 0 0 0 1 1 0 -0 -0 1 0 9
2 -12.9 12.9 0 0 0 1 1 0 -0 -0 1 0 9
2 12.9 12.9 0 0 0 1 1 0 -0 -0 1 0 9
2 0 0 0 0 0 1 1 0 -0 -0 1 0 3.1499999999999999
1 21.899999999999999 -12.899999999999993 12.699999999999985 -1.1102230246251568e-16 -2.2204460492503136e-16 -1 
1 -3.8999999999999986 -12.899999999999995 12.699999999999989 -1.1102230246251568e-16 -2.2204460492503136e-16 -1 
1 -3.9000000000000012 12.900000000000002 12.699999999999987 -1.1102230246251568e-16 -2.2204460492503136e-16 -1 
1 21.899999999999991 12.900000000000004 12.699999999999982 -1.1102230246251568e-16 -2.2204460492503136e-16 -1 
1 -5.5425625842199979 3.2000000000000002 -1.9333708254822828e-14 -1.1102230246251563e-16 2.2204460492503136e-16 1 
1 -5.5425625842199997 -3.2000000000000002 0 0.86602540378442272 -0.50000000000002764 0 
1 2.1316282072803005e-15 6.3999999999999995 -1.9073631563060184e-14 -1.1102230246251563e-16 2.2204460492503136e-16 1 
1 0 -6.4000000000000004 0 0.86602540378442272 0.50000000000002764 0 
1 5.5425625842199997 3.1999999999999993 -1.8103012135537436e-14 -1.1102230246251563e-16 2.2204460492503136e-16 1 
1 5.5425625842199979 -3.2000000000000002 -1.7392469399777339e-14 -1.1102230246251563e-16 2.2204460492503136e-16 1 
1 5.5425625842199997 3.2000000000000002 0 0 -1 0 
1 -2.1316282072803005e-15 -6.3999999999999995 -1.7652546091539983e-14 -1.1102230246251563e-16 2.2204460492503136e-16 1 
1 0 6.4000000000000004 0 0.86602540378442272 -0.50000000000002764 0 
1 -5.5425625842199997 -3.1999999999999993 -1.8623165519062731e-14 -1.1102230246251563e-16 2.2204460492503136e-16 1 
1 -5.5425625842199997 3.2000000000000002 0 0.86602540378442272 0.50000000000002764 0 
1 -5.5425625842199997 -3.2000000000000002 0 0 1 0 
1 3.1499999999999995 3.1696867353048196e-15 12.699999999999987 -1.1102230246251568e-16 -2.2204460492503136e-16 -1 
2 -2.9976021664879224e-16 3.6304292905242559e-15 9.9999999999999805 1.1102230246251564e-16 2.2204460492503136e-16 1 0 -1 2.2204460492503136e-16 1 -2.4651903288156619e-32 -1.1102230246251564e-16 3.1499999999999999
2 -2.9976021664879224e-16 3.6304292905242559e-15 9.9999999999999805 1.1102230246251564e-16 2.2204460492503136e-16 1 0 -1 2.2204460492503136e-16 1 -2.4651903288156619e-32 -1.1102230246251564e-16 3.1499999999999999
Polygon3D 0
PolygonOnTriangulations 0
Surfaces 18
1 -41.349999999999987 -41.349999999999994 -4.5907722068250209e-15 1.2325951644078315e-32 1 -1.1102230246251568e-16 1 0 1.1102230246251568e-16 1.1102230246251568e-16 -1.1102230246251568e-16 -1 
1 -41.349999999999973 41.350000000000009 -4.5907722068250209e-15 1 -1.1102230246251568e-16 1.2325951644078315e-32 -1.1102230246251568e-16 -1 0 1.2325951644078315e-32 -1.3684555315672051e-48 -1 
1 41.349999999999987 -41.349999999999994 4.5907722068250225e-15 -1 1.1102230246251568e-16 -1.2325951644078315e-32 1.1102230246251568e-16 1 0 1.2325951644078315e-32 -1.3684555315672051e-48 -1 
1 0 -41.349999999999987 -41.350000000000001 -1 0 0 0 0 -1 -0 -1 -0 
1 0 -41.349999999999987 -41.350000000000001 -1 0 0 0 0 -1 -0 -1 -0 
1 41.350000000000001 41.350000000000009 4.5907722068250225e-15 -1.2325951644078315e-32 -1 1.1102230246251568e-16 -1 0 -1.1102230246251568e-16 1.1102230246251568e-16 -1.1102230246251568e-16 -1 
2 12.9 -12.899999999999993 12.699999999999987 1.1102230246251563e-16 1.1102230246251568e-16 1 1 1.1102230246251563e-16 -1.1102230246251564e-16 -1.1102230246251564e-16 1 -1.1102230246251568e-16 9
2 -12.899999999999997 -12.899999999999997 12.69999999999999 1.1102230246251563e-16 1.1102230246251568e-16 1 1 1.1102230246251563e-16 -1.1102230246251564e-16 -1.1102230246251564e-16 1 -1.1102230246251568e-16 9
2 -12.9 12.9 12.699999999999987 1.1102230246251563e-16 1.1102230246251568e-16 1 1 1.1102230246251563e-16 -1.1102230246251564e-16 -1.1102230246251564e-16 1 -1.1102230246251568e-16 9
2 12.899999999999997 12.900000000000004 12.699999999999983 1.1102230246251563e-16 1.1102230246251568e-16 1 1 1.1102230246251563e-16 -1.1102230246251564e-16 -1.1102230246251564e-16 1 -1.1102230246251568e-16 9
1 -5.5425625842199979 3.2000000000000002 -1.9333708254822828e-14 -0.50000000000002742 0.86602540378442283 -2.4780741986961376e-16 0.86602540378442283 0.50000000000002742 4.0636983087915557e-17 1.5909636962210651e-16 -1.9428902930939939e-16 -1 
1 2.1316282072803009e-15 6.3999999999999995 -1.9073631563060184e-14 0.50000000000002787 0.86602540378442261 -1.3678511740709197e-16 0.86602540378442261 -0.50000000000002787 1.5165928555043737e-16 6.2948235302924771e-17 -1.9428902930939939e-16 -1 
1 5.5425625842199979 -3.2000000000000002 -1.7392469399777339e-14 -1 3.3306690738754701e-16 -1.110223024625157e-16 3.3306690738754701e-16 1 -1.1102230246251564e-16 1.1102230246251565e-16 -1.1102230246251568e-16 -1 
1 -2.1316282072803009e-15 -6.3999999999999995 -1.7652546091539983e-14 -0.50000000000002742 0.86602540378442283 -2.4780741986961376e-16 0.86602540378442283 0.50000000000002742 4.0636983087915557e-17 1.5909636962210651e-16 -1.9428902930939939e-16 -1 
1 -5.5425625842199997 -3.1999999999999993 -1.8623165519062728e-14 0.50000000000002787 0.86602540378442261 -1.3678511740709197e-16 0.86602540378442261 -0.50000000000002787 1.5165928555043737e-16 6.2948235302924771e-17 -1.9428902930939939e-16 -1 
1 -5.5425625842199979 3.2000000000000002 -1.9333708254822828e-14 1 -3.3306690738754701e-16 1.110223024625157e-16 -3.3306690738754701e-16 -1 1.1102230246251564e-16 1.1102230246251565e-16 -1.1102230246251568e-16 -1 
2 1.5653958587979443e-31 2.8199664825478951e-15 12.699999999999987 1.1102230246251563e-16 1.1102230246251568e-16 1 1 1.1102230246251563e-16 -1.1102230246251564e-16 -1.1102230246251564e-16 1 -1.1102230246251568e-16 3.1499999999999999
1 -1.8718360195180135e-14 -5.5425625842199988 3.2000000000000006 -1 5.559680859162067e-31 -1.1102230246251526e-16 1.1102230246251526e-16 0 -1 -5.559680859162067e-31 -1 -6.1724856994094766e-47 
Triangulations 0

TShapes 134
Ve
1e-07
-1.37723166204751e-14 -41.35 -41.35
0 0

0101101
*
Ve
1e-07
12.7 -41.35 -41.35
0 0

0101101
*
Ed
 1e-07 1 1 0
1  1 0 0 12.7
2  1 1 0 0 12.7
2  2 2 0 0 12.7
0

0101000
+134 7 -133 7 *
Ve
1e-07
1.37723166204751e-14 41.35 -41.35
0 0

0101101
*
Ve
1e-07
12.7 41.35 -41.35
0 0

0101101
*
Ed
 1e-07 1 1 0
1  2 0 0 12.7
2  3 1 0 0 12.7
2  4 3 0 0 12.7
0

0101000
+131 7 -130 7 *
Ed
 1e-07 1 1 0
1  3 0 0 82.7
2  5 1 11 0 82.7
2  6 4 12 0 82.7
0

0101000
+134 13 -131 13 *
Ed
 1e-07 1 1 0
1  4 0 0 82.7
2  7 1 16 0 82.7
2  8 5 12 0 82.7
0

0101000
+133 17 -130 17 *
Wi

0101000
+132 0 -129 0 -128 10 +127 15 *
Fa
0  1e-07 1 0

0101000
+126 0 *
Ve
1e-07
-1.37723166204751e-14 -41.35 41.35
0 0

0101101
*
Ve
1e-07
12.7 -41.35 41.35
0 0

0101101
*
Ed
 1e-07 1 1 0
1  5 0 0 12.7
2  9 2 0 0 12.7
2  10 6 0 0 12.7
0

0101000
+124 7 -123 7 *
Ed
 1e-07 1 1 0
1  6 0 0 82.7
2  11 2 11 0 82.7
2  12 4 12 0 82.7
0

0101000
+124 13 -134 13 *
Ed
 1e-07 1 1 0
1  7 0 0 82.7
2  13 2 16 0 82.7
2  14 5 12 0 82.7
0

0101000
+123 17 -133 17 *
Wi

0101000
+122 0 -132 0 -121 10 +120 15 *
Fa
0  1e-07 2 0

0101000
+119 0 *
Ve
1e-07
1.37723166204751e-14 41.35 41.35
0 0

0101101
*
Ve
1e-07
12.7 41.35 41.35
0 0

0101101
*
Ed
 1e-07 1 1 0
1  8 0 0 12.7
2  15 3 0 0 12.7
2  16 6 0 0 12.7
0

0101000
+117 7 -116 7 *
Ed
 1e-07 1 1 0
1  9 0 0 82.7
2  17 3 11 0 82.7
2  18 4 12 0 82.7
0

0101000
+131 13 -117 13 *
Ed
 1e-07 1 1 0
1  10 0 0 82.7
2  19 3 16 0 82.7
2  20 5 12 0 82.7
0

0101000
+130 17 -116 17 *
Wi

0101000
+129 0 -115 0 -114 10 +113 15 *
Fa
0  1e-07 3 0

0101000
+112 0 *
Ve
1e-07
-1.17794662912729e-14 12.9 -21.9
0 0

0101101
*
Ve
2.00001e-07
-1.17794662912729e-14 21.9 -12.9
0 0

0101101
*
Ed
 1e-07 1 1 0
1  11 0 0 1.5707963267949
2  21 4 20 0 1.5707963267949
2  22 7 0 0 1.5707963267949
0

0101000
+110 21 -109 21 *
Ed
 1e-07 1 1 0
1  12 0 1.5707963267949 6.28318530717959
2  23 4 20 1.5707963267949 6.28318530717959
2  24 7 0 1.5707963267949 6.28318530717959
0

0101000
+109 21 -110 21 *
Wi

0101000
+108 19 +107 19 *
Ve
1e-07
-1.46438416948058e-14 -12.9 -21.9
0 0

0101101
*
Ve
2.00001e-07
-1.46438416948058e-14 -3.9 -12.9
0 0

0101101
*
Ed
 1e-07 1 1 0
1  13 0 0 1.5707963267949
2  25 4 20 0 1.5707963267949
2  26 8 0 0 1.5707963267949
0

0101000
+105 21 -104 21 *
Ed
 1e-07 1 1 0
1  14 0 1.5707963267949 6.28318530717959
2  27 4 20 1.5707963267949 6.28318530717959
2  28 8 0 1.5707963267949 6.28318530717959
0

0101000
+104 21 -105 21 *
Wi

0101000
+103 19 +102 19 *
Ve
1e-07
-2.17492690524068e-14 -12.9 3.9
0 0

0101101
*
Ve
2.00001e-07
-2.17492690524068e-14 -3.9 12.9
0 0

0101101
*
Ed
 1e-07 1 1 0
1  15 0 0 1.5707963267949
2  29 4 20 0 1.5707963267949
2  30 9 0 0 1.5707963267949
0

0101000
+100 21 -99 21 *
Ed
 1e-07 1 1 0
1  16 0 1.5707963267949 6.28318530717959
2  31 4 20 1.5707963267949 6.28318530717959
2  32 9 0 1.5707963267949 6.28318530717959
0

0101000
+99 21 -100 21 *
Wi

0101000
+98 19 +97 19 *
Ve
1e-07
-1.88848936488739e-14 12.9 3.9
0 0

0101101
*
Ve
2.00001e-07
-1.88848936488739e-14 21.9 12.9
0 0

0101101
*
Ed
 1e-07 1 1 0
1  17 0 0 1.5707963267949
2  33 4 20 0 1.5707963267949
2  34 10 0 0 1.5707963267949
0

0101000
+95 21 -94 21 *
Ed
 1e-07 1 1 0
1  18 0 1.5707963267949 6.28318530717959
2  35 4 20 1.5707963267949 6.28318530717959
2  36 10 0 1.5707963267949 6.28318530717959
0

0101000
+94 21 -95 21 *
Wi

0101000
+93 19 +92 19 *
Ed
 1e-07 1 1 0
1  19 0 0 82.7
2  37 4 12 0 82.7
2  38 6 11 0 82.7
0

0101000
+117 13 -124 13 *
Wi

0101000
-128 22 -121 22 -114 22 -90 22 *
Ve
1e-07
-1.93337082548228e-14 -5.54256258422 3.2
0 0

0101101
*
Ve
1e-07
-1.90736315630602e-14 2.1316282072803e-15 6.4
0 0

0101101
*
Ed
 1e-07 1 1 0
1  20 0 0 6.39999999999965
2  39 4 25 0 6.39999999999965
2  40 11 26 0 6.39999999999965
0

0101000
+88 27 -87 27 *
Ve
1e-07
-1.81030121355374e-14 5.54256258422 3.2
0 0

0101101
*
Ed
 1e-07 1 1 0
1  21 0 0 6.39999999999965
2  41 4 25 0 6.39999999999965
2  42 12 26 0 6.39999999999965
0

0101000
+87 27 -85 27 *
Ve
1e-07
-1.73924693997773e-14 5.54256258422 -3.2
0 0

0101101
*
Ed
 1e-07 1 1 0
1  22 0 0 6.4
2  43 4 25 0 6.4
2  44 13 26 0 6.4
0

0101000
+83 27 -85 27 *
Ve
1e-07
-1.765254609154e-14 -2.1316282072803e-15 -6.4
0 0

0101101
*
Ed
 1e-07 1 1 0
1  23 0 0 6.39999999999965
2  45 4 25 0 6.39999999999965
2  46 14 26 0 6.39999999999965
0

0101000
+81 27 -83 27 *
Ve
1e-07
-1.86231655190627e-14 -5.54256258422 -3.2
0 0

0101101
*
Ed
 1e-07 1 1 0
1  24 0 0 6.39999999999965
2  47 4 25 0 6.39999999999965
2  48 15 26 0 6.39999999999965
0

0101000
+79 27 -81 27 *
Ed
 1e-07 1 1 0
1  25 0 0 6.4
2  49 4 25 0 6.4
2  50 16 26 0 6.4
0

0101000
+88 27 -79 27 *
Wi

0101000
-86 24 -84 24 +82 24 +80 24 +78 24 +77 24 *
Fa
0  1e-07 4 18

0101000
+106 0 +101 0 +96 0 +91 0 +89 0 +76 0 *
Ed
 1e-07 1 1 0
1  26 0 0 82.7
2  51 5 12 0 82.7
2  52 6 16 0 82.7
0

0101000
+116 17 -123 17 *
Wi

0101000
-127 29 -120 29 -113 29 -74 29 *
Ve
1e-07
12.7 21.9 -12.9
0 0

0101101
*
Ed
 1e-07 1 1 0
1  27 0 0 6.28318530717959
2  53 5 32 0 6.28318530717959
2  54 7 33 0 6.28318530717959
0

0101100
+72 34 -72 34 *
Wi

0101000
+71 31 *
Ve
1e-07
12.7 -3.9 -12.9
0 0

0101101
*
Ed
 1e-07 1 1 0
1  28 0 0 6.28318530717959
2  55 5 32 0 6.28318530717959
2  56 8 33 0 6.28318530717959
0

0101100
+69 34 -69 34 *
Wi

0101000
+68 31 *
Ve
1e-07
12.7 -3.9 12.9
0 0

0101101
*
Ed
 1e-07 1 1 0
1  29 0 0 6.28318530717959
2  57 5 32 0 6.28318530717959
2  58 9 33 0 6.28318530717959
0

0101100
+66 34 -66 34 *
Wi

0101000
+65 31 *
Ve
1e-07
12.7 21.9 12.9
0 0

0101101
*
Ed
 1e-07 1 1 0
1  30 0 0 6.28318530717959
2  59 5 32 0 6.28318530717959
2  60 10 33 0 6.28318530717959
0

0101100
+63 34 -63 34 *
Wi

0101000
+62 31 *
Ve
1e-07
12.7 3.15 4.57966997657877e-15
0 0

0101101
*
Ed
 1e-07 1 1 0
1  31 0 0 6.28318530717959
2  61 5 32 0 6.28318530717959
2  62 17 33 0 6.28318530717959
0

0101100
+60 34 -60 34 *
Wi

0101000
+59 31 *
Fa
0  1e-07 5 28

0101000
+73 0 +70 0 +67 0 +64 0 +61 0 +58 0 *
Wi

0101000
+115 0 -122 0 -90 10 +74 15 *
Fa
0  1e-07 6 0

0101000
+56 0 *
Ed
 1e-07 1 1 0
1  32 0 0 12.7
3  63 64CN 7 0 0 12.7
0

0101000
+72 21 -109 21 *
Wi

0101000
-71 35 -54 19 +108 19 +107 19 +54 19 *
Fa
0  1e-07 7 19

0101000
+53 0 *
Ed
 1e-07 1 1 0
1  33 0 0 12.7
3  65 66CN 8 0 0 12.7
0

0101000
+69 21 -104 21 *
Wi

0101000
-68 35 -51 19 +103 19 +102 19 +51 19 *
Fa
0  1e-07 8 19

0101000
+50 0 *
Ed
 1e-07 1 1 0
1  34 0 0 12.7
3  67 68CN 9 0 0 12.7
0

0101000
+66 21 -99 21 *
Wi

0101000
-65 35 -48 19 +98 19 +97 19 +48 19 *
Fa
0  1e-07 9 19

0101000
+47 0 *
Ed
 1e-07 1 1 0
1  35 0 0 12.7
3  69 70CN 10 0 0 12.7
0

0101000
+63 21 -94 21 *
Wi

0101000
-62 35 -45 19 +93 19 +92 19 +45 19 *
Fa
0  1e-07 10 19

0101000
+44 0 *
Ve
1e-07
9.99999999999998 -5.54256258422 3.2
0 0

0101101
*
Ed
 1e-07 1 1 0
1  36 0 0 10
2  71 11 0 0 10
2  72 16 0 0 10
0

0101000
+88 36 -42 36 *
Ve
1e-07
9.99999999999998 1.02140518265514e-15 6.4
0 0

0101101
*
Ed
 1e-07 1 1 0
1  37 0 0 6.39999999999965
2  73 11 39 0 6.39999999999965
2  74 18 40 0 6.39999999999965
0

0101000
+42 41 -40 41 *
Ed
 1e-07 1 1 0
1  38 0 0 10
2  75 11 0 0 10
2  76 12 0 0 10
0

0101000
+87 36 -40 36 *
Wi

0101000
+41 0 -86 24 +39 38 -38 0 *
Fa
0  1e-07 11 0

0101000
+37 0 *
Ve
1e-07
9.99999999999998 5.54256258422 3.2
0 0

0101101
*
Ed
 1e-07 1 1 0
1  39 0 0 6.39999999999965
2  77 12 39 0 6.39999999999965
2  78 18 40 0 6.39999999999965
0

0101000
+40 41 -35 41 *
Ed
 1e-07 1 1 0
1  40 0 0 10
2  79 12 0 0 10
2  80 13 0 0 10
0

0101000
+85 36 -35 36 *
Wi

0101000
+38 0 -84 24 +34 38 -33 0 *
Fa
0  1e-07 12 0

0101000
+32 0 *
Ve
1e-07
9.99999999999998 5.54256258422 -3.2
0 0

0101101
*
Ed
 1e-07 1 1 0
1  41 0 0 10
2  81 13 0 0 10
2  82 14 0 0 10
0

0101000
+83 36 -30 36 *
Ed
 1e-07 1 1 0
1  42 0 0 6.4
2  83 13 39 0 6.4
2  84 18 40 0 6.4
0

0101000
+30 41 -35 41 *
Wi

0101000
+29 0 -82 24 +28 38 -33 0 *
Fa
0  1e-07 13 0

0101000
+27 0 *
Ve
1e-07
9.99999999999998 -3.24185123190546e-15 -6.4
0 0

0101101
*
Ed
 1e-07 1 1 0
1  43 0 0 10
2  85 14 0 0 10
2  86 15 0 0 10
0

0101000
+81 36 -25 36 *
Ed
 1e-07 1 1 0
1  44 0 0 6.39999999999965
2  87 14 39 0 6.39999999999965
2  88 18 40 0 6.39999999999965
0

0101000
+25 41 -30 41 *
Wi

0101000
+24 0 -80 24 +23 38 -29 0 *
Fa
0  1e-07 14 0

0101000
+22 0 *
Ve
1e-07
9.99999999999998 -5.54256258422 -3.2
0 0

0101101
*
Ed
 1e-07 1 1 0
1  45 0 0 10
2  89 15 0 0 10
2  90 16 0 0 10
0

0101000
+79 36 -20 36 *
Ed
 1e-07 1 1 0
1  46 0 0 6.39999999999965
2  91 15 39 0 6.39999999999965
2  92 18 40 0 6.39999999999965
0

0101000
+20 41 -25 41 *
Wi

0101000
+19 0 -78 24 +18 38 -24 0 *
Fa
0  1e-07 15 0

0101000
+17 0 *
Ed
 1e-07 1 1 0
1  47 0 0 6.4
2  93 16 39 0 6.4
2  94 18 40 0 6.4
0

0101000
+42 41 -20 41 *
Wi

0101000
+41 0 -77 24 +15 38 -19 0 *
Fa
0  1e-07 16 0

0101000
+14 0 *
Ve
2.00001e-07
9.99999999999998 3.15 3.68038932663239e-15
0 0

0101101
*
Ed
 1e-07 1 1 0
1  48 0 0 2.7
3  95 96CN 17 0 0 2.7
0

0101000
+60 21 -12 21 *
Ve
1e-07
9.99999999999998 -1.07128770011162e-15 -3.15
0 0

0101101
*
Ed
 1e-07 1 1 0
1  49 0 0 1.5707963267949
2  97 17 19 0 1.5707963267949
2  98 18 42 0 1.5707963267949
0

0101000
+10 36 -12 36 *
Ed
 1e-07 1 1 0
1  50 0 1.5707963267949 6.28318530717959
2  99 17 19 1.5707963267949 6.28318530717959
2  100 18 42 1.5707963267949 6.28318530717959
0

0101000
+12 36 -10 36 *
Wi

0101000
+11 19 -59 35 -11 19 +9 0 +8 0 *
Fa
0  1e-07 17 19

0101000
+7 0 *
Wi

0101000
+9 0 +8 0 *
Wi

0101000
-15 38 +39 38 -18 38 +34 38 -23 38 -28 38 *
Fa
0  1e-07 18 42

0101000
+5 0 +4 0 *
Sh

0101000
-125 6 -118 6 -111 6 +75 0 -57 19 -55 6 -52 0 -49 0 -46 0 -43 0 
-36 0 -31 0 +26 0 +21 0 +16 0 +13 0 -6 0 +3 0 *
So

0100000
+2 0 *

+1 1 