DBRep_DrawableShape

CASCADE Topology V1, (c) Matra-Datavision
Locations 14
1
              1               0               0               0 
              0               1               0               0 
              0               0               1               0 
2  1 -1 0
1
              0               0              -1              -0 
             -1               0               0              -0 
              0               1               0               0 
2  3 -1 0
2  1 -1 3 -1 0
1
              1               0               0              -1 
              0               1               0              -0 
              0               0               1               0 
2  3 1 6 1 0
2  6 -1 3 -1 0
2  1 -1 6 -1 3 -1 0
1
              1               0               0              -1 
              0               1               0              -0 
              0               0               1               0 
2  3 1 10 1 0
2  6 1 10 -1 3 -1 0
2  10 -1 3 -1 0
2  1 -1 10 -1 3 -1 0
Curve2ds 48
1 0 0 0 -1 
1 400 0 0 -1 
1 1200 0 0 -1 
1 0 0 0 -1 
1 0 0 1 0 
1 0 0 0 1 
1 0 -1 1 0 
1 0 0 0 1 
1 0 0 0 -1 
1 1200 0 0 -1 
1 0 0 1 0 
1 400 0 -1 0 
1 0 -1 1 0 
1 400 0 -1 0 
1 400 0 0 -1 
1 0 0 0 -1 
1 0 0 1 0 
1 0 1200 1 0 
1 0 -1 1 0 
1 0 1200 1 0 
1 400 1200 0 -1 
1 0 0 1 0 
1 350 49.999999999999091 -1 0 
1 0 0 1 0 
1 350 1150 0 -1 
1 0 0 1 0 
1 50 1150 1 0 
1 0 0 1 0 
1 50 49.999999999999091 0 1 
1 0 0 1 0 
1 400 1200 0 -1 
1 0 -1 1 0 
1 350 49.999999999999091 -1 0 
1 0 -1 1 0 
1 350 1150 0 -1 
1 0 -1 1 0 
1 50 1150 1 0 
1 0 -1 1 0 
1 50 49.999999999999091 0 1 
1 0 -1 1 0 
1 0 0 0 -1 
1 1100.0000000000009 0 0 -1 
1 300 0 0 -1 
1 0 0 0 -1 
1 0 0 0 -1 
1 300 0 0 -1 
1 0 0 0 -1 
1 1100.0000000000009 0 0 -1 
Curves 24
1 0 5700 2200 -1 -0 0 
1 0 4500 2200 -1 -0 0 
1 -5700 2200 0 1 0 0 
1 -5700 2200 0 1 0 0 
1 0 5700 1800 -1 -0 0 
1 -5700 1800 0 0 1 0 
1 -5700 1800 0 0 1 0 
1 0 4500 1800 -1 -0 0 
1 -4500 2200 0 0 -1 0 
1 -4500 2200 0 0 -1 0 
1 -4500 1800 0 -1 0 0 
1 -5650.0000000000009 1850 0 0 1 0 
1 -4550 1850 0 -1 0 0 
1 -4550 2150 0 0 -1 0 
1 -5650.0000000000009 2150 0 1 0 0 
1 -4500 1800 0 -1 0 0 
1 -5650.0000000000009 1850 0 0 1 0 
1 -4550 1850 0 -1 0 0 
1 -4550 2150 0 0 -1 0 
1 -5650.0000000000009 2150 0 1 0 0 
1 0 5650.0000000000009 1850 -1 -0 0 
1 0 5650.0000000000009 2150 -1 -0 0 
1 0 4550 1850 -1 -0 0 
1 0 4550 2150 -1 -0 0 
Polygon3D 0
PolygonOnTriangulations 0
Surfaces 10
1 0 5700 2200 0 0 1 0 -1 0 1 0 -0 
1 0 5700 1800 -0 1 0 0 0 1 1 0 -0 
1 0 4500 2200 0 -1 0 0 0 -1 1 0 0 
1 0 5700 2200 -1 -0 0 -0 0 -1 0 -1 -0 
1 0 5700 2200 -1 -0 0 -0 0 -1 0 -1 -0 
1 0 4500 1800 -0 0 -1 0 1 0 1 0 -0 
1 0 5650.0000000000009 1850 -0 1 0 0 0 1 1 0 -0 
1 0 4550 1850 -0 0 -1 0 1 0 1 0 -0 
1 0 4550 2150 0 -1 0 0 0 -1 1 0 0 
1 0 5650.0000000000009 2150 0 0 1 0 -1 0 1 0 -0 
Triangulations 0

TShapes 66
Ve
1e-07
0 5700 2200
0 0

0101101
*
Ve
1e-07
-1 5700 2200
0 0

0101101
*
Ed
 1e-07 1 1 0
1  1 0 0 1
2  1 1 0 0 1
2  2 2 0 0 1
0

0101000
+66 2 -65 2 *
Ve
1e-07
0 4500 2200
0 0

0101101
*
Ve
1e-07
-1 4500 2200
0 0

0101101
*
Ed
 1e-07 1 1 0
1  2 0 0 1
2  3 1 0 0 1
2  4 3 0 0 1
0

0101000
+63 2 -62 2 *
Ed
 1e-07 1 1 0
1  3 0 0 1200
2  5 1 4 0 1200
2  6 4 4 0 1200
0

0101000
+66 5 -63 5 *
Ed
 1e-07 1 1 0
1  4 0 0 1200
2  7 1 8 0 1200
2  8 5 4 0 1200
0

0101000
+65 9 -62 9 *
Wi

0101000
+64 0 -61 0 -60 3 +59 7 *
Fa
0  1e-07 1 0

0101000
+58 0 *
Ve
1e-07
0 5700 1800
0 0

0101101
*
Ve
1e-07
-1 5700 1800
0 0

0101101
*
Ed
 1e-07 1 1 0
1  5 0 0 1
2  9 2 0 0 1
2  10 6 0 0 1
0

0101000
+56 2 -55 2 *
Ed
 1e-07 1 1 0
1  6 0 0 400
2  11 2 4 0 400
2  12 4 4 0 400
0

0101000
+56 5 -66 5 *
Ed
 1e-07 1 1 0
1  7 0 0 400
2  13 2 8 0 400
2  14 5 4 0 400
0

0101000
+55 9 -65 9 *
Wi

0101000
+54 0 -64 0 -53 3 +52 7 *
Fa
0  1e-07 2 0

0101000
+51 0 *
Ve
1e-07
0 4500 1800
0 0

0101101
*
Ve
1e-07
-1 4500 1800
0 0

0101101
*
Ed
 1e-07 1 1 0
1  8 0 0 1
2  15 3 0 0 1
2  16 6 0 0 1
0

0101000
+49 2 -48 2 *
Ed
 1e-07 1 1 0
1  9 0 0 400
2  17 3 4 0 400
2  18 4 4 0 400
0

0101000
+63 5 -49 5 *
Ed
 1e-07 1 1 0
1  10 0 0 400
2  19 3 8 0 400
2  20 5 4 0 400
0

0101000
+62 9 -48 9 *
Wi

0101000
+61 0 -47 0 -46 3 +45 7 *
Fa
0  1e-07 3 0

0101000
+44 0 *
Ed
 1e-07 1 1 0
1  11 0 0 1200
2  21 4 4 0 1200
2  22 6 4 0 1200
0

0101000
+49 5 -56 5 *
Wi

0101000
-60 3 -53 3 -46 3 -42 3 *
Ve
1e-07
0 5650 1850
0 0

0101101
*
Ve
1e-07
0 5650 2150
0 0

0101101
*
Ed
 1e-07 1 1 0
1  12 0 0 300
2  23 4 4 0 300
2  24 7 4 0 300
0

0101000
+40 5 -39 5 *
Ve
1e-07
0 4550 1850
0 0

0101101
*
Ed
 1e-07 1 1 0
1  13 0 0 1100
2  25 4 4 0 1100
2  26 8 4 0 1100
0

0101000
+37 5 -40 5 *
Ve
1e-07
0 4550 2150
0 0

0101101
*
Ed
 1e-07 1 1 0
1  14 0 0 300
2  27 4 4 0 300
2  28 9 4 0 300
0

0101000
+35 5 -37 5 *
Ed
 1e-07 1 1 0
1  15 0 0 1100
2  29 4 4 0 1100
2  30 10 4 0 1100
0

0101000
+39 5 -35 5 *
Wi

0101000
+38 3 +36 3 +34 3 +33 3 *
Fa
0  1e-07 4 0

0101000
+41 0 +32 0 *
Ed
 1e-07 1 1 0
1  16 0 0 1200
2  31 5 4 0 1200
2  32 6 8 0 1200
0

0101000
+48 9 -55 9 *
Wi

0101000
-59 7 -52 7 -45 7 -30 7 *
Ve
1e-07
-1 5650 1850
0 0

0101101
*
Ve
1e-07
-1 5650 2150
0 0

0101101
*
Ed
 1e-07 1 1 0
1  17 0 0 300
2  33 5 12 0 300
2  34 7 13 0 300
0

0101000
+28 14 -27 14 *
Ve
1e-07
-1 4550 1850
0 0

0101101
*
Ed
 1e-07 1 1 0
1  18 0 0 1100
2  35 5 12 0 1100
2  36 8 13 0 1100
0

0101000
+25 14 -28 14 *
Ve
1e-07
-1 4550 2150
0 0

0101101
*
Ed
 1e-07 1 1 0
1  19 0 0 300
2  37 5 12 0 300
2  38 9 13 0 300
0

0101000
+23 14 -25 14 *
Ed
 1e-07 1 1 0
1  20 0 0 1100
2  39 5 12 0 1100
2  40 10 13 0 1100
0

0101000
+27 14 -23 14 *
Wi

0101000
+26 11 +24 11 +22 11 +21 11 *
Fa
0  1e-07 5 6

0101000
+29 0 +20 0 *
Wi

0101000
+47 0 -54 0 -42 3 +30 7 *
Fa
0  1e-07 6 0

0101000
+18 0 *
Ed
 1e-07 1 1 0
1  21 0 0 1
2  41 7 0 0 1
2  42 8 0 0 1
0

0101000
+40 2 -28 2 *
Ed
 1e-07 1 1 0
1  22 0 0 1
2  43 7 0 0 1
2  44 10 0 0 1
0

0101000
+39 2 -27 2 *
Wi

0101000
+16 0 -38 3 +26 11 -15 0 *
Fa
0  1e-07 7 0

0101000
+14 0 *
Ed
 1e-07 1 1 0
1  23 0 0 1
2  45 8 0 0 1
2  46 9 0 0 1
0

0101000
+37 2 -25 2 *
Wi

0101000
+12 0 -36 3 +24 11 -16 0 *
Fa
0  1e-07 8 0

0101000
+11 0 *
Ed
 1e-07 1 1 0
1  24 0 0 1
2  47 9 0 0 1
2  48 10 0 0 1
0

0101000
+35 2 -23 2 *
Wi

0101000
+9 0 -34 3 +22 11 -12 0 *
Fa
0  1e-07 9 0

0101000
+8 0 *
Wi

0101000
+15 0 -33 3 +21 11 -9 0 *
Fa
0  1e-07 10 0

0101000
+6 0 *
Sh

0101000
+57 0 +50 0 +43 0 -31 0 +19 0 +17 0 -13 0 -10 0 -7 0 -5 0 
*
So

0100000
+4 0 *
Co

0100000
+3 0 *
Co

1100000
+2 0 *

+1 1 