DBRep_DrawableShape

CASCADE Topology V1, (c) Matra-Datavision
Locations 9
1
              1               0               0               0 
              0               1               0               0 
              0               0               1            -200 
2  1 -1 0
1
              1               0               0               0 
              0               1               0               0 
              0               0               1               0 
2  3 -1 0
2  1 -1 3 -1 0
1
              1               0               0               0 
              0               1               0               0 
              0               0               1             100 
2  3 1 6 1 0
2  6 -1 3 -1 0
2  1 -1 6 -1 3 -1 0
Curve2ds 24
1 0 0 0 -1 
1 1250 0 0 -1 
1 18500 0 0 -1 
1 0 0 0 -1 
1 0 0 1 0 
1 0 0 1 0 
1 0 -100 1 0 
1 0 0 1 0 
1 1250 0 0 -1 
1 0 -0 0 -1 
1 0 0 1 0 
1 18500 0 0 -1 
1 0 -100 1 0 
1 18500 0 0 -1 
1 18500 0 0 -1 
1 0 0 0 -1 
1 0 -0 1 0 
1 18500 -1250 -1 0 
1 0 -100 1 0 
1 18500 -1250 -1 0 
1 0 0 1 0 
1 0 -1250 0 1 
1 0 -100 1 0 
1 0 -1250 0 1 
Curves 12
1 0 0 0 0 0 1 
1 18500 0 0 0 0 1 
1 0 0 0 1 0 0 
1 0 0 0 1 0 0 
1 18500 -1250 0 0 0 1 
1 18500 0 0 0 -1 0 
1 18500 0 0 0 -1 0 
1 0 -1250 0 0 0 1 
1 18500 -1250 0 -1 0 0 
1 18500 -1250 0 -1 0 0 
1 0 -1250 0 0 1 0 
1 0 -1250 0 0 1 0 
Polygon3D 0
PolygonOnTriangulations 0
Surfaces 6
1 0 0 0 0 1 0 1 0 0 0 0 -1 
1 0 -1250 0 -1 0 0 0 1 0 0 0 -1 
1 18500 0 0 1 0 -0 0 -1 0 0 -0 -1 
1 0 0 0 -0 0 1 1 0 0 0 1 -0 
1 0 0 0 -0 0 1 1 0 0 0 1 -0 
1 18500 -1250 0 0 -1 0 -1 0 0 -0 -0 -1 
Triangulations 0

TShapes 34
Ve
1e-07
0 0 -200
0 0

0101101
*
Ve
1e-07
0 0 -100
0 0

0101101
*
Ed
 1e-07 1 1 0
1  1 0 0 100
2  1 1 0 0 100
2  2 2 0 0 100
0

0101000
+34 2 -33 2 *
Ve
1e-07
18500 0 -200
0 0

0101101
*
Ve
1e-07
18500 0 -100
0 0

0101101
*
Ed
 1e-07 1 1 0
1  2 0 0 100
2  3 1 0 0 100
2  4 3 0 0 100
0

0101000
+31 2 -30 2 *
Ed
 1e-07 1 1 0
1  3 0 0 18500
2  5 1 4 0 18500
2  6 4 4 0 18500
0

0101000
+34 5 -31 5 *
Ed
 1e-07 1 1 0
1  4 0 0 18500
2  7 1 8 0 18500
2  8 5 4 0 18500
0

0101000
+33 9 -30 9 *
Wi

0101000
+32 0 -29 0 -28 3 +27 7 *
Fa
0  1e-07 1 0

0101000
+26 0 *
Ve
1e-07
18500 -1250 -200
0 0

0101101
*
Ve
1e-07
18500 -1250 -100
0 0

0101101
*
Ed
 1e-07 1 1 0
1  5 0 0 100
2  9 3 0 0 100
2  10 6 0 0 100
0

0101000
+24 2 -23 2 *
Ed
 1e-07 1 1 0
1  6 0 0 1250
2  11 3 4 0 1250
2  12 4 4 0 1250
0

0101000
+31 5 -24 5 *
Ed
 1e-07 1 1 0
1  7 0 0 1250
2  13 3 8 0 1250
2  14 5 4 0 1250
0

0101000
+30 9 -23 9 *
Wi

0101000
+29 0 -22 0 -21 3 +20 7 *
Fa
0  1e-07 3 0

0101000
+19 0 *
Ve
1e-07
0 -1250 -200
0 0

0101101
*
Ve
1e-07
0 -1250 -100
0 0

0101101
*
Ed
 1e-07 1 1 0
1  8 0 0 100
2  15 6 0 0 100
2  16 2 0 0 100
0

0101000
+17 2 -16 2 *
Ed
 1e-07 1 1 0
1  9 0 0 18500
2  17 6 4 0 18500
2  18 4 4 0 18500
0

0101000
+24 5 -17 5 *
Ed
 1e-07 1 1 0
1  10 0 0 18500
2  19 6 8 0 18500
2  20 5 4 0 18500
0

0101000
+23 9 -16 9 *
Wi

0101000
+22 0 -15 0 -14 3 +13 7 *
Fa
0  1e-07 6 0

0101000
+12 0 *
Ed
 1e-07 1 1 0
1  11 0 0 1250
2  21 2 4 0 1250
2  22 4 4 0 1250
0

0101000
+17 5 -34 5 *
Ed
 1e-07 1 1 0
1  12 0 0 1250
2  23 2 8 0 1250
2  24 5 4 0 1250
0

0101000
+16 9 -33 9 *
Wi

0101000
+15 0 -32 0 -10 3 +9 7 *
Fa
0  1e-07 2 0

0101000
+8 0 *
Wi

0101100
+28 0 +21 0 +14 0 +10 0 *
Fa
0  1e-07 4 0

0101000
-6 3 *
Wi

0101100
+27 0 +20 0 +13 0 +9 0 *
Fa
0  1e-07 5 0

0101000
-4 3 *
Sh

0101000
-25 0 -18 0 -11 0 -7 0 +5 0 -3 6 *
So

0100000
-2 0 *

+1 1 