DBRep_DrawableShape

CASCADE Topology V1, (c) Matra-Datavision
Locations 152
1
              1               0               0               0 
              0               1               0               0 
              0               0               1               0 
1
              1               0               0               0 
              0               1               0               0 
              0               0               1               0 
1
              1               0               0               0 
              0               1               0               0 
              0               0               1               0 
1
              1               0               0               0 
              0               1               0               0 
              0               0               1               0 
1
              1               0               0               0 
              0               1               0               0 
              0               0               1               0 
1
              1               0               0               0 
              0               1               0               0 
              0               0               1               0 
1
              1               0               0               0 
              0               1               0               0 
              0               0               1               0 
2  2 1 3 -1 4 1 5 1 6 -1 7 1 0
1
              1               0               0               0 
              0               1               0               0 
              0               0               1               0 
1
              1               0               0               0 
              0               1               0               0 
              0               0               1               0 
2  9 1 10 -1 0
2  1 -1 7 -1 6 1 5 -1 4 -1 3 1 2 -1 10 1 9 -1 0
1
              1               0               0               0 
              0               1               0               0 
              0               0               1               0 
1
              1               0               0               0 
              0               1               0               0 
              0               0               1               0 
2  13 1 14 -1 9 1 10 -1 0
2  14 1 13 -1 0
2  13 -1 0
2  1 -1 7 -1 6 1 5 -1 4 -1 3 1 2 -1 10 1 9 -1 14 1 13 -1 0
1
              1               0               0               0 
              0               1               0               0 
              0               0               1               5 
2  13 1 14 -1 19 1 9 1 10 -1 0
2  19 -1 14 1 13 -1 0
2  10 1 9 -1 19 -1 14 1 13 -1 0
2  1 -1 7 -1 6 1 5 -1 4 -1 3 1 2 -1 10 1 9 -1 19 -1 14 1 13 -1 0
2  5 1 6 -1 7 1 0
2  14 -1 9 1 10 -1 2 1 3 -1 4 1 0
1
              1               0               0              90 
              0               1               0              30 
              0               0               1               0 
2  1 -1 7 -1 6 1 5 -1 0
1
              1               0               0              60 
              0               1               0              30 
              0               0               1               0 
1
              1               0               0              30 
              0               1               0              30 
              0               0               1               0 
1
              1               0               0               0 
              0               1               0              30 
              0               0               1               0 
1
              1               0               0              90 
              0               1               0               0 
              0               0               1               0 
1
              1               0               0              60 
              0               1               0               0 
              0               0               1               0 
1
              1               0               0              30 
              0               1               0               0 
              0               0               1               0 
2  14 -1 9 1 10 -1 2 1 3 -1 0
2  1 -1 7 -1 6 1 5 -1 4 -1 0
2  13 1 14 -1 9 1 10 -1 2 1 3 -1 4 1 0
2  1 -1 7 -1 6 1 5 -1 4 -1 3 1 2 -1 0
1
              1               0               0              -0 
              0               1               0               0 
              0               0               1               5 
1
              1               0               0               0 
              0               1               0               0 
              0               0               1              15 
2  38 1 10 -1 39 1 0
2  39 -1 10 1 38 -1 0
2  38 -1 0
2  1 -1 7 -1 6 1 5 -1 4 -1 3 1 2 -1 39 -1 10 1 38 -1 0
2  1 -1 7 -1 6 1 5 -1 26 -1 0
1
              1               0               0              -0 
              0               1               0               0 
              0               0               1               5 
1
              1               0               0              -0 
              0               1               0              -0 
              0               0               1             -15 
2  45 1 3 -1 46 1 26 1 0
2  46 -1 3 1 45 -1 0
2  45 -1 0
2  1 -1 7 -1 6 1 5 -1 26 -1 46 -1 3 1 45 -1 0
2  1 -1 7 -1 6 1 5 -1 28 -1 0
2  45 1 3 -1 46 1 28 1 0
2  1 -1 7 -1 6 1 5 -1 28 -1 46 -1 3 1 45 -1 0
2  1 -1 7 -1 6 1 5 -1 29 -1 0
2  45 1 3 -1 46 1 29 1 0
2  1 -1 7 -1 6 1 5 -1 29 -1 46 -1 3 1 45 -1 0
2  1 -1 7 -1 6 1 5 -1 30 -1 0
2  45 1 3 -1 46 1 30 1 0
2  1 -1 7 -1 6 1 5 -1 30 -1 46 -1 3 1 45 -1 0
2  1 -1 7 -1 6 1 5 -1 31 -1 0
2  45 1 3 -1 46 1 31 1 0
2  1 -1 7 -1 6 1 5 -1 31 -1 46 -1 3 1 45 -1 0
2  1 -1 7 -1 6 1 5 -1 32 -1 0
2  45 1 3 -1 46 1 32 1 0
2  1 -1 7 -1 6 1 5 -1 32 -1 46 -1 3 1 45 -1 0
2  1 -1 7 -1 6 1 5 -1 33 -1 0
2  45 1 3 -1 46 1 33 1 0
2  1 -1 7 -1 6 1 5 -1 33 -1 46 -1 3 1 45 -1 0
2  4 1 5 1 6 -1 7 1 0
2  45 1 3 -1 46 1 0
2  1 -1 7 -1 6 1 5 -1 4 -1 46 -1 3 1 45 -1 0
2  10 -1 39 1 2 1 3 -1 4 1 5 1 6 -1 7 1 0
2  3 -1 46 1 26 1 5 1 6 -1 7 1 0
2  3 -1 46 1 28 1 5 1 6 -1 7 1 0
2  3 -1 46 1 29 1 5 1 6 -1 7 1 0
2  3 -1 46 1 30 1 5 1 6 -1 7 1 0
2  3 -1 46 1 31 1 5 1 6 -1 7 1 0
2  3 -1 46 1 32 1 5 1 6 -1 7 1 0
2  3 -1 46 1 33 1 5 1 6 -1 7 1 0
2  3 -1 46 1 4 1 5 1 6 -1 7 1 0
2  2 1 3 -1 4 1 0
2  38 1 10 -1 2 1 3 -1 4 1 0
2  10 1 38 -1 0
2  14 -1 19 1 9 1 38 -1 0
2  1 -1 7 -1 6 1 5 -1 4 -1 3 1 2 -1 10 1 38 -1 0
2  38 1 10 -1 39 1 2 1 3 -1 4 1 0
2  14 -1 19 1 9 1 10 -1 2 1 3 -1 0
2  45 1 3 -1 0
2  14 -1 19 1 9 1 10 -1 2 1 45 -1 0
2  1 -1 7 -1 6 1 5 -1 4 -1 3 1 45 -1 0
2  38 1 10 -1 2 1 3 -1 0
2  14 -1 19 1 9 1 10 -1 2 1 3 -1 4 1 5 1 6 -1 0
2  45 1 3 -1 33 1 5 1 6 -1 0
2  14 -1 19 1 9 1 10 -1 2 1 3 -1 4 1 33 -1 3 1 45 -1 0
2  1 -1 7 -1 6 1 5 -1 33 -1 3 1 45 -1 0
2  38 1 10 -1 2 1 3 -1 4 1 5 1 6 -1 0
2  45 1 3 -1 4 1 5 1 6 -1 0
1
              1               0               0              -0 
              0               1               0               0 
              0               0               1               5 
2  98 1 6 -1 0
2  14 -1 19 1 9 1 10 -1 2 1 3 -1 4 1 5 1 98 -1 0
2  6 1 98 -1 0
2  1 -1 7 -1 6 1 98 -1 0
2  14 -1 19 1 9 1 10 -1 2 1 3 -1 4 1 5 1 6 -1 7 1 0
2  45 1 3 -1 32 1 5 1 6 -1 7 1 0
2  14 -1 19 1 9 1 10 -1 2 1 3 -1 4 1 32 -1 3 1 45 -1 0
2  1 -1 7 -1 6 1 5 -1 32 -1 3 1 45 -1 0
2  38 1 10 -1 2 1 3 -1 4 1 5 1 6 -1 7 1 0
2  45 1 3 -1 33 1 5 1 6 -1 7 1 0
1
              1               0               0              30 
              0               1               0               0 
              0               0               1               0 
2  98 1 6 -1 109 1 0
2  14 -1 19 1 9 1 10 -1 2 1 3 -1 4 1 5 1 6 -1 7 1 109 -1 6 1 98 -1 0
2  1 -1 109 -1 6 1 98 -1 0
2  14 -1 19 1 9 1 10 -1 2 1 3 -1 4 1 0
2  45 1 3 -1 31 1 0
2  14 -1 19 1 9 1 10 -1 2 1 3 -1 4 1 31 -1 3 1 45 -1 0
2  1 -1 7 -1 6 1 5 -1 31 -1 3 1 45 -1 0
2  45 1 3 -1 31 1 5 1 6 -1 7 1 0
1
              1               0               0              60 
              0               1               0               0 
              0               0               1               0 
2  98 1 6 -1 118 1 0
2  14 -1 19 1 9 1 10 -1 2 1 3 -1 4 1 5 1 6 -1 7 1 118 -1 6 1 98 -1 0
2  1 -1 118 -1 6 1 98 -1 0
2  45 1 3 -1 26 1 5 1 6 -1 7 1 0
2  14 -1 19 1 9 1 10 -1 2 1 3 -1 4 1 26 -1 3 1 45 -1 0
2  1 -1 7 -1 6 1 5 -1 26 -1 3 1 45 -1 0
2  45 1 3 -1 26 1 0
2  45 1 3 -1 28 1 5 1 6 -1 7 1 0
2  14 -1 19 1 9 1 10 -1 2 1 3 -1 4 1 28 -1 3 1 45 -1 0
2  1 -1 7 -1 6 1 5 -1 28 -1 3 1 45 -1 0
2  45 1 3 -1 29 1 5 1 6 -1 7 1 0
2  14 -1 19 1 9 1 10 -1 2 1 3 -1 4 1 29 -1 3 1 45 -1 0
2  1 -1 7 -1 6 1 5 -1 29 -1 3 1 45 -1 0
2  45 1 3 -1 30 1 0
2  14 -1 19 1 9 1 10 -1 2 1 3 -1 4 1 30 -1 3 1 45 -1 0
2  1 -1 7 -1 6 1 5 -1 30 -1 3 1 45 -1 0
2  45 1 3 -1 29 1 5 1 6 -1 0
2  45 1 3 -1 30 1 5 1 6 -1 0
2  1 -1 7 -1 0
1
              1               0               0               0 
              0               1               0               0 
              0               0               1              15 
2  98 1 6 -1 138 1 0
2  138 -1 6 1 98 -1 0
2  98 -1 0
2  1 -1 7 -1 138 -1 6 1 98 -1 0
2  1 -1 109 -1 0
2  98 1 6 -1 138 1 109 1 0
2  1 -1 109 -1 138 -1 6 1 98 -1 0
2  1 -1 118 -1 0
2  98 1 6 -1 138 1 118 1 0
2  1 -1 118 -1 138 -1 6 1 98 -1 0
2  98 1 6 -1 7 1 0
2  6 -1 138 1 7 1 0
2  6 -1 138 1 109 1 0
2  6 -1 138 1 118 1 0
Curve2ds 272
1 0 0 0 -1 
1 60 0 0 -1 
1 0 0 1 0 
1 0 0 1 0 
1 0 -5 1 0 
1 120 0 -1 -0 
1 120 0 0 -1 
1 0 0 0 -1 
1 0 0 0 -1 
1 120 0 0 -1 
1 0 0 1 0 
1 0 -60 0 1 
1 0 -5 1 0 
1 60 0 -1 0 
2 105 -15 0 -1 1 0 10
1 -1.5707963267948966 -5 1 0 
2 105 -15 0 -1 1 0 10
1 4.7123889803846897 -5 1 0 
2 75 -15 0 -1 1 0 10
1 -1.5707963267948966 -5 1 0 
2 75 -15 0 -1 1 0 10
1 4.7123889803846897 -5 1 0 
2 45 -15 0 -1 1 0 10
1 -1.5707963267948966 -5 1 0 
2 45 -15 0 -1 1 0 10
1 4.7123889803846897 -5 1 0 
2 15 -15 0 -1 1 0 10
1 -1.5707963267948966 -5 1 0 
2 15 -15 0 -1 1 0 10
1 4.7123889803846897 -5 1 0 
2 105 -45 0 -1 1 0 10
1 -1.5707963267948966 -5 1 0 
2 105 -45 0 -1 1 0 10
1 4.7123889803846897 -5 1 0 
2 75 -45 0 -1 1 0 10
1 -1.5707963267948966 -5 1 0 
2 75 -45 0 -1 1 0 10
1 4.7123889803846897 -5 1 0 
2 45 -45 0 -1 1 0 10
1 -1.5707963267948966 -5 1 0 
2 45 -45 0 -1 1 0 10
1 4.7123889803846897 -5 1 0 
2 15 -45 0 -1 1 0 10
1 -1.5707963267948966 -5 1 0 
2 15 -45 0 -1 1 0 10
1 4.7123889803846897 -5 1 0 
1 120 0 0 -1 
1 0 0 1 0 
1 120 -60 -1 0 
1 0 -0 1 0 
1 0 -0 0 -1 
1 60 0 0 -1 
1 0 -15 1 0 
1 -120 60 1 0 
1 120 0 0 -1 
1 0 0 0 -1 
1 0 -5 1 0 
1 60 0 -1 0 
1 60 0 0 -1 
1 0 -0 0 -1 
1 0 -5 1 0 
1 120 0 -1 0 
1 0 -15 1 0 
1 0 60 0 -1 
1 60 0 0 -1 
1 0 0 0 -1 
1 0 0 0 -1 
1 6.2831853071795862 0 0 -1 
1 0 -15 1 0 
2 10 0 -1 0 0 1 10
1 0 0 0 -1 
1 6.2831853071795862 0 0 -1 
1 0 -15 1 0 
2 10 0 -1 0 0 1 10
1 0 0 0 -1 
1 6.2831853071795862 0 0 -1 
1 0 -15 1 0 
2 10 0 -1 0 0 1 10
1 0 0 0 -1 
1 6.2831853071795862 0 0 -1 
1 0 -15 1 0 
2 10 0 -1 0 0 1 10
1 0 0 0 -1 
1 6.2831853071795862 0 0 -1 
1 0 -15 1 0 
2 10 0 -1 0 0 1 10
1 0 0 0 -1 
1 6.2831853071795862 0 0 -1 
1 0 -15 1 0 
2 10 0 -1 0 0 1 10
1 0 0 0 -1 
1 6.2831853071795862 0 0 -1 
1 0 -15 1 0 
2 10 0 -1 0 0 1 10
1 0 0 0 -1 
1 6.2831853071795862 0 0 -1 
1 0 -15 1 0 
2 10 0 -1 0 0 1 10
1 0 0 0 -1 
1 120 0 0 -1 
1 0 -15 1 0 
1 -120 0 0 1 
1 0 0 -1 0 
1 0 -15 1 0 
1 -5 5 -1 0 
1 0 -15 1 0 
1 -115 5 0 1 
1 0 -15 1 0 
1 -115 55 1 0 
1 0 -15 1 0 
1 -5 55 0 -1 
1 0 -15 1 0 
1 0 0 0 -1 
1 50 0 0 -1 
1 0 0 1 0 
1 5 -55 1 0 
1 0 0 1 0 
1 5 -55 1 0 
1 110 0 0 -1 
1 0 0 0 -1 
1 0 0 1 0 
1 5 -55 1 0 
1 0 0 1 0 
1 5 -55 1 0 
1 0 0 1 0 
1 5 -55 1 0 
1 0 0 1 0 
1 115 -55 0 1 
1 0 0 1 0 
1 115 -55 0 1 
1 50 0 0 -1 
1 0 -0 0 -1 
1 0 0 1 0 
1 115 -55 0 1 
1 0 -0 1 0 
1 115 -5 -1 0 
1 0 -0 1 0 
1 115 -5 -1 0 
1 110 0 0 -1 
1 0 0 0 -1 
1 0 -0 1 0 
1 115 -5 -1 0 
1 0 -0 1 0 
1 115 -5 -1 0 
1 0 -0 1 0 
1 115 -5 -1 0 
1 0 0 1 0 
1 5 -5 0 -1 
1 0 0 1 0 
1 5 -5 0 -1 
1 0 0 1 0 
1 5 -5 0 -1 
2 15 -45 1 0 -0 1 10
2 15 -45 1 0 -0 1 10
2 45 -45 1 0 -0 1 10
2 45 -45 1 0 -0 1 10
2 15 -45 1 0 -0 1 10
2 15 -45 1 0 -0 1 10
2 15 -45 1 0 -0 1 10
2 15 -45 1 0 -0 1 10
2 30 -30 1 0 -0 1 11.213203435596
1 0 0 1 0 
2 75 -45 1 0 -0 1 10
2 75 -45 1 0 -0 1 10
2 45 -45 1 0 -0 1 10
2 45 -45 1 0 -0 1 10
2 45 -45 1 0 -0 1 10
2 45 -45 1 0 -0 1 10
2 60 -30 1 0 -0 1 11.213203435596
1 0 0 1 0 
2 105 -45 1 0 -0 1 10
2 105 -45 1 0 -0 1 10
2 105 -45 1 0 -0 1 10
2 105 -45 1 0 -0 1 10
2 75 -45 1 0 -0 1 10
2 75 -45 1 0 -0 1 10
2 75 -45 1 0 -0 1 10
2 75 -45 1 0 -0 1 10
2 90 -30 1 0 -0 1 11.213203435596
1 0 0 1 0 
2 105 -15 1 0 -0 1 10
2 105 -15 1 0 -0 1 10
2 105 -45 1 0 -0 1 10
2 105 -45 1 0 -0 1 10
2 90 -30 1 0 -0 1 11.213203435596
1 0 0 1 0 
2 90 -30 1 0 -0 1 11.213203435596
1 0 0 1 0 
2 105 -15 1 0 -0 1 10
2 105 -15 1 0 -0 1 10
2 105 -15 1 0 -0 1 10
2 105 -15 1 0 -0 1 10
2 90 -30 1 0 -0 1 11.213203435596
1 0 0 1 0 
2 75 -15 1 0 -0 1 10
2 75 -15 1 0 -0 1 10
2 75 -15 1 0 -0 1 10
2 75 -15 1 0 -0 1 10
2 75 -15 1 0 -0 1 10
2 75 -15 1 0 -0 1 10
2 60 -30 1 0 -0 1 11.213203435596
1 0 0 1 0 
2 45 -15 1 0 -0 1 10
2 45 -15 1 0 -0 1 10
2 45 -15 1 0 -0 1 10
2 45 -15 1 0 -0 1 10
2 15 -15 1 0 -0 1 10
2 15 -15 1 0 -0 1 10
2 45 -15 1 0 -0 1 10
2 45 -15 1 0 -0 1 10
2 30 -30 1 0 -0 1 11.213203435596
1 0 0 1 0 
2 15 -15 1 0 -0 1 10
2 15 -15 1 0 -0 1 10
2 15 -15 1 0 -0 1 10
2 15 -15 1 0 -0 1 10
2 30 -30 1 0 -0 1 11.213203435596
1 0 0 1 0 
2 15 -45 1 0 -0 1 10
2 15 -45 1 0 -0 1 10
2 15 -15 1 0 -0 1 10
2 15 -15 1 0 -0 1 10
2 45 -45 1 0 -0 1 10
2 45 -45 1 0 -0 1 10
1 0 0 1 0 
2 30 -30 1 0 -0 1 11.213203435596
1 0 0 1 0 
2 30 -30 1 0 -0 1 11.213203435596
1 0 0 0 -1 
1 6.2831853071795862 0 0 -1 
1 0 -15 1 0 
2 11.213203435596 0 -1 0 0 1 11.213203435596
2 75 -45 1 0 -0 1 10
2 75 -45 1 0 -0 1 10
1 0 0 1 0 
2 60 -30 1 0 -0 1 11.213203435596
1 0 0 1 0 
2 60 -30 1 0 -0 1 11.213203435596
1 0 0 1 0 
2 60 -30 1 0 -0 1 11.213203435596
1 0 0 0 -1 
1 6.2831853071795862 0 0 -1 
1 0 -15 1 0 
2 11.213203435596 0 -1 0 0 1 11.213203435596
1 0 0 1 0 
2 90 -30 1 0 -0 1 11.213203435596
1 0 0 0 -1 
1 6.2831853071795862 0 0 -1 
1 0 -15 1 0 
2 11.213203435596 0 -1 0 0 1 11.213203435596
2 75 -15 1 0 -0 1 10
2 75 -15 1 0 -0 1 10
2 45 -15 1 0 -0 1 10
2 45 -15 1 0 -0 1 10
2 11.213203435596 0 -1 0 0 1 10
1 0 -15 1 0 
2 11.213203435596 0 -1 0 0 1 10
1 0 -15 1 0 
2 11.213203435596 0 -1 0 0 1 10
1 0 -15 1 0 
1 0 0 1 0 
2 30 -30 1 0 -0 1 10
1 0 0 0 -1 
1 6.2831853071795862 0 0 -1 
1 0 0 1 0 
2 60 -30 1 0 -0 1 10
1 0 0 0 -1 
1 6.2831853071795862 0 0 -1 
1 0 0 1 0 
2 90 -30 1 0 -0 1 10
1 0 0 0 -1 
1 6.2831853071795862 0 0 -1 
Curves 136
1 0 30 0 0 0 1 
1 0 30 0 1 0 0 
1 0 30 0 1 0 0 
1 120 30 0 0 0 1 
1 0 -30 0 0 0 1 
1 0 -30 0 0 1 0 
1 0 -30 0 0 1 0 
2 105 15 0 0 0 1 0 -1 0 1 0 -0 10
2 105 15 0 0 0 1 0 -1 0 1 0 -0 10
2 75 15 0 0 0 1 0 -1 0 1 0 -0 10
2 75 15 0 0 0 1 0 -1 0 1 0 -0 10
2 45 15 0 0 0 1 0 -1 0 1 0 -0 10
2 45 15 0 0 0 1 0 -1 0 1 0 -0 10
2 15 15 0 0 0 1 0 -1 0 1 0 -0 10
2 15 15 0 0 0 1 0 -1 0 1 0 -0 10
2 105 -15 0 0 0 1 0 -1 0 1 0 -0 10
2 105 -15 0 0 0 1 0 -1 0 1 0 -0 10
2 75 -15 0 0 0 1 0 -1 0 1 0 -0 10
2 75 -15 0 0 0 1 0 -1 0 1 0 -0 10
2 45 -15 0 0 0 1 0 -1 0 1 0 -0 10
2 45 -15 0 0 0 1 0 -1 0 1 0 -0 10
2 15 -15 0 0 0 1 0 -1 0 1 0 -0 10
2 15 -15 0 0 0 1 0 -1 0 1 0 -0 10
1 120 30 0 0 -1 0 
1 120 -30 0 -1 0 0 
1 120 30 5 0 0 1 
1 120 30 0 -1 0 0 
1 0 30 5 0 0 1 
1 120 30 0 0 -1 0 
1 120 -30 0 0 0 1 
1 120 -30 0 -1 0 0 
1 0 30 0 0 -1 0 
1 0 -30 5 0 0 1 
1 25 -15 5 -0 -0 -1 
2 15 -15 0 0 0 1 1 0 -0 -0 1 0 10
1 25 -15 5 -0 -0 -1 
2 15 -15 0 0 0 1 1 0 -0 -0 1 0 10
1 25 -15 5 -0 -0 -1 
2 15 -15 0 0 0 1 1 0 -0 -0 1 0 10
1 25 -15 5 -0 -0 -1 
2 15 -15 0 0 0 1 1 0 -0 -0 1 0 10
1 25 -15 5 -0 -0 -1 
2 15 -15 0 0 0 1 1 0 -0 -0 1 0 10
1 25 -15 5 -0 -0 -1 
2 15 -15 0 0 0 1 1 0 -0 -0 1 0 10
1 25 -15 5 -0 -0 -1 
2 15 -15 0 0 0 1 1 0 -0 -0 1 0 10
1 25 -15 5 -0 -0 -1 
2 15 -15 0 0 0 1 1 0 -0 -0 1 0 10
1 120 -30 5 0 0 1 
1 120 -30 0 0 1 0 
1 0 -30 0 1 0 0 
1 5 -25 0 1 0 0 
1 115 -25 0 0 1 0 
1 115 25 0 -1 0 0 
1 5 25 0 0 -1 0 
1 5 -25 5 0 0 1 
1 5 -25 0 1 0 0 
1 5 -25 0 1 0 0 
1 115 -25 5 0 0 1 
1 5 -25 0 1 0 0 
1 5 -25 0 1 0 0 
1 5 -25 0 1 0 0 
1 115 -25 0 0 1 0 
1 115 -25 0 0 1 0 
1 115 25 5 0 0 1 
1 115 -25 0 0 1 0 
1 115 25 0 -1 0 0 
1 115 25 0 -1 0 0 
1 5 25 5 0 0 1 
1 115 25 0 -1 0 0 
1 115 25 0 -1 0 0 
1 115 25 0 -1 0 0 
1 5 25 0 0 -1 0 
1 5 25 0 0 -1 0 
1 5 25 0 0 -1 0 
2 15 -15 0 0 0 1 1 0 -0 -0 1 0 10
2 15 -15 0 0 0 1 1 0 -0 -0 1 0 10
2 15 -15 0 0 0 1 1 0 -0 -0 1 0 10
2 15 -15 0 0 0 1 1 0 -0 -0 1 0 10
2 30 0 0 0 0 1 1 0 -0 -0 1 0 11.213203435596
2 15 -15 0 0 0 1 1 0 -0 -0 1 0 10
2 15 -15 0 0 0 1 1 0 -0 -0 1 0 10
2 15 -15 0 0 0 1 1 0 -0 -0 1 0 10
2 30 0 0 0 0 1 1 0 -0 -0 1 0 11.213203435596
2 15 -15 0 0 0 1 1 0 -0 -0 1 0 10
2 15 -15 0 0 0 1 1 0 -0 -0 1 0 10
2 15 -15 0 0 0 1 1 0 -0 -0 1 0 10
2 15 -15 0 0 0 1 1 0 -0 -0 1 0 10
2 30 0 0 0 0 1 1 0 -0 -0 1 0 11.213203435596
2 15 -15 0 0 0 1 1 0 -0 -0 1 0 10
2 15 -15 0 0 0 1 1 0 -0 -0 1 0 10
2 30 0 0 0 0 1 1 0 -0 -0 1 0 11.213203435596
2 30 0 0 0 0 1 1 0 -0 -0 1 0 11.213203435596
2 15 -15 0 0 0 1 1 0 -0 -0 1 0 10
2 15 -15 0 0 0 1 1 0 -0 -0 1 0 10
2 30 0 0 0 0 1 1 0 -0 -0 1 0 11.213203435596
2 15 -15 0 0 0 1 1 0 -0 -0 1 0 10
2 15 -15 0 0 0 1 1 0 -0 -0 1 0 10
2 15 -15 0 0 0 1 1 0 -0 -0 1 0 10
2 30 0 0 0 0 1 1 0 -0 -0 1 0 11.213203435596
2 15 -15 0 0 0 1 1 0 -0 -0 1 0 10
2 15 -15 0 0 0 1 1 0 -0 -0 1 0 10
2 15 -15 0 0 0 1 1 0 -0 -0 1 0 10
2 15 -15 0 0 0 1 1 0 -0 -0 1 0 10
2 30 0 0 0 0 1 1 0 -0 -0 1 0 11.213203435596
2 15 -15 0 0 0 1 1 0 -0 -0 1 0 10
2 15 -15 0 0 0 1 1 0 -0 -0 1 0 10
2 30 0 0 0 0 1 1 0 -0 -0 1 0 11.213203435596
2 15 -15 0 0 0 1 1 0 -0 -0 1 0 10
2 15 -15 0 0 0 1 1 0 -0 -0 1 0 10
2 15 -15 0 0 0 1 1 0 -0 -0 1 0 10
2 30 0 0 0 0 1 1 0 -0 -0 1 0 11.213203435596
2 30 0 0 0 0 1 1 0 -0 -0 1 0 11.213203435596
1 41.213203435596 0 5 0 0 1 
2 30 0 0 0 0 1 1 0 -0 -0 1 0 11.213203435596
2 15 -15 0 0 0 1 1 0 -0 -0 1 0 10
2 30 0 0 0 0 1 1 0 -0 -0 1 0 11.213203435596
2 30 0 0 0 0 1 1 0 -0 -0 1 0 11.213203435596
2 30 0 0 0 0 1 1 0 -0 -0 1 0 11.213203435596
1 41.213203435596 0 5 0 0 1 
2 30 0 0 0 0 1 1 0 -0 -0 1 0 11.213203435596
2 30 0 0 0 0 1 1 0 -0 -0 1 0 11.213203435596
1 41.213203435596 0 5 0 0 1 
2 30 0 0 0 0 1 1 0 -0 -0 1 0 11.213203435596
2 15 -15 0 0 0 1 1 0 -0 -0 1 0 10
2 15 -15 0 0 0 1 1 0 -0 -0 1 0 10
2 30 0 0 0 0 1 1 0 -0 -0 1 0 10
2 30 0 0 0 0 1 1 0 -0 -0 1 0 10
2 30 0 0 0 0 1 1 0 -0 -0 1 0 10
2 30 0 0 0 0 1 1 0 -0 -0 1 0 10
1 40 0 5 0 0 1 
2 30 0 0 0 0 1 1 0 -0 -0 1 0 10
1 40 0 5 0 0 1 
2 30 0 0 0 0 1 1 0 -0 -0 1 0 10
1 40 0 5 0 0 1 
Polygon3D 0
PolygonOnTriangulations 0
Surfaces 64
1 0 30 0 0 1 0 1 0 0 0 0 -1 
1 0 -30 0 -1 0 0 0 1 0 0 0 -1 
1 0 30 0 -0 0 1 1 0 0 0 1 -0 
1 120 30 5 0 -1 0 -1 0 0 -0 -0 -1 
1 120 30 0 1 0 -0 0 -1 0 0 -0 -1 
1 120 -30 0 0 -1 0 -1 0 0 -0 -0 -1 
1 0 30 5 1 0 -0 0 -1 0 0 -0 -1 
2 15 -15 5 0 0 1 1 0 -0 -0 1 0 10
2 15 -15 5 0 0 1 1 0 -0 -0 1 0 10
2 15 -15 5 0 0 1 1 0 -0 -0 1 0 10
2 15 -15 5 0 0 1 1 0 -0 -0 1 0 10
2 15 -15 5 0 0 1 1 0 -0 -0 1 0 10
2 15 -15 5 0 0 1 1 0 -0 -0 1 0 10
2 15 -15 5 0 0 1 1 0 -0 -0 1 0 10
2 15 -15 5 0 0 1 1 0 -0 -0 1 0 10
1 120 -30 5 -1 0 0 0 1 0 0 0 -1 
1 0 -30 5 0 0 -1 -1 0 -0 0 1 0 
1 0 -30 5 0 1 0 1 0 0 0 0 -1 
1 25 -15 5 -0 0 -1 -1 0 0 0 1 0 
1 25 -15 5 -0 0 -1 -1 0 0 0 1 0 
1 25 -15 5 -0 0 -1 -1 0 0 0 1 0 
1 25 -15 5 -0 0 -1 -1 0 0 0 1 0 
1 25 -15 5 -0 0 -1 -1 0 0 0 1 0 
1 25 -15 5 -0 0 -1 -1 0 0 0 1 0 
1 25 -15 5 -0 0 -1 -1 0 0 0 1 0 
1 25 -15 5 -0 0 -1 -1 0 0 0 1 0 
1 5 -25 5 0 1 0 1 0 0 0 0 -1 
1 115 -25 5 -1 0 0 0 1 0 0 0 -1 
1 115 25 5 0 -1 0 -1 0 0 -0 -0 -1 
1 5 25 5 1 0 -0 0 -1 0 0 -0 -1 
1 0 30 0 -0 0 1 1 0 0 0 1 -0 
1 0 30 0 -0 0 1 1 0 0 0 1 -0 
1 0 30 0 -0 0 1 1 0 0 0 1 -0 
1 0 30 0 -0 0 1 1 0 0 0 1 -0 
1 0 30 0 -0 0 1 1 0 0 0 1 -0 
1 0 30 0 -0 0 1 1 0 0 0 1 -0 
1 0 30 0 -0 0 1 1 0 0 0 1 -0 
1 0 30 0 -0 0 1 1 0 0 0 1 -0 
1 0 30 0 -0 0 1 1 0 0 0 1 -0 
1 0 30 0 -0 0 1 1 0 0 0 1 -0 
1 0 30 0 -0 0 1 1 0 0 0 1 -0 
1 0 30 0 -0 0 1 1 0 0 0 1 -0 
1 0 30 0 -0 0 1 1 0 0 0 1 -0 
1 0 30 0 -0 0 1 1 0 0 0 1 -0 
2 30 0 5 -0 -0 -1 1 0 0 -0 1 -0 11.213203435596
1 0 30 0 -0 0 1 1 0 0 0 1 -0 
2 30 0 5 -0 -0 -1 1 0 0 -0 1 -0 11.213203435596
1 0 30 0 -0 0 1 1 0 0 0 1 -0 
2 30 0 5 -0 -0 -1 1 0 0 -0 1 -0 11.213203435596
1 0 30 0 -0 0 1 1 0 0 0 1 -0 
1 0 30 0 -0 0 1 1 0 0 0 1 -0 
1 0 30 0 -0 0 1 1 0 0 0 1 -0 
1 0 30 0 -0 0 1 1 0 0 0 1 -0 
1 0 30 0 -0 0 1 1 0 0 0 1 -0 
1 41.213203435596 0 5 -0 0 -1 -1 0 0 0 1 0 
1 0 30 0 -0 0 1 1 0 0 0 1 -0 
1 41.213203435596 0 5 -0 0 -1 -1 0 0 0 1 0 
1 41.213203435596 0 5 -0 0 -1 -1 0 0 0 1 0 
2 30 0 5 -0 -0 -1 1 0 0 -0 1 -0 10
2 30 0 5 -0 -0 -1 1 0 0 -0 1 -0 10
2 30 0 5 -0 -0 -1 1 0 0 -0 1 -0 10
1 0 30 0 -0 0 1 1 0 0 0 1 -0 
1 0 30 0 -0 0 1 1 0 0 0 1 -0 
1 0 30 0 -0 0 1 1 0 0 0 1 -0 
Triangulations 0

TShapes 364
Ve
1e-07
0 30 0
0 0

0101101
*
Ve
1e-07
0 30 5
0 0

0101101
*
Ed
 1e-07 1 1 0
1  1 0 0 5
2  1 1 0 0 5
2  2 2 0 0 5
0

0101000
+364 12 -363 12 *
Ve
1e-07
120 30 0
0 0

0101101
*
Ed
 1e-07 1 1 0
1  2 0 0 120
2  3 1 16 0 120
2  4 3 17 0 120
0

0101000
+364 18 -361 18 *
Ve
1e-07
120 30 5
0 0

0101101
*
Ed
 1e-07 1 1 0
1  3 0 0 120
2  5 1 21 0 120
2  6 4 22 0 120
0

0101000
+363 23 -359 23 *
Ed
 1e-07 1 1 0
1  4 0 0 5
2  7 1 0 0 5
2  8 5 0 0 5
0

0101000
+361 12 -359 12 *
Wi

0101000
+362 11 -360 15 +358 20 -357 11 *
Fa
0  1e-07 1 11

0101000
+356 0 *
Ve
1e-07
0 -30 0
0 0

0101101
*
Ve
1e-07
0 -30 5
0 0

0101101
*
Ed
 1e-07 1 1 0
1  5 0 0 5
2  9 2 0 0 5
2  10 6 0 0 5
0

0101000
+354 12 -353 12 *
Ed
 1e-07 1 1 0
1  6 0 0 60
2  11 2 16 0 60
2  12 3 17 0 60
0

0101000
+354 18 -364 18 *
Ed
 1e-07 1 1 0
1  7 0 0 60
2  13 2 21 0 60
2  14 7 22 0 60
0

0101000
+353 23 -363 23 *
Wi

0101000
+352 11 -351 15 +350 20 -362 11 *
Fa
0  1e-07 2 11

0101000
+349 0 *
Ve
2.00001e-07
115 15 0
0 0

0101101
*
Ve
1e-07
105 5 0
0 0

0101101
*
Ed
 1e-07 1 1 0
1  8 0 1.5707963267949 6.28318530717959
2  15 3 25 1.5707963267949 6.28318530717959
2  16 8 26 1.5707963267949 6.28318530717959
0

0101000
+347 27 -346 27 *
Ed
 1e-07 1 1 0
1  9 0 0 1.5707963267949
2  17 3 25 0 1.5707963267949
2  18 8 26 0 1.5707963267949
0

0101000
+346 27 -347 27 *
Wi

0101000
-345 0 -344 0 *
Ve
2.00001e-07
85 15 0
0 0

0101101
*
Ve
1e-07
75 5 0
0 0

0101101
*
Ed
 1e-07 1 1 0
1  10 0 1.5707963267949 6.28318530717959
2  19 3 25 1.5707963267949 6.28318530717959
2  20 9 28 1.5707963267949 6.28318530717959
0

0101000
+342 27 -341 27 *
Ed
 1e-07 1 1 0
1  11 0 0 1.5707963267949
2  21 3 25 0 1.5707963267949
2  22 9 28 0 1.5707963267949
0

0101000
+341 27 -342 27 *
Wi

0101000
-340 0 -339 0 *
Ve
2.00001e-07
55 15 0
0 0

0101101
*
Ve
1e-07
45 5 0
0 0

0101101
*
Ed
 1e-07 1 1 0
1  12 0 1.5707963267949 6.28318530717959
2  23 3 25 1.5707963267949 6.28318530717959
2  24 10 29 1.5707963267949 6.28318530717959
0

0101000
+337 27 -336 27 *
Ed
 1e-07 1 1 0
1  13 0 0 1.5707963267949
2  25 3 25 0 1.5707963267949
2  26 10 29 0 1.5707963267949
0

0101000
+336 27 -337 27 *
Wi

0101000
-335 0 -334 0 *
Ve
2.00001e-07
25 15 0
0 0

0101101
*
Ve
1e-07
15 5 0
0 0

0101101
*
Ed
 1e-07 1 1 0
1  14 0 1.5707963267949 6.28318530717959
2  27 3 25 1.5707963267949 6.28318530717959
2  28 11 30 1.5707963267949 6.28318530717959
0

0101000
+332 27 -331 27 *
Ed
 1e-07 1 1 0
1  15 0 0 1.5707963267949
2  29 3 25 0 1.5707963267949
2  30 11 30 0 1.5707963267949
0

0101000
+331 27 -332 27 *
Wi

0101000
-330 0 -329 0 *
Ve
2.00001e-07
115 -15 0
0 0

0101101
*
Ve
1e-07
105 -25 0
0 0

0101101
*
Ed
 1e-07 1 1 0
1  16 0 1.5707963267949 6.28318530717959
2  31 3 25 1.5707963267949 6.28318530717959
2  32 12 31 1.5707963267949 6.28318530717959
0

0101000
+327 27 -326 27 *
Ed
 1e-07 1 1 0
1  17 0 0 1.5707963267949
2  33 3 25 0 1.5707963267949
2  34 12 31 0 1.5707963267949
0

0101000
+326 27 -327 27 *
Wi

0101000
-325 0 -324 0 *
Ve
2.00001e-07
85 -15 0
0 0

0101101
*
Ve
1e-07
75 -25 0
0 0

0101101
*
Ed
 1e-07 1 1 0
1  18 0 1.5707963267949 6.28318530717959
2  35 3 25 1.5707963267949 6.28318530717959
2  36 13 32 1.5707963267949 6.28318530717959
0

0101000
+322 27 -321 27 *
Ed
 1e-07 1 1 0
1  19 0 0 1.5707963267949
2  37 3 25 0 1.5707963267949
2  38 13 32 0 1.5707963267949
0

0101000
+321 27 -322 27 *
Wi

0101000
-320 0 -319 0 *
Ve
2.00001e-07
55 -15 0
0 0

0101101
*
Ve
1e-07
45 -25 0
0 0

0101101
*
Ed
 1e-07 1 1 0
1  20 0 1.5707963267949 6.28318530717959
2  39 3 25 1.5707963267949 6.28318530717959
2  40 14 33 1.5707963267949 6.28318530717959
0

0101000
+317 27 -316 27 *
Ed
 1e-07 1 1 0
1  21 0 0 1.5707963267949
2  41 3 25 0 1.5707963267949
2  42 14 33 0 1.5707963267949
0

0101000
+316 27 -317 27 *
Wi

0101000
-315 0 -314 0 *
Ve
2.00001e-07
25 -15 0
0 0

0101101
*
Ve
1e-07
15 -25 0
0 0

0101101
*
Ed
 1e-07 1 1 0
1  22 0 1.5707963267949 6.28318530717959
2  43 3 34 1.5707963267949 6.28318530717959
2  44 15 0 1.5707963267949 6.28318530717959
0

0101000
+312 35 -311 35 *
Ed
 1e-07 1 1 0
1  23 0 0 1.5707963267949
2  45 3 34 0 1.5707963267949
2  46 15 0 0 1.5707963267949
0

0101000
+311 35 -312 35 *
Wi

0101000
-310 4 -309 4 *
Ve
1e-07
120 -30 0
0 0

0101101
*
Ed
 1e-07 1 1 0
1  24 0 0 60
2  47 3 17 0 60
2  48 5 16 0 60
0

0101000
+361 18 -307 18 *
Ed
 1e-07 1 1 0
1  25 0 0 120
2  49 3 17 0 120
2  50 6 16 0 120
0

0101000
+307 18 -354 18 *
Wi

0101000
-360 36 -351 36 -306 36 -305 36 *
Fa
0  1e-07 3 25

0101000
+343 0 +338 0 +333 0 +328 0 +323 0 +318 0 +313 0 +308 0 +304 0 *
Ve
1e-07
120 30 20
0 0

0101101
*
Ed
 1e-07 1 1 0
1  26 0 0 15
2  51 4 0 0 15
2  52 16 0 0 15
0

0101000
+359 37 -302 37 *
Ve
1e-07
0 30 20
0 0

0101101
*
Ed
 1e-07 1 1 0
1  27 0 0 120
2  53 4 41 0 120
2  54 17 42 0 120
0

0101000
+302 43 -300 43 *
Ed
 1e-07 1 1 0
1  28 0 0 15
2  55 4 0 0 15
2  56 7 0 0 15
0

0101000
+363 37 -300 37 *
Wi

0101000
+301 0 +358 20 +299 40 -298 0 *
Fa
0  1e-07 4 0

0101000
+297 0 *
Ve
1e-07
120 -30 5
0 0

0101101
*
Ed
 1e-07 1 1 0
1  29 0 0 60
2  57 5 21 0 60
2  58 16 22 0 60
0

0101000
+359 23 -295 23 *
Ed
 1e-07 1 1 0
1  30 0 0 5
2  59 5 0 0 5
2  60 6 0 0 5
0

0101000
+307 12 -295 12 *
Wi

0101000
+357 11 -306 15 +294 20 -293 11 *
Fa
0  1e-07 5 11

0101000
+292 0 *
Ed
 1e-07 1 1 0
1  31 0 0 120
2  61 6 21 0 120
2  62 18 22 0 120
0

0101000
+295 23 -353 23 *
Wi

0101000
+293 11 -305 15 +290 20 -352 11 *
Fa
0  1e-07 6 11

0101000
+289 0 *
Ve
1e-07
0 -30 20
0 0

0101101
*
Ed
 1e-07 1 1 0
1  32 0 0 60
2  63 7 41 0 60
2  64 17 42 0 60
0

0101000
+300 43 -287 43 *
Ed
 1e-07 1 1 0
1  33 0 0 15
2  65 7 0 0 15
2  66 18 0 0 15
0

0101000
+353 37 -287 37 *
Wi

0101000
+298 0 +350 20 +286 40 -285 0 *
Fa
0  1e-07 7 0

0101000
+284 0 *
Ve
1e-07
115 15 -10
0 0

0101101
*
Ed
 1e-07 1 1 0
1  34 0 5 15
3  67 68CN 8 0 5 15
0

0101000
+347 44 -282 44 *
Ed
 1e-07 1 1 0
1  35 0 0 6.28318530717959
2  69 8 48 0 6.28318530717959
2  70 19 49 0 6.28318530717959
0

0101100
+282 50 -282 50 *
Wi

0101000
-281 26 +280 47 +281 26 -345 0 -344 0 *
Fa
0  1e-07 8 26

0101000
+279 0 *
Ve
1e-07
85 15 -10
0 0

0101101
*
Ed
 1e-07 1 1 0
1  36 0 5 15
3  71 72CN 9 0 5 15
0

0101000
+342 51 -277 51 *
Ed
 1e-07 1 1 0
1  37 0 0 6.28318530717959
2  73 9 48 0 6.28318530717959
2  74 20 49 0 6.28318530717959
0

0101100
+277 53 -277 53 *
Wi

0101000
-276 28 +275 52 +276 28 -340 0 -339 0 *
Fa
0  1e-07 9 28

0101000
+274 0 *
Ve
1e-07
55 15 -10
0 0

0101101
*
Ed
 1e-07 1 1 0
1  38 0 5 15
3  75 76CN 10 0 5 15
0

0101000
+337 54 -272 54 *
Ed
 1e-07 1 1 0
1  39 0 0 6.28318530717959
2  77 10 48 0 6.28318530717959
2  78 21 49 0 6.28318530717959
0

0101100
+272 56 -272 56 *
Wi

0101000
-271 29 +270 55 +271 29 -335 0 -334 0 *
Fa
0  1e-07 10 29

0101000
+269 0 *
Ve
1e-07
25 15 -10
0 0

0101101
*
Ed
 1e-07 1 1 0
1  40 0 5 15
3  79 80CN 11 0 5 15
0

0101000
+332 57 -267 57 *
Ed
 1e-07 1 1 0
1  41 0 0 6.28318530717959
2  81 11 48 0 6.28318530717959
2  82 22 49 0 6.28318530717959
0

0101100
+267 59 -267 59 *
Wi

0101000
-266 30 +265 58 +266 30 -330 0 -329 0 *
Fa
0  1e-07 11 30

0101000
+264 0 *
Ve
1e-07
115 -15 -10
0 0

0101101
*
Ed
 1e-07 1 1 0
1  42 0 5 15
3  83 84CN 12 0 5 15
0

0101000
+327 60 -262 60 *
Ed
 1e-07 1 1 0
1  43 0 0 6.28318530717959
2  85 12 48 0 6.28318530717959
2  86 23 49 0 6.28318530717959
0

0101100
+262 62 -262 62 *
Wi

0101000
-261 31 +260 61 +261 31 -325 0 -324 0 *
Fa
0  1e-07 12 31

0101000
+259 0 *
Ve
1e-07
85 -15 -10
0 0

0101101
*
Ed
 1e-07 1 1 0
1  44 0 5 15
3  87 88CN 13 0 5 15
0

0101000
+322 63 -257 63 *
Ed
 1e-07 1 1 0
1  45 0 0 6.28318530717959
2  89 13 48 0 6.28318530717959
2  90 24 49 0 6.28318530717959
0

0101100
+257 65 -257 65 *
Wi

0101000
-256 32 +255 64 +256 32 -320 0 -319 0 *
Fa
0  1e-07 13 32

0101000
+254 0 *
Ve
1e-07
55 -15 -10
0 0

0101101
*
Ed
 1e-07 1 1 0
1  46 0 5 15
3  91 92CN 14 0 5 15
0

0101000
+317 66 -252 66 *
Ed
 1e-07 1 1 0
1  47 0 0 6.28318530717959
2  93 14 48 0 6.28318530717959
2  94 25 49 0 6.28318530717959
0

0101100
+252 68 -252 68 *
Wi

0101000
-251 33 +250 67 +251 33 -315 0 -314 0 *
Fa
0  1e-07 14 33

0101000
+249 0 *
Ve
1e-07
25 -15 -10
0 0

0101101
*
Ed
 1e-07 1 1 0
1  48 0 5 15
3  95 96CN 15 0 5 15
0

0101000
+312 35 -247 35 *
Ed
 1e-07 1 1 0
1  49 0 0 6.28318530717959
2  97 15 48 0 6.28318530717959
2  98 26 49 0 6.28318530717959
0

0101100
+247 71 -247 71 *
Wi

0101000
-246 0 +245 70 +246 0 -310 0 -309 0 *
Fa
0  1e-07 15 0

0101000
+244 0 *
Ve
1e-07
120 -30 20
0 0

0101101
*
Ed
 1e-07 1 1 0
1  50 0 0 15
2  99 16 0 0 15
2  100 18 0 0 15
0

0101000
+295 37 -242 37 *
Ed
 1e-07 1 1 0
1  51 0 0 60
2  101 16 41 0 60
2  102 17 42 0 60
0

0101000
+242 43 -302 43 *
Wi

0101000
+241 0 +294 20 +240 40 -301 0 *
Fa
0  1e-07 16 0

0101000
+239 0 *
Ed
 1e-07 1 1 0
1  52 0 0 120
2  103 17 42 0 120
2  104 18 41 0 120
0

0101000
+287 43 -242 43 *
Wi

0101100
+237 0 +240 0 +299 0 +286 0 *
Ve
1e-07
5 -25 20
0 0

0101101
*
Ve
5.09001269276204e-05
115 -25 20
0 0

0101101
*
Ed
 1e-07 1 1 0
1  53 0 0 110
2  105 17 42 0 110
2  106 27 41 0 110
0

0101000
+235 43 -234 43 *
Ve
1e-07
115 25 20
0 0

0101101
*
Ed
 1e-07 1 1 0
1  54 0 0 50
2  107 17 42 0 50
2  108 28 41 0 50
0

0101000
+234 43 -232 43 *
Ve
1e-07
5 25 20
0 0

0101101
*
Ed
 1e-07 1 1 0
1  55 0 0 110
2  109 17 42 0 110
2  110 29 41 0 110
0

0101000
+232 43 -230 43 *
Ed
 1e-07 1 1 0
1  56 0 0 50
2  111 17 42 0 50
2  112 30 41 0 50
0

0101000
+230 43 -235 43 *
Wi

0101100
+233 0 +231 0 +229 0 +228 0 *
Fa
0  1e-07 17 0

0101000
-236 38 +227 38 *
Wi

0101000
+285 0 +290 20 +237 40 -241 0 *
Fa
0  1e-07 18 0

0101000
+225 0 *
Wi

0101100
+280 0 *
Fa
0  1e-07 19 0

0101000
-223 45 *
Wi

0101100
+275 0 *
Fa
0  1e-07 20 0

0101000
-221 45 *
Wi

0101100
+270 0 *
Fa
0  1e-07 21 0

0101000
-219 45 *
Wi

0101100
+265 0 *
Fa
0  1e-07 22 0

0101000
-217 45 *
Wi

0101100
+260 0 *
Fa
0  1e-07 23 0

0101000
-215 45 *
Wi

0101100
+255 0 *
Fa
0  1e-07 24 0

0101000
-213 45 *
Wi

0101100
+250 0 *
Fa
0  1e-07 25 0

0101000
-211 45 *
Wi

0101100
+245 0 *
Fa
0  1e-07 26 0

0101000
-209 45 *
Ve
1e-07
5 -25 5
0 0

0101101
*
Ed
 1e-07 1 1 0
1  57 0 0 15
2  113 27 0 0 15
2  114 30 0 0 15
0

0101000
+207 37 -235 37 *
Ve
5.00000998737622e-07
15 -25 5
0 0

0101101
*
Ed
 1e-07 1 1 0
1  58 0 0 10
2  115 27 83 0 10
2  116 31 84 0 10
0

0101000
+207 85 -205 85 *
Ve
5.00000998737622e-07
45 -25 5
0 0

0101101
*
Ed
 1e-07 1 1 0
1  59 0 10 40
2  117 27 83 10 40
2  118 32 84 10 40
0

0101000
+205 85 -203 85 *
Ve
5.09001269276204e-05
115 -25 5
0 0

0101101
*
Ed
 1e-07 1 1 0
1  60 0 0 15
2  119 27 0 0 15
2  120 28 0 0 15
0

0101000
+201 37 -234 37 *
Ve
5.00000998737622e-07
75 -25 5
0 0

0101101
*
Ed
 1e-07 1 1 0
1  61 0 40 70
2  121 27 83 40 70
2  122 33 84 40 70
0

0101000
+203 85 -199 85 *
Ve
5.00000998737622e-07
105 -25 5
0 0

0101101
*
Ed
 1e-07 1 1 0
1  62 0 100 110
2  123 27 83 100 110
2  124 34 84 100 110
0

0101000
+197 85 -201 85 *
Ed
 1e-07 1 1 0
1  63 0 70 100
2  125 27 83 70 100
2  126 35 84 70 100
0

0101000
+199 85 -197 85 *
Wi

0101000
+206 81 -204 82 +233 86 -202 82 -200 81 -198 82 -196 82 -195 82 *
Fa
0  1e-07 27 81

0101000
+194 0 *
Ve
1.30000300115888e-06
115 -15 5
0 0

0101101
*
Ed
 1e-07 1 1 0
1  64 0 0 10
2  127 28 83 0 10
2  128 34 84 0 10
0

0101000
+201 85 -192 85 *
Ve
2.90000700244869e-06
115 15 5
0 0

0101101
*
Ed
 1e-07 1 1 0
1  65 0 10 40
2  129 28 83 10 40
2  130 36 84 10 40
0

0101000
+192 85 -190 85 *
Ve
1e-07
115 25 5
0 0

0101101
*
Ed
 1e-07 1 1 0
1  66 0 0 15
2  131 28 0 0 15
2  132 29 0 0 15
0

0101000
+188 37 -232 37 *
Ed
 1e-07 1 1 0
1  67 0 40 50
2  133 28 83 40 50
2  134 37 84 40 50
0

0101000
+190 85 -188 85 *
Wi

0101000
+200 81 -191 82 +231 86 -189 82 -187 81 -186 82 *
Fa
0  1e-07 28 81

0101000
+185 0 *
Ve
5.00000998737622e-07
105 25 5
0 0

0101101
*
Ed
 1e-07 1 1 0
1  68 0 0 10
2  135 29 83 0 10
2  136 37 84 0 10
0

0101000
+188 85 -183 85 *
Ve
5.00000998737622e-07
75 25 5
0 0

0101101
*
Ed
 1e-07 1 1 0
1  69 0 10 40
2  137 29 83 10 40
2  138 38 84 10 40
0

0101000
+183 85 -181 85 *
Ve
1e-07
5 25 5
0 0

0101101
*
Ed
 1e-07 1 1 0
1  70 0 0 15
2  139 29 0 0 15
2  140 30 0 0 15
0

0101000
+179 37 -230 37 *
Ve
5.00000998737622e-07
45 25 5
0 0

0101101
*
Ed
 1e-07 1 1 0
1  71 0 40 70
2  141 29 83 40 70
2  142 39 84 40 70
0

0101000
+181 85 -177 85 *
Ve
5.00001000513978e-07
15 25 5
0 0

0101101
*
Ed
 1e-07 1 1 0
1  72 0 100 110
2  143 29 83 100 110
2  144 40 84 100 110
0

0101000
+175 85 -179 85 *
Ed
 1e-07 1 1 0
1  73 0 70 100
2  145 29 83 70 100
2  146 41 84 70 100
0

0101000
+177 85 -175 85 *
Wi

0101000
+187 81 -182 82 +229 86 -180 82 -178 81 -176 82 -174 82 -173 82 *
Fa
0  1e-07 29 81

0101000
+172 0 *
Ve
5.00001002290335e-07
5 15 5
0 0

0101101
*
Ed
 1e-07 1 1 0
1  74 0 0 10
2  147 30 83 0 10
2  148 40 84 0 10
0

0101000
+179 85 -170 85 *
Ve
5.00001002290335e-07
5 -15 5
0 0

0101101
*
Ed
 1e-07 1 1 0
1  75 0 10 40
2  149 30 83 10 40
2  150 42 84 10 40
0

0101000
+170 85 -168 85 *
Ed
 1e-07 1 1 0
1  76 0 40 50
2  151 30 83 40 50
2  152 31 84 40 50
0

0101000
+168 85 -207 85 *
Wi

0101000
+178 81 -169 82 +228 86 -167 82 -206 81 -166 82 *
Fa
0  1e-07 30 81

0101000
+165 0 *
Ed
 1e-07 1 1 0
1  77 0 3.14159265358979 4.71238898038469
2  153 31 89 3.14159265358979 4.71238898038469
2  154 43 89 3.14159265358979 4.71238898038469
0

0101000
+168 90 -205 90 *
Wi

0101000
-163 88 +204 91 +166 91 *
Fa
0  1e-07 31 87

0101000
+162 0 *
Ve
1.00000213547351e-07
37.9289321881344 -7.92893218813438 5
0 0

0101101
*
Ed
 1e-07 1 1 0
1  78 0 2.35619449019235 4.71238898038469
2  155 32 94 2.35619449019235 4.71238898038469
2  156 44 94 2.35619449019235 4.71238898038469
0

0101000
+160 95 -203 95 *
Ve
1e-07
25 -15 5
0 0

0101101
*
Ed
 1e-07 1 1 0
1  79 0 4.71238898038469 6.28318530717959
2  157 32 89 4.71238898038469 6.28318530717959
2  158 43 89 4.71238898038469 6.28318530717959
0

0101000
+205 90 -158 90 *
Ve
1.00000212280217e-07
22.0710678118656 -7.92893218813437 5
0 0

0101101
*
Ed
 1e-07 1 1 0
1  80 0 0 0.785398163397448
2  159 32 89 0 0.785398163397448
2  160 43 89 0 0.785398163397448
0

0101000
+158 90 -156 90 *
Ed
 1e-07 1 1 0
1  81 0 3.92699081698724 5.49778714378214
2  161 32 100 3.92699081698724 5.49778714378214
2  162 45 101 3.92699081698724 5.49778714378214
0

0101000
+156 102 -160 102 *
Wi

0101000
-159 93 +202 96 -157 97 -155 97 -154 99 *
Fa
0  1e-07 32 92

0101000
+153 0 *
Ve
1.00000211020426e-07
67.9289321881344 -7.92893218813438 5
0 0

0101101
*
Ed
 1e-07 1 1 0
1  82 0 2.35619449019234 4.71238898038469
2  163 33 105 2.35619449019234 4.71238898038469
2  164 46 105 2.35619449019234 4.71238898038469
0

0101000
+151 106 -199 106 *
Ve
1e-07
55 -15 5
0 0

0101101
*
Ed
 1e-07 1 1 0
1  83 0 4.71238898038469 6.28318530717959
2  165 33 94 4.71238898038469 6.28318530717959
2  166 44 94 4.71238898038469 6.28318530717959
0

0101000
+203 95 -149 95 *
Ve
1.00000212280217e-07
52.0710678118656 -7.92893218813437 5
0 0

0101101
*
Ed
 1e-07 1 1 0
1  84 0 0 0.785398163397448
2  167 33 94 0 0.785398163397448
2  168 44 94 0 0.785398163397448
0

0101000
+149 95 -147 95 *
Ed
 1e-07 1 1 0
1  85 0 3.92699081698724 5.49778714378214
2  169 33 111 3.92699081698724 5.49778714378214
2  170 47 101 3.92699081698724 5.49778714378214
0

0101000
+147 112 -151 112 *
Wi

0101000
-150 104 +198 107 -148 108 -146 108 -145 110 *
Fa
0  1e-07 33 103

0101000
+144 0 *
Ed
 1e-07 1 1 0
1  86 0 4.71238898038469 6.28318530717959
2  171 34 115 4.71238898038469 6.28318530717959
2  172 48 115 4.71238898038469 6.28318530717959
0

0101000
+197 116 -192 116 *
Wi

0101000
+191 82 +196 82 -142 114 *
Fa
0  1e-07 34 113

0101000
+141 0 *
Ve
1.00000211020426e-07
97.9289321881344 -7.92893218813438 5
0 0

0101101
*
Ed
 1e-07 1 1 0
1  87 0 2.35619449019234 4.71238898038469
2  173 35 115 2.35619449019234 4.71238898038469
2  174 48 115 2.35619449019234 4.71238898038469
0

0101000
+139 116 -197 116 *
Ve
1e-07
85 -15 5
0 0

0101101
*
Ed
 1e-07 1 1 0
1  88 0 4.71238898038469 6.28318530717959
2  175 35 105 4.71238898038469 6.28318530717959
2  176 46 105 4.71238898038469 6.28318530717959
0

0101000
+199 106 -137 106 *
Ve
1.00000212280217e-07
82.0710678118656 -7.92893218813437 5
0 0

0101101
*
Ed
 1e-07 1 1 0
1  89 0 0 0.785398163397449
2  177 35 105 0 0.785398163397449
2  178 46 105 0 0.785398163397449
0

0101000
+137 106 -135 106 *
Ed
 1e-07 1 1 0
1  90 0 3.92699081698724 5.49778714378214
2  179 35 120 3.92699081698724 5.49778714378214
2  180 49 101 3.92699081698724 5.49778714378214
0

0101000
+135 121 -139 121 *
Wi

0101000
-138 117 +195 107 -136 104 -134 104 -133 119 *
Fa
0  1e-07 35 103

0101000
+132 0 *
Ve
1.00000211964575e-07
97.9289321881344 7.92893218813438 5
0 0

0101101
*
Ed
 1e-07 1 1 0
1  91 0 3.92699081698724 6.28318530717959
2  181 36 123 3.92699081698724 6.28318530717959
2  182 50 123 3.92699081698724 6.28318530717959
0

0101000
+130 124 -190 124 *
Ed
 1e-07 1 1 0
1  92 0 0 2.35619449019234
2  183 36 115 0 2.35619449019234
2  184 48 115 0 2.35619449019234
0

0101000
+192 116 -139 116 *
Ve
1e-07
101.213203435596 0 5
0 0

0101101
*
Ed
 1e-07 1 1 0
1  93 0 5.49778714378214 6.28318530717959
2  185 36 120 5.49778714378214 6.28318530717959
2  186 49 101 5.49778714378214 6.28318530717959
0

0101000
+139 121 -127 121 *
Ed
 1e-07 1 1 0
1  94 0 0 0.785398163397448
2  187 36 120 0 0.785398163397448
2  188 49 101 0 0.785398163397448
0

0101000
+127 121 -130 121 *
Wi

0101000
-129 122 +189 107 -128 117 -126 119 -125 119 *
Fa
0  1e-07 36 103

0101000
+124 0 *
Ed
 1e-07 1 1 0
1  95 0 0 1.5707963267949
2  189 37 123 0 1.5707963267949
2  190 50 123 0 1.5707963267949
0

0101000
+190 124 -183 124 *
Wi

0101000
+186 82 -122 125 +182 82 *
Fa
0  1e-07 37 113

0101000
+121 0 *
Ed
 1e-07 1 1 0
1  96 0 1.5707963267949 3.92699081698724
2  191 38 123 1.5707963267949 3.92699081698724
2  192 50 123 1.5707963267949 3.92699081698724
0

0101000
+183 124 -130 124 *
Ve
1.00000211020426e-07
82.0710678118656 7.92893218813437 5
0 0

0101101
*
Ed
 1e-07 1 1 0
1  97 0 0.785398163397448 2.35619449019235
2  193 38 120 0.785398163397448 2.35619449019235
2  194 49 101 0.785398163397448 2.35619449019235
0

0101000
+130 121 -118 121 *
Ve
5.00001000513978e-07
85 15 5
0 0

0101101
*
Ed
 1e-07 1 1 0
1  98 0 5.49778714378214 6.28318530717959
2  195 38 127 5.49778714378214 6.28318530717959
2  196 51 127 5.49778714378214 6.28318530717959
0

0101000
+118 128 -116 128 *
Ed
 1e-07 1 1 0
1  99 0 0 1.5707963267949
2  197 38 127 0 1.5707963267949
2  198 51 127 0 1.5707963267949
0

0101000
+116 128 -181 128 *
Wi

0101000
-119 122 -117 119 -115 126 -114 126 +180 107 *
Fa
0  1e-07 38 103

0101000
+113 0 *
Ve
1.00000211964575e-07
67.9289321881344 7.92893218813438 5
0 0

0101101
*
Ed
 1e-07 1 1 0
1  100 0 1.5707963267949 3.92699081698724
2  199 39 127 1.5707963267949 3.92699081698724
2  200 51 127 1.5707963267949 3.92699081698724
0

0101000
+181 128 -111 128 *
Ve
1.00000211020426e-07
52.0710678118656 7.92893218813437 5
0 0

0101101
*
Ed
 1e-07 1 1 0
1  101 0 0.785398163397448 2.35619449019234
2  201 39 111 0.785398163397448 2.35619449019234
2  202 47 101 0.785398163397448 2.35619449019234
0

0101000
+111 112 -109 112 *
Ve
5.00001000513978e-07
55 15 5
0 0

0101101
*
Ed
 1e-07 1 1 0
1  102 0 5.49778714378214 6.28318530717959
2  203 39 130 5.49778714378214 6.28318530717959
2  204 52 130 5.49778714378214 6.28318530717959
0

0101000
+109 131 -107 131 *
Ed
 1e-07 1 1 0
1  103 0 0 1.5707963267949
2  205 39 130 0 1.5707963267949
2  206 52 130 0 1.5707963267949
0

0101000
+107 131 -177 131 *
Wi

0101000
-110 126 -108 110 -106 129 -105 129 +176 107 *
Fa
0  1e-07 39 103

0101000
+104 0 *
Ed
 1e-07 1 1 0
1  104 0 1.5707963267949 3.14159265358979
2  207 40 133 1.5707963267949 3.14159265358979
2  208 53 133 1.5707963267949 3.14159265358979
0

0101000
+175 134 -170 134 *
Wi

0101000
-102 132 +169 82 +174 82 *
Fa
0  1e-07 40 113

0101000
+101 0 *
Ve
1.00000211964575e-07
37.9289321881344 7.92893218813438 5
0 0

0101101
*
Ed
 1e-07 1 1 0
1  105 0 1.5707963267949 3.92699081698724
2  209 41 130 1.5707963267949 3.92699081698724
2  210 52 130 1.5707963267949 3.92699081698724
0

0101000
+177 131 -99 131 *
Ve
1.00000212280217e-07
22.0710678118656 7.92893218813437 5
0 0

0101101
*
Ed
 1e-07 1 1 0
1  106 0 0.785398163397448 2.35619449019234
2  211 41 100 0.785398163397448 2.35619449019234
2  212 45 101 0.785398163397448 2.35619449019234
0

0101000
+99 102 -97 102 *
Ve
5.00001000513978e-07
25 15 5
0 0

0101101
*
Ed
 1e-07 1 1 0
1  107 0 5.49778714378214 6.28318530717959
2  213 41 133 5.49778714378214 6.28318530717959
2  214 53 133 5.49778714378214 6.28318530717959
0

0101000
+97 134 -95 134 *
Ed
 1e-07 1 1 0
1  108 0 0 1.5707963267949
2  215 41 133 0 1.5707963267949
2  216 53 133 0 1.5707963267949
0

0101000
+95 134 -175 134 *
Wi

0101000
-98 135 -96 99 -94 136 -93 136 +173 96 *
Fa
0  1e-07 41 92

0101000
+92 0 *
Ed
 1e-07 1 1 0
1  109 0 2.35619449019234 3.92699081698724
2  217 42 100 2.35619449019234 3.92699081698724
2  218 45 101 2.35619449019234 3.92699081698724
0

0101000
+97 102 -156 102 *
Ed
 1e-07 1 1 0
1  110 0 0.785398163397448 3.14159265358979
2  219 42 89 0.785398163397448 3.14159265358979
2  220 43 89 0.785398163397448 3.14159265358979
0

0101000
+156 90 -168 90 *
Ed
 1e-07 1 1 0
1  111 0 3.14159265358979 5.49778714378214
2  221 42 133 3.14159265358979 5.49778714378214
2  222 53 133 3.14159265358979 5.49778714378214
0

0101000
+170 134 -97 134 *
Wi

0101000
-90 99 -89 97 +167 96 -88 136 *
Fa
0  1e-07 42 92

0101000
+87 0 *
Wi

0101000
+155 97 +157 97 +89 97 +163 97 *
Fa
0  1e-07 43 92

0101000
+85 0 *
Ed
 1e-07 1 1 0
1  112 0 0.785398163397448 2.35619449019235
2  223 44 94 0.785398163397448 2.35619449019235
2  224 54 94 0.785398163397448 2.35619449019235
0

0101000
+147 95 -160 95 *
Wi

0101000
+146 108 +148 108 +83 108 +159 108 *
Fa
0  1e-07 44 103

0101000
+82 0 *
Ve
1e-07
41.213203435596 0 5
0 0

0101101
*
Ed
 1e-07 1 1 0
1  113 0 0 0.785398163397448
2  225 45 101 0 0.785398163397448
2  226 54 100 0 0.785398163397448
0

0101000
+80 102 -99 102 *
Ed
 1e-07 1 1 0
1  114 0 5.49778714378214 6.28318530717959
2  227 45 101 5.49778714378214 6.28318530717959
2  228 54 100 5.49778714378214 6.28318530717959
0

0101000
+160 102 -80 102 *
Ve
1e-07
41.213203435596 0 20
0 0

0101101
*
Ed
 1e-07 1 1 0
1  115 0 0 15
3  229 230CN 45 0 0 15
0

0101000
+80 137 -77 137 *
Ed
 1e-07 1 1 0
1  116 0 0 6.28318530717959
2  231 45 140 0 6.28318530717959
2  232 55 141 0 6.28318530717959
0

0101100
+77 142 -77 142 *
Wi

0101000
-79 99 -96 99 -90 99 -154 99 -78 99 -76 0 +75 139 +76 0 *
Fa
0  1e-07 45 0

0101000
+74 0 *
Ed
 1e-07 1 1 0
1  117 0 0.785398163397449 2.35619449019234
2  233 46 105 0.785398163397449 2.35619449019234
2  234 56 105 0.785398163397449 2.35619449019234
0

0101000
+135 106 -151 106 *
Wi

0101000
+134 104 +136 104 +72 104 +150 104 *
Fa
0  1e-07 46 103

0101000
+71 0 *
Ve
1e-07
71.213203435596 0 5
0 0

0101101
*
Ed
 1e-07 1 1 0
1  118 0 0 0.785398163397448
2  235 47 101 0 0.785398163397448
2  236 56 111 0 0.785398163397448
0

0101000
+69 112 -111 112 *
Ed
 1e-07 1 1 0
1  119 0 2.35619449019234 3.92699081698724
2  237 47 101 2.35619449019234 3.92699081698724
2  238 54 111 2.35619449019234 3.92699081698724
0

0101000
+109 112 -147 112 *
Ed
 1e-07 1 1 0
1  120 0 5.49778714378214 6.28318530717959
2  239 47 101 5.49778714378214 6.28318530717959
2  240 56 111 5.49778714378214 6.28318530717959
0

0101000
+151 112 -69 112 *
Ve
1e-07
71.213203435596 0 20
0 0

0101101
*
Ed
 1e-07 1 1 0
1  121 0 0 15
3  241 242CN 47 0 0 15
0

0101000
+69 143 -65 143 *
Ed
 1e-07 1 1 0
1  122 0 0 6.28318530717959
2  243 47 140 0 6.28318530717959
2  244 57 141 0 6.28318530717959
0

0101100
+65 145 -65 145 *
Wi

0101000
-68 110 -108 110 -67 110 -145 110 -66 110 -64 109 +63 144 +64 109 *
Fa
0  1e-07 47 109

0101000
+62 0 *
Wi

0101000
+142 117 +138 117 +128 117 *
Fa
0  1e-07 48 103

0101000
+60 0 *
Ed
 1e-07 1 1 0
1  123 0 2.35619449019235 3.92699081698724
2  245 49 101 2.35619449019235 3.92699081698724
2  246 56 120 2.35619449019235 3.92699081698724
0

0101000
+118 121 -135 121 *
Ve
1e-07
101.213203435596 0 20
0 0

0101101
*
Ed
 1e-07 1 1 0
1  124 0 0 15
3  247 248CN 49 0 0 15
0

0101000
+127 146 -57 146 *
Ed
 1e-07 1 1 0
1  125 0 0 6.28318530717959
2  249 49 140 0 6.28318530717959
2  250 58 141 0 6.28318530717959
0

0101100
+57 148 -57 148 *
Wi

0101000
-125 119 -117 119 -58 119 -133 119 -126 119 -56 118 +55 147 +56 118 *
Fa
0  1e-07 49 118

0101000
+54 0 *
Wi

0101000
+122 122 +129 122 +119 122 *
Fa
0  1e-07 50 103

0101000
+52 0 *
Ed
 1e-07 1 1 0
1  126 0 3.92699081698724 5.49778714378214
2  251 51 127 3.92699081698724 5.49778714378214
2  252 56 127 3.92699081698724 5.49778714378214
0

0101000
+111 128 -118 128 *
Wi

0101000
+114 126 +115 126 +110 126 +50 126 *
Fa
0  1e-07 51 103

0101000
+49 0 *
Ed
 1e-07 1 1 0
1  127 0 3.92699081698724 5.49778714378214
2  253 52 130 3.92699081698724 5.49778714378214
2  254 54 130 3.92699081698724 5.49778714378214
0

0101000
+99 131 -109 131 *
Wi

0101000
+105 129 +106 129 +98 129 +47 129 *
Fa
0  1e-07 52 103

0101000
+46 0 *
Wi

0101000
+93 136 +94 136 +102 136 +88 136 *
Fa
0  1e-07 53 92

0101000
+44 0 *
Wi

0101000
-67 110 -83 108 -78 149 -79 149 -47 129 *
Fa
0  1e-07 54 103

0101000
+42 0 *
Wi

0101100
+75 0 *
Ve
1e-07
40 0 20
0 0

0101101
*
Ed
 1e-07 1 1 0
1  128 0 0 6.28318530717959
2  255 55 141 0 6.28318530717959
2  256 59 140 0 6.28318530717959
0

0101100
+39 142 -39 142 *
Wi

0101100
+38 0 *
Fa
0  1e-07 55 0

0101000
-40 98 +37 98 *
Wi

0101000
-50 126 -58 119 -72 104 -66 110 -68 110 *
Fa
0  1e-07 56 103

0101000
+35 0 *
Wi

0101100
+63 0 *
Ve
1e-07
70 0 20
0 0

0101101
*
Ed
 1e-07 1 1 0
1  129 0 0 6.28318530717959
2  257 57 141 0 6.28318530717959
2  258 60 140 0 6.28318530717959
0

0101100
+32 145 -32 145 *
Wi

0101100
+31 0 *
Fa
0  1e-07 57 0

0101000
-33 98 +30 98 *
Wi

0101100
+55 0 *
Ve
1e-07
100 0 20
0 0

0101101
*
Ed
 1e-07 1 1 0
1  130 0 0 6.28318530717959
2  259 58 141 0 6.28318530717959
2  260 61 140 0 6.28318530717959
0

0101100
+27 148 -27 148 *
Wi

0101100
+26 0 *
Fa
0  1e-07 58 0

0101000
-28 98 +25 98 *
Ve
1e-07
40 0 5
0 0

0101101
*
Ed
 1e-07 1 1 0
1  131 0 0 6.28318530717959
2  261 59 101 0 6.28318530717959
2  262 62 100 0 6.28318530717959
0

0101100
+23 102 -23 102 *
Ed
 1e-07 1 1 0
1  132 0 0 15
3  263 264CN 59 0 0 15
0

0101000
+23 137 -39 137 *
Wi

0101000
-22 99 -21 0 +38 139 +21 0 *
Fa
0  1e-07 59 0

0101000
+20 0 *
Ve
1e-07
70 0 5
0 0

0101101
*
Ed
 1e-07 1 1 0
1  133 0 0 6.28318530717959
2  265 60 101 0 6.28318530717959
2  266 63 111 0 6.28318530717959
0

0101100
+18 112 -18 112 *
Ed
 1e-07 1 1 0
1  134 0 0 15
3  267 268CN 60 0 0 15
0

0101000
+18 143 -32 143 *
Wi

0101000
-17 110 -16 109 +31 144 +16 109 *
Fa
0  1e-07 60 109

0101000
+15 0 *
Ve
1e-07
100 0 5
0 0

0101101
*
Ed
 1e-07 1 1 0
1  135 0 0 6.28318530717959
2  269 61 101 0 6.28318530717959
2  270 64 120 0 6.28318530717959
0

0101100
+13 121 -13 121 *
Ed
 1e-07 1 1 0
1  136 0 0 15
3  271 272CN 61 0 0 15
0

0101000
+13 146 -27 146 *
Wi

0101000
-12 119 -11 118 +26 147 +11 118 *
Fa
0  1e-07 61 118

0101000
+10 0 *
Wi

0101000
+22 99 *
Fa
0  1e-07 62 92

0101000
+8 0 *
Wi

0101000
+17 110 *
Fa
0  1e-07 63 103

0101000
+6 0 *
Wi

0101000
+12 119 *
Fa
0  1e-07 64 103

0101000
+4 0 *
Sh

0101000
+355 8 +348 8 -303 24 -296 8 +291 8 +288 8 -283 8 +278 24 +273 24 +268 24 
+263 24 +258 24 +253 24 +248 24 +243 69 -238 8 -226 72 -224 8 +222 73 +220 74 
+218 75 +216 76 +214 77 +212 78 +210 79 +208 80 +193 24 +184 24 +171 24 +164 24 
+161 69 +152 7 +143 0 +140 24 +131 0 +123 0 +120 24 +112 0 +103 0 +100 24 
+91 7 +86 7 +84 7 +81 0 -73 7 +70 0 -61 0 +59 0 -53 0 +51 0 
+48 0 +45 0 +43 7 +41 0 -36 150 +34 0 -29 151 -24 152 +19 7 +14 0 
+9 0 +7 7 +5 0 +3 0 *
So

0100000
+2 0 *

+1 1 