DBRep_DrawableShape

CASCADE Topology V1, (c) Matra-Datavision
Locations 10
1
-2.22044604925031e-16               1 -1.11022302462516e-16 -5.09678100482638e-31 
-1.11022302462516e-16 -2.22044604925031e-16              -1          -41.35 
             -1 -1.11022302462516e-16               0 4.59077220682502e-15 
1
              0 1.11022302462516e-16               1               0 
              1               0 1.11022302462516e-16               0 
1.11022302462516e-16               1               0               0 
2  1 1 2 -1 0
2  2 1 1 -1 0
2  1 -1 0
1
              1               0               0           10000 
              0               1               0 -1.11022302462516e-12 
              0               0               1 2.22044604925031e-12 
2  1 1 2 -1 6 1 0
2  6 -1 2 1 1 -1 0
2  2 -1 0
2  2 -1 6 1 0
Curve2ds 24
1 4.4919668564475419 0 0 -1 
1 -1.4210854715202004e-14 -3.1554436208840479e-30 0 -1 
1 4.9449028554193779 0 0 -1 
1 7.2000000000000544 -1.5987211554602379e-15 0 -1 
1 0 0 1 0 
2 179.70429344751764 40.265028455577358 -3.3306690738754667e-16 1 1 3.3306690738754667e-16 184.16
1 0 -10000 1 0 
2 179.70429344751764 40.265028455577365 -3.3306690738754667e-16 1 1 3.3306690738754667e-16 184.16
1 0 0 0 -1 
1 82.699999999999974 2.9531932455029166e-15 -1.1102230246251578e-16 -1 
1 0 0 1 0 
1 -6.7000000000001094 82.700000000000017 1 -1.9924880788070419e-31 
1 -4.0389678347315804e-28 -10000 1 0 
1 -6.7000000000001094 82.700000000000017 1 -1.9924880788070419e-31 
1 -0 0 -1.1102230246251578e-16 -1 
1 6.7000000000000544 1.4876988529977222e-15 0 -1 
1 -0 0 1 2.1895288505075267e-47 
1 -6.7000000000000828 4.2632564145606005e-14 -3.3306690738754667e-16 1 
1 -1.1048939541069566e-12 -10000 1 2.1895288505075267e-47 
1 -6.7000000000000828 4.9737991503207013e-14 -3.3306690738754667e-16 1 
1 0 0 1 0 
1 -2.8421709430404014e-14 4.2632564145606011e-14 -1 1.9924880788070419e-31 
1 4.0389678347315804e-28 -10000 1 0 
1 -2.8421709430404014e-14 4.9737991503207013e-14 -1 1.9924880788070419e-31 
Curves 12
1 -41.349999999999973 41.350000000000016 -7.9999999999999805 1 -1.1102230246251563e-16 2.2204460492503136e-16 
1 -41.349999999999994 -41.350000000000023 -7.5000000000000124 1 -1.1102230246251563e-16 2.2204460492503136e-16 
2 -1.0849715444226713 171.7042934475177 0 0 0 1 1 0 -0 -0 1 0 184.16
2 -1.0849715444226713 171.7042934475177 0 0 0 1 1 0 -0 -0 1 0 184.16
1 -41.349999999999994 -41.34999999999998 -14.700000000000067 1 -1.1102230246251563e-16 2.2204460492503136e-16 
1 41.349999999999994 -14.700000000000054 0 0 1 0 
1 41.349999999999994 -14.700000000000054 0 0 1 0 
1 -41.349999999999973 41.349999999999994 -14.700000000000049 1 -1.1102230246251563e-16 2.2204460492503136e-16 
1 -41.349999999999994 -14.700000000000054 0 1 0 0 
1 -41.349999999999994 -14.700000000000054 0 1 0 0 
1 -41.349999999999994 -8 0 0 -1 0 
1 -41.349999999999994 -8 0 0 -1 0 
Polygon3D 0
PolygonOnTriangulations 0
Surfaces 6
2 -41.350000000000023 1.0849715444226757 171.70429344751767 -1 2.2204460492503141e-16 -2.2204460492503136e-16 -2.2204460492503136e-16 -1 -2.2204460492503136e-16 -2.2204460492503136e-16 1.2325951644078312e-32 1 184.16
1 -41.349999999999973 41.349999999999994 -7.9999999999999947 1.1102230246251563e-16 1 1.2325951644078307e-32 2.2204460492503136e-16 -1.2325951644078312e-32 -1 -1 1.1102230246251563e-16 -2.2204460492503136e-16 
1 -41.349999999999994 -41.34999999999998 -14.700000000000067 -1.1102230246251563e-16 -1 -1.2325951644078307e-32 -2.2204460492503136e-16 1.2325951644078312e-32 1 -1 1.1102230246251563e-16 -2.2204460492503136e-16 
1 -7.9999999999999627 -41.349999999999987 41.350000000000044 1.6828682631428832e-15 1 -2.4562503378435806e-16 1 -1.6828682631428832e-15 0 -4.1335457398909469e-31 -2.4562503378435806e-16 -1 
1 -7.9999999999999627 -41.349999999999987 41.350000000000044 1.6828682631428832e-15 1 -2.4562503378435806e-16 1 -1.6828682631428832e-15 0 -4.1335457398909469e-31 -2.4562503378435806e-16 -1 
1 -41.349999999999973 41.349999999999994 -14.700000000000049 2.2204460492503141e-16 2.2204460492503131e-16 -1 -2.2204460492503136e-16 -1 -2.2204460492503136e-16 -1 2.2204460492503141e-16 -2.2204460492503136e-16 
Triangulations 0

TShapes 34
Ve
1.00000025618983e-07
-41.35 41.35 -7.99999999999998
0 0

0101101
*
Ve
1.00000025618983e-07
9958.65 41.3499999999989 -7.99999999999776
0 0

0101101
*
Ed
 1.00000025618983e-07 1 1 0
1  1 0 0 10000
2  1 1 0 0 10000
2  2 2 0 0 10000
0

0101000
+34 0 -33 0 *
Ve
1.00000042632564e-07
-41.35 -41.35 -7.50000000000001
0 0

0101101
*
Ve
1.00000042632564e-07
9958.65 -41.3500000000011 -7.49999999999779
0 0

0101101
*
Ed
 1.00000042632564e-07 1 1 0
1  2 0 0 10000
2  3 1 0 0 10000
2  4 3 0 0 10000
0

0101000
+31 0 -30 0 *
Ed
 1e-07 1 1 0
1  3 0 4.49196685644754 4.94490285541938
2  5 1 4 4.49196685644754 4.94490285541938
2  6 4 5 4.49196685644754 4.94490285541938
0

0101000
+34 4 -31 4 *
Ed
 1e-07 1 1 0
1  4 0 4.49196685644754 4.94490285541938
2  7 1 8 4.49196685644754 4.94490285541938
2  8 5 5 4.49196685644754 4.94490285541938
0

0101000
+33 8 -30 8 *
Wi

0101000
+32 0 -29 0 -28 3 +27 7 *
Fa
0  1e-07 1 0

0101000
+26 0 *
Ve
1e-07
-41.35 -41.35 -14.7000000000001
0 0

0101101
*
Ve
1e-07
9958.65 -41.3500000000011 -14.6999999999978
0 0

0101101
*
Ed
 1e-07 1 1 0
1  5 0 0 10000
2  9 3 0 0 10000
2  10 6 0 0 10000
0

0101000
+24 0 -23 0 *
Ed
 1e-07 1 1 0
1  6 0 0 7.20000000000005
2  11 3 4 0 7.20000000000005
2  12 4 5 0 7.20000000000005
0

0101000
+24 4 -31 4 *
Ed
 1e-07 1 1 0
1  7 0 0 7.20000000000005
2  13 3 8 0 7.20000000000005
2  14 5 5 0 7.20000000000005
0

0101000
+23 8 -30 8 *
Wi

0101000
+22 0 -29 0 -21 3 +20 7 *
Fa
0  1e-07 3 0

0101000
+19 0 *
Ve
1e-07
-41.35 41.35 -14.7
0 0

0101101
*
Ve
1e-07
9958.65 41.3499999999989 -14.6999999999978
0 0

0101101
*
Ed
 1e-07 1 1 0
1  8 0 0 10000
2  15 6 0 0 10000
2  16 2 0 0 10000
0

0101000
+17 0 -16 0 *
Ed
 1e-07 1 1 0
1  9 0 0 82.7
2  17 6 4 0 82.7
2  18 4 5 0 82.7
0

0101000
+17 4 -24 4 *
Ed
 1e-07 1 1 0
1  10 0 0 82.7
2  19 6 8 0 82.7
2  20 5 5 0 82.7
0

0101000
+16 8 -23 8 *
Wi

0101000
+15 0 -22 0 -14 3 +13 7 *
Fa
0  1e-07 6 0

0101000
+12 0 *
Ed
 1e-07 1 1 0
1  11 0 0 6.70000000000005
2  21 2 4 0 6.70000000000005
2  22 4 5 0 6.70000000000005
0

0101000
+34 4 -17 4 *
Ed
 1e-07 1 1 0
1  12 0 0 6.70000000000005
2  23 2 8 0 6.70000000000005
2  24 5 5 0 6.70000000000005
0

0101000
+33 8 -16 8 *
Wi

0101000
+32 0 -15 0 -10 3 +9 7 *
Fa
0  1e-07 2 0

0101000
+8 0 *
Wi

0101100
+28 0 -21 0 -14 0 -10 0 *
Fa
0  1e-07 4 0

0101000
+6 1 *
Wi

0101100
+27 0 -20 0 -13 0 -9 0 *
Fa
0  1e-07 5 0

0101000
+4 1 *
Sh

0101000
+25 0 -18 0 -11 0 -7 0 +5 9 -3 10 *
So

1100000
-2 0 *

+1 0 