DBRep_DrawableShape

CASCADE Topology V1, (c) Matra-Datavision
Locations 14
1
              1               0               0               0 
              0               1               0               0 
              0               0               1               0 
2  1 -1 0
1
              1              -0               0              -0 
              0 1.77321265310004e-16              -1            7550 
              0               1 1.77321265310004e-16               0 
2  3 -1 0
2  1 -1 3 -1 0
1
              1               0               0               0 
              0               1               0              -1 
              0               0               1               0 
2  3 1 6 1 0
2  6 -1 3 -1 0
2  1 -1 6 -1 3 -1 0
1
              1               0               0               0 
              0               1               0              -1 
              0               0               1               0 
2  3 1 10 1 0
2  6 1 10 -1 3 -1 0
2  10 -1 3 -1 0
2  1 -1 10 -1 3 -1 0
Curve2ds 48
1 0 0 0 -1 
1 2099.9999999999995 -3.7237465715100893e-13 -1.773212653100043e-16 -1 
1 820 0 0 -1 
1 0 0 1.773212653100043e-16 -1 
1 0 0 1 0 
1 0 0 0 1 
1 0 -1 1 0 
1 0 0 0 1 
1 0 0 -1.773212653100043e-16 -1 
1 820 0 0 -1 
1 0 0 1 0 
1 2099.9999999999995 0 -1 0 
1 -1.773212653100043e-16 -1 1 0 
1 2099.9999999999995 0 -1 0 
1 2099.9999999999995 3.7237465715100893e-13 1.773212653100043e-16 -1 
1 0 0 0 -1 
1 0 0 1 0 
1 0 820 1 0 
1 1.773212653100043e-16 -1 1 0 
1 0 820 1 0 
1 2099.9999999999995 820 0 -1 
1 0 0 1 0 
1 2099.9999999999995 810 -1 0 
1 0 0 1 0 
1 10 810 0 -1 
1 0 0 1 0 
1 10 10 1 0 
1 0 0 1 0 
1 2099.9999999999995 820 0 -1 
1 0 0 1 0 
1 2099.9999999999995 820 0 -1 
1 0 -1 1 0 
1 2099.9999999999995 810 -1 0 
1 -1.773212653100043e-16 -1 1 0 
1 10 810 0 -1 
1 0 -1 1 0 
1 10 10 1 0 
1 1.773212653100043e-16 -1 1 0 
1 2099.9999999999995 820 0 -1 
1 0 -1 1 0 
1 810 0 0 -1 
1 2089.9999999999995 3.7060144449790888e-13 1.773212653100043e-16 -1 
1 10 0 0 -1 
1 0 0 -1.773212653100043e-16 -1 
1 2089.9999999999995 -3.7060144449790888e-13 -1.773212653100043e-16 -1 
1 0 0 0 -1 
1 800 0 0 -1 
1 0 0 1.773212653100043e-16 -1 
Curves 24
1 8349.9999999999982 7550 2099.9999999999995 0 -1 0 
1 9169.9999999999982 7550 2099.9999999999995 0 -1 0 
1 8350 2100 0 1 0 0 
1 8350 2100 0 1 0 0 
1 8349.9999999999982 7550 0 0 -1 0 
1 8350 0 0 0 1 0 
1 8350 0 0 0 1 0 
1 9169.9999999999982 7550 0 0 -1 0 
1 9170 2100 0 0 -1 0 
1 9170 2100 0 0 -1 0 
1 9170 0 0 -1 0 0 
1 9160 0 0 0 1 0 
1 9160 2090 0 -1 0 0 
1 8360 2090 0 0 -1 0 
1 9170 0 0 -1 0 0 
1 9170 0 0 -1 0 0 
1 9160 0 0 0 1 0 
1 9160 2090 0 -1 0 0 
1 8360 2090 0 0 -1 0 
1 9170 0 0 -1 0 0 
1 8359.9999999999982 7550 0 0 -1 0 
1 9159.9999999999982 7550 0 0 -1 0 
1 9159.9999999999982 7550 2089.9999999999995 0 -1 0 
1 8359.9999999999982 7550 2089.9999999999995 0 -1 0 
Polygon3D 0
PolygonOnTriangulations 0
Surfaces 10
1 8349.9999999999982 7550 2099.9999999999995 -0 0 1 1 0 0 0 1 -0 
1 8349.9999999999982 7550 0 -1 0 0 0 1.773212653100043e-16 1 0 1 -1.773212653100043e-16 
1 9169.9999999999982 7550 2099.9999999999995 1 0 0 0 -1.773212653100043e-16 -1 0 1 -1.773212653100043e-16 
1 8349.9999999999982 7550 2099.9999999999995 0 -1 0 0 -0 -1 1 0 0 
1 8349.9999999999982 7550 2099.9999999999995 0 -1 0 0 -0 -1 1 0 0 
1 9169.9999999999982 7550 0 -0 -0 -1 -1 0 0 0 1 -0 
1 9169.9999999999982 7550 0 -0 -0 -1 -1 0 0 0 1 -0 
1 9159.9999999999982 7550 0 -1 0 0 0 1.773212653100043e-16 1 0 1 -1.773212653100043e-16 
1 9159.9999999999982 7550 2089.9999999999995 -0 -0 -1 -1 0 0 0 1 -0 
1 8359.9999999999982 7550 2089.9999999999995 1 0 0 0 -1.773212653100043e-16 -1 0 1 -1.773212653100043e-16 
Triangulations 0

TShapes 64
Ve
1e-07
8350 7550 2100
0 0

0101101
*
Ve
1e-07
8350 7549 2100
0 0

0101101
*
Ed
 1e-07 1 1 0
1  1 0 0 1
2  1 1 0 0 1
2  2 2 0 0 1
0

0101000
+64 2 -63 2 *
Ve
1e-07
9170 7550 2100
0 0

0101101
*
Ve
1e-07
9170 7549 2100
0 0

0101101
*
Ed
 1e-07 1 1 0
1  2 0 0 1
2  3 1 0 0 1
2  4 3 0 0 1
0

0101000
+61 2 -60 2 *
Ed
 1e-07 1 1 0
1  3 0 0 820
2  5 1 4 0 820
2  6 4 4 0 820
0

0101000
+64 5 -61 5 *
Ed
 1e-07 1 1 0
1  4 0 0 820
2  7 1 8 0 820
2  8 5 4 0 820
0

0101000
+63 9 -60 9 *
Wi

0101000
+62 0 -59 0 -58 3 +57 7 *
Fa
0  1e-07 1 0

0101000
+56 0 *
Ve
1e-07
8350 7550 0
0 0

0101101
*
Ve
1e-07
8350 7549 0
0 0

0101101
*
Ed
 1e-07 1 1 0
1  5 0 0 1
2  9 2 0 0 1
2  10 6 0 0 1
0

0101000
+54 2 -53 2 *
Ed
 1e-07 1 1 0
1  6 0 0 2100
2  11 2 4 0 2100
2  12 4 4 0 2100
0

0101000
+54 5 -64 5 *
Ed
 1e-07 1 1 0
1  7 0 0 2100
2  13 2 8 0 2100
2  14 5 4 0 2100
0

0101000
+53 9 -63 9 *
Wi

0101000
+52 0 -62 0 -51 3 +50 7 *
Fa
0  1e-07 2 0

0101000
+49 0 *
Ve
1e-07
9170 7550 0
0 0

0101101
*
Ve
1e-07
9170 7549 0
0 0

0101101
*
Ed
 1e-07 1 1 0
1  8 0 0 1
2  15 3 0 0 1
2  16 7 0 0 1
0

0101000
+47 2 -46 2 *
Ed
 1e-07 1 1 0
1  9 0 0 2100
2  17 3 4 0 2100
2  18 4 4 0 2100
0

0101000
+61 5 -47 5 *
Ed
 1e-07 1 1 0
1  10 0 0 2100
2  19 3 8 0 2100
2  20 5 4 0 2100
0

0101000
+60 9 -46 9 *
Wi

0101000
+59 0 -45 0 -44 3 +43 7 *
Fa
0  1e-07 3 0

0101000
+42 0 *
Ve
1e-07
9160 7550 0
0 0

0101101
*
Ed
 1e-07 1 1 0
1  11 0 0 10
2  21 4 4 0 10
2  22 7 4 0 10
0

0101000
+47 5 -40 5 *
Ve
1e-07
9160 7550 2090
0 0

0101101
*
Ed
 1e-07 1 1 0
1  12 0 0 2090
2  23 4 4 0 2090
2  24 8 4 0 2090
0

0101000
+40 5 -38 5 *
Ve
1e-07
8360 7550 2090
0 0

0101101
*
Ed
 1e-07 1 1 0
1  13 0 0 800
2  25 4 4 0 800
2  26 9 4 0 800
0

0101000
+38 5 -36 5 *
Ve
1e-07
8360 7550 0
0 0

0101101
*
Ed
 1e-07 1 1 0
1  14 0 0 2090
2  27 4 4 0 2090
2  28 10 4 0 2090
0

0101000
+36 5 -34 5 *
Ed
 1e-07 1 1 0
1  15 0 810 820
2  29 4 4 810 820
2  30 6 4 810 820
0

0101000
+34 5 -54 5 *
Wi

0101000
-58 3 -44 3 -39 3 -37 3 -35 3 -33 3 -32 3 -51 3 *
Fa
0  1e-07 4 0

0101000
+31 0 *
Ve
1e-07
9160 7549 0
0 0

0101101
*
Ed
 1e-07 1 1 0
1  16 0 0 10
2  31 5 4 0 10
2  32 7 8 0 10
0

0101000
+46 9 -29 9 *
Ve
1e-07
9160 7549 2090
0 0

0101101
*
Ed
 1e-07 1 1 0
1  17 0 0 2090
2  33 5 12 0 2090
2  34 8 13 0 2090
0

0101000
+29 14 -27 14 *
Ve
1e-07
8360 7549 2090
0 0

0101101
*
Ed
 1e-07 1 1 0
1  18 0 0 800
2  35 5 12 0 800
2  36 9 13 0 800
0

0101000
+27 14 -25 14 *
Ve
1e-07
8360 7549 0
0 0

0101101
*
Ed
 1e-07 1 1 0
1  19 0 0 2090
2  37 5 12 0 2090
2  38 10 13 0 2090
0

0101000
+25 14 -23 14 *
Ed
 1e-07 1 1 0
1  20 0 810 820
2  39 5 4 810 820
2  40 6 8 810 820
0

0101000
+23 9 -53 9 *
Wi

0101000
-57 7 -43 7 -28 7 -26 11 -24 11 -22 11 -21 7 -50 7 *
Fa
0  1e-07 5 6

0101000
+20 0 *
Ed
 1e-07 1 1 0
1  21 0 0 1
2  41 6 0 0 1
2  42 10 0 0 1
0

0101000
+34 2 -23 2 *
Wi

0101000
-32 3 -52 0 +21 7 +18 0 *
Fa
0  1e-07 6 0

0101000
+17 0 *
Ed
 1e-07 1 1 0
1  22 0 0 1
2  43 7 0 0 1
2  44 8 0 0 1
0

0101000
+40 2 -29 2 *
Wi

0101000
-39 3 -15 0 +28 7 +45 0 *
Fa
0  1e-07 7 0

0101000
+14 0 *
Ed
 1e-07 1 1 0
1  23 0 0 1
2  45 8 0 0 1
2  46 9 0 0 1
0

0101000
+38 2 -27 2 *
Wi

0101000
+15 0 -37 3 +26 11 -12 0 *
Fa
0  1e-07 8 0

0101000
+11 0 *
Ed
 1e-07 1 1 0
1  24 0 0 1
2  47 9 0 0 1
2  48 10 0 0 1
0

0101000
+36 2 -25 2 *
Wi

0101000
+12 0 -35 3 +24 11 -9 0 *
Fa
0  1e-07 9 0

0101000
+8 0 *
Wi

0101000
+9 0 -33 3 +22 11 -18 0 *
Fa
0  1e-07 10 0

0101000
+6 0 *
Sh

0101000
+55 0 +48 0 +41 0 -30 0 +19 0 +16 0 +13 0 +10 0 +7 0 +5 0 
*
So

0100000
+4 0 *
Co

0100000
+3 0 *
Co

1100000
+2 0 *

+1 1 