DBRep_DrawableShape

CASCADE Topology V1, (c) Matra-Datavision
Locations 14
1
              0               0               1               0 
              1               0               0               0 
              0               1               0               0 
2  1 -1 0
1
              0               0               1               0 
              1               0               0               0 
              0               1               0               0 
1
              0 1.11022302462516e-16               1               0 
              1               0 1.11022302462516e-16               0 
1.11022302462516e-16               1               0               0 
2  3 1 4 -1 0
2  4 1 3 -1 0
2  3 -1 0
2  1 -1 4 1 3 -1 0
1
              1               0               0               0 
              0               1               0 6.66133814775094e-15 
              0               0               1              60 
2  3 1 4 -1 9 1 0
2  9 -1 4 1 3 -1 0
2  1 -1 9 -1 4 1 3 -1 0
2  4 -1 0
2  4 -1 9 1 0
Curve2ds 6
1 0 0 0 -1 
1 6.2831853071795898 0 0 -1 
1 0 0 1 0 
2 4.5907722068250217e-15 41.349999999999994 -1.1102230246251565e-16 -1 -1 1.1102230246251565e-16 41.350000000000001
1 0 -60 1 0 
2 4.5907722068250217e-15 41.349999999999994 -1.1102230246251565e-16 -1 -1 1.1102230246251565e-16 41.350000000000001
Curves 3
1 41.349999999999994 0 4.5907722068250225e-15 0 1.1102230246251568e-16 1 
2 0 0 0 0 0 1 1 0 -0 -0 1 0 41.350000000000001
2 0 0 0 0 0 1 1 0 -0 -0 1 0 41.350000000000001
Polygon3D 0
PolygonOnTriangulations 0
Surfaces 3
2 0 0 0 1.1102230246251568e-16 -1.2325951644078315e-32 -1 1 0 1.1102230246251568e-16 1.3684555315672051e-48 1 -1.2325951644078315e-32 41.350000000000001
1 0 41.350000000000001 0 -1 -0 0 -0 0 -1 0 -1 -0 
1 0 41.350000000000001 0 -1 -0 0 -0 0 -1 0 -1 -0 
Triangulations 0

TShapes 13
Ve
1e-07
4.59077220682502e-15 41.35 0
0 0

0101101
*
Ve
1e-07
60 41.35 6.66133814775094e-15
0 0

0101101
*
Ed
 1e-07 1 1 0
1  1 0 0 60
3  1 2CN 1 0 0 60
0

0101000
+13 2 -12 2 *
Ed
 1e-07 1 1 0
1  2 0 0 6.28318530717959
2  3 1 6 0 6.28318530717959
2  4 2 7 0 6.28318530717959
0

0101100
+13 8 -13 8 *
Ed
 1e-07 1 1 0
1  3 0 0 6.28318530717959
2  5 1 11 0 6.28318530717959
2  6 3 7 0 6.28318530717959
0

0101100
+12 12 -12 12 *
Wi

0101000
+11 0 -11 0 -10 5 +9 10 *
Fa
0  1e-07 1 0

0101000
+8 0 *
Wi

0101100
+10 0 *
Fa
0  1e-07 2 0

0101000
-6 3 *
Wi

0101100
+9 0 *
Fa
0  1e-07 3 0

0101000
-4 3 *
Sh

0101000
-7 0 +5 13 -3 14 *
So

1100000
+2 0 *

+1 1 