DBRep_DrawableShape

CASCADE Topology V1, (c) Matra-Datavision
Locations 21
1
              1               0               0               0 
              0               1               0               0 
              0               0               1               0 
1
              1               0               0               0 
              0               1               0               0 
              0               0               1               0 
1
              1               0               0             500 
              0               1               0             225 
              0               0               1              10 
2  3 -1 0
2  1 -1 2 -1 3 -1 0
2  1 -1 2 -1 0
1
              1               0               0             500 
              0               1               0             225 
              0               0               1             410 
2  7 -1 0
2  1 -1 2 -1 7 -1 0
1
              1               0               0             500 
              0               1               0             225 
              0               0               1             410 
1
              1               0               0               0 
              0               1               0               0 
              0               0               1               0 
2  10 1 11 1 0
2  2 1 11 -1 10 -1 0
2  10 -1 0
2  1 -1 11 -1 10 -1 0
2  7 1 2 1 0
2  1 -1 11 -1 0
1
              1               0               0             500 
              0               1               0             225 
              0               0               1              30 
2  18 1 11 1 0
2  18 -1 0
2  1 -1 11 -1 18 -1 0
Curve2ds 12
1 0 0 1 0 
3 0 0 1 0 -0 1 150 100
1 6.2831853071795862 0 0 1 
1 0 0 0 1 
1 0 1 1 0 
3 0 0 1 0 -0 1 250 185
3 0 0 1 0 -0 1 170 105
1 0 0 1 0 
1 6.2831853071795862 0 0 1 
1 0 0 0 1 
1 0 1 1 0 
3 0 0 1 0 -0 1 65 50
Curves 6
3 0 0 0 0 0 1 1 0 -0 -0 1 0 150 100
7 0 0  1 2 2  650 225 10  750 225 410 
 0 2 1 2
3 0 0 0 0 0 1 1 0 -0 -0 1 0 250 185
3 0 0 0 0 0 1 1 0 -0 -0 1 0 170 105
7 0 0  1 2 2  670 225.00000000000003 410  565 224.99999999999997 30 
 0 2 1 2
3 0 0 0 0 0 1 1 0 -0 -0 1 0 65 50
Polygon3D 0
PolygonOnTriangulations 0
Surfaces 5
9 0 0 0 0 11 1 22 2 3 2 650 225 10  750 225 410  
649.99999999999011 253.5599332144439 10.000000000000195  750.00000000000068 277.83587644673571 409.99999999998897  
636.54144826746744 282.11986419626385 9.9999999999991704  727.56908044570957 330.6717487630271 410.00000000004349  
609.62434796769162 307.54786748760483 10.000000000001986  682.70724661298493 377.71355485222443 409.9999999998999  
571.09354955764638 326.71189144235717 9.9999999999966374  618.48924926247162 413.16699916808102 410.00000000016115  
524.63886805801019 337.03230705923579 10.000000000004247  541.0647800970105 432.25976805996379 409.99999999980838  
475.36113194197981 337.03230705968809 9.9999999999958984  458.93521990300849 432.25976806003069 410.00000000017195  
428.90645044237868 326.71189144200878 10.000000000003018  381.51075073748478 413.16699916802935 409.99999999988296  
390.37565203228166 307.54786748780583 9.999999999998348  317.29275338705742 377.71355485225604 410.00000000005889  
363.4585517325516 282.11986419618313 10.000000000000625  272.43091955426621 330.67174876301237 409.99999999998101  
349.9999999999996 253.55993321446118 9.9999999999998739  250.00000000000753 277.83587644673963 410.00000000000068  
350.00000000000824 196.44006678554294 10.000000000000094  249.99999999998963 172.16412355326111 410.00000000000563  
363.4585517325159 167.88013580377944 9.9999999999997087  272.43091955433971 119.32825123698255 409.99999999995998  
390.3756520323671 142.45213251229578 10.000000000000625  317.29275338688421 72.286445147755714 410.00000000011323  
428.90645044223351 123.28810855781231 9.9999999999989182  381.51075073777042 36.833000831950969 409.99999999978769  
475.36113194216625 112.96769294054143 10.000000000001558  458.93521990265242 17.740231939994526 410.00000000029308  
524.63886805782704 112.9676929405415 9.9999999999982077  541.06478009735531 17.74023194001364 409.99999999969407  
571.09354955778031 123.28810855780775 10.000000000001569  618.48924926221321 36.83300083193312 410.00000000024249  
609.62434796761818 142.45213251230328 9.9999999999989999  682.70724661312863 72.286445147769399 409.99999999985664  
636.54144826749723 167.88013580377273 10.000000000000435  727.56908044565375 119.32825123697488 410.00000000005974  
649.99999999998283 196.44006678554706 9.9999999999998863  750.00000000001319 172.16412355326361 409.99999999998533  
650 224.99999999999997 10  750 224.99999999999991 410  

0 12
3.1415926535897931 10
6.2831853071795862 12

0 2
1 2

1 500 225 10 0 0 1 1 0 -0 -0 1 0 
1 500 225 410 0 0 1 1 0 -0 -0 1 0 
9 0 0 0 0 11 1 22 2 3 2 670 225.00000000000003 410  565 224.99999999999997 30  
669.99999999998147 254.9879298751755 409.99999999998897  565.00000000001285 239.27996660722715 30.000000000000362  
654.74697470315959 284.97585740603716 410.00000000004349  559.1679609158308 253.5599320981091 29.999999999998355  
624.24092769664617 311.67526086208608 409.9999999998999  547.50388411950325 266.27393374386298 30.00000000000416  
580.57268949878437 331.79748601429532 410.00000000016115  530.80720480803541 275.85594572106163 29.999999999992607  
527.92405046559645 342.63392241243406 409.99999999980838  510.67684282547236 281.01615352979098 30.00000000000971  
472.0759495343861 342.63392241243696 410.00000000017195  489.32315717455174 281.01615352964615 29.999999999990482  
419.42731050125411 331.79748601428759 409.99999999988296  469.19279519190889 275.855945721176 30.000000000006942  
375.75907230332001 311.67526086209483 410.00000000005889  452.49611588055001 266.27393374379471 29.999999999996309  
345.25302529685814 284.97585740603205 409.99999999998101  440.83203908413833 253.55993209813676 30.000000000001339  
330.00000000001177 254.9879298751772 410.00000000000068  434.99999999999733 239.27996660722155 29.99999999999973  
329.9999999999917 195.01207012482246 410.00000000000563  434.99999999999903 210.72003339277671 30.000000000000227  
345.25302529694204 165.02414259397054 409.99999999995998  440.83203908412975 196.44006790187842 29.99999999999913  
375.75907230311418 138.32473913789809 410.00000000011323  452.49611588057985 183.72606625616686 30.000000000002032  
419.42731050161495 118.20251398572803 409.99999999978769  469.19279519184749 174.14405427888093 29.999999999996515  
472.07594953390907 107.3660775875357 410.00000000029308  489.32315717463359 168.98384647029857 30.000000000004651  
527.92405046607792 107.36607758759975 409.99999999969407  510.67684282540233 168.9838464702446 29.999999999995172  
580.57268949841568 118.20251398567531 410.00000000024249  530.80720480806906 174.14405427892461 30.000000000003823  
624.24092769685558 138.32473913793189 409.99999999985664  547.5038841195003 183.72606625613852 29.999999999997744  
654.74697470307615 165.02414259395516 410.00000000005974  559.1679609158241 196.44006790189232 30.000000000000941  
670.00000000000102 195.0120701248261 409.99999999998533  565.0000000000166 210.72003339277191 29.999999999999776  
670 224.99999999999997 410  565 225 30  

0 12
3.1415926535897931 10
6.2831853071795862 12

0 2
1 2

1 500 225 30 0 0 1 1 0 -0 -0 1 0 
Triangulations 0

TShapes 24
Ve
1e-07
650 225 10
0 0

0101101
*
Ed
 1e-07 1 1 0
1  1 0 0 6.28318530717959
2  1 1 4 0 6.28318530717959
2  2 2 4 0 6.28318530717959
0

0101100
+24 5 -24 5 *
Ve
1e-07
750 225 410
0 0

0101101
*
Ed
 1e-07 1 1 0
1  2 0 0 1
3  3 4G1 1 0 0 1
0

0101000
+24 6 -22 6 *
Ed
 1e-07 1 1 0
1  3 0 0 6.28318530717959
2  5 1 8 0 6.28318530717959
2  6 3 8 0 6.28318530717959
0

0101100
+22 9 -22 9 *
Wi

0101000
+23 3 +21 0 -20 7 -21 0 *
Fa
0  1e-07 1 0

0101000
+19 0 *
Wi

0101100
+23 3 *
Fa
0  1e-07 2 0

0101000
+17 0 *
Ve
1e-07
670 225 410
0 0

0101101
*
Ed
 1e-07 1 1 0
1  4 0 0 6.28318530717959
2  7 3 13 0 6.28318530717959
2  8 4 14 0 6.28318530717959
0

0101100
+15 15 -15 15 *
Wi

0101000
-14 12 *
Wi

0101000
+20 16 *
Fa
0  1e-07 3 2

0101000
+13 0 +12 0 *
Ve
1e-07
565 225 30
0 0

0101101
*
Ed
 1e-07 1 1 0
1  5 0 0 1
3  9 10G1 4 0 0 1
0

0101000
+15 17 -10 17 *
Ed
 1e-07 1 1 0
1  6 0 0 6.28318530717959
2  11 4 20 0 6.28318530717959
2  12 5 20 0 6.28318530717959
0

0101100
+10 21 -10 21 *
Wi

0101000
-9 11 -8 19 +9 11 +14 12 *
Fa
0  1e-07 4 11

0101000
+7 0 *
Wi

0101100
+8 18 *
Fa
0  1e-07 5 0

0101000
+5 0 *
Sh

0101000
+18 2 -16 2 +11 0 +6 0 +4 11 *
So

0100000
+3 0 *
Co

1100000
+2 0 *

+1 1 