DBRep_DrawableShape

CASCADE Topology V1, (c) Matra-Datavision
Locations 14
1
              1               0               0               0 
              0               1               0               0 
              0               0               1               0 
2  1 -1 0
1
              1               0               0               0 
              0               1               0               0 
              0               0               1               0 
1
              1               0               0               0 
              0               1               0               0 
              0               0               1               0 
2  3 1 4 -1 0
2  4 1 3 -1 0
2  3 -1 0
2  1 -1 4 1 3 -1 0
1
              1               0               0              -0 
              0               1               0              -0 
              0               0               1              -3 
2  3 1 4 -1 9 1 0
2  9 -1 4 1 3 -1 0
2  1 -1 9 -1 4 1 3 -1 0
2  4 -1 0
2  4 -1 9 1 0
Curve2ds 96
1 1.5707963267948966 0 0 -1 
1 1194 0 0 -1 
1 3.1415926535897931 0 0 -1 
1 0 0 0 -1 
1 0 0 1 0 
2 0 -19 -1 0 0 1 19
1 0 -3 1 0 
2 0 -19 -1 0 0 1 19
1 0 0 0 -1 
1 1.5707963267948966 0 0 -1 
1 0 0 1 0 
1 -1194 0 1 0 
1 0 -3 1 0 
1 -1194 0 1 0 
1 0 0 0 -1 
1 430 0 0 -1 
1 0 0 1 0 
2 -1194 -19 -1 0 0 1 19
1 0 -3 1 0 
2 -1194 -19 -1 0 0 1 19
1 0 0 0 -1 
1 6.2831853071795862 0 0 -1 
1 0 0 1 0 
1 -1213 -449 0 1 
1 0 -3 1 0 
1 -1213 -449 0 1 
1 4.7123889803846897 0 0 -1 
1 1194 0 0 -1 
1 0 0 1 0 
2 -1194 -449 -1 0 0 1 19
1 0 -3 1 0 
2 -1194 -449 -1 0 0 1 19
1 0 0 0 -1 
1 4.7123889803846897 0 0 -1 
1 0 0 1 0 
1 0 -468 -1 0 
1 0 -3 1 0 
1 0 -468 -1 0 
1 3.1415926535897931 0 0 -1 
1 430 0 0 -1 
1 0 0 1 0 
2 0 -449 -1 0 0 1 19
1 0 -3 1 0 
2 0 -449 -1 0 0 1 19
1 0 0 1 0 
1 19 -19 0 -1 
1 0 -3 1 0 
1 19 -19 0 -1 
1 1.5705647478463647 0 0 -1 
1 0 0 0 -1 
1 3.1415926804032916 0 0 -1 
1 -5.7411853049416095e-12 0 0 -1 
1 0 0 1 0 
2 -19.000000000005734 -37.999999490532048 -1 0 0 1 19
1 0 -3 1 0 
2 -19.000000000005734 -37.999999490532048 -1 0 0 1 19
1 392 0 0 -1 
1 3.1415926535897931 0 0 -1 
1 0 0 1 0 
1 -5.7411853049416095e-12 -38 0 -1 
1 0 -3 1 0 
1 -5.7411853049416095e-12 -38 0 -1 
1 4.7123889803846897 0 0 -1 
1 0 0 0 -1 
1 0 0 1 0 
2 -19 -430 -1 0 0 1 19
1 0 -3 1 0 
2 -19 -430 -1 0 0 1 19
1 1156 0 0 -1 
1 4.7123889803846897 0 0 -1 
1 0 0 1 0 
1 -19 -449 -1 0 
1 0 -3 1 0 
1 -19 -449 -1 0 
1 6.2831853071795862 0 0 -1 
1 392 0 0 -1 
1 0 0 1 0 
2 -1175 -430 -1 0 0 1 19
1 0 -3 1 0 
2 -1175 -430 -1 0 0 1 19
1 0 0 0 -1 
1 3.1578937391188729e-07 0 0 -1 
1 0 0 1 0 
1 -1194 -38 0 -1 
1 0 -3 1 0 
1 -1194 -38 0 -1 
1 1.570796011005521 0 0 -1 
1 1155.9956000000116 0 0 -1 
1 0 0 1 0 
2 -1174.999994 -38.000005999999985 -1 0 0 1 19.000005999999985
1 0 -3 1 0 
2 -1174.999994 -38.000005999999985 -1 0 0 1 19.000005999999985
1 0 0 1 0 
1 -19.004399999988514 -19.000000000005741 -1 0 
1 0 -3 1 0 
1 -19.004399999988514 -19.000000000005741 -1 0 
Curves 48
1 19 468 0 -0 -0 -1 
1 0 449 0 -0 -0 -1 
2 19 449 0 0 0 1 1 0 -0 -0 1 0 19
2 19 449 0 0 0 1 1 0 -0 -0 1 0 19
1 1213 468 0 -0 -0 -1 
1 1213 468 0 -1 0 0 
1 1213 468 0 -1 0 0 
1 1232 449 0 -0 -0 -1 
2 1213 449 0 0 0 1 1 0 -0 -0 1 0 19
2 1213 449 0 0 0 1 1 0 -0 -0 1 0 19
1 1232 18.999999999999996 0 -0 -0 -1 
1 1232 18.999999999999996 0 0 1 0 
1 1232 18.999999999999996 0 0 1 0 
1 1213 0 0 -0 -0 -1 
2 1213 19 0 0 0 1 1 0 -0 -0 1 0 19
2 1213 19 0 0 0 1 1 0 -0 -0 1 0 19
1 19 0 0 -0 -0 -1 
1 19 0 0 1 0 0 
1 19 0 0 1 0 0 
1 0 19 0 -0 -0 -1 
2 19 19 0 0 0 1 1 0 -0 -0 1 0 19
2 19 19 0 0 0 1 1 0 -0 -0 1 0 19
1 0 449 0 0 -1 0 
1 0 449 0 0 -1 0 
1 38.004399999988514 448.99999999999426 0 -0 -0 -1 
1 19.000000000005741 430.00000000000574 0 -0 -0 -1 
2 38.000000000005734 430.00000050946795 0 0 0 1 1 0 -0 -0 1 0 19
2 38.000000000005734 430.00000050946795 0 0 0 1 1 0 -0 -0 1 0 19
1 19.000000000002871 38 0 -0 -0 -1 
1 19.000000000005741 430 0 0 -1 0 
1 19.000000000005741 430 0 0 -1 0 
1 38 19 0 -0 -0 -1 
2 38 38 0 0 0 1 1 0 -0 -0 1 0 19
2 38 38 0 0 0 1 1 0 -0 -0 1 0 19
1 1194 19 0 -0 -0 -1 
1 38 19 0 1 0 0 
1 38 19 0 1 0 0 
1 1213 38 0 -0 -0 -1 
2 1194 38 0 0 0 1 1 0 -0 -0 1 0 19
2 1194 38 0 0 0 1 1 0 -0 -0 1 0 19
1 1212.9999999999995 430 0 -0 -0 -1 
1 1213 430 0 0 -1 0 
1 1213 430 0 0 -1 0 
1 1194 448.9999999999967 0 -0 -0 -1 
2 1193.999994 429.99999400000002 0 0 0 1 1 0 -0 -0 1 0 19.000005999999999
2 1193.999994 429.99999400000002 0 0 0 1 1 0 -0 -0 1 0 19.000005999999999
1 38.004399999988514 448.99999999999426 0 1 0 0 
1 38.004399999988514 448.99999999999426 0 1 0 0 
Polygon3D 0
PolygonOnTriangulations 0
Surfaces 18
2 19 449 0 0 0 1 1 0 -0 -0 1 0 19
1 1213 468 0 0 1 -0 -1 0 0 0 0 1 
1 0 449 0 -1 0 0 0 -1 0 0 0 1 
1 19 468 0 0 0 -1 -1 0 -0 0 1 0 
1 19 468 0 0 0 -1 -1 0 -0 0 1 0 
2 1213 449 0 0 0 1 1 0 -0 -0 1 0 19
1 1232 18.999999999999996 0 1 0 0 -0 1 0 0 -0 1 
2 1213 19 0 0 0 1 1 0 -0 -0 1 0 19
1 19 0 0 0 -1 0 1 0 0 -0 0 1 
2 19 19 0 0 0 1 1 0 -0 -0 1 0 19
2 38.000000000005734 430.00000050946795 0 0 0 1 1 0 -0 -0 1 0 19
1 38.004399999988514 448.99999999999426 0 0 -1 0 1 0 0 -0 0 1 
1 19.000000000005741 430 0 -1 0 0 0 -1 0 0 0 1 
2 38 38 0 0 0 1 1 0 -0 -0 1 0 19
1 38 19 0 0 -1 0 1 0 0 -0 0 1 
2 1194 38 0 0 0 1 1 0 -0 -0 1 0 19
1 1213 430 0 -1 0 0 0 -1 0 0 0 1 
2 1193.999994 429.99999400000002 0 0 0 1 1 0 -0 -0 1 0 19.000005999999999
Triangulations 0

TShapes 120
Ve
1e-07
19 468 0
0 0

0101101
*
Ve
1e-07
19 468 -3
0 0

0101101
*
Ed
 1e-07 1 1 0
1  1 0 0 3
2  1 1 0 0 3
2  2 2 0 0 3
4 G1 1 0 2 0
0

0101000
+120 2 -119 2 *
Ve
1e-07
0 449 0
0 0

0101101
*
Ve
1e-07
0 449 -3
0 0

0101101
*
Ed
 1e-07 1 1 0
1  2 0 0 3
2  3 1 0 0 3
2  4 3 0 0 3
4 G1 1 0 3 0
0

0101000
+117 2 -116 2 *
Ed
 1e-07 1 1 0
1  3 0 1.5707963267949 3.14159265358979
2  5 1 6 1.5707963267949 3.14159265358979
2  6 4 7 1.5707963267949 3.14159265358979
0

0101000
+120 8 -117 8 *
Ed
 1e-07 1 1 0
1  4 0 1.5707963267949 3.14159265358979
2  7 1 11 1.5707963267949 3.14159265358979
2  8 5 7 1.5707963267949 3.14159265358979
0

0101000
+119 12 -116 12 *
Wi

0101000
+118 0 -115 0 -114 5 +113 10 *
Fa
0  1e-07 1 0

0101000
+112 0 *
Ve
1e-07
1213 468 0
0 0

0101101
*
Ve
1e-07
1213 468 -3
0 0

0101101
*
Ed
 1e-07 1 1 0
1  5 0 0 3
2  9 2 0 0 3
2  10 6 0 0 3
4 G1 2 0 6 0
0

0101000
+110 2 -109 2 *
Ed
 1e-07 1 1 0
1  6 0 0 1194
2  11 2 6 0 1194
2  12 4 7 0 1194
0

0101000
+110 8 -120 8 *
Ed
 1e-07 1 1 0
1  7 0 0 1194
2  13 2 11 0 1194
2  14 5 7 0 1194
0

0101000
+109 12 -119 12 *
Wi

0101000
+108 0 -118 0 -107 5 +106 10 *
Fa
0  1e-07 2 0

0101000
+105 0 *
Ve
1e-07
1232 449 0
0 0

0101101
*
Ve
1e-07
1232 449 -3
0 0

0101101
*
Ed
 1e-07 1 1 0
1  8 0 0 3
2  15 6 0 0 3
2  16 7 0 0 3
4 G1 6 0 7 0
0

0101000
+103 2 -102 2 *
Ed
 1e-07 1 1 0
1  9 0 0 1.5707963267949
2  17 6 6 0 1.5707963267949
2  18 4 7 0 1.5707963267949
0

0101000
+103 8 -110 8 *
Ed
 1e-07 1 1 0
1  10 0 0 1.5707963267949
2  19 6 11 0 1.5707963267949
2  20 5 7 0 1.5707963267949
0

0101000
+102 12 -109 12 *
Wi

0101000
+101 0 -108 0 -100 5 +99 10 *
Fa
0  1e-07 6 0

0101000
+98 0 *
Ve
1e-07
1232 19 0
0 0

0101101
*
Ve
1e-07
1232 19 -3
0 0

0101101
*
Ed
 1e-07 1 1 0
1  11 0 0 3
2  21 7 0 0 3
2  22 8 0 0 3
4 G1 7 0 8 0
0

0101000
+96 2 -95 2 *
Ed
 1e-07 1 1 0
1  12 0 0 430
2  23 7 6 0 430
2  24 4 7 0 430
0

0101000
+96 8 -103 8 *
Ed
 1e-07 1 1 0
1  13 0 0 430
2  25 7 11 0 430
2  26 5 7 0 430
0

0101000
+95 12 -102 12 *
Wi

0101000
+94 0 -101 0 -93 5 +92 10 *
Fa
0  1e-07 7 0

0101000
+91 0 *
Ve
1e-07
1213 0 0
0 0

0101101
*
Ve
1e-07
1213 0 -3
0 0

0101101
*
Ed
 1e-07 1 1 0
1  14 0 0 3
2  27 8 0 0 3
2  28 9 0 0 3
4 G1 8 0 9 0
0

0101000
+89 2 -88 2 *
Ed
 1e-07 1 1 0
1  15 0 4.71238898038469 6.28318530717959
2  29 8 6 4.71238898038469 6.28318530717959
2  30 4 7 4.71238898038469 6.28318530717959
0

0101000
+89 8 -96 8 *
Ed
 1e-07 1 1 0
1  16 0 4.71238898038469 6.28318530717959
2  31 8 11 4.71238898038469 6.28318530717959
2  32 5 7 4.71238898038469 6.28318530717959
0

0101000
+88 12 -95 12 *
Wi

0101000
+87 0 -94 0 -86 5 +85 10 *
Fa
0  1e-07 8 0

0101000
+84 0 *
Ve
1.00000001776357e-07
19 0 0
0 0

0101101
*
Ve
1.00000001776357e-07
19 0 -3
0 0

0101101
*
Ed
 1.00000001776357e-07 1 1 0
1  17 0 0 3
2  33 9 0 0 3
2  34 10 0 0 3
4 G1 9 0 10 0
0

0101000
+82 2 -81 2 *
Ed
 1e-07 1 1 0
1  18 0 0 1194
2  35 9 6 0 1194
2  36 4 7 0 1194
0

0101000
+82 8 -89 8 *
Ed
 1e-07 1 1 0
1  19 0 0 1194
2  37 9 11 0 1194
2  38 5 7 0 1194
0

0101000
+81 12 -88 12 *
Wi

0101000
+80 0 -87 0 -79 5 +78 10 *
Fa
0  1e-07 9 0

0101000
+77 0 *
Ve
1.00000001776357e-07
0 19 0
0 0

0101101
*
Ve
1.00000001776357e-07
0 19 -3
0 0

0101101
*
Ed
 1.00000001776357e-07 1 1 0
1  20 0 0 3
2  39 10 0 0 3
2  40 3 0 0 3
4 G1 10 0 3 0
0

0101000
+75 2 -74 2 *
Ed
 1e-07 1 1 0
1  21 0 3.14159265358979 4.71238898038469
2  41 10 6 3.14159265358979 4.71238898038469
2  42 4 7 3.14159265358979 4.71238898038469
0

0101000
+75 8 -82 8 *
Ed
 1e-07 1 1 0
1  22 0 3.14159265358979 4.71238898038469
2  43 10 11 3.14159265358979 4.71238898038469
2  44 5 7 3.14159265358979 4.71238898038469
0

0101000
+74 12 -81 12 *
Wi

0101000
+73 0 -80 0 -72 5 +71 10 *
Fa
0  1e-07 10 0

0101000
+70 0 *
Ed
 1e-07 1 1 0
1  23 0 0 430
2  45 3 6 0 430
2  46 4 7 0 430
0

0101000
+117 8 -75 8 *
Ed
 1e-07 1 1 0
1  24 0 0 430
2  47 3 11 0 430
2  48 5 7 0 430
0

0101000
+116 12 -74 12 *
Wi

0101000
+115 0 -73 0 -68 5 +67 10 *
Fa
0  1e-07 3 0

0101000
+66 0 *
Ve
1e-07
38.0043999999885 448.999999999994 0
0 0

0101101
*
Ve
1e-07
38.0043999999885 448.999999999994 -3
0 0

0101101
*
Ed
 1e-07 1 1 0
1  25 0 0 3
2  49 11 0 0 3
2  50 12 0 0 3
4 G1 11 0 12 0
0

0101000
+64 2 -63 2 *
Ve
1.00005741185305e-07
19.0000000000057 430.000000000006 0
0 0

0101101
*
Ve
1.00005741185305e-07
19.0000000000057 430.000000000006 -3
0 0

0101101
*
Ed
 1.00005741185305e-07 1 1 0
1  26 0 0 3
2  51 11 0 0 3
2  52 13 0 0 3
4 G1 11 0 13 0
0

0101000
+61 2 -60 2 *
Ed
 1e-07 1 1 0
1  27 0 1.57056474784636 3.14159268040329
2  53 11 6 1.57056474784636 3.14159268040329
2  54 4 7 1.57056474784636 3.14159268040329
0

0101000
+64 8 -61 8 *
Ed
 1e-07 1 1 0
1  28 0 1.57056474784636 3.14159268040329
2  55 11 11 1.57056474784636 3.14159268040329
2  56 5 7 1.57056474784636 3.14159268040329
0

0101000
+63 12 -60 12 *
Wi

0101000
+62 0 -59 0 -58 5 +57 10 *
Fa
0  1e-07 11 0

0101000
+56 0 *
Ve
1.00002870592652e-07
19.0000000000029 38 0
0 0

0101101
*
Ve
1.00002870592652e-07
19.0000000000029 38 -3
0 0

0101101
*
Ed
 1.00002870592652e-07 1 1 0
1  29 0 0 3
2  57 13 0 0 3
2  58 14 0 0 3
4 G1 13 0 14 0
0

0101000
+54 2 -53 2 *
Ed
 1e-07 1 1 0
1  30 0 0 392
2  59 13 6 0 392
2  60 4 7 0 392
0

0101000
+61 8 -54 8 *
Ed
 1e-07 1 1 0
1  31 0 0 392
2  61 13 11 0 392
2  62 5 7 0 392
0

0101000
+60 12 -53 12 *
Wi

0101000
+59 0 -52 0 -51 5 +50 10 *
Fa
0  1e-07 13 0

0101000
+49 0 *
Ve
1e-07
38 19 0
0 0

0101101
*
Ve
1e-07
38 19 -3
0 0

0101101
*
Ed
 1e-07 1 1 0
1  32 0 0 3
2  63 14 0 0 3
2  64 15 0 0 3
4 G1 14 0 15 0
0

0101000
+47 2 -46 2 *
Ed
 1e-07 1 1 0
1  33 0 3.14159265358979 4.71238898038469
2  65 14 6 3.14159265358979 4.71238898038469
2  66 4 7 3.14159265358979 4.71238898038469
0

0101000
+54 8 -47 8 *
Ed
 1e-07 1 1 0
1  34 0 3.14159265358979 4.71238898038469
2  67 14 11 3.14159265358979 4.71238898038469
2  68 5 7 3.14159265358979 4.71238898038469
0

0101000
+53 12 -46 12 *
Wi

0101000
+52 0 -45 0 -44 5 +43 10 *
Fa
0  1e-07 14 0

0101000
+42 0 *
Ve
1e-07
1194 19 0
0 0

0101101
*
Ve
1e-07
1194 19 -3
0 0

0101101
*
Ed
 1e-07 1 1 0
1  35 0 0 3
2  69 15 0 0 3
2  70 16 0 0 3
4 G1 15 0 16 0
0

0101000
+40 2 -39 2 *
Ed
 1e-07 1 1 0
1  36 0 0 1156
2  71 15 6 0 1156
2  72 4 7 0 1156
0

0101000
+47 8 -40 8 *
Ed
 1e-07 1 1 0
1  37 0 0 1156
2  73 15 11 0 1156
2  74 5 7 0 1156
0

0101000
+46 12 -39 12 *
Wi

0101000
+45 0 -38 0 -37 5 +36 10 *
Fa
0  1e-07 15 0

0101000
+35 0 *
Ve
1.00000003552714e-07
1213 38 0
0 0

0101101
*
Ve
1.00000003552714e-07
1213 38 -3
0 0

0101101
*
Ed
 1.00000003552714e-07 1 1 0
1  38 0 0 3
2  75 16 0 0 3
2  76 17 0 0 3
4 G1 16 0 17 0
0

0101000
+33 2 -32 2 *
Ed
 1e-07 1 1 0
1  39 0 4.71238898038469 6.28318530717959
2  77 16 6 4.71238898038469 6.28318530717959
2  78 4 7 4.71238898038469 6.28318530717959
0

0101000
+40 8 -33 8 *
Ed
 1e-07 1 1 0
1  40 0 4.71238898038469 6.28318530717959
2  79 16 11 4.71238898038469 6.28318530717959
2  80 5 7 4.71238898038469 6.28318530717959
0

0101000
+39 12 -32 12 *
Wi

0101000
+38 0 -31 0 -30 5 +29 10 *
Fa
0  1e-07 16 0

0101000
+28 0 *
Ve
1.00000454747351e-07
1213 430 0
0 0

0101101
*
Ve
1.00000454747351e-07
1213 430 -3
0 0

0101101
*
Ed
 1.00000454747351e-07 1 1 0
1  41 0 0 3
2  81 17 0 0 3
2  82 18 0 0 3
4 G1 17 0 18 0
0

0101000
+26 2 -25 2 *
Ed
 1e-07 1 1 0
1  42 0 0 392
2  83 17 6 0 392
2  84 4 7 0 392
0

0101000
+26 8 -33 8 *
Ed
 1e-07 1 1 0
1  43 0 0 392
2  85 17 11 0 392
2  86 5 7 0 392
0

0101000
+25 12 -32 12 *
Wi

0101000
+24 0 -31 0 -23 5 +22 10 *
Fa
0  1e-07 17 0

0101000
+21 0 *
Ve
1.00002415845302e-07
1194 448.999999999997 0
0 0

0101101
*
Ve
1.00002415845302e-07
1194 448.999999999997 -3
0 0

0101101
*
Ed
 1.00002415845302e-07 1 1 0
1  44 0 0 3
2  87 18 0 0 3
2  88 12 0 0 3
4 G1 18 0 12 0
0

0101000
+19 2 -18 2 *
Ed
 1e-07 1 1 0
1  45 0 3.15789373911887e-07 1.57079601100552
2  89 18 6 3.15789373911887e-07 1.57079601100552
2  90 4 7 3.15789373911887e-07 1.57079601100552
0

0101000
+26 8 -19 8 *
Ed
 1e-07 1 1 0
1  46 0 3.15789373911887e-07 1.57079601100552
2  91 18 11 3.15789373911887e-07 1.57079601100552
2  92 5 7 3.15789373911887e-07 1.57079601100552
0

0101000
+25 12 -18 12 *
Wi

0101000
+24 0 -17 0 -16 5 +15 10 *
Fa
0  1e-07 18 0

0101000
+14 0 *
Ed
 1e-07 1 1 0
1  47 0 0 1155.99560000001
2  93 12 6 0 1155.99560000001
2  94 4 7 0 1155.99560000001
0

0101000
+64 8 -19 8 *
Ed
 1e-07 1 1 0
1  48 0 0 1155.99560000001
2  95 12 11 0 1155.99560000001
2  96 5 7 0 1155.99560000001
0

0101000
+63 12 -18 12 *
Wi

0101000
+62 0 -17 0 -12 5 +11 10 *
Fa
0  1e-07 12 0

0101000
+10 0 *
Wi

0101100
-114 3 -107 3 -100 3 -93 3 -86 3 -79 3 -72 3 -68 3 *
Wi

0101100
+58 3 +51 3 +44 3 +37 3 +30 3 -23 3 +16 3 -12 3 *
Fa
0  1e-07 4 0

0101000
+8 0 +7 0 *
Wi

0101100
-113 3 -106 3 -99 3 -92 3 -85 3 -78 3 -71 3 -67 3 *
Wi

0101100
+57 3 +50 3 +43 3 +36 3 +29 3 -22 3 +15 3 -11 3 *
Fa
0  1e-07 5 0

0101000
+5 0 +4 0 *
Sh

0101000
-111 0 -104 0 -97 0 -90 0 -83 0 -76 0 -69 0 -65 0 +55 0 +48 0 
+41 0 +34 0 +27 0 -20 0 +13 0 -9 0 +6 13 -3 14 *
So

1100000
-2 0 *

+1 1 