DBRep_DrawableShape

CASCADE Topology V1, (c) Matra-Datavision
Locations 15
1
              1               0               0               0 
              0               1               0               0 
              0               0               1               0 
1
              1               0               0               0 
              0               1               0               0 
              0               0               1            -200 
2  1 -1 2 -1 0
1
              1               0               0               0 
              0               1               0               0 
              0               0               1               0 
2  4 -1 0
2  1 -1 2 -1 4 -1 0
1
              1               0               0               0 
              0               1               0               0 
              0               0               1             100 
2  4 1 7 1 0
2  7 -1 4 -1 0
2  1 -1 2 -1 7 -1 4 -1 0
1
              1               0               0               0 
              0               1               0            9050 
              0               0               1               0 
2  2 1 11 1 0
2  1 -1 11 -1 2 -1 0
2  1 -1 11 -1 2 -1 4 -1 0
2  1 -1 11 -1 2 -1 7 -1 4 -1 0
Curve2ds 48
1 0 0 0 -1 
1 1250 0 0 -1 
1 18500 0 0 -1 
1 0 0 0 -1 
1 0 0 1 0 
1 0 0 1 0 
1 0 -100 1 0 
1 0 0 1 0 
1 1250 0 0 -1 
1 0 -0 0 -1 
1 0 0 1 0 
1 18500 0 0 -1 
1 0 -100 1 0 
1 18500 0 0 -1 
1 18500 0 0 -1 
1 0 0 0 -1 
1 0 -0 1 0 
1 18500 -1250 -1 0 
1 0 -100 1 0 
1 18500 -1250 -1 0 
1 0 0 1 0 
1 0 -1250 0 1 
1 0 -100 1 0 
1 0 -1250 0 1 
1 0 0 0 -1 
1 1250 0 0 -1 
1 18500 0 0 -1 
1 0 0 0 -1 
1 0 0 1 0 
1 0 0 1 0 
1 0 -100 1 0 
1 0 0 1 0 
1 1250 0 0 -1 
1 0 -0 0 -1 
1 0 0 1 0 
1 18500 0 0 -1 
1 0 -100 1 0 
1 18500 0 0 -1 
1 18500 0 0 -1 
1 0 0 0 -1 
1 0 -0 1 0 
1 18500 -1250 -1 0 
1 0 -100 1 0 
1 18500 -1250 -1 0 
1 0 0 1 0 
1 0 -1250 0 1 
1 0 -100 1 0 
1 0 -1250 0 1 
Curves 24
1 0 0 0 0 0 1 
1 18500 0 0 0 0 1 
1 0 0 0 1 0 0 
1 0 0 0 1 0 0 
1 18500 -1250 0 0 0 1 
1 18500 0 0 0 -1 0 
1 18500 0 0 0 -1 0 
1 0 -1250 0 0 0 1 
1 18500 -1250 0 -1 0 0 
1 18500 -1250 0 -1 0 0 
1 0 -1250 0 0 1 0 
1 0 -1250 0 0 1 0 
1 0 0 0 0 0 1 
1 18500 0 0 0 0 1 
1 0 0 0 1 0 0 
1 0 0 0 1 0 0 
1 18500 -1250 0 0 0 1 
1 18500 0 0 0 -1 0 
1 18500 0 0 0 -1 0 
1 0 -1250 0 0 0 1 
1 18500 -1250 0 -1 0 0 
1 18500 -1250 0 -1 0 0 
1 0 -1250 0 0 1 0 
1 0 -1250 0 0 1 0 
Polygon3D 0
PolygonOnTriangulations 0
Surfaces 12
1 0 0 0 0 1 0 1 0 0 0 0 -1 
1 0 -1250 0 -1 0 0 0 1 0 0 0 -1 
1 18500 0 0 1 0 -0 0 -1 0 0 -0 -1 
1 0 0 0 -0 0 1 1 0 0 0 1 -0 
1 0 0 0 -0 0 1 1 0 0 0 1 -0 
1 18500 -1250 0 0 -1 0 -1 0 0 -0 -0 -1 
1 0 0 0 0 1 0 1 0 0 0 0 -1 
1 0 -1250 0 -1 0 0 0 1 0 0 0 -1 
1 18500 0 0 1 0 -0 0 -1 0 0 -0 -1 
1 0 0 0 -0 0 1 1 0 0 0 1 -0 
1 0 0 0 -0 0 1 1 0 0 0 1 -0 
1 18500 -1250 0 0 -1 0 -1 0 0 -0 -0 -1 
Triangulations 0

TShapes 69
Ve
1e-07
0 0 -200
0 0

0101101
*
Ve
1e-07
0 0 -100
0 0

0101101
*
Ed
 1e-07 1 1 0
1  1 0 0 100
2  1 1 0 0 100
2  2 2 0 0 100
0

0101000
+69 3 -68 3 *
Ve
1e-07
18500 0 -200
0 0

0101101
*
Ve
1e-07
18500 0 -100
0 0

0101101
*
Ed
 1e-07 1 1 0
1  2 0 0 100
2  3 1 0 0 100
2  4 3 0 0 100
0

0101000
+66 3 -65 3 *
Ed
 1e-07 1 1 0
1  3 0 0 18500
2  5 1 5 0 18500
2  6 4 5 0 18500
0

0101000
+69 6 -66 6 *
Ed
 1e-07 1 1 0
1  4 0 0 18500
2  7 1 9 0 18500
2  8 5 5 0 18500
0

0101000
+68 10 -65 10 *
Wi

0101000
+67 0 -64 0 -63 4 +62 8 *
Fa
0  1e-07 1 0

0101000
+61 0 *
Ve
1e-07
18500 -1250 -200
0 0

0101101
*
Ve
1e-07
18500 -1250 -100
0 0

0101101
*
Ed
 1e-07 1 1 0
1  5 0 0 100
2  9 3 0 0 100
2  10 6 0 0 100
0

0101000
+59 3 -58 3 *
Ed
 1e-07 1 1 0
1  6 0 0 1250
2  11 3 5 0 1250
2  12 4 5 0 1250
0

0101000
+66 6 -59 6 *
Ed
 1e-07 1 1 0
1  7 0 0 1250
2  13 3 9 0 1250
2  14 5 5 0 1250
0

0101000
+65 10 -58 10 *
Wi

0101000
+64 0 -57 0 -56 4 +55 8 *
Fa
0  1e-07 3 0

0101000
+54 0 *
Ve
1e-07
0 -1250 -200
0 0

0101101
*
Ve
1e-07
0 -1250 -100
0 0

0101101
*
Ed
 1e-07 1 1 0
1  8 0 0 100
2  15 6 0 0 100
2  16 2 0 0 100
0

0101000
+52 3 -51 3 *
Ed
 1e-07 1 1 0
1  9 0 0 18500
2  17 6 5 0 18500
2  18 4 5 0 18500
0

0101000
+59 6 -52 6 *
Ed
 1e-07 1 1 0
1  10 0 0 18500
2  19 6 9 0 18500
2  20 5 5 0 18500
0

0101000
+58 10 -51 10 *
Wi

0101000
+57 0 -50 0 -49 4 +48 8 *
Fa
0  1e-07 6 0

0101000
+47 0 *
Ed
 1e-07 1 1 0
1  11 0 0 1250
2  21 2 5 0 1250
2  22 4 5 0 1250
0

0101000
+52 6 -69 6 *
Ed
 1e-07 1 1 0
1  12 0 0 1250
2  23 2 9 0 1250
2  24 5 5 0 1250
0

0101000
+51 10 -68 10 *
Wi

0101000
+50 0 -67 0 -45 4 +44 8 *
Fa
0  1e-07 2 0

0101000
+43 0 *
Wi

0101100
+63 0 +56 0 +49 0 +45 0 *
Fa
0  1e-07 4 0

0101000
-41 4 *
Wi

0101100
+62 0 +55 0 +48 0 +44 0 *
Fa
0  1e-07 5 0

0101000
-39 4 *
Sh

0101000
-60 0 -53 0 -46 0 -42 0 +40 0 -38 7 *
So

0100000
-37 0 *
Ve
1e-07
0 9050 -200
0 0

0101101
*
Ve
1e-07
0 9050 -100
0 0

0101101
*
Ed
 1e-07 1 1 0
1  13 0 0 100
2  25 7 0 0 100
2  26 8 0 0 100
0

0101000
+35 13 -34 13 *
Ve
1e-07
18500 9050 -200
0 0

0101101
*
Ve
1e-07
18500 9050 -100
0 0

0101101
*
Ed
 1e-07 1 1 0
1  14 0 0 100
2  27 7 0 0 100
2  28 9 0 0 100
0

0101000
+32 13 -31 13 *
Ed
 1e-07 1 1 0
1  15 0 0 18500
2  29 7 5 0 18500
2  30 10 5 0 18500
0

0101000
+35 14 -32 14 *
Ed
 1e-07 1 1 0
1  16 0 0 18500
2  31 7 9 0 18500
2  32 11 5 0 18500
0

0101000
+34 15 -31 15 *
Wi

0101000
+33 0 -30 0 -29 4 +28 8 *
Fa
0  1e-07 7 0

0101000
+27 0 *
Ve
1e-07
18500 7800 -200
0 0

0101101
*
Ve
1e-07
18500 7800 -100
0 0

0101101
*
Ed
 1e-07 1 1 0
1  17 0 0 100
2  33 9 0 0 100
2  34 12 0 0 100
0

0101000
+25 13 -24 13 *
Ed
 1e-07 1 1 0
1  18 0 0 1250
2  35 9 5 0 1250
2  36 10 5 0 1250
0

0101000
+32 14 -25 14 *
Ed
 1e-07 1 1 0
1  19 0 0 1250
2  37 9 9 0 1250
2  38 11 5 0 1250
0

0101000
+31 15 -24 15 *
Wi

0101000
+30 0 -23 0 -22 4 +21 8 *
Fa
0  1e-07 9 0

0101000
+20 0 *
Ve
1e-07
0 7800 -200
0 0

0101101
*
Ve
1e-07
0 7800 -100
0 0

0101101
*
Ed
 1e-07 1 1 0
1  20 0 0 100
2  39 12 0 0 100
2  40 8 0 0 100
0

0101000
+18 13 -17 13 *
Ed
 1e-07 1 1 0
1  21 0 0 18500
2  41 12 5 0 18500
2  42 10 5 0 18500
0

0101000
+25 14 -18 14 *
Ed
 1e-07 1 1 0
1  22 0 0 18500
2  43 12 9 0 18500
2  44 11 5 0 18500
0

0101000
+24 15 -17 15 *
Wi

0101000
+23 0 -16 0 -15 4 +14 8 *
Fa
0  1e-07 12 0

0101000
+13 0 *
Ed
 1e-07 1 1 0
1  23 0 0 1250
2  45 8 5 0 1250
2  46 10 5 0 1250
0

0101000
+18 14 -35 14 *
Ed
 1e-07 1 1 0
1  24 0 0 1250
2  47 8 9 0 1250
2  48 11 5 0 1250
0

0101000
+17 15 -34 15 *
Wi

0101000
+16 0 -33 0 -11 4 +10 8 *
Fa
0  1e-07 8 0

0101000
+9 0 *
Wi

0101100
+29 0 +22 0 +15 0 +11 0 *
Fa
0  1e-07 10 0

0101000
-7 4 *
Wi

0101100
+28 0 +21 0 +14 0 +10 0 *
Fa
0  1e-07 11 0

0101000
-5 4 *
Sh

0101000
-26 0 -19 0 -12 0 -8 0 +6 0 -4 7 *
So

0100000
-3 0 *
Co

1100000
+36 2 +2 12 *

+1 1 