DBRep_DrawableShape

CASCADE Topology V1, (c) Matra-Datavision
Locations 4
1
              1               0              -0               0 
             -0 2.22044604925031e-16              -1               0 
              0               1 2.22044604925031e-16               0 
1
              1               0               0               0 
              0 -2.22044604925031e-16              -1               0 
              0               1 -2.22044604925031e-16               0 
2  1 1 2 -1 0
2  2 1 1 -1 0
Curve2ds 24
2 0 0 -1 -7.5129610021048739e-31 -7.5129610021048739e-31 1 21
1 0 0 1 0 
2 0 0 -1 1.0107072353030085e-16 1.0107072353030085e-16 1 34
1 0 0 1 0 
1 0 25 1 0 
2 0 0 1 0 -0 1 34
1 6.2831853071795862 0 0 1 
1 0 0 0 1 
2 0 0 1 0 -0 1 4
1 0 0 1 0 
1 0 25 1 0 
2 0 0 -1 -3.5498740734945531e-30 -3.5498740734945531e-30 1 4
1 6.2831853071795862 0 0 1 
1 0 0 0 1 
2 0 0 -1 9.9127055770103009e-16 9.9127055770103009e-16 1 14
1 0 5 1 0 
1 0 0 1 0 
2 0 0 1 -1.0573552615477813e-16 1.0573552615477813e-16 1 14
1 6.2831853071795862 0 0 1 
1 0 0 0 1 
2 0 0 1 -9.766849302736337e-31 9.766849302736337e-31 1 21
1 0 5 1 0 
1 6.2831853071795862 0 0 1 
1 0 0 0 1 
Curves 12
2 0 25 -5.5511151231257827e-15 -0 -1 2.2204460492503131e-16 1 -5.8695007828944396e-32 -2.6433881538694233e-16 2.6433881538694233e-16 2.2204460492503131e-16 1 21
2 0 25 -5.5511151231257827e-15 -0 -1 2.2204460492503131e-16 1 -3.6252798953171539e-32 -1.6326809185664085e-16 1.6326809185664085e-16 2.2204460492503131e-16 1 34
2 0 0 0 -0 -1 2.2204460492503131e-16 1 0 0 -0 2.2204460492503131e-16 1 34
1 34 25 0 0 -1 0 
2 0 0 0 -0 -1 2.2204460492503131e-16 1 0 0 -0 2.2204460492503131e-16 1 4
2 0 25 -5.5511151231257827e-15 -0 -1 2.2204460492503131e-16 1 -3.0814879110195809e-31 -1.3877787807814473e-15 1.3877787807814473e-15 2.2204460492503131e-16 1 4
1 4 0 0 0 1 0 
2 0 25 -5.5511151231257827e-15 -0 -1 2.2204460492503131e-16 1 -8.8042511743416599e-32 -3.9650822308041352e-16 3.9650822308041352e-16 2.2204460492503131e-16 1 14
2 0 20 -4.4408920985006262e-15 -0 -1 2.2204460492503131e-16 1 -7.0434009394733417e-32 -3.1720657846433143e-16 3.1720657846433143e-16 2.2204460492503131e-16 1 14
1 14 20 0 0 1 0 
2 0 20 -4.4408920985006262e-15 -0 -1 2.2204460492503131e-16 1 -4.6956006263155615e-32 -2.1147105230955431e-16 2.1147105230955431e-16 2.2204460492503131e-16 1 21
1 21 25 0 0 -1 0 
Polygon3D 0
PolygonOnTriangulations 0
Surfaces 8
1 0 25 -5.5511151231257827e-15 -0 -1 2.2204460492503131e-16 -1 5.8695007828944243e-32 2.6433881538694164e-16 2.6433881538694164e-16 2.2204460492503131e-16 1 
2 0 25 -5.5511151231257827e-15 -0 -1 2.2204460492503131e-16 1 -5.8695007828944243e-32 -2.6433881538694164e-16 2.6433881538694164e-16 2.2204460492503131e-16 1 21
2 0 25 -5.5511151231257827e-15 -0 -1 2.2204460492503131e-16 1 -3.6252798953171446e-32 -1.6326809185664043e-16 1.6326809185664043e-16 2.2204460492503131e-16 1 34
1 0 0 0 -0 -1 2.2204460492503131e-16 1 0 0 -0 2.2204460492503131e-16 1 
2 0 0 0 0 1 -2.2204460492503131e-16 1 0 0 -0 2.2204460492503131e-16 1 4
1 0 25 -5.5511151231257827e-15 -0 -1 2.2204460492503131e-16 -1 3.081487911019573e-31 1.3877787807814437e-15 1.3877787807814437e-15 2.2204460492503131e-16 1 
2 0 20 -4.4408920985006262e-15 0 1 -2.2204460492503131e-16 1 -7.04340093947331e-32 -3.1720657846433e-16 3.1720657846433e-16 2.2204460492503131e-16 1 14
1 0 20 -4.4408920985006262e-15 -0 -1 2.2204460492503131e-16 1 -4.6956006263155396e-32 -2.1147105230955332e-16 2.1147105230955332e-16 2.2204460492503131e-16 1 
Triangulations 0

TShapes 42
Ve
1e-07
21 25 -1.11022302462516e-14
0 0

0101101
*
Ed
 1e-07 1 1 0
1  1 0 0 6.28318530717959
2  1 1 0 0 6.28318530717959
2  2 2 0 0 6.28318530717959
0

0101100
+42 0 -42 0 *
Wi

0101000
+41 0 *
Ve
1e-07
34 25 -1.11022302462516e-14
0 0

0101101
*
Ed
 1e-07 1 1 0
1  2 0 0 6.28318530717959
2  3 1 0 0 6.28318530717959
2  4 3 0 0 6.28318530717959
0

0101100
+39 0 -39 0 *
Wi

0101000
-38 0 *
Fa
0  1e-07 1 0

0101000
+40 0 +37 0 *
Ve
1e-07
34 0 0
0 0

0101101
*
Ed
 1e-07 1 1 0
1  3 0 0 6.28318530717959
2  5 3 0 0 6.28318530717959
2  6 4 0 0 6.28318530717959
0

0101100
+35 0 -35 0 *
Ed
 1e-07 1 1 0
1  4 0 0 25
3  7 8CN 3 4 0 25
0

0101000
+39 4 -35 4 *
Wi

0101000
+38 0 -34 0 -33 3 +33 3 *
Fa
0  1e-07 3 0

0101000
+32 0 *
Wi

0101000
+34 0 *
Ve
1e-07
4 0 0
0 0

0101101
*
Ed
 1e-07 1 1 0
1  5 0 0 6.28318530717959
2  9 4 0 0 6.28318530717959
2  10 5 0 0 6.28318530717959
0

0101100
+29 0 -29 0 *
Wi

0101000
-28 0 *
Fa
0  1e-07 4 0

0101000
+30 0 +27 0 *
Ve
1e-07
4 25 -1.11022302462516e-14
0 0

0101101
*
Ed
 1e-07 1 1 0
1  6 0 0 6.28318530717959
2  11 5 0 0 6.28318530717959
2  12 6 0 0 6.28318530717959
0

0101100
+25 0 -25 0 *
Ed
 1e-07 1 1 0
1  7 0 0 25
3  13 14CN 5 4 0 25
0

0101000
+29 4 -25 4 *
Wi

0101000
+28 0 -24 0 -23 3 +23 3 *
Fa
0  1e-07 5 0

0101000
+22 0 *
Wi

0101000
+24 0 *
Ve
1e-07
14 25 -1.11022302462516e-14
0 0

0101101
*
Ed
 1e-07 1 1 0
1  8 0 0 6.28318530717959
2  15 6 0 0 6.28318530717959
2  16 7 0 0 6.28318530717959
0

0101100
+19 0 -19 0 *
Wi

0101000
-18 0 *
Fa
0  1e-07 6 0

0101000
+20 0 +17 0 *
Ve
1e-07
14 20 -8.88178419700127e-15
0 0

0101101
*
Ed
 1e-07 1 1 0
1  9 0 0 6.28318530717959
2  17 7 0 0 6.28318530717959
2  18 8 0 0 6.28318530717959
0

0101100
+15 0 -15 0 *
Ed
 1e-07 1 1 0
1  10 0 0 5
3  19 20CN 7 4 0 5
0

0101000
+15 4 -19 4 *
Wi

0101000
+14 0 -18 0 -13 3 +13 3 *
Fa
0  1e-07 7 0

0101000
+12 0 *
Ve
1e-07
21 20 -8.88178419700127e-15
0 0

0101101
*
Ed
 1e-07 1 1 0
1  11 0 0 6.28318530717959
2  21 8 0 0 6.28318530717959
2  22 2 0 0 6.28318530717959
0

0101100
+10 0 -10 0 *
Wi

0101000
+9 0 *
Wi

0101000
-14 0 *
Fa
0  1e-07 8 0

0101000
+8 0 +7 0 *
Ed
 1e-07 1 1 0
1  12 0 0 5
3  23 24CN 2 4 0 5
0

0101000
+42 4 -10 4 *
Wi

0101000
+41 0 -9 0 -5 3 +5 3 *
Fa
0  1e-07 2 0

0101000
+4 0 *
Sh

0101000
-36 0 -31 0 -26 0 -21 0 -16 0 +11 0 +6 0 +3 0 *
So

1100000
-2 0 *

+1 0 