DBRep_DrawableShape

CASCADE Topology V1, (c) Matra-Datavision
Locations 5
1
              1               0               0               0 
              0               1               0               0 
              0               0               1               0 
1
              1               0               0              45 
              0               1               0              45 
              0               0               1              -3 
2  2 -1 0
2  1 -1 2 -1 0
2  1 -1 0
Curve2ds 40
1 0 0 1 0 
1 0 0 1 0 
1 0.010000000000000675 0 0 -1 
1 0 0 0 1 
1 0 0 0 -1 
1 0 0 0 1 
1 0 -10 1 0 
1 0 0 1 0 
1 0 330 1 0 
1 0 0 1 0 
1 0.010000000000000675 0 0 1 
1 0 0 0 1 
1 0 0 0 1 
1 0 0 1 0 
7 0 0  8 9 2  -2.8926070536236263e-16 -9.9499897129662902e-19  0.19634954159936191 3.9073557027260968e-10  0.39269908219819172 0.087680944771136637  0.58904862279860026 0.26304208826059039  0.78539816339434765 0.51887508652089309  0.98174770399782574 0.840748609864022  1.1780972445956195 1.2085287337401951  1.3744467851955331 1.5992644122172686  1.5707963267948952 1.9900000000000002 
 3.1415926535897931 9 4.7123889803846897 9
7 0 0  8 9 2  -2.8926070536236263e-16 -9.9499897129662902e-19  0.19634954159936191 3.9073557027260968e-10  0.39269908219819172 0.087680944771136637  0.58904862279860026 0.26304208826059039  0.78539816339434765 0.51887508652089309  0.98174770399782574 0.840748609864022  1.1780972445956195 1.2085287337401951  1.3744467851955331 1.5992644122172686  1.5707963267948952 1.9900000000000002 
 3.1415926535897931 9 4.7123889803846897 9
1 1.5707963267948966 0 0 1 
1 1.990000000000002 0 0 1 
7 0 0  8 9 2  -6.6100298466181429e-17 10  0.19634954159936213 9.9999999996092637  0.39269908219887384 9.9123190552372762  0.58904862279405279 9.7369579117003013  0.78539816340162361 9.4811249135309481  0.98174770399282352 9.1592513900832273  1.1780972445964153 8.791471266269582  1.3744467851955331 8.4007355877827319  1.5707963267948952 8.0100000000000122 
 0 9 1.5707963267948966 9
7 0 0  8 9 2  -6.6100298466181429e-17 -9.9499905034770819e-19  0.19634954159936213 3.9073558579273047e-10  0.39269908219887384 0.087680944770454516  0.58904862279405279 0.26304208826149988  0.78539816340162361 0.51887508651816461  0.98174770399282352 0.84074860986629574  1.1780972445964153 1.208528733739513  1.3744467851955331 1.5992644122172686  1.5707963267948952 1.9900000000000002 
 0 9 1.5707963267948966 9
1 0 10 1 0 
1 0 0 0 1 
1 330 0 0 1 
1 0 0 0 -1 
1 0 330 1 0 
1 0 -10 1 0 
1 0.010000000000000675 0 0 1 
1 0 0 0 1 
1 0.010000000000000675 0 0 -1 
1 0 0 0 1 
1 1.5707963267948966 0 0 1 
1 0 1.990000000000002 1 0 
7 0 0  8 9 2  2.2443364902260106e-16 330  0.19634900243420003 329.99999999960926  0.39269800386728093 329.91231953649549  0.58904700530410992 329.73695935634896  0.78539600673138921 329.48112772172317  0.98174500817140142 329.15925580973271  1.1780940096042514 328.79147732522688  1.3744430110393968 328.40074309834978  1.5707920134735984 328.01000858350938 
 3.1415926535897931 9 4.7123846670633913 9
7 0 0  8 9 2  2.244336453002883e-16 -9.9499945871349692e-19  0.19634900243420003 3.907345930331727e-10  0.39269800386796305 0.087680463235528805  0.58904700530092668 0.26304064367604951  0.78539600673548193 0.5188722764933118  0.98174500817003718 0.84074419065268557  1.1780940096050472 1.2085226743108706  1.3744430110394112 1.5992569016501941  1.5707920134736129 1.9899914164906143 
 3.1415926535897931 9 4.7123846670633913 9
1 0 8.009999999999998 1 0 
1 1.5707963267948966 0 0 1 
1 328.00999999999999 0 0 1 
1 1.5707963267948966 0 0 1 
7 0 0  8 9 2  2.244336488416553e-16 330  0.19634900243420006 329.99999999960926  0.39269800386773568 329.91231953649549  0.58904700530320042 329.73695935634896  0.7853960067332082 329.48112772172317  0.98174500817140142 329.15925580973271  1.1780940096042514 328.79147732522688  1.3744430110393968 328.40074309834978  1.5707920134735984 328.01000858350938 
 0 9 1.5707920134735982 9
7 0 0  8 9 2  2.2443364511934254e-16 10  0.19634900243420006 9.9999999996092654  0.39269800386864517 9.9123195367556036  0.58904700530229093 9.7369593563271337  0.78539600673730092 9.4811277234839508  0.98174500817003718 9.159255809358001  1.1780940096050472 8.7914773256779881  1.3744430110394112 8.4007430983498068  1.5707920134736129 8.0100085835093822 
 0 9 1.5707920134735982 9
Curves 20
1 0 0 0 0 0 1 
1 45 45 -2.9899999999999993 0 1 0 
1 0 0 0 -0 1 0 
1 0 10 0 0 0 1 
1 330 0 0 0 0 1 
1 45 45 -2.9899999999999993 1 0 0 
1 0 0 0 1 0 -0 
8 3.1415926535897931 4.7123889803846897
3 46.990000000000002 46.990000000000002 -2.9899999999999993 -0.70710678118654757 0.70710678118654757 0 0.70710678118654757 0.70710678118654757 0 0 0 -1 2.8142849891224593 1.99
1 46.990000000000002 45 -0.99999999999999933 0 1 0 
8 0 1.5707963267948966
3 46.990000000000002 53.009999999999998 -2.9899999999999993 0.70710678118654757 0.70710678118654757 0 -0.70710678118654757 0.70710678118654757 0 0 -0 1 2.8142849891224593 1.99
1 0 10 0 1 0 -0 
1 330 0 0 -0 1 0 
1 330 10 0 0 0 1 
1 45 55 -2.9899999999999993 1 0 0 
1 375 45 -2.9899999999999993 0 1 0 
1 45 46.990000000000002 -0.99999999999999933 1 0 0 
8 3.1415926535897931 4.7123846670633913
3 373.00999999999999 46.990000000000002 -2.9899999999999993 -0.70710678118654757 -0.70710678118654757 -0 -0.70710678118654757 0.70710678118654757 0 0 0 -1 2.8142849891224593 1.99
1 45 53.009999999999998 -0.99999999999999933 1 0 0 
1 373.00999999999999 45 -0.99999999999999933 0 1 0 
8 0 1.5707920134735982
3 373.00999999999999 53.009999999999998 -2.9899999999999993 0.70710678118654757 -0.70710678118654757 -0 0.70710678118654757 0.70710678118654757 0 0 -0 1 2.8142849891224593 1.99
Polygon3D 0
PolygonOnTriangulations 0
Surfaces 10
1 0 0 0 1 0 -0 0 0 1 0 -1 0 
1 0 0 0 -0 1 0 0 0 1 1 0 -0 
2 46.990000000000002 45 -2.9899999999999993 0 1 0 -1 0 0 0 -0 1 1.99
1 0 0 0 0 0 1 1 0 -0 -0 1 0 
1 0 10 0 -0 1 0 0 0 1 1 0 -0 
1 330 0 0 1 0 -0 0 0 1 0 -1 0 
2 45 46.990000000000002 -2.9899999999999993 1 0 0 0 -1 0 -0 -0 1 1.99
1 0 0 2 0 0 1 1 0 -0 -0 1 0 
2 45 53.009999999999998 -2.9899999999999993 1 0 0 -0 1 0 0 -0 1 1.99
2 373.00999999999999 45 -2.9899999999999993 0 1 0 1 0 -0 0 -0 1 1.99
Triangulations 0

TShapes 55
Ve
1e-07
45 45 -2.99
0 0

0101101
*
Ve
1e-07
45 45 -3
0 0

0101101
*
Ed
 1e-07 1 1 0
1  1 0 0 0.0100000000000007
2  1 1 0 0 0.0100000000000007
2  2 2 0 0 0.0100000000000007
0

0101000
-55 4 +54 4 *
Ve
1e-07
45 55 -2.99
0 0

0101101
*
Ed
 1e-07 1 1 0
1  2 0 -0 10
2  3 1 2 -0 10
2  4 3 0 -0 10
4 G1 1 2 3 0
0

0101000
+55 5 -52 5 *
Ve
1e-07
45 55 -3
0 0

0101101
*
Ed
 1e-07 1 1 0
1  3 0 0 10
2  5 1 0 0 10
2  6 4 0 0 10
0

0101000
-50 4 +54 4 *
Ed
 1e-07 1 1 0
1  4 0 0 0.0100000000000007
2  7 1 0 0 0.0100000000000007
2  8 5 0 0 0.0100000000000007
0

0101000
-52 4 +50 4 *
Wi

0101100
-53 2 -51 0 +49 2 +48 2 *
Fa
0  1e-07 1 0

0101000
+47 3 *
Ve
1e-07
375 45 -2.99
0 0

0101101
*
Ve
1e-07
375 45 -3
0 0

0101101
*
Ed
 1e-07 1 1 0
1  5 0 0 0.0100000000000007
2  9 2 0 0 0.0100000000000007
2  10 6 0 0 0.0100000000000007
0

0101000
-45 4 +44 4 *
Ed
 1e-07 1 1 0
1  6 0 0 330
2  11 2 2 0 330
2  12 7 0 0 330
4 G1 2 2 7 0
0

0101000
+55 5 -45 5 *
Ed
 1e-07 1 1 0
1  7 0 0 330
2  13 2 0 0 330
2  14 4 0 0 330
0

0101000
-44 4 +54 4 *
Wi

0101100
-43 2 +42 0 -41 2 +53 2 *
Fa
0  1e-07 2 0

0101000
+40 3 *
Ve
1e-07
46.99 46.99 -0.999999999999999
0 0

0101101
*
Ed
 1e-07 1 1 0
1  8 0 3.14159265358979 4.71238898038469
2  15 3 0 3.14159265358979 4.71238898038469
2  16 7 0 3.14159265358979 4.71238898038469
0

0101000
+55 5 -38 5 *
Ve
1e-07
46.99 53.01 -0.999999999999999
0 0

0101101
*
Ed
 1e-07 1 1 0
1  9 0 1.99 8.01
2  17 3 0 1.99 8.01
2  18 8 2 1.99 8.01
4 G1 3 0 8 2
0

0101000
+38 5 -36 5 *
Ed
 1e-07 1 1 0
1  10 0 0 1.5707963267949
2  19 3 0 0 1.5707963267949
2  20 9 0 0 1.5707963267949
0

0101000
+52 5 -36 5 *
Wi

0101100
+37 0 -51 0 +35 0 -34 0 *
Fa
0  1e-07 3 0

0101000
+33 0 *
Ve
1e-07
375 55 -3
0 0

0101101
*
Ed
 1e-07 1 1 0
1  11 0 0 330
2  21 4 0 0 330
2  22 5 0 0 330
0

0101000
-31 4 +50 4 *
Ed
 1e-07 1 1 0
1  12 0 0 10
2  23 4 0 0 10
2  24 6 0 0 10
0

0101000
-31 4 +44 4 *
Wi

0101000
-49 0 -30 0 +29 0 +41 0 *
Fa
0  1e-07 4 0

0101000
+28 0 *
Ve
1e-07
375 55 -2.99
0 0

0101101
*
Ed
 1e-07 1 1 0
1  13 0 0 0.0100000000000007
2  25 5 0 0 0.0100000000000007
2  26 6 0 0 0.0100000000000007
0

0101000
-26 4 +31 4 *
Ed
 1e-07 1 1 0
1  14 0 0 330
2  27 5 2 0 330
2  28 9 0 0 330
4 G1 5 2 9 0
0

0101000
+52 5 -26 5 *
Wi

0101100
-25 2 +24 0 -30 2 +48 2 *
Fa
0  1e-07 5 0

0101000
+23 3 *
Ed
 1e-07 1 1 0
1  15 0 -0 10
2  29 6 2 -0 10
2  30 10 0 -0 10
4 G1 6 2 10 0
0

0101000
+45 5 -26 5 *
Wi

0101100
-43 2 -21 0 +29 2 +25 2 *
Fa
0  1e-07 6 0

0101000
+20 3 *
Ve
1.82083730832952e-05
373.01 46.99 -0.999999999999999
0 0

0101101
*
Ed
 1e-07 1 1 0
1  16 0 1.99 328.01
2  31 7 0 1.99 328.01
2  32 8 2 1.99 328.01
4 G1 7 0 8 2
0

0101000
+38 5 -18 5 *
Ed
 1e-07 1 1 0
1  17 0 3.14159265358979 4.71238466706339
2  33 7 0 3.14159265358979 4.71238466706339
2  34 10 0 3.14159265358979 4.71238466706339
0

0101000
+45 5 -18 5 *
Wi

0101100
+37 0 -42 0 +17 0 -16 0 *
Fa
0  1e-07 7 0

0101000
+15 0 *
Ve
1.82083730757588e-05
373.01 53.01 -0.999999999999999
0 0

0101101
*
Ed
 1e-07 1 1 0
1  18 0 1.99 328.01
2  35 8 2 1.99 328.01
2  36 9 0 1.99 328.01
4 G1 8 2 9 0
0

0101000
+36 5 -13 5 *
Ed
 1e-07 1 1 0
1  19 0 1.99 8.01
2  37 8 2 1.99 8.01
2  38 10 0 1.99 8.01
4 G1 8 2 10 0
0

0101000
+18 5 -13 5 *
Wi

0101100
-35 0 +17 0 -12 0 +11 0 *
Fa
0  1e-07 8 0

0101000
+10 3 *
Ed
 1e-07 1 1 0
1  20 0 0 1.5707920134736
2  39 9 0 0 1.5707920134736
2  40 10 0 0 1.5707920134736
0

0101000
+26 5 -13 5 *
Wi

0101100
+34 0 -24 0 +12 0 -8 0 *
Fa
0  1e-07 9 0

0101000
+7 0 *
Wi

0101100
+16 0 -21 0 +11 0 -8 0 *
Fa
0  1e-07 10 0

0101000
+5 0 *
Sh

0101100
-46 2 -39 2 +32 0 -27 2 +22 2 +19 2 -14 0 +9 2 +6 0 -4 0 
*
So

0100000
+3 0 *
Co

0100000
+2 0 *

+1 1 