DBRep_DrawableShape

CASCADE Topology V1, (c) Matra-Datavision
Locations 10
1
              0 4.44089209850063e-16              -1 -2.75446332409501e-14 
              1               0               0 -1.01854145214547e-45 
              0              -1 -4.44089209850063e-16 -9.17420580868748e-30 
1
              0 1.11022302462516e-16               1               0 
              1               0 1.11022302462516e-16               0 
1.11022302462516e-16               1               0               0 
2  1 1 2 -1 0
2  2 1 1 -1 0
2  1 -1 0
1
              1               0               0 -6.26158343519178e-31 
              0               1               0 -7.04991620636974e-15 
              0               0               1           -12.7 
2  1 1 2 -1 6 1 0
2  6 -1 2 1 1 -1 0
2  2 -1 0
2  2 -1 6 1 0
Curve2ds 24
1 0 0 -1.1102230246251573e-16 -1 
1 82.699999999999989 0 1.1102230246251575e-16 -1 
1 18 -3.944304526105059e-31 -1.1102230246251573e-16 -1 
1 0 0 -1.1102230246251575e-16 -1 
1 0 0 1 0 
1 0 0 -1.1102230246251562e-16 -1 
1 -1.4099832412739491e-15 -12.699999999999999 1 0 
1 0 0 -1.1102230246251562e-16 -1 
1 82.699999999999989 0 -1.1102230246251575e-16 -1 
1 0 0 1.1102230246251573e-16 -1 
1 0 0 1 0 
1 -1.9984014443252822e-15 -18 -1 -1.1102230246251562e-16 
1 -1.4654943925052069e-15 -12.699999999999999 1 0 
1 -1.9984014443252822e-15 -18 -1 -1.1102230246251562e-16 
1 17.999999999999993 -3.944304526105059e-31 1.1102230246251573e-16 -1 
1 0 0 1.1102230246251575e-16 -1 
1 0 0 1 0 
1 -82.699999999999989 -18.000000000000007 1.1102230246251562e-16 1 
1 1.4099832412739493e-15 -12.700000000000001 1 0 
1 -82.699999999999989 -18.000000000000007 1.1102230246251562e-16 1 
1 0 0 1 0 
1 -82.699999999999989 -1.4210854715201999e-14 1 1.1102230246251562e-16 
1 1.4654943925052062e-15 -12.700000000000001 1 0 
1 -82.699999999999989 -1.4210854715201999e-14 1 1.1102230246251562e-16 
Curves 12
1 -41.350000000000001 -41.349999999999994 -1.3772316620475056e-14 -4.9303806576313249e-32 -5.5511151231257837e-16 -1 
1 -23.350000000000001 -41.349999999999994 -1.1773915176149774e-14 -4.9303806576313249e-32 -5.5511151231257837e-16 -1 
1 -41.350000000000001 41.350000000000001 0 1 0 0 
1 -41.350000000000001 41.350000000000001 0 1 0 0 
1 -23.349999999999994 41.349999999999994 -4.8500092830749947e-14 -4.9303806576313249e-32 -5.5511151231257837e-16 -1 
1 -23.350000000000001 41.350000000000001 0 0 -1 0 
1 -23.350000000000001 41.350000000000001 0 0 -1 0 
1 -41.349999999999987 41.349999999999994 -5.0498494275075229e-14 -4.9303806576313249e-32 -5.5511151231257837e-16 -1 
1 -23.350000000000001 -41.350000000000001 0 -1 0 0 
1 -23.350000000000001 -41.350000000000001 0 -1 0 0 
1 -41.350000000000001 -41.350000000000001 0 0 1 0 
1 -41.350000000000001 -41.350000000000001 0 0 1 0 
Polygon3D 0
PolygonOnTriangulations 0
Surfaces 6
1 -41.350000000000001 -41.349999999999994 -1.3772316620475056e-14 -6.1629758220391569e-32 -1 5.5511151231257837e-16 1 0 1.1102230246251568e-16 -1.1102230246251568e-16 5.5511151231257837e-16 1 
1 -41.349999999999987 41.349999999999994 -5.0498494275075229e-14 -1 1.1102230246251568e-16 -1.232595164407832e-32 -1.1102230246251568e-16 -1 4.4408920985006262e-16 3.6977854932234928e-32 4.4408920985006262e-16 1 
1 -23.350000000000001 -41.349999999999994 -1.1773915176149774e-14 1 -1.1102230246251568e-16 1.232595164407832e-32 1.1102230246251568e-16 1 -4.4408920985006262e-16 3.6977854932234928e-32 4.4408920985006262e-16 1 
1 -9.1815444136500339e-15 -41.350000000000001 -41.350000000000001 -1 0 -4.4408920985006257e-16 4.4408920985006257e-16 0 -1 0 -1 -0 
1 -9.1815444136500339e-15 -41.350000000000001 -41.350000000000001 -1 0 -4.4408920985006257e-16 4.4408920985006257e-16 0 -1 0 -1 -0 
1 -23.349999999999994 41.349999999999994 -4.8500092830749947e-14 6.1629758220391569e-32 1 -5.5511151231257837e-16 -1 0 -1.1102230246251568e-16 -1.1102230246251568e-16 5.5511151231257837e-16 1 
Triangulations 0

TShapes 34
Ve
1e-07
-41.35 -41.35 -1.37723166204751e-14
0 0

0101101
*
Ve
1e-07
-41.35 -41.35 -12.7
0 0

0101101
*
Ed
 1e-07 1 1 0
1  1 0 0 12.7
2  1 1 0 0 12.7
2  2 2 0 0 12.7
0

0101000
+34 0 -33 0 *
Ve
1e-07
-23.35 -41.35 -1.17739151761498e-14
0 0

0101101
*
Ve
1e-07
-23.35 -41.35 -12.7
0 0

0101101
*
Ed
 1e-07 1 1 0
1  2 0 0 12.7
2  3 1 0 0 12.7
2  4 3 0 0 12.7
0

0101000
+31 0 -30 0 *
Ed
 1e-07 1 1 0
1  3 0 0 18
2  5 1 4 0 18
2  6 4 5 0 18
0

0101000
+34 4 -31 4 *
Ed
 1e-07 1 1 0
1  4 0 0 18
2  7 1 8 0 18
2  8 5 5 0 18
0

0101000
+33 8 -30 8 *
Wi

0101000
+32 0 -29 0 -28 3 +27 7 *
Fa
0  1e-07 1 0

0101000
+26 0 *
Ve
1e-07
-23.35 41.35 -4.85000928307499e-14
0 0

0101101
*
Ve
1e-07
-23.35 41.35 -12.7
0 0

0101101
*
Ed
 1e-07 1 1 0
1  5 0 0 12.7
2  9 3 0 0 12.7
2  10 6 0 0 12.7
0

0101000
+24 0 -23 0 *
Ed
 1e-07 1 1 0
1  6 0 0 82.7
2  11 3 4 0 82.7
2  12 4 5 0 82.7
0

0101000
+31 4 -24 4 *
Ed
 1e-07 1 1 0
1  7 0 0 82.7
2  13 3 8 0 82.7
2  14 5 5 0 82.7
0

0101000
+30 8 -23 8 *
Wi

0101000
+29 0 -22 0 -21 3 +20 7 *
Fa
0  1e-07 3 0

0101000
+19 0 *
Ve
1e-07
-41.35 41.35 -5.04984942750752e-14
0 0

0101101
*
Ve
1e-07
-41.35 41.35 -12.7
0 0

0101101
*
Ed
 1e-07 1 1 0
1  8 0 0 12.7
2  15 6 0 0 12.7
2  16 2 0 0 12.7
0

0101000
+17 0 -16 0 *
Ed
 1e-07 1 1 0
1  9 0 0 18
2  17 6 4 0 18
2  18 4 5 0 18
0

0101000
+24 4 -17 4 *
Ed
 1e-07 1 1 0
1  10 0 0 18
2  19 6 8 0 18
2  20 5 5 0 18
0

0101000
+23 8 -16 8 *
Wi

0101000
+22 0 -15 0 -14 3 +13 7 *
Fa
0  1e-07 6 0

0101000
+12 0 *
Ed
 1e-07 1 1 0
1  11 0 0 82.7
2  21 2 4 0 82.7
2  22 4 5 0 82.7
0

0101000
+17 4 -34 4 *
Ed
 1e-07 1 1 0
1  12 0 0 82.7
2  23 2 8 0 82.7
2  24 5 5 0 82.7
0

0101000
+16 8 -33 8 *
Wi

0101000
+15 0 -32 0 -10 3 +9 7 *
Fa
0  1e-07 2 0

0101000
+8 0 *
Wi

0101100
+28 0 +21 0 +14 0 +10 0 *
Fa
0  1e-07 4 0

0101000
-6 1 *
Wi

0101100
+27 0 +20 0 +13 0 +9 0 *
Fa
0  1e-07 5 0

0101000
-4 1 *
Sh

0101000
-25 0 -18 0 -11 0 -7 0 +5 9 -3 10 *
So

1100000
-2 0 *

+1 0 