DBRep_DrawableShape

CASCADE Topology V1, (c) Matra-Datavision
Locations 14
1
              1               0              -0               0 
             -0 4.44089209850063e-16              -1               0 
              0               1 4.44089209850063e-16               0 
2  1 -1 0
1
              1               0              -0               0 
             -0 4.44089209850063e-16              -1               0 
              0               1 4.44089209850063e-16               0 
1
              1               0               0               0 
              0 1.11022302462516e-16              -1               0 
              0               1 1.11022302462516e-16               0 
2  3 1 4 -1 0
2  4 1 3 -1 0
2  3 -1 0
2  1 -1 4 1 3 -1 0
1
              1               0               0               0 
              0               1               0 -2.1094237467878e-13 
              0               0               1            -950 
2  3 1 4 -1 9 1 0
2  9 -1 4 1 3 -1 0
2  1 -1 9 -1 4 1 3 -1 0
2  4 -1 0
2  4 -1 9 1 0
Curve2ds 24
1 0 0 0 -1 
1 549.99999999999977 0 -1.1102230246251565e-16 -1 
1 100.00000000000003 0 0 -1 
1 0 0 1.1102230246251565e-16 -1 
1 0 0 1 0 
1 0 0 0 1 
1 0 -949.99999999999966 1 0 
1 0 0 0 1 
1 549.99999999999977 0 1.1102230246251565e-16 -1 
1 1.6887190590729344e-07 0 0 -1 
1 0 0 1 0 
1 0 100.00000000000001 1 0 
1 1.0547118733938987e-13 -949.99999999999966 1 0 
1 0 100.00000000000001 1 0 
1 0 0 -1.1102230246251565e-16 -1 
1 3.1415924847178873 0 0 -1 
1 -1.1368683772161603e-13 3.7865323450608589e-29 1 0 
1 549.99999999999989 0 -1 0 
1 -1.6986412276764885e-13 -949.99999999999966 1 0 
1 549.99999999999989 0 -1 0 
1 0 0 1 0 
2 549.99999155640455 50.000000000000007 0 1 1 -0 49.999999999999993
1 0 -949.99999999999977 1 0 
2 549.99999155640455 50.000000000000007 0 1 1 -0 49.999999999999993
Curves 12
1 0 0 0 0 -2.2204460492503141e-16 -1 
1 100.00000000000001 0 0 0 -2.2204460492503141e-16 -1 
1 0 0 0 1 0 0 
1 0 0 0 1 0 0 
1 99.999999999999659 549.99999999999989 -1.8318679906315083e-13 0 -2.2204460492503141e-16 -1 
1 100 0 0 0 1 0 
1 100 0 0 0 1 0 
1 3.5527136788005014e-13 549.99999999999989 -1.8318679906315083e-13 0 -2.2204460492503141e-16 -1 
1 0 550 0 0 -1 0 
1 0 550 0 0 -1 0 
2 50 549.99999155640467 0 0 0 1 1 0 -0 -0 1 0 50
2 50 549.99999155640467 0 0 0 1 1 0 -0 -0 1 0 50
Polygon3D 0
PolygonOnTriangulations 0
Surfaces 6
1 0 0 0 0 -1 2.2204460492503141e-16 1 0 0 -0 2.2204460492503141e-16 1 
1 0 549.99999999999989 -1.8318679906315085e-13 -1 -0 0 0 -1 3.3306690738754706e-16 0 3.3306690738754706e-16 1 
1 100.00000000000001 0 0 1 0 0 0 1 -3.3306690738754706e-16 -0 3.3306690738754706e-16 1 
1 0 0 0 0 1 -4.4408920985006271e-16 0 4.4408920985006271e-16 1 1 -0 0 
1 0 0 0 0 1 -4.4408920985006271e-16 0 4.4408920985006271e-16 1 1 -0 0 
2 50.000000000000007 549.99999155640455 -1.8318679625086867e-13 -0 3.3306690738754706e-16 1 1 0 0 0 1 -3.3306690738754706e-16 49.999999999999993
Triangulations 0

TShapes 34
Ve
1e-07
0 0 0
0 0

0101101
*
Ve
1e-07
0 950 -6.32827124036339e-13
0 0

0101101
*
Ed
 1e-07 1 1 0
1  1 0 0 950
2  1 1 0 0 950
2  2 2 0 0 950
0

0101000
+34 2 -33 2 *
Ve
1e-07
100 0 0
0 0

0101101
*
Ve
1e-07
100 950 -6.32827124036339e-13
0 0

0101101
*
Ed
 1e-07 1 1 0
1  2 0 0 950
2  3 1 0 0 950
2  4 3 0 0 950
0

0101000
+31 2 -30 2 *
Ed
 1e-07 1 1 0
1  3 0 0 100
2  5 1 6 0 100
2  6 4 7 0 100
0

0101000
+34 8 -31 8 *
Ed
 1e-07 1 1 0
1  4 0 0 100
2  7 1 11 0 100
2  8 5 7 0 100
0

0101000
+33 12 -30 12 *
Wi

0101000
+32 0 -29 0 -28 5 +27 10 *
Fa
0  1e-07 1 0

0101000
+26 0 *
Ve
5.00001624015424e-07
99.9999999999997 4.27435864480685e-13 550
0 0

0101101
*
Ve
5.00001624015424e-07
99.9999999999997 950 549.999999999999
0 0

0101101
*
Ed
 1.00000355271368e-07 1 1 0
1  5 0 0 950
2  9 3 0 0 950
2  10 6 0 0 950
4 G1 3 0 6 0
0

0101000
+24 2 -23 2 *
Ed
 1e-07 1 1 0
1  6 0 0 550
2  11 3 6 0 550
2  12 4 7 0 550
0

0101000
+31 8 -24 8 *
Ed
 1e-07 1 1 0
1  7 0 0 550
2  13 3 11 0 550
2  14 5 7 0 550
0

0101000
+30 12 -23 12 *
Wi

0101000
+29 0 -22 0 -21 5 +20 10 *
Fa
0  1e-07 3 0

0101000
+19 0 *
Ve
1.00000355271368e-07
3.5527136788005e-13 4.27435864480685e-13 550
0 0

0101101
*
Ve
1.00000355271368e-07
3.5527136788005e-13 950 549.999999999999
0 0

0101101
*
Ed
 1.00000355271368e-07 1 1 0
1  8 0 0 950
2  15 2 0 0 950
2  16 6 0 0 950
4 G1 2 0 6 0
0

0101000
+17 2 -16 2 *
Ed
 1e-07 1 1 0
1  9 0 0 550
2  17 2 6 0 550
2  18 4 7 0 550
0

0101000
+17 8 -34 8 *
Ed
 1e-07 1 1 0
1  10 0 0 550
2  19 2 11 0 550
2  20 5 7 0 550
0

0101000
+16 12 -33 12 *
Wi

0101000
+15 0 -32 0 -14 5 +13 10 *
Fa
0  1e-07 2 0

0101000
+12 0 *
Ed
 1e-07 1 1 0
1  11 0 1.68871905907293e-07 3.14159248471789
2  21 6 6 1.68871905907293e-07 3.14159248471789
2  22 4 7 1.68871905907293e-07 3.14159248471789
0

0101000
+24 8 -17 8 *
Ed
 1e-07 1 1 0
1  12 0 1.68871905907293e-07 3.14159248471789
2  23 6 11 1.68871905907293e-07 3.14159248471789
2  24 5 7 1.68871905907293e-07 3.14159248471789
0

0101000
+23 12 -16 12 *
Wi

0101000
+22 0 -15 0 -10 5 +9 10 *
Fa
0  1e-07 6 0

0101000
+8 0 *
Wi

0101100
+28 0 +21 0 +14 0 +10 0 *
Fa
0  1e-07 4 0

0101000
-6 3 *
Wi

0101100
+27 0 +20 0 +13 0 +9 0 *
Fa
0  1e-07 5 0

0101000
-4 3 *
Sh

0101000
-25 0 -18 0 -11 0 -7 0 +5 13 -3 14 *
So

1100000
-2 0 *

+1 1 