DBRep_DrawableShape

CASCADE Topology V1, (c) Matra-Datavision
Locations 40
1
              1               0               0               0 
              0              -1               0               0 
              0               0              -1               0 
1
              1               0               0               0 
              0               1               0               0 
              0               0               1               0 
1
              1               0               0               0 
              0              -1 1.22464679914735e-16               0 
              0 -1.22464679914735e-16              -1               0 
1
              1               0               0               0 
              0              -1               0               0 
              0               0              -1               0 
1
              1               0               0               0 
              0              -1 -1.22464679914735e-16               0 
              0 1.22464679914735e-16              -1               0 
2  3 -1 4 1 5 -1 0
2  2 -1 0
1
              1              -0               0               0 
              0              -1               0               0 
             -0               0              -1               0 
2  8 1 3 -1 4 1 5 -1 2 1 0
2  8 -1 0
2  5 1 4 -1 3 1 8 -1 0
2  1 -1 2 -1 5 1 4 -1 3 1 8 -1 0
2  3 -1 4 1 5 -1 2 1 0
2  1 -1 0
2  3 1 8 -1 0
1
              1               0               0              -0 
              0               1               0             -10 
              0               0               1 9.9579925010296e-16 
2  5 -1 16 1 2 1 0
2  5 -1 16 1 0
2  1 -1 2 -1 0
2  4 1 5 -1 2 1 0
2  5 1 4 -1 0
2  1 -1 2 -1 5 1 4 -1 0
1
             -1               0               0              -0 
             -0 -2.22044604925031e-16              -1             -20 
              0              -1 2.22044604925031e-16 2.44929359829471e-15 
2  23 1 5 -1 2 1 0
2  5 1 23 -1 0
2  1 -1 2 -1 5 1 23 -1 0
1
              1               0               0               0 
              0               1               0 1.83697019872103e-15 
              0               0               1              15 
2  8 1 3 -1 27 1 4 1 5 -1 2 1 0
2  5 1 4 -1 27 -1 3 1 8 -1 0
2  1 -1 2 -1 5 1 4 -1 27 -1 3 1 8 -1 0
2  8 1 3 -1 0
2  8 1 3 -1 27 1 0
2  27 -1 3 1 8 -1 0
2  23 1 5 -1 16 1 2 1 0
2  23 -1 0
2  16 -1 5 1 23 -1 0
2  1 -1 2 -1 16 -1 5 1 23 -1 0
2  3 -1 27 1 4 1 5 -1 2 1 0
2  23 1 5 -1 0
2  23 1 5 -1 16 1 0
Curve2ds 64
1 0 0 -1 0 
1 0 0 0 1 
1 -16 10.000000000000002 0 -1 
1 0 0 0 1 
1 0 40 -0 -1 
1 0 0 1 0 
1 -30 10 1 5.3121946479529426e-33 
1 9.8499999999999979 -30 -6.2033311546931316e-49 -1 
1 -80 40 1 0 
1 0 0 1 0 
8 -30.365128141886956 10.365128141886956
1 -30 10 1 5.3121946479529426e-33 
8 -30.365128141886956 10.365128141886956
1 9.8499999999999979 -30 -6.2033311546931316e-49 -1 
1 -80 0 0 1 
1 0 0 1 0 
1 -30 10 -1 -5.3121946479529426e-33 
1 9.8499999999999979 -30 6.2033311546931316e-49 1 
1 0 0 -1 0 
1 0 0 0 1 
1 -64 0 0 1 
1 0 0 0 1 
2 -3.9999999999999996 16 1 0 -0 1 4
1 0 10.000000000000002 1 0 
1 -6.5081024680733474e-30 0 1 0 
1 40 0 0 -1 
1 5 20 -1 0 
1 0 0 1 0 
1 15 0 0 1 
1 0 0 -1 0 
2 -9.8626305774847172 40 0 -1 1 0 20.000003988286792
1 0 0 1 0 
1 -6.5081024680733474e-30 80 1 0 
1 0 0 0 -1 
1 -9.8499999999999996 60 1 0 
1 0 0 1 0 
2 -3.9999999999999996 64 -1 0 0 1 4
1 -3.1415926535897931 0 1 0 
1 0 0 1 0 
2 5.8499999999999979 -44 1 -6.2033311546931316e-49 6.2033311546931316e-49 1 4
1 1.5707963267948966 0 0 1 
1 9 -10.000000000000002 -9.9579925010296308e-17 1 
1 0 0 0 -1 
1 80 0 -0 -1 
1 1.7157434800794709e-15 -15 1 0 
1 0 40 -0 -1 
1 0 0 1 -9.1345170786061767e-50 
1 7.8055758929729044e-16 -10.000000000000002 1 0 
2 5.8499999999999979 4 -1 6.2033311546931316e-49 6.2033311546931316e-49 1 4
1 -3.1415926535897931 10 1 0 
2 -0.01263057748471752 -20 2.6965928715497553e-65 -1 1 2.6965928715497553e-65 20.000003988286792
1 0 -10 1 0 
1 14.849999999999998 -40 -1 9.1345170786061767e-50 
1 1.0762083040283464e-16 -10 1 0 
1 0 0 -0 -1 
1 40 0 0 -1 
1 -0 -15 1 0 
1 -80 40 1 0 
1 -1.7157434800794709e-15 -15 1 0 
1 -80 0 0 1 
1 1.5707963267948966 0 0 1 
1 5.8500000000000005 3.9898639947466563e-16 -9.9579925010296308e-17 -1 
1 14.850000000000607 -2.0739517923975449e-15 0 -1 
1 6.2838168359698043 0 0 -1 
1 3.140961124799575 0 0 -1 
1 -6.0396132539608516e-13 -3.552713678800441e-15 0 -1 
Curves 32
1 -40 20 0 1 0 0 
1 -24 9.9999999999999982 4.4408920985006262e-16 0 1 3.2047474274603605e-31 
1 -40 -20 0 0 1 0 
8 10 14
1 -10 10 1.6023737137301802e-30 -1 -5.3121946479529426e-33 -1.7024242132195888e-63 
1 40 -20 0 -1 0 0 
1 -10 10 1.6023737137301802e-30 -1 -5.3121946479529426e-33 -1.7024242132195888e-63 
1 40 20 0 0 -1 0 
8 30 34
1 -10 10 1.6023737137301802e-30 1 5.3121946479529426e-33 1.7024242132195888e-63 
1 -40 20 0 1 0 0 
1 24 20 4.4408920985006262e-16 -0 -1 -3.2047474274603605e-31 
8 3.2047474274603605e-31 1.5707963267948963
2 -24 20 -3.9999999999999996 0 1 3.2047474274603605e-31 0 -3.2047474274603605e-31 1 1 0 -0 4
1 -40 20 -2.4492935982947065e-15 0 1.2246467991473532e-16 1 
1 20 5 0 0 -1 0 
1 -40 20 0 1 0 0 
2 9.2211913722089139e-20 -9.8626305774847172 0 0 0 1 1 0 -0 -0 1 0 20.000003988286792
1 40 20 -2.4492935982947065e-15 0 1.2246467991473532e-16 1 
1 -20 -9.8499999999999996 0 0 1 0 
8 3.1415926535897931 4.7123889803846897
2 24 20 -3.9999999999999996 -0 -1 -3.2047474274603605e-31 0 3.2047474274603605e-31 -1 1 -0 0 4
8 4.4408920985006291e-16 1.5707963267948966
2 -24 9.9999999999999982 -3.9999999999999996 0 1 3.2047474274603605e-31 0 -3.2047474274603605e-31 1 1 0 -0 4
1 -20 9.9999999999999982 -3.9999999999999991 0 1 3.2047474274603605e-31 
1 -40 -20 2.4492935982947065e-15 0 1.2246467991473532e-16 1 
1 -40 -20 0 0 1 0 
1 -20 -9.8499999999999996 0 0 1 0 
8 3.1415926535897927 4.7123889803846897
2 24 9.9999999999999982 -3.9999999999999996 -0 -1 -3.2047474274603605e-31 0 3.2047474274603605e-31 -1 1 -0 0 4
2 9.2211913722089139e-20 -9.8626305774847172 0 0 0 1 1 0 -0 -0 1 0 20.000003988286792
1 20 5 0 0 -1 0 
1 40 -20 2.4492935982947065e-15 0 1.2246467991473532e-16 1 
1 40 -20 0 -1 0 0 
1 40 20 0 0 -1 0 
1 20 20 -3.9999999999999991 -0 -1 -3.2047474274603605e-31 
1 -20 19.999999999999996 -9.8500000000006072 -0 -1 9.9579925010295987e-17 
1 20 19.999999999999996 -9.8500000000006036 -0 -1 9.9579925010295987e-17 
Polygon3D 0
PolygonOnTriangulations 0
Surfaces 12
1 -40 -20 0 0 0 -1 -1 0 -0 0 1 0 
1 -40 20 6.4094948549207209e-30 0 1 0 0 -0 1 1 0 -0 
2 -24 9.9999999999999982 -3.9999999999999996 0 1 3.2047474274603605e-31 0 -3.2047474274603605e-31 1 1 0 -0 4
1 -40 -20 2.4492935982947065e-15 -1 0 0 0 1 -1.2246467991473532e-16 -0 -1.2246467991473532e-16 -1 
1 20 -19.999999999999996 9.8500000000000014 -5.3121946479529426e-33 -1 2.3923997837040415e-16 0 -2.3923997837040415e-16 -1 1 -5.3121946479529426e-33 1.2708893326756387e-48 
1 40 -20 2.4492935982947065e-15 0 -1 1.2246467991473532e-16 -1 0 0 -0 -1.2246467991473532e-16 -1 
1 40 20 -2.4492935982947065e-15 1 0 -0 0 -1 1.2246467991473532e-16 0 -1.2246467991473532e-16 -1 
2 24 20 -3.9999999999999996 -0 -1 -3.2047474274603605e-31 0 -3.2047474274603605e-31 1 -1 0 0 4
1 -20 20 5 1 0 0 0 -9.9579925010295987e-17 -1 0 1 -9.9579925010295987e-17 
1 -40 -20 0 0 0 -1 -1 0 -0 0 1 0 
2 -9.2211913722089139e-20 20 -9.8626305774847172 0 1 -9.9579925010295987e-17 -1 0 0 0 9.9579925010295987e-17 1 20.000003988286792
1 20 20 -9.8499999999999996 -1 0 0 0 9.9579925010295987e-17 1 0 1 -9.9579925010295987e-17 
Triangulations 0

TShapes 81
Ve
1e-07
-24 -20 -4.44089209850063e-16
0 0

0101101
*
Ve
1.00000001776357e-07
-40 -20 3.64848168664718e-30
0 0

0101101
*
Ed
 1e-07 1 1 0
1  1 0 0 16
2  1 1 10 0 16
2  2 2 11 0 16
0

0101000
-81 12 +80 12 *
Ve
0.0001
-24 -10 -4.44089209850063e-16
0 0

0101101
*
Ed
 1e-07 1 1 0
1  2 0 1.15012166457262e-15 10
2  3 1 13 1.15012166457262e-15 10
2  4 3 0 1.15012166457262e-15 10
4 G1 1 13 3 0
0

0101000
+78 14 -81 14 *
Ve
1.00000001776357e-07
-40 20 -3.64848168664718e-30
0 0

0101101
*
Ed
 1.00000001776357e-07 1 1 0
1  3 0 0 40
2  5 1 10 0 40
2  6 4 15 0 40
0

0101000
+76 12 -80 12 *
Ve
0.0001
-20 -10 0
0 0

0101101
*
Ed
 0.0001 1 1 0
1  4 0 10 14
2  7 1 13 10 14
2  8 5 17 10 14
0

0101000
+74 14 -78 14 *
Ve
1.00000001776357e-07
40 20 -3.64848168664718e-30
0 0

0101101
*
Ed
 1.00000001776357e-07 1 1 0
1  5 0 0 80
2  9 1 10 0 80
2  10 6 15 0 80
0

0101000
+72 12 -76 12 *
Ve
0.0001
20 -10 0
0 0

0101101
*
Ed
 1e-07 1 1 0
1  6 0 -30 10
2  11 1 6 -30 10
2  12 5 18 -30 10
0

0101000
+70 19 -74 19 *
Ve
1.00000001776357e-07
40 -20 3.64848168664718e-30
0 0

0101101
*
Ed
 1.00000001776357e-07 1 1 0
1  7 0 0 40
2  13 1 10 0 40
2  14 7 15 0 40
0

0101000
+68 12 -72 12 *
Ve
0.0001
24 -10 -4.44089209850059e-16
0 0

0101101
*
Ed
 0.0001 1 1 0
1  8 0 30 34
2  15 1 13 30 34
2  16 5 17 30 34
0

0101000
+70 14 -66 14 *
Ve
1e-07
24 -20 -4.44089209850063e-16
0 0

0101101
*
Ed
 1e-07 1 1 0
1  9 0 64 80
2  17 1 10 64 80
2  18 2 11 64 80
0

0101000
+64 12 -68 12 *
Ed
 1e-07 1 1 0
1  10 0 0 10
2  19 1 13 0 10
2  20 8 0 0 10
4 G1 1 13 8 0
0

0101000
+64 14 -66 14 *
Wi

0101100
-79 9 +77 0 -75 9 +73 0 -71 9 +69 2 -67 9 -65 0 -63 9 +62 0 
*
Fa
0  1e-07 1 6

0101000
+61 7 *
Ve
1e-07
-20 -20 4
0 0

0101101
*
Ed
 1e-07 1 1 0
1  11 0 3.20474742746036e-31 1.5707963267949
2  21 2 2 3.20474742746036e-31 1.5707963267949
2  22 3 0 3.20474742746036e-31 1.5707963267949
0

0101000
+81 14 -59 14 *
Ve
1.00000001776357e-07
-40 -20 -15
0 0

0101101
*
Ed
 1e-07 1 1 0
1  12 0 0 15
2  23 2 21 0 15
2  24 4 0 0 15
0

0101000
+80 22 -57 22 *
Ve
1.00000607514039e-07
-20 -20 9.85000000000061
0 0

0101101
*
Ed
 1e-07 1 1 0
1  13 0 9 14.85
2  25 2 25 9 14.85
2  26 9 25 9 14.85
0

0101000
+59 26 -55 26 *
Ve
1.00000001776357e-07
40 -20 -15
0 0

0101101
*
Ed
 1e-07 1 1 0
1  14 0 0 80
2  27 2 29 0 80
2  28 10 10 0 80
0

0101000
+57 30 -53 30 *
Ve
1.00000603961325e-07
20 -20 9.8500000000006
0 0

0101101
*
Ed
 1e-07 1 1 0
1  15 0 3.14096112479958 6.2838168359698
2  29 2 25 3.14096112479958 6.2838168359698
2  30 11 25 3.14096112479958 6.2838168359698
0

0101000
+51 26 -55 26 *
Ed
 1e-07 1 1 0
1  16 0 0 15
2  31 2 21 0 15
2  32 7 0 0 15
0

0101000
+68 22 -53 22 *
Ve
1e-07
20 -20 4
0 0

0101101
*
Ed
 1e-07 1 1 0
1  17 0 0 5.85
2  33 2 25 0 5.85
2  34 12 25 0 5.85
0

0101000
-48 26 +51 26 *
Ed
 1e-07 1 1 0
1  18 0 3.14159265358979 4.71238898038469
2  35 2 2 3.14159265358979 4.71238898038469
2  36 8 0 3.14159265358979 4.71238898038469
0

0101000
+64 14 -48 14 *
Wi

0101100
-79 9 -58 0 +56 20 -54 24 +52 28 +50 24 -49 20 -47 24 -63 9 +46 0 
*
Fa
0  1e-07 2 0

0101000
+45 7 *
Ve
1e-07
-20 -10 4
0 0

0101101
*
Ed
 1e-07 1 1 0
1  19 0 4.44089209850063e-16 1.5707963267949
2  37 3 0 4.44089209850063e-16 1.5707963267949
2  38 5 17 4.44089209850063e-16 1.5707963267949
0

0101000
+78 14 -43 14 *
Ed
 1e-07 1 1 0
1  20 0 1.97215226305253e-31 10
2  39 3 0 1.97215226305253e-31 10
2  40 9 2 1.97215226305253e-31 10
4 G1 3 0 9 2
0

0101000
+43 14 -59 14 *
Wi

0101100
+42 0 -77 0 +41 0 -58 0 *
Fa
0  1e-07 3 0

0101000
+40 0 *
Ve
1.00000001776357e-07
-40 20 -15
0 0

0101101
*
Ed
 1e-07 1 1 0
1  21 0 0 15
2  41 4 0 0 15
2  42 6 0 0 15
0

0101000
+76 22 -38 22 *
Ed
 1.00000001776357e-07 1 1 0
1  22 0 0 40
2  43 4 33 0 40
2  44 10 10 0 40
0

0101000
+38 30 -57 30 *
Wi

0101000
+37 0 -56 0 -75 31 +36 32 *
Fa
0  1e-07 4 0

0101000
+35 0 *
Ve
1e-07
20 -10 4
0 0

0101101
*
Ve
1.00000603961325e-07
20 -10 9.8500000000006
0 0

0101101
*
Ed
 1e-07 1 1 0
1  23 0 0 5.85
2  45 5 35 0 5.85
2  46 12 36 0 5.85
0

0101000
-33 37 +32 37 *
Ed
 1e-07 1 1 0
1  24 0 3.14159265358979 4.71238898038469
2  47 5 17 3.14159265358979 4.71238898038469
2  48 8 0 3.14159265358979 4.71238898038469
0

0101000
+66 14 -33 14 *
Ve
1.00000607514039e-07
-20 -10 9.85000000000061
0 0

0101101
*
Ed
 1e-07 1 1 0
1  25 0 3.14096112479958 6.2838168359698
2  49 5 35 3.14096112479958 6.2838168359698
2  50 11 36 3.14096112479958 6.2838168359698
0

0101000
+32 37 -29 37 *
Ed
 1e-07 1 1 0
1  26 0 9 14.85
2  51 5 35 9 14.85
2  52 9 36 9 14.85
0

0101000
+43 37 -29 37 *
Wi

0101100
-31 34 +30 0 +28 34 +65 0 -27 34 -69 2 -42 0 -73 0 *
Fa
0  1e-07 5 18

0101000
+26 7 *
Ve
1.00000001776357e-07
40 20 -15
0 0

0101101
*
Ed
 1e-07 1 1 0
1  27 0 0 15
2  53 6 0 0 15
2  54 7 0 0 15
0

0101000
+72 22 -24 22 *
Ed
 1.00000001776357e-07 1 1 0
1  28 0 0 80
2  55 6 33 0 80
2  56 10 10 0 80
0

0101000
+24 30 -38 30 *
Wi

0101000
+23 0 -37 0 -71 31 +22 32 *
Fa
0  1e-07 6 0

0101000
+21 0 *
Ed
 1.00000001776357e-07 1 1 0
1  29 0 0 40
2  57 7 33 0 40
2  58 10 10 0 40
0

0101000
+53 30 -24 30 *
Wi

0101000
+49 0 -23 0 -67 31 +19 32 *
Fa
0  1e-07 7 0

0101000
+18 0 *
Ed
 1e-07 1 1 0
1  30 0 3.98986399474666e-16 10
2  59 8 0 3.98986399474666e-16 10
2  60 12 2 3.98986399474666e-16 10
4 G1 8 0 12 2
0

0101000
+48 14 -33 14 *
Wi

0101100
+46 0 -62 0 +16 0 -30 0 *
Fa
0  1e-07 8 0

0101000
+15 0 *
Ed
 1.00000607514039e-07 1 1 0
1  31 0 0 10
2  61 9 0 0 10
2  62 11 0 0 10
4 G1 9 0 11 0
0

0101000
+55 19 -29 19 *
Wi

0101100
-54 24 -41 0 -13 2 +27 34 *
Fa
0  1e-07 9 0

0101000
+12 7 *
Wi

0101100
+52 0 +19 0 +22 0 +36 0 *
Fa
0  1e-07 10 0

0101000
-10 8 *
Ed
 1.00000603961325e-07 1 1 0
1  32 0 0 10
2  63 11 0 0 10
2  64 12 0 0 10
4 G1 11 0 12 0
0

0101000
+51 19 -32 19 *
Wi

0101000
+8 0 -13 0 -50 39 +28 40 *
Fa
0  1e-07 11 0

0101000
+7 0 *
Wi

0101100
-47 24 -16 0 +8 2 +31 34 *
Fa
0  1e-07 12 0

0101000
+5 7 *
Sh

0101100
-60 2 +44 2 -39 0 +34 20 -25 2 +20 20 +17 20 -14 0 -11 2 +9 38 
+6 2 -4 2 *
So

0100000
+3 0 *
Co

1100000
+2 0 *

+1 1 