DBRep_DrawableShape

CASCADE Topology V1, (c) Matra-Datavision
Locations 15
1
              1               0               0           -4300 
              0               1               0               0 
              0               0               1               0 
1
              1               0               0               0 
              0               1               0               0 
              0               0               1               0 
2  2 -1 0
2  1 -1 0
1
             -1               0               0              -0 
              0 1.77321265310004e-16               1            7800 
              0               1 -1.36717893950422e-16               0 
2  2 -1 5 -1 0
2  1 -1 5 -1 0
1
              1               0               0               0 
              0               1               0               1 
              0               0               1               0 
2  5 1 8 1 0
2  2 -1 8 -1 5 -1 0
2  1 -1 8 -1 5 -1 0
1
              1               0               0               0 
              0               1               0               1 
              0               0               1               0 
2  5 1 12 1 0
2  2 -1 12 -1 5 -1 0
2  1 -1 12 -1 5 -1 0
Curve2ds 48
8 0 1
7 0 0  1 2 2  0 0  0 -1 
 0 2 1 2
8 0 1
7 0 0  1 2 2  400 3.8991032624835498e-13  400 -0.99999999999961009 
 0 2 1 2
8 0 1
7 0 0  1 2 2  1500 0  1500 -1 
 0 2 1 2
8 0 1
7 0 0  1 2 2  -1.8873791418627661e-14 3.8991032624835498e-13  -1.9095836023552692e-14 -0.99999999999961009 
 0 2 1 2
8 0 1500
7 0 0  1 2 2  0 0  1500 0 
 0 2 1500 2
8 0 1500
7 0 0  1 2 2  0 0  0 -1500 
 0 2 1500 2
8 0 1500
7 0 0  1 2 2  0 -1  1500 -1 
 0 2 1500 2
8 0 1500
7 0 0  1 2 2  0 0  0 -1500 
 0 2 1500 2
8 0 1
7 0 0  1 2 2  1.8873791418627661e-14 3.1930014188219502e-13  1.9095836023552692e-14 -0.9999999999996807 
 0 2 1 2
8 0 1
7 0 0  1 2 2  1500 0  1500 -1 
 0 2 1 2
8 0 400
7 0 0  1 2 2  1.8873791418627661e-14 3.1930014188219502e-13  400 3.8991032624835498e-13 
 0 2 400 2
8 0 400
7 0 0  1 2 2  -400 0  0 0 
 0 2 400 2
8 0 400
7 0 0  1 2 2  1.9095836023552692e-14 -0.9999999999996807  400 -0.99999999999961009 
 0 2 400 2
8 0 400
7 0 0  1 2 2  -400 0  0 0 
 0 2 400 2
8 0 1
7 0 0  1 2 2  400 3.1930014188219502e-13  400 -0.9999999999996807 
 0 2 1 2
8 0 1
7 0 0  1 2 2  0 0  0 -1 
 0 2 1 2
8 0 400
7 0 0  1 2 2  -1.8873791418627661e-14 3.8991032624835498e-13  400 3.1930014188219502e-13 
 0 2 400 2
8 0 400
7 0 0  1 2 2  0 -1500  -400 -1500 
 0 2 400 2
8 0 400
7 0 0  1 2 2  -1.9095836023552692e-14 -0.99999999999961009  400 -0.9999999999996807 
 0 2 400 2
8 0 400
7 0 0  1 2 2  0 -1500  -400 -1500 
 0 2 400 2
8 0 1500
7 0 0  1 2 2  -400 -1500  -400 0 
 0 2 1500 2
8 0 1500
7 0 0  1 2 2  0 0  1500 0 
 0 2 1500 2
8 0 300
7 0 0  1 2 2  -350 -50  -50 -50 
 0 2 300 2
8 0 300
7 0 0  1 2 2  1.8873791418627661e-14 3.2818192607919627e-13  300 3.8102854205135372e-13 
 0 2 300 2
8 0 1400
7 0 0  1 2 2  -350 -1450  -350 -50 
 0 2 1400 2
8 0 1400
7 0 0  1 2 2  0 0  1400 0 
 0 2 1400 2
8 0 300
7 0 0  1 2 2  -50 -1450  -350 -1450 
 0 2 300 2
8 0 300
7 0 0  1 2 2  -1.8873791418627661e-14 3.8102854205135372e-13  300 3.2818192607919627e-13 
 0 2 300 2
8 0 1400
7 0 0  1 2 2  -50 -50  -50 -1450 
 0 2 1400 2
8 0 1400
7 0 0  1 2 2  0 0  1400 0 
 0 2 1400 2
8 0 1500
7 0 0  1 2 2  -400 -1500  -400 0 
 0 2 1500 2
8 0 1500
7 0 0  1 2 2  0 -1  1500 -1 
 0 2 1500 2
8 0 300
7 0 0  1 2 2  -350 -50  -50 -50 
 0 2 300 2
8 0 300
7 0 0  1 2 2  1.9095836023552692e-14 -0.99999999999967182  300 -0.99999999999961897 
 0 2 300 2
8 0 1400
7 0 0  1 2 2  -350 -1450  -350 -50 
 0 2 1400 2
8 0 1400
7 0 0  1 2 2  0 -1  1400 -1 
 0 2 1400 2
8 0 300
7 0 0  1 2 2  -50 -1450  -350 -1450 
 0 2 300 2
8 0 300
7 0 0  1 2 2  -1.9095836023552692e-14 -0.99999999999961897  300 -0.99999999999967182 
 0 2 300 2
8 0 1400
7 0 0  1 2 2  -50 -50  -50 -1450 
 0 2 1400 2
8 0 1400
7 0 0  1 2 2  0 -1  1400 -1 
 0 2 1400 2
8 0 1
7 0 0  1 2 2  1.8873791418627661e-14 3.2818192607919627e-13  1.9095836023552692e-14 -0.99999999999967182 
 0 2 1 2
8 0 1
7 0 0  1 2 2  1400 0  1400 -1 
 0 2 1 2
8 0 1
7 0 0  1 2 2  300 3.8102854205135372e-13  300 -0.99999999999961897 
 0 2 1 2
8 0 1
7 0 0  1 2 2  0 0  0 -1 
 0 2 1 2
8 0 1
7 0 0  1 2 2  0 0  0 -1 
 0 2 1 2
8 0 1
7 0 0  1 2 2  300 3.2818192607919627e-13  300 -0.99999999999967182 
 0 2 1 2
8 0 1
7 0 0  1 2 2  -1.8873791418627661e-14 3.8102854205135372e-13  -1.9095836023552692e-14 -0.99999999999961897 
 0 2 1 2
8 0 1
7 0 0  1 2 2  1400 0  1400 -1 
 0 2 1 2
Curves 24
8 0 1
7 0 0  1 2 2  6800 7800 2200  6800 7801 2200 
 0 2 1 2
8 0 1
7 0 0  1 2 2  5300 7800 2200  5300 7801 2200 
 0 2 1 2
8 0 1500
7 0 0  1 2 2  6800 7800 2200  5300 7800 2200 
 0 2 1500 2
8 0 1500
7 0 0  1 2 2  6800 7801 2200  5300 7801 2200 
 0 2 1500 2
8 0 1
7 0 0  1 2 2  6800 7800 1800  6800 7801 1800 
 0 2 1 2
8 0 400
7 0 0  1 2 2  6800 7800 1800  6800 7800 2200 
 0 2 400 2
8 0 400
7 0 0  1 2 2  6800 7801 1800  6800 7801 2200 
 0 2 400 2
8 0 1
7 0 0  1 2 2  5300 7800 1800  5300 7801 1800 
 0 2 1 2
8 0 400
7 0 0  1 2 2  5300 7800 2200  5300 7800 1800 
 0 2 400 2
8 0 400
7 0 0  1 2 2  5300 7801 2200  5300 7801 1800 
 0 2 400 2
8 0 1500
7 0 0  1 2 2  5300 7800 1800  6800 7800 1800 
 0 2 1500 2
8 0 300
7 0 0  1 2 2  6750 7800 1850  6750 7800 2150 
 0 2 300 2
8 0 1400
7 0 0  1 2 2  5350 7800 1850  6750 7800 1850 
 0 2 1400 2
8 0 300
7 0 0  1 2 2  5350 7800 2150  5350 7800 1850 
 0 2 300 2
8 0 1400
7 0 0  1 2 2  6750 7800 2150  5350 7800 2150 
 0 2 1400 2
8 0 1500
7 0 0  1 2 2  5300 7801 1800  6800 7801 1800 
 0 2 1500 2
8 0 300
7 0 0  1 2 2  6750 7801 1850  6750 7801 2150 
 0 2 300 2
8 0 1400
7 0 0  1 2 2  5350 7801 1850  6750 7801 1850 
 0 2 1400 2
8 0 300
7 0 0  1 2 2  5350 7801 2150  5350 7801 1850 
 0 2 300 2
8 0 1400
7 0 0  1 2 2  6750 7801 2150  5350 7801 2150 
 0 2 1400 2
8 0 1
7 0 0  1 2 2  6750 7800 1850  6750 7801 1850 
 0 2 1 2
8 0 1
7 0 0  1 2 2  6750 7800 2150  6750 7801 2150 
 0 2 1 2
8 0 1
7 0 0  1 2 2  5350 7800 1850  5350 7801 1850 
 0 2 1 2
8 0 1
7 0 0  1 2 2  5350 7800 2150  5350 7801 2150 
 0 2 1 2
Polygon3D 0
PolygonOnTriangulations 0
Surfaces 10
9 0 0 0 0 1 1 2 2 2 2 6799.9999999989996 7800.9999999989996 2200  6799.9999999989996 7800.0000000010004 2200  
5300.0000000010004 7800.9999999989996 2200  5300.0000000010004 7800.0000000010004 2200  

1.0000000000000001e-09 2
1499.999999999 2

-0.99999999900000003 2
-1.0000000000000001e-09 2

9 0 0 0 0 1 1 2 2 2 2 6800 7800.9999999989996 1800.000000001  6800 7800.0000000009995 1800.000000001  
6800 7800.9999999990005 2199.999999999  6800 7800.0000000010004 2199.999999999  

1.0000000000000001e-09 2
399.99999999900001 2

-0.99999999900000003 2
-9.9992907149387606e-10 2

9 0 0 0 0 1 1 2 2 2 2 5300 7800.9999999990005 2199.999999999  5300 7800.0000000010004 2199.999999999  
5300 7800.9999999989996 1800.000000001  5300 7800.0000000009995 1800.000000001  

9.9999982267873475e-10 2
399.99999999900001 2

-0.99999999900007086 2
-1.0000000000000001e-09 2

9 0 0 0 0 1 1 2 2 2 2 5300.0000000010004 7800 1800.000000001  6799.9999999989996 7800 1800.000000001  
5300.0000000010004 7800 2199.999999999  6799.9999999989996 7800 2199.999999999  

-399.99999999900001 2
-1.0000000000000001e-09 2

-1499.999999999 2
-1.0000000000000001e-09 2

9 0 0 0 0 1 1 2 2 2 2 5300.0000000010004 7801 1800.000000001  6799.9999999989996 7801 1800.000000001  
5300.0000000010004 7801 2199.999999999  6799.9999999989996 7801 2199.999999999  

-399.99999999900001 2
-1.0000000000000001e-09 2

-1499.999999999 2
-1.0000000000000001e-09 2

9 0 0 0 0 1 1 2 2 2 2 5300.0000000010004 7800.9999999989996 1800  5300.0000000010004 7800.0000000010004 1800  
6799.9999999989996 7800.9999999989996 1800  6799.9999999989996 7800.0000000010004 1800  

1.0000000000000001e-09 2
1499.999999999 2

-0.99999999900000003 2
-1.0000000000000001e-09 2

9 0 0 0 0 1 1 2 2 2 2 6750 7800.9999999989996 1850.000000001  6750 7800.0000000009995 1850.000000001  
6750 7800.9999999990005 2149.999999999  6750 7800.0000000010004 2149.999999999  

1.0000000000000001e-09 2
299.99999999900001 2

-0.99999999900000003 2
-9.9994680362040706e-10 2

9 0 0 0 0 1 1 2 2 2 2 5350.0000000010004 7800.9999999989996 1850  5350.0000000010004 7800.0000000010004 1850  
6749.9999999989996 7800.9999999989996 1850  6749.9999999989996 7800.0000000010004 1850  

1.0000000000000001e-09 2
1399.999999999 2

-0.99999999900000003 2
-1.0000000000000001e-09 2

9 0 0 0 0 1 1 2 2 2 2 5350 7800.9999999990005 2149.999999999  5350 7800.0000000010004 2149.999999999  
5350 7800.9999999989996 1850.000000001  5350 7800.0000000009995 1850.000000001  

9.9999982267873475e-10 2
299.99999999900001 2

-0.99999999900005332 2
-1.0000000000000001e-09 2

9 0 0 0 0 1 1 2 2 2 2 6749.9999999989996 7800.9999999989996 2150  6749.9999999989996 7800.0000000010004 2150  
5350.0000000010004 7800.9999999989996 2150  5350.0000000010004 7800.0000000010004 2150  

1.0000000000000001e-09 2
1399.999999999 2

-0.99999999900000003 2
-1.0000000000000001e-09 2

Triangulations 0

TShapes 66
Ve
1e-07
2500 7800 2200
0 0

0101101
*
Ve
1e-07
2500 7801 2200
0 0

0101101
*
Ed
 1e-07 1 1 0
1  1 3 0 1
2  1 1 3 0 1
2  2 2 3 0 1
0

0101000
+66 4 -65 4 *
Ve
1e-07
1000 7800 2200
0 0

0101101
*
Ve
1e-07
1000 7801 2200
0 0

0101101
*
Ed
 1e-07 1 1 0
1  2 3 0 1
2  3 1 3 0 1
2  4 3 3 0 1
0

0101000
+63 4 -62 4 *
Ed
 1e-07 1 1 0
1  3 6 0 1500
2  5 1 6 0 1500
2  6 4 6 0 1500
0

0101000
+66 7 -63 7 *
Ed
 1e-07 1 1 0
1  4 10 0 1500
2  7 1 10 0 1500
2  8 5 10 0 1500
0

0101000
+65 11 -62 11 *
Wi

0101000
+64 0 -61 0 -60 5 +59 9 *
Fa
0  1e-07 1 3

0101000
+58 0 *
Ve
1e-07
2500 7800 1800
0 0

0101101
*
Ve
1e-07
2500 7801 1800
0 0

0101101
*
Ed
 1e-07 1 1 0
1  5 3 0 1
2  9 2 3 0 1
2  10 6 3 0 1
0

0101000
+56 4 -55 4 *
Ed
 1e-07 1 1 0
1  6 6 0 400
2  11 2 6 0 400
2  12 4 6 0 400
0

0101000
+56 7 -66 7 *
Ed
 1e-07 1 1 0
1  7 10 0 400
2  13 2 10 0 400
2  14 5 10 0 400
0

0101000
+55 11 -65 11 *
Wi

0101000
+54 0 -64 0 -53 5 +52 9 *
Fa
0  1e-07 2 3

0101000
+51 0 *
Ve
1e-07
1000 7800 1800
0 0

0101101
*
Ve
1e-07
1000 7801 1800
0 0

0101101
*
Ed
 1e-07 1 1 0
1  8 3 0 1
2  15 3 3 0 1
2  16 6 3 0 1
0

0101000
+49 4 -48 4 *
Ed
 1e-07 1 1 0
1  9 6 0 400
2  17 3 6 0 400
2  18 4 6 0 400
0

0101000
+63 7 -49 7 *
Ed
 1e-07 1 1 0
1  10 10 0 400
2  19 3 10 0 400
2  20 5 10 0 400
0

0101000
+62 11 -48 11 *
Wi

0101000
+61 0 -47 0 -46 5 +45 9 *
Fa
0  1e-07 3 3

0101000
+44 0 *
Ed
 1e-07 1 1 0
1  11 6 0 1500
2  21 4 6 0 1500
2  22 6 6 0 1500
0

0101000
+49 7 -56 7 *
Wi

0101000
-60 5 -53 5 -46 5 -42 5 *
Ve
1e-07
2450 7800 1850
0 0

0101101
*
Ve
1e-07
2450 7800 2150
0 0

0101101
*
Ed
 1e-07 1 1 0
1  12 6 0 300
2  23 4 6 0 300
2  24 7 6 0 300
0

0101000
+40 7 -39 7 *
Ve
1e-07
1050 7800 1850
0 0

0101101
*
Ed
 1e-07 1 1 0
1  13 6 0 1400
2  25 4 6 0 1400
2  26 8 6 0 1400
0

0101000
+37 7 -40 7 *
Ve
1e-07
1050 7800 2150
0 0

0101101
*
Ed
 1e-07 1 1 0
1  14 6 0 300
2  27 4 6 0 300
2  28 9 6 0 300
0

0101000
+35 7 -37 7 *
Ed
 1e-07 1 1 0
1  15 6 0 1400
2  29 4 6 0 1400
2  30 10 6 0 1400
0

0101000
+39 7 -35 7 *
Wi

0101000
+38 5 +36 5 +34 5 +33 5 *
Fa
0  1e-07 4 3

0101000
+41 0 +32 0 *
Ed
 1e-07 1 1 0
1  16 10 0 1500
2  31 5 10 0 1500
2  32 6 10 0 1500
0

0101000
+48 11 -55 11 *
Wi

0101000
-59 9 -52 9 -45 9 -30 9 *
Ve
1e-07
2450 7801 1850
0 0

0101101
*
Ve
1e-07
2450 7801 2150
0 0

0101101
*
Ed
 1e-07 1 1 0
1  17 14 0 300
2  33 5 14 0 300
2  34 7 14 0 300
0

0101000
+28 15 -27 15 *
Ve
1e-07
1050 7801 1850
0 0

0101101
*
Ed
 1e-07 1 1 0
1  18 14 0 1400
2  35 5 14 0 1400
2  36 8 14 0 1400
0

0101000
+25 15 -28 15 *
Ve
1e-07
1050 7801 2150
0 0

0101101
*
Ed
 1e-07 1 1 0
1  19 14 0 300
2  37 5 14 0 300
2  38 9 14 0 300
0

0101000
+23 15 -25 15 *
Ed
 1e-07 1 1 0
1  20 14 0 1400
2  39 5 14 0 1400
2  40 10 14 0 1400
0

0101000
+27 15 -23 15 *
Wi

0101000
+26 13 +24 13 +22 13 +21 13 *
Fa
0  1e-07 5 3

0101000
+29 0 +20 0 *
Wi

0101000
+47 0 -54 0 -42 5 +30 9 *
Fa
0  1e-07 6 3

0101000
+18 0 *
Ed
 1e-07 1 1 0
1  21 3 0 1
2  41 7 3 0 1
2  42 8 3 0 1
0

0101000
+40 4 -28 4 *
Ed
 1e-07 1 1 0
1  22 3 0 1
2  43 7 3 0 1
2  44 10 3 0 1
0

0101000
+39 4 -27 4 *
Wi

0101000
+16 0 -38 5 +26 13 -15 0 *
Fa
0  1e-07 7 3

0101000
+14 0 *
Ed
 1e-07 1 1 0
1  23 3 0 1
2  45 8 3 0 1
2  46 9 3 0 1
0

0101000
+37 4 -25 4 *
Wi

0101000
+12 0 -36 5 +24 13 -16 0 *
Fa
0  1e-07 8 3

0101000
+11 0 *
Ed
 1e-07 1 1 0
1  24 3 0 1
2  47 9 3 0 1
2  48 10 3 0 1
0

0101000
+35 4 -23 4 *
Wi

0101000
+9 0 -34 5 +22 13 -12 0 *
Fa
0  1e-07 9 3

0101000
+8 0 *
Wi

0101000
+15 0 -33 5 +21 13 -9 0 *
Fa
0  1e-07 10 3

0101000
+6 0 *
Sh

0101000
+57 0 +50 0 +43 0 -31 0 +19 0 +17 0 -13 0 -10 0 -7 0 -5 0 
*
So

0100000
+4 0 *
Co

0100000
+3 0 *
Co

1100000
+2 0 *

+1 1 