DBRep_DrawableShape

CASCADE Topology V1, (c) Matra-Datavision
Locations 47
1
              1               0               0               0 
              0               1               0               0 
              0               0               1               0 
1
              1               0               0               0 
              0               1               0               0 
              0               0               1               0 
1
              1               0               0               0 
              0               1               0               0 
              0               0               1               0 
2  2 1 3 -1 0
1
              1               0               0               0 
              0               1               0               0 
              0               0               1               0 
1
              1               0               0               0 
              0               1               0               0 
              0               0               1               0 
2  5 1 6 -1 0
2  1 -1 3 1 2 -1 6 1 5 -1 0
1
              1               0               0               0 
              0               1               0               0 
              0               0               1               0 
1
              1               0               0               0 
              0               1               0               0 
              0               0               1               0 
2  9 1 10 -1 5 1 6 -1 0
2  10 1 9 -1 0
2  9 -1 0
2  1 -1 3 1 2 -1 6 1 5 -1 10 1 9 -1 0
1
              1               0               0               0 
              0               1               0               0 
              0               0               1               5 
2  9 1 10 -1 15 1 5 1 6 -1 0
2  15 -1 10 1 9 -1 0
2  6 1 5 -1 15 -1 10 1 9 -1 0
2  1 -1 3 1 2 -1 6 1 5 -1 15 -1 10 1 9 -1 0
2  10 -1 5 1 6 -1 2 1 3 -1 0
2  1 -1 0
2  9 1 10 -1 5 1 6 -1 2 1 3 -1 0
2  1 -1 3 1 2 -1 0
1
              1               0               0              -0 
              0               1               0               0 
              0               0               1               5 
1
              1               0               0               0 
              0               1               0               0 
              0               0               1              15 
2  24 1 6 -1 25 1 0
2  25 -1 6 1 24 -1 0
2  24 -1 0
2  1 -1 3 1 2 -1 25 -1 6 1 24 -1 0
1
              1               0               0              -0 
              0               1               0               0 
              0               0               1               5 
1
              1               0               0              -0 
              0               1               0              -0 
              0               0               1             -15 
2  30 1 3 -1 31 1 0
2  31 -1 3 1 30 -1 0
2  30 -1 0
2  1 -1 31 -1 3 1 30 -1 0
2  6 -1 25 1 2 1 3 -1 0
2  3 -1 31 1 0
2  24 1 6 -1 2 1 3 -1 0
2  6 1 24 -1 0
2  10 -1 15 1 5 1 24 -1 0
2  1 -1 3 1 2 -1 6 1 24 -1 0
2  24 1 6 -1 25 1 2 1 3 -1 0
2  24 1 6 -1 0
2  10 -1 15 1 5 1 6 -1 2 1 3 -1 0
2  30 1 3 -1 0
2  10 -1 15 1 5 1 6 -1 2 1 30 -1 0
2  1 -1 3 1 30 -1 0
Curve2ds 82
1 0 0 0 -1 
1 60 0 0 -1 
1 0 0 1 0 
1 0 0 1 0 
1 0 -5 1 0 
1 120 0 -1 -0 
1 120 0 0 -1 
1 0 0 0 -1 
1 0 0 0 -1 
1 120 0 0 -1 
1 0 0 1 0 
1 0 -60 0 1 
1 0 -5 1 0 
1 60 0 -1 0 
2 15 -45 0 -1 1 0 10
1 -1.5707963267948966 -5 1 0 
2 15 -45 0 -1 1 0 10
1 4.7123889803846897 -5 1 0 
1 120 0 0 -1 
1 0 0 1 0 
1 120 -60 -1 0 
1 0 -0 1 0 
1 0 -0 0 -1 
1 60 0 0 -1 
1 0 -15 1 0 
1 -120 60 1 0 
1 120 0 0 -1 
1 0 0 0 -1 
1 0 -5 1 0 
1 60 0 -1 0 
1 60 0 0 -1 
1 0 -0 0 -1 
1 0 -5 1 0 
1 120 0 -1 0 
1 0 -15 1 0 
1 0 60 0 -1 
1 60 0 0 -1 
1 0 0 0 -1 
1 0 0 0 -1 
1 6.2831853071795862 0 0 -1 
1 0 -15 1 0 
2 10 0 -1 0 0 1 10
1 0 0 0 -1 
1 120 0 0 -1 
1 0 -15 1 0 
1 -120 0 0 1 
1 0 0 -1 0 
1 0 -15 1 0 
1 -5 5 -1 0 
1 0 -15 1 0 
1 -115 5 0 1 
1 0 -15 1 0 
1 -115 55 1 0 
1 0 -15 1 0 
1 -5 55 0 -1 
1 0 -15 1 0 
1 0 0 0 -1 
1 50 0 0 -1 
1 0 0 1 0 
1 5 -55 1 0 
1 0 0 1 0 
1 5 -55 1 0 
1 110 0 0 -1 
1 0 0 0 -1 
1 0 0 1 0 
1 115 -55 0 1 
1 50 0 0 -1 
1 0 -0 0 -1 
1 0 -0 1 0 
1 115 -5 -1 0 
1 110 0 0 -1 
1 0 0 0 -1 
1 0 0 1 0 
1 5 -5 0 -1 
1 0 0 1 0 
1 5 -5 0 -1 
2 15 -45 1 0 -0 1 10
2 15 -45 1 0 -0 1 10
2 15 -45 1 0 -0 1 10
2 15 -45 1 0 -0 1 10
2 15 -45 1 0 -0 1 10
2 15 -45 1 0 -0 1 10
Curves 41
1 0 30 0 0 0 1 
1 0 30 0 1 0 0 
1 0 30 0 1 0 0 
1 120 30 0 0 0 1 
1 0 -30 0 0 0 1 
1 0 -30 0 0 1 0 
1 0 -30 0 0 1 0 
2 15 -15 0 0 0 1 0 -1 0 1 0 -0 10
2 15 -15 0 0 0 1 0 -1 0 1 0 -0 10
1 120 30 0 0 -1 0 
1 120 -30 0 -1 0 0 
1 120 30 5 0 0 1 
1 120 30 0 -1 0 0 
1 0 30 5 0 0 1 
1 120 30 0 0 -1 0 
1 120 -30 0 0 0 1 
1 120 -30 0 -1 0 0 
1 0 30 0 0 -1 0 
1 0 -30 5 0 0 1 
1 25 -15 5 -0 -0 -1 
2 15 -15 0 0 0 1 1 0 -0 -0 1 0 10
1 120 -30 5 0 0 1 
1 120 -30 0 0 1 0 
1 0 -30 0 1 0 0 
1 5 -25 0 1 0 0 
1 115 -25 0 0 1 0 
1 115 25 0 -1 0 0 
1 5 25 0 0 -1 0 
1 5 -25 5 0 0 1 
1 5 -25 0 1 0 0 
1 5 -25 0 1 0 0 
1 115 -25 5 0 0 1 
1 115 -25 0 0 1 0 
1 115 25 5 0 0 1 
1 115 25 0 -1 0 0 
1 5 25 5 0 0 1 
1 5 25 0 0 -1 0 
1 5 25 0 0 -1 0 
2 15 -15 0 0 0 1 1 0 -0 -0 1 0 10
2 15 -15 0 0 0 1 1 0 -0 -0 1 0 10
2 15 -15 0 0 0 1 1 0 -0 -0 1 0 10
Polygon3D 0
PolygonOnTriangulations 0
Surfaces 19
1 0 30 0 0 1 0 1 0 0 0 0 -1 
1 0 -30 0 -1 0 0 0 1 0 0 0 -1 
1 0 30 0 -0 0 1 1 0 0 0 1 -0 
1 120 30 5 0 -1 0 -1 0 0 -0 -0 -1 
1 120 30 0 1 0 -0 0 -1 0 0 -0 -1 
1 120 -30 0 0 -1 0 -1 0 0 -0 -0 -1 
1 0 30 5 1 0 -0 0 -1 0 0 -0 -1 
2 15 -15 5 0 0 1 1 0 -0 -0 1 0 10
1 120 -30 5 -1 0 0 0 1 0 0 0 -1 
1 0 -30 5 0 0 -1 -1 0 -0 0 1 0 
1 0 -30 5 0 1 0 1 0 0 0 0 -1 
1 25 -15 5 -0 0 -1 -1 0 0 0 1 0 
1 5 -25 5 0 1 0 1 0 0 0 0 -1 
1 115 -25 5 -1 0 0 0 1 0 0 0 -1 
1 115 25 5 0 -1 0 -1 0 0 -0 -0 -1 
1 5 25 5 1 0 -0 0 -1 0 0 -0 -1 
1 0 30 0 -0 0 1 1 0 0 0 1 -0 
1 0 30 0 -0 0 1 1 0 0 0 1 -0 
1 0 30 0 -0 0 1 1 0 0 0 1 -0 
Triangulations 0

TShapes 109
Ve
1e-07
0 30 0
0 0

0101101
*
Ve
1e-07
0 30 5
0 0

0101101
*
Ed
 1e-07 1 1 0
1  1 0 0 5
2  1 1 0 0 5
2  2 2 0 0 5
0

0101000
+109 8 -108 8 *
Ve
1e-07
120 30 0
0 0

0101101
*
Ed
 1e-07 1 1 0
1  2 0 0 120
2  3 1 12 0 120
2  4 3 13 0 120
0

0101000
+109 14 -106 14 *
Ve
1e-07
120 30 5
0 0

0101101
*
Ed
 1e-07 1 1 0
1  3 0 0 120
2  5 1 17 0 120
2  6 4 18 0 120
0

0101000
+108 19 -104 19 *
Ed
 1e-07 1 1 0
1  4 0 0 5
2  7 1 0 0 5
2  8 5 0 0 5
0

0101000
+106 8 -104 8 *
Wi

0101000
+107 7 -105 11 +103 16 -102 7 *
Fa
0  1e-07 1 7

0101000
+101 0 *
Ve
1e-07
0 -30 0
0 0

0101101
*
Ve
1e-07
0 -30 5
0 0

0101101
*
Ed
 1e-07 1 1 0
1  5 0 0 5
2  9 2 0 0 5
2  10 6 0 0 5
0

0101000
+99 8 -98 8 *
Ed
 1e-07 1 1 0
1  6 0 0 60
2  11 2 12 0 60
2  12 3 13 0 60
0

0101000
+99 14 -109 14 *
Ed
 1e-07 1 1 0
1  7 0 0 60
2  13 2 17 0 60
2  14 7 18 0 60
0

0101000
+98 19 -108 19 *
Wi

0101000
+97 7 -96 11 +95 16 -107 7 *
Fa
0  1e-07 2 7

0101000
+94 0 *
Ve
2.00001e-07
25 -15 0
0 0

0101101
*
Ve
1e-07
15 -25 0
0 0

0101101
*
Ed
 1e-07 1 1 0
1  8 0 1.5707963267949 6.28318530717959
2  15 3 20 1.5707963267949 6.28318530717959
2  16 8 0 1.5707963267949 6.28318530717959
0

0101000
+92 21 -91 21 *
Ed
 1e-07 1 1 0
1  9 0 0 1.5707963267949
2  17 3 20 0 1.5707963267949
2  18 8 0 0 1.5707963267949
0

0101000
+91 21 -92 21 *
Wi

0101000
-90 0 -89 0 *
Ve
1e-07
120 -30 0
0 0

0101101
*
Ed
 1e-07 1 1 0
1  10 0 0 60
2  19 3 13 0 60
2  20 5 12 0 60
0

0101000
+106 14 -87 14 *
Ed
 1e-07 1 1 0
1  11 0 0 120
2  21 3 13 0 120
2  22 6 12 0 120
0

0101000
+87 14 -99 14 *
Wi

0101000
-105 22 -96 22 -86 22 -85 22 *
Fa
0  1e-07 3 20

0101000
+88 0 +84 0 *
Ve
1e-07
120 30 20
0 0

0101101
*
Ed
 1e-07 1 1 0
1  12 0 0 15
2  23 4 0 0 15
2  24 9 0 0 15
0

0101000
+104 23 -82 23 *
Ve
1e-07
0 30 20
0 0

0101101
*
Ed
 1e-07 1 1 0
1  13 0 0 120
2  25 4 27 0 120
2  26 10 28 0 120
0

0101000
+82 29 -80 29 *
Ed
 1e-07 1 1 0
1  14 0 0 15
2  27 4 0 0 15
2  28 7 0 0 15
0

0101000
+108 23 -80 23 *
Wi

0101000
+81 0 +103 16 +79 26 -78 0 *
Fa
0  1e-07 4 0

0101000
+77 0 *
Ve
1e-07
120 -30 5
0 0

0101101
*
Ed
 1e-07 1 1 0
1  15 0 0 60
2  29 5 17 0 60
2  30 9 18 0 60
0

0101000
+104 19 -75 19 *
Ed
 1e-07 1 1 0
1  16 0 0 5
2  31 5 0 0 5
2  32 6 0 0 5
0

0101000
+87 8 -75 8 *
Wi

0101000
+102 7 -86 11 +74 16 -73 7 *
Fa
0  1e-07 5 7

0101000
+72 0 *
Ed
 1e-07 1 1 0
1  17 0 0 120
2  33 6 17 0 120
2  34 11 18 0 120
0

0101000
+75 19 -98 19 *
Wi

0101000
+73 7 -85 11 +70 16 -97 7 *
Fa
0  1e-07 6 7

0101000
+69 0 *
Ve
1e-07
0 -30 20
0 0

0101101
*
Ed
 1e-07 1 1 0
1  18 0 0 60
2  35 7 27 0 60
2  36 10 28 0 60
0

0101000
+80 29 -67 29 *
Ed
 1e-07 1 1 0
1  19 0 0 15
2  37 7 0 0 15
2  38 11 0 0 15
0

0101000
+98 23 -67 23 *
Wi

0101000
+78 0 +95 16 +66 26 -65 0 *
Fa
0  1e-07 7 0

0101000
+64 0 *
Ve
1e-07
25 -15 -10
0 0

0101101
*
Ed
 1e-07 1 1 0
1  20 0 5 15
3  39 40CN 8 0 5 15
0

0101000
+92 21 -62 21 *
Ed
 1e-07 1 1 0
1  21 0 0 6.28318530717959
2  41 8 33 0 6.28318530717959
2  42 12 34 0 6.28318530717959
0

0101100
+62 35 -62 35 *
Wi

0101000
-61 0 +60 32 +61 0 -90 0 -89 0 *
Fa
0  1e-07 8 0

0101000
+59 0 *
Ve
1e-07
120 -30 20
0 0

0101101
*
Ed
 1e-07 1 1 0
1  22 0 0 15
2  43 9 0 0 15
2  44 11 0 0 15
0

0101000
+75 23 -57 23 *
Ed
 1e-07 1 1 0
1  23 0 0 60
2  45 9 27 0 60
2  46 10 28 0 60
0

0101000
+57 29 -82 29 *
Wi

0101000
+56 0 +74 16 +55 26 -81 0 *
Fa
0  1e-07 9 0

0101000
+54 0 *
Ed
 1e-07 1 1 0
1  24 0 0 120
2  47 10 28 0 120
2  48 11 27 0 120
0

0101000
+67 29 -57 29 *
Wi

0101100
+52 0 +55 0 +79 0 +66 0 *
Ve
1e-07
5 -25 20
0 0

0101101
*
Ve
5.09001269276204e-05
115 -25 20
0 0

0101101
*
Ed
 1e-07 1 1 0
1  25 0 0 110
2  49 10 28 0 110
2  50 13 27 0 110
0

0101000
+50 29 -49 29 *
Ve
1e-07
115 25 20
0 0

0101101
*
Ed
 1e-07 1 1 0
1  26 0 0 50
2  51 10 28 0 50
2  52 14 27 0 50
0

0101000
+49 29 -47 29 *
Ve
1e-07
5 25 20
0 0

0101101
*
Ed
 1e-07 1 1 0
1  27 0 0 110
2  53 10 28 0 110
2  54 15 27 0 110
0

0101000
+47 29 -45 29 *
Ed
 1e-07 1 1 0
1  28 0 0 50
2  55 10 28 0 50
2  56 16 27 0 50
0

0101000
+45 29 -50 29 *
Wi

0101100
+48 0 +46 0 +44 0 +43 0 *
Fa
0  1e-07 10 0

0101000
-51 24 +42 24 *
Wi

0101000
+65 0 +70 16 +52 26 -56 0 *
Fa
0  1e-07 11 0

0101000
+40 0 *
Wi

0101100
+60 0 *
Fa
0  1e-07 12 0

0101000
-38 30 *
Ve
1e-07
5 -25 5
0 0

0101101
*
Ed
 1e-07 1 1 0
1  29 0 0 15
2  57 13 0 0 15
2  58 16 0 0 15
0

0101000
+36 23 -50 23 *
Ve
5.00000998737622e-07
15 -25 5
0 0

0101101
*
Ed
 1e-07 1 1 0
1  30 0 0 10
2  59 13 39 0 10
2  60 17 40 0 10
0

0101000
+36 41 -34 41 *
Ve
5.09001269276204e-05
115 -25 5
0 0

0101101
*
Ed
 1e-07 1 1 0
1  31 0 10 110
2  61 13 39 10 110
2  62 18 40 10 110
0

0101000
+34 41 -32 41 *
Ed
 1e-07 1 1 0
1  32 0 0 15
2  63 13 0 0 15
2  64 14 0 0 15
0

0101000
+32 23 -49 23 *
Wi

0101000
+35 4 -33 38 +48 42 -31 38 -30 4 *
Fa
0  1e-07 13 4

0101000
+29 0 *
Ve
1e-07
115 25 5
0 0

0101101
*
Ed
 1e-07 1 1 0
1  33 0 0 50
2  65 14 39 0 50
2  66 18 40 0 50
0

0101000
+32 41 -27 41 *
Ed
 1e-07 1 1 0
1  34 0 0 15
2  67 14 0 0 15
2  68 15 0 0 15
0

0101000
+27 23 -47 23 *
Wi

0101000
+30 0 -26 43 +46 26 -25 0 *
Fa
0  1e-07 14 0

0101000
+24 0 *
Ve
1e-07
5 25 5
0 0

0101101
*
Ed
 1e-07 1 1 0
1  35 0 0 110
2  69 15 39 0 110
2  70 18 40 0 110
0

0101000
+27 41 -22 41 *
Ed
 1e-07 1 1 0
1  36 0 0 15
2  71 15 0 0 15
2  72 16 0 0 15
0

0101000
+22 23 -45 23 *
Wi

0101000
+25 0 -21 43 +44 26 -20 0 *
Fa
0  1e-07 15 0

0101000
+19 0 *
Ve
5.00001002290335e-07
5 -15 5
0 0

0101101
*
Ed
 1e-07 1 1 0
1  37 0 0 40
2  73 16 39 0 40
2  74 18 40 0 40
0

0101000
+22 41 -17 41 *
Ed
 1e-07 1 1 0
1  38 0 40 50
2  75 16 39 40 50
2  76 17 40 40 50
0

0101000
+17 41 -36 41 *
Wi

0101000
+20 4 -16 38 +43 42 -15 38 -35 4 *
Fa
0  1e-07 16 4

0101000
+14 0 *
Ed
 1e-07 1 1 0
1  39 0 3.14159265358979 4.71238898038469
2  77 17 46 3.14159265358979 4.71238898038469
2  78 19 46 3.14159265358979 4.71238898038469
0

0101000
+17 47 -34 47 *
Wi

0101000
-12 45 +33 38 +15 38 *
Fa
0  1e-07 17 44

0101000
+11 0 *
Ve
1e-07
25 -15 5
0 0

0101101
*
Ed
 1e-07 1 1 0
1  40 0 4.71238898038469 6.28318530717959
2  79 18 46 4.71238898038469 6.28318530717959
2  80 19 46 4.71238898038469 6.28318530717959
0

0101000
+34 47 -9 47 *
Ed
 1e-07 1 1 0
1  41 0 0 3.14159265358979
2  81 18 46 0 3.14159265358979
2  82 19 46 0 3.14159265358979
0

0101000
+9 47 -17 47 *
Wi

0101000
+21 38 +26 38 +31 38 -8 45 -7 45 +16 38 *
Fa
0  1e-07 18 44

0101000
+6 0 *
Wi

0101000
+7 45 +8 45 +12 45 *
Fa
0  1e-07 19 44

0101000
+4 0 *
Sh

0101000
+100 4 +93 4 -83 0 -76 4 +71 4 +68 4 -63 4 +58 0 -53 4 -41 36 
-39 4 +37 37 +28 0 +23 4 +18 4 +13 0 +10 0 +5 0 +3 0 *
So

0100000
+2 0 *

+1 1 