DBRep_DrawableShape

CASCADE Topology V1, (c) Matra-Datavision
Locations 52
1
              1               0               0               0 
              0               1               0               0 
              0               0               1               0 
1
              1               0               0               0 
              0               1               0               0 
              0               0               1               0 
1
              1               0               0               0 
              0               1               0               0 
              0               0               1               0 
1
              1               0               0               0 
              0               1               0               0 
              0               0               1               0 
2  2 1 3 1 4 -1 0
1
              1               0               0               0 
              0               1               0               0 
              0               0               1               0 
1
              1               0               0               0 
              0               1               0               0 
              0               0               1               0 
1
              1               0               0               0 
              0               1               0               0 
              0               0               1               0 
1
              1               0               0               0 
              0               1               0               0 
              0               0               1               0 
2  6 1 7 -1 8 1 9 -1 0
2  2 -1 0
2  6 1 7 -1 8 1 9 -1 2 1 0
2  1 -1 4 1 3 -1 2 -1 9 1 8 -1 7 1 6 -1 0
2  1 -1 4 1 3 -1 0
1
              1               0               0               0 
              0               1               0               0 
              0               0               1               0 
1
              1               0               0               0 
              0               1               0               0 
              0               0               1               0 
2  15 1 16 -1 0
1
              1              -0               0              -0 
              0 1.77321265310004e-16              -1              -0 
              0               1 1.77321265310004e-16               0 
1
              1               0               0               0 
              0               1               0              -1 
              0               0               1 2.22044604925031e-16 
1
              1               0               0               0 
              0               1               0              81 
              0               0               1 -1.79856129989275e-14 
2  18 1 19 1 9 -1 20 1 2 1 0
2  6 1 7 -1 8 1 9 -1 20 -1 9 1 19 -1 18 -1 0
2  20 -1 9 1 19 -1 18 -1 0
2  1 -1 4 1 3 -1 2 -1 20 -1 9 1 19 -1 18 -1 0
2  6 1 7 -1 8 1 9 -1 2 1 3 1 4 -1 0
2  2 -1 9 1 8 -1 7 1 6 -1 0
2  3 1 4 -1 0
1
              1               0               0               0 
              0               1               0               0 
              0               0               1               1 
1
              1               0               0              -0 
              0               1               0              -0 
              0               0               1           -1811 
2  28 1 16 -1 29 1 6 1 7 -1 8 1 9 -1 2 1 0
2  15 1 16 -1 6 1 7 -1 8 1 9 -1 2 1 3 1 4 -1 0
2  1 -1 4 1 3 -1 2 -1 9 1 8 -1 7 1 6 -1 16 1 15 -1 0
2  15 1 16 -1 6 1 7 -1 8 1 9 -1 0
2  1 -1 4 1 3 -1 2 -1 0
2  8 1 9 -1 2 1 3 1 4 -1 0
2  15 1 16 -1 6 1 7 -1 0
2  1 -1 4 1 3 -1 2 -1 9 1 8 -1 0
2  18 1 19 1 9 -1 20 1 0
2  28 1 16 -1 29 1 6 1 7 -1 8 1 9 -1 2 1 3 1 4 -1 0
2  1 -1 0
2  6 1 7 -1 0
2  2 -1 9 1 8 -1 0
2  7 1 6 -1 0
1
              1               0               0              -0 
              0               1               0               0 
              0               0               1            1910 
1
              1               0               0               0 
              0               1               0               0 
              0               0               1               1 
1
              1               0               0              -0 
              0               1               0              -0 
              0               0               1            -941 
2  44 1 45 1 7 -1 46 1 0
2  46 -1 7 1 45 -1 44 -1 0
2  44 -1 0
2  1 -1 4 1 3 -1 2 -1 9 1 8 -1 46 -1 7 1 45 -1 44 -1 0
2  8 1 9 -1 2 1 0
2  45 1 7 -1 46 1 0
Curve2ds 185
1 774.99995955181782 0 0 -1 
1 4.7123869185074803 0 0 -1 
1 774.99995955181782 -1791 -1 -0 
1 0 0 0 1 
8 34.99999960531904 809.99995915713691
1 -34.99999960531904 -1 1 0 
8 34.99999960531904 809.99995915713691
1 34.99999960531904 80.000000000000014 1 0 
1 0 0 0 -1 
1 4.7123889409165942 0 0 -1 
1 745.00000078936102 78.999993830648918 0 -1 
1 -1.4363022490110344e-14 -81 1 0 
8 34.99999960531904 809.99995915713691
1 -34.99999960531904 -1 1 0 
8 34.99999960531904 809.99995915713691
1 34.99999960531904 80.000000000000014 1 0 
2 725.00000078936193 -1721 1 0 -0 1 20
1 0 -81 1 0 
1 30.00000078936192 -1721.0000004032797 0 1 
1 -1.4058686940293665e-14 -81 1 0 
1 724.99995982951384 -1740.9999999999582 -1 0 
1 0 -81 1 0 
2 50.00000078936192 -1721 1 0 -0 1 20
1 0 -81 1 0 
1 6.283184949182882 0 0 -1 
1 720.00001431529586 0 0 -1 
1 6.283184949182882 -1791 -1 -0 
1 0 0 1 0 
1 -1.5707963267948966 -1 1 0 
2 845 100 0 -1 1 0 20
8 0 1.5707963267948966
1 0 0 1 0 
8 0 1.5707963267948966
1 1.5707980306754017 0 0 1 
1 1.5707963267948966 0 0 1 
1 604.99995876245589 -740 -1 -0 
8 0 1.5707963267948966
1 0 774.99995955181782 1 0 
8 0 1.5707963267948966
1 -8.8817841970012523e-16 0 0 1 
1 0 0 1 0 
1 1910 0 0 1 
1 0 0 0 1 
1 1910 0 0 -1 
8 0.49999999999998318 80.500000000000327
1 100 -0.49999999999998318 0 1 
8 0.49999999999998318 80.500000000000327
1 1720.0000004032797 -0.4999999999996782 1.7732126531000425e-16 -1 
1 0 915 1 0 
1 1910 0 0 1 
1 915 0 0 1 
1 1910 0 0 -1 
2 70 100 0 -1 1 0 20
1 -1.5707963267948966 -1 1 0 
1 0 0 1 0 
1 1910 0 0 1 
8 50.000000103083785 600.00016697317437
1 50 50.000000103083785 0 1 
8 50.000000103083785 600.00016697317437
1 -50.000000103083785 -1 1 0 
8 -80.500000000000156 -0.49999999999982359
1 814.99999999999909 -0.49999999999982359 0 -1 
8 -80.500000000000156 -0.49999999999982359
1 79.999993830648918 -0.4999999999998378 1.7732126531000425e-16 1 
8 325.0000835381291 494.99989990709042
1 50 325.0000835381291 0 1 
8 325.0000835381291 494.99989990709042
1 -325.0000835381291 -1 1 0 
2 70 819.99999999999989 0 -1 1 0 20
1 -1.5707963267948966 -1 1 0 
8 -120 49.999983479590611
1 120 840 -1 0 
8 -120 49.999983479590611
1 120 -1 1 0 
8 -410.0000035776809 310.00001073761496
1 865 410.0000035776809 0 -1 
8 -410.0000035776809 310.00001073761496
1 410.0000035776809 -1 1 0 
8 120 724.99995876158494
1 120 840 1 0 
8 120 724.99995876158494
1 -120 -1 1 0 
2 845 820 0 -1 1 0 20
1 -1.5707963267948966 -1 1 0 
1 4.7123889409165933 -1791 -1 -0 
1 0 0 1 0 
1 3.1415926432814145 0 0 -1 
1 0 0 0 -1 
1 1800 1.0842021724855044e-17 4.4723339615027058e-17 -1 
1 6.2831849987120307 0 0 -1 
8 -805.00000308467554 915.00000308467554
1 994.99999691532446 -0.99999999999982359 -1 1.7732126531000425e-16 
8 -805.00000308467554 915.00000308467554
1 994.99999691532446 814.99999999999909 1 0 
1 -1.5707963267948966 -0.99999999999996636 1 0 
2 190 795 -1 0 0 1 20
1 4.7123869323922829 0 0 -1 
1 0 0 0 -1 
1 0 0 -4.4723339615027058e-17 -1 
1 3.1415926737537787 0 0 -1 
8 -1815.0000002016398 -94.999999798360136
1 -94.99999979836015 -0.99999999999998324 -1 -1.7732126531000425e-16 
8 -1815.0000002016398 -94.999999798360136
1 94.99999979836015 100 -1 0 
1 674.99995898322538 0 0 -1 
1 4.7123889832310137 0 0 -1 
8 -277.49997946314943 397.49997952007595
1 397.49997952007595 -0.9999999999999698 -1 0 
8 -277.49997946314943 397.49997952007595
1 170.00000000004195 397.49997952007595 0 1 
1 -1.5707963267948966 -0.99999999999996636 1 0 
2 190 120 -1 0 0 1 20
1 0 -1791 1 0 
1 0 0 0 1 
1 0 0 0 -1 
1 3.5776809269742789e-07 0 0 -1 
8 0 1.5707963267948966
1 0 0 0 1 
8 0 1.5707963267948966
1 0 720.00001431529586 1 0 
1 0 1.5707963267948966 1 0 
2 225 -100 0 1 1 -0 25
1 4.7123889803846897 -101 1 0 
2 225 -100 0 1 1 -0 25
1 -1.5707963267948966 -101 1 0 
1 0 -20 1 0 
1 1.5707963267948966 0 0 1 
1 -170.0000004926934 -189.9998335021163 0.70710712780479401 0.70710643456813116 
1 1.5707963267948966 0 0 1 
1 605 -19.9999928446382 0 -1 
1 1.5707963267948966 0 0 1 
1 -170 -739.99999979383244 0 1 
1 1.5707963267948966 0 0 1 
1 0 1.5707963267948966 1 0 
8 0 1.5707963267948966
1 1.5707962976351788 0 0 1 
8 0 1.5707963267948966
1 0 1.4210854715202004e-14 1 0 
1 0 0 1 0 
1 0 0 1 0 
1 0 0 0 1 
1 0 0 1 0 
1 0 915 1 0 
1 0 0 1 0 
1 0 -915 1 0 
1 0 0 1 0 
1 0 0 0 -1 
1 0 0 0 1 
1 0 0 0 1 
1 0 915 1 0 
1 0 915 1 0 
1 0 -915 1 0 
1 0 0 0 -1 
1 915 0 0 1 
1 -1.4210854715202004e-14 -1791 1 0 
1 0 0 0 1 
1 550.00016687009054 0 0 -1 
1 3.1415926493057156 0 0 -1 
1 550.00016687009054 0 0 -1 
1 -1.1368683772161603e-13 0 0 -1 
1 169.99981636896132 0 0 -1 
1 3.1415934813288131 0 0 -1 
1 0 -941 1 0 
1 190 -189.99983292374179 0 1 
1 0 -941 1 0 
2 170 -20.000000000000114 -1 0 0 1 20
1 1.5707955007744272 0 0 -1 
1 169.99998347959061 0 0 -1 
1 0 -941 1 0 
1 0 0 1 0 
8 -1035.0999999999999 94.099999999999909
1 3.2526131121812796e-07 0 0 1 
1 604.99995876158482 0 0 -1 
1 1.5707983887156545 0 0 -1 
1 0 -1791 1 0 
1 0 0 0 1 
1 0 0 0 -1 
1 1.5707963105318312 0 0 -1 
1 0 0 0 -1 
1 1.5707983887156556 -1791 -1 -0 
1 0 0 1 0 
8 0 1.5707963267948966
1 0 0 1 0 
8 0 1.5707963267948966
1 1.5707980309475629 0 0 1 
1 0 0 0 -1 
1 6.2831853071795862 0 0 -1 
1 -1.5707963267948966 -1 1 0 
2 465 740 0 1 1 -0 25
1 4.7123889803846897 -1 1 0 
2 465 740 0 1 1 -0 25
8 0 1.5707963267948966
1 0 0 1 0 
8 0 1.5707963267948966
1 0.78539784410643487 0 0 1 
8 0 1.5707963267948966
1 0 604.99995876158482 1 0 
8 0 1.5707963267948966
1 1.1102230246251565e-15 0 0 1 
8 0 1.5707963267948966
1 0 8.5265128291212022e-14 1 0 
8 0 1.5707963267948966
1 0.78539861446705439 0 0 1 
1 0 0 0 1 
1 240.41618489729964 -1791 -1 0 
8 0 1.5707963267948966
1 0 240.41618489729953 1 0 
8 0 1.5707963267948966
1 0 0 0 1 
8 0 1.5707963267948966
1 0 550.00016687009054 1 0 
8 0 1.5707963267948966
1 -4.4408920985006262e-16 0 0 1 
1 3.1415926493057151 -1791 -1 -0 
1 0 0 1 0 
1 -1.5707963267948966 -941 1 0 
2 170 -189.99983300942347 0 -1 -1 -0 20
1 2.3561940348386607 0 0 -1 
1 240.41618489729956 0 0 -1 
8 7.0710660070612121 247.48725090436076
1 9.1421300287690315 -0.85786335796933599 0.70710712780479401 -0.70710643456813116 
8 7.0710660070612121 247.48725090436076
1 -7.0710660070612121 -941 1 -0 
2 3.2526131121812796e-07 -20 0 -1 -1 -0 20
1 -1.5707963267948966 -941 1 0 
1 2.3561941546382661 0 0 -1 
1 1.2058308112392845e-13 0 0 -1 
1 2.3561941546382661 -1791 -1 -0 
1 0 0 1 0 
1 0 1.5707963267948966 1 0 
1 0 1.5707963267948966 1 0 
1 0 1.5707963267948966 1 0 
Curves 91
1 844.99995876245589 80.000000000021259 1911 -0 -0 -1 
1 844.99995876245589 80 120 -1 -0 -0 
1 34.99999960531904 80.000000000000014 1910 1 0 -0 
1 69.99999921063808 80.000000000000014 1911 -0 -0 -1 
1 814.99999999999909 1989.9999938306489 0 0 -1 0 
1 34.99999960531904 80.000000000000014 1910 1 0 -0 
2 795 190 0 0 0 1 1 0 -0 -0 1 0 20
1 100 189.9999995967203 0 0 1 0 
1 794.99995904015191 170.00000000004195 0 -1 0 0 
2 120 190 0 0 0 1 1 0 -0 -0 1 0 20
1 864.99999999999932 99.999992840065929 1911 -0 -0 -1 
2 845 100 120 -0 -0 -1 0.99999999999993594 -3.5799670428104888e-07 0 -3.5799670428104888e-07 -0.99999999999993594 0 20
2 845 100 1910 0 0 1 0 -1 0 1 0 -0 20
2 845 100 120 0.99999999999787437 -2.0618772093511806e-06 0 -2.0618772093511806e-06 -0.99999999999787437 0 0 -0 -1 20
1 844.99995876245589 100 100 -1 -0 -0 
2 69.999999210638066 100 120 1 0 0 0 -1 0 0 0 -1 20
1 0 0 1910 1 0 -0 
1 0 0 1910 -0 1 0 
1 100 -0.49999999999998318 1910 0 1 -0 
1 0 915 1910 1 0 -0 
1 915 0 1910 0 1 0 
2 70 100 1910 0 0 1 0 -1 0 1 0 -0 20
1 0 0 1910 1 0 -0 
1 50 50.000000103083785 1910 0 1 0 
1 814.99999999999909 -0.49999999999982359 1910 -0 -1 0 
1 50 325.0000835381291 1910 0 1 0 
2 70 819.99999999999989 1910 0 0 1 0 -1 0 1 0 -0 20
1 120 840 1910 -1 0 0 
1 865 410.0000035776809 1910 0 -1 0 
1 120 840 1910 1 0 -0 
2 845 820 1910 0 0 1 0 -1 0 1 0 -0 20
2 70 100 120 -0 -0 -1 -3.9468095991423974e-08 -0.99999999999999922 0 -0.99999999999999922 3.9468095991423974e-08 0 20
1 50 100.00000020616757 1911 -0 -0 -1 
1 814.99999999999909 -0.99999999999996636 189.99999383064892 0 1 -2.2204460492503131e-16 
1 814.99999999999909 0 994.99999691532446 -0 0 1 
2 795 0 190 0 -1 1.7732126531000425e-16 0 -1.7732126531000425e-16 -1 1 0 0 20
1 794.99995904015191 -0.9999999999999698 170.00000000004195 0 1 -2.2204460492503131e-16 
1 100 -0.99999999999996636 189.9999995967203 0 1 -2.2204460492503131e-16 
1 100 0 94.99999979836015 0 0 -1 
1 120.0000000569265 -0.9999999999999698 170.00000000002098 0 1 -2.2204460492503131e-16 
1 397.49997952007595 0 170.00000000004195 1 0 0 
2 120 0 190 0 -1 1.7732126531000425e-16 0 -1.7732126531000425e-16 -1 1 0 0 20
1 865 820.0000071553618 120 0 -1 0 
1 864.99999999999932 820.0000071553618 1911 -0 -0 -1 
2 845 99.999992840065943 120 -0 1 -0 1 0 -0 0 -0 -1 20
2 465 740 100 0 0 -1 0 1 0 1 -0 0 25
2 465 740 100 0 0 -1 0 1 0 1 -0 0 25
1 240 820 100 1 0 0 
1 69.999999507306612 650.0001664978837 99.999999999999957 0.70710712780479401 0.70710643456813116 -0 
1 845 820.0000071553618 100 0 -1 0 
1 70 100.00000020616756 100 0 1 0 
2 70 100 120 -1.030837817866796e-08 -1 0 -1 1.030837817866796e-08 0 -0 0 -1 20
1 0 0 0 0 0 1 
1 0 0 0 1 0 -0 
1 915 0 0 0 0 1 
1 0 915 0 0 0 1 
1 0 0 0 -0 1 0 
1 0 915 0 1 0 -0 
1 915 915 0 0 0 1 
1 915 0 0 -0 1 0 
1 50 100.00000020616756 120 0 1 0 
1 50 650.00016707625809 1911 -0 -0 -1 
1 50 650.00016707625809 1911 -0 -0 -1 
1 50.000000000003425 819.99998344521953 1911 -0 -0 -1 
1 50 650.00016707625821 0 0 1 0 
2 70 819.99999999999989 0 0 0 1 1 0 -0 -0 1 0 20
1 70.000016520409389 839.99999999999659 1911 -0 -0 -1 
1 240 840 0 -1 0 0 
1 239.99999967473869 840 1911 0 0 1 
1 844.99995876158482 839.99999999997874 1911 -0 -0 -1 
1 240 840 120 1 0 0 
1 240 840 1911 -0 -0 -1 
1 240 840 1911 -0 -0 -1 
2 845 820 120 -0 -0 -1 -2.0619207589334115e-06 0.99999999999787426 0 0.99999999999787426 2.0619207589334115e-06 -0 20
2 845 820 120 -3.577680926808001e-07 0.99999999999993605 0 0.99999999999993605 3.577680926808001e-07 -0 -0 0 -1 20
1 490 740 -1 0 0 1 
2 465 740 0 0 0 -1 0 1 0 1 -0 0 25
2 465 740 0 0 0 -1 0 1 0 1 -0 0 25
2 240 820 120 -1 -0 -0 -0 1 0 0 0 -1 20
2 844.99995876158482 820 120 -1 -0 -0 -0 1 0 0 0 -1 20
2 70 650.00016699057653 120 -0.70710710317015213 -0.70710645920279624 0 -0.70710645920279624 0.70710710317015213 0 -0 0 -1 20
1 55.85787081594399 664.1423090539796 119.99999999999996 0.70710712780479401 0.70710643456813116 -0 
2 239.99999748782238 819.99999781308577 119.99999999999996 -0.70710712780479401 -0.70710643456813116 0 -0.70710643456813116 0.70710712780479401 0 -0 0 -1 20
2 70 650.00016707625809 120 -0 -1 -0 -1 0 0 0 0 -1 20
2 70 650.00016699057653 120 -0 -0 -1 -1 4.2840781588893153e-09 0 4.2840781588893153e-09 1 -0 20
2 70 650.00016699057653 970 0 0 1 0 -1 0 1 0 -0 20
1 55.857870815944054 664.1423090539796 1911 -0 -0 -1 
1 230.85786997123097 839.14213664203066 970 -0.70710712780479401 -0.70710643456813116 -0 
2 239.99999967473869 820 970 0 0 1 0 -1 0 1 0 -0 20
1 225.85786879645983 834.14214036918156 1911 -0 -0 -1 
2 239.99999967473869 820 120 -0 -0 -1 -0.70710654391394312 0.70710701845907231 0 0.70710701845907231 0.70710654391394312 -0 20
Polygon3D 0
PolygonOnTriangulations 0
Surfaces 37
1 69.99999921063808 80.000000000000014 1911 0 -1 0 1 0 0 -0 0 1 
2 845 100 1911 0 0 1 1 0 -0 -0 1 0 20
2 844.99995876245589 100 120 -1 -0 -0 0 -1 0 0 -0 -1 20
1 0 0 1910 0 0 1 1 0 -0 -0 1 0 
2 70 100 1911 0 0 1 1 0 -0 -0 1 0 20
1 814.99999999999909 -0.99999999999964717 1989.9999938306489 -1 0 -0 0 -1.7732126531000425e-16 -1 -0 -1 1.7732126531000425e-16 
2 795 -0.99999999999996636 190 0 -1 1.7732126531000425e-16 1 0 0 -0 1.7732126531000425e-16 1 20
1 100 -0.99999999999996636 189.9999995967203 1 -0 0 0 1.7732126531000425e-16 1 -0 -1 1.7732126531000425e-16 
1 794.99995904015191 -0.9999999999999698 170.00000000004195 0 2.2204460492503131e-16 1 -1 0 0 0 -1 2.2204460492503131e-16 
2 120 -0.99999999999996636 190 0 -1 1.7732126531000425e-16 1 0 0 -0 1.7732126531000425e-16 1 20
1 865 820.0000071553618 1911 -1 0 0 0 -1 0 0 0 1 
4 845 100 120 -0 -0 -1 0.99999999999993594 -3.5799670428104888e-07 0 -3.5799670428104888e-07 -0.99999999999993594 0 20
1 240 840 1910 -0 0 1 1 0 0 0 1 -0 
4 70 100 120 -0 -0 -1 -3.9468095991423974e-08 -0.99999999999999922 0 -0.99999999999999922 3.9468095991423974e-08 0 20
1 0 0 0 -0 1 0 0 0 1 1 0 -0 
1 0 0 0 1 0 -0 0 0 1 0 -1 0 
1 0 915 0 -0 1 0 0 0 1 1 0 -0 
1 915 0 0 1 0 -0 0 0 1 0 -1 0 
1 50 100.00000020616757 1911 1 0 0 -0 1 0 0 -0 1 
1 50 650.00016707625821 1911 1 0 0 -0 1 0 0 -0 1 
2 70 819.99999999999989 1911 0 0 1 1 0 -0 -0 1 0 20
1 240 840 1911 0 1 -0 -1 0 0 0 0 1 
1 240 840 1911 0 -1 0 1 0 0 -0 0 1 
2 845 820 1911 0 0 1 1 0 -0 -0 1 0 20
2 845 820.0000071553618 120 0 -1 0 1 0 0 0 -0 -1 20
2 465 740 -1 0 0 -1 1 0 0 0 -1 0 25
2 240 820 120 1 0 0 -0 1 0 -0 0 -1 20
2 69.999999507306612 650.0001664978837 119.99999999999996 0.70710712780479401 0.70710643456813116 -0 -0.70710643456813116 0.70710712780479401 0 -0 -0 -1 20
2 70 100.00000020616756 120 0 1 0 -1 0 0 -0 0 -1 20
1 0 0 0 0 0 1 1 0 -0 -0 1 0 
2 70 650.00016699057653 1911 0 0 1 1 0 -0 -0 1 0 20
1 240 840 1910 -0 0 -1 -1 0 0 0 1 0 
2 239.99999967473869 820 1911 0 0 1 1 0 -0 -0 1 0 20
4 845 820 120 -0 -0 -1 -2.0619207589334115e-06 0.99999999999787426 0 0.99999999999787426 2.0619207589334115e-06 -0 20
4 239.99999967473869 820 120 -0 -0 -1 -0.70710654391394312 0.70710701845907231 0 0.70710701845907231 0.70710654391394312 -0 20
4 70 650.00016699057653 120 -0 -0 -1 -1 4.2840781588893153e-09 0 4.2840781588893153e-09 1 -0 20
1 225.85786879645983 834.14214036918167 1911 -0.70710643456813116 0.70710712780479401 0 -0.70710712780479401 -0.70710643456813116 0 0 0 1 
Triangulations 0

TShapes 229
Ve
8.24750882202352e-05
844.999958762456 80.0000000000425 120
0 0

0101101
*
Ve
2.00022252409246e-07
844.999958762456 80.0000000000213 1910
0 0

0101101
*
Ed
 1.00021252409246e-07 1 1 0
1  1 0 1.00000000000008 1791
2  1 1 0 1.00000000000008 1791
2  2 2 0 1.00000000000008 1791
4 G1 1 0 2 0
0

0101000
-229 13 +228 13 *
Ve
1.57872386807867e-06
69.9999992106381 80 120
0 0

0101101
*
Ed
 1e-07 1 1 0
1  2 0 -0 774.999959551818
2  3 1 12 -0 774.999959551818
2  4 3 0 -0 774.999959551818
4 G1 1 12 3 0
0

0101000
+229 14 -226 14 *
Ve
1.00000163424829e-07
814.999999999999 80.0000000000002 1910
0 0

0101101
*
Ed
 1e-07 1 1 0
1  3 0 780.00000039468 809.999959157137
2  5 1 0 780.00000039468 809.999959157137
2  6 4 17 780.00000039468 809.999959157137
0

0101000
+224 13 -228 13 *
Ve
2.00001e-07
69.9999992106381 80 1910
0 0

0101101
*
Ed
 1e-07 1 1 0
1  4 0 1.00000000000008 1791
2  7 1 0 1.00000000000008 1791
2  8 5 0 1.00000000000008 1791
4 G1 1 0 5 0
0

0101000
-226 13 +222 13 *
Ve
1.00000014210855e-07
814.999999999999 80 189.999993830649
0 0

0101101
*
Ed
 1e-07 1 1 0
1  5 0 79.9999938306489 1800
2  9 1 22 79.9999938306489 1800
2  10 6 23 79.9999938306489 1800
0

0101000
+224 24 -220 24 *
Ve
1.00000156319402e-07
100 80.0000000000002 1910
0 0

0101101
*
Ed
 1e-07 1 1 0
1  6 0 34.999999605319 65.000000394681
2  11 1 0 34.999999605319 65.000000394681
2  12 4 17 34.999999605319 65.000000394681
0

0101000
+222 13 -218 13 *
Ve
1e-07
794.999959040152 80 170.000000000042
0 0

0101101
*
Ed
 1e-07 1 1 0
1  7 0 4.71238693239228 6.28318499871203
2  13 1 22 4.71238693239228 6.28318499871203
2  14 7 23 4.71238693239228 6.28318499871203
0

0101000
+216 24 -220 24 *
Ve
1e-07
100 80 189.99999959672
0 0

0101101
*
Ed
 1e-07 1 1 0
1  8 0 0 1720.00000040328
2  15 1 22 0 1720.00000040328
2  16 8 23 0 1720.00000040328
0

0101000
+214 24 -218 24 *
Ve
1.00020975232391e-07
120.000000056926 80 170.000000000021
0 0

0101101
*
Ed
 1e-07 1 1 0
1  9 0 0 674.999958983225
2  17 1 22 0 674.999958983225
2  18 9 23 0 674.999958983225
0

0101000
+216 24 -212 24 *
Ed
 1e-07 1 1 0
1  10 0 3.14159267375378 4.71238898323101
2  19 1 22 3.14159267375378 4.71238898323101
2  20 10 23 3.14159267375378 4.71238898323101
0

0101000
+214 24 -212 24 *
Wi

0101100
-227 12 -225 0 -223 12 +221 12 +219 21 -217 12 -215 21 +213 21 +211 21 -210 21 
*
Fa
0  1e-07 1 10

0101000
+209 11 *
Ve
1.43198681143986e-05
865 99.9999928400659 120
0 0

0101101
*
Ve
2.00001625439074e-07
864.999999999999 99.9999928400659 1910
0 0

0101101
*
Ed
 1.00000625439074e-07 1 1 0
1  11 0 0.999999999999912 1791
2  21 2 0 0.999999999999912 1791
2  22 11 0 0.999999999999912 1791
4 G1 2 0 11 0
0

0101000
-207 13 +206 13 *
Ed
 1e-07 1 1 0
1  12 0 -0 1.5707980306754
2  23 2 12 -0 1.5707980306754
2  24 12 0 -0 1.5707980306754
4 G1 2 12 12 0
0

0101100
+207 14 -229 14 *
Ed
 1e-07 1 1 0
1  13 0 6.28318324530238 7.85398127597778
2  25 2 0 6.28318324530238 7.85398127597778
2  26 4 17 6.28318324530238 7.85398127597778
0

0101000
+228 13 -206 13 *
Wi

0101100
-205 12 -204 0 -203 12 +227 12 *
Fa
0  1e-07 2 0

0101000
+202 26 *
Ve
8.24750882202352e-05
845 99.9999928400659 100
0 0

0101101
*
Ed
 8.24750882202352e-05 1 1 0
1  14 0 0 1.5707963267949
2  27 3 0 0 1.5707963267949
2  28 12 0 0 1.5707963267949
4 G1 3 0 12 0
0

0101100
+229 14 -200 14 *
Ve
1.57872386807867e-06
69.9999992106381 100 100
0 0

0101101
*
Ed
 1e-07 1 1 0
1  15 0 -0 774.999959551818
2  29 3 0 -0 774.999959551818
2  30 13 30 -0 774.999959551818
4 G1 3 0 13 30
0

0101000
+200 14 -198 14 *
Ed
 1.57872386807867e-06 1 1 0
1  16 0 0 1.5707963267949
2  31 3 0 0 1.5707963267949
2  32 14 0 0 1.5707963267949
4 G1 3 0 14 0
0

0101100
+226 14 -198 14 *
Wi

0101100
+199 0 -225 0 +197 0 -196 0 *
Fa
0  1e-07 3 0

0101000
+195 0 *
Ve
1e-07
0 0 1910
0 0

0101101
*
Ve
2.00001e-07
100 0 1910
0 0

0101101
*
Ed
 1e-07 1 1 0
1  17 0 0 100
2  33 4 0 0 100
2  34 15 0 0 100
0

0101000
+193 32 -192 32 *
Ve
1e-07
0 915 1910
0 0

0101101
*
Ed
 1e-07 1 1 0
1  18 0 0 915
2  35 4 0 0 915
2  36 16 0 0 915
0

0101000
-190 32 +193 32 *
Ed
 1e-07 1 1 0
1  19 0 0.499999999999983 80.5000000000003
2  37 4 33 0.499999999999983 80.5000000000003
2  38 8 0 0.499999999999983 80.5000000000003
0

0101000
+192 34 -218 34 *
Ve
1e-07
915 915 1910
0 0

0101101
*
Ed
 1e-07 1 1 0
1  20 0 0 915
2  39 4 0 0 915
2  40 17 0 0 915
0

0101000
-187 32 +190 32 *
Ve
1e-07
915 0 1910
0 0

0101101
*
Ed
 1e-07 1 1 0
1  21 0 0 915
2  41 4 0 0 915
2  42 18 0 0 915
0

0101000
-187 32 +185 32 *
Ve
2.00001e-07
50 100.000000206168 1910
0 0

0101101
*
Ed
 1e-07 1 1 0
1  22 0 4.71238897007631 6.28318526771149
2  43 4 17 4.71238897007631 6.28318526771149
2  44 5 0 4.71238897007631 6.28318526771149
0

0101000
+183 13 -222 13 *
Ve
2.00001e-07
814.999999999999 0 1910
0 0

0101101
*
Ed
 1e-07 1 1 0
1  23 0 814.999999999999 915
2  45 4 0 814.999999999999 915
2  46 15 0 814.999999999999 915
0

0101000
+181 32 -185 32 *
Ve
0.000511707151663886
50 650.000167076258 1910
0 0

0101101
*
Ed
 1e-07 1 1 0
1  24 0 50.0000001030838 600.000166973174
2  47 4 17 50.0000001030838 600.000166973174
2  48 19 0 50.0000001030838 600.000166973174
0

0101000
+183 13 -179 13 *
Ed
 1e-07 1 1 0
1  25 0 -80.5000000000002 -0.499999999999824
2  49 4 33 -80.5000000000002 -0.499999999999824
2  50 6 0 -80.5000000000002 -0.499999999999824
0

0101000
+224 34 -181 34 *
Ve
2.00004424815986e-07
50.0000000000034 819.99998344522 1910
0 0

0101101
*
Ed
 1e-07 1 1 0
1  26 0 325.000083538129 494.99989990709
2  51 4 36 325.000083538129 494.99989990709
2  52 20 0 325.000083538129 494.99989990709
0

0101000
+179 37 -176 37 *
Ve
2.00004467448551e-07
70.0000165204094 839.999999999997 1910
0 0

0101101
*
Ed
 1e-07 1 1 0
1  27 0 3.14159182756932 4.71238980812371
2  53 4 36 3.14159182756932 4.71238980812371
2  54 21 0 3.14159182756932 4.71238980812371
0

0101000
+174 37 -176 37 *
Ve
0.00102371432444572
240 840 1910
0 0

0101101
*
Ed
 1e-07 1 1 0
1  28 0 -120 49.9999834795906
2  55 4 36 -120 49.9999834795906
2  56 22 0 -120 49.9999834795906
0

0101000
+172 37 -174 37 *
Ve
2.00001625277607e-07
864.999999999999 820.000007155362 1910
0 0

0101101
*
Ed
 1e-07 1 1 0
1  29 0 -410.000003577681 310.000010737615
2  57 4 17 -410.000003577681 310.000010737615
2  58 11 0 -410.000003577681 310.000010737615
0

0101000
+170 13 -206 13 *
Ve
2.00022259514648e-07
844.999958761585 839.999999999979 1910
0 0

0101101
*
Ed
 1e-07 1 1 0
1  30 0 120 724.999958761585
2  59 4 17 120 724.999958761585
2  60 23 0 120 724.999958761585
0

0101000
+172 13 -168 13 *
Ed
 1e-07 1 1 0
1  31 0 1.57079668456299 3.14159471551055
2  61 4 17 1.57079668456299 3.14159471551055
2  62 24 0 1.57079668456299 3.14159471551055
0

0101000
+170 13 -168 13 *
Wi

0101000
+191 31 -189 31 +188 5 -186 31 -217 25 +184 31 -182 25 +180 31 +178 25 +177 5 
+175 35 -223 25 -173 35 -203 25 -171 35 +169 25 +167 25 -166 25 *
Fa
0  1e-07 4 31

0101000
+165 0 *
Ve
4.12335140254072e-07
50 100.000000206168 120
0 0

0101101
*
Ed
 1e-07 1 1 0
1  32 0 -8.88178419700125e-16 1.57079629763518
2  63 5 12 -8.88178419700125e-16 1.57079629763518
2  64 14 0 -8.88178419700125e-16 1.57079629763518
4 G1 5 12 14 0
0

0101100
+226 14 -163 14 *
Ed
 1e-07 1 1 0
1  33 0 1.00000000000009 1791
2  65 5 0 1.00000000000009 1791
2  66 19 0 1.00000000000009 1791
4 G1 5 0 19 0
0

0101000
-163 13 +183 13 *
Wi

0101100
-221 12 -162 0 -182 12 +161 12 *
Fa
0  1e-07 5 0

0101000
+160 26 *
Ve
2.00001014210855e-07
814.999999999999 0 189.999993830649
0 0

0101101
*
Ed
 1.00000014210855e-07 1 1 0
1  34 0 0.999999999999966 81
2  67 6 0 0.999999999999966 81
2  68 7 0 0.999999999999966 81
4 G1 6 0 7 0
0

0101000
+158 34 -220 34 *
Ed
 1e-07 1 1 0
1  35 0 -805.000003084676 915.000003084676
2  69 6 0 -805.000003084676 915.000003084676
2  70 15 33 -805.000003084676 915.000003084676
0

0101000
+158 34 -181 34 *
Wi

0101000
-157 0 +219 38 -177 0 +156 0 *
Fa
0  1e-07 6 0

0101000
+155 0 *
Ve
2.00001e-07
794.999959040152 0 170.000000000042
0 0

0101101
*
Ed
 1e-07 1 1 0
1  36 0 6.28318325918718 7.85398132550693
2  71 7 0 6.28318325918718 7.85398132550693
2  72 15 33 6.28318325918718 7.85398132550693
0

0101000
+153 34 -158 34 *
Ed
 1e-07 1 1 0
1  37 0 0.99999999999997 81
2  73 7 0 0.99999999999997 81
2  74 9 0 0.99999999999997 81
4 G1 7 0 9 0
0

0101000
+153 34 -216 34 *
Wi

0101000
-152 0 -157 0 +215 38 +151 0 *
Fa
0  1e-07 7 0

0101000
+150 0 *
Ve
2.00001e-07
100 0 189.99999959672
0 0

0101101
*
Ed
 1e-07 1 1 0
1  38 0 0.999999999999966 81
2  75 8 0 0.999999999999966 81
2  76 10 0 0.999999999999966 81
4 G1 8 0 10 0
0

0101000
+148 34 -214 34 *
Ed
 1e-07 1 1 0
1  39 0 -1815.00000020164 -94.9999997983601
2  77 8 0 -1815.00000020164 -94.9999997983601
2  78 15 33 -1815.00000020164 -94.9999997983601
0

0101000
+192 34 -148 34 *
Wi

0101000
-188 0 +213 38 +147 0 +146 0 *
Fa
0  1e-07 8 0

0101000
+145 0 *
Ve
2.00021975232391e-07
120.000000056926 0 170.000000000021
0 0

0101101
*
Ed
 1.00020975232391e-07 1 1 0
1  40 0 0.99999999999997 81
2  79 9 0 0.99999999999997 81
2  80 10 0 0.99999999999997 81
4 G1 9 0 10 0
0

0101000
+143 34 -212 34 *
Ed
 1e-07 1 1 0
1  41 0 -277.499979463149 397.499979520076
2  81 9 0 -277.499979463149 397.499979520076
2  82 15 33 -277.499979463149 397.499979520076
0

0101000
+143 34 -153 34 *
Wi

0101000
-142 0 +211 38 +151 0 +141 0 *
Fa
0  1e-07 9 0

0101000
+140 0 *
Ed
 1e-07 1 1 0
1  42 0 4.71238900054867 6.28318531002591
2  83 10 0 4.71238900054867 6.28318531002591
2  84 15 33 4.71238900054867 6.28318531002591
0

0101000
+148 34 -143 34 *
Wi

0101000
-138 0 -142 0 +210 38 +147 0 *
Fa
0  1e-07 10 0

0101000
+137 0 *
Ve
1.43107235999196e-05
864.999999999999 820.000007155362 120
0 0

0101101
*
Ed
 1e-07 1 1 0
1  43 0 0 720.000014315296
2  85 11 12 0 720.000014315296
2  86 25 0 0 720.000014315296
4 G1 11 12 25 0
0

0101000
+135 14 -207 14 *
Ed
 1.00000625277607e-07 1 1 0
1  44 0 0.999999999999912 1791
2  87 11 0 0.999999999999912 1791
2  88 24 0 0.999999999999912 1791
4 G1 11 0 24 0
0

0101000
-135 13 +170 13 *
Wi

0101100
-205 12 +134 0 -169 12 +133 12 *
Fa
0  1e-07 11 0

0101000
+132 26 *
Ed
 1.43198681143986e-05 1 1 0
1  45 0 0 1.5707963267949
2  89 12 0 0 1.5707963267949
2  90 25 0 0 1.5707963267949
4 G1 12 0 25 0
0

0101100
+207 14 -200 14 *
Ed
 1e-07 1 1 1
2  91 12 0 -0 1.5707980306754
0

0101000
+200 14 -200 14 *
Wi

0101100
-130 0 +204 0 -129 0 +199 0 *
Fa
0  1e-07 12 0

0101000
+128 0 *
Ve
1e-07
465 765 100
0 0

0101101
*
Ve
2.00001e-07
490 740 100
0 0

0101101
*
Ed
 1e-07 1 1 0
1  46 0 0 1.5707963267949
2  92 13 39 0 1.5707963267949
2  93 26 0 0 1.5707963267949
0

0101000
+126 40 -125 40 *
Ed
 1e-07 1 1 0
1  47 0 1.5707963267949 6.28318530717959
2  94 13 39 1.5707963267949 6.28318530717959
2  95 26 0 1.5707963267949 6.28318530717959
0

0101000
+125 40 -126 40 *
Wi

0101000
+124 0 +123 0 *
Ve
6.18553046224246e-06
240 820 100
0 0

0101101
*
Ve
8.24768303573364e-05
844.999958761585 820 100
0 0

0101101
*
Ed
 1e-07 1 1 0
1  48 0 0 604.999958761585
2  96 13 30 0 604.999958761585
2  97 27 0 0 604.999958761585
4 G1 13 30 27 0
0

0101000
+121 14 -120 14 *
Ve
1.39354631872251e-06
70 650.000167076258 100
0 0

0101101
*
Ed
 1e-07 1 1 0
1  49 0 8.5265128291212e-14 240.4161848973
2  98 13 30 8.5265128291212e-14 240.4161848973
2  99 28 0 8.5265128291212e-14 240.4161848973
4 G1 13 30 28 0
0

0101000
+118 14 -121 14 *
Ed
 1e-07 1 1 0
1  50 0 0 720.000014315296
2  100 13 30 0 720.000014315296
2  101 25 0 0 720.000014315296
4 G1 13 30 25 0
0

0101000
+120 14 -200 14 *
Ed
 1e-07 1 1 0
1  51 0 1.4210854715202e-14 550.000166870091
2  102 13 30 1.4210854715202e-14 550.000166870091
2  103 29 0 1.4210854715202e-14 550.000166870091
4 G1 13 30 29 0
0

0101000
+198 14 -118 14 *
Wi

0101000
-119 27 -117 27 -116 27 -115 27 -197 27 *
Fa
0  1e-07 13 39

0101000
+122 0 +114 0 *
Ed
 1e-07 1 1 1
2  104 14 0 -8.88178419700125e-16 1.57079629763518
0

0101000
+198 14 -198 14 *
Ed
 4.12335140254072e-07 1 1 0
1  52 0 0 1.5707963267949
2  105 14 0 0 1.5707963267949
2  106 29 0 0 1.5707963267949
4 G1 14 0 29 0
0

0101100
+163 14 -198 14 *
Wi

0101100
-196 0 +162 0 -112 0 +111 0 *
Fa
0  1e-07 14 0

0101000
+110 0 *
Ve
1e-07
0 0 0
0 0

0101101
*
Ed
 1e-07 1 1 0
1  53 0 0 1910
2  107 15 0 0 1910
2  108 16 0 0 1910
0

0101000
-193 32 +108 32 *
Ve
1e-07
915 0 0
0 0

0101101
*
Ed
 1e-07 1 1 0
1  54 0 0 915
2  109 15 0 0 915
2  110 30 0 0 915
0

0101000
-106 32 +108 32 *
Ed
 1e-07 1 1 0
1  55 0 0 1910
2  111 15 0 0 1910
2  112 18 0 0 1910
0

0101000
-185 32 +106 32 *
Wi

0101000
+141 0 +138 0 +146 0 +191 33 +107 33 -105 33 -104 33 +180 33 +156 0 +152 0 
*
Fa
0  1e-07 15 33

0101000
+103 0 *
Ve
1e-07
0 915 0
0 0

0101101
*
Ed
 1e-07 1 1 0
1  56 0 0 1910
2  113 16 0 0 1910
2  114 17 0 0 1910
0

0101000
-190 32 +101 32 *
Ed
 1e-07 1 1 0
1  57 0 0 915
2  115 16 0 0 915
2  116 30 0 0 915
0

0101000
-101 32 +108 32 *
Wi

0101000
-107 0 -189 0 +100 0 +99 0 *
Fa
0  1e-07 16 0

0101000
+98 0 *
Ve
1e-07
915 915 0
0 0

0101101
*
Ed
 1e-07 1 1 0
1  58 0 0 915
2  117 17 0 0 915
2  118 30 0 0 915
0

0101000
-96 32 +101 32 *
Ed
 1e-07 1 1 0
1  59 0 0 1910
2  119 17 0 0 1910
2  120 18 0 0 1910
0

0101000
-187 32 +96 32 *
Wi

0101000
-95 0 -94 0 +186 0 +100 0 *
Fa
0  1e-07 17 0

0101000
+93 0 *
Ed
 1e-07 1 1 0
1  60 0 0 915
2  121 18 0 0 915
2  122 30 0 0 915
0

0101000
-96 32 +106 32 *
Wi

0101000
-104 0 -184 0 +94 0 +91 0 *
Fa
0  1e-07 18 0

0101000
+90 0 *
Ve
1.71363126355573e-07
50 650.000167076258 120
0 0

0101101
*
Ed
 1e-07 1 1 0
1  61 0 1.4210854715202e-14 550.000166870091
2  123 19 12 1.4210854715202e-14 550.000166870091
2  124 29 0 1.4210854715202e-14 550.000166870091
4 G1 19 12 29 0
0

0101000
+163 14 -88 14 *
Ve
0.015604062418539
50 650.000167076258 970
0 0

0101101
*
Ed
 1e-07 1 1 0
1  62 0 941 1791
2  125 19 0 941 1791
2  126 31 0 941 1791
4 G1 19 0 31 0
0

0101000
-88 13 +86 13 *
Ed
 1e-07 1 1 0
1  63 0 1.00000000000009 941
2  127 19 0 1.00000000000009 941
2  128 20 43 1.00000000000009 941
0

0101000
+179 13 -86 13 *
Wi

0101100
+161 12 +87 0 -178 12 -85 12 -84 12 *
Fa
0  1e-07 19 41

0101000
+83 42 *
Ve
1.00003424815986e-07
50.0000000000034 819.99998344522 970
0 0

0101101
*
Ed
 1.00003424815986e-07 1 1 0
1  64 0 0.999999999999915 941
2  129 20 0 0.999999999999915 941
2  130 21 0 0.999999999999915 941
4 G1 20 0 21 0
0

0101000
+176 37 -81 37 *
Ed
 1e-07 1 1 0
1  65 0 0 169.999816368961
2  131 20 48 0 169.999816368961
2  132 32 49 0 169.999816368961
0

0101000
+86 50 -81 50 *
Wi

0101000
-175 0 -80 0 +79 47 +84 41 *
Fa
0  1e-07 20 0

0101000
+78 0 *
Ve
1.00003467448551e-07
70.0000165204094 839.999999999997 970
0 0

0101101
*
Ed
 1e-07 1 1 0
1  66 0 1.57079550077443 3.14159348132881
2  133 21 48 1.57079550077443 3.14159348132881
2  134 32 49 1.57079550077443 3.14159348132881
0

0101000
+76 50 -81 50 *
Ed
 1.00003467448551e-07 1 1 0
1  67 0 1.00000000000006 941
2  135 21 0 1.00000000000006 941
2  136 22 0 1.00000000000006 941
4 G1 21 0 22 0
0

0101000
+174 37 -76 37 *
Wi

0101000
-173 0 -80 0 +75 47 +74 0 *
Fa
0  1e-07 21 0

0101000
+73 0 *
Ve
0.098100524674305
240 840 970
0 0

0101101
*
Ed
 1e-07 1 1 0
1  68 0 0 169.999983479591
2  137 22 48 0 169.999983479591
2  138 32 49 0 169.999983479591
0

0101000
+71 50 -76 50 *
Ed
 1e-07 1 1 0
1  69 0 -941 -1
2  139 22 0 -941 -1
0

0101000
+71 37 -172 37 *
Wi

0101000
-171 0 -74 0 +70 47 -69 0 *
Fa
0  1e-07 22 0

0101000
+68 0 *
Ve
8.24768303573364e-05
844.999958761585 840 120
0 0

0101101
*
Ed
 1.00021259514648e-07 1 1 0
1  70 0 1.00000000000007 1791
2  140 23 0 1.00000000000007 1791
2  141 24 0 1.00000000000007 1791
4 G1 23 0 24 0
0

0101000
-66 13 +168 13 *
Ve
6.50522622436256e-07
240 840 120
0 0

0101101
*
Ed
 1e-07 1 1 0
1  71 0 0 604.999958761585
2  142 23 12 0 604.999958761585
2  143 27 0 0 604.999958761585
4 G1 23 12 27 0
0

0101000
+64 14 -66 14 *
Ed
 1e-07 1 1 0
1  72 0 941 1791
2  144 23 0 941 1791
2  145 33 0 941 1791
4 G1 23 0 33 0
0

0101000
-64 13 +71 13 *
Ed
 1.00000014210855e-07 1 1 0
1  73 0 1 941
2  146 23 41 1 941
0

0101000
+172 37 -71 37 *
Wi

0101100
-65 12 +63 0 -167 12 +62 12 +61 51 *
Fa
0  1e-07 23 41

0101000
+60 42 *
Ed
 1e-07 1 1 0
1  74 0 1.11022302462516e-15 1.57079803094756
2  147 24 12 1.11022302462516e-15 1.57079803094756
2  148 34 0 1.11022302462516e-15 1.57079803094756
4 G1 24 12 34 0
0

0101100
+66 14 -135 14 *
Wi

0101100
-65 12 -58 0 -166 12 +133 12 *
Fa
0  1e-07 24 0

0101000
+57 26 *
Ed
 1.43107235999196e-05 1 1 0
1  75 0 0 1.5707963267949
2  149 25 0 0 1.5707963267949
2  150 34 0 0 1.5707963267949
4 G1 25 0 34 0
0

0101100
+135 14 -120 14 *
Wi

0101100
+55 0 -134 0 +116 0 -130 0 *
Fa
0  1e-07 25 0

0101000
+54 0 *
Ve
2.00001e-07
490 740 0
0 0

0101101
*
Ed
 1e-07 1 1 0
1  76 0 1 101
3  151 152CN 26 0 1 101
0

0101000
+52 40 -125 40 *
Ve
1e-07
465 765 0
0 0

0101101
*
Ed
 1e-07 1 1 0
1  77 0 1.5707963267949 6.28318530717959
2  153 26 0 1.5707963267949 6.28318530717959
2  154 30 31 1.5707963267949 6.28318530717959
0

0101000
+52 40 -50 40 *
Ed
 1e-07 1 1 0
1  78 0 0 1.5707963267949
2  155 26 0 0 1.5707963267949
2  156 30 31 0 1.5707963267949
0

0101000
+50 40 -52 40 *
Wi

0101000
+51 0 -49 0 -48 0 -51 0 +124 0 +123 0 *
Fa
0  1e-07 26 0

0101000
+47 0 *
Ed
 6.50522622436256e-07 1 1 0
1  79 0 0 1.5707963267949
2  157 27 0 0 1.5707963267949
2  158 35 0 0 1.5707963267949
4 G1 27 0 35 0
0

0101100
+64 14 -121 14 *
Ed
 8.24768303573364e-05 1 1 0
1  80 0 0 1.5707963267949
2  159 27 0 0 1.5707963267949
2  160 34 0 0 1.5707963267949
4 G1 27 0 34 0
0

0101100
+66 14 -120 14 *
Wi

0101100
+45 0 -63 0 +119 0 -44 0 *
Fa
0  1e-07 27 0

0101000
+43 0 *
Ve
1.39354631872251e-06
55.8578708159441 664.14230905398 120
0 0

0101101
*
Ed
 1.39354631872251e-06 1 1 0
1  81 0 0 1.5707963267949
2  161 28 0 0 1.5707963267949
2  162 36 0 0 1.5707963267949
4 G1 28 0 36 0
0

0101100
+41 14 -118 14 *
Ve
6.18553046224246e-06
225.85786879646 834.142140369182 120
0 0

0101101
*
Ed
 1e-07 1 1 0
1  82 0 8.5265128291212e-14 240.4161848973
2  163 28 0 8.5265128291212e-14 240.4161848973
2  164 37 12 8.5265128291212e-14 240.4161848973
4 G1 28 0 37 12
0

0101000
+41 14 -39 14 *
Ed
 6.18553046224246e-06 1 1 0
1  83 0 0 1.5707963267949
2  165 28 0 0 1.5707963267949
2  166 35 0 0 1.5707963267949
4 G1 28 0 35 0
0

0101100
+39 14 -121 14 *
Wi

0101100
+40 0 -38 0 +117 0 -37 0 *
Fa
0  1e-07 28 0

0101000
+36 0 *
Ed
 1.71363126355573e-07 1 1 0
1  84 0 0 1.5707963267949
2  167 29 0 0 1.5707963267949
2  168 36 0 0 1.5707963267949
4 G1 29 0 36 0
0

0101100
+88 14 -118 14 *
Wi

0101100
+111 0 -87 0 +115 0 -34 0 *
Fa
0  1e-07 29 0

0101000
+33 0 *
Wi

0101000
+48 0 +49 0 *
Wi

0101000
-99 31 -95 31 +105 31 +91 31 *
Fa
0  1e-07 30 31

0101000
+31 0 +30 0 *
Ed
 1e-07 1 1 0
1  85 0 -4.44089209850063e-16 0.785398614467054
2  169 31 12 -4.44089209850063e-16 0.785398614467054
2  170 36 0 -4.44089209850063e-16 0.785398614467054
4 G1 31 12 36 0
0

0101100
+88 14 -41 14 *
Ve
2.00001017763568e-07
55.8578708159441 664.14230905398 970
0 0

0101101
*
Ed
 1e-07 1 1 0
1  86 0 3.92699036163356 4.71238897610061
2  171 31 41 3.92699036163356 4.71238897610061
2  172 32 52 3.92699036163356 4.71238897610061
0

0101000
+27 37 -86 37 *
Ed
 1.00000017763568e-07 1 1 0
1  87 0 941 1791
2  173 31 0 941 1791
2  174 37 0 941 1791
4 G1 31 0 37 0
0

0101000
-41 13 +27 13 *
Wi

0101100
-85 12 -28 0 -26 51 +25 12 *
Fa
0  1e-07 31 41

0101000
+24 42 *
Ve
2.00001113686838e-07
225.85786879646 834.142140369182 970
0 0

0101101
*
Ed
 1e-07 1 1 0
1  88 0 7.07106600706121 247.487250904361
2  175 32 52 7.07106600706121 247.487250904361
2  176 37 41 7.07106600706121 247.487250904361
0

0101000
+22 37 -27 37 *
Ed
 1e-07 1 1 0
1  89 0 3.14159263732673 3.92699048143316
2  177 32 52 3.14159263732673 3.92699048143316
2  178 33 41 3.14159263732673 3.92699048143316
0

0101000
+71 37 -22 37 *
Wi

0101000
-70 47 -75 47 +79 47 +26 0 +21 0 +20 0 *
Fa
0  1e-07 32 52

0101000
+19 0 *
Ed
 1.00000113686838e-07 1 1 0
1  90 0 941 1791
2  179 33 0 941 1791
2  180 37 0 941 1791
4 G1 33 0 37 0
0

0101000
-39 13 +22 13 *
Ed
 1e-07 1 1 0
1  91 0 -0 0.785397844106435
2  181 33 12 -0 0.785397844106435
2  182 35 0 -0 0.785397844106435
4 G1 33 12 35 0
0

0101100
+39 14 -64 14 *
Wi

0101100
-17 12 -16 0 -20 51 +62 12 *
Fa
0  1e-07 33 41

0101000
+15 42 *
Ed
 1e-07 1 1 1
2  183 34 0 1.11022302462516e-15 1.57079803094756
0

0101000
+120 14 -120 14 *
Wi

0101100
-44 0 +58 0 -13 0 +55 0 *
Fa
0  1e-07 34 0

0101000
+12 0 *
Ed
 1e-07 1 1 1
2  184 35 0 -0 0.785397844106435
0

0101000
+121 14 -121 14 *
Wi

0101100
-37 0 +16 0 -10 0 +45 0 *
Fa
0  1e-07 35 0

0101000
+9 0 *
Ed
 1e-07 1 1 1
2  185 36 0 -4.44089209850063e-16 0.785398614467054
0

0101000
+118 14 -118 14 *
Wi

0101100
-34 0 +28 0 -7 0 +40 0 *
Fa
0  1e-07 36 0

0101000
+6 0 *
Wi

0101100
-25 12 -38 0 -21 51 +17 12 *
Fa
0  1e-07 37 41

0101000
+4 42 *
Sh

0101000
-208 5 -201 25 +194 27 +164 0 -159 25 +154 5 -149 5 +144 5 +139 5 -136 5 
+131 25 -127 27 +113 0 -109 27 -102 5 -97 31 +92 31 +89 31 +82 35 +77 35 
-72 35 -67 35 +59 35 -56 25 +53 27 -46 0 +42 27 +35 27 +32 27 -29 0 
-23 35 -18 35 -14 35 -11 27 -8 27 -5 27 -3 35 *
So

0100000
+2 0 *

+1 1 