DBRep_DrawableShape

CASCADE Topology V1, (c) Matra-Datavision
Locations 68
1
              1               0               0               0 
              0               1               0               0 
              0               0               1               0 
1
              1               0               0               0 
              0               1               0               0 
              0               0               1               0 
1
              1               0               0               0 
              0               1               0               0 
              0               0               1               0 
1
              1               0               0               0 
              0               1               0               0 
              0               0               1               0 
1
              1               0               0               0 
              0               1               0               0 
              0               0               1               0 
1
              1               0               0               0 
              0               1               0               0 
              0               0               1               0 
2  2 1 3 1 4 -1 5 1 6 -1 0
1
              1               0               0               0 
              0               1               0               0 
              0               0               1               0 
1
              1               0               0               0 
              0               1               0               0 
              0               0               1               0 
1
              1               0               0               0 
              0               1               0               0 
              0               0               1               0 
1
              1               0               0               0 
              0               1               0               0 
              0               0               1               0 
2  8 1 9 -1 10 1 11 -1 0
2  2 -1 0
2  8 1 9 -1 10 1 11 -1 2 1 0
2  1 -1 6 1 5 -1 4 1 3 -1 2 -1 11 1 10 -1 9 1 8 -1 0
2  1 -1 6 1 5 -1 4 1 3 -1 0
1
              1               0               0               0 
              0               1               0               0 
              0               0               1               0 
1
              1               0               0               0 
              0               1               0               0 
              0               0               1               0 
2  17 1 18 -1 0
1
              1              -0               0              -0 
              0 1.77321265310004e-16              -1              -0 
              0               1 1.77321265310004e-16               0 
1
              1               0               0               0 
              0               1               0              -1 
              0               0               1 2.22044604925031e-16 
1
              1               0               0               0 
              0               1               0              81 
              0               0               1 -1.79856129989275e-14 
2  20 1 21 1 11 -1 22 1 2 1 0
2  8 1 9 -1 10 1 11 -1 22 -1 11 1 21 -1 20 -1 0
2  22 -1 11 1 21 -1 20 -1 0
2  1 -1 6 1 5 -1 4 1 3 -1 2 -1 22 -1 11 1 21 -1 20 -1 0
2  8 1 9 -1 10 1 11 -1 2 1 3 1 4 -1 5 1 6 -1 0
2  2 -1 11 1 10 -1 9 1 8 -1 0
2  3 1 4 -1 5 1 6 -1 0
1
              1               0               0               0 
              0               1               0               0 
              0               0               1               1 
1
              1               0               0              -0 
              0               1               0              -0 
              0               0               1           -1811 
2  30 1 18 -1 31 1 8 1 9 -1 10 1 11 -1 2 1 0
2  5 1 6 -1 0
2  17 1 18 -1 8 1 9 -1 10 1 11 -1 2 1 3 1 4 -1 0
2  1 -1 6 1 5 -1 4 1 3 -1 2 -1 11 1 10 -1 9 1 8 -1 18 1 17 -1 0
2  2 1 3 1 4 -1 0
2  17 1 18 -1 8 1 9 -1 10 1 11 -1 0
2  1 -1 6 1 5 -1 4 1 3 -1 2 -1 0
2  8 1 9 -1 10 1 11 -1 2 1 3 1 4 -1 0
2  10 1 11 -1 2 1 3 1 4 -1 0
2  17 1 18 -1 8 1 9 -1 0
2  1 -1 6 1 5 -1 4 1 3 -1 2 -1 11 1 10 -1 0
2  20 1 21 1 11 -1 22 1 0
2  30 1 18 -1 31 1 8 1 9 -1 10 1 11 -1 2 1 3 1 4 -1 5 1 6 -1 0
2  1 -1 0
2  17 1 18 -1 8 1 9 -1 10 1 11 -1 2 1 3 1 4 -1 5 1 6 -1 0
2  10 1 11 -1 2 1 3 1 4 -1 5 1 6 -1 0
2  8 1 9 -1 0
2  2 -1 11 1 10 -1 0
2  9 1 8 -1 0
1
              1               0               0              -0 
              0               1               0               0 
              0               0               1            1910 
1
              1               0               0               0 
              0               1               0               0 
              0               0               1               1 
1
              1               0               0              -0 
              0               1               0              -0 
              0               0               1            -941 
2  51 1 52 1 9 -1 53 1 0
2  53 -1 9 1 52 -1 51 -1 0
2  51 -1 0
2  1 -1 6 1 5 -1 4 1 3 -1 2 -1 11 1 10 -1 53 -1 9 1 52 -1 51 -1 0
2  10 1 11 -1 2 1 0
1
              1               0               0              -0 
              0               1               0               0 
              0               0               1             100 
1
              1               0               0               0 
              0               1               0               0 
              0               0               1               1 
1
              1               0               0              -0 
              0               1               0              -0 
              0               0               1              -6 
2  59 1 60 1 6 -1 61 1 0
2  61 -1 6 1 60 -1 59 -1 0
2  59 -1 0
2  1 -1 61 -1 6 1 60 -1 59 -1 0
2  1 -1 6 1 5 -1 0
2  52 1 9 -1 53 1 0
2  60 1 6 -1 61 1 0
Curve2ds 193
1 774.99995955181782 0 0 -1 
1 4.7123869185074803 0 0 -1 
1 774.99995955181782 -1791 -1 -0 
1 0 0 0 1 
8 34.99999960531904 809.99995915713691
1 -34.99999960531904 -1 1 0 
8 34.99999960531904 809.99995915713691
1 34.99999960531904 80.000000000000014 1 0 
1 0 0 0 -1 
1 4.7123889409165942 0 0 -1 
1 745.00000078936102 78.999993830648918 0 -1 
1 -1.4363022490110344e-14 -81 1 0 
8 34.99999960531904 809.99995915713691
1 -34.99999960531904 -1 1 0 
8 34.99999960531904 809.99995915713691
1 34.99999960531904 80.000000000000014 1 0 
2 725.00000078936193 -1721 1 0 -0 1 20
1 0 -81 1 0 
1 30.00000078936192 -1721.0000004032797 0 1 
1 -1.4058686940293665e-14 -81 1 0 
1 724.99995982951384 -1740.9999999999582 -1 0 
1 0 -81 1 0 
2 50.00000078936192 -1721 1 0 -0 1 20
1 0 -81 1 0 
1 6.283184949182882 0 0 -1 
1 720.00001431529586 0 0 -1 
1 6.283184949182882 -1791 -1 -0 
1 0 0 1 0 
1 -1.5707963267948966 -1 1 0 
2 845 100 0 -1 1 0 20
8 0 1.5707963267948966
1 0 0 1 0 
8 0 1.5707963267948966
1 1.5707980306754017 0 0 1 
1 1.5707963267948966 0 0 1 
1 604.99995876245589 -740 -1 -0 
8 0 1.5707963267948966
1 0 774.99995955181782 1 0 
8 0 1.5707963267948966
1 -8.8817841970012523e-16 0 0 1 
1 0 0 1 0 
1 1910 0 0 1 
1 0 0 0 1 
1 1910 0 0 -1 
8 0.49999999999998318 80.500000000000327
1 100 -0.49999999999998318 0 1 
8 0.49999999999998318 80.500000000000327
1 1720.0000004032797 -0.4999999999996782 1.7732126531000425e-16 -1 
1 0 915 1 0 
1 1910 0 0 1 
1 915 0 0 1 
1 1910 0 0 -1 
2 70 100 0 -1 1 0 20
1 -1.5707963267948966 -1 1 0 
1 0 0 1 0 
1 1910 0 0 1 
8 50.000000103083785 600.00016697317437
1 50 50.000000103083785 0 1 
8 50.000000103083785 600.00016697317437
1 -50.000000103083785 -1 1 0 
8 -80.500000000000156 -0.49999999999982359
1 814.99999999999909 -0.49999999999982359 0 -1 
8 -80.500000000000156 -0.49999999999982359
1 79.999993830648918 -0.4999999999998378 1.7732126531000425e-16 1 
8 325.0000835381291 494.99989990709042
1 50 325.0000835381291 0 1 
8 325.0000835381291 494.99989990709042
1 -325.0000835381291 -1 1 0 
2 70 819.99999999999989 0 -1 1 0 20
1 -1.5707963267948966 -1 1 0 
8 -120 49.999983479590611
1 120 840 -1 0 
8 -120 49.999983479590611
1 120 -1 1 0 
8 -410.0000035776809 310.00001073761496
1 865 410.0000035776809 0 -1 
8 -410.0000035776809 310.00001073761496
1 410.0000035776809 -1 1 0 
8 120 724.99995876158494
1 120 840 1 0 
8 120 724.99995876158494
1 -120 -1 1 0 
2 845 820 0 -1 1 0 20
1 -1.5707963267948966 -1 1 0 
1 4.7123889409165933 -1791 -1 -0 
1 0 0 1 0 
1 3.1415926432814145 0 0 -1 
1 0 0 0 -1 
1 1800 1.0842021724855044e-17 4.4723339615027058e-17 -1 
1 6.2831849987120307 0 0 -1 
8 -805.00000308467554 915.00000308467554
1 994.99999691532446 -0.99999999999982359 -1 1.7732126531000425e-16 
8 -805.00000308467554 915.00000308467554
1 994.99999691532446 814.99999999999909 1 0 
1 -1.5707963267948966 -0.99999999999996636 1 0 
2 190 795 -1 0 0 1 20
1 4.7123869323922829 0 0 -1 
1 0 0 0 -1 
1 0 0 -4.4723339615027058e-17 -1 
1 3.1415926737537787 0 0 -1 
8 -1815.0000002016398 -94.999999798360136
1 -94.99999979836015 -0.99999999999998324 -1 -1.7732126531000425e-16 
8 -1815.0000002016398 -94.999999798360136
1 94.99999979836015 100 -1 0 
1 674.99995898322538 0 0 -1 
1 4.7123889832310137 0 0 -1 
8 -277.49997946314943 397.49997952007595
1 397.49997952007595 -0.9999999999999698 -1 0 
8 -277.49997946314943 397.49997952007595
1 170.00000000004195 397.49997952007595 0 1 
1 -1.5707963267948966 -0.99999999999996636 1 0 
2 190 120 -1 0 0 1 20
1 0 -1791 1 0 
1 0 0 0 1 
1 0 0 0 -1 
1 3.5776809269742789e-07 0 0 -1 
8 0 1.5707963267948966
1 0 0 0 1 
8 0 1.5707963267948966
1 0 720.00001431529586 1 0 
1 0 1.5707963267948966 1 0 
2 225 -100 0 -1 1 0 40
1 -1.5707963267948966 -1 1 0 
2 225 -100 0 -1 1 0 40
1 4.7123889803846897 -1 1 0 
1 0 -20 1 0 
1 1.5707963267948966 0 0 1 
1 -170.0000004926934 -189.9998335021163 0.70710712780479401 0.70710643456813116 
1 1.5707963267948966 0 0 1 
1 605 -19.9999928446382 0 -1 
1 1.5707963267948966 0 0 1 
1 -170 -739.99999979383244 0 1 
1 1.5707963267948966 0 0 1 
1 0 1.5707963267948966 1 0 
8 0 1.5707963267948966
1 1.5707962976351788 0 0 1 
8 0 1.5707963267948966
1 0 1.4210854715202004e-14 1 0 
1 0 0 1 0 
1 0 0 1 0 
1 0 0 0 1 
1 0 0 1 0 
1 0 915 1 0 
1 0 0 1 0 
1 0 -915 1 0 
1 0 0 1 0 
1 0 0 0 -1 
1 0 0 0 1 
1 0 0 0 1 
1 0 915 1 0 
1 0 915 1 0 
1 0 -915 1 0 
1 0 0 0 -1 
1 915 0 0 1 
1 -1.4210854715202004e-14 -1791 1 0 
1 0 0 0 1 
1 550.00016687009054 0 0 -1 
1 3.1415926493057156 0 0 -1 
1 550.00016687009054 0 0 -1 
1 -1.1368683772161603e-13 0 0 -1 
1 169.99981636896132 0 0 -1 
1 3.1415934813288131 0 0 -1 
1 0 -941 1 0 
1 190 -189.99983292374179 0 1 
1 0 -941 1 0 
2 170 -20.000000000000114 -1 0 0 1 20
1 1.5707955007744272 0 0 -1 
1 169.99998347959061 0 0 -1 
1 0 -941 1 0 
1 0 0 1 0 
8 -1035.0999999999999 94.099999999999909
1 3.2526131121812796e-07 0 0 1 
1 604.99995876158482 0 0 -1 
1 1.5707983887156545 0 0 -1 
1 0 -1791 1 0 
1 0 0 0 1 
1 0 0 0 -1 
1 1.5707963105318312 0 0 -1 
1 0 0 0 -1 
1 1.5707983887156556 -1791 -1 -0 
1 0 0 1 0 
8 0 1.5707963267948966
1 0 0 1 0 
8 0 1.5707963267948966
1 1.5707980309475629 0 0 1 
1 0 0 0 -1 
1 6.2831853071795862 0 0 -1 
1 0 -6 1 0 
2 40 0 -1 0 0 1 40
8 0 1.5707963267948966
1 0 0 1 0 
8 0 1.5707963267948966
1 0.78539784410643487 0 0 1 
8 0 1.5707963267948966
1 0 604.99995876158482 1 0 
8 0 1.5707963267948966
1 1.1102230246251565e-15 0 0 1 
8 0 1.5707963267948966
1 0 8.5265128291212022e-14 1 0 
8 0 1.5707963267948966
1 0.78539861446705439 0 0 1 
1 0 0 0 1 
1 240.41618489729964 -1791 -1 0 
8 0 1.5707963267948966
1 0 240.41618489729953 1 0 
8 0 1.5707963267948966
1 0 0 0 1 
8 0 1.5707963267948966
1 0 550.00016687009054 1 0 
8 0 1.5707963267948966
1 -4.4408920985006262e-16 0 0 1 
2 465 740 0 1 1 -0 25
1 4.7123889803846897 -1 1 0 
2 465 740 0 1 1 -0 25
1 -1.5707963267948966 -1 1 0 
1 3.1415926493057151 -1791 -1 -0 
1 0 0 1 0 
1 -1.5707963267948966 -941 1 0 
2 170 -189.99983300942347 0 -1 -1 -0 20
1 2.3561940348386607 0 0 -1 
1 240.41618489729956 0 0 -1 
8 7.0710660070612121 247.48725090436076
1 9.1421300287690315 -0.85786335796933599 0.70710712780479401 -0.70710643456813116 
8 7.0710660070612121 247.48725090436076
1 -7.0710660070612121 -941 1 -0 
2 3.2526131121812796e-07 -20 0 -1 -1 -0 20
1 -1.5707963267948966 -941 1 0 
1 2.3561941546382661 0 0 -1 
1 1.2058308112392845e-13 0 0 -1 
1 2.3561941546382661 -1791 -1 -0 
1 0 0 1 0 
1 0 1.5707963267948966 1 0 
2 40 0 0 1 -1 0 25
1 -1.5707963267948966 -96 1 0 
2 40 0 0 1 -1 0 25
1 4.7123889803846897 -96 1 0 
1 0 1.5707963267948966 1 0 
1 0 1.5707963267948966 1 0 
1 0 0 0 -1 
1 6.2831853071795862 0 0 -1 
Curves 95
1 844.99995876245589 80.000000000021259 1911 -0 -0 -1 
1 844.99995876245589 80 120 -1 -0 -0 
1 34.99999960531904 80.000000000000014 1910 1 0 -0 
1 69.99999921063808 80.000000000000014 1911 -0 -0 -1 
1 814.99999999999909 1989.9999938306489 0 0 -1 0 
1 34.99999960531904 80.000000000000014 1910 1 0 -0 
2 795 190 0 0 0 1 1 0 -0 -0 1 0 20
1 100 189.9999995967203 0 0 1 0 
1 794.99995904015191 170.00000000004195 0 -1 0 0 
2 120 190 0 0 0 1 1 0 -0 -0 1 0 20
1 864.99999999999932 99.999992840065929 1911 -0 -0 -1 
2 845 100 120 -0 -0 -1 0.99999999999993594 -3.5799670428104888e-07 0 -3.5799670428104888e-07 -0.99999999999993594 0 20
2 845 100 1910 0 0 1 0 -1 0 1 0 -0 20
2 845 100 120 0.99999999999787437 -2.0618772093511806e-06 0 -2.0618772093511806e-06 -0.99999999999787437 0 0 -0 -1 20
1 844.99995876245589 100 100 -1 -0 -0 
2 69.999999210638066 100 120 1 0 0 0 -1 0 0 0 -1 20
1 0 0 1910 1 0 -0 
1 0 0 1910 -0 1 0 
1 100 -0.49999999999998318 1910 0 1 -0 
1 0 915 1910 1 0 -0 
1 915 0 1910 0 1 0 
2 70 100 1910 0 0 1 0 -1 0 1 0 -0 20
1 0 0 1910 1 0 -0 
1 50 50.000000103083785 1910 0 1 0 
1 814.99999999999909 -0.49999999999982359 1910 -0 -1 0 
1 50 325.0000835381291 1910 0 1 0 
2 70 819.99999999999989 1910 0 0 1 0 -1 0 1 0 -0 20
1 120 840 1910 -1 0 0 
1 865 410.0000035776809 1910 0 -1 0 
1 120 840 1910 1 0 -0 
2 845 820 1910 0 0 1 0 -1 0 1 0 -0 20
2 70 100 120 -0 -0 -1 -3.9468095991423974e-08 -0.99999999999999922 0 -0.99999999999999922 3.9468095991423974e-08 0 20
1 50 100.00000020616757 1911 -0 -0 -1 
1 814.99999999999909 -0.99999999999996636 189.99999383064892 0 1 -2.2204460492503131e-16 
1 814.99999999999909 0 994.99999691532446 -0 0 1 
2 795 0 190 0 -1 1.7732126531000425e-16 0 -1.7732126531000425e-16 -1 1 0 0 20
1 794.99995904015191 -0.9999999999999698 170.00000000004195 0 1 -2.2204460492503131e-16 
1 100 -0.99999999999996636 189.9999995967203 0 1 -2.2204460492503131e-16 
1 100 0 94.99999979836015 0 0 -1 
1 120.0000000569265 -0.9999999999999698 170.00000000002098 0 1 -2.2204460492503131e-16 
1 397.49997952007595 0 170.00000000004195 1 0 0 
2 120 0 190 0 -1 1.7732126531000425e-16 0 -1.7732126531000425e-16 -1 1 0 0 20
1 865 820.0000071553618 120 0 -1 0 
1 864.99999999999932 820.0000071553618 1911 -0 -0 -1 
2 845 99.999992840065943 120 -0 1 -0 1 0 -0 0 -0 -1 20
2 465 740 100 0 0 1 0 -1 0 1 0 -0 40
2 465 740 100 0 0 1 0 -1 0 1 0 -0 40
1 240 820 100 1 0 0 
1 69.999999507306612 650.0001664978837 99.999999999999957 0.70710712780479401 0.70710643456813116 -0 
1 845 820.0000071553618 100 0 -1 0 
1 70 100.00000020616756 100 0 1 0 
2 70 100 120 -1.030837817866796e-08 -1 0 -1 1.030837817866796e-08 0 -0 0 -1 20
1 0 0 0 0 0 1 
1 0 0 0 1 0 -0 
1 915 0 0 0 0 1 
1 0 915 0 0 0 1 
1 0 0 0 -0 1 0 
1 0 915 0 1 0 -0 
1 915 915 0 0 0 1 
1 915 0 0 -0 1 0 
1 50 100.00000020616756 120 0 1 0 
1 50 650.00016707625809 1911 -0 -0 -1 
1 50 650.00016707625809 1911 -0 -0 -1 
1 50.000000000003425 819.99998344521953 1911 -0 -0 -1 
1 50 650.00016707625821 0 0 1 0 
2 70 819.99999999999989 0 0 0 1 1 0 -0 -0 1 0 20
1 70.000016520409389 839.99999999999659 1911 -0 -0 -1 
1 240 840 0 -1 0 0 
1 239.99999967473869 840 1911 0 0 1 
1 844.99995876158482 839.99999999997874 1911 -0 -0 -1 
1 240 840 120 1 0 0 
1 240 840 1911 -0 -0 -1 
1 240 840 1911 -0 -0 -1 
2 845 820 120 -0 -0 -1 -2.0619207589334115e-06 0.99999999999787426 0 0.99999999999787426 2.0619207589334115e-06 -0 20
2 845 820 120 -3.577680926808001e-07 0.99999999999993605 0 0.99999999999993605 3.577680926808001e-07 -0 -0 0 -1 20
1 505 740 101 -0 -0 -1 
2 465 740 0 0 0 1 1 0 -0 -0 1 0 40
2 240 820 120 -1 -0 -0 -0 1 0 0 0 -1 20
2 844.99995876158482 820 120 -1 -0 -0 -0 1 0 0 0 -1 20
2 70 650.00016699057653 120 -0.70710710317015213 -0.70710645920279624 0 -0.70710645920279624 0.70710710317015213 0 -0 0 -1 20
1 55.85787081594399 664.1423090539796 119.99999999999996 0.70710712780479401 0.70710643456813116 -0 
2 239.99999748782238 819.99999781308577 119.99999999999996 -0.70710712780479401 -0.70710643456813116 0 -0.70710643456813116 0.70710712780479401 0 -0 0 -1 20
2 70 650.00016707625809 120 -0 -1 -0 -1 0 0 0 0 -1 20
2 465 740 0 0 0 -1 0 1 0 1 -0 0 25
2 465 740 0 0 0 -1 0 1 0 1 -0 0 25
2 70 650.00016699057653 120 -0 -0 -1 -1 4.2840781588893153e-09 0 4.2840781588893153e-09 1 -0 20
2 70 650.00016699057653 970 0 0 1 0 -1 0 1 0 -0 20
1 55.857870815944054 664.1423090539796 1911 -0 -0 -1 
1 230.85786997123097 839.14213664203066 970 -0.70710712780479401 -0.70710643456813116 -0 
2 239.99999967473869 820 970 0 0 1 0 -1 0 1 0 -0 20
1 225.85786879645983 834.14214036918156 1911 -0 -0 -1 
2 239.99999967473869 820 120 -0 -0 -1 -0.70710654391394312 0.70710701845907231 0 0.70710701845907231 0.70710654391394312 -0 20
2 465 740 95 0 0 -1 0 1 0 1 -0 0 25
2 465 740 95 0 0 -1 0 1 0 1 -0 0 25
1 490 740 -1 0 0 1 
Polygon3D 0
PolygonOnTriangulations 0
Surfaces 39
1 69.99999921063808 80.000000000000014 1911 0 -1 0 1 0 0 -0 0 1 
2 845 100 1911 0 0 1 1 0 -0 -0 1 0 20
2 844.99995876245589 100 120 -1 -0 -0 0 -1 0 0 -0 -1 20
1 0 0 1910 0 0 1 1 0 -0 -0 1 0 
2 70 100 1911 0 0 1 1 0 -0 -0 1 0 20
1 814.99999999999909 -0.99999999999964717 1989.9999938306489 -1 0 -0 0 -1.7732126531000425e-16 -1 -0 -1 1.7732126531000425e-16 
2 795 -0.99999999999996636 190 0 -1 1.7732126531000425e-16 1 0 0 -0 1.7732126531000425e-16 1 20
1 100 -0.99999999999996636 189.9999995967203 1 -0 0 0 1.7732126531000425e-16 1 -0 -1 1.7732126531000425e-16 
1 794.99995904015191 -0.9999999999999698 170.00000000004195 0 2.2204460492503131e-16 1 -1 0 0 0 -1 2.2204460492503131e-16 
2 120 -0.99999999999996636 190 0 -1 1.7732126531000425e-16 1 0 0 -0 1.7732126531000425e-16 1 20
1 865 820.0000071553618 1911 -1 0 0 0 -1 0 0 0 1 
4 845 100 120 -0 -0 -1 0.99999999999993594 -3.5799670428104888e-07 0 -3.5799670428104888e-07 -0.99999999999993594 0 20
1 240 840 1910 -0 0 1 1 0 0 0 1 -0 
4 70 100 120 -0 -0 -1 -3.9468095991423974e-08 -0.99999999999999922 0 -0.99999999999999922 3.9468095991423974e-08 0 20
1 0 0 0 -0 1 0 0 0 1 1 0 -0 
1 0 0 0 1 0 -0 0 0 1 0 -1 0 
1 0 915 0 -0 1 0 0 0 1 1 0 -0 
1 915 0 0 1 0 -0 0 0 1 0 -1 0 
1 50 100.00000020616757 1911 1 0 0 -0 1 0 0 -0 1 
1 50 650.00016707625821 1911 1 0 0 -0 1 0 0 -0 1 
2 70 819.99999999999989 1911 0 0 1 1 0 -0 -0 1 0 20
1 240 840 1911 0 1 -0 -1 0 0 0 0 1 
1 240 840 1911 0 -1 0 1 0 0 -0 0 1 
2 845 820 1911 0 0 1 1 0 -0 -0 1 0 20
2 845 820.0000071553618 120 0 -1 0 1 0 0 0 -0 -1 20
2 465 740 101 0 0 1 1 0 -0 -0 1 0 40
2 240 820 120 1 0 0 -0 1 0 -0 0 -1 20
2 69.999999507306612 650.0001664978837 119.99999999999996 0.70710712780479401 0.70710643456813116 -0 -0.70710643456813116 0.70710712780479401 0 -0 -0 -1 20
2 70 100.00000020616756 120 0 1 0 -1 0 0 -0 0 -1 20
1 0 0 0 0 0 1 1 0 -0 -0 1 0 
2 70 650.00016699057653 1911 0 0 1 1 0 -0 -0 1 0 20
1 240 840 1910 -0 0 -1 -1 0 0 0 1 0 
2 239.99999967473869 820 1911 0 0 1 1 0 -0 -0 1 0 20
4 845 820 120 -0 -0 -1 -2.0619207589334115e-06 0.99999999999787426 0 0.99999999999787426 2.0619207589334115e-06 -0 20
1 505 740 100 -0 0 -1 -1 0 0 0 1 0 
4 239.99999967473869 820 120 -0 -0 -1 -0.70710654391394312 0.70710701845907231 0 0.70710701845907231 0.70710654391394312 -0 20
4 70 650.00016699057653 120 -0 -0 -1 -1 4.2840781588893153e-09 0 4.2840781588893153e-09 1 -0 20
1 225.85786879645983 834.14214036918167 1911 -0.70710643456813116 0.70710712780479401 0 -0.70710712780479401 -0.70710643456813116 0 0 0 1 
2 465 740 -1 0 0 -1 1 0 0 0 -1 0 25
Triangulations 0

TShapes 241
Ve
8.24750882202352e-05
844.999958762456 80.0000000000425 120
0 0

0101101
*
Ve
2.00022252409246e-07
844.999958762456 80.0000000000213 1910
0 0

0101101
*
Ed
 1.00021252409246e-07 1 1 0
1  1 0 1.00000000000008 1791
2  1 1 0 1.00000000000008 1791
2  2 2 0 1.00000000000008 1791
4 G1 1 0 2 0
0

0101000
-241 15 +240 15 *
Ve
1.57872386807867e-06
69.9999992106381 80 120
0 0

0101101
*
Ed
 1e-07 1 1 0
1  2 0 -0 774.999959551818
2  3 1 14 -0 774.999959551818
2  4 3 0 -0 774.999959551818
4 G1 1 14 3 0
0

0101000
+241 16 -238 16 *
Ve
1.00000163424829e-07
814.999999999999 80.0000000000002 1910
0 0

0101101
*
Ed
 1e-07 1 1 0
1  3 0 780.00000039468 809.999959157137
2  5 1 0 780.00000039468 809.999959157137
2  6 4 19 780.00000039468 809.999959157137
0

0101000
+236 15 -240 15 *
Ve
2.00001e-07
69.9999992106381 80 1910
0 0

0101101
*
Ed
 1e-07 1 1 0
1  4 0 1.00000000000008 1791
2  7 1 0 1.00000000000008 1791
2  8 5 0 1.00000000000008 1791
4 G1 1 0 5 0
0

0101000
-238 15 +234 15 *
Ve
1.00000014210855e-07
814.999999999999 80 189.999993830649
0 0

0101101
*
Ed
 1e-07 1 1 0
1  5 0 79.9999938306489 1800
2  9 1 24 79.9999938306489 1800
2  10 6 25 79.9999938306489 1800
0

0101000
+236 26 -232 26 *
Ve
1.00000156319402e-07
100 80.0000000000002 1910
0 0

0101101
*
Ed
 1e-07 1 1 0
1  6 0 34.999999605319 65.000000394681
2  11 1 0 34.999999605319 65.000000394681
2  12 4 19 34.999999605319 65.000000394681
0

0101000
+234 15 -230 15 *
Ve
1e-07
794.999959040152 80 170.000000000042
0 0

0101101
*
Ed
 1e-07 1 1 0
1  7 0 4.71238693239228 6.28318499871203
2  13 1 24 4.71238693239228 6.28318499871203
2  14 7 25 4.71238693239228 6.28318499871203
0

0101000
+228 26 -232 26 *
Ve
1e-07
100 80 189.99999959672
0 0

0101101
*
Ed
 1e-07 1 1 0
1  8 0 0 1720.00000040328
2  15 1 24 0 1720.00000040328
2  16 8 25 0 1720.00000040328
0

0101000
+226 26 -230 26 *
Ve
1.00020975232391e-07
120.000000056926 80 170.000000000021
0 0

0101101
*
Ed
 1e-07 1 1 0
1  9 0 0 674.999958983225
2  17 1 24 0 674.999958983225
2  18 9 25 0 674.999958983225
0

0101000
+228 26 -224 26 *
Ed
 1e-07 1 1 0
1  10 0 3.14159267375378 4.71238898323101
2  19 1 24 3.14159267375378 4.71238898323101
2  20 10 25 3.14159267375378 4.71238898323101
0

0101000
+226 26 -224 26 *
Wi

0101100
-239 14 -237 0 -235 14 +233 14 +231 23 -229 14 -227 23 +225 23 +223 23 -222 23 
*
Fa
0  1e-07 1 12

0101000
+221 13 *
Ve
1.43198681143986e-05
865 99.9999928400659 120
0 0

0101101
*
Ve
2.00001625439074e-07
864.999999999999 99.9999928400659 1910
0 0

0101101
*
Ed
 1.00000625439074e-07 1 1 0
1  11 0 0.999999999999912 1791
2  21 2 0 0.999999999999912 1791
2  22 11 0 0.999999999999912 1791
4 G1 2 0 11 0
0

0101000
-219 15 +218 15 *
Ed
 1e-07 1 1 0
1  12 0 -0 1.5707980306754
2  23 2 14 -0 1.5707980306754
2  24 12 0 -0 1.5707980306754
4 G1 2 14 12 0
0

0101100
+219 16 -241 16 *
Ed
 1e-07 1 1 0
1  13 0 6.28318324530238 7.85398127597778
2  25 2 0 6.28318324530238 7.85398127597778
2  26 4 19 6.28318324530238 7.85398127597778
0

0101000
+240 15 -218 15 *
Wi

0101100
-217 14 -216 0 -215 14 +239 14 *
Fa
0  1e-07 2 0

0101000
+214 28 *
Ve
8.24750882202352e-05
845 99.9999928400659 100
0 0

0101101
*
Ed
 8.24750882202352e-05 1 1 0
1  14 0 0 1.5707963267949
2  27 3 0 0 1.5707963267949
2  28 12 0 0 1.5707963267949
4 G1 3 0 12 0
0

0101100
+241 16 -212 16 *
Ve
1.57872386807867e-06
69.9999992106381 100 100
0 0

0101101
*
Ed
 1e-07 1 1 0
1  15 0 -0 774.999959551818
2  29 3 0 -0 774.999959551818
2  30 13 32 -0 774.999959551818
4 G1 3 0 13 32
0

0101000
+212 16 -210 16 *
Ed
 1.57872386807867e-06 1 1 0
1  16 0 0 1.5707963267949
2  31 3 0 0 1.5707963267949
2  32 14 0 0 1.5707963267949
4 G1 3 0 14 0
0

0101100
+238 16 -210 16 *
Wi

0101100
+211 0 -237 0 +209 0 -208 0 *
Fa
0  1e-07 3 0

0101000
+207 0 *
Ve
1e-07
0 0 1910
0 0

0101101
*
Ve
2.00001e-07
100 0 1910
0 0

0101101
*
Ed
 1e-07 1 1 0
1  17 0 0 100
2  33 4 0 0 100
2  34 15 0 0 100
0

0101000
+205 35 -204 35 *
Ve
1e-07
0 915 1910
0 0

0101101
*
Ed
 1e-07 1 1 0
1  18 0 0 915
2  35 4 0 0 915
2  36 16 0 0 915
0

0101000
-202 35 +205 35 *
Ed
 1e-07 1 1 0
1  19 0 0.499999999999983 80.5000000000003
2  37 4 37 0.499999999999983 80.5000000000003
2  38 8 0 0.499999999999983 80.5000000000003
0

0101000
+204 38 -230 38 *
Ve
1e-07
915 915 1910
0 0

0101101
*
Ed
 1e-07 1 1 0
1  20 0 0 915
2  39 4 0 0 915
2  40 17 0 0 915
0

0101000
-199 35 +202 35 *
Ve
1e-07
915 0 1910
0 0

0101101
*
Ed
 1e-07 1 1 0
1  21 0 0 915
2  41 4 0 0 915
2  42 18 0 0 915
0

0101000
-199 35 +197 35 *
Ve
2.00001e-07
50 100.000000206168 1910
0 0

0101101
*
Ed
 1e-07 1 1 0
1  22 0 4.71238897007631 6.28318526771149
2  43 4 19 4.71238897007631 6.28318526771149
2  44 5 0 4.71238897007631 6.28318526771149
0

0101000
+195 15 -234 15 *
Ve
2.00001e-07
814.999999999999 0 1910
0 0

0101101
*
Ed
 1e-07 1 1 0
1  23 0 814.999999999999 915
2  45 4 0 814.999999999999 915
2  46 15 0 814.999999999999 915
0

0101000
+193 35 -197 35 *
Ve
0.000511707151663886
50 650.000167076258 1910
0 0

0101101
*
Ed
 1.00003424815986e-07 1 1 0
1  24 0 50.0000001030838 600.000166973174
2  47 4 19 50.0000001030838 600.000166973174
2  48 19 0 50.0000001030838 600.000166973174
0

0101000
+195 15 -191 15 *
Ed
 1e-07 1 1 0
1  25 0 -80.5000000000002 -0.499999999999824
2  49 4 37 -80.5000000000002 -0.499999999999824
2  50 6 0 -80.5000000000002 -0.499999999999824
0

0101000
+236 38 -193 38 *
Ve
2.00004424815986e-07
50.0000000000034 819.99998344522 1910
0 0

0101101
*
Ed
 1.00003424815986e-07 1 1 0
1  26 0 325.000083538129 494.99989990709
2  51 4 41 325.000083538129 494.99989990709
2  52 20 0 325.000083538129 494.99989990709
0

0101000
+191 42 -188 42 *
Ve
2.00004467448551e-07
70.0000165204094 839.999999999997 1910
0 0

0101101
*
Ed
 1e-07 1 1 0
1  27 0 3.14159182756932 4.71238980812371
2  53 4 41 3.14159182756932 4.71238980812371
2  54 21 0 3.14159182756932 4.71238980812371
0

0101000
+186 42 -188 42 *
Ve
0.00102371432444572
240 840 1910
0 0

0101101
*
Ed
 1e-07 1 1 0
1  28 0 -120 49.9999834795906
2  55 4 41 -120 49.9999834795906
2  56 22 0 -120 49.9999834795906
0

0101000
+184 42 -186 42 *
Ve
2.00001625277607e-07
864.999999999999 820.000007155362 1910
0 0

0101101
*
Ed
 1e-07 1 1 0
1  29 0 -410.000003577681 310.000010737615
2  57 4 19 -410.000003577681 310.000010737615
2  58 11 0 -410.000003577681 310.000010737615
0

0101000
+182 15 -218 15 *
Ve
2.00022259514648e-07
844.999958761585 839.999999999979 1910
0 0

0101101
*
Ed
 1e-07 1 1 0
1  30 0 120 724.999958761585
2  59 4 19 120 724.999958761585
2  60 23 0 120 724.999958761585
0

0101000
+184 15 -180 15 *
Ed
 1e-07 1 1 0
1  31 0 1.57079668456299 3.14159471551055
2  61 4 19 1.57079668456299 3.14159471551055
2  62 24 0 1.57079668456299 3.14159471551055
0

0101000
+182 15 -180 15 *
Wi

0101000
+203 34 -201 34 +200 36 -198 34 -229 39 +196 34 -194 39 +192 34 +190 39 +189 36 
+187 40 -235 39 -185 40 -215 39 -183 40 +181 39 +179 39 -178 39 *
Fa
0  1e-07 4 34

0101000
+177 0 *
Ve
4.12335140254072e-07
50 100.000000206168 120
0 0

0101101
*
Ed
 1e-07 1 1 0
1  32 0 -8.88178419700125e-16 1.57079629763518
2  63 5 14 -8.88178419700125e-16 1.57079629763518
2  64 14 0 -8.88178419700125e-16 1.57079629763518
4 G1 5 14 14 0
0

0101100
+238 16 -175 16 *
Ed
 1.00003424815986e-07 1 1 0
1  33 0 1.00000000000009 1791
2  65 5 0 1.00000000000009 1791
2  66 19 0 1.00000000000009 1791
4 G1 5 0 19 0
0

0101000
-175 15 +195 15 *
Wi

0101100
-233 14 -174 0 -194 14 +173 14 *
Fa
0  1e-07 5 0

0101000
+172 28 *
Ve
2.00001014210855e-07
814.999999999999 0 189.999993830649
0 0

0101101
*
Ed
 1.00000014210855e-07 1 1 0
1  34 0 0.999999999999966 81
2  67 6 0 0.999999999999966 81
2  68 7 0 0.999999999999966 81
4 G1 6 0 7 0
0

0101000
+170 38 -232 38 *
Ed
 1e-07 1 1 0
1  35 0 -805.000003084676 915.000003084676
2  69 6 0 -805.000003084676 915.000003084676
2  70 15 37 -805.000003084676 915.000003084676
0

0101000
+170 38 -193 38 *
Wi

0101000
-169 0 +231 43 -189 0 +168 0 *
Fa
0  1e-07 6 0

0101000
+167 0 *
Ve
2.00001e-07
794.999959040152 0 170.000000000042
0 0

0101101
*
Ed
 1e-07 1 1 0
1  36 0 6.28318325918718 7.85398132550693
2  71 7 0 6.28318325918718 7.85398132550693
2  72 15 37 6.28318325918718 7.85398132550693
0

0101000
+165 38 -170 38 *
Ed
 1e-07 1 1 0
1  37 0 0.99999999999997 81
2  73 7 0 0.99999999999997 81
2  74 9 0 0.99999999999997 81
4 G1 7 0 9 0
0

0101000
+165 38 -228 38 *
Wi

0101000
-164 0 -169 0 +227 43 +163 0 *
Fa
0  1e-07 7 0

0101000
+162 0 *
Ve
2.00001e-07
100 0 189.99999959672
0 0

0101101
*
Ed
 1e-07 1 1 0
1  38 0 0.999999999999966 81
2  75 8 0 0.999999999999966 81
2  76 10 0 0.999999999999966 81
4 G1 8 0 10 0
0

0101000
+160 38 -226 38 *
Ed
 1e-07 1 1 0
1  39 0 -1815.00000020164 -94.9999997983601
2  77 8 0 -1815.00000020164 -94.9999997983601
2  78 15 37 -1815.00000020164 -94.9999997983601
0

0101000
+204 38 -160 38 *
Wi

0101000
-200 0 +225 43 +159 0 +158 0 *
Fa
0  1e-07 8 0

0101000
+157 0 *
Ve
2.00021975232391e-07
120.000000056926 0 170.000000000021
0 0

0101101
*
Ed
 1.00020975232391e-07 1 1 0
1  40 0 0.99999999999997 81
2  79 9 0 0.99999999999997 81
2  80 10 0 0.99999999999997 81
4 G1 9 0 10 0
0

0101000
+155 38 -224 38 *
Ed
 1e-07 1 1 0
1  41 0 -277.499979463149 397.499979520076
2  81 9 0 -277.499979463149 397.499979520076
2  82 15 37 -277.499979463149 397.499979520076
0

0101000
+155 38 -165 38 *
Wi

0101000
-154 0 +223 43 +163 0 +153 0 *
Fa
0  1e-07 9 0

0101000
+152 0 *
Ed
 1e-07 1 1 0
1  42 0 4.71238900054867 6.28318531002591
2  83 10 0 4.71238900054867 6.28318531002591
2  84 15 37 4.71238900054867 6.28318531002591
0

0101000
+160 38 -155 38 *
Wi

0101000
-150 0 -154 0 +222 43 +159 0 *
Fa
0  1e-07 10 0

0101000
+149 0 *
Ve
1.43107235999196e-05
864.999999999999 820.000007155362 120
0 0

0101101
*
Ed
 1e-07 1 1 0
1  43 0 0 720.000014315296
2  85 11 14 0 720.000014315296
2  86 25 0 0 720.000014315296
4 G1 11 14 25 0
0

0101000
+147 16 -219 16 *
Ed
 1.00000625277607e-07 1 1 0
1  44 0 0.999999999999912 1791
2  87 11 0 0.999999999999912 1791
2  88 24 0 0.999999999999912 1791
4 G1 11 0 24 0
0

0101000
-147 15 +182 15 *
Wi

0101100
-217 14 +146 0 -181 14 +145 14 *
Fa
0  1e-07 11 0

0101000
+144 28 *
Ed
 1.43198681143986e-05 1 1 0
1  45 0 0 1.5707963267949
2  89 12 0 0 1.5707963267949
2  90 25 0 0 1.5707963267949
4 G1 12 0 25 0
0

0101100
+219 16 -212 16 *
Ed
 1e-07 1 1 1
2  91 12 0 -0 1.5707980306754
0

0101000
+212 16 -212 16 *
Wi

0101100
-142 0 +216 0 -141 0 +211 0 *
Fa
0  1e-07 12 0

0101000
+140 0 *
Ve
2.00001e-07
505 740 100
0 0

0101101
*
Ve
1e-07
465 700 100
0 0

0101101
*
Ed
 1e-07 1 1 0
1  46 0 1.5707963267949 6.28318530717959
2  92 13 44 1.5707963267949 6.28318530717959
2  93 26 0 1.5707963267949 6.28318530717959
0

0101000
+138 45 -137 45 *
Ed
 1e-07 1 1 0
1  47 0 0 1.5707963267949
2  94 13 44 0 1.5707963267949
2  95 26 0 0 1.5707963267949
0

0101000
+137 45 -138 45 *
Wi

0101000
-136 0 -135 0 *
Ve
6.18553046224246e-06
240 820 100
0 0

0101101
*
Ve
8.24768303573364e-05
844.999958761585 820 100
0 0

0101101
*
Ed
 1e-07 1 1 0
1  48 0 0 604.999958761585
2  96 13 32 0 604.999958761585
2  97 27 0 0 604.999958761585
4 G1 13 32 27 0
0

0101000
+133 16 -132 16 *
Ve
1.39354631872251e-06
70 650.000167076258 100
0 0

0101101
*
Ed
 1e-07 1 1 0
1  49 0 8.5265128291212e-14 240.4161848973
2  98 13 32 8.5265128291212e-14 240.4161848973
2  99 28 0 8.5265128291212e-14 240.4161848973
4 G1 13 32 28 0
0

0101000
+130 16 -133 16 *
Ed
 1e-07 1 1 0
1  50 0 0 720.000014315296
2  100 13 32 0 720.000014315296
2  101 25 0 0 720.000014315296
4 G1 13 32 25 0
0

0101000
+132 16 -212 16 *
Ed
 1e-07 1 1 0
1  51 0 1.4210854715202e-14 550.000166870091
2  102 13 32 1.4210854715202e-14 550.000166870091
2  103 29 0 1.4210854715202e-14 550.000166870091
4 G1 13 32 29 0
0

0101000
+210 16 -130 16 *
Wi

0101000
-131 29 -129 29 -128 29 -127 29 -209 29 *
Fa
0  1e-07 13 44

0101000
+134 0 +126 0 *
Ed
 1e-07 1 1 1
2  104 14 0 -8.88178419700125e-16 1.57079629763518
0

0101000
+210 16 -210 16 *
Ed
 4.12335140254072e-07 1 1 0
1  52 0 0 1.5707963267949
2  105 14 0 0 1.5707963267949
2  106 29 0 0 1.5707963267949
4 G1 14 0 29 0
0

0101100
+175 16 -210 16 *
Wi

0101100
-208 0 +174 0 -124 0 +123 0 *
Fa
0  1e-07 14 0

0101000
+122 0 *
Ve
1e-07
0 0 0
0 0

0101101
*
Ed
 1e-07 1 1 0
1  53 0 0 1910
2  107 15 0 0 1910
2  108 16 0 0 1910
0

0101000
-205 35 +120 35 *
Ve
1e-07
915 0 0
0 0

0101101
*
Ed
 1e-07 1 1 0
1  54 0 0 915
2  109 15 0 0 915
2  110 30 0 0 915
0

0101000
-118 35 +120 35 *
Ed
 1e-07 1 1 0
1  55 0 0 1910
2  111 15 0 0 1910
2  112 18 0 0 1910
0

0101000
-197 35 +118 35 *
Wi

0101000
+153 0 +150 0 +158 0 +203 37 +119 37 -117 37 -116 37 +192 37 +168 0 +164 0 
*
Fa
0  1e-07 15 37

0101000
+115 0 *
Ve
1e-07
0 915 0
0 0

0101101
*
Ed
 1e-07 1 1 0
1  56 0 0 1910
2  113 16 0 0 1910
2  114 17 0 0 1910
0

0101000
-202 35 +113 35 *
Ed
 1e-07 1 1 0
1  57 0 0 915
2  115 16 0 0 915
2  116 30 0 0 915
0

0101000
-113 35 +120 35 *
Wi

0101000
-119 0 -201 0 +112 0 +111 0 *
Fa
0  1e-07 16 0

0101000
+110 0 *
Ve
1e-07
915 915 0
0 0

0101101
*
Ed
 1e-07 1 1 0
1  58 0 0 915
2  117 17 0 0 915
2  118 30 0 0 915
0

0101000
-108 35 +113 35 *
Ed
 1e-07 1 1 0
1  59 0 0 1910
2  119 17 0 0 1910
2  120 18 0 0 1910
0

0101000
-199 35 +108 35 *
Wi

0101000
-107 0 -106 0 +198 0 +112 0 *
Fa
0  1e-07 17 0

0101000
+105 0 *
Ed
 1e-07 1 1 0
1  60 0 0 915
2  121 18 0 0 915
2  122 30 0 0 915
0

0101000
-108 35 +118 35 *
Wi

0101000
-116 0 -196 0 +106 0 +103 0 *
Fa
0  1e-07 18 0

0101000
+102 0 *
Ve
1.71363126355573e-07
50 650.000167076258 120
0 0

0101101
*
Ed
 1.00003424815986e-07 1 1 0
1  61 0 1.4210854715202e-14 550.000166870091
2  123 19 14 1.4210854715202e-14 550.000166870091
2  124 29 0 1.4210854715202e-14 550.000166870091
4 G1 19 14 29 0
0

0101000
+175 16 -100 16 *
Ve
0.015604062418539
50 650.000167076258 970
0 0

0101101
*
Ed
 1.00003424815986e-07 1 1 0
1  62 0 941 1791
2  125 19 0 941 1791
2  126 31 0 941 1791
4 G1 19 0 31 0
0

0101000
-100 15 +98 15 *
Ed
 1e-07 1 1 0
1  63 0 1.00000000000009 941
2  127 19 0 1.00000000000009 941
2  128 20 50 1.00000000000009 941
0

0101000
+191 15 -98 15 *
Wi

0101100
+173 14 +99 0 -190 14 -97 14 -96 14 *
Fa
0  1e-07 19 48

0101000
+95 49 *
Ve
1.00003424815986e-07
50.0000000000034 819.99998344522 970
0 0

0101101
*
Ed
 1.00003424815986e-07 1 1 0
1  64 0 0.999999999999915 941
2  129 20 0 0.999999999999915 941
2  130 21 0 0.999999999999915 941
4 G1 20 0 21 0
0

0101000
+188 42 -93 42 *
Ed
 1.00003424815986e-07 1 1 0
1  65 0 0 169.999816368961
2  131 20 55 0 169.999816368961
2  132 32 56 0 169.999816368961
0

0101000
+98 57 -93 57 *
Wi

0101000
-187 0 -92 0 +91 54 +96 48 *
Fa
0  1e-07 20 0

0101000
+90 0 *
Ve
1.00003467448551e-07
70.0000165204094 839.999999999997 970
0 0

0101101
*
Ed
 1e-07 1 1 0
1  66 0 1.57079550077443 3.14159348132881
2  133 21 55 1.57079550077443 3.14159348132881
2  134 32 56 1.57079550077443 3.14159348132881
0

0101000
+88 57 -93 57 *
Ed
 1.00003467448551e-07 1 1 0
1  67 0 1.00000000000006 941
2  135 21 0 1.00000000000006 941
2  136 22 0 1.00000000000006 941
4 G1 21 0 22 0
0

0101000
+186 42 -88 42 *
Wi

0101000
-185 0 -92 0 +87 54 +86 0 *
Fa
0  1e-07 21 0

0101000
+85 0 *
Ve
0.098100524674305
240 840 970
0 0

0101101
*
Ed
 1e-07 1 1 0
1  68 0 0 169.999983479591
2  137 22 55 0 169.999983479591
2  138 32 56 0 169.999983479591
0

0101000
+83 57 -88 57 *
Ed
 1e-07 1 1 0
1  69 0 -941 -1
2  139 22 0 -941 -1
0

0101000
+83 42 -184 42 *
Wi

0101000
-183 0 -86 0 +82 54 -81 0 *
Fa
0  1e-07 22 0

0101000
+80 0 *
Ve
8.24768303573364e-05
844.999958761585 840 120
0 0

0101101
*
Ed
 1.00021259514648e-07 1 1 0
1  70 0 1.00000000000007 1791
2  140 23 0 1.00000000000007 1791
2  141 24 0 1.00000000000007 1791
4 G1 23 0 24 0
0

0101000
-78 15 +180 15 *
Ve
6.50522622436256e-07
240 840 120
0 0

0101101
*
Ed
 1e-07 1 1 0
1  71 0 0 604.999958761585
2  142 23 14 0 604.999958761585
2  143 27 0 0 604.999958761585
4 G1 23 14 27 0
0

0101000
+76 16 -78 16 *
Ed
 1e-07 1 1 0
1  72 0 941 1791
2  144 23 0 941 1791
2  145 33 0 941 1791
4 G1 23 0 33 0
0

0101000
-76 15 +83 15 *
Ed
 1.00000014210855e-07 1 1 0
1  73 0 1 941
2  146 23 48 1 941
0

0101000
+184 42 -83 42 *
Wi

0101100
-77 14 +75 0 -179 14 +74 14 +73 58 *
Fa
0  1e-07 23 48

0101000
+72 49 *
Ed
 1e-07 1 1 0
1  74 0 1.11022302462516e-15 1.57079803094756
2  147 24 14 1.11022302462516e-15 1.57079803094756
2  148 34 0 1.11022302462516e-15 1.57079803094756
4 G1 24 14 34 0
0

0101100
+78 16 -147 16 *
Wi

0101100
-77 14 -70 0 -178 14 +145 14 *
Fa
0  1e-07 24 0

0101000
+69 28 *
Ed
 1.43107235999196e-05 1 1 0
1  75 0 0 1.5707963267949
2  149 25 0 0 1.5707963267949
2  150 34 0 0 1.5707963267949
4 G1 25 0 34 0
0

0101100
+147 16 -132 16 *
Wi

0101100
+67 0 -146 0 +128 0 -142 0 *
Fa
0  1e-07 25 0

0101000
+66 0 *
Ve
1e-07
505 740 95
0 0

0101101
*
Ed
 1e-07 1 1 0
1  76 0 0.999999999999998 6
3  151 152CN 26 0 0.999999999999998 6
0

0101000
+138 45 -64 45 *
Ed
 1e-07 1 1 0
1  77 0 0 6.28318530717959
2  153 26 63 0 6.28318530717959
2  154 35 64 0 6.28318530717959
0

0101100
+64 65 -64 65 *
Wi

0101000
-63 0 +62 62 +63 0 -136 0 -135 0 *
Fa
0  1e-07 26 0

0101000
+61 0 *
Ed
 6.50522622436256e-07 1 1 0
1  78 0 0 1.5707963267949
2  155 27 0 0 1.5707963267949
2  156 36 0 0 1.5707963267949
4 G1 27 0 36 0
0

0101100
+76 16 -133 16 *
Ed
 8.24768303573364e-05 1 1 0
1  79 0 0 1.5707963267949
2  157 27 0 0 1.5707963267949
2  158 34 0 0 1.5707963267949
4 G1 27 0 34 0
0

0101100
+78 16 -132 16 *
Wi

0101100
+59 0 -75 0 +131 0 -58 0 *
Fa
0  1e-07 27 0

0101000
+57 0 *
Ve
1.39354631872251e-06
55.8578708159441 664.14230905398 120
0 0

0101101
*
Ed
 1.39354631872251e-06 1 1 0
1  80 0 0 1.5707963267949
2  159 28 0 0 1.5707963267949
2  160 37 0 0 1.5707963267949
4 G1 28 0 37 0
0

0101100
+55 16 -130 16 *
Ve
6.18553046224246e-06
225.85786879646 834.142140369182 120
0 0

0101101
*
Ed
 1e-07 1 1 0
1  81 0 8.5265128291212e-14 240.4161848973
2  161 28 0 8.5265128291212e-14 240.4161848973
2  162 38 14 8.5265128291212e-14 240.4161848973
4 G1 28 0 38 14
0

0101000
+55 16 -53 16 *
Ed
 6.18553046224246e-06 1 1 0
1  82 0 0 1.5707963267949
2  163 28 0 0 1.5707963267949
2  164 36 0 0 1.5707963267949
4 G1 28 0 36 0
0

0101100
+53 16 -133 16 *
Wi

0101100
+54 0 -52 0 +129 0 -51 0 *
Fa
0  1e-07 28 0

0101000
+50 0 *
Ed
 1.71363126355573e-07 1 1 0
1  83 0 0 1.5707963267949
2  165 29 0 0 1.5707963267949
2  166 37 0 0 1.5707963267949
4 G1 29 0 37 0
0

0101100
+100 16 -130 16 *
Wi

0101100
+123 0 -99 0 +127 0 -48 0 *
Fa
0  1e-07 29 0

0101000
+47 0 *
Ve
1e-07
465 765 0
0 0

0101101
*
Ve
2.00001e-07
490 740 0
0 0

0101101
*
Ed
 1e-07 1 1 0
1  84 0 0 1.5707963267949
2  167 30 34 0 1.5707963267949
2  168 39 0 0 1.5707963267949
0

0101000
+45 66 -44 66 *
Ed
 1e-07 1 1 0
1  85 0 1.5707963267949 6.28318530717959
2  169 30 34 1.5707963267949 6.28318530717959
2  170 39 0 1.5707963267949 6.28318530717959
0

0101000
+44 66 -45 66 *
Wi

0101000
+43 0 +42 0 *
Wi

0101000
-111 34 -107 34 +117 34 +103 34 *
Fa
0  1e-07 30 34

0101000
+41 0 +40 0 *
Ed
 1e-07 1 1 0
1  86 0 -4.44089209850063e-16 0.785398614467054
2  171 31 14 -4.44089209850063e-16 0.785398614467054
2  172 37 0 -4.44089209850063e-16 0.785398614467054
4 G1 31 14 37 0
0

0101100
+100 16 -55 16 *
Ve
2.00001017763568e-07
55.8578708159441 664.14230905398 970
0 0

0101101
*
Ed
 1e-07 1 1 0
1  87 0 3.92699036163356 4.71238897610061
2  173 31 48 3.92699036163356 4.71238897610061
2  174 32 67 3.92699036163356 4.71238897610061
0

0101000
+37 42 -98 42 *
Ed
 1.00000017763568e-07 1 1 0
1  88 0 941 1791
2  175 31 0 941 1791
2  176 38 0 941 1791
4 G1 31 0 38 0
0

0101000
-55 15 +37 15 *
Wi

0101100
-97 14 -38 0 -36 58 +35 14 *
Fa
0  1e-07 31 48

0101000
+34 49 *
Ve
2.00001113686838e-07
225.85786879646 834.142140369182 970
0 0

0101101
*
Ed
 1e-07 1 1 0
1  89 0 7.07106600706121 247.487250904361
2  177 32 67 7.07106600706121 247.487250904361
2  178 38 48 7.07106600706121 247.487250904361
0

0101000
+32 42 -37 42 *
Ed
 1e-07 1 1 0
1  90 0 3.14159263732673 3.92699048143316
2  179 32 67 3.14159263732673 3.92699048143316
2  180 33 48 3.14159263732673 3.92699048143316
0

0101000
+83 42 -32 42 *
Wi

0101000
-82 54 -87 54 +91 54 +36 0 +31 0 +30 0 *
Fa
0  1e-07 32 67

0101000
+29 0 *
Ed
 1.00000113686838e-07 1 1 0
1  91 0 941 1791
2  181 33 0 941 1791
2  182 38 0 941 1791
4 G1 33 0 38 0
0

0101000
-53 15 +32 15 *
Ed
 1e-07 1 1 0
1  92 0 -0 0.785397844106435
2  183 33 14 -0 0.785397844106435
2  184 36 0 -0 0.785397844106435
4 G1 33 14 36 0
0

0101100
+53 16 -76 16 *
Wi

0101100
-27 14 -26 0 -30 58 +74 14 *
Fa
0  1e-07 33 48

0101000
+25 49 *
Ed
 1e-07 1 1 1
2  185 34 0 1.11022302462516e-15 1.57079803094756
0

0101000
+132 16 -132 16 *
Wi

0101100
-58 0 +70 0 -23 0 +67 0 *
Fa
0  1e-07 34 0

0101000
+22 0 *
Ve
2.00001e-07
490 740 95
0 0

0101101
*
Ve
1e-07
465 765 95
0 0

0101101
*
Ed
 1e-07 1 1 0
1  93 0 1.5707963267949 6.28318530717959
2  186 35 68 1.5707963267949 6.28318530717959
2  187 39 33 1.5707963267949 6.28318530717959
0

0101000
+20 45 -19 45 *
Ed
 1e-07 1 1 0
1  94 0 0 1.5707963267949
2  188 35 68 0 1.5707963267949
2  189 39 33 0 1.5707963267949
0

0101000
+19 45 -20 45 *
Wi

0101000
-18 0 -17 0 *
Wi

0101000
-62 62 *
Fa
0  1e-07 35 68

0101000
+16 0 +15 0 *
Ed
 1e-07 1 1 1
2  190 36 0 -0 0.785397844106435
0

0101000
+133 16 -133 16 *
Wi

0101100
-51 0 +26 0 -13 0 +59 0 *
Fa
0  1e-07 36 0

0101000
+12 0 *
Ed
 1e-07 1 1 1
2  191 37 0 -4.44089209850063e-16 0.785398614467054
0

0101000
+130 16 -130 16 *
Wi

0101100
-48 0 +38 0 -10 0 +54 0 *
Fa
0  1e-07 37 0

0101000
+9 0 *
Wi

0101100
-35 14 -52 0 -31 58 +27 14 *
Fa
0  1e-07 38 48

0101000
+7 49 *
Ed
 1e-07 1 1 0
1  95 0 1 96
3  192 193CN 39 0 1 96
0

0101000
+44 66 -20 66 *
Wi

0101000
+5 33 -42 33 -43 33 -5 33 +17 0 +18 0 *
Fa
0  1e-07 39 33

0101000
+4 0 *
Sh

0101000
-220 7 -213 27 +206 29 +176 33 -171 27 +166 7 -161 7 +156 7 +151 7 -148 7 
+143 27 -139 29 +125 0 -121 29 -114 7 -109 46 +104 46 +101 46 +94 47 +89 47 
-84 47 -79 47 +71 47 -68 27 +65 29 -60 0 +56 29 +49 29 +46 29 -39 33 
-33 47 -28 47 -24 47 -21 29 -14 0 -11 29 -8 29 -6 47 -3 0 *
So

0100000
+2 0 *

+1 1 