DBRep_DrawableShape

CASCADE Topology V1, (c) Matra-Datavision
Locations 5
1
              1               0               0               0 
              0               1               0               0 
              0               0               1               0 
1
              1               0               0             100 
              0               1               0             -50 
              0               0               1             250 
2  2 -1 0
2  1 -1 2 -1 0
2  1 -1 0
Curve2ds 76
1 0 0 0 -1 
1 0 0 0 1 
1 0 -19.999999999999996 1 0 
1 0 0 0 1 
1 0 -680 1 0 
1 0 0 0 1 
1 80 0 0 -1 
1 0 0 0 1 
2 20 19.999999999999996 0 -1 1 0 20
1 -4.7123889803846897 0 1 0 
2 20 680 0 -1 -1 -0 20
1 -1.5707963267948966 0 1 0 
1 0 0 1 0 
1 0 0 0 1 
1 0 700 1 0 
1 0 0 0 1 
2 580 19.999999999999996 0 -1 -1 -0 20
1 -4.7123889803846897 0 1 0 
2 580 680 0 -1 1 0 20
1 -1.5707963267948966 0 1 0 
1 600 0 0 1 
1 0 0 0 -1 
1 1.5707963267948966 0 0 1 
1 0 20 1 0 
1 0 80 1 0 
1 0 0 1 0 
1 1.5707963267948966 0 0 1 
1 0 20 1 0 
8 4.7123889803846897 6.2831853071795862
1 6.2831853071795862 80 -1 -0 
8 4.7123889803846897 6.2831853071795862
1 0 -6.2831853071795862 0 1 
8 4.7123889803846897 6.2831853071795862
1 6.2831853071795862 19.999999999999996 -1 -0 
8 4.7123889803846897 6.2831853071795862
1 0 -6.2831853071795862 0 1 
1 1.5707963267948966 0 0 1 
1 20 0 0 1 
1 0 680 1 0 
1 0 0 1 0 
1 0 580 1 0 
1 1.5707963267948966 0 0 1 
1 80 0 0 1 
1 0 0 0 1 
1 0 580 1 0 
1 1.5707963267948966 0 0 1 
1 80 0 0 1 
1 0 0 0 1 
1 0 0 0 1 
1 0 -19.999999999999996 1 0 
1 0 80 1 0 
1 0 0 1 0 
1 0 0 0 1 
1 0 -680 1 0 
8 4.7123889803846897 6.2831853071795862
1 6.2831853071795862 80 -1 -0 
8 4.7123889803846897 6.2831853071795862
1 0 -6.2831853071795862 0 1 
1 80 0 0 -1 
1 0 0 0 1 
1 0 -1.5707963267948966 1 0 
8 4.7123889803846897 6.2831853071795862
1 1.5707963267948966 -6.2831853071795862 0 1 
8 4.7123889803846897 6.2831853071795862
1 6.2831853071795862 20 -1 -0 
1 0 -1.5707963267948966 1 0 
8 4.7123889803846897 6.2831853071795862
1 1.5707963267948966 -6.2831853071795862 0 1 
8 4.7123889803846897 6.2831853071795862
1 -4.7123889803846897 20 1 0 
1 0 19.999999999999996 1 0 
1 1.5707963267948966 0 0 1 
1 0 680 1 0 
1 1.5707963267948966 0 0 1 
1 580 0 0 1 
1 1.5707963267948966 0 0 1 
8 4.7123889803846897 6.2831853071795862
1 6.2831853071795862 580 -1 -0 
8 4.7123889803846897 6.2831853071795862
1 1.5707963267948966 -6.2831853071795862 0 1 
8 4.7123889803846897 6.2831853071795862
1 -4.7123889803846897 580 1 0 
8 4.7123889803846897 6.2831853071795862
1 1.5707963267948966 -6.2831853071795862 0 1 
8 4.7123889803846897 6.2831853071795862
1 0 -6.2831853071795862 0 1 
8 4.7123889803846897 6.2831853071795862
1 6.2831853071795862 19.999999999999996 -1 -0 
1 0 -1.5707963267948966 1 0 
1 0 -1.5707963267948966 1 0 
1 0 0 1 0 
1 0 680 1 0 
Curves 36
1 0 0 0 -0 1 0 
1 100 -30.000000000000004 250 0 0 1 
1 100 630 250 0 0 1 
1 100 -50 330 0 1 0 
8 4.7123889803846897 6.2831853071795862
2 120 -30.000000000000004 250 0 0 1 0 -1 0 1 0 -0 20
8 1.5707963267948966 3.1415926535897931
2 120 630 250 -0 -0 -1 0 -1 0 -1 0 0 20
1 0 0 0 1 0 -0 
1 0 700 0 1 0 -0 
8 4.7123889803846897 6.2831853071795862
2 680 -30.000000000000004 250 -0 -0 -1 0 -1 0 -1 0 0 20
8 1.5707963267948966 3.1415926535897931
2 680 630 250 0 0 1 0 -1 0 1 0 -0 20
1 600 0 0 -0 1 0 
1 120 -50 250 0 0 1 
2 120 -30.000000000000004 330 0 0 1 -1 0 0 0 -1 0 20
1 120 650 250 0 0 1 
2 120 630 330 0 -0 1 -1 0 0 -0 -1 0 20
2 120 -30.000000000000004 330 0 -1 0 -1 0 0 -0 -0 -1 20
1 120 -50 350 0 1 0 
2 120 630 330 0 1 0 -1 0 0 0 -0 1 20
1 680 -50 250 0 0 1 
1 100 -50 330 1 0 0 
1 680 650 250 0 0 1 
1 100 650 330 1 0 0 
1 700 -30.000000000000004 250 0 0 1 
2 680 -30.000000000000004 330 -0 -0 -1 1 0 0 0 -1 0 20
1 700 630 250 0 0 1 
2 680 630 330 0 0 -1 1 0 0 0 -1 0 20
1 700 -50 330 0 1 0 
2 120 -30.000000000000004 330 1 -6.1230317691118863e-17 0 -6.1230317691118863e-17 -1 0 0 -0 -1 20
2 120 630 330 1 -0 6.1230317691118863e-17 -6.1230317691118863e-17 0 1 -0 -1 0 20
1 100 -30.000000000000004 350 1 0 0 
1 100 630 350 1 0 0 
1 680 -50 350 0 1 0 
2 680 -30.000000000000004 330 1 6.1230317691118863e-17 -0 6.1230317691118863e-17 -1 0 0 -0 -1 20
2 680 630 330 1 0 -6.1230317691118863e-17 6.1230317691118863e-17 0 1 0 -1 0 20
2 680 -30.000000000000004 330 0 1 0 1 0 0 0 0 -1 20
2 680 630 330 -0 -1 -0 1 -0 0 -0 0 1 20
Polygon3D 0
PolygonOnTriangulations 0
Surfaces 18
1 0 0 0 1 0 -0 0 0 1 0 -1 0 
1 0 0 0 0 0 1 1 0 -0 -0 1 0 
2 120 -30.000000000000004 250 0 0 1 -1 -0 0 0 -1 0 20
2 120 630 250 0 0 1 -1 -0 0 -0 1 -0 20
2 120 -50 330 0 1 0 -1 0 0 0 -0 1 20
1 0 0 0 -0 1 0 0 0 1 1 0 -0 
1 0 700 0 -0 1 0 0 0 1 1 0 -0 
2 680 -30.000000000000004 250 0 0 1 1 0 -0 0 -1 -0 20
2 680 630 250 0 0 1 1 0 -0 -0 1 0 20
1 600 0 0 1 0 -0 0 0 1 0 -1 0 
4 120 -30.000000000000004 330 -0 -0 -1 -1 0 0 -0 -1 0 20
4 120 630 330 -0 -1 -0 -1 0 0 -0 -0 1 20
1 0 0 100 0 0 1 1 0 -0 -0 1 0 
2 100 -30.000000000000004 330 1 0 0 0 -1 0 -0 -0 1 20
2 100 630 330 1 0 0 -0 1 0 0 -0 1 20
4 680 -30.000000000000004 330 -0 -0 -1 1 0 0 0 -1 0 20
4 680 630 330 -0 -1 -0 1 -0 0 -0 0 1 20
2 680 -50 330 0 1 0 1 0 -0 0 -0 1 20
Triangulations 0

TShapes 99
Ve
1e-07
100 -30 250
0 0

0101101
*
Ve
3.52385334236864e-06
100 630 250
0 0

0101101
*
Ed
 1e-07 1 1 0
1  1 0 20 680
2  1 1 0 20 680
2  2 2 0 20 680
0

0101000
+99 4 -98 4 *
Ve
1e-07
100 -30 330
0 0

0101101
*
Ed
 1e-07 1 1 0
1  2 0 0 80
2  3 1 2 0 80
2  4 3 0 0 80
4 G1 1 2 3 0
0

0101000
+99 5 -96 5 *
Ve
3.52638833147616e-06
100 630 330
0 0

0101101
*
Ed
 1e-07 1 1 0
1  3 0 0 80
2  5 1 2 0 80
2  6 4 0 0 80
4 G1 1 2 4 0
0

0101000
+98 5 -94 5 *
Ed
 1e-07 1 1 0
1  4 0 20 680
2  7 1 2 20 680
2  8 5 0 20 680
4 G1 1 2 5 0
0

0101000
+96 5 -94 5 *
Wi

0101100
+97 2 -95 0 +93 0 -92 0 *
Fa
0  1e-07 1 0

0101000
+91 3 *
Ve
1e-07
120 -50 250
0 0

0101101
*
Ed
 1e-07 1 1 0
1  5 0 4.71238898038469 6.28318530717959
2  9 2 2 4.71238898038469 6.28318530717959
2  10 3 0 4.71238898038469 6.28318530717959
0

0101000
+99 5 -89 5 *
Ve
1e-07
120 650 250
0 0

0101101
*
Ed
 1e-07 1 1 0
1  6 0 1.5707963267949 3.14159265358979
2  11 2 2 1.5707963267949 3.14159265358979
2  12 4 0 1.5707963267949 3.14159265358979
0

0101000
+98 5 -87 5 *
Ve
1e-07
680 -50 250
0 0

0101101
*
Ed
 1e-07 1 1 0
1  7 0 20 580
2  13 2 0 20 580
2  14 6 0 20 580
0

0101000
+89 4 -85 4 *
Ve
1e-07
680 650 250
0 0

0101101
*
Ed
 1e-07 1 1 0
1  8 0 20 580
2  15 2 0 20 580
2  16 7 0 20 580
0

0101000
+87 4 -83 4 *
Ve
1e-07
700 -30 250
0 0

0101101
*
Ed
 1e-07 1 1 0
1  9 0 4.71238898038469 6.28318530717959
2  17 2 2 4.71238898038469 6.28318530717959
2  18 8 0 4.71238898038469 6.28318530717959
0

0101000
+81 5 -85 5 *
Ve
4.56817438090334e-06
700 630 250
0 0

0101101
*
Ed
 1e-07 1 1 0
1  10 0 1.5707963267949 3.14159265358979
2  19 2 2 1.5707963267949 3.14159265358979
2  20 9 0 1.5707963267949 3.14159265358979
0

0101000
+79 5 -83 5 *
Ed
 1e-07 1 1 0
1  11 0 20 680
2  21 2 0 20 680
2  22 10 0 20 680
0

0101000
+81 4 -79 4 *
Wi

0101100
-97 2 +88 0 -86 0 +84 2 -82 2 -80 0 +78 0 +77 2 *
Fa
0  1e-07 2 0

0101000
+76 3 *
Ve
1e-07
120 -50 330
0 0

0101101
*
Ed
 1e-07 1 1 0
1  12 0 0 80
2  23 3 0 0 80
2  24 6 2 0 80
4 G1 3 0 6 2
0

0101000
+89 5 -74 5 *
Ed
 1e-07 1 1 0
1  13 0 0 1.5707963267949
2  25 3 0 0 1.5707963267949
2  26 11 0 0 1.5707963267949
4 G1 3 0 11 0
0

0101100
+96 5 -74 5 *
Wi

0101100
+88 0 -95 0 +73 0 -72 0 *
Fa
0  1e-07 3 0

0101000
+71 0 *
Ve
1e-07
120 650 330
0 0

0101101
*
Ed
 1e-07 1 1 0
1  14 0 0 80
2  27 4 0 0 80
2  28 7 2 0 80
4 G1 4 0 7 2
0

0101000
+87 5 -69 5 *
Ed
 1e-07 1 1 0
1  15 0 4.71238898038469 6.28318530717959
2  29 4 0 4.71238898038469 6.28318530717959
2  30 12 0 4.71238898038469 6.28318530717959
4 G1 4 0 12 0
0

0101100
+69 5 -94 5 *
Wi

0101100
+86 0 -93 0 +68 0 +67 0 *
Fa
0  1e-07 4 0

0101000
+66 0 *
Ve
1e-07
120 -30 350
0 0

0101101
*
Ed
 1e-07 1 1 0
1  16 0 4.71238898038469 6.28318530717959
2  31 5 0 4.71238898038469 6.28318530717959
2  32 11 0 4.71238898038469 6.28318530717959
4 G1 5 0 11 0
0

0101100
+64 5 -96 5 *
Ve
1e-07
120 630 350
0 0

0101101
*
Ed
 1e-07 1 1 0
1  17 0 20 680
2  33 5 0 20 680
2  34 13 2 20 680
4 G1 5 0 13 2
0

0101000
+64 5 -62 5 *
Ed
 1e-07 1 1 0
1  18 0 0 1.5707963267949
2  35 5 0 0 1.5707963267949
2  36 12 0 0 1.5707963267949
4 G1 5 0 12 0
0

0101100
+94 5 -62 5 *
Wi

0101100
-63 0 +61 0 -92 0 -60 0 *
Fa
0  1e-07 5 0

0101000
+59 0 *
Ve
1e-07
680 -50 330
0 0

0101101
*
Ed
 1e-07 1 1 0
1  19 0 0 80
2  37 6 2 0 80
2  38 8 0 0 80
4 G1 6 2 8 0
0

0101000
+85 5 -57 5 *
Ed
 1e-07 1 1 0
1  20 0 20 580
2  39 6 2 20 580
2  40 14 0 20 580
4 G1 6 2 14 0
0

0101000
+74 5 -57 5 *
Wi

0101100
-84 2 +73 0 -56 0 +55 0 *
Fa
0  1e-07 6 0

0101000
+54 3 *
Ve
1e-07
680 650 330
0 0

0101101
*
Ed
 1e-07 1 1 0
1  21 0 0 80
2  41 7 2 0 80
2  42 9 0 0 80
4 G1 7 2 9 0
0

0101000
+83 5 -52 5 *
Ed
 1e-07 1 1 0
1  22 0 20 580
2  43 7 2 20 580
2  44 15 0 20 580
4 G1 7 2 15 0
0

0101000
+69 5 -52 5 *
Wi

0101100
-82 2 +68 0 -51 0 +50 0 *
Fa
0  1e-07 7 0

0101000
+49 3 *
Ve
1e-07
700 -30 330
0 0

0101101
*
Ed
 1e-07 1 1 0
1  23 0 0 80
2  45 8 0 0 80
2  46 10 2 0 80
4 G1 8 0 10 2
0

0101000
+81 5 -47 5 *
Ed
 1e-07 1 1 0
1  24 0 0 1.5707963267949
2  47 8 0 0 1.5707963267949
2  48 16 0 0 1.5707963267949
4 G1 8 0 16 0
0

0101100
+47 5 -57 5 *
Wi

0101100
+80 0 -46 0 +56 0 -45 0 *
Fa
0  1e-07 8 0

0101000
+44 0 *
Ve
4.58032227426125e-06
700 630 330
0 0

0101101
*
Ed
 1e-07 1 1 0
1  25 0 0 80
2  49 9 0 0 80
2  50 10 2 0 80
4 G1 9 0 10 2
0

0101000
+79 5 -42 5 *
Ed
 1e-07 1 1 0
1  26 0 4.71238898038469 6.28318530717959
2  51 9 0 4.71238898038469 6.28318530717959
2  52 17 0 4.71238898038469 6.28318530717959
4 G1 9 0 17 0
0

0101100
+52 5 -42 5 *
Wi

0101100
+78 0 -41 0 +51 0 +40 0 *
Fa
0  1e-07 9 0

0101000
+39 0 *
Ed
 1e-07 1 1 0
1  27 0 20 680
2  53 10 2 20 680
2  54 18 0 20 680
4 G1 10 2 18 0
0

0101000
+47 5 -42 5 *
Wi

0101100
+77 2 -46 0 +41 0 -37 0 *
Fa
0  1e-07 10 0

0101000
+36 3 *
Ed
 1e-07 1 1 1
2  55 11 0 0 1.5707963267949
0

0101000
+64 5 -64 5 *
Ed
 1e-07 1 1 0
1  28 0 4.71238898038469 6.28318530717959
2  56 11 0 4.71238898038469 6.28318530717959
2  57 14 0 4.71238898038469 6.28318530717959
4 G1 11 0 14 0
0

0101100
+64 5 -74 5 *
Wi

0101100
-63 0 +34 0 +33 0 -72 0 *
Fa
0  1e-07 11 0

0101000
+32 0 *
Ed
 1e-07 1 1 1
2  58 12 0 0 1.5707963267949
0

0101000
+69 5 -69 5 *
Ed
 1e-07 1 1 0
1  29 0 4.71238898038469 6.28318530717959
2  59 12 0 4.71238898038469 6.28318530717959
2  60 15 0 4.71238898038469 6.28318530717959
4 G1 12 0 15 0
0

0101100
+69 5 -62 5 *
Wi

0101100
-67 0 +30 0 +29 0 -60 0 *
Fa
0  1e-07 12 0

0101000
+28 0 *
Ve
1e-07
680 -30 350
0 0

0101101
*
Ed
 1e-07 1 1 0
1  30 0 20 580
2  61 13 2 20 580
2  62 14 0 20 580
4 G1 13 2 14 0
0

0101000
+64 5 -26 5 *
Ve
1e-07
680 630 350
0 0

0101101
*
Ed
 1e-07 1 1 0
1  31 0 20 580
2  63 13 2 20 580
2  64 15 0 20 580
4 G1 13 2 15 0
0

0101000
+62 5 -24 5 *
Ed
 1e-07 1 1 0
1  32 0 20 680
2  65 13 2 20 680
2  66 18 0 20 680
4 G1 13 2 18 0
0

0101000
+26 5 -24 5 *
Wi

0101100
-61 0 +25 0 -23 0 +22 0 *
Fa
0  1e-07 13 0

0101000
+21 3 *
Ed
 1e-07 1 1 0
1  33 0 4.71238898038469 6.28318530717959
2  67 14 0 4.71238898038469 6.28318530717959
2  68 16 0 4.71238898038469 6.28318530717959
4 G1 14 0 16 0
0

0101100
+26 5 -57 5 *
Wi

0101100
-33 0 +25 0 -55 0 +19 0 *
Fa
0  1e-07 14 0

0101000
+18 0 *
Ed
 1e-07 1 1 0
1  34 0 4.71238898038469 6.28318530717959
2  69 15 0 4.71238898038469 6.28318530717959
2  70 17 0 4.71238898038469 6.28318530717959
4 G1 15 0 17 0
0

0101100
+52 5 -24 5 *
Wi

0101100
+29 0 -50 0 +23 0 -16 0 *
Fa
0  1e-07 15 0

0101000
+15 0 *
Ed
 1e-07 1 1 0
1  35 0 4.71238898038469 6.28318530717959
2  71 16 0 4.71238898038469 6.28318530717959
2  72 18 0 4.71238898038469 6.28318530717959
4 G1 16 0 18 0
0

0101100
+26 5 -47 5 *
Ed
 1e-07 1 1 1
2  73 16 0 0 1.5707963267949
0

0101000
+26 5 -26 5 *
Wi

0101100
-13 0 +12 0 +19 0 -45 0 *
Fa
0  1e-07 16 0

0101000
+11 0 *
Ed
 1e-07 1 1 1
2  74 17 0 0 1.5707963267949
0

0101000
+52 5 -52 5 *
Ed
 1e-07 1 1 0
1  36 0 0 1.5707963267949
2  75 17 0 0 1.5707963267949
2  76 18 0 0 1.5707963267949
4 G1 17 0 18 0
0

0101100
+42 5 -24 5 *
Wi

0101100
-40 0 +9 0 +16 0 -8 0 *
Fa
0  1e-07 17 0

0101000
+7 0 *
Wi

0101100
-13 0 +22 0 -37 0 -8 0 *
Fa
0  1e-07 18 0

0101000
+5 0 *
Sh

0101100
-90 2 -75 2 +70 0 -65 0 +58 0 -53 2 +48 2 -43 0 +38 0 +35 2 
-31 0 -27 0 +20 2 -17 0 +14 0 +10 0 +6 0 -4 0 *
So

0100000
+3 0 *
Co

0100000
+2 0 *

+1 1 