DBRep_DrawableShape

CASCADE Topology V1, (c) Matra-Datavision
Locations 170
1
              1               0               0               0 
              0               1               0               0 
              0               0               1               0 
1
              1               0               0               0 
              0               1               0               0 
              0               0               1               0 
1
              1               0               0               0 
              0               1               0               0 
              0               0               1               0 
1
              1               0               0               0 
              0               1               0               0 
              0               0               1               0 
1
              1               0               0               0 
              0               1               0               0 
              0               0               1               0 
1
              1               0               0               0 
              0               1               0               0 
              0               0               1               0 
1
              1               0               0               0 
              0               1               0               0 
              0               0               1               0 
1
              1               0               0               0 
              0               1               0               0 
              0               0               1               0 
1
              1               0               0               0 
              0               1               0               0 
              0               0               1               0 
2  2 1 3 -1 4 1 5 1 6 -1 7 1 8 1 9 -1 0
1
              1               0               0               0 
              0               1               0               0 
              0               0               1               0 
1
              1               0               0               0 
              0               1               0               0 
              0               0               1               0 
2  11 1 12 -1 0
2  1 -1 9 1 8 -1 7 -1 6 1 5 -1 4 -1 3 1 2 -1 12 1 11 -1 0
1
              1               0               0               0 
              0               1               0               0 
              0               0               1               0 
1
              1               0               0               0 
              0               1               0               0 
              0               0               1               0 
2  15 1 16 -1 11 1 12 -1 0
2  16 1 15 -1 0
2  15 -1 0
2  1 -1 9 1 8 -1 7 -1 6 1 5 -1 4 -1 3 1 2 -1 12 1 11 -1 16 1 15 -1 0
1
              1               0               0               0 
              0               1               0               0 
              0               0               1               5 
2  15 1 16 -1 21 1 11 1 12 -1 0
2  21 -1 16 1 15 -1 0
2  12 1 11 -1 21 -1 16 1 15 -1 0
2  1 -1 9 1 8 -1 7 -1 6 1 5 -1 4 -1 3 1 2 -1 12 1 11 -1 21 -1 16 1 15 -1 0
2  5 1 6 -1 7 1 8 1 9 -1 0
2  16 -1 11 1 12 -1 2 1 3 -1 4 1 0
1
              1               0               0              90 
              0               1               0              30 
              0               0               1               0 
2  1 -1 9 1 8 -1 7 -1 6 1 5 -1 0
1
              1               0               0              60 
              0               1               0              30 
              0               0               1               0 
1
              1               0               0              30 
              0               1               0              30 
              0               0               1               0 
1
              1               0               0               0 
              0               1               0              30 
              0               0               1               0 
1
              1               0               0              90 
              0               1               0               0 
              0               0               1               0 
1
              1               0               0              60 
              0               1               0               0 
              0               0               1               0 
1
              1               0               0              30 
              0               1               0               0 
              0               0               1               0 
2  16 -1 11 1 12 -1 2 1 3 -1 0
2  1 -1 9 1 8 -1 7 -1 6 1 5 -1 4 -1 0
2  15 1 16 -1 11 1 12 -1 2 1 3 -1 4 1 0
2  1 -1 9 1 8 -1 7 -1 6 1 5 -1 4 -1 3 1 2 -1 0
1
              1               0               0              -0 
              0               1               0               0 
              0               0               1               5 
1
              1               0               0               0 
              0               1               0               0 
              0               0               1              15 
2  40 1 12 -1 41 1 0
2  41 -1 12 1 40 -1 0
2  40 -1 0
2  1 -1 9 1 8 -1 7 -1 6 1 5 -1 4 -1 3 1 2 -1 41 -1 12 1 40 -1 0
2  1 -1 9 1 8 -1 7 -1 6 1 5 -1 28 -1 0
1
              1               0               0              -0 
              0               1               0               0 
              0               0               1               5 
1
              1               0               0              -0 
              0               1               0              -0 
              0               0               1             -15 
2  47 1 3 -1 48 1 28 1 0
2  48 -1 3 1 47 -1 0
2  47 -1 0
2  1 -1 9 1 8 -1 7 -1 6 1 5 -1 28 -1 48 -1 3 1 47 -1 0
2  1 -1 9 1 8 -1 7 -1 6 1 5 -1 30 -1 0
2  47 1 3 -1 48 1 30 1 0
2  1 -1 9 1 8 -1 7 -1 6 1 5 -1 30 -1 48 -1 3 1 47 -1 0
2  1 -1 9 1 8 -1 7 -1 6 1 5 -1 31 -1 0
2  47 1 3 -1 48 1 31 1 0
2  1 -1 9 1 8 -1 7 -1 6 1 5 -1 31 -1 48 -1 3 1 47 -1 0
2  1 -1 9 1 8 -1 7 -1 6 1 5 -1 32 -1 0
2  47 1 3 -1 48 1 32 1 0
2  1 -1 9 1 8 -1 7 -1 6 1 5 -1 32 -1 48 -1 3 1 47 -1 0
2  1 -1 9 1 8 -1 7 -1 6 1 5 -1 33 -1 0
2  47 1 3 -1 48 1 33 1 0
2  1 -1 9 1 8 -1 7 -1 6 1 5 -1 33 -1 48 -1 3 1 47 -1 0
2  1 -1 9 1 8 -1 7 -1 6 1 5 -1 34 -1 0
2  47 1 3 -1 48 1 34 1 0
2  1 -1 9 1 8 -1 7 -1 6 1 5 -1 34 -1 48 -1 3 1 47 -1 0
2  1 -1 9 1 8 -1 7 -1 6 1 5 -1 35 -1 0
2  47 1 3 -1 48 1 35 1 0
2  1 -1 9 1 8 -1 7 -1 6 1 5 -1 35 -1 48 -1 3 1 47 -1 0
2  4 1 5 1 6 -1 7 1 8 1 9 -1 0
2  47 1 3 -1 48 1 0
2  1 -1 9 1 8 -1 7 -1 6 1 5 -1 4 -1 48 -1 3 1 47 -1 0
2  12 -1 41 1 2 1 3 -1 4 1 5 1 6 -1 7 1 8 1 9 -1 0
2  3 -1 48 1 28 1 5 1 6 -1 7 1 8 1 9 -1 0
2  3 -1 48 1 30 1 5 1 6 -1 7 1 8 1 9 -1 0
2  3 -1 48 1 31 1 5 1 6 -1 7 1 8 1 9 -1 0
2  3 -1 48 1 32 1 5 1 6 -1 7 1 8 1 9 -1 0
2  3 -1 48 1 33 1 5 1 6 -1 7 1 8 1 9 -1 0
2  3 -1 48 1 34 1 5 1 6 -1 7 1 8 1 9 -1 0
2  3 -1 48 1 35 1 5 1 6 -1 7 1 8 1 9 -1 0
2  3 -1 48 1 4 1 5 1 6 -1 7 1 8 1 9 -1 0
2  2 1 3 -1 4 1 0
2  40 1 12 -1 2 1 3 -1 4 1 0
2  12 1 40 -1 0
2  16 -1 21 1 11 1 40 -1 0
2  1 -1 9 1 8 -1 7 -1 6 1 5 -1 4 -1 3 1 2 -1 12 1 40 -1 0
2  40 1 12 -1 41 1 2 1 3 -1 4 1 0
2  16 -1 21 1 11 1 12 -1 2 1 3 -1 0
2  47 1 3 -1 0
2  16 -1 21 1 11 1 12 -1 2 1 47 -1 0
2  1 -1 9 1 8 -1 7 -1 6 1 5 -1 4 -1 3 1 47 -1 0
2  40 1 12 -1 2 1 3 -1 0
2  7 1 8 1 9 -1 0
2  16 -1 21 1 11 1 12 -1 2 1 3 -1 4 1 5 1 6 -1 0
2  47 1 3 -1 35 1 5 1 6 -1 0
2  16 -1 21 1 11 1 12 -1 2 1 3 -1 4 1 35 -1 3 1 47 -1 0
2  1 -1 9 1 8 -1 7 -1 6 1 5 -1 35 -1 3 1 47 -1 0
2  40 1 12 -1 2 1 3 -1 4 1 5 1 6 -1 0
2  47 1 3 -1 4 1 5 1 6 -1 0
1
              1               0               0              -0 
              0               1               0               0 
              0               0               1               5 
2  101 1 6 -1 0
2  16 -1 21 1 11 1 12 -1 2 1 3 -1 4 1 5 1 101 -1 0
2  6 1 101 -1 0
2  1 -1 9 1 8 -1 7 -1 6 1 101 -1 0
2  8 1 9 -1 0
2  16 -1 21 1 11 1 12 -1 2 1 3 -1 4 1 5 1 6 -1 7 1 0
2  47 1 3 -1 34 1 5 1 6 -1 7 1 0
2  16 -1 21 1 11 1 12 -1 2 1 3 -1 4 1 34 -1 3 1 47 -1 0
2  1 -1 9 1 8 -1 7 -1 6 1 5 -1 34 -1 3 1 47 -1 0
2  40 1 12 -1 2 1 3 -1 4 1 5 1 6 -1 7 1 0
2  47 1 3 -1 35 1 5 1 6 -1 7 1 0
1
              1               0               0              30 
              0               1               0               0 
              0               0               1               0 
2  101 1 6 -1 113 1 0
2  16 -1 21 1 11 1 12 -1 2 1 3 -1 4 1 5 1 6 -1 7 1 113 -1 6 1 101 -1 0
2  1 -1 9 1 8 -1 113 -1 6 1 101 -1 0
2  16 -1 21 1 11 1 12 -1 2 1 3 -1 4 1 0
2  47 1 3 -1 33 1 0
2  16 -1 21 1 11 1 12 -1 2 1 3 -1 4 1 33 -1 3 1 47 -1 0
2  1 -1 9 1 8 -1 7 -1 6 1 5 -1 33 -1 3 1 47 -1 0
2  47 1 3 -1 33 1 5 1 6 -1 7 1 0
1
              1               0               0              60 
              0               1               0               0 
              0               0               1               0 
2  101 1 6 -1 122 1 0
2  16 -1 21 1 11 1 12 -1 2 1 3 -1 4 1 5 1 6 -1 7 1 122 -1 6 1 101 -1 0
2  1 -1 9 1 8 -1 122 -1 6 1 101 -1 0
2  47 1 3 -1 28 1 5 1 6 -1 7 1 0
2  16 -1 21 1 11 1 12 -1 2 1 3 -1 4 1 28 -1 3 1 47 -1 0
2  1 -1 9 1 8 -1 7 -1 6 1 5 -1 28 -1 3 1 47 -1 0
2  47 1 3 -1 28 1 0
2  47 1 3 -1 30 1 5 1 6 -1 7 1 0
2  16 -1 21 1 11 1 12 -1 2 1 3 -1 4 1 30 -1 3 1 47 -1 0
2  1 -1 9 1 8 -1 7 -1 6 1 5 -1 30 -1 3 1 47 -1 0
2  47 1 3 -1 31 1 5 1 6 -1 7 1 0
2  16 -1 21 1 11 1 12 -1 2 1 3 -1 4 1 31 -1 3 1 47 -1 0
2  1 -1 9 1 8 -1 7 -1 6 1 5 -1 31 -1 3 1 47 -1 0
2  47 1 3 -1 32 1 0
2  16 -1 21 1 11 1 12 -1 2 1 3 -1 4 1 32 -1 3 1 47 -1 0
2  1 -1 9 1 8 -1 7 -1 6 1 5 -1 32 -1 3 1 47 -1 0
2  47 1 3 -1 31 1 5 1 6 -1 0
2  47 1 3 -1 32 1 5 1 6 -1 0
2  16 -1 21 1 11 1 12 -1 2 1 3 -1 4 1 5 1 6 -1 7 1 8 1 9 -1 0
2  47 1 3 -1 4 1 5 1 6 -1 7 1 8 1 9 -1 0
1
              1               0               0              -0 
              0               1               0               0 
              0               0               1               5 
2  143 1 9 -1 0
2  16 -1 21 1 11 1 12 -1 2 1 3 -1 4 1 5 1 6 -1 7 1 8 1 143 -1 0
2  9 1 143 -1 0
2  1 -1 9 1 143 -1 0
2  1 -1 9 1 8 -1 7 -1 0
1
              1               0               0               0 
              0               1               0               0 
              0               0               1              15 
2  101 1 6 -1 149 1 0
2  149 -1 6 1 101 -1 0
2  101 -1 0
2  1 -1 9 1 8 -1 7 -1 149 -1 6 1 101 -1 0
2  1 -1 9 1 8 -1 113 -1 0
2  101 1 6 -1 149 1 113 1 0
2  1 -1 9 1 8 -1 113 -1 149 -1 6 1 101 -1 0
2  1 -1 9 1 8 -1 122 -1 0
2  101 1 6 -1 149 1 122 1 0
2  1 -1 9 1 8 -1 122 -1 149 -1 6 1 101 -1 0
2  1 -1 0
1
              1               0               0              -0 
              0               1               0              -0 
              0               0               1             -10 
2  143 1 9 -1 161 1 0
2  161 -1 9 1 143 -1 0
2  143 -1 0
2  1 -1 161 -1 9 1 143 -1 0
2  101 1 6 -1 7 1 0
2  6 -1 149 1 7 1 8 1 9 -1 0
2  6 -1 149 1 113 1 8 1 9 -1 0
2  6 -1 149 1 122 1 8 1 9 -1 0
2  9 -1 161 1 0
Curve2ds 278
1 0 0 0 -1 
1 60 0 0 -1 
1 0 0 1 0 
1 0 0 1 0 
1 0 -5 1 0 
1 120 0 -1 -0 
1 120 0 0 -1 
1 0 0 0 -1 
1 0 0 0 -1 
1 120 0 0 -1 
1 0 0 1 0 
1 0 -60 0 1 
1 0 -5 1 0 
1 60 0 -1 0 
2 105 -15 0 -1 1 0 10
1 -1.5707963267948966 -5 1 0 
2 105 -15 0 -1 1 0 10
1 4.7123889803846897 -5 1 0 
2 75 -15 0 -1 1 0 10
1 -1.5707963267948966 -5 1 0 
2 75 -15 0 -1 1 0 10
1 4.7123889803846897 -5 1 0 
2 45 -15 0 -1 1 0 10
1 -1.5707963267948966 -5 1 0 
2 45 -15 0 -1 1 0 10
1 4.7123889803846897 -5 1 0 
2 15 -15 0 -1 1 0 10
1 -1.5707963267948966 -5 1 0 
2 15 -15 0 -1 1 0 10
1 4.7123889803846897 -5 1 0 
2 105 -45 0 -1 1 0 10
1 -1.5707963267948966 -5 1 0 
2 105 -45 0 -1 1 0 10
1 4.7123889803846897 -5 1 0 
2 75 -45 0 -1 1 0 10
1 -1.5707963267948966 -5 1 0 
2 75 -45 0 -1 1 0 10
1 4.7123889803846897 -5 1 0 
2 45 -45 0 -1 1 0 10
1 -1.5707963267948966 -5 1 0 
2 45 -45 0 -1 1 0 10
1 4.7123889803846897 -5 1 0 
2 15 -45 0 -1 1 0 10
1 -1.5707963267948966 -5 1 0 
2 15 -45 0 -1 1 0 10
1 4.7123889803846897 -5 1 0 
1 120 0 0 -1 
1 0 0 1 0 
1 120 -60 -1 0 
1 0 -0 1 0 
1 0 -0 0 -1 
1 60 0 0 -1 
1 0 -15 1 0 
1 -120 60 1 0 
1 120 0 0 -1 
1 0 0 0 -1 
1 0 -5 1 0 
1 60 0 -1 0 
1 60 0 0 -1 
1 0 -0 0 -1 
1 0 -5 1 0 
1 120 0 -1 0 
1 0 -15 1 0 
1 0 60 0 -1 
1 60 0 0 -1 
1 0 0 0 -1 
1 0 0 0 -1 
1 6.2831853071795862 0 0 -1 
1 0 -15 1 0 
2 10 0 -1 0 0 1 10
1 0 0 0 -1 
1 6.2831853071795862 0 0 -1 
1 0 -15 1 0 
2 10 0 -1 0 0 1 10
1 0 0 0 -1 
1 6.2831853071795862 0 0 -1 
1 0 -15 1 0 
2 10 0 -1 0 0 1 10
1 0 0 0 -1 
1 6.2831853071795862 0 0 -1 
1 0 -15 1 0 
2 10 0 -1 0 0 1 10
1 0 0 0 -1 
1 6.2831853071795862 0 0 -1 
1 0 -15 1 0 
2 10 0 -1 0 0 1 10
1 0 0 0 -1 
1 6.2831853071795862 0 0 -1 
1 0 -15 1 0 
2 10 0 -1 0 0 1 10
1 0 0 0 -1 
1 6.2831853071795862 0 0 -1 
1 0 -15 1 0 
2 10 0 -1 0 0 1 10
1 0 0 0 -1 
1 6.2831853071795862 0 0 -1 
1 0 -15 1 0 
2 10 0 -1 0 0 1 10
1 0 0 0 -1 
1 120 0 0 -1 
1 0 -15 1 0 
1 -120 0 0 1 
1 0 0 -1 0 
1 0 -15 1 0 
1 -5 5 -1 0 
1 0 -15 1 0 
1 -115 5 0 1 
1 0 -15 1 0 
1 -115 55 1 0 
1 0 -15 1 0 
1 -5 55 0 -1 
1 0 -15 1 0 
1 0 0 0 -1 
1 50 0 0 -1 
1 0 0 1 0 
1 5 -55 1 0 
1 0 0 1 0 
1 5 -55 1 0 
1 110 0 0 -1 
1 0 0 0 -1 
1 0 0 1 0 
1 5 -55 1 0 
1 0 0 1 0 
1 5 -55 1 0 
1 0 0 1 0 
1 5 -55 1 0 
1 0 0 1 0 
1 115 -55 0 1 
1 0 0 1 0 
1 115 -55 0 1 
1 50 0 0 -1 
1 0 -0 0 -1 
1 0 0 1 0 
1 115 -55 0 1 
1 0 -0 1 0 
1 115 -5 -1 0 
1 0 -0 1 0 
1 115 -5 -1 0 
1 110 0 0 -1 
1 0 0 0 -1 
1 0 -0 1 0 
1 115 -5 -1 0 
1 0 -0 1 0 
1 115 -5 -1 0 
1 0 -0 1 0 
1 115 -5 -1 0 
1 0 0 1 0 
1 5 -5 0 -1 
1 0 0 1 0 
1 5 -5 0 -1 
1 0 0 1 0 
1 5 -5 0 -1 
2 15 -45 1 0 -0 1 10
2 15 -45 1 0 -0 1 10
2 45 -45 1 0 -0 1 10
2 45 -45 1 0 -0 1 10
2 15 -45 1 0 -0 1 10
2 15 -45 1 0 -0 1 10
2 15 -45 1 0 -0 1 10
2 15 -45 1 0 -0 1 10
2 30 -30 1 0 -0 1 11.213203435596
1 0 0 1 0 
2 75 -45 1 0 -0 1 10
2 75 -45 1 0 -0 1 10
2 45 -45 1 0 -0 1 10
2 45 -45 1 0 -0 1 10
2 45 -45 1 0 -0 1 10
2 45 -45 1 0 -0 1 10
2 60 -30 1 0 -0 1 11.213203435596
1 0 0 1 0 
2 105 -45 1 0 -0 1 10
2 105 -45 1 0 -0 1 10
2 105 -45 1 0 -0 1 10
2 105 -45 1 0 -0 1 10
2 75 -45 1 0 -0 1 10
2 75 -45 1 0 -0 1 10
2 75 -45 1 0 -0 1 10
2 75 -45 1 0 -0 1 10
2 90 -30 1 0 -0 1 11.213203435596
1 0 0 1 0 
2 105 -15 1 0 -0 1 10
2 105 -15 1 0 -0 1 10
2 105 -45 1 0 -0 1 10
2 105 -45 1 0 -0 1 10
2 90 -30 1 0 -0 1 11.213203435596
1 0 0 1 0 
2 90 -30 1 0 -0 1 11.213203435596
1 0 0 1 0 
2 105 -15 1 0 -0 1 10
2 105 -15 1 0 -0 1 10
2 105 -15 1 0 -0 1 10
2 105 -15 1 0 -0 1 10
2 90 -30 1 0 -0 1 11.213203435596
1 0 0 1 0 
2 75 -15 1 0 -0 1 10
2 75 -15 1 0 -0 1 10
2 75 -15 1 0 -0 1 10
2 75 -15 1 0 -0 1 10
2 75 -15 1 0 -0 1 10
2 75 -15 1 0 -0 1 10
2 60 -30 1 0 -0 1 11.213203435596
1 0 0 1 0 
2 45 -15 1 0 -0 1 10
2 45 -15 1 0 -0 1 10
2 45 -15 1 0 -0 1 10
2 45 -15 1 0 -0 1 10
2 15 -15 1 0 -0 1 10
2 15 -15 1 0 -0 1 10
2 45 -15 1 0 -0 1 10
2 45 -15 1 0 -0 1 10
2 30 -30 1 0 -0 1 11.213203435596
1 0 0 1 0 
2 15 -15 1 0 -0 1 10
2 15 -15 1 0 -0 1 10
2 15 -15 1 0 -0 1 10
2 15 -15 1 0 -0 1 10
2 30 -30 1 0 -0 1 11.213203435596
1 0 0 1 0 
2 15 -45 1 0 -0 1 10
2 15 -45 1 0 -0 1 10
2 15 -15 1 0 -0 1 10
2 15 -15 1 0 -0 1 10
2 15 -45 1 0 -0 1 5
1 0 0 1 0 
2 45 -45 1 0 -0 1 10
2 45 -45 1 0 -0 1 10
1 0 0 1 0 
2 30 -30 1 0 -0 1 11.213203435596
1 0 0 1 0 
2 30 -30 1 0 -0 1 11.213203435596
1 0 0 0 -1 
1 6.2831853071795862 0 0 -1 
1 0 -15 1 0 
2 11.213203435596 0 -1 0 0 1 11.213203435596
2 75 -45 1 0 -0 1 10
2 75 -45 1 0 -0 1 10
1 0 0 1 0 
2 60 -30 1 0 -0 1 11.213203435596
1 0 0 1 0 
2 60 -30 1 0 -0 1 11.213203435596
1 0 0 1 0 
2 60 -30 1 0 -0 1 11.213203435596
1 0 0 0 -1 
1 6.2831853071795862 0 0 -1 
1 0 -15 1 0 
2 11.213203435596 0 -1 0 0 1 11.213203435596
1 0 0 1 0 
2 90 -30 1 0 -0 1 11.213203435596
1 0 0 0 -1 
1 6.2831853071795862 0 0 -1 
1 0 -15 1 0 
2 11.213203435596 0 -1 0 0 1 11.213203435596
2 75 -15 1 0 -0 1 10
2 75 -15 1 0 -0 1 10
2 45 -15 1 0 -0 1 10
2 45 -15 1 0 -0 1 10
1 0 0 0 -1 
1 6.2831853071795862 0 0 -1 
1 0 -10 1 0 
2 5 0 -1 0 0 1 5
2 11.213203435596 0 -1 0 0 1 10
1 0 -15 1 0 
2 11.213203435596 0 -1 0 0 1 10
1 0 -15 1 0 
2 11.213203435596 0 -1 0 0 1 10
1 0 -15 1 0 
1 0 0 1 0 
2 30 -30 1 0 -0 1 10
1 0 0 0 -1 
1 6.2831853071795862 0 0 -1 
1 0 0 1 0 
2 60 -30 1 0 -0 1 10
1 0 0 0 -1 
1 6.2831853071795862 0 0 -1 
1 0 0 1 0 
2 90 -30 1 0 -0 1 10
1 0 0 0 -1 
1 6.2831853071795862 0 0 -1 
Curves 139
1 0 30 0 0 0 1 
1 0 30 0 1 0 0 
1 0 30 0 1 0 0 
1 120 30 0 0 0 1 
1 0 -30 0 0 0 1 
1 0 -30 0 0 1 0 
1 0 -30 0 0 1 0 
2 105 15 0 0 0 1 0 -1 0 1 0 -0 10
2 105 15 0 0 0 1 0 -1 0 1 0 -0 10
2 75 15 0 0 0 1 0 -1 0 1 0 -0 10
2 75 15 0 0 0 1 0 -1 0 1 0 -0 10
2 45 15 0 0 0 1 0 -1 0 1 0 -0 10
2 45 15 0 0 0 1 0 -1 0 1 0 -0 10
2 15 15 0 0 0 1 0 -1 0 1 0 -0 10
2 15 15 0 0 0 1 0 -1 0 1 0 -0 10
2 105 -15 0 0 0 1 0 -1 0 1 0 -0 10
2 105 -15 0 0 0 1 0 -1 0 1 0 -0 10
2 75 -15 0 0 0 1 0 -1 0 1 0 -0 10
2 75 -15 0 0 0 1 0 -1 0 1 0 -0 10
2 45 -15 0 0 0 1 0 -1 0 1 0 -0 10
2 45 -15 0 0 0 1 0 -1 0 1 0 -0 10
2 15 -15 0 0 0 1 0 -1 0 1 0 -0 10
2 15 -15 0 0 0 1 0 -1 0 1 0 -0 10
1 120 30 0 0 -1 0 
1 120 -30 0 -1 0 0 
1 120 30 5 0 0 1 
1 120 30 0 -1 0 0 
1 0 30 5 0 0 1 
1 120 30 0 0 -1 0 
1 120 -30 0 0 0 1 
1 120 -30 0 -1 0 0 
1 0 30 0 0 -1 0 
1 0 -30 5 0 0 1 
1 25 -15 5 -0 -0 -1 
2 15 -15 0 0 0 1 1 0 -0 -0 1 0 10
1 25 -15 5 -0 -0 -1 
2 15 -15 0 0 0 1 1 0 -0 -0 1 0 10
1 25 -15 5 -0 -0 -1 
2 15 -15 0 0 0 1 1 0 -0 -0 1 0 10
1 25 -15 5 -0 -0 -1 
2 15 -15 0 0 0 1 1 0 -0 -0 1 0 10
1 25 -15 5 -0 -0 -1 
2 15 -15 0 0 0 1 1 0 -0 -0 1 0 10
1 25 -15 5 -0 -0 -1 
2 15 -15 0 0 0 1 1 0 -0 -0 1 0 10
1 25 -15 5 -0 -0 -1 
2 15 -15 0 0 0 1 1 0 -0 -0 1 0 10
1 25 -15 5 -0 -0 -1 
2 15 -15 0 0 0 1 1 0 -0 -0 1 0 10
1 120 -30 5 0 0 1 
1 120 -30 0 0 1 0 
1 0 -30 0 1 0 0 
1 5 -25 0 1 0 0 
1 115 -25 0 0 1 0 
1 115 25 0 -1 0 0 
1 5 25 0 0 -1 0 
1 5 -25 5 0 0 1 
1 5 -25 0 1 0 0 
1 5 -25 0 1 0 0 
1 115 -25 5 0 0 1 
1 5 -25 0 1 0 0 
1 5 -25 0 1 0 0 
1 5 -25 0 1 0 0 
1 115 -25 0 0 1 0 
1 115 -25 0 0 1 0 
1 115 25 5 0 0 1 
1 115 -25 0 0 1 0 
1 115 25 0 -1 0 0 
1 115 25 0 -1 0 0 
1 5 25 5 0 0 1 
1 115 25 0 -1 0 0 
1 115 25 0 -1 0 0 
1 115 25 0 -1 0 0 
1 5 25 0 0 -1 0 
1 5 25 0 0 -1 0 
1 5 25 0 0 -1 0 
2 15 -15 0 0 0 1 1 0 -0 -0 1 0 10
2 15 -15 0 0 0 1 1 0 -0 -0 1 0 10
2 15 -15 0 0 0 1 1 0 -0 -0 1 0 10
2 15 -15 0 0 0 1 1 0 -0 -0 1 0 10
2 30 0 0 0 0 1 1 0 -0 -0 1 0 11.213203435596
2 15 -15 0 0 0 1 1 0 -0 -0 1 0 10
2 15 -15 0 0 0 1 1 0 -0 -0 1 0 10
2 15 -15 0 0 0 1 1 0 -0 -0 1 0 10
2 30 0 0 0 0 1 1 0 -0 -0 1 0 11.213203435596
2 15 -15 0 0 0 1 1 0 -0 -0 1 0 10
2 15 -15 0 0 0 1 1 0 -0 -0 1 0 10
2 15 -15 0 0 0 1 1 0 -0 -0 1 0 10
2 15 -15 0 0 0 1 1 0 -0 -0 1 0 10
2 30 0 0 0 0 1 1 0 -0 -0 1 0 11.213203435596
2 15 -15 0 0 0 1 1 0 -0 -0 1 0 10
2 15 -15 0 0 0 1 1 0 -0 -0 1 0 10
2 30 0 0 0 0 1 1 0 -0 -0 1 0 11.213203435596
2 30 0 0 0 0 1 1 0 -0 -0 1 0 11.213203435596
2 15 -15 0 0 0 1 1 0 -0 -0 1 0 10
2 15 -15 0 0 0 1 1 0 -0 -0 1 0 10
2 30 0 0 0 0 1 1 0 -0 -0 1 0 11.213203435596
2 15 -15 0 0 0 1 1 0 -0 -0 1 0 10
2 15 -15 0 0 0 1 1 0 -0 -0 1 0 10
2 15 -15 0 0 0 1 1 0 -0 -0 1 0 10
2 30 0 0 0 0 1 1 0 -0 -0 1 0 11.213203435596
2 15 -15 0 0 0 1 1 0 -0 -0 1 0 10
2 15 -15 0 0 0 1 1 0 -0 -0 1 0 10
2 15 -15 0 0 0 1 1 0 -0 -0 1 0 10
2 15 -15 0 0 0 1 1 0 -0 -0 1 0 10
2 30 0 0 0 0 1 1 0 -0 -0 1 0 11.213203435596
2 15 -15 0 0 0 1 1 0 -0 -0 1 0 10
2 15 -15 0 0 0 1 1 0 -0 -0 1 0 10
2 30 0 0 0 0 1 1 0 -0 -0 1 0 11.213203435596
2 15 -15 0 0 0 1 1 0 -0 -0 1 0 10
2 15 -15 0 0 0 1 1 0 -0 -0 1 0 10
2 15 -15 0 0 0 1 1 0 -0 -0 1 0 5
2 15 -15 0 0 0 1 1 0 -0 -0 1 0 10
2 30 0 0 0 0 1 1 0 -0 -0 1 0 11.213203435596
2 30 0 0 0 0 1 1 0 -0 -0 1 0 11.213203435596
1 41.213203435596 0 5 0 0 1 
2 30 0 0 0 0 1 1 0 -0 -0 1 0 11.213203435596
2 15 -15 0 0 0 1 1 0 -0 -0 1 0 10
2 30 0 0 0 0 1 1 0 -0 -0 1 0 11.213203435596
2 30 0 0 0 0 1 1 0 -0 -0 1 0 11.213203435596
2 30 0 0 0 0 1 1 0 -0 -0 1 0 11.213203435596
1 41.213203435596 0 5 0 0 1 
2 30 0 0 0 0 1 1 0 -0 -0 1 0 11.213203435596
2 30 0 0 0 0 1 1 0 -0 -0 1 0 11.213203435596
1 41.213203435596 0 5 0 0 1 
2 30 0 0 0 0 1 1 0 -0 -0 1 0 11.213203435596
2 15 -15 0 0 0 1 1 0 -0 -0 1 0 10
2 15 -15 0 0 0 1 1 0 -0 -0 1 0 10
1 20 -15 5 -0 -0 -1 
2 15 -15 0 0 0 1 1 0 -0 -0 1 0 5
2 30 0 0 0 0 1 1 0 -0 -0 1 0 10
2 30 0 0 0 0 1 1 0 -0 -0 1 0 10
2 30 0 0 0 0 1 1 0 -0 -0 1 0 10
2 30 0 0 0 0 1 1 0 -0 -0 1 0 10
1 40 0 5 0 0 1 
2 30 0 0 0 0 1 1 0 -0 -0 1 0 10
1 40 0 5 0 0 1 
2 30 0 0 0 0 1 1 0 -0 -0 1 0 10
1 40 0 5 0 0 1 
Polygon3D 0
PolygonOnTriangulations 0
Surfaces 66
1 0 30 0 0 1 0 1 0 0 0 0 -1 
1 0 -30 0 -1 0 0 0 1 0 0 0 -1 
1 0 30 0 -0 0 1 1 0 0 0 1 -0 
1 120 30 5 0 -1 0 -1 0 0 -0 -0 -1 
1 120 30 0 1 0 -0 0 -1 0 0 -0 -1 
1 120 -30 0 0 -1 0 -1 0 0 -0 -0 -1 
1 0 30 5 1 0 -0 0 -1 0 0 -0 -1 
2 15 -15 5 0 0 1 1 0 -0 -0 1 0 10
2 15 -15 5 0 0 1 1 0 -0 -0 1 0 10
2 15 -15 5 0 0 1 1 0 -0 -0 1 0 10
2 15 -15 5 0 0 1 1 0 -0 -0 1 0 10
2 15 -15 5 0 0 1 1 0 -0 -0 1 0 10
2 15 -15 5 0 0 1 1 0 -0 -0 1 0 10
2 15 -15 5 0 0 1 1 0 -0 -0 1 0 10
2 15 -15 5 0 0 1 1 0 -0 -0 1 0 10
1 120 -30 5 -1 0 0 0 1 0 0 0 -1 
1 0 -30 5 0 0 -1 -1 0 -0 0 1 0 
1 0 -30 5 0 1 0 1 0 0 0 0 -1 
1 25 -15 5 -0 0 -1 -1 0 0 0 1 0 
1 25 -15 5 -0 0 -1 -1 0 0 0 1 0 
1 25 -15 5 -0 0 -1 -1 0 0 0 1 0 
1 25 -15 5 -0 0 -1 -1 0 0 0 1 0 
1 25 -15 5 -0 0 -1 -1 0 0 0 1 0 
1 25 -15 5 -0 0 -1 -1 0 0 0 1 0 
1 25 -15 5 -0 0 -1 -1 0 0 0 1 0 
1 25 -15 5 -0 0 -1 -1 0 0 0 1 0 
1 5 -25 5 0 1 0 1 0 0 0 0 -1 
1 115 -25 5 -1 0 0 0 1 0 0 0 -1 
1 115 25 5 0 -1 0 -1 0 0 -0 -0 -1 
1 5 25 5 1 0 -0 0 -1 0 0 -0 -1 
1 0 30 0 -0 0 1 1 0 0 0 1 -0 
1 0 30 0 -0 0 1 1 0 0 0 1 -0 
1 0 30 0 -0 0 1 1 0 0 0 1 -0 
1 0 30 0 -0 0 1 1 0 0 0 1 -0 
1 0 30 0 -0 0 1 1 0 0 0 1 -0 
1 0 30 0 -0 0 1 1 0 0 0 1 -0 
1 0 30 0 -0 0 1 1 0 0 0 1 -0 
1 0 30 0 -0 0 1 1 0 0 0 1 -0 
1 0 30 0 -0 0 1 1 0 0 0 1 -0 
1 0 30 0 -0 0 1 1 0 0 0 1 -0 
1 0 30 0 -0 0 1 1 0 0 0 1 -0 
1 0 30 0 -0 0 1 1 0 0 0 1 -0 
1 0 30 0 -0 0 1 1 0 0 0 1 -0 
1 0 30 0 -0 0 1 1 0 0 0 1 -0 
2 30 0 5 -0 -0 -1 1 0 0 -0 1 -0 11.213203435596
1 0 30 0 -0 0 1 1 0 0 0 1 -0 
2 30 0 5 -0 -0 -1 1 0 0 -0 1 -0 11.213203435596
1 0 30 0 -0 0 1 1 0 0 0 1 -0 
2 30 0 5 -0 -0 -1 1 0 0 -0 1 -0 11.213203435596
1 0 30 0 -0 0 1 1 0 0 0 1 -0 
1 0 30 0 -0 0 1 1 0 0 0 1 -0 
1 0 30 0 -0 0 1 1 0 0 0 1 -0 
1 0 30 0 -0 0 1 1 0 0 0 1 -0 
2 15 -15 5 0 0 1 1 0 -0 -0 1 0 5
1 0 30 0 -0 0 1 1 0 0 0 1 -0 
1 41.213203435596 0 5 -0 0 -1 -1 0 0 0 1 0 
1 0 30 0 -0 0 1 1 0 0 0 1 -0 
1 41.213203435596 0 5 -0 0 -1 -1 0 0 0 1 0 
1 41.213203435596 0 5 -0 0 -1 -1 0 0 0 1 0 
1 20 -15 5 -0 0 -1 -1 0 0 0 1 0 
2 30 0 5 -0 -0 -1 1 0 0 -0 1 -0 10
2 30 0 5 -0 -0 -1 1 0 0 -0 1 -0 10
2 30 0 5 -0 -0 -1 1 0 0 -0 1 -0 10
1 0 30 0 -0 0 1 1 0 0 0 1 -0 
1 0 30 0 -0 0 1 1 0 0 0 1 -0 
1 0 30 0 -0 0 1 1 0 0 0 1 -0 
Triangulations 0

TShapes 374
Ve
1e-07
0 30 0
0 0

0101101
*
Ve
1e-07
0 30 5
0 0

0101101
*
Ed
 1e-07 1 1 0
1  1 0 0 5
2  1 1 0 0 5
2  2 2 0 0 5
0

0101000
+374 14 -373 14 *
Ve
1e-07
120 30 0
0 0

0101101
*
Ed
 1e-07 1 1 0
1  2 0 0 120
2  3 1 18 0 120
2  4 3 19 0 120
0

0101000
+374 20 -371 20 *
Ve
1e-07
120 30 5
0 0

0101101
*
Ed
 1e-07 1 1 0
1  3 0 0 120
2  5 1 23 0 120
2  6 4 24 0 120
0

0101000
+373 25 -369 25 *
Ed
 1e-07 1 1 0
1  4 0 0 5
2  7 1 0 0 5
2  8 5 0 0 5
0

0101000
+371 14 -369 14 *
Wi

0101000
+372 13 -370 17 +368 22 -367 13 *
Fa
0  1e-07 1 13

0101000
+366 0 *
Ve
1e-07
0 -30 0
0 0

0101101
*
Ve
1e-07
0 -30 5
0 0

0101101
*
Ed
 1e-07 1 1 0
1  5 0 0 5
2  9 2 0 0 5
2  10 6 0 0 5
0

0101000
+364 14 -363 14 *
Ed
 1e-07 1 1 0
1  6 0 0 60
2  11 2 18 0 60
2  12 3 19 0 60
0

0101000
+364 20 -374 20 *
Ed
 1e-07 1 1 0
1  7 0 0 60
2  13 2 23 0 60
2  14 7 24 0 60
0

0101000
+363 25 -373 25 *
Wi

0101000
+362 13 -361 17 +360 22 -372 13 *
Fa
0  1e-07 2 13

0101000
+359 0 *
Ve
2.00001e-07
115 15 0
0 0

0101101
*
Ve
1e-07
105 5 0
0 0

0101101
*
Ed
 1e-07 1 1 0
1  8 0 1.5707963267949 6.28318530717959
2  15 3 27 1.5707963267949 6.28318530717959
2  16 8 28 1.5707963267949 6.28318530717959
0

0101000
+357 29 -356 29 *
Ed
 1e-07 1 1 0
1  9 0 0 1.5707963267949
2  17 3 27 0 1.5707963267949
2  18 8 28 0 1.5707963267949
0

0101000
+356 29 -357 29 *
Wi

0101000
-355 0 -354 0 *
Ve
2.00001e-07
85 15 0
0 0

0101101
*
Ve
1e-07
75 5 0
0 0

0101101
*
Ed
 1e-07 1 1 0
1  10 0 1.5707963267949 6.28318530717959
2  19 3 27 1.5707963267949 6.28318530717959
2  20 9 30 1.5707963267949 6.28318530717959
0

0101000
+352 29 -351 29 *
Ed
 1e-07 1 1 0
1  11 0 0 1.5707963267949
2  21 3 27 0 1.5707963267949
2  22 9 30 0 1.5707963267949
0

0101000
+351 29 -352 29 *
Wi

0101000
-350 0 -349 0 *
Ve
2.00001e-07
55 15 0
0 0

0101101
*
Ve
1e-07
45 5 0
0 0

0101101
*
Ed
 1e-07 1 1 0
1  12 0 1.5707963267949 6.28318530717959
2  23 3 27 1.5707963267949 6.28318530717959
2  24 10 31 1.5707963267949 6.28318530717959
0

0101000
+347 29 -346 29 *
Ed
 1e-07 1 1 0
1  13 0 0 1.5707963267949
2  25 3 27 0 1.5707963267949
2  26 10 31 0 1.5707963267949
0

0101000
+346 29 -347 29 *
Wi

0101000
-345 0 -344 0 *
Ve
2.00001e-07
25 15 0
0 0

0101101
*
Ve
1e-07
15 5 0
0 0

0101101
*
Ed
 1e-07 1 1 0
1  14 0 1.5707963267949 6.28318530717959
2  27 3 27 1.5707963267949 6.28318530717959
2  28 11 32 1.5707963267949 6.28318530717959
0

0101000
+342 29 -341 29 *
Ed
 1e-07 1 1 0
1  15 0 0 1.5707963267949
2  29 3 27 0 1.5707963267949
2  30 11 32 0 1.5707963267949
0

0101000
+341 29 -342 29 *
Wi

0101000
-340 0 -339 0 *
Ve
2.00001e-07
115 -15 0
0 0

0101101
*
Ve
1e-07
105 -25 0
0 0

0101101
*
Ed
 1e-07 1 1 0
1  16 0 1.5707963267949 6.28318530717959
2  31 3 27 1.5707963267949 6.28318530717959
2  32 12 33 1.5707963267949 6.28318530717959
0

0101000
+337 29 -336 29 *
Ed
 1e-07 1 1 0
1  17 0 0 1.5707963267949
2  33 3 27 0 1.5707963267949
2  34 12 33 0 1.5707963267949
0

0101000
+336 29 -337 29 *
Wi

0101000
-335 0 -334 0 *
Ve
2.00001e-07
85 -15 0
0 0

0101101
*
Ve
1e-07
75 -25 0
0 0

0101101
*
Ed
 1e-07 1 1 0
1  18 0 1.5707963267949 6.28318530717959
2  35 3 27 1.5707963267949 6.28318530717959
2  36 13 34 1.5707963267949 6.28318530717959
0

0101000
+332 29 -331 29 *
Ed
 1e-07 1 1 0
1  19 0 0 1.5707963267949
2  37 3 27 0 1.5707963267949
2  38 13 34 0 1.5707963267949
0

0101000
+331 29 -332 29 *
Wi

0101000
-330 0 -329 0 *
Ve
2.00001e-07
55 -15 0
0 0

0101101
*
Ve
1e-07
45 -25 0
0 0

0101101
*
Ed
 1e-07 1 1 0
1  20 0 1.5707963267949 6.28318530717959
2  39 3 27 1.5707963267949 6.28318530717959
2  40 14 35 1.5707963267949 6.28318530717959
0

0101000
+327 29 -326 29 *
Ed
 1e-07 1 1 0
1  21 0 0 1.5707963267949
2  41 3 27 0 1.5707963267949
2  42 14 35 0 1.5707963267949
0

0101000
+326 29 -327 29 *
Wi

0101000
-325 0 -324 0 *
Ve
2.00001e-07
25 -15 0
0 0

0101101
*
Ve
1e-07
15 -25 0
0 0

0101101
*
Ed
 1e-07 1 1 0
1  22 0 1.5707963267949 6.28318530717959
2  43 3 36 1.5707963267949 6.28318530717959
2  44 15 0 1.5707963267949 6.28318530717959
0

0101000
+322 37 -321 37 *
Ed
 1e-07 1 1 0
1  23 0 0 1.5707963267949
2  45 3 36 0 1.5707963267949
2  46 15 0 0 1.5707963267949
0

0101000
+321 37 -322 37 *
Wi

0101000
-320 4 -319 4 *
Ve
1e-07
120 -30 0
0 0

0101101
*
Ed
 1e-07 1 1 0
1  24 0 0 60
2  47 3 19 0 60
2  48 5 18 0 60
0

0101000
+371 20 -317 20 *
Ed
 1e-07 1 1 0
1  25 0 0 120
2  49 3 19 0 120
2  50 6 18 0 120
0

0101000
+317 20 -364 20 *
Wi

0101000
-370 38 -361 38 -316 38 -315 38 *
Fa
0  1e-07 3 27

0101000
+353 0 +348 0 +343 0 +338 0 +333 0 +328 0 +323 0 +318 0 +314 0 *
Ve
1e-07
120 30 20
0 0

0101101
*
Ed
 1e-07 1 1 0
1  26 0 0 15
2  51 4 0 0 15
2  52 16 0 0 15
0

0101000
+369 39 -312 39 *
Ve
1e-07
0 30 20
0 0

0101101
*
Ed
 1e-07 1 1 0
1  27 0 0 120
2  53 4 43 0 120
2  54 17 44 0 120
0

0101000
+312 45 -310 45 *
Ed
 1e-07 1 1 0
1  28 0 0 15
2  55 4 0 0 15
2  56 7 0 0 15
0

0101000
+373 39 -310 39 *
Wi

0101000
+311 0 +368 22 +309 42 -308 0 *
Fa
0  1e-07 4 0

0101000
+307 0 *
Ve
1e-07
120 -30 5
0 0

0101101
*
Ed
 1e-07 1 1 0
1  29 0 0 60
2  57 5 23 0 60
2  58 16 24 0 60
0

0101000
+369 25 -305 25 *
Ed
 1e-07 1 1 0
1  30 0 0 5
2  59 5 0 0 5
2  60 6 0 0 5
0

0101000
+317 14 -305 14 *
Wi

0101000
+367 13 -316 17 +304 22 -303 13 *
Fa
0  1e-07 5 13

0101000
+302 0 *
Ed
 1e-07 1 1 0
1  31 0 0 120
2  61 6 23 0 120
2  62 18 24 0 120
0

0101000
+305 25 -363 25 *
Wi

0101000
+303 13 -315 17 +300 22 -362 13 *
Fa
0  1e-07 6 13

0101000
+299 0 *
Ve
1e-07
0 -30 20
0 0

0101101
*
Ed
 1e-07 1 1 0
1  32 0 0 60
2  63 7 43 0 60
2  64 17 44 0 60
0

0101000
+310 45 -297 45 *
Ed
 1e-07 1 1 0
1  33 0 0 15
2  65 7 0 0 15
2  66 18 0 0 15
0

0101000
+363 39 -297 39 *
Wi

0101000
+308 0 +360 22 +296 42 -295 0 *
Fa
0  1e-07 7 0

0101000
+294 0 *
Ve
1e-07
115 15 -10
0 0

0101101
*
Ed
 1e-07 1 1 0
1  34 0 5 15
3  67 68CN 8 0 5 15
0

0101000
+357 46 -292 46 *
Ed
 1e-07 1 1 0
1  35 0 0 6.28318530717959
2  69 8 50 0 6.28318530717959
2  70 19 51 0 6.28318530717959
0

0101100
+292 52 -292 52 *
Wi

0101000
-291 28 +290 49 +291 28 -355 0 -354 0 *
Fa
0  1e-07 8 28

0101000
+289 0 *
Ve
1e-07
85 15 -10
0 0

0101101
*
Ed
 1e-07 1 1 0
1  36 0 5 15
3  71 72CN 9 0 5 15
0

0101000
+352 53 -287 53 *
Ed
 1e-07 1 1 0
1  37 0 0 6.28318530717959
2  73 9 50 0 6.28318530717959
2  74 20 51 0 6.28318530717959
0

0101100
+287 55 -287 55 *
Wi

0101000
-286 30 +285 54 +286 30 -350 0 -349 0 *
Fa
0  1e-07 9 30

0101000
+284 0 *
Ve
1e-07
55 15 -10
0 0

0101101
*
Ed
 1e-07 1 1 0
1  38 0 5 15
3  75 76CN 10 0 5 15
0

0101000
+347 56 -282 56 *
Ed
 1e-07 1 1 0
1  39 0 0 6.28318530717959
2  77 10 50 0 6.28318530717959
2  78 21 51 0 6.28318530717959
0

0101100
+282 58 -282 58 *
Wi

0101000
-281 31 +280 57 +281 31 -345 0 -344 0 *
Fa
0  1e-07 10 31

0101000
+279 0 *
Ve
1e-07
25 15 -10
0 0

0101101
*
Ed
 1e-07 1 1 0
1  40 0 5 15
3  79 80CN 11 0 5 15
0

0101000
+342 59 -277 59 *
Ed
 1e-07 1 1 0
1  41 0 0 6.28318530717959
2  81 11 50 0 6.28318530717959
2  82 22 51 0 6.28318530717959
0

0101100
+277 61 -277 61 *
Wi

0101000
-276 32 +275 60 +276 32 -340 0 -339 0 *
Fa
0  1e-07 11 32

0101000
+274 0 *
Ve
1e-07
115 -15 -10
0 0

0101101
*
Ed
 1e-07 1 1 0
1  42 0 5 15
3  83 84CN 12 0 5 15
0

0101000
+337 62 -272 62 *
Ed
 1e-07 1 1 0
1  43 0 0 6.28318530717959
2  85 12 50 0 6.28318530717959
2  86 23 51 0 6.28318530717959
0

0101100
+272 64 -272 64 *
Wi

0101000
-271 33 +270 63 +271 33 -335 0 -334 0 *
Fa
0  1e-07 12 33

0101000
+269 0 *
Ve
1e-07
85 -15 -10
0 0

0101101
*
Ed
 1e-07 1 1 0
1  44 0 5 15
3  87 88CN 13 0 5 15
0

0101000
+332 65 -267 65 *
Ed
 1e-07 1 1 0
1  45 0 0 6.28318530717959
2  89 13 50 0 6.28318530717959
2  90 24 51 0 6.28318530717959
0

0101100
+267 67 -267 67 *
Wi

0101000
-266 34 +265 66 +266 34 -330 0 -329 0 *
Fa
0  1e-07 13 34

0101000
+264 0 *
Ve
1e-07
55 -15 -10
0 0

0101101
*
Ed
 1e-07 1 1 0
1  46 0 5 15
3  91 92CN 14 0 5 15
0

0101000
+327 68 -262 68 *
Ed
 1e-07 1 1 0
1  47 0 0 6.28318530717959
2  93 14 50 0 6.28318530717959
2  94 25 51 0 6.28318530717959
0

0101100
+262 70 -262 70 *
Wi

0101000
-261 35 +260 69 +261 35 -325 0 -324 0 *
Fa
0  1e-07 14 35

0101000
+259 0 *
Ve
1e-07
25 -15 -10
0 0

0101101
*
Ed
 1e-07 1 1 0
1  48 0 5 15
3  95 96CN 15 0 5 15
0

0101000
+322 37 -257 37 *
Ed
 1e-07 1 1 0
1  49 0 0 6.28318530717959
2  97 15 50 0 6.28318530717959
2  98 26 51 0 6.28318530717959
0

0101100
+257 73 -257 73 *
Wi

0101000
-256 0 +255 72 +256 0 -320 0 -319 0 *
Fa
0  1e-07 15 0

0101000
+254 0 *
Ve
1e-07
120 -30 20
0 0

0101101
*
Ed
 1e-07 1 1 0
1  50 0 0 15
2  99 16 0 0 15
2  100 18 0 0 15
0

0101000
+305 39 -252 39 *
Ed
 1e-07 1 1 0
1  51 0 0 60
2  101 16 43 0 60
2  102 17 44 0 60
0

0101000
+252 45 -312 45 *
Wi

0101000
+251 0 +304 22 +250 42 -311 0 *
Fa
0  1e-07 16 0

0101000
+249 0 *
Ed
 1e-07 1 1 0
1  52 0 0 120
2  103 17 44 0 120
2  104 18 43 0 120
0

0101000
+297 45 -252 45 *
Wi

0101100
+247 0 +250 0 +309 0 +296 0 *
Ve
1e-07
5 -25 20
0 0

0101101
*
Ve
5.09001269276204e-05
115 -25 20
0 0

0101101
*
Ed
 1e-07 1 1 0
1  53 0 0 110
2  105 17 44 0 110
2  106 27 43 0 110
0

0101000
+245 45 -244 45 *
Ve
1e-07
115 25 20
0 0

0101101
*
Ed
 1e-07 1 1 0
1  54 0 0 50
2  107 17 44 0 50
2  108 28 43 0 50
0

0101000
+244 45 -242 45 *
Ve
1e-07
5 25 20
0 0

0101101
*
Ed
 1e-07 1 1 0
1  55 0 0 110
2  109 17 44 0 110
2  110 29 43 0 110
0

0101000
+242 45 -240 45 *
Ed
 1e-07 1 1 0
1  56 0 0 50
2  111 17 44 0 50
2  112 30 43 0 50
0

0101000
+240 45 -245 45 *
Wi

0101100
+243 0 +241 0 +239 0 +238 0 *
Fa
0  1e-07 17 0

0101000
-246 40 +237 40 *
Wi

0101000
+295 0 +300 22 +247 42 -251 0 *
Fa
0  1e-07 18 0

0101000
+235 0 *
Wi

0101100
+290 0 *
Fa
0  1e-07 19 0

0101000
-233 47 *
Wi

0101100
+285 0 *
Fa
0  1e-07 20 0

0101000
-231 47 *
Wi

0101100
+280 0 *
Fa
0  1e-07 21 0

0101000
-229 47 *
Wi

0101100
+275 0 *
Fa
0  1e-07 22 0

0101000
-227 47 *
Wi

0101100
+270 0 *
Fa
0  1e-07 23 0

0101000
-225 47 *
Wi

0101100
+265 0 *
Fa
0  1e-07 24 0

0101000
-223 47 *
Wi

0101100
+260 0 *
Fa
0  1e-07 25 0

0101000
-221 47 *
Wi

0101100
+255 0 *
Fa
0  1e-07 26 0

0101000
-219 47 *
Ve
1e-07
5 -25 5
0 0

0101101
*
Ed
 1e-07 1 1 0
1  57 0 0 15
2  113 27 0 0 15
2  114 30 0 0 15
0

0101000
+217 39 -245 39 *
Ve
5.00000998737622e-07
15 -25 5
0 0

0101101
*
Ed
 1e-07 1 1 0
1  58 0 0 10
2  115 27 85 0 10
2  116 31 86 0 10
0

0101000
+217 87 -215 87 *
Ve
5.00000998737622e-07
45 -25 5
0 0

0101101
*
Ed
 1e-07 1 1 0
1  59 0 10 40
2  117 27 85 10 40
2  118 32 86 10 40
0

0101000
+215 87 -213 87 *
Ve
5.09001269276204e-05
115 -25 5
0 0

0101101
*
Ed
 1e-07 1 1 0
1  60 0 0 15
2  119 27 0 0 15
2  120 28 0 0 15
0

0101000
+211 39 -244 39 *
Ve
5.00000998737622e-07
75 -25 5
0 0

0101101
*
Ed
 1e-07 1 1 0
1  61 0 40 70
2  121 27 85 40 70
2  122 33 86 40 70
0

0101000
+213 87 -209 87 *
Ve
5.00000998737622e-07
105 -25 5
0 0

0101101
*
Ed
 1e-07 1 1 0
1  62 0 100 110
2  123 27 85 100 110
2  124 34 86 100 110
0

0101000
+207 87 -211 87 *
Ed
 1e-07 1 1 0
1  63 0 70 100
2  125 27 85 70 100
2  126 35 86 70 100
0

0101000
+209 87 -207 87 *
Wi

0101000
+216 83 -214 84 +243 88 -212 84 -210 83 -208 84 -206 84 -205 84 *
Fa
0  1e-07 27 83

0101000
+204 0 *
Ve
1.30000300115888e-06
115 -15 5
0 0

0101101
*
Ed
 1e-07 1 1 0
1  64 0 0 10
2  127 28 85 0 10
2  128 34 86 0 10
0

0101000
+211 87 -202 87 *
Ve
2.90000700244869e-06
115 15 5
0 0

0101101
*
Ed
 1e-07 1 1 0
1  65 0 10 40
2  129 28 85 10 40
2  130 36 86 10 40
0

0101000
+202 87 -200 87 *
Ve
1e-07
115 25 5
0 0

0101101
*
Ed
 1e-07 1 1 0
1  66 0 0 15
2  131 28 0 0 15
2  132 29 0 0 15
0

0101000
+198 39 -242 39 *
Ed
 1e-07 1 1 0
1  67 0 40 50
2  133 28 85 40 50
2  134 37 86 40 50
0

0101000
+200 87 -198 87 *
Wi

0101000
+210 83 -201 84 +241 88 -199 84 -197 83 -196 84 *
Fa
0  1e-07 28 83

0101000
+195 0 *
Ve
5.00000998737622e-07
105 25 5
0 0

0101101
*
Ed
 1e-07 1 1 0
1  68 0 0 10
2  135 29 85 0 10
2  136 37 86 0 10
0

0101000
+198 87 -193 87 *
Ve
5.00000998737622e-07
75 25 5
0 0

0101101
*
Ed
 1e-07 1 1 0
1  69 0 10 40
2  137 29 85 10 40
2  138 38 86 10 40
0

0101000
+193 87 -191 87 *
Ve
1e-07
5 25 5
0 0

0101101
*
Ed
 1e-07 1 1 0
1  70 0 0 15
2  139 29 0 0 15
2  140 30 0 0 15
0

0101000
+189 39 -240 39 *
Ve
5.00000998737622e-07
45 25 5
0 0

0101101
*
Ed
 1e-07 1 1 0
1  71 0 40 70
2  141 29 85 40 70
2  142 39 86 40 70
0

0101000
+191 87 -187 87 *
Ve
5.00001000513978e-07
15 25 5
0 0

0101101
*
Ed
 1e-07 1 1 0
1  72 0 100 110
2  143 29 85 100 110
2  144 40 86 100 110
0

0101000
+185 87 -189 87 *
Ed
 1e-07 1 1 0
1  73 0 70 100
2  145 29 85 70 100
2  146 41 86 70 100
0

0101000
+187 87 -185 87 *
Wi

0101000
+197 83 -192 84 +239 88 -190 84 -188 83 -186 84 -184 84 -183 84 *
Fa
0  1e-07 29 83

0101000
+182 0 *
Ve
5.00001002290335e-07
5 15 5
0 0

0101101
*
Ed
 1e-07 1 1 0
1  74 0 0 10
2  147 30 85 0 10
2  148 40 86 0 10
0

0101000
+189 87 -180 87 *
Ve
5.00001002290335e-07
5 -15 5
0 0

0101101
*
Ed
 1e-07 1 1 0
1  75 0 10 40
2  149 30 85 10 40
2  150 42 86 10 40
0

0101000
+180 87 -178 87 *
Ed
 1e-07 1 1 0
1  76 0 40 50
2  151 30 85 40 50
2  152 31 86 40 50
0

0101000
+178 87 -217 87 *
Wi

0101000
+188 83 -179 84 +238 88 -177 84 -216 83 -176 84 *
Fa
0  1e-07 30 83

0101000
+175 0 *
Ed
 1e-07 1 1 0
1  77 0 3.14159265358979 4.71238898038469
2  153 31 91 3.14159265358979 4.71238898038469
2  154 43 91 3.14159265358979 4.71238898038469
0

0101000
+178 92 -215 92 *
Wi

0101000
-173 90 +214 93 +176 93 *
Fa
0  1e-07 31 89

0101000
+172 0 *
Ve
1.00000213547351e-07
37.9289321881344 -7.92893218813438 5
0 0

0101101
*
Ed
 1e-07 1 1 0
1  78 0 2.35619449019235 4.71238898038469
2  155 32 97 2.35619449019235 4.71238898038469
2  156 44 97 2.35619449019235 4.71238898038469
0

0101000
+170 98 -213 98 *
Ve
1e-07
25 -15 5
0 0

0101101
*
Ed
 1e-07 1 1 0
1  79 0 4.71238898038469 6.28318530717959
2  157 32 91 4.71238898038469 6.28318530717959
2  158 43 91 4.71238898038469 6.28318530717959
0

0101000
+215 92 -168 92 *
Ve
1.00000212280217e-07
22.0710678118656 -7.92893218813437 5
0 0

0101101
*
Ed
 1e-07 1 1 0
1  80 0 0 0.785398163397448
2  159 32 91 0 0.785398163397448
2  160 43 91 0 0.785398163397448
0

0101000
+168 92 -166 92 *
Ed
 1e-07 1 1 0
1  81 0 3.92699081698724 5.49778714378214
2  161 32 103 3.92699081698724 5.49778714378214
2  162 45 104 3.92699081698724 5.49778714378214
0

0101000
+166 105 -170 105 *
Wi

0101000
-169 96 +212 99 -167 100 -165 100 -164 102 *
Fa
0  1e-07 32 95

0101000
+163 0 *
Ve
1.00000211020426e-07
67.9289321881344 -7.92893218813438 5
0 0

0101101
*
Ed
 1e-07 1 1 0
1  82 0 2.35619449019234 4.71238898038469
2  163 33 109 2.35619449019234 4.71238898038469
2  164 46 109 2.35619449019234 4.71238898038469
0

0101000
+161 110 -209 110 *
Ve
1e-07
55 -15 5
0 0

0101101
*
Ed
 1e-07 1 1 0
1  83 0 4.71238898038469 6.28318530717959
2  165 33 97 4.71238898038469 6.28318530717959
2  166 44 97 4.71238898038469 6.28318530717959
0

0101000
+213 98 -159 98 *
Ve
1.00000212280217e-07
52.0710678118656 -7.92893218813437 5
0 0

0101101
*
Ed
 1e-07 1 1 0
1  84 0 0 0.785398163397448
2  167 33 97 0 0.785398163397448
2  168 44 97 0 0.785398163397448
0

0101000
+159 98 -157 98 *
Ed
 1e-07 1 1 0
1  85 0 3.92699081698724 5.49778714378214
2  169 33 115 3.92699081698724 5.49778714378214
2  170 47 104 3.92699081698724 5.49778714378214
0

0101000
+157 116 -161 116 *
Wi

0101000
-160 108 +208 111 -158 112 -156 112 -155 114 *
Fa
0  1e-07 33 107

0101000
+154 0 *
Ed
 1e-07 1 1 0
1  86 0 4.71238898038469 6.28318530717959
2  171 34 119 4.71238898038469 6.28318530717959
2  172 48 119 4.71238898038469 6.28318530717959
0

0101000
+207 120 -202 120 *
Wi

0101000
+201 84 +206 84 -152 118 *
Fa
0  1e-07 34 117

0101000
+151 0 *
Ve
1.00000211020426e-07
97.9289321881344 -7.92893218813438 5
0 0

0101101
*
Ed
 1e-07 1 1 0
1  87 0 2.35619449019234 4.71238898038469
2  173 35 119 2.35619449019234 4.71238898038469
2  174 48 119 2.35619449019234 4.71238898038469
0

0101000
+149 120 -207 120 *
Ve
1e-07
85 -15 5
0 0

0101101
*
Ed
 1e-07 1 1 0
1  88 0 4.71238898038469 6.28318530717959
2  175 35 109 4.71238898038469 6.28318530717959
2  176 46 109 4.71238898038469 6.28318530717959
0

0101000
+209 110 -147 110 *
Ve
1.00000212280217e-07
82.0710678118656 -7.92893218813437 5
0 0

0101101
*
Ed
 1e-07 1 1 0
1  89 0 0 0.785398163397449
2  177 35 109 0 0.785398163397449
2  178 46 109 0 0.785398163397449
0

0101000
+147 110 -145 110 *
Ed
 1e-07 1 1 0
1  90 0 3.92699081698724 5.49778714378214
2  179 35 124 3.92699081698724 5.49778714378214
2  180 49 104 3.92699081698724 5.49778714378214
0

0101000
+145 125 -149 125 *
Wi

0101000
-148 121 +205 111 -146 108 -144 108 -143 123 *
Fa
0  1e-07 35 107

0101000
+142 0 *
Ve
1.00000211964575e-07
97.9289321881344 7.92893218813438 5
0 0

0101101
*
Ed
 1e-07 1 1 0
1  91 0 3.92699081698724 6.28318530717959
2  181 36 127 3.92699081698724 6.28318530717959
2  182 50 127 3.92699081698724 6.28318530717959
0

0101000
+140 128 -200 128 *
Ed
 1e-07 1 1 0
1  92 0 0 2.35619449019234
2  183 36 119 0 2.35619449019234
2  184 48 119 0 2.35619449019234
0

0101000
+202 120 -149 120 *
Ve
1e-07
101.213203435596 0 5
0 0

0101101
*
Ed
 1e-07 1 1 0
1  93 0 5.49778714378214 6.28318530717959
2  185 36 124 5.49778714378214 6.28318530717959
2  186 49 104 5.49778714378214 6.28318530717959
0

0101000
+149 125 -137 125 *
Ed
 1e-07 1 1 0
1  94 0 0 0.785398163397448
2  187 36 124 0 0.785398163397448
2  188 49 104 0 0.785398163397448
0

0101000
+137 125 -140 125 *
Wi

0101000
-139 126 +199 111 -138 121 -136 123 -135 123 *
Fa
0  1e-07 36 107

0101000
+134 0 *
Ed
 1e-07 1 1 0
1  95 0 0 1.5707963267949
2  189 37 127 0 1.5707963267949
2  190 50 127 0 1.5707963267949
0

0101000
+200 128 -193 128 *
Wi

0101000
+196 84 -132 129 +192 84 *
Fa
0  1e-07 37 117

0101000
+131 0 *
Ed
 1e-07 1 1 0
1  96 0 1.5707963267949 3.92699081698724
2  191 38 127 1.5707963267949 3.92699081698724
2  192 50 127 1.5707963267949 3.92699081698724
0

0101000
+193 128 -140 128 *
Ve
1.00000211020426e-07
82.0710678118656 7.92893218813437 5
0 0

0101101
*
Ed
 1e-07 1 1 0
1  97 0 0.785398163397448 2.35619449019235
2  193 38 124 0.785398163397448 2.35619449019235
2  194 49 104 0.785398163397448 2.35619449019235
0

0101000
+140 125 -128 125 *
Ve
5.00001000513978e-07
85 15 5
0 0

0101101
*
Ed
 1e-07 1 1 0
1  98 0 5.49778714378214 6.28318530717959
2  195 38 131 5.49778714378214 6.28318530717959
2  196 51 131 5.49778714378214 6.28318530717959
0

0101000
+128 132 -126 132 *
Ed
 1e-07 1 1 0
1  99 0 0 1.5707963267949
2  197 38 131 0 1.5707963267949
2  198 51 131 0 1.5707963267949
0

0101000
+126 132 -191 132 *
Wi

0101000
-129 126 -127 123 -125 130 -124 130 +190 111 *
Fa
0  1e-07 38 107

0101000
+123 0 *
Ve
1.00000211964575e-07
67.9289321881344 7.92893218813438 5
0 0

0101101
*
Ed
 1e-07 1 1 0
1  100 0 1.5707963267949 3.92699081698724
2  199 39 131 1.5707963267949 3.92699081698724
2  200 51 131 1.5707963267949 3.92699081698724
0

0101000
+191 132 -121 132 *
Ve
1.00000211020426e-07
52.0710678118656 7.92893218813437 5
0 0

0101101
*
Ed
 1e-07 1 1 0
1  101 0 0.785398163397448 2.35619449019234
2  201 39 115 0.785398163397448 2.35619449019234
2  202 47 104 0.785398163397448 2.35619449019234
0

0101000
+121 116 -119 116 *
Ve
5.00001000513978e-07
55 15 5
0 0

0101101
*
Ed
 1e-07 1 1 0
1  102 0 5.49778714378214 6.28318530717959
2  203 39 134 5.49778714378214 6.28318530717959
2  204 52 134 5.49778714378214 6.28318530717959
0

0101000
+119 135 -117 135 *
Ed
 1e-07 1 1 0
1  103 0 0 1.5707963267949
2  205 39 134 0 1.5707963267949
2  206 52 134 0 1.5707963267949
0

0101000
+117 135 -187 135 *
Wi

0101000
-120 130 -118 114 -116 133 -115 133 +186 111 *
Fa
0  1e-07 39 107

0101000
+114 0 *
Ed
 1e-07 1 1 0
1  104 0 1.5707963267949 3.14159265358979
2  207 40 137 1.5707963267949 3.14159265358979
2  208 53 137 1.5707963267949 3.14159265358979
0

0101000
+185 138 -180 138 *
Wi

0101000
-112 136 +179 84 +184 84 *
Fa
0  1e-07 40 117

0101000
+111 0 *
Ve
1.00000211964575e-07
37.9289321881344 7.92893218813438 5
0 0

0101101
*
Ed
 1e-07 1 1 0
1  105 0 1.5707963267949 3.92699081698724
2  209 41 134 1.5707963267949 3.92699081698724
2  210 52 134 1.5707963267949 3.92699081698724
0

0101000
+187 135 -109 135 *
Ve
1.00000212280217e-07
22.0710678118656 7.92893218813437 5
0 0

0101101
*
Ed
 1e-07 1 1 0
1  106 0 0.785398163397448 2.35619449019234
2  211 41 103 0.785398163397448 2.35619449019234
2  212 45 104 0.785398163397448 2.35619449019234
0

0101000
+109 105 -107 105 *
Ve
5.00001000513978e-07
25 15 5
0 0

0101101
*
Ed
 1e-07 1 1 0
1  107 0 5.49778714378214 6.28318530717959
2  213 41 137 5.49778714378214 6.28318530717959
2  214 53 137 5.49778714378214 6.28318530717959
0

0101000
+107 138 -105 138 *
Ed
 1e-07 1 1 0
1  108 0 0 1.5707963267949
2  215 41 137 0 1.5707963267949
2  216 53 137 0 1.5707963267949
0

0101000
+105 138 -185 138 *
Wi

0101000
-108 139 -106 102 -104 140 -103 140 +183 99 *
Fa
0  1e-07 41 95

0101000
+102 0 *
Ed
 1e-07 1 1 0
1  109 0 2.35619449019234 3.92699081698724
2  217 42 103 2.35619449019234 3.92699081698724
2  218 45 104 2.35619449019234 3.92699081698724
0

0101000
+107 105 -166 105 *
Ed
 1e-07 1 1 0
1  110 0 0.785398163397448 3.14159265358979
2  219 42 91 0.785398163397448 3.14159265358979
2  220 43 91 0.785398163397448 3.14159265358979
0

0101000
+166 92 -178 92 *
Ed
 1e-07 1 1 0
1  111 0 3.14159265358979 5.49778714378214
2  221 42 137 3.14159265358979 5.49778714378214
2  222 53 137 3.14159265358979 5.49778714378214
0

0101000
+180 138 -107 138 *
Wi

0101000
-100 102 -99 100 +177 99 -98 140 *
Fa
0  1e-07 42 95

0101000
+97 0 *
Wi

0101000
+165 142 +167 142 +99 142 +173 142 *
Ve
1e-07
20 -15 5
0 0

0101101
*
Ed
 1e-07 1 1 0
1  112 0 0 6.28318530717959
2  223 43 145 0 6.28318530717959
2  224 54 146 0 6.28318530717959
0

0101100
+94 147 -94 147 *
Wi

0101000
-93 144 *
Fa
0  1e-07 43 141

0101000
+95 0 +92 0 *
Ed
 1e-07 1 1 0
1  113 0 0.785398163397448 2.35619449019235
2  225 44 97 0.785398163397448 2.35619449019235
2  226 55 97 0.785398163397448 2.35619449019235
0

0101000
+157 98 -170 98 *
Wi

0101000
+156 112 +158 112 +90 112 +169 112 *
Fa
0  1e-07 44 107

0101000
+89 0 *
Ve
1e-07
41.213203435596 0 5
0 0

0101101
*
Ed
 1e-07 1 1 0
1  114 0 0 0.785398163397448
2  227 45 104 0 0.785398163397448
2  228 55 103 0 0.785398163397448
0

0101000
+87 105 -109 105 *
Ed
 1e-07 1 1 0
1  115 0 5.49778714378214 6.28318530717959
2  229 45 104 5.49778714378214 6.28318530717959
2  230 55 103 5.49778714378214 6.28318530717959
0

0101000
+170 105 -87 105 *
Ve
1e-07
41.213203435596 0 20
0 0

0101101
*
Ed
 1e-07 1 1 0
1  116 0 0 15
3  231 232CN 45 0 0 15
0

0101000
+87 148 -84 148 *
Ed
 1e-07 1 1 0
1  117 0 0 6.28318530717959
2  233 45 151 0 6.28318530717959
2  234 56 152 0 6.28318530717959
0

0101100
+84 153 -84 153 *
Wi

0101000
-86 102 -106 102 -100 102 -164 102 -85 102 -83 0 +82 150 +83 0 *
Fa
0  1e-07 45 0

0101000
+81 0 *
Ed
 1e-07 1 1 0
1  118 0 0.785398163397449 2.35619449019234
2  235 46 109 0.785398163397449 2.35619449019234
2  236 57 109 0.785398163397449 2.35619449019234
0

0101000
+145 110 -161 110 *
Wi

0101000
+144 108 +146 108 +79 108 +160 108 *
Fa
0  1e-07 46 107

0101000
+78 0 *
Ve
1e-07
71.213203435596 0 5
0 0

0101101
*
Ed
 1e-07 1 1 0
1  119 0 0 0.785398163397448
2  237 47 104 0 0.785398163397448
2  238 57 115 0 0.785398163397448
0

0101000
+76 116 -121 116 *
Ed
 1e-07 1 1 0
1  120 0 2.35619449019234 3.92699081698724
2  239 47 104 2.35619449019234 3.92699081698724
2  240 55 115 2.35619449019234 3.92699081698724
0

0101000
+119 116 -157 116 *
Ed
 1e-07 1 1 0
1  121 0 5.49778714378214 6.28318530717959
2  241 47 104 5.49778714378214 6.28318530717959
2  242 57 115 5.49778714378214 6.28318530717959
0

0101000
+161 116 -76 116 *
Ve
1e-07
71.213203435596 0 20
0 0

0101101
*
Ed
 1e-07 1 1 0
1  122 0 0 15
3  243 244CN 47 0 0 15
0

0101000
+76 154 -72 154 *
Ed
 1e-07 1 1 0
1  123 0 0 6.28318530717959
2  245 47 151 0 6.28318530717959
2  246 58 152 0 6.28318530717959
0

0101100
+72 156 -72 156 *
Wi

0101000
-75 114 -118 114 -74 114 -155 114 -73 114 -71 113 +70 155 +71 113 *
Fa
0  1e-07 47 113

0101000
+69 0 *
Wi

0101000
+152 121 +148 121 +138 121 *
Fa
0  1e-07 48 107

0101000
+67 0 *
Ed
 1e-07 1 1 0
1  124 0 2.35619449019235 3.92699081698724
2  247 49 104 2.35619449019235 3.92699081698724
2  248 57 124 2.35619449019235 3.92699081698724
0

0101000
+128 125 -145 125 *
Ve
1e-07
101.213203435596 0 20
0 0

0101101
*
Ed
 1e-07 1 1 0
1  125 0 0 15
3  249 250CN 49 0 0 15
0

0101000
+137 157 -64 157 *
Ed
 1e-07 1 1 0
1  126 0 0 6.28318530717959
2  251 49 151 0 6.28318530717959
2  252 59 152 0 6.28318530717959
0

0101100
+64 159 -64 159 *
Wi

0101000
-135 123 -127 123 -65 123 -143 123 -136 123 -63 122 +62 158 +63 122 *
Fa
0  1e-07 49 122

0101000
+61 0 *
Wi

0101000
+132 126 +139 126 +129 126 *
Fa
0  1e-07 50 107

0101000
+59 0 *
Ed
 1e-07 1 1 0
1  127 0 3.92699081698724 5.49778714378214
2  253 51 131 3.92699081698724 5.49778714378214
2  254 57 131 3.92699081698724 5.49778714378214
0

0101000
+121 132 -128 132 *
Wi

0101000
+124 130 +125 130 +120 130 +57 130 *
Fa
0  1e-07 51 107

0101000
+56 0 *
Ed
 1e-07 1 1 0
1  128 0 3.92699081698724 5.49778714378214
2  255 52 134 3.92699081698724 5.49778714378214
2  256 55 134 3.92699081698724 5.49778714378214
0

0101000
+109 135 -119 135 *
Wi

0101000
+115 133 +116 133 +108 133 +54 133 *
Fa
0  1e-07 52 107

0101000
+53 0 *
Wi

0101000
+103 140 +104 140 +112 140 +98 140 *
Fa
0  1e-07 53 95

0101000
+51 0 *
Ve
1e-07
20 -15 -5
0 0

0101101
*
Ed
 1e-07 1 1 0
1  129 0 0 10
3  257 258CN 54 0 0 10
0

0101000
+94 160 -49 160 *
Ed
 1e-07 1 1 0
1  130 0 0 6.28318530717959
2  259 54 163 0 6.28318530717959
2  260 60 164 0 6.28318530717959
0

0101100
+49 165 -49 165 *
Wi

0101000
-93 144 -48 0 +47 162 +48 0 *
Fa
0  1e-07 54 0

0101000
+46 0 *
Wi

0101000
-74 114 -90 112 -85 166 -86 166 -54 133 *
Fa
0  1e-07 55 107

0101000
+44 0 *
Wi

0101100
+82 0 *
Ve
1e-07
40 0 20
0 0

0101101
*
Ed
 1e-07 1 1 0
1  131 0 0 6.28318530717959
2  261 56 152 0 6.28318530717959
2  262 61 151 0 6.28318530717959
0

0101100
+41 153 -41 153 *
Wi

0101100
+40 0 *
Fa
0  1e-07 56 0

0101000
-42 101 +39 101 *
Wi

0101000
-57 130 -65 123 -79 108 -73 114 -75 114 *
Fa
0  1e-07 57 107

0101000
+37 0 *
Wi

0101100
+70 0 *
Ve
1e-07
70 0 20
0 0

0101101
*
Ed
 1e-07 1 1 0
1  132 0 0 6.28318530717959
2  263 58 152 0 6.28318530717959
2  264 62 151 0 6.28318530717959
0

0101100
+34 156 -34 156 *
Wi

0101100
+33 0 *
Fa
0  1e-07 58 0

0101000
-35 101 +32 101 *
Wi

0101100
+62 0 *
Ve
1e-07
100 0 20
0 0

0101101
*
Ed
 1e-07 1 1 0
1  133 0 0 6.28318530717959
2  265 59 152 0 6.28318530717959
2  266 63 151 0 6.28318530717959
0

0101100
+29 159 -29 159 *
Wi

0101100
+28 0 *
Fa
0  1e-07 59 0

0101000
-30 101 +27 101 *
Wi

0101100
+47 0 *
Fa
0  1e-07 60 0

0101000
-25 143 *
Ve
1e-07
40 0 5
0 0

0101101
*
Ed
 1e-07 1 1 0
1  134 0 0 6.28318530717959
2  267 61 104 0 6.28318530717959
2  268 64 103 0 6.28318530717959
0

0101100
+23 105 -23 105 *
Ed
 1e-07 1 1 0
1  135 0 0 15
3  269 270CN 61 0 0 15
0

0101000
+23 148 -41 148 *
Wi

0101000
-22 102 -21 0 +40 150 +21 0 *
Fa
0  1e-07 61 0

0101000
+20 0 *
Ve
1e-07
70 0 5
0 0

0101101
*
Ed
 1e-07 1 1 0
1  136 0 0 6.28318530717959
2  271 62 104 0 6.28318530717959
2  272 65 115 0 6.28318530717959
0

0101100
+18 116 -18 116 *
Ed
 1e-07 1 1 0
1  137 0 0 15
3  273 274CN 62 0 0 15
0

0101000
+18 154 -34 154 *
Wi

0101000
-17 114 -16 113 +33 155 +16 113 *
Fa
0  1e-07 62 113

0101000
+15 0 *
Ve
1e-07
100 0 5
0 0

0101101
*
Ed
 1e-07 1 1 0
1  138 0 0 6.28318530717959
2  275 63 104 0 6.28318530717959
2  276 66 124 0 6.28318530717959
0

0101100
+13 125 -13 125 *
Ed
 1e-07 1 1 0
1  139 0 0 15
3  277 278CN 63 0 0 15
0

0101000
+13 157 -29 157 *
Wi

0101000
-12 123 -11 122 +28 158 +11 122 *
Fa
0  1e-07 63 122

0101000
+10 0 *
Wi

0101000
+22 102 *
Fa
0  1e-07 64 95

0101000
+8 0 *
Wi

0101000
+17 114 *
Fa
0  1e-07 65 107

0101000
+6 0 *
Wi

0101000
+12 123 *
Fa
0  1e-07 66 107

0101000
+4 0 *
Sh

0101000
+365 10 +358 10 -313 26 -306 10 +301 10 +298 10 -293 10 +288 26 +283 26 +278 26 
+273 26 +268 26 +263 26 +258 26 +253 71 -248 10 -236 74 -234 10 +232 75 +230 76 
+228 77 +226 78 +224 79 +222 80 +220 81 +218 82 +203 26 +194 26 +181 26 +174 26 
+171 71 +162 94 +153 106 +150 26 +141 106 +133 106 +130 26 +122 106 +113 106 +110 26 
+101 94 +96 94 +91 0 +88 106 -80 94 +77 106 -68 106 +66 106 -60 106 +58 106 
+55 106 +52 106 +50 94 -45 0 +43 106 -38 167 +36 106 -31 168 -26 169 -24 170 
+19 94 +14 106 +9 106 +7 94 +5 106 +3 106 *
So

0100000
+2 0 *

+1 1 