DBRep_DrawableShape

CASCADE Topology V1, (c) Matra-Datavision
Locations 33
1
              1               0               0               0 
              0               1               0               0 
              0               0               1               0 
1
              1               0               0               0 
              0               1               0               0 
              0               0               1               0 
1
              1               0               0               0 
              0               1               0               0 
              0               0               1               0 
2  2 1 3 -1 0
2  1 -1 3 1 2 -1 0
1
              1               0               0               0 
              0               1               0               0 
              0               0               1               0 
1
              1               0               0               0 
              0               1               0               0 
              0               0               1               0 
2  6 1 7 -1 0
2  7 1 6 -1 0
2  6 -1 0
2  1 -1 3 1 2 -1 7 1 6 -1 0
1
              1               0               0              -0 
              0               1               0              -0 
              0               0               1              -3 
2  6 1 7 -1 12 1 0
2  12 -1 7 1 6 -1 0
2  1 -1 3 1 2 -1 12 -1 7 1 6 -1 0
2  6 1 7 -1 2 1 3 -1 0
2  6 1 7 -1 12 1 2 1 3 -1 0
2  7 -1 2 1 3 -1 0
2  7 -1 12 1 2 1 3 -1 0
1
              1               0               0               0 
              0              -1               0              -0 
              0               0              -1              -3 
2  20 1 3 -1 0
2  7 -1 12 1 2 1 20 -1 0
2  3 1 20 -1 0
2  1 -1 3 1 20 -1 0
2  2 -1 12 -1 7 1 6 -1 0
2  1 -1 0
1
              1               0               0               0 
              0               1               0               0 
              0               0               1             -18 
2  20 1 3 -1 27 1 0
2  27 -1 3 1 20 -1 0
2  20 -1 0
2  1 -1 27 -1 3 1 20 -1 0
2  3 -1 0
2  3 -1 27 1 0
Curve2ds 144
1 0 0 0 -1 
1 1.5707963267948966 0 0 -1 
1 1194 0 0 -1 
1 1.5707963267948966 0 0 -1 
1 0 0 1 0 
1 -1194 0 1 0 
1 0 -3 1 0 
1 -1194 0 1 0 
1 0 0 0 -1 
1 430 0 0 -1 
1 0 0 1 0 
2 -1194 -19 -1 0 0 1 19
1 0 -3 1 0 
2 -1194 -19 -1 0 0 1 19
1 0 0 1 0 
2 0 -19 -1 0 0 1 19
1 0 -3 1 0 
2 0 -19 -1 0 0 1 19
1 3.1415926535897931 0 0 -1 
1 0 0 0 -1 
1 -1213 -449 0 1 
1 0 0 1 0 
2 -1194 -449 -1 0 0 1 19
1 0 0 1 0 
1 0 -468 -1 0 
1 0 0 1 0 
2 0 -449 -1 0 0 1 19
1 0 0 1 0 
1 19 -19 0 -1 
1 0 0 1 0 
2 -19.000000000005734 -37.999999490532048 -1 0 0 1 19
1 0 0 1 0 
1 -5.7411853049416095e-12 -38 0 -1 
1 0 0 1 0 
2 -19 -430 -1 0 0 1 19
1 0 0 1 0 
1 -19 -449 -1 0 
1 0 0 1 0 
2 -1175 -430 -1 0 0 1 19
1 0 0 1 0 
1 -1194 -38 0 -1 
1 0 0 1 0 
2 -1174.999994 -38.000005999999985 -1 0 0 1 19.000005999999985
1 0 0 1 0 
1 -19.004399999988514 -19.000000000005741 -1 0 
1 0 0 1 0 
2 -1181 -32.000000000005741 -1 0 -0 -1 19
1 0 0 1 0 
1 -1200 -436 0 1 
1 0 0 1 0 
2 -1181 -436 -1 0 -0 -1 19
1 0 0 1 0 
1 -13 -455 -1 0 
1 0 0 1 0 
2 -13.000000000005741 -436 -1 0 -0 -1 19
1 0 0 1 0 
1 5.9999999999942588 -32 0 -1 
1 0 0 1 0 
2 -13.000000000005734 -31.999999490532048 -1 0 -0 -1 19
1 0 0 1 0 
1 -13.004399999988514 -13.000000000005741 -1 0 
1 0 0 1 0 
1 19 -19 0 -1 
1 0 -3 1 0 
2 0 -449 -1 0 0 1 19
1 0 -3 1 0 
1 -1213 -449 0 1 
1 0 -3 1 0 
1 0 -468 -1 0 
1 0 -3 1 0 
2 -1194 -449 -1 0 0 1 19
1 0 -3 1 0 
1 0 0 0 -1 
1 6.2831853071795862 0 0 -1 
1 430 0 0 -1 
1 3.1415926535897931 0 0 -1 
1 4.7123889803846897 0 0 -1 
1 1194 0 0 -1 
1 0 0 0 -1 
1 4.7123889803846897 0 0 -1 
1 1.5705647478463647 0 0 -1 
1 0 0 0 -1 
1 0 -3 1 0 
2 -1161.9999999999943 -24.999999490526307 1 0 -0 1 19
1 3.1415926804032916 0 0 -1 
1 -5.7411853049416095e-12 0 0 -1 
1 0 -3 1 0 
1 -1180.9999999999943 -24.999999999994259 0 -1 
1 392 0 0 -1 
1 3.1415926535897931 0 0 -1 
1 0 -3 1 0 
2 -1162 -416.99999999999426 1 0 -0 1 19
1 4.7123889803846897 0 0 -1 
1 0 0 0 -1 
1 0 -3 1 0 
1 -1162 -435.99999999999426 1 0 
1 1156 0 0 -1 
1 4.7123889803846897 0 0 -1 
1 0 -3 1 0 
2 -6 -416.99999999999426 1 0 -0 1 19
1 6.2831853071795862 0 0 -1 
1 392 0 0 -1 
1 0 0 0 -1 
1 3.1578937391188729e-07 0 0 -1 
1 0 -3 1 0 
1 13 -24.999999999994259 0 -1 
1 0 -3 1 0 
2 -6.0000059999999849 -25.000005999994244 1 0 -0 1 19.000005999999985
1 1.570796011005521 0 0 -1 
1 1155.9956000000116 0 0 -1 
1 0 -3 1 0 
1 -1161.9956000000116 -6 1 0 
1 4.7123889803846897 0 0 -1 
1 1167.9956000000116 0 0 -1 
1 0 -18 1 0 
2 0 -19 1 0 0 -1 19
1 6.2831853071792843 0 0 -1 
1 404 0 0 -1 
1 0 0 0 -1 
1 0 0 0 -1 
1 0 -18 1 0 
1 19 -422.99999999999426 0 1 
1 0 -18 1 0 
2 0 -422.99999999999426 1 0 0 -1 19
1 1.5707963267948966 0 0 -1 
1 1168 0 0 -1 
1 0 0 0 -1 
1 1.5707963267951988 0 0 -1 
1 0 -18 1 0 
1 -1168 -441.99999999999426 1 0 
1 0 -18 1 0 
2 -1167.9999999999943 -422.99999999999426 1 0 0 -1 19
1 3.1415926535897931 0 0 -1 
1 404 0 0 -1 
1 0 0 0 -1 
1 3.1415926267756906 0 0 -1 
1 0 -18 1 0 
1 -1186.9999999999943 -18.999999999994259 0 -1 
1 0 -18 1 0 
2 -1167.9999999999943 -18.999999490526307 1 0 0 -1 19
1 4.7126205593332218 0 0 -1 
1 0 0 0 -1 
1 0 -18 1 0 
1 -1167.9956000000116 0 1 0 
Curves 72
1 1213 468 0 -0 -0 -1 
1 19 468 0 -0 -0 -1 
1 1213 468 0 -1 0 0 
1 1213 468 0 -1 0 0 
1 1232 449 0 -0 -0 -1 
2 1213 449 0 0 0 1 1 0 -0 -0 1 0 19
2 1213 449 0 0 0 1 1 0 -0 -0 1 0 19
2 19 449 0 0 0 1 1 0 -0 -0 1 0 19
2 19 449 0 0 0 1 1 0 -0 -0 1 0 19
1 0 449 0 -0 -0 -1 
1 1232 18.999999999999996 0 0 1 0 
2 1213 19 0 0 0 1 1 0 -0 -0 1 0 19
1 19 0 0 1 0 0 
2 19 19 0 0 0 1 1 0 -0 -0 1 0 19
1 0 449 0 0 -1 0 
2 38.000000000005734 430.00000050946795 0 0 0 1 1 0 -0 -0 1 0 19
1 19.000000000005741 430 0 0 -1 0 
2 38 38 0 0 0 1 1 0 -0 -0 1 0 19
1 38 19 0 1 0 0 
2 1194 38 0 0 0 1 1 0 -0 -0 1 0 19
1 1213 430 0 0 -1 0 
2 1193.999994 429.99999400000002 0 0 0 1 1 0 -0 -0 1 0 19.000005999999999
1 38.004399999988514 448.99999999999426 0 1 0 0 
2 1200 -435.99999999999426 0 0 0 1 1 0 -0 -0 1 0 19
1 1219 -32 0 0 -1 0 
2 1200 -32 0 0 0 1 1 0 -0 -0 1 0 19
1 32 -13 0 1 0 0 
2 32.000000000005741 -32 0 0 0 1 1 0 -0 -0 1 0 19
1 13.000000000005741 -436 0 0 1 0 
2 32.000000000005734 -436.00000050946795 0 0 0 1 1 0 -0 -0 1 0 19
1 32.004399999988514 -454.99999999999426 0 1 0 0 
1 0 449 0 0 -1 0 
2 19 19 0 0 0 1 1 0 -0 -0 1 0 19
1 1232 18.999999999999996 0 0 1 0 
1 19 0 0 1 0 0 
2 1213 19 0 0 0 1 1 0 -0 -0 1 0 19
1 1232 18.999999999999996 0 -0 -0 -1 
1 0 19 0 -0 -0 -1 
1 1213 0 0 -0 -0 -1 
1 19 0 0 -0 -0 -1 
1 38.004399999988514 448.99999999999426 0 -0 -0 -1 
2 38.000000000005734 430.00000050946795 0 0 0 1 1 0 -0 -0 1 0 19
1 19.000000000005741 430.00000000000574 0 -0 -0 -1 
1 19.000000000005741 430 0 0 -1 0 
1 19.000000000002871 38 0 -0 -0 -1 
2 38 38 0 0 0 1 1 0 -0 -0 1 0 19
1 38 19 0 -0 -0 -1 
1 38 19 0 1 0 0 
1 1194 19 0 -0 -0 -1 
2 1194 38 0 0 0 1 1 0 -0 -0 1 0 19
1 1213 38 0 -0 -0 -1 
1 1212.9999999999995 430 0 -0 -0 -1 
1 1213 430 0 0 -1 0 
2 1193.999994 429.99999400000002 0 0 0 1 1 0 -0 -0 1 0 19.000005999999999
1 1194 448.9999999999967 0 -0 -0 -1 
1 38.004399999988514 448.99999999999426 0 1 0 0 
1 1200 454.99999999999426 -3 0 0 -1 
2 1200 -435.99999999999426 0 0 0 1 1 0 -0 -0 1 0 19
1 1219 436 -3 0 0 -1 
1 1219 32 -3 0 0 -1 
1 1219 -32 0 0 -1 0 
2 1200 -32 0 0 0 1 1 0 -0 -0 1 0 19
1 1200 13 -3 0 0 -1 
1 32 13 -3 0 0 -1 
1 32 -13 0 1 0 0 
2 32.000000000005741 -32 0 0 0 1 1 0 -0 -0 1 0 19
1 13.000000000005741 32 -3 0 0 -1 
1 13.000000000005741 436 -3 0 0 -1 
1 13.000000000005741 -436 0 0 1 0 
2 32.000000000005734 -436.00000050946795 0 0 0 1 1 0 -0 -0 1 0 19
1 32.004399999988514 454.99999999999426 -3 0 0 -1 
1 32.004399999988514 -454.99999999999426 0 1 0 0 
Polygon3D 0
PolygonOnTriangulations 0
Surfaces 28
1 1213 468 0 0 1 -0 -1 0 0 0 0 1 
2 1213 449 0 0 0 1 1 0 -0 -0 1 0 19
2 19 449 0 0 0 1 1 0 -0 -0 1 0 19
1 19 468 0 0 0 -1 -1 0 -0 0 1 0 
1 19 468 0 0 0 -1 -1 0 -0 0 1 0 
1 1232 18.999999999999996 0 1 0 0 -0 1 0 0 -0 1 
1 0 449 0 -1 0 0 0 -1 0 0 0 1 
2 1213 19 0 0 0 1 1 0 -0 -0 1 0 19
1 19 0 0 0 -1 0 1 0 0 -0 0 1 
2 19 19 0 0 0 1 1 0 -0 -0 1 0 19
2 38.000000000005734 430.00000050946795 0 0 0 1 1 0 -0 -0 1 0 19
1 19.000000000005741 430 0 -1 0 0 0 -1 0 0 0 1 
2 38 38 0 0 0 1 1 0 -0 -0 1 0 19
1 38 19 0 0 -1 0 1 0 0 -0 0 1 
2 1194 38 0 0 0 1 1 0 -0 -0 1 0 19
1 1213 430 0 -1 0 0 0 -1 0 0 0 1 
2 1193.999994 429.99999400000002 0 0 0 1 1 0 -0 -0 1 0 19.000005999999999
1 38.004399999988514 448.99999999999426 0 0 -1 0 1 0 0 -0 0 1 
2 1200 435.99999999999426 -3 -0 -0 1 1 0 0 0 -1 -0 19
1 1219 32 -3 1 -0 0 0 1 0 -0 0 1 
2 1200 32 -3 -0 -0 1 1 0 0 0 -1 -0 19
1 32 13 -3 0 -1 0 1 0 0 -0 0 1 
2 32.000000000005741 32 -3 -0 -0 1 1 0 0 0 -1 -0 19
1 13.000000000005741 436 -3 -1 -0 -0 0 -1 0 -0 0 1 
2 32.000000000005734 436.00000050946795 -3 -0 -0 1 1 0 0 0 -1 -0 19
1 32.004399999988514 454.99999999999426 -3 0 -1 0 1 0 0 -0 0 1 
1 1200 454.99999999999426 -3 0 0 1 1 0 -0 -0 1 0 
1 1200 454.99999999999426 -3 0 0 1 1 0 -0 -0 1 0 
Triangulations 0

TShapes 180
Ve
1e-07
1213 468 0
0 0

0101101
*
Ve
1e-07
1213 468 -3
0 0

0101101
*
Ed
 1e-07 1 1 0
1  1 0 0 3
2  1 1 0 0 3
2  2 2 0 0 3
4 G1 1 0 2 0
0

0101000
+180 5 -179 5 *
Ve
1e-07
19 468 0
0 0

0101101
*
Ve
1e-07
19 468 -3
0 0

0101101
*
Ed
 1e-07 1 1 0
1  2 0 0 3
2  3 1 0 0 3
2  4 3 0 0 3
4 G1 1 0 3 0
0

0101000
+177 5 -176 5 *
Ed
 1e-07 1 1 0
1  3 0 0 1194
2  5 1 9 0 1194
2  6 4 10 0 1194
0

0101000
+180 11 -177 11 *
Ed
 1e-07 1 1 0
1  4 0 0 1194
2  7 1 14 0 1194
2  8 5 10 0 1194
0

0101000
+179 15 -176 15 *
Wi

0101000
+178 0 -175 0 -174 8 +173 13 *
Fa
0  1e-07 1 0

0101000
+172 0 *
Ve
1e-07
1232 449 0
0 0

0101101
*
Ve
1e-07
1232 449 -3
0 0

0101101
*
Ed
 1e-07 1 1 0
1  5 0 0 3
2  9 2 0 0 3
2  10 6 0 0 3
4 G1 2 0 6 0
0

0101000
+170 5 -169 5 *
Ed
 1e-07 1 1 0
1  6 0 0 1.5707963267949
2  11 2 9 0 1.5707963267949
2  12 4 10 0 1.5707963267949
0

0101000
+170 11 -180 11 *
Ed
 1e-07 1 1 0
1  7 0 0 1.5707963267949
2  13 2 14 0 1.5707963267949
2  14 5 10 0 1.5707963267949
0

0101000
+169 15 -179 15 *
Wi

0101000
+168 4 -167 16 +166 17 -178 4 *
Fa
0  1e-07 2 4

0101000
+165 0 *
Ve
1e-07
0 449 0
0 0

0101101
*
Ed
 1e-07 1 1 0
1  8 0 1.5707963267949 3.14159265358979
2  15 3 9 1.5707963267949 3.14159265358979
2  16 4 10 1.5707963267949 3.14159265358979
0

0101000
+177 11 -163 11 *
Ve
1e-07
0 449 -3
0 0

0101101
*
Ed
 1e-07 1 1 0
1  9 0 1.5707963267949 3.14159265358979
2  17 3 14 1.5707963267949 3.14159265358979
2  18 5 10 1.5707963267949 3.14159265358979
0

0101000
+176 15 -161 15 *
Ed
 1e-07 1 1 0
1  10 0 0 3
2  19 3 0 0 3
2  20 7 0 0 3
4 G1 3 0 7 0
0

0101000
+163 5 -161 5 *
Wi

0101000
+175 4 -162 16 +160 17 -159 4 *
Fa
0  1e-07 3 4

0101000
+158 0 *
Ve
1e-07
1232 19 0
0 0

0101101
*
Ed
 1e-07 1 1 0
1  11 0 0 430
2  21 4 10 0 430
2  22 6 9 0 430
0

0101000
+156 11 -170 11 *
Ve
1e-07
1213 0 0
0 0

0101101
*
Ed
 1e-07 1 1 0
1  12 0 4.71238898038469 6.28318530717959
2  23 4 10 4.71238898038469 6.28318530717959
2  24 8 9 4.71238898038469 6.28318530717959
0

0101000
+154 11 -156 11 *
Ve
1.00000001776357e-07
19 0 0
0 0

0101101
*
Ed
 1e-07 1 1 0
1  13 0 0 1194
2  25 4 10 0 1194
2  26 9 9 0 1194
0

0101000
+152 11 -154 11 *
Ve
1.00000001776357e-07
0 19 0
0 0

0101101
*
Ed
 1e-07 1 1 0
1  14 0 3.14159265358979 4.71238898038469
2  27 4 10 3.14159265358979 4.71238898038469
2  28 10 9 3.14159265358979 4.71238898038469
0

0101000
+150 11 -152 11 *
Ed
 1e-07 1 1 0
1  15 0 0 430
2  29 4 10 0 430
2  30 7 9 0 430
0

0101000
+163 11 -150 11 *
Wi

0101100
-162 6 -174 6 -167 6 -155 6 -153 6 -151 6 -149 6 -148 6 *
Ve
1e-07
38.0043999999885 448.999999999994 0
0 0

0101101
*
Ve
1.00005741185305e-07
19.0000000000057 430.000000000006 0
0 0

0101101
*
Ed
 1e-07 1 1 0
1  16 0 1.57056474784636 3.14159268040329
2  31 4 10 1.57056474784636 3.14159268040329
2  32 11 9 1.57056474784636 3.14159268040329
0

0101000
+146 11 -145 11 *
Ve
1.00002870592652e-07
19.0000000000029 38 0
0 0

0101101
*
Ed
 1e-07 1 1 0
1  17 0 0 392
2  33 4 10 0 392
2  34 12 9 0 392
0

0101000
+145 11 -143 11 *
Ve
1e-07
38 19 0
0 0

0101101
*
Ed
 1e-07 1 1 0
1  18 0 3.14159265358979 4.71238898038469
2  35 4 10 3.14159265358979 4.71238898038469
2  36 13 9 3.14159265358979 4.71238898038469
0

0101000
+143 11 -141 11 *
Ve
1e-07
1194 19 0
0 0

0101101
*
Ed
 1e-07 1 1 0
1  19 0 0 1156
2  37 4 10 0 1156
2  38 14 9 0 1156
0

0101000
+141 11 -139 11 *
Ve
1.00000003552714e-07
1213 38 0
0 0

0101101
*
Ed
 1e-07 1 1 0
1  20 0 4.71238898038469 6.28318530717959
2  39 4 10 4.71238898038469 6.28318530717959
2  40 15 9 4.71238898038469 6.28318530717959
0

0101000
+139 11 -137 11 *
Ve
1.00000454747351e-07
1213 430 0
0 0

0101101
*
Ed
 1e-07 1 1 0
1  21 0 0 392
2  41 4 10 0 392
2  42 16 9 0 392
0

0101000
+135 11 -137 11 *
Ve
1.00002415845302e-07
1194 448.999999999997 0
0 0

0101101
*
Ed
 1e-07 1 1 0
1  22 0 3.15789373911887e-07 1.57079601100552
2  43 4 10 3.15789373911887e-07 1.57079601100552
2  44 17 9 3.15789373911887e-07 1.57079601100552
0

0101000
+135 11 -133 11 *
Ed
 1e-07 1 1 0
1  23 0 0 1155.99560000001
2  45 4 10 0 1155.99560000001
2  46 18 9 0 1155.99560000001
0

0101000
+146 11 -133 11 *
Wi

0101100
+144 6 +142 6 +140 6 +138 6 +136 6 -134 6 +132 6 -131 6 *
Fa
0  1e-07 4 0

0101000
+147 0 +130 0 *
Ve
1e-07
1200 454.999999999994 -3
0 0

0101101
*
Ve
1e-07
1219 436 -3
0 0

0101101
*
Ed
 1e-07 1 1 0
1  24 0 4.71238898038469 6.28318530717928
2  47 5 22 4.71238898038469 6.28318530717928
2  48 19 23 4.71238898038469 6.28318530717928
0

0101000
+128 24 -127 24 *
Ve
1e-07
1219 32 -3
0 0

0101101
*
Ed
 1e-07 1 1 0
1  25 0 0 404
2  49 5 22 0 404
2  50 20 23 0 404
0

0101000
+125 24 -127 24 *
Ve
1e-07
1200 13 -3
0 0

0101101
*
Ed
 1e-07 1 1 0
1  26 0 0 1.5707963267949
2  51 5 22 0 1.5707963267949
2  52 21 23 0 1.5707963267949
0

0101000
+125 24 -123 24 *
Ve
1e-07
32 13 -3
0 0

0101101
*
Ed
 1e-07 1 1 0
1  27 0 0 1168
2  53 5 22 0 1168
2  54 22 23 0 1168
0

0101000
+121 24 -123 24 *
Ve
1.00000001776357e-07
13.0000000000057 32 -3
0 0

0101101
*
Ed
 1e-07 1 1 0
1  28 0 1.5707963267952 3.14159265358979
2  55 5 22 1.5707963267952 3.14159265358979
2  56 23 23 1.5707963267952 3.14159265358979
0

0101000
+121 24 -119 24 *
Ve
1e-07
13.0000000000057 436 -3
0 0

0101101
*
Ed
 1e-07 1 1 0
1  29 0 0 404
2  57 5 22 0 404
2  58 24 23 0 404
0

0101000
+117 24 -119 24 *
Ve
1e-07
32.0043999999885 454.999999999994 -3
0 0

0101101
*
Ed
 1e-07 1 1 0
1  30 0 3.14159262677569 4.71262055933322
2  59 5 22 3.14159262677569 4.71262055933322
2  60 25 23 3.14159262677569 4.71262055933322
0

0101000
+117 24 -115 24 *
Ed
 1e-07 1 1 0
1  31 0 0 1167.99560000001
2  61 5 22 0 1167.99560000001
2  62 26 23 0 1167.99560000001
0

0101000
+115 24 -128 24 *
Wi

0101000
-126 21 +124 21 -122 21 +120 21 -118 21 +116 21 -114 21 -113 21 *
Ve
1.00000001776357e-07
0 19 -3
0 0

0101101
*
Ed
 1e-07 1 1 0
1  32 0 0 430
2  63 5 10 0 430
2  64 7 14 0 430
0

0101000
+161 15 -111 15 *
Ve
1.00000001776357e-07
19 0 -3
0 0

0101101
*
Ed
 1e-07 1 1 0
1  33 0 3.14159265358979 4.71238898038469
2  65 5 10 3.14159265358979 4.71238898038469
2  66 10 14 3.14159265358979 4.71238898038469
0

0101000
+111 15 -109 15 *
Ve
1e-07
1232 19 -3
0 0

0101101
*
Ed
 1e-07 1 1 0
1  34 0 0 430
2  67 5 10 0 430
2  68 6 14 0 430
0

0101000
+107 15 -169 15 *
Ve
1e-07
1213 0 -3
0 0

0101101
*
Ed
 1e-07 1 1 0
1  35 0 0 1194
2  69 5 10 0 1194
2  70 9 14 0 1194
0

0101000
+109 15 -105 15 *
Ed
 1e-07 1 1 0
1  36 0 4.71238898038469 6.28318530717959
2  71 5 10 4.71238898038469 6.28318530717959
2  72 8 14 4.71238898038469 6.28318530717959
0

0101000
+105 15 -107 15 *
Wi

0101000
-160 17 -173 17 -110 17 -166 17 -108 17 -106 17 -104 17 -103 17 *
Fa
0  1e-07 5 19

0101000
+112 0 +102 0 *
Ed
 1e-07 1 1 0
1  37 0 0 3
2  73 6 0 0 3
2  74 8 0 0 3
4 G1 6 0 8 0
0

0101000
+156 5 -107 5 *
Wi

0101000
+100 0 -168 0 -155 8 +106 13 *
Fa
0  1e-07 6 0

0101000
+99 0 *
Ed
 1.00000001776357e-07 1 1 0
1  38 0 0 3
2  75 7 0 0 3
2  76 10 0 0 3
4 G1 7 0 10 0
0

0101000
+150 5 -111 5 *
Wi

0101000
+159 0 -97 0 -148 8 +110 13 *
Fa
0  1e-07 7 0

0101000
+96 0 *
Ed
 1e-07 1 1 0
1  39 0 0 3
2  77 8 0 0 3
2  78 9 0 0 3
4 G1 8 0 9 0
0

0101000
+154 5 -105 5 *
Wi

0101000
+94 4 -153 16 +103 17 -100 4 *
Fa
0  1e-07 8 4

0101000
+93 0 *
Ed
 1.00000001776357e-07 1 1 0
1  40 0 0 3
2  79 9 0 0 3
2  80 10 0 0 3
4 G1 9 0 10 0
0

0101000
+152 5 -109 5 *
Wi

0101000
+91 0 -94 0 -151 8 +104 13 *
Fa
0  1e-07 9 0

0101000
+90 0 *
Wi

0101000
+97 4 -149 16 +108 17 -91 4 *
Fa
0  1e-07 10 4

0101000
+88 0 *
Ve
1e-07
38.0043999999885 448.999999999994 -3
0 0

0101101
*
Ed
 1e-07 1 1 0
1  41 0 0 3
2  81 11 0 0 3
2  82 18 0 0 3
4 G1 11 0 18 0
0

0101000
+146 5 -86 5 *
Ve
1.00005741185305e-07
19.0000000000057 430.000000000006 -3
0 0

0101101
*
Ed
 1e-07 1 1 0
1  42 0 1.57056474784636 3.14159268040329
2  83 11 14 1.57056474784636 3.14159268040329
2  84 27 25 1.57056474784636 3.14159268040329
0

0101000
+86 15 -84 15 *
Ed
 1.00005741185305e-07 1 1 0
1  43 0 0 3
2  85 11 0 0 3
2  86 12 0 0 3
4 G1 11 0 12 0
0

0101000
+145 5 -84 5 *
Wi

0101000
+85 4 -144 16 +83 17 -82 4 *
Fa
0  1e-07 11 4

0101000
+81 0 *
Ve
1.00002870592652e-07
19.0000000000029 38 -3
0 0

0101101
*
Ed
 1e-07 1 1 0
1  44 0 0 392
2  87 12 14 0 392
2  88 27 25 0 392
0

0101000
+84 15 -79 15 *
Ed
 1.00002870592652e-07 1 1 0
1  45 0 0 3
2  89 12 0 0 3
2  90 13 0 0 3
4 G1 12 0 13 0
0

0101000
+143 5 -79 5 *
Wi

0101000
+82 4 -142 16 +78 17 -77 4 *
Fa
0  1e-07 12 4

0101000
+76 0 *
Ve
1e-07
38 19 -3
0 0

0101101
*
Ed
 1e-07 1 1 0
1  46 0 3.14159265358979 4.71238898038469
2  91 13 14 3.14159265358979 4.71238898038469
2  92 27 25 3.14159265358979 4.71238898038469
0

0101000
+79 15 -74 15 *
Ed
 1e-07 1 1 0
1  47 0 0 3
2  93 13 0 0 3
2  94 14 0 0 3
4 G1 13 0 14 0
0

0101000
+141 5 -74 5 *
Wi

0101000
+77 4 -140 16 +73 17 -72 4 *
Fa
0  1e-07 13 4

0101000
+71 0 *
Ve
1e-07
1194 19 -3
0 0

0101101
*
Ed
 1e-07 1 1 0
1  48 0 0 1156
2  95 14 14 0 1156
2  96 27 25 0 1156
0

0101000
+74 15 -69 15 *
Ed
 1e-07 1 1 0
1  49 0 0 3
2  97 14 0 0 3
2  98 15 0 0 3
4 G1 14 0 15 0
0

0101000
+139 5 -69 5 *
Wi

0101000
+72 4 -138 16 +68 17 -67 4 *
Fa
0  1e-07 14 4

0101000
+66 0 *
Ve
1.00000003552714e-07
1213 38 -3
0 0

0101101
*
Ed
 1e-07 1 1 0
1  50 0 4.71238898038469 6.28318530717959
2  99 15 14 4.71238898038469 6.28318530717959
2  100 27 25 4.71238898038469 6.28318530717959
0

0101000
+69 15 -64 15 *
Ed
 1.00000003552714e-07 1 1 0
1  51 0 0 3
2  101 15 0 0 3
2  102 16 0 0 3
4 G1 15 0 16 0
0

0101000
+137 5 -64 5 *
Wi

0101000
+67 4 -136 16 +63 17 -62 4 *
Fa
0  1e-07 15 4

0101000
+61 0 *
Ve
1.00000454747351e-07
1213 430 -3
0 0

0101101
*
Ed
 1.00000454747351e-07 1 1 0
1  52 0 0 3
2  103 16 0 0 3
2  104 17 0 0 3
4 G1 16 0 17 0
0

0101000
+135 5 -59 5 *
Ed
 1e-07 1 1 0
1  53 0 0 392
2  105 16 14 0 392
2  106 27 25 0 392
0

0101000
+59 15 -64 15 *
Wi

0101000
+58 4 -134 16 +57 17 -62 4 *
Fa
0  1e-07 16 4

0101000
+56 0 *
Ve
1.00002415845302e-07
1194 448.999999999997 -3
0 0

0101101
*
Ed
 1e-07 1 1 0
1  54 0 3.15789373911887e-07 1.57079601100552
2  107 17 14 3.15789373911887e-07 1.57079601100552
2  108 27 25 3.15789373911887e-07 1.57079601100552
0

0101000
+59 15 -54 15 *
Ed
 1.00002415845302e-07 1 1 0
1  55 0 0 3
2  109 17 0 0 3
2  110 18 0 0 3
4 G1 17 0 18 0
0

0101000
+133 5 -54 5 *
Wi

0101000
+58 4 -132 16 +53 17 -52 4 *
Fa
0  1e-07 17 4

0101000
+51 0 *
Ed
 1e-07 1 1 0
1  56 0 0 1155.99560000001
2  111 18 14 0 1155.99560000001
2  112 27 25 0 1155.99560000001
0

0101000
+86 15 -54 15 *
Wi

0101000
+85 4 -131 16 +49 17 -52 4 *
Fa
0  1e-07 18 4

0101000
+48 0 *
Ve
1e-07
1200 454.999999999994 -21
0 0

0101101
*
Ed
 1e-07 1 1 0
1  57 0 0 18
2  113 19 0 0 18
2  114 26 0 0 18
4 G1 19 0 26 0
0

0101000
+128 26 -46 26 *
Ve
1e-07
1219 436 -21
0 0

0101101
*
Ed
 1e-07 1 1 0
1  58 0 4.71238898038469 6.28318530717928
2  115 19 29 4.71238898038469 6.28318530717928
2  116 28 30 4.71238898038469 6.28318530717928
0

0101000
+46 31 -44 31 *
Ed
 1e-07 1 1 0
1  59 0 0 18
2  117 19 0 0 18
2  118 20 0 0 18
4 G1 19 0 20 0
0

0101000
+127 26 -44 26 *
Wi

0101000
+45 0 -126 21 +43 28 -42 0 *
Fa
0  1e-07 19 0

0101000
+41 0 *
Ve
1e-07
1219 32 -21
0 0

0101101
*
Ed
 1e-07 1 1 0
1  60 0 0 18
2  119 20 0 0 18
2  120 21 0 0 18
4 G1 20 0 21 0
0

0101000
+125 26 -39 26 *
Ed
 1e-07 1 1 0
1  61 0 0 404
2  121 20 29 0 404
2  122 28 30 0 404
0

0101000
+39 31 -44 31 *
Wi

0101000
+38 0 -124 21 +37 28 -42 0 *
Fa
0  1e-07 20 0

0101000
+36 0 *
Ve
1e-07
1200 13 -21
0 0

0101101
*
Ed
 1e-07 1 1 0
1  62 0 0 1.5707963267949
2  123 21 29 0 1.5707963267949
2  124 28 30 0 1.5707963267949
0

0101000
+39 31 -34 31 *
Ed
 1e-07 1 1 0
1  63 0 0 18
2  125 21 0 0 18
2  126 22 0 0 18
4 G1 21 0 22 0
0

0101000
+123 26 -34 26 *
Wi

0101000
+38 0 -122 21 +33 28 -32 0 *
Fa
0  1e-07 21 0

0101000
+31 0 *
Ve
1e-07
32 13 -21
0 0

0101101
*
Ed
 1e-07 1 1 0
1  64 0 0 18
2  127 22 0 0 18
2  128 23 0 0 18
4 G1 22 0 23 0
0

0101000
+121 26 -29 26 *
Ed
 1e-07 1 1 0
1  65 0 0 1168
2  129 22 29 0 1168
2  130 28 30 0 1168
0

0101000
+29 31 -34 31 *
Wi

0101000
+28 0 -120 21 +27 28 -32 0 *
Fa
0  1e-07 22 0

0101000
+26 0 *
Ve
1.00000001776357e-07
13.0000000000057 32 -21
0 0

0101101
*
Ed
 1e-07 1 1 0
1  66 0 1.5707963267952 3.14159265358979
2  131 23 29 1.5707963267952 3.14159265358979
2  132 28 30 1.5707963267952 3.14159265358979
0

0101000
+29 31 -24 31 *
Ed
 1.00000001776357e-07 1 1 0
1  67 0 0 18
2  133 23 0 0 18
2  134 24 0 0 18
4 G1 23 0 24 0
0

0101000
+119 26 -24 26 *
Wi

0101000
+28 0 -118 21 +23 28 -22 0 *
Fa
0  1e-07 23 0

0101000
+21 0 *
Ve
1e-07
13.0000000000057 436 -21
0 0

0101101
*
Ed
 1e-07 1 1 0
1  68 0 0 18
2  135 24 0 0 18
2  136 25 0 0 18
4 G1 24 0 25 0
0

0101000
+117 26 -19 26 *
Ed
 1e-07 1 1 0
1  69 0 0 404
2  137 24 29 0 404
2  138 28 30 0 404
0

0101000
+19 31 -24 31 *
Wi

0101000
+18 0 -116 21 +17 28 -22 0 *
Fa
0  1e-07 24 0

0101000
+16 0 *
Ve
1e-07
32.0043999999885 454.999999999994 -21
0 0

0101101
*
Ed
 1e-07 1 1 0
1  70 0 3.14159262677569 4.71262055933322
2  139 25 29 3.14159262677569 4.71262055933322
2  140 28 30 3.14159262677569 4.71262055933322
0

0101000
+19 31 -14 31 *
Ed
 1e-07 1 1 0
1  71 0 0 18
2  141 25 0 0 18
2  142 26 0 0 18
4 G1 25 0 26 0
0

0101000
+115 26 -14 26 *
Wi

0101000
+18 0 -114 21 +13 28 -12 0 *
Fa
0  1e-07 25 0

0101000
+11 0 *
Ed
 1e-07 1 1 0
1  72 0 0 1167.99560000001
2  143 26 29 0 1167.99560000001
2  144 28 30 0 1167.99560000001
0

0101000
+14 31 -46 31 *
Wi

0101000
+12 0 -113 21 +9 28 -45 0 *
Fa
0  1e-07 26 0

0101000
+8 0 *
Wi

0101000
-49 17 +53 17 -57 17 +63 17 +68 17 +73 17 +78 17 +83 17 *
Fa
0  1e-07 27 32

0101000
+6 0 *
Wi

0101100
-43 20 -9 20 -13 20 +17 20 -23 20 +27 20 -33 20 +37 20 *
Fa
0  1e-07 28 0

0101000
+4 0 *
Sh

0101000
+171 4 +164 0 +157 0 -129 18 +101 0 +98 4 +95 4 +92 0 +89 4 +87 0 
-80 0 -75 0 -70 0 -65 0 -60 0 +55 0 -50 0 +47 0 -40 0 +35 0 
-30 0 +25 0 -20 0 +15 0 -10 0 -7 0 +5 0 -3 33 *
So

0100000
+2 0 *

+1 1 