DBRep_DrawableShape

CASCADE Topology V1, (c) Matra-Datavision
Locations 10
1
              1               0              -0               0 
             -0 2.22044604925031e-16              -1               0 
              0               1 2.22044604925031e-16               0 
1
              1               0               0               0 
              0 -2.22044604925031e-16              -1               0 
              0               1 -2.22044604925031e-16               0 
2  1 1 2 -1 0
2  2 1 1 -1 0
2  1 -1 0
1
              1               0               0               0 
              0               1               0 -2.1094237467878e-13 
              0               0               1            -950 
2  1 1 2 -1 6 1 0
2  6 -1 2 1 1 -1 0
2  2 -1 0
2  2 -1 6 1 0
Curve2ds 24
1 0 0 0 -1 
1 549.99999999999989 0 -2.2204460492503131e-16 -1 
1 99.999999999965667 0 0 -1 
1 0 0 2.2204460492503131e-16 -1 
1 0 0 1 0 
1 0 0 0 1 
1 0 -949.99999999999977 1 0 
1 0 0 0 1 
1 549.99999999999989 -5.0487097934144756e-29 2.2204460492503131e-16 -1 
1 1.1713684600067609e-06 0 0 -1 
1 0 0 1 0 
1 0 99.999999999965667 1 0 
1 2.1094237467877969e-13 -949.99999999999977 1 0 
1 0 99.999999999965667 1 0 
1 -2.2420775429197073e-44 -5.0487097934144756e-29 -2.2204460492503131e-16 -1 
1 3.1415914822213331 0 0 -1 
1 0 0 1 0 
1 549.99999999999989 0 -1 0 
1 -1.9451107391432732e-13 -949.99999999999977 1 0 
1 549.99999999999989 0 -1 0 
1 0 0 1 0 
2 549.99994143157687 49.999999999965667 0 1 1 -0 50
1 0 -949.99999999999977 1 0 
2 549.99994143157687 49.999999999965667 0 1 1 -0 50
Curves 12
1 1900.0000000000346 0 0 0 -2.2204460492503131e-16 -1 
1 2000.0000000000002 0 0 0 -2.2204460492503131e-16 -1 
1 1900.0000000000343 0 0 1 0 0 
1 1900.0000000000343 0 0 1 0 0 
1 1999.9999999999829 549.99999999999989 -2.4424906541753444e-13 0 -2.2204460492503131e-16 -1 
1 2000 0 0 0 1 0 
1 2000 0 0 0 1 0 
1 1900.0000000000346 549.99999999999989 -2.4424906541753444e-13 0 -2.2204460492503131e-16 -1 
1 1900.0000000000343 550 0 0 -1 0 
1 1900.0000000000343 550 0 0 -1 0 
2 1950 549.99994143157699 0 0 0 1 1 0 -0 -0 1 0 50
2 1950 549.99994143157699 0 0 0 1 1 0 -0 -0 1 0 50
Polygon3D 0
PolygonOnTriangulations 0
Surfaces 6
1 1900.0000000000346 0 0 0 -1 2.2204460492503131e-16 1 0 0 -0 2.2204460492503131e-16 1 
1 1900.0000000000346 549.99999999999989 -2.4424906541753439e-13 -1 -0 0 0 -1 4.4408920985006262e-16 0 4.4408920985006262e-16 1 
1 2000.0000000000002 0 0 1 0 0 0 1 -4.4408920985006262e-16 -0 4.4408920985006262e-16 1 
1 1900.0000000000346 0 0 0 1 -2.2204460492503136e-16 0 2.2204460492503136e-16 1 1 -0 0 
1 1900.0000000000346 0 0 0 1 -2.2204460492503136e-16 0 2.2204460492503136e-16 1 1 -0 0 
2 1950.0000000000002 549.99994143157687 -2.4424903940792969e-13 -0 4.4408920985006262e-16 1 1 0 0 0 1 -4.4408920985006262e-16 49.999999999999993
Triangulations 0

TShapes 34
Ve
1e-07
1900.00000000003 0 0
0 0

0101101
*
Ve
1e-07
1900.00000000003 -2.1094237467878e-13 -950
0 0

0101101
*
Ed
 1e-07 1 1 0
1  1 0 0 950
2  1 1 0 0 950
2  2 2 0 0 950
0

0101000
+34 0 -33 0 *
Ve
1e-07
2000 0 0
0 0

0101101
*
Ve
1e-07
2000 -2.1094237467878e-13 -950
0 0

0101101
*
Ed
 1e-07 1 1 0
1  2 0 0 950
2  3 1 0 0 950
2  4 3 0 0 950
0

0101000
+31 0 -30 0 *
Ed
 1e-07 1 1 0
1  3 0 0 99.9999999999657
2  5 1 4 0 99.9999999999657
2  6 4 5 0 99.9999999999657
0

0101000
+34 4 -31 4 *
Ed
 1e-07 1 1 0
1  4 0 0 99.9999999999657
2  7 1 8 0 99.9999999999657
2  8 5 5 0 99.9999999999657
0

0101000
+33 8 -30 8 *
Wi

0101000
+32 0 -29 0 -28 3 +27 7 *
Fa
0  1e-07 1 0

0101000
+26 0 *
Ve
1.00017166712496e-07
1999.99999999998 550 -2.44249065417534e-13
0 0

0101101
*
Ve
1.00017166712496e-07
1999.99999999998 550 -950
0 0

0101101
*
Ed
 1.00017166712496e-07 1 1 0
1  5 0 0 950
2  9 3 0 0 950
2  10 6 0 0 950
4 G1 3 0 6 0
0

0101000
+24 0 -23 0 *
Ed
 1e-07 1 1 0
1  6 0 0 550
2  11 3 4 0 550
2  12 4 5 0 550
0

0101000
+31 4 -24 4 *
Ed
 1e-07 1 1 0
1  7 0 0 550
2  13 3 8 0 550
2  14 5 5 0 550
0

0101000
+30 8 -23 8 *
Wi

0101000
+29 0 -22 0 -21 3 +20 7 *
Fa
0  1e-07 3 0

0101000
+19 0 *
Ve
5.00000943120291e-07
1900.00000000003 550 -2.44249065417534e-13
0 0

0101101
*
Ve
5.00000943120291e-07
1900.00000000003 550 -950
0 0

0101101
*
Ed
 1e-07 1 1 0
1  8 0 0 950
2  15 2 0 0 950
2  16 6 0 0 950
4 G1 2 0 6 0
0

0101000
+17 0 -16 0 *
Ed
 1e-07 1 1 0
1  9 0 0 550
2  17 2 4 0 550
2  18 4 5 0 550
0

0101000
+17 4 -34 4 *
Ed
 1e-07 1 1 0
1  10 0 0 550
2  19 2 8 0 550
2  20 5 5 0 550
0

0101000
+16 8 -33 8 *
Wi

0101000
+15 0 -32 0 -14 3 +13 7 *
Fa
0  1e-07 2 0

0101000
+12 0 *
Ed
 1e-07 1 1 0
1  11 0 1.17136846000676e-06 3.14159148222133
2  21 6 4 1.17136846000676e-06 3.14159148222133
2  22 4 5 1.17136846000676e-06 3.14159148222133
0

0101000
+24 4 -17 4 *
Ed
 1e-07 1 1 0
1  12 0 1.17136846000676e-06 3.14159148222133
2  23 6 8 1.17136846000676e-06 3.14159148222133
2  24 5 5 1.17136846000676e-06 3.14159148222133
0

0101000
+23 8 -16 8 *
Wi

0101000
+22 0 -15 0 -10 3 +9 7 *
Fa
0  1e-07 6 0

0101000
+8 0 *
Wi

0101100
+28 0 +21 0 +14 0 +10 0 *
Fa
0  1e-07 4 0

0101000
-6 1 *
Wi

0101100
+27 0 +20 0 +13 0 +9 0 *
Fa
0  1e-07 5 0

0101000
-4 1 *
Sh

0101000
-25 0 -18 0 -11 0 -7 0 +5 9 -3 10 *
So

1100000
-2 0 *

+1 0 