DBRep_DrawableShape

CASCADE Topology V1, (c) Matra-Datavision
Locations 2
1
2.22044604925031e-016              -1               0           -75.4 
              1 2.22044604925031e-016               0               0 
              0               0               1           -41.7 
2  1 -1 0
Curve2ds 18
1 0 12.699999999999999 1 0 
2 0 0 1 0 -0 1 12.699999999999999
1 3.1415926535897931 -0 0 1 
1 12.699999999999999 0 0 1 
1 0 0 1 0 
2 0 0 1 0 -0 1 12.699999999999999
1 0 -0 0 1 
1 12.699999999999999 0 0 1 
1 0 0 1 0 
1 0 12.699999999999999 1 0 
1 0 0 -1 1.2246467991473532e-016 
1 0 12.699999999999999 1 0 
1 0 0 -1 1.2246467991473532e-016 
1 0 0 1 0 
1 0 0 1 0 
1 0 0 1 0 
1 0 0 0 1 
1 0 0 0 1 
Curves 9
2 0 0 12.699999999999999 0 0 1 1 0 -0 -0 1 0 12.699999999999999
1 -12.699999999999999 1.5553014349171384e-015 0 0 0 1 
2 0 0 0 0 0 1 1 0 -0 -0 1 0 12.699999999999999
1 12.699999999999999 0 0 0 0 1 
1 0 0 12.699999999999999 1 0 -0 
1 0 0 12.699999999999999 -1 1.2246467991473532e-016 0 
1 0 0 0 -1 1.2246467991473532e-016 0 
1 0 0 0 1 0 -0 
1 0 0 0 0 0 1 
Polygon3D 0
PolygonOnTriangulations 0
Surfaces 5
2 0 0 0 0 0 1 1 0 -0 -0 1 0 12.699999999999999
1 0 0 12.699999999999999 0 0 1 1 0 -0 -0 1 0 
1 0 0 0 1.2246467991473532e-016 1 -0 -1 1.2246467991473532e-016 0 0 0 1 
1 0 0 0 0 0 1 1 0 -0 -0 1 0 
1 0 0 0 0 -1 -0 1 0 0 0 -0 1 
Triangulations 0

TShapes 27
Ve
1e-007
-75.4 -12.7 -29
0 0

0101101
*
Ve
1e-007
-75.4 12.7 -29
0 0

0101101
*
Ed
 1e-007 1 1 0
1  1 0 0 3.14159265358979
2  1 1 0 0 3.14159265358979
2  2 2 0 0 3.14159265358979
0

0101100
-27 2 +26 2 *
Ve
1e-007
-75.4 -12.7 -41.7
0 0

0101101
*
Ed
 1e-007 1 1 0
1  2 0 0 12.7
2  3 1 0 0 12.7
2  4 3 0 0 12.7
0

0101000
-27 2 +24 2 *
Ve
1e-007
-75.4 12.7 -41.7
0 0

0101101
*
Ed
 1e-007 1 1 0
1  3 0 0 3.14159265358979
2  5 1 0 0 3.14159265358979
2  6 4 0 0 3.14159265358979
0

0101100
-24 2 +22 2 *
Ed
 1e-007 1 1 0
1  4 0 0 12.7
2  7 1 0 0 12.7
2  8 5 0 0 12.7
0

0101000
-26 2 +22 2 *
Wi

0101000
-25 0 +23 0 +21 0 -20 0 *
Fa
0  1e-007 1 0

0101000
+19 0 *
Ve
1e-007
-75.4 0 -29
0 0

0101101
*
Ed
 1e-007 1 1 0
1  5 0 0 12.7
2  9 2 0 0 12.7
2  10 5 0 0 12.7
0

0101000
+17 2 -26 2 *
Ed
 1e-007 1 1 0
1  6 0 0 12.7
2  11 2 0 0 12.7
2  12 3 0 0 12.7
0

0101000
+17 2 -27 2 *
Wi

0101000
+25 0 +16 0 -15 0 *
Fa
0  1e-007 2 0

0101000
+14 0 *
Ve
1e-007
-75.4 0 -41.7
0 0

0101101
*
Ed
 1e-007 1 1 0
1  7 0 0 12.7
2  13 4 0 0 12.7
2  14 3 0 0 12.7
0

0101000
+12 2 -24 2 *
Ed
 1e-007 1 1 0
1  8 0 0 12.7
2  15 4 0 0 12.7
2  16 5 0 0 12.7
0

0101000
-22 2 +12 2 *
Wi

0101000
-21 0 +11 0 -10 0 *
Fa
0  1e-007 4 0

0101000
-9 0 *
Ed
 1e-007 1 1 0
1  9 0 0 12.7
2  17 5 0 0 12.7
2  18 3 0 0 12.7
0

0101000
-17 2 +12 2 *
Wi

0101000
+10 0 -7 0 -16 0 +20 0 *
Fa
0  1e-007 5 0

0101000
+6 0 *
Wi

0101000
+15 0 +7 0 -11 0 -23 0 *
Fa
0  1e-007 3 0

0101000
-4 0 *
Sh

0101100
+18 0 +13 0 -8 0 +5 0 -3 0 *
So

1100100
+2 0 *

+1 1 