DBRep_DrawableShape

CASCADE Topology V1, (c) Matra-Datavision
Locations 9
1
              1               0               0               0 
              0               1               0               0 
              0               0               1               0 
1
              1               0               0             490 
              0               1               0             410 
              0               0               1             -30 
2  1 -1 2 -1 0
1
              1               0               0             120 
              0               1               0               0 
              0               0               1               0 
2  2 1 4 1 0
2  1 -1 4 -1 2 -1 0
1
              1               0               0             240 
              0               1               0               0 
              0               0               1               0 
2  2 1 7 1 0
2  1 -1 7 -1 2 -1 0
Curve2ds 18
1 0 50 1 0 
2 0 0 1 0 -0 1 20
1 6.2831853071795862 -0 0 1 
1 0 -0 0 1 
1 0 0 1 0 
2 0 0 1 0 -0 1 20
1 0 50 1 0 
2 0 0 1 0 -0 1 20
1 6.2831853071795862 -0 0 1 
1 0 -0 0 1 
1 0 0 1 0 
2 0 0 1 0 -0 1 20
1 0 50 1 0 
2 0 0 1 0 -0 1 20
1 6.2831853071795862 -0 0 1 
1 0 -0 0 1 
1 0 0 1 0 
2 0 0 1 0 -0 1 20
Curves 9
2 0 0 50 0 0 1 1 0 -0 -0 1 0 20
1 20 -4.898425415289509e-15 0 0 0 1 
2 0 0 0 0 0 1 1 0 -0 -0 1 0 20
2 0 0 50 0 0 1 1 0 -0 -0 1 0 20
1 20 -4.898425415289509e-15 0 0 0 1 
2 0 0 0 0 0 1 1 0 -0 -0 1 0 20
2 0 0 50 0 0 1 1 0 -0 -0 1 0 20
1 20 -4.898425415289509e-15 0 0 0 1 
2 0 0 0 0 0 1 1 0 -0 -0 1 0 20
Polygon3D 0
PolygonOnTriangulations 0
Surfaces 9
2 0 0 0 0 0 1 1 0 -0 -0 1 0 20
1 0 0 50 0 0 1 1 0 -0 -0 1 0 
1 0 0 0 0 0 1 1 0 -0 -0 1 0 
2 0 0 0 0 0 1 1 0 -0 -0 1 0 20
1 0 0 50 0 0 1 1 0 -0 -0 1 0 
1 0 0 0 0 0 1 1 0 -0 -0 1 0 
2 0 0 0 0 0 1 1 0 -0 -0 1 0 20
1 0 0 50 0 0 1 1 0 -0 -0 1 0 
1 0 0 0 0 0 1 1 0 -0 -0 1 0 
Triangulations 0

TShapes 40
Ve
1e-07
510 410 20
0 0

0101101
*
Ed
 1e-07 1 1 0
1  1 0 0 6.28318530717959
2  1 1 0 0 6.28318530717959
2  2 2 0 0 6.28318530717959
0

0101100
+40 3 -40 3 *
Ve
1e-07
510 410 -30
0 0

0101101
*
Ed
 1e-07 1 1 0
1  2 0 0 50
3  3 4CN 1 0 0 50
0

0101000
-40 3 +38 3 *
Ed
 1e-07 1 1 0
1  3 0 0 6.28318530717959
2  5 1 0 0 6.28318530717959
2  6 3 0 0 6.28318530717959
0

0101100
+38 3 -38 3 *
Wi

0101000
-39 0 +37 0 +36 0 -37 0 *
Fa
0  1e-07 1 0

0101000
+35 0 *
Wi

0101000
+39 0 *
Fa
0  1e-07 2 0

0101000
+33 0 *
Wi

0101000
-36 0 *
Fa
0  1e-07 3 0

0101000
-31 0 *
Sh

0101100
+34 0 +32 0 -30 0 *
So

0100100
+29 0 *
Ve
1e-07
630 410 20
0 0

0101101
*
Ed
 1e-07 1 1 0
1  4 0 0 6.28318530717959
2  7 4 0 0 6.28318530717959
2  8 5 0 0 6.28318530717959
0

0101100
+27 6 -27 6 *
Ve
1e-07
630 410 -30
0 0

0101101
*
Ed
 1e-07 1 1 0
1  5 0 0 50
3  9 10CN 4 0 0 50
0

0101000
-27 6 +25 6 *
Ed
 1e-07 1 1 0
1  6 0 0 6.28318530717959
2  11 4 0 0 6.28318530717959
2  12 6 0 0 6.28318530717959
0

0101100
+25 6 -25 6 *
Wi

0101000
-26 0 +24 0 +23 0 -24 0 *
Fa
0  1e-07 4 0

0101000
+22 0 *
Wi

0101000
+26 0 *
Fa
0  1e-07 5 0

0101000
+20 0 *
Wi

0101000
-23 0 *
Fa
0  1e-07 6 0

0101000
-18 0 *
Sh

0101100
+21 0 +19 0 -17 0 *
So

0100100
+16 0 *
Ve
1e-07
750 410 20
0 0

0101101
*
Ed
 1e-07 1 1 0
1  7 0 0 6.28318530717959
2  13 7 0 0 6.28318530717959
2  14 8 0 0 6.28318530717959
0

0101100
+14 9 -14 9 *
Ve
1e-07
750 410 -30
0 0

0101101
*
Ed
 1e-07 1 1 0
1  8 0 0 50
3  15 16CN 7 0 0 50
0

0101000
-14 9 +12 9 *
Ed
 1e-07 1 1 0
1  9 0 0 6.28318530717959
2  17 7 0 0 6.28318530717959
2  18 9 0 0 6.28318530717959
0

0101100
+12 9 -12 9 *
Wi

0101000
-13 0 +11 0 +10 0 -11 0 *
Fa
0  1e-07 7 0

0101000
+9 0 *
Wi

0101000
+13 0 *
Fa
0  1e-07 8 0

0101000
+7 0 *
Wi

0101000
-10 0 *
Fa
0  1e-07 9 0

0101000
-5 0 *
Sh

0101100
+8 0 +6 0 -4 0 *
So

0100100
+3 0 *
Co

1100000
+28 2 +15 5 +2 8 *

+1 1 