DBRep_DrawableShape

CASCADE Topology V1, (c) Matra-Datavision
Locations 16
1
              1               0              -0               0 
             -0 2.22044604925031e-16              -1               0 
              0               1 2.22044604925031e-16               0 
1
              1               0              -0               0 
             -0 2.22044604925031e-16              -1               0 
              0               1 2.22044604925031e-16               0 
1
              1               0               0               0 
              0 -2.22044604925031e-16              -1               0 
              0               1 -2.22044604925031e-16               0 
2  2 1 3 -1 0
2  1 -1 3 1 2 -1 0
1
             -1               0               0              -0 
              0              -1 4.44089209850063e-16 1.11022302462516e-14 
              0 4.44089209850063e-16               1              25 
2  6 1 3 -1 0
2  2 1 6 -1 0
2  3 1 6 -1 0
2  1 -1 3 1 6 -1 0
1
              1               0              -0               0 
             -0 2.22044604925031e-16              -1               0 
              0               1 2.22044604925031e-16               0 
1
              1               0               0               0 
              0 -2.22044604925031e-16              -1               0 
              0               1 -2.22044604925031e-16               0 
2  11 1 12 -1 0
2  12 1 11 -1 0
2  1 -1 3 1 2 -1 12 1 11 -1 0
2  1 -1 0
Curve2ds 48
2 0 0 -1 1.0107072353030085e-16 1.0107072353030085e-16 1 34
1 0 0 1 0 
2 0 0 -1 -7.5129610021048739e-31 -7.5129610021048739e-31 1 21
1 0 0 1 0 
1 -33.610691000000003 0.9264926040590088 0.0024679924837108153 -0.99999695450191273 
1 0 0 1 -9.8607613152626454e-32 
1 -33.600819000000001 -3.0735073959409909 0.98064702829624406 0.19578407977602669 
1 0 0 1 -7.3955709864469857e-32 
1 -26.747889000000004 0.25463381554300701 -0.099755424315373237 -0.9950119875256076 
1 0 0 1 0 
1 -33.610691000000003 0.9264926040590088 0.99524210397355406 -0.097432820334287421 
1 0 0 1 3.6977854932234928e-32 
1 0 25 1 0 
2 0 0 1 0 -0 1 34
1 6.2831853071795862 0 0 1 
1 0 0 0 1 
1 0 5 1 0 
2 0 0 1 -9.766849302736337e-31 9.766849302736337e-31 1 21
1 6.2831853071795862 0 0 1 
1 0 0 0 1 
1 4.0000121820294483 3.5527136788005009e-15 4.4408785737722383e-16 -1 
1 6.1778562559991786e-31 3.5527136788005009e-15 -8.6945597288957525e-17 -1 
8 -3.4952918244355313 0.50472035759394118
1 0.50472035759394107 -25.000000000000004 -1 -5.9164567891575877e-31 
8 -3.4952918244355313 0.50472035759394118
1 33.609445353951088 0.42177378358994272 0.0024679924837110795 0.99999695450191273 
1 -1.1102196434430586e-16 -9.8607312843786556e-32 4.4408785737722383e-16 -1 
1 0 0 4.3268864195716753e-17 -1 
1 6.783703828234481 2.3730873164460315e-15 -8.6945597288957525e-17 -1 
1 2.0100260349361134 1.7763568394002501e-15 4.4187408733158783e-16 -1 
8 9.9924397307000561 16.77614355893455
1 16.776143558934546 -24.999999999999996 -1 1.2325951644078309e-31 
8 9.9924397307000561 16.77614355893455
1 17.149343672659661 0.21099443293551112 0.98064702829624395 -0.19578407977602696 
8 -3.2174676938565496 -1.2074416589204136
1 -1.2074416589204136 -25 -1 -5.9164567891575885e-31 
8 -3.2174676938565496 -1.2074416589204136
1 26.627440144978337 1.4560527404066175 -0.099755424315372945 0.9950119875256076 
1 -5.523426091644843e-17 -4.9058491920047059e-32 4.4187408733158783e-16 -1 
1 6.8956105982654048 5.9673047704578173e-16 4.3268864195716753e-17 -1 
8 9.8749122088732495 16.770522807138661
1 16.770522807138661 -25 -1 -6.1629758220391547e-32 
8 9.8749122088732495 16.770522807138661
1 16.919960596686849 -0.70750673152101795 0.99524210397355406 0.097432820334287185 
2 0 0 1 0 -0 1 4
1 0 0 1 0 
2 0 0 1 -1.0573552615477813e-16 1.0573552615477813e-16 1 14
1 0 0 1 0 
1 0 25 1 0 
2 0 0 -1 -3.5498740734945531e-30 -3.5498740734945531e-30 1 4
1 6.2831853071795862 0 0 1 
1 0 0 0 1 
1 0 5 1 0 
2 0 0 -1 9.9127055770103009e-16 9.9127055770103009e-16 1 14
1 6.2831853071795862 0 0 1 
1 0 0 0 1 
Curves 24
2 0 25 -5.5511151231257827e-15 -0 -1 2.2204460492503131e-16 1 -3.6252798953171539e-32 -1.6326809185664085e-16 1.6326809185664085e-16 2.2204460492503131e-16 1 34
2 0 25 -5.5511151231257827e-15 -0 -1 2.2204460492503131e-16 1 -5.8695007828944396e-32 -2.6433881538694233e-16 2.6433881538694233e-16 2.2204460492503131e-16 1 21
1 -33.610691000000003 0.92649260405900002 0 0.0024679924837110795 -0.99999695450191273 0 
1 -33.600819000000001 -3.0735073959410002 0 0.98064702829624395 0.19578407977602696 0 
1 -26.747889000000001 0.25463381554300002 0 -0.099755424315372945 -0.9950119875256076 0 
1 -33.610691000000003 0.92649260405900002 0 0.99524210397355406 -0.097432820334287185 0 
2 0 0 0 -0 -1 2.2204460492503131e-16 1 0 0 -0 2.2204460492503131e-16 1 34
1 34 25 0 0 -1 0 
2 0 20 -4.4408920985006262e-15 -0 -1 2.2204460492503131e-16 1 -4.6956006263155615e-32 -2.1147105230955431e-16 2.1147105230955431e-16 2.2204460492503131e-16 1 21
1 21 25 0 0 -1 0 
1 33.600819000000001 25 -3.0735073959410153 -0 -1 2.2204460492503131e-16 
1 33.609445353951088 -3.5803399257169737e-15 0.42177378358994272 0.0024679924837110795 6.6613178606583491e-16 0.99999695450191273 
1 33.610691000000003 25 0.92649260405898348 -0 -1 2.2204460492503131e-16 
1 26.948399999999999 25 -1.7453661844570156 -0 -1 2.2204460492503131e-16 
1 17.149343672659661 -6.1212270969378577e-16 0.21099443293551112 0.98064702829624395 -1.3041839593343611e-16 -0.19578407977602696 
1 26.627440144978337 8.8511586902159103e-16 1.4560527404066175 -0.099755424315372945 6.6281113099738091e-16 0.9950119875256076 
1 26.747889000000001 25 0.25463381554298342 -0 -1 2.2204460492503131e-16 
1 16.919960596686849 -7.7987818439851614e-16 -0.70750673152101795 0.99524210397355406 6.490329629357504e-17 0.097432820334287185 
2 0 0 0 -0 -1 2.2204460492503131e-16 1 0 0 -0 2.2204460492503131e-16 1 4
2 0 20 -4.4408920985006262e-15 -0 -1 2.2204460492503131e-16 1 -7.0434009394733417e-32 -3.1720657846433143e-16 3.1720657846433143e-16 2.2204460492503131e-16 1 14
2 0 25 -5.5511151231257827e-15 -0 -1 2.2204460492503131e-16 1 -3.0814879110195809e-31 -1.3877787807814473e-15 1.3877787807814473e-15 2.2204460492503131e-16 1 4
1 4 0 0 0 1 0 
2 0 25 -5.5511151231257827e-15 -0 -1 2.2204460492503131e-16 1 -8.8042511743416599e-32 -3.9650822308041352e-16 3.9650822308041352e-16 2.2204460492503131e-16 1 14
1 14 20 0 0 1 0 
Polygon3D 0
PolygonOnTriangulations 0
Surfaces 12
1 0 25 -5.5511151231257827e-15 -0 -1 2.2204460492503131e-16 -1 5.8695007828944243e-32 2.6433881538694164e-16 2.6433881538694164e-16 2.2204460492503131e-16 1 
2 0 25 -5.5511151231257827e-15 -0 -1 2.2204460492503131e-16 1 -3.6252798953171446e-32 -1.6326809185664043e-16 1.6326809185664043e-16 2.2204460492503131e-16 1 34
2 0 25 -5.5511151231257827e-15 -0 -1 2.2204460492503131e-16 1 -5.8695007828944243e-32 -2.6433881538694164e-16 2.6433881538694164e-16 2.2204460492503131e-16 1 21
1 33.610691000000003 25 0.92649260405898337 0.99999695450191273 -5.480044160035734e-19 -0.0024679924837110795 -0.0024679924837110795 -6.661317860658355e-16 -0.99999695450191273 -1.0960054941143458e-18 1 -6.661311098335348e-16 
1 33.600819000000001 24.999999999999996 -3.0735073959410171 -0.19578407977602696 -2.1774738196894549e-16 -0.98064702829624395 -0.98064702829624395 1.3041839593343623e-16 0.19578407977602696 8.5262941604858149e-17 1 -2.3906716868082688e-16 
1 26.747889000000001 25 0.25463381554298337 0.9950119875256076 2.2150153781235847e-17 0.099755424315372945 0.099755424315372945 -6.628111309973815e-16 -0.9950119875256076 4.4079337075730707e-17 1 -6.6171461879689839e-16 
1 33.610691000000003 25 0.92649260405898337 0.097432820334287185 -2.2098813978156474e-16 -0.99524210397355406 -0.99524210397355406 -6.4903296293575101e-17 -0.097432820334287185 -4.3062995438691115e-17 1 -2.2626041239628124e-16 
1 0 0 0 -0 -1 2.2204460492503131e-16 1 0 0 -0 2.2204460492503131e-16 1 
1 0 20 -4.4408920985006262e-15 -0 -1 2.2204460492503131e-16 1 -4.6956006263155396e-32 -2.1147105230955332e-16 2.1147105230955332e-16 2.2204460492503131e-16 1 
2 0 0 0 0 1 -2.2204460492503131e-16 1 0 0 -0 2.2204460492503131e-16 1 4
2 0 20 -4.4408920985006262e-15 0 1 -2.2204460492503131e-16 1 -7.04340093947331e-32 -3.1720657846433e-16 3.1720657846433e-16 2.2204460492503131e-16 1 14
1 0 25 -5.5511151231257827e-15 -0 -1 2.2204460492503131e-16 -1 3.081487911019573e-31 1.3877787807814437e-15 1.3877787807814437e-15 2.2204460492503131e-16 1 
Triangulations 0

TShapes 72
Ve
1e-07
34 2.7755575615629e-14 25
0 0

0101101
*
Ed
 1e-07 1 1 0
1  1 0 0 6.28318530717959
2  1 1 0 0 6.28318530717959
2  2 2 0 0 6.28318530717959
0

0101100
+72 5 -72 5 *
Wi

0101000
-71 4 *
Ve
1e-07
21 2.7755575615629e-14 25
0 0

0101101
*
Ed
 1e-07 1 1 0
1  2 0 0 6.28318530717959
2  3 1 0 0 6.28318530717959
2  4 3 0 0 6.28318530717959
0

0101100
+69 5 -69 5 *
Wi

0101000
+68 4 *
Ve
1e-07
33.610691 -0.926492604058978 25
0 0

0101101
*
Ve
1e-07
33.600819 3.07350739594102 25
0 0

0101101
*
Ed
 1e-07 1 1 0
1  3 0 0 4.00001218202945
2  5 1 8 0 4.00001218202945
2  6 4 9 0 4.00001218202945
0

0101000
+66 10 -65 10 *
Ve
1e-07
26.9484 1.74536618445702 25
0 0

0101101
*
Ed
 1e-07 1 1 0
1  4 0 0 6.78370382823449
2  7 1 8 0 6.78370382823449
2  8 5 9 0 6.78370382823449
0

0101000
+65 10 -63 10 *
Ve
1e-07
26.747889 -0.254633815542978 25
0 0

0101101
*
Ed
 1e-07 1 1 0
1  5 0 0 2.01002603493611
2  9 1 8 0 2.01002603493611
2  10 6 9 0 2.01002603493611
0

0101000
+61 10 -63 10 *
Ed
 1e-07 1 1 0
1  6 0 0 6.89561059826541
2  11 1 8 0 6.89561059826541
2  12 7 9 0 6.89561059826541
0

0101000
+66 10 -61 10 *
Wi

0101000
-64 7 -62 7 +60 7 +59 7 *
Fa
0  1e-07 1 4

0101000
+70 0 +67 0 +58 0 *
Ve
1e-07
34 0 0
0 0

0101101
*
Ed
 1e-07 1 1 0
1  7 0 0 6.28318530717959
2  13 2 0 0 6.28318530717959
2  14 8 0 0 6.28318530717959
0

0101100
+56 5 -56 5 *
Ed
 1e-07 1 1 0
1  8 0 0 25
3  15 16CN 2 14 0 25
0

0101000
+72 15 -56 15 *
Wi

0101000
+71 0 -55 0 -54 13 +54 13 *
Fa
0  1e-07 2 0

0101000
+53 0 *
Ve
1e-07
21 2.22044604925031e-14 20
0 0

0101101
*
Ed
 1e-07 1 1 0
1  9 0 0 6.28318530717959
2  17 3 0 0 6.28318530717959
2  18 9 0 0 6.28318530717959
0

0101100
+51 5 -51 5 *
Ed
 1e-07 1 1 0
1  10 0 0 5
3  19 20CN 3 14 0 5
0

0101000
+69 15 -51 15 *
Wi

0101000
+68 0 -50 0 -49 13 +49 13 *
Fa
0  1e-07 3 0

0101000
+48 0 *
Ve
2.00001e-07
33.600819 3.07350739594101 -4.23516941426638e-15
0 0

0101101
*
Ed
 1e-07 1 1 0
1  11 0 0 25
2  21 4 0 0 25
2  22 5 0 0 25
0

0101000
+65 16 -46 16 *
Ve
2.00001e-07
33.610691 -0.926492604058989 2.05722684234242e-16
0 0

0101101
*
Ed
 1e-07 1 1 0
1  12 0 -3.49529182443553 0.504720357593941
2  23 4 0 -3.49529182443553 0.504720357593941
2  24 8 4 -3.49529182443553 0.504720357593941
0

0101000
+46 16 -44 16 *
Ed
 1e-07 1 1 0
1  13 0 0 25
2  25 4 0 0 25
2  26 7 0 0 25
0

0101000
+66 16 -44 16 *
Wi

0101000
-64 7 -45 0 -43 0 +42 0 *
Fa
0  1e-07 4 0

0101000
+41 0 *
Ve
2.00001e-07
26.9484 1.74536618445701 -3.87549144877266e-16
0 0

0101101
*
Ed
 1e-07 1 1 0
1  14 0 0 25
2  27 5 0 0 25
2  28 6 0 0 25
0

0101000
+63 16 -39 16 *
Ed
 1e-07 1 1 0
1  15 0 9.99243973070006 16.7761435589345
2  29 5 0 9.99243973070006 16.7761435589345
2  30 8 4 9.99243973070006 16.7761435589345
0

0101000
+39 16 -46 16 *
Wi

0101000
-62 7 -38 0 -37 0 +45 0 *
Fa
0  1e-07 5 0

0101000
+36 0 *
Ve
2.00001e-07
26.747889 -0.254633815542989 5.65400649727963e-17
0 0

0101101
*
Ed
 1e-07 1 1 0
1  16 0 -3.21746769385655 -1.20744165892041
2  31 6 0 -3.21746769385655 -1.20744165892041
2  32 8 4 -3.21746769385655 -1.20744165892041
0

0101000
+39 16 -34 16 *
Ed
 1e-07 1 1 0
1  17 0 0 25
2  33 6 0 0 25
2  34 7 0 0 25
0

0101000
+61 16 -34 16 *
Wi

0101000
-60 7 -38 0 -33 0 +32 0 *
Fa
0  1e-07 6 0

0101000
+31 0 *
Ed
 1e-07 1 1 0
1  18 0 9.87491220887325 16.7705228071387
2  35 7 0 9.87491220887325 16.7705228071387
2  36 8 4 9.87491220887325 16.7705228071387
0

0101000
+34 16 -44 16 *
Wi

0101000
-59 7 -32 0 -29 0 +42 0 *
Fa
0  1e-07 7 0

0101000
+28 0 *
Wi

0101000
+55 4 *
Ve
1e-07
4 0 0
0 0

0101101
*
Ed
 1e-07 1 1 0
1  19 0 0 6.28318530717959
2  37 8 0 0 6.28318530717959
2  38 10 0 0 6.28318530717959
0

0101100
+25 5 -25 5 *
Wi

0101000
-24 4 *
Wi

0101000
-37 0 -43 0 +29 0 +33 0 *
Fa
0  1e-07 8 4

0101000
+26 0 +23 0 +22 0 *
Wi

0101000
+50 0 *
Ve
1e-07
14 2.22044604925031e-14 20
0 0

0101101
*
Ed
 1e-07 1 1 0
1  20 0 0 6.28318530717959
2  39 9 0 0 6.28318530717959
2  40 11 0 0 6.28318530717959
0

0101100
+19 5 -19 5 *
Wi

0101000
-18 0 *
Fa
0  1e-07 9 0

0101000
+20 0 +17 0 *
Ve
1e-07
4 2.7755575615629e-14 25
0 0

0101101
*
Ed
 1e-07 1 1 0
1  21 0 0 6.28318530717959
2  41 10 0 0 6.28318530717959
2  42 12 0 0 6.28318530717959
0

0101100
+15 5 -15 5 *
Ed
 1e-07 1 1 0
1  22 0 0 25
3  43 44CN 10 14 0 25
0

0101000
+25 15 -15 15 *
Wi

0101000
+24 0 -14 0 -13 13 +13 13 *
Fa
0  1e-07 10 0

0101000
+12 0 *
Ve
1e-07
14 2.7755575615629e-14 25
0 0

0101101
*
Ed
 1e-07 1 1 0
1  23 0 0 6.28318530717959
2  45 11 0 0 6.28318530717959
2  46 12 0 0 6.28318530717959
0

0101100
+10 5 -10 5 *
Ed
 1e-07 1 1 0
1  24 0 0 5
3  47 48CN 11 14 0 5
0

0101000
+19 15 -10 15 *
Wi

0101000
+18 0 -9 0 -8 13 +8 13 *
Fa
0  1e-07 11 0

0101000
+7 0 *
Wi

0101000
+14 0 *
Wi

0101000
-9 0 *
Fa
0  1e-07 12 0

0101000
+5 0 +4 0 *
Sh

0101000
+57 0 +52 4 -47 4 -40 0 -35 0 +30 0 +27 0 +21 0 -16 4 +11 4 
-6 4 +3 4 *
So

0100000
+2 0 *

+1 1 