DBRep_DrawableShape

CASCADE Topology V1, (c) Matra-Datavision
Locations 70
1
              0               0               1               0 
              1               0               0               0 
              0               1               0               0 
1
              0               0               1               0 
              1               0               0               0 
              0               1               0               0 
1
              0 1.11022302462516e-16               1               0 
              1               0 1.11022302462516e-16               0 
1.11022302462516e-16               1               0               0 
1
              0               0               1               0 
              1               0               0               0 
              0               1               0               0 
1
              0 1.11022302462516e-16               1               0 
              1               0 1.11022302462516e-16               0 
1.11022302462516e-16               1               0               0 
1
              1               0               0               0 
              0               1               0               0 
              0               0               1               0 
2  2 1 3 -1 4 1 5 -1 6 1 0
1
              0 1.11022302462516e-16               1               0 
              1               0 1.11022302462516e-16               0 
1.11022302462516e-16               1               0               0 
1
              1               0               0               0 
              0               1               0 1.40998324127395e-15 
              0               0               1            12.7 
1
              0               0               1               0 
              1               0               0               0 
              0               1               0               0 
1
              0 1.11022302462516e-16               1               0 
              1               0 1.11022302462516e-16               0 
1.11022302462516e-16               1               0               0 
2  8 -1 9 1 10 1 11 -1 0
1
              0               0               1               0 
              1               0               0               0 
              0               1               0               0 
2  13 1 8 -1 9 1 10 1 11 -1 0
2  13 -1 0
2  9 -1 8 1 13 -1 0
2  1 -1 6 -1 5 1 4 -1 3 1 2 -1 11 1 10 -1 9 -1 8 1 13 -1 0
1
-2.22044604925031e-16 -1.11022302462516e-16               1            12.7 
              1 -2.22044604925031e-16 1.11022302462516e-16              -0 
1.11022302462516e-16               1               0 1.40998324127395e-15 
2  18 1 11 -1 0
2  8 -1 9 1 10 1 18 -1 0
2  11 1 18 -1 0
2  1 -1 6 -1 5 1 4 -1 3 1 2 -1 11 1 18 -1 0
2  10 1 11 -1 2 1 3 -1 4 1 5 -1 6 1 0
2  1 -1 6 -1 5 1 4 -1 3 1 2 -1 11 1 10 -1 0
2  13 1 8 -1 10 1 11 -1 2 1 3 -1 4 1 5 -1 6 1 0
2  8 1 13 -1 0
2  5 1 4 -1 3 1 2 -1 11 1 10 -1 8 1 13 -1 0
2  1 -1 6 -1 5 1 4 -1 3 1 2 -1 11 1 10 -1 8 1 13 -1 0
2  13 1 8 -1 9 1 10 1 11 -1 2 1 3 -1 4 1 5 -1 6 1 0
2  6 -1 5 1 4 -1 3 1 2 -1 11 1 10 -1 8 1 13 -1 0
2  10 1 11 -1 2 1 3 -1 4 1 5 -1 0
2  13 1 8 -1 10 1 11 -1 2 1 3 -1 4 1 5 -1 0
2  13 1 8 -1 9 1 10 1 11 -1 2 1 3 -1 4 1 5 -1 0
2  4 1 5 -1 6 1 0
2  2 1 3 -1 0
2  18 1 11 -1 2 1 3 -1 0
2  1 -1 6 -1 5 1 4 -1 3 1 2 -1 0
2  8 -1 10 1 11 -1 0
1
              1               0               0 -1.11022302462516e-15 
              0               1               0 2.22044604925031e-15 
              0               0               1              10 
2  3 -1 39 1 0
2  1 -1 6 -1 5 1 4 -1 0
2  1 -1 6 -1 0
1
              0 4.44089209850063e-16              -1 -2.75446332409501e-14 
              1               0               0 -1.01854145214547e-45 
              0              -1 -4.44089209850063e-16 -9.17420580868748e-30 
1
              1               0               0 -6.26158343519178e-31 
              0               1               0 -7.04991620636974e-15 
              0               0               1           -12.7 
2  43 1 5 -1 44 1 0
2  44 -1 5 1 43 -1 0
2  43 -1 0
2  1 -1 6 -1 44 -1 5 1 43 -1 0
2  8 -1 10 1 11 -1 2 1 3 -1 4 1 5 -1 6 1 0
2  43 1 5 -1 0
2  8 -1 10 1 11 -1 2 1 3 -1 4 1 5 -1 6 1 5 1 43 -1 0
2  5 1 43 -1 0
2  1 -1 5 1 43 -1 0
2  43 1 5 -1 6 1 0
2  8 -1 10 1 11 -1 2 1 3 -1 4 1 43 -1 0
2  1 -1 6 -1 5 1 43 -1 0
1
              0 1.11022302462516e-16              -1 -1.83630888273001e-14 
              1 -2.22044604925031e-16 1.11022302462516e-16 -2.26342544921216e-46 
-1.11022302462516e-16              -1 -2.22044604925031e-16 -4.0774248038611e-30 
2  57 1 3 -1 4 1 5 -1 6 1 0
2  8 -1 10 1 11 -1 2 1 57 -1 0
2  3 1 57 -1 0
2  1 -1 6 -1 5 1 4 -1 3 1 57 -1 0
2  1 -1 0
2  1 -1 44 -1 5 1 43 -1 0
2  57 1 3 -1 39 1 0
2  57 -1 0
2  39 -1 3 1 57 -1 0
2  1 -1 6 -1 5 1 4 -1 39 -1 3 1 57 -1 0
2  5 -1 44 1 6 1 0
2  57 1 3 -1 0
2  5 -1 44 1 0
Curve2ds 144
1 -0 -0 -4.4408920985006247e-16 -1 
1 5.6399329650957949e-15 -12.699999999999996 1 -3.3306690738754686e-16 
1 -82.699999999999974 -4.2632564145605999e-14 1 4.4408920985006252e-16 
1 -7.1054273576009995e-15 -12.699999999999996 1 3.3306690738754691e-16 
1 -3.6726177654600154e-14 -82.699999999999946 -1 -4.4408920985006252e-16 
1 7.1054273576009995e-15 -12.699999999999996 1 -3.3306690738754691e-16 
1 -82.700000000000017 -82.699999999999989 4.4408920985006247e-16 1 
1 -5.6399329650957949e-15 -12.699999999999996 1 3.3306690738754686e-16 
2 -28.450000000000006 -54.249999999999986 -5.5511151231257817e-16 -1 -1 5.5511151231257817e-16 9
1 0 0 1 0 
2 -28.449999999999996 -28.449999999999989 -5.5511151231257817e-16 -1 -1 5.5511151231257817e-16 9
1 0 0 1 0 
2 -54.249999999999986 -28.449999999999992 -5.5511151231257817e-16 -1 -1 5.5511151231257817e-16 9
1 0 0 1 0 
2 -54.25 -54.249999999999986 -5.5511151231257817e-16 -1 -1 5.5511151231257817e-16 9
1 0 0 1 0 
2 -41.350000000000001 -41.349999999999987 -5.5511151231257817e-16 -1 -1 5.5511151231257817e-16 3.1499999999999999
1 0 0 1 0 
1 0 0 4.4408920985006271e-16 -1 
1 82.699999999999974 2.7544633240950121e-14 -4.4408920985006262e-16 -1 
1 1.4012984643248174e-45 -3.1554436208840472e-30 1 -3.3306690738754686e-16 
1 1.4210854715202004e-14 -4.5907722068250138e-15 1 3.3306690738754696e-16 
1 1.4012984643248174e-45 -3.1554436208840472e-30 1 -3.3306690738754686e-16 
1 -0 -0 -4.4408920985006247e-16 -1 
1 82.699999999999946 -2.7544633240950114e-14 4.4408920985006271e-16 -1 
1 0 -0 4.4408920985006262e-16 -1 
1 1.4012984643248174e-45 -3.1554436208840472e-30 1 -3.3306690738754686e-16 
1 82.699999999999989 -4.5907722068250138e-15 -1 3.3306690738754696e-16 
1 -0 -0 -4.4408920985006262e-16 -1 
1 82.699999999999946 2.7544633240950114e-14 -4.4408920985006271e-16 -1 
1 -0 -0 1 3.3306690738754691e-16 
1 1.4270986813513869e-29 3.2135405447775161e-14 1 -4.4408920985006271e-16 
1 0 -0 1 -3.3306690738754691e-16 
1 82.699999999999974 2.2953861034125105e-14 -1 4.4408920985006262e-16 
1 82.699999999999974 -2.7544633240950121e-14 4.4408920985006262e-16 -1 
1 -0 0 -4.4408920985006271e-16 -1 
1 1.4012984643248174e-45 3.1554436208840472e-30 1 3.3306690738754686e-16 
1 18.000000000000007 5.9680038688725272e-14 -1 -3.3306690738754696e-16 
1 1.4012984643248174e-45 3.1554436208840472e-30 1 3.3306690738754686e-16 
1 -82.700000000000017 -82.699999999999989 4.4408920985006247e-16 1 
1 1.4012984643248174e-45 3.1554436208840472e-30 1 3.3306690738754686e-16 
1 -64.699999999999989 5.968003868872526e-14 1 -3.3306690738754696e-16 
1 0 0 0 -1 
1 6.2831853071795862 0 0 -1 
1 4.7123889803846897 -12.700000000000001 1 0 
2 -28.45000000000001 -54.249999999999986 1 -1.2325951644078318e-32 -1.2325951644078318e-32 -1 9
1 -1.5707963267948966 -12.700000000000001 1 0 
2 -28.45000000000001 -54.249999999999986 1 -1.2325951644078318e-32 -1.2325951644078318e-32 -1 9
1 0 0 0 -1 
1 6.2831853071795862 0 0 -1 
1 4.7123889803846897 -12.700000000000005 1 0 
2 -28.450000000000003 -28.449999999999989 1 -1.2325951644078318e-32 -1.2325951644078318e-32 -1 9
1 -1.5707963267948966 -12.700000000000005 1 0 
2 -28.450000000000003 -28.449999999999989 1 -1.2325951644078318e-32 -1.2325951644078318e-32 -1 9
1 0 0 0 -1 
1 6.2831853071795862 0 0 -1 
1 4.7123889803846897 -12.700000000000008 1 0 
2 -54.25 -28.449999999999985 1 -1.2325951644078318e-32 -1.2325951644078318e-32 -1 9
1 -1.5707963267948966 -12.700000000000008 1 0 
2 -54.25 -28.449999999999985 1 -1.2325951644078318e-32 -1.2325951644078318e-32 -1 9
1 0 0 0 -1 
1 6.2831853071795862 0 0 -1 
1 4.7123889803846897 -12.700000000000005 1 0 
2 -54.250000000000014 -54.249999999999986 1 -1.2325951644078318e-32 -1.2325951644078318e-32 -1 9
1 -1.5707963267948966 -12.700000000000005 1 0 
2 -54.250000000000014 -54.249999999999986 1 -1.2325951644078318e-32 -1.2325951644078318e-32 -1 9
1 0 0 0 -1 
1 6.2831853071795862 0 0 -1 
1 4.7123889803846897 -2.7000000000000046 1 0 
2 3.1999999999999984 -5.5425625842199988 1 -2.465190328815663e-32 -2.465190328815663e-32 -1 3.1499999999999999
1 -1.5707963267948966 -2.7000000000000046 1 0 
2 3.1999999999999984 -5.5425625842199988 1 -2.465190328815663e-32 -2.465190328815663e-32 -1 3.1499999999999999
1 0 0 -1.1102230246251573e-16 -1 
1 82.699999999999989 0 1.1102230246251575e-16 -1 
1 -1.4099832412739491e-15 -12.699999999999999 1 0 
1 0 0 -1.1102230246251562e-16 -1 
1 18 -3.944304526105059e-31 -1.1102230246251573e-16 -1 
1 0 0 -1.1102230246251575e-16 -1 
1 -2.1627144519698044e-14 -64.699999999999989 -1 7.3955709864469846e-32 
1 0 0 1 0 
1 6.2172489379008829e-15 -17.999999999999986 -1 -1.1102230246251556e-16 
1 0 0 1 0 
1 -44.549999999999997 -35.807437415779987 -0.50000000000002776 -0.86602540378442261 
1 -4.3161772615408397e-46 3.1554436208840472e-30 1 -1.5165928555043735e-16 
1 -44.549999999999997 -35.807437415779987 1 4.4408920985006252e-16 
1 -3.5032461608120411e-46 3.1554436208840472e-30 1 1.110223024625157e-16 
1 -47.75 -41.349999999999987 0.50000000000002764 -0.86602540378442272 
1 -3.4158679198688673e-31 3.1554436208840472e-30 1 -4.0636983087915483e-17 
1 -38.149999999999999 -35.807437415779987 0.50000000000002764 -0.86602540378442272 
1 -1.2132742844034986e-15 2.8283634205600638e-30 1 -4.0636983087915483e-17 
1 -38.149999999999999 -46.892562584219988 -1 -4.4408920985006252e-16 
1 3.5032461608120411e-46 3.1554436208840472e-30 1 -1.110223024625157e-16 
1 -34.950000000000003 -41.349999999999987 -0.50000000000002776 -0.86602540378442261 
1 3.4158679198688563e-31 3.1554436208840472e-30 1 -1.5165928555043735e-16 
1 0 0 -1.1102230246251573e-16 -1 
1 82.699999999999989 0 1.1102230246251575e-16 -1 
1 -1.4099832412739491e-15 -12.699999999999999 1 0 
1 0 0 -1.1102230246251562e-16 -1 
1 18 -3.944304526105059e-31 -1.1102230246251573e-16 -1 
1 0 0 -1.1102230246251575e-16 -1 
1 0 0 1.1102230246251575e-16 -1 
1 17.999999999999993 -3.944304526105059e-31 1.1102230246251573e-16 -1 
1 1.4654943925052062e-15 -12.700000000000001 1 0 
1 -82.699999999999989 -1.4210854715201999e-14 1 1.1102230246251562e-16 
1 0 0 1.1102230246251575e-16 -1 
1 17.999999999999993 -3.944304526105059e-31 1.1102230246251573e-16 -1 
1 1.4654943925052062e-15 -12.700000000000001 1 0 
1 -82.699999999999989 -1.4210854715201999e-14 1 1.1102230246251562e-16 
1 0 0 1.1102230246251573e-16 -1 
1 82.699999999999989 0 -1.1102230246251575e-16 -1 
1 1.4099832412739493e-15 -12.700000000000001 1 0 
1 -82.699999999999989 -18.000000000000007 1.1102230246251562e-16 1 
1 0 0 1.1102230246251573e-16 -1 
1 82.699999999999989 0 -1.1102230246251575e-16 -1 
1 1.4099832412739493e-15 -12.700000000000001 1 0 
1 -82.699999999999989 -18.000000000000007 1.1102230246251562e-16 1 
1 0 -0 1 4.4408920985006252e-16 
1 -1.9984014443252818e-15 -9.9999999999999982 1 1.110223024625157e-16 
1 0 -0 -0.50000000000002776 -0.86602540378442272 
1 2.1529783339928128e-15 -9.9999999999999982 1 -1.5165928555043735e-16 
1 6.3999999999999986 3.5527136788005005e-15 0.50000000000002776 -0.86602540378442272 
1 -1.1617486545143581e-15 -10 1 -4.0636983087915483e-17 
1 -3.2000000000000006 -5.5425625842199997 0.50000000000002776 -0.86602540378442272 
1 -1.1155626107509816e-16 -10 1 -4.0636983087915483e-17 
1 9.5999999999999961 -5.5425625842199944 -0.50000000000002776 -0.86602540378442272 
1 1.9978674857127791e-15 -9.9999999999999982 1 -1.5165928555043735e-16 
1 6.3999999999999968 -11.085125168439994 -1 -4.4408920985006252e-16 
1 1.9984014443252818e-15 -9.9999999999999982 1 -1.110223024625157e-16 
1 -1.9984014443252822e-15 -18 -1 -1.1102230246251562e-16 
1 -1.4654943925052069e-15 -12.699999999999999 1 0 
1 -1.4654943925052069e-15 -12.699999999999999 1 0 
1 -1.9984014443252822e-15 -18 -1 -1.1102230246251562e-16 
1 0 0 2.0717043678169826e-16 -1 
1 0 0 -2.2204460492503136e-16 -1 
1 6.3999999999996477 -9.7061942752274492e-16 2.0717043678169826e-16 -1 
1 -3.4158679198688594e-31 -2.4828700941565234e-47 -1.487416814334534e-17 -1 
1 6.3999999999999986 7.1054273576010259e-16 -2.2204460492503136e-16 -1 
1 -7.819423422353076e-46 3.1554436208840472e-30 -1.487416814334534e-17 -1 
1 6.3999999999996433 -2.6007669176264883e-16 -1.487416814334534e-17 -1 
1 6.3999999999999986 -7.1054273576010259e-16 2.2204460492503136e-16 -1 
1 6.3999999999996433 -2.6007669176264568e-16 -1.487416814334534e-17 -1 
1 3.4158679198688607e-31 6.2752453078735804e-47 2.0717043678169826e-16 -1 
1 0 0 2.2204460492503136e-16 -1 
1 6.3999999999996477 -9.7061942752274452e-16 2.0717043678169826e-16 -1 
Curves 72
1 -41.349999999999987 -41.350000000000001 0 1 0 0 
1 -41.349999999999987 41.350000000000016 0 0 -1 0 
1 41.350000000000001 -41.350000000000001 0 0 1 0 
1 41.350000000000001 41.350000000000016 0 -1 0 0 
2 12.9 -12.9 0 0 0 1 1 0 -0 -0 1 0 9
2 -12.9 -12.9 0 0 0 1 1 0 -0 -0 1 0 9
2 -12.9 12.9 0 0 0 1 1 0 -0 -0 1 0 9
2 12.9 12.9 0 0 0 1 1 0 -0 -0 1 0 9
2 0 0 0 0 0 1 1 0 -0 -0 1 0 3.1499999999999999
1 -41.349999999999987 -41.349999999999994 -4.5907722068250209e-15 0 1.1102230246251568e-16 1 
1 -41.349999999999987 -41.350000000000001 0 1 0 0 
1 -41.349999999999987 -41.350000000000001 0 1 0 0 
1 41.349999999999987 -41.349999999999994 4.5907722068250225e-15 0 1.1102230246251568e-16 1 
1 -41.349999999999987 -41.350000000000001 0 1 0 0 
1 -41.349999999999973 41.350000000000009 -4.5907722068250209e-15 0 1.1102230246251568e-16 1 
1 -41.349999999999987 41.350000000000016 0 0 -1 0 
1 41.350000000000001 -41.350000000000001 0 0 1 0 
1 41.350000000000001 41.350000000000009 4.5907722068250225e-15 0 1.1102230246251568e-16 1 
1 41.350000000000001 41.350000000000016 0 -1 0 0 
1 41.350000000000001 41.350000000000016 0 -1 0 0 
1 41.350000000000001 41.350000000000016 0 -1 0 0 
1 21.899999999999999 -12.899999999999993 12.699999999999985 -1.1102230246251568e-16 -2.2204460492503136e-16 -1 
2 12.899999999999999 -12.899999999999995 -1.4210854715202004e-14 1.1102230246251563e-16 1.1102230246251568e-16 1 0 -1 1.1102230246251568e-16 1 -1.2325951644078309e-32 -1.1102230246251563e-16 9
2 12.899999999999999 -12.899999999999995 -1.4210854715202004e-14 1.1102230246251563e-16 1.1102230246251568e-16 1 0 -1 1.1102230246251568e-16 1 -1.2325951644078309e-32 -1.1102230246251563e-16 9
1 -3.8999999999999986 -12.899999999999995 12.699999999999989 -1.1102230246251568e-16 -2.2204460492503136e-16 -1 
2 -12.899999999999999 -12.899999999999999 -1.4210854715202004e-14 1.1102230246251563e-16 1.1102230246251568e-16 1 0 -1 1.1102230246251568e-16 1 -1.2325951644078309e-32 -1.1102230246251563e-16 9
2 -12.899999999999999 -12.899999999999999 -1.4210854715202004e-14 1.1102230246251563e-16 1.1102230246251568e-16 1 0 -1 1.1102230246251568e-16 1 -1.2325951644078309e-32 -1.1102230246251563e-16 9
1 -3.9000000000000012 12.900000000000002 12.699999999999987 -1.1102230246251568e-16 -2.2204460492503136e-16 -1 
2 -12.900000000000002 12.899999999999999 -2.1316282072803006e-14 1.1102230246251563e-16 1.1102230246251568e-16 1 0 -1 1.1102230246251568e-16 1 -1.2325951644078309e-32 -1.1102230246251563e-16 9
2 -12.900000000000002 12.899999999999999 -2.1316282072803006e-14 1.1102230246251563e-16 1.1102230246251568e-16 1 0 -1 1.1102230246251568e-16 1 -1.2325951644078309e-32 -1.1102230246251563e-16 9
1 21.899999999999991 12.900000000000004 12.699999999999982 -1.1102230246251568e-16 -2.2204460492503136e-16 -1 
2 12.899999999999995 12.900000000000002 -2.1316282072803006e-14 1.1102230246251563e-16 1.1102230246251568e-16 1 0 -1 1.1102230246251568e-16 1 -1.2325951644078309e-32 -1.1102230246251563e-16 9
2 12.899999999999995 12.900000000000002 -2.1316282072803006e-14 1.1102230246251563e-16 1.1102230246251568e-16 1 0 -1 1.1102230246251568e-16 1 -1.2325951644078309e-32 -1.1102230246251563e-16 9
1 3.1499999999999995 3.1696867353048196e-15 12.699999999999987 -1.1102230246251568e-16 -2.2204460492503136e-16 -1 
2 -2.9976021664879224e-16 3.6304292905242559e-15 9.9999999999999805 1.1102230246251564e-16 2.2204460492503136e-16 1 0 -1 2.2204460492503136e-16 1 -2.4651903288156619e-32 -1.1102230246251564e-16 3.1499999999999999
2 -2.9976021664879224e-16 3.6304292905242559e-15 9.9999999999999805 1.1102230246251564e-16 2.2204460492503136e-16 1 0 -1 2.2204460492503136e-16 1 -2.4651903288156619e-32 -1.1102230246251564e-16 3.1499999999999999
1 -41.350000000000001 -41.349999999999994 -1.3772316620475056e-14 -4.9303806576313249e-32 -5.5511151231257837e-16 -1 
1 -41.350000000000001 41.350000000000001 0 1 0 0 
1 -23.350000000000001 -41.349999999999994 -1.1773915176149774e-14 -4.9303806576313249e-32 -5.5511151231257837e-16 -1 
1 23.350000000000001 41.349999999999994 1.9984014443252818e-15 -1.1102230246251562e-16 -1 -1.1102230246251568e-16 
1 -23.350000000000001 41.350000000000001 0 0 -1 0 
1 -5.5425625842199997 -3.2000000000000002 0 0.86602540378442272 -0.50000000000002764 0 
1 -5.5425625842199997 -3.2000000000000002 0 0 1 0 
1 0 -6.4000000000000004 0 0.86602540378442272 0.50000000000002764 0 
1 -5.5425625842199997 3.2000000000000002 0 0.86602540378442272 0.50000000000002764 0 
1 5.5425625842199997 3.2000000000000002 0 0 -1 0 
1 0 6.4000000000000004 0 0.86602540378442272 -0.50000000000002764 0 
1 41.350000000000001 -41.349999999999994 -4.590772206825009e-15 2.2204460492503141e-16 -5.5511151231257837e-16 -1 
1 41.350000000000001 41.349999999999987 0 -1 1.1102230246251562e-16 1.1102230246251568e-16 
1 23.350000000000001 -41.349999999999994 -6.5891736511502916e-15 2.2204460492503141e-16 -5.5511151231257837e-16 -1 
1 -41.349999999999987 41.349999999999994 -5.0498494275075229e-14 -4.9303806576313249e-32 -5.5511151231257837e-16 -1 
1 -41.350000000000001 -41.350000000000001 0 0 1 0 
1 41.349999999999987 41.349999999999994 -4.1316949861425186e-14 2.2204460492503141e-16 -5.5511151231257837e-16 -1 
1 41.349999999999987 -41.350000000000001 -9.1815444136500449e-15 1.1102230246251562e-16 1 1.1102230246251568e-16 
1 23.349999999999994 41.349999999999994 -4.3315351305750467e-14 2.2204460492503141e-16 -5.5511151231257837e-16 -1 
1 23.349999999999998 -41.349999999999994 -7.1831429693247631e-15 1 -1.1102230246251562e-16 -1.1102230246251568e-16 
1 -23.349999999999994 41.349999999999994 -4.8500092830749947e-14 -4.9303806576313249e-32 -5.5511151231257837e-16 -1 
1 -23.350000000000001 -41.350000000000001 0 -1 0 0 
1 -5.5425625842199997 -3.2000000000000002 0 0 1 0 
1 -5.5425625842199997 -3.2000000000000002 0 0.86602540378442272 -0.50000000000002764 0 
1 -5.5425625842199997 3.2000000000000002 0 0.86602540378442272 0.50000000000002764 0 
1 0 -6.4000000000000004 0 0.86602540378442272 0.50000000000002764 0 
1 0 6.4000000000000004 0 0.86602540378442272 -0.50000000000002764 0 
1 5.5425625842199997 3.2000000000000002 0 0 -1 0 
1 -23.350000000000001 41.350000000000001 0 0 -1 0 
1 23.350000000000005 41.349999999999994 1.9984014443252818e-15 -1.1102230246251562e-16 -1 -1.1102230246251568e-16 
1 -5.5425625842199979 3.2000000000000002 -1.9333708254822828e-14 -1.1102230246251563e-16 2.2204460492503136e-16 1 
1 2.1316282072803005e-15 6.3999999999999995 -1.9073631563060184e-14 -1.1102230246251563e-16 2.2204460492503136e-16 1 
1 -5.5425625842199997 -3.1999999999999993 -1.8623165519062731e-14 -1.1102230246251563e-16 2.2204460492503136e-16 1 
1 5.5425625842199997 3.1999999999999993 -1.8103012135537436e-14 -1.1102230246251563e-16 2.2204460492503136e-16 1 
1 -2.1316282072803005e-15 -6.3999999999999995 -1.7652546091539983e-14 -1.1102230246251563e-16 2.2204460492503136e-16 1 
1 5.5425625842199979 -3.2000000000000002 -1.7392469399777339e-14 -1.1102230246251563e-16 2.2204460492503136e-16 1 
Polygon3D 0
PolygonOnTriangulations 0
Surfaces 28
1 0 -41.349999999999987 -41.350000000000001 -1 0 0 0 0 -1 -0 -1 -0 
1 -41.349999999999987 -41.349999999999994 -4.5907722068250209e-15 1.2325951644078315e-32 1 -1.1102230246251568e-16 1 0 1.1102230246251568e-16 1.1102230246251568e-16 -1.1102230246251568e-16 -1 
1 -41.349999999999973 41.350000000000009 -4.5907722068250209e-15 1 -1.1102230246251568e-16 1.2325951644078315e-32 -1.1102230246251568e-16 -1 0 1.2325951644078315e-32 -1.3684555315672051e-48 -1 
1 41.349999999999987 -41.349999999999994 4.5907722068250225e-15 -1 1.1102230246251568e-16 -1.2325951644078315e-32 1.1102230246251568e-16 1 0 1.2325951644078315e-32 -1.3684555315672051e-48 -1 
1 41.350000000000001 41.350000000000009 4.5907722068250225e-15 -1.2325951644078315e-32 -1 1.1102230246251568e-16 -1 0 -1.1102230246251568e-16 1.1102230246251568e-16 -1.1102230246251568e-16 -1 
2 12.9 -12.899999999999993 12.699999999999987 1.1102230246251563e-16 1.1102230246251568e-16 1 1 1.1102230246251563e-16 -1.1102230246251564e-16 -1.1102230246251564e-16 1 -1.1102230246251568e-16 9
2 -12.899999999999997 -12.899999999999997 12.69999999999999 1.1102230246251563e-16 1.1102230246251568e-16 1 1 1.1102230246251563e-16 -1.1102230246251564e-16 -1.1102230246251564e-16 1 -1.1102230246251568e-16 9
2 -12.9 12.9 12.699999999999987 1.1102230246251563e-16 1.1102230246251568e-16 1 1 1.1102230246251563e-16 -1.1102230246251564e-16 -1.1102230246251564e-16 1 -1.1102230246251568e-16 9
2 12.899999999999997 12.900000000000004 12.699999999999983 1.1102230246251563e-16 1.1102230246251568e-16 1 1 1.1102230246251563e-16 -1.1102230246251564e-16 -1.1102230246251564e-16 1 -1.1102230246251568e-16 9
2 1.5653958587979443e-31 2.8199664825478951e-15 12.699999999999987 1.1102230246251563e-16 1.1102230246251568e-16 1 1 1.1102230246251563e-16 -1.1102230246251564e-16 -1.1102230246251564e-16 1 -1.1102230246251568e-16 3.1499999999999999
1 -41.350000000000001 -41.349999999999994 -1.3772316620475056e-14 -6.1629758220391569e-32 -1 5.5511151231257837e-16 1 0 1.1102230246251568e-16 -1.1102230246251568e-16 5.5511151231257837e-16 1 
1 0 -41.349999999999987 -41.350000000000001 -1 0 0 0 0 -1 -0 -1 -0 
1 41.350000000000001 -41.349999999999994 -4.590772206825009e-15 -6.1629758220391569e-32 -1 5.5511151231257837e-16 -1 0 -1.1102230246251568e-16 -1.1102230246251568e-16 5.5511151231257837e-16 1 
1 -41.349999999999987 41.349999999999994 -5.0498494275075229e-14 -1 1.1102230246251568e-16 -1.232595164407832e-32 -1.1102230246251568e-16 -1 4.4408920985006262e-16 3.6977854932234928e-32 4.4408920985006262e-16 1 
1 41.349999999999987 41.349999999999994 -4.1316949861425186e-14 1 1.1102230246251568e-16 2.2204460492503136e-16 1.1102230246251558e-16 -1 4.4408920985006262e-16 -2.2204460492503141e-16 4.4408920985006262e-16 1 
1 23.349999999999994 41.349999999999994 -4.3315351305750467e-14 6.1629758220391569e-32 1 -5.5511151231257837e-16 1 0 1.1102230246251568e-16 -1.1102230246251568e-16 5.5511151231257837e-16 1 
1 -23.349999999999994 41.349999999999994 -4.8500092830749947e-14 6.1629758220391569e-32 1 -5.5511151231257837e-16 -1 0 -1.1102230246251568e-16 -1.1102230246251568e-16 5.5511151231257837e-16 1 
1 -1.8718360195180135e-14 -5.5425625842199988 3.2000000000000006 -1 5.559680859162067e-31 -1.1102230246251526e-16 1.1102230246251526e-16 0 -1 -5.559680859162067e-31 -1 -6.1724856994094766e-47 
1 -9.1815444136500339e-15 -41.350000000000001 -41.350000000000001 -1 0 -4.4408920985006257e-16 4.4408920985006257e-16 0 -1 0 -1 -0 
1 -23.350000000000001 -41.349999999999994 -1.1773915176149774e-14 1 -1.1102230246251568e-16 1.232595164407832e-32 1.1102230246251568e-16 1 -4.4408920985006262e-16 3.6977854932234928e-32 4.4408920985006262e-16 1 
1 23.350000000000001 -41.349999999999994 -6.5891736511502916e-15 -1 -1.1102230246251568e-16 -2.2204460492503136e-16 -1.1102230246251558e-16 1 -4.4408920985006262e-16 -2.2204460492503141e-16 4.4408920985006262e-16 1 
1 -5.5425625842199979 3.2000000000000002 -1.9333708254822828e-14 -0.50000000000002742 0.86602540378442283 -2.4780741986961376e-16 0.86602540378442283 0.50000000000002742 4.0636983087915557e-17 1.5909636962210651e-16 -1.9428902930939939e-16 -1 
1 -5.5425625842199979 3.2000000000000002 -1.9333708254822828e-14 1 -3.3306690738754701e-16 1.110223024625157e-16 -3.3306690738754701e-16 -1 1.1102230246251564e-16 1.1102230246251565e-16 -1.1102230246251568e-16 -1 
1 2.1316282072803009e-15 6.3999999999999995 -1.9073631563060184e-14 0.50000000000002787 0.86602540378442261 -1.3678511740709197e-16 0.86602540378442261 -0.50000000000002787 1.5165928555043737e-16 6.2948235302924771e-17 -1.9428902930939939e-16 -1 
1 -5.5425625842199997 -3.1999999999999993 -1.8623165519062728e-14 0.50000000000002787 0.86602540378442261 -1.3678511740709197e-16 0.86602540378442261 -0.50000000000002787 1.5165928555043737e-16 6.2948235302924771e-17 -1.9428902930939939e-16 -1 
1 5.5425625842199979 -3.2000000000000002 -1.7392469399777339e-14 -1 3.3306690738754701e-16 -1.110223024625157e-16 3.3306690738754701e-16 1 -1.1102230246251564e-16 1.1102230246251565e-16 -1.1102230246251568e-16 -1 
1 -2.1316282072803009e-15 -6.3999999999999995 -1.7652546091539983e-14 -0.50000000000002742 0.86602540378442283 -2.4780741986961376e-16 0.86602540378442283 0.50000000000002742 4.0636983087915557e-17 1.5909636962210651e-16 -1.9428902930939939e-16 -1 
1 -9.1815444136500307e-15 41.350000000000001 -41.349999999999987 -1 1.110223024625157e-16 -5.5511151231257817e-16 5.5511151231257817e-16 1.1102230246251559e-16 -1 1.1102230246251564e-16 1 1.1102230246251565e-16 
Triangulations 0

TShapes 188
Ve
1e-07
12.7 -41.35 -41.35
0 0

0101101
*
Ve
1e-07
12.7 41.35 -41.35
0 0

0101101
*
Ed
 1e-07 1 1 0
1  1 0 0 82.7
2  1 1 15 0 82.7
2  2 2 16 0 82.7
0

0101000
+188 17 -187 17 *
Ve
1e-07
12.7 -41.3499999999999 41.35
0 0

0101101
*
Ed
 1e-07 1 1 0
1  2 0 0 82.7
2  3 1 15 0 82.7
2  4 3 16 0 82.7
0

0101000
+185 17 -188 17 *
Ve
1e-07
12.7 41.35 41.35
0 0

0101101
*
Ed
 1e-07 1 1 0
1  3 0 0 82.7
2  5 1 15 0 82.7
2  6 4 16 0 82.7
0

0101000
+187 17 -183 17 *
Ed
 1e-07 1 1 0
1  4 0 0 82.7
2  7 1 15 0 82.7
2  8 5 16 0 82.7
0

0101000
+183 17 -185 17 *
Wi

0101000
-186 14 -184 14 -182 14 -181 14 *
Ve
1e-07
12.7 21.9 -12.9
0 0

0101101
*
Ed
 1e-07 1 1 0
1  5 0 0 6.28318530717959
2  9 1 20 0 6.28318530717959
2  10 6 21 0 6.28318530717959
0

0101100
+179 22 -179 22 *
Wi

0101000
+178 19 *
Ve
1e-07
12.7 -3.9 -12.9
0 0

0101101
*
Ed
 1e-07 1 1 0
1  6 0 0 6.28318530717959
2  11 1 20 0 6.28318530717959
2  12 7 21 0 6.28318530717959
0

0101100
+176 22 -176 22 *
Wi

0101000
+175 19 *
Ve
1e-07
12.7 -3.9 12.9
0 0

0101101
*
Ed
 1e-07 1 1 0
1  7 0 0 6.28318530717959
2  13 1 20 0 6.28318530717959
2  14 8 21 0 6.28318530717959
0

0101100
+173 22 -173 22 *
Wi

0101000
+172 19 *
Ve
1e-07
12.7 21.9 12.9
0 0

0101101
*
Ed
 1e-07 1 1 0
1  8 0 0 6.28318530717959
2  15 1 20 0 6.28318530717959
2  16 9 21 0 6.28318530717959
0

0101100
+170 22 -170 22 *
Wi

0101000
+169 19 *
Ve
1e-07
12.7 3.15 5.98965321785271e-15
0 0

0101101
*
Ed
 1e-07 1 1 0
1  9 0 0 6.28318530717959
2  17 1 20 0 6.28318530717959
2  18 10 21 0 6.28318530717959
0

0101100
+167 22 -167 22 *
Wi

0101000
+166 19 *
Fa
0  1e-07 1 12

0101000
+180 0 +177 0 +174 0 +171 0 +168 0 +165 0 *
Ve
1.00000010307424e-07
-1.60677027238876e-14 -41.35 -41.35
0 0

0101101
*
Ed
 1e-07 1 1 0
1  10 0 0 12.7
2  19 2 0 0 12.7
2  20 3 0 0 12.7
0

0101000
+163 24 -188 24 *
Ve
1e-07
-1.17739151761498e-14 -23.35 -41.35
0 0

0101101
*
Ed
 1e-07 1 1 0
1  11 0 0 18
2  21 2 26 0 18
2  22 11 27 0 18
0

0101000
+163 28 -161 28 *
Ve
1e-07
-6.58917365115029e-15 23.35 -41.35
0 0

0101101
*
Ed
 1e-07 1 1 0
1  12 0 18 64.7
2  23 2 26 18 64.7
2  24 12 15 18 64.7
0

0101000
+161 28 -159 28 *
Ve
1.00000025230753e-07
6.88615831023753e-15 41.35 -41.35
0 0

0101101
*
Ed
 1e-07 1 1 0
1  13 0 0 12.7
2  25 2 0 0 12.7
2  26 4 0 0 12.7
0

0101000
+157 24 -187 24 *
Ed
 1e-07 1 1 0
1  14 0 64.7 82.7
2  27 2 26 64.7 82.7
2  28 13 30 64.7 82.7
0

0101000
+159 28 -157 28 *
Wi

0101000
+162 23 -160 25 +186 29 -158 25 -156 23 -155 25 *
Fa
0  1e-07 2 23

0101000
+154 0 *
Ve
1.00000026693725e-07
-3.44307915511876e-14 -41.35 41.35
0 0

0101101
*
Ed
 1e-07 1 1 0
1  15 0 0 12.7
2  29 3 0 0 12.7
2  30 5 0 0 12.7
0

0101000
+152 24 -185 24 *
Ed
 1e-07 1 1 0
1  16 0 0 82.7
2  31 3 26 0 82.7
2  32 14 27 0 82.7
0

0101000
+152 28 -163 28 *
Wi

0101000
+151 31 -150 32 +184 33 -162 31 *
Fa
0  1e-07 3 31

0101000
+149 0 *
Ve
1.00000030674319e-07
-1.14769305170626e-14 41.35 41.35
0 0

0101101
*
Ed
 1e-07 1 1 0
1  17 0 0 82.7
2  33 4 26 0 82.7
2  34 15 30 0 82.7
0

0101000
+157 28 -147 28 *
Ed
 1e-07 1 1 0
1  18 0 0 12.7
2  35 4 0 0 12.7
2  36 5 0 0 12.7
0

0101000
+147 24 -183 24 *
Wi

0101000
+156 23 -146 25 +182 29 -145 23 *
Fa
0  1e-07 4 23

0101000
+144 0 *
Ve
1e-07
-4.33153513057505e-14 23.35 41.35
0 0

0101101
*
Ed
 1e-07 1 1 0
1  19 0 0 18
2  37 5 26 0 18
2  38 16 30 0 18
0

0101000
+147 28 -142 28 *
Ve
1e-07
-4.85000928307499e-14 -23.35 41.35
0 0

0101101
*
Ed
 1e-07 1 1 0
1  20 0 18 64.7
2  39 5 26 18 64.7
2  40 12 15 18 64.7
0

0101000
+142 28 -140 28 *
Ed
 1e-07 1 1 0
1  21 0 64.7 82.7
2  41 5 26 64.7 82.7
2  42 17 27 64.7 82.7
0

0101000
+140 28 -152 28 *
Wi

0101000
+145 23 -141 25 +181 29 -139 25 -151 23 -138 25 *
Fa
0  1e-07 5 23

0101000
+137 0 *
Ve
2.00001e-07
-9.34807786734382e-15 21.9 -12.9
0 0

0101101
*
Ed
 1e-07 1 1 0
1  22 0 0 12.7
3  43 44CN 6 0 0 12.7
0

0101000
+179 37 -135 37 *
Ve
1e-07
-1.03472785895065e-14 12.9 -21.9
0 0

0101101
*
Ed
 1e-07 1 1 0
1  23 0 0 1.5707963267949
2  45 6 0 0 1.5707963267949
2  46 12 38 0 1.5707963267949
0

0101000
+133 37 -135 37 *
Ed
 1e-07 1 1 0
1  24 0 1.5707963267949 6.28318530717959
2  47 6 0 1.5707963267949 6.28318530717959
2  48 12 38 1.5707963267949 6.28318530717959
0

0101000
+135 37 -133 37 *
Wi

0101000
-178 36 -134 35 +132 35 +131 35 +134 35 *
Fa
0  1e-07 6 35

0101000
+130 0 *
Ve
2.00001e-07
-1.50768286744096e-14 -3.9 -12.9
0 0

0101101
*
Ed
 1e-07 1 1 0
1  25 0 0 12.7
3  49 50CN 7 0 0 12.7
0

0101000
+176 37 -128 37 *
Ve
1e-07
-1.60760293965723e-14 -12.9 -21.9
0 0

0101101
*
Ed
 1e-07 1 1 0
1  26 0 0 1.5707963267949
2  51 7 0 0 1.5707963267949
2  52 12 38 0 1.5707963267949
0

0101000
+126 37 -128 37 *
Ed
 1e-07 1 1 0
1  27 0 1.5707963267949 6.28318530717959
2  53 7 0 1.5707963267949 6.28318530717959
2  54 12 38 1.5707963267949 6.28318530717959
0

0101000
+128 37 -126 37 *
Wi

0101000
-175 36 -127 35 +125 35 +124 35 +127 35 *
Fa
0  1e-07 7 35

0101000
+123 0 *
Ve
2.00001e-07
-2.21822560320106e-14 -3.9 12.9
0 0

0101101
*
Ed
 1e-07 1 1 0
1  28 0 0 12.7
3  55 56CN 8 0 0 12.7
0

0101000
+173 37 -121 37 *
Ve
1e-07
-2.31814567541733e-14 -12.9 3.9
0 0

0101101
*
Ed
 1e-07 1 1 0
1  29 0 0 1.5707963267949
2  57 8 0 0 1.5707963267949
2  58 12 38 0 1.5707963267949
0

0101000
+119 37 -121 37 *
Ed
 1e-07 1 1 0
1  30 0 1.5707963267949 6.28318530717959
2  59 8 0 1.5707963267949 6.28318530717959
2  60 12 38 1.5707963267949 6.28318530717959
0

0101000
+121 37 -119 37 *
Wi

0101000
-172 36 -120 35 +118 35 +117 35 +120 35 *
Fa
0  1e-07 8 35

0101000
+116 0 *
Ve
2.00001e-07
-1.64535052249448e-14 21.9 12.9
0 0

0101101
*
Ed
 1e-07 1 1 0
1  31 0 0 12.7
3  61 62CN 9 0 0 12.7
0

0101000
+170 37 -114 37 *
Ve
1e-07
-1.74527059471075e-14 12.9 3.9
0 0

0101101
*
Ed
 1e-07 1 1 0
1  32 0 0 1.5707963267949
2  63 9 0 0 1.5707963267949
2  64 12 38 0 1.5707963267949
0

0101000
+112 37 -114 37 *
Ed
 1e-07 1 1 0
1  33 0 1.5707963267949 6.28318530717959
2  65 9 0 1.5707963267949 6.28318530717959
2  66 12 38 1.5707963267949 6.28318530717959
0

0101000
+114 37 -112 37 *
Wi

0101000
-169 36 -113 35 +111 35 +110 35 +113 35 *
Fa
0  1e-07 9 35

0101000
+109 0 *
Ve
2.00001e-07
9.99999999999998 3.15 4.79061235125754e-15
0 0

0101101
*
Ed
 1e-07 1 1 0
1  34 0 0 2.7
3  67 68CN 10 0 0 2.7
0

0101000
+167 37 -107 37 *
Ve
1e-07
9.99999999999998 -1.42100795286855e-15 -3.15
0 0

0101101
*
Ed
 1e-07 1 1 0
1  35 0 0 1.5707963267949
2  69 10 35 0 1.5707963267949
2  70 18 40 0 1.5707963267949
0

0101000
+105 41 -107 41 *
Ed
 1e-07 1 1 0
1  36 0 1.5707963267949 6.28318530717959
2  71 10 35 1.5707963267949 6.28318530717959
2  72 18 40 1.5707963267949 6.28318530717959
0

0101000
+107 41 -105 41 *
Wi

0101000
+106 35 -166 36 -106 35 +104 0 +103 0 *
Fa
0  1e-07 10 35

0101000
+102 0 *
Ve
1e-07
-12.7 -41.35 -41.35
0 0

0101101
*
Ed
 1e-07 1 1 0
1  37 0 0 12.7
2  73 11 0 0 12.7
2  74 14 0 0 12.7
0

0101000
+163 42 -100 42 *
Ve
1e-07
-12.7 -23.35 -41.35
0 0

0101101
*
Ed
 1e-07 1 1 0
1  38 0 0 18
2  75 11 46 0 18
2  76 19 47 0 18
0

0101000
+100 48 -98 48 *
Ed
 1e-07 1 1 0
1  39 0 0 12.7
2  77 11 0 0 12.7
2  78 20 0 0 12.7
0

0101000
+161 42 -98 42 *
Wi

0101000
+99 0 -160 32 +97 45 -96 0 *
Fa
0  1e-07 11 0

0101000
+95 0 *
Ed
 1e-07 1 1 0
1  40 0 0 82.7
2  79 12 51 0 82.7
2  80 21 52 0 82.7
0

0101000
+159 53 -142 53 *
Ed
 1e-07 1 1 0
1  41 0 0 82.7
2  81 12 55 0 82.7
2  82 20 52 0 82.7
0

0101000
+161 56 -140 56 *
Wi

0101000
-158 25 -93 50 -139 25 +92 54 *
Wi

0101000
+132 7 +131 7 *
Wi

0101000
+125 7 +124 7 *
Wi

0101000
+118 7 +117 7 *
Wi

0101000
+111 7 +110 7 *
Ve
1e-07
-1.99490563144655e-14 -5.54256258422 3.2
0 0

0101101
*
Ve
1e-07
-1.90736315630602e-14 2.8421709430404e-15 6.4
0 0

0101101
*
Ed
 1e-07 1 1 0
1  42 0 0 6.39999999999965
2  83 12 59 0 6.39999999999965
2  84 22 60 0 6.39999999999965
0

0101000
+86 61 -85 61 *
Ve
1e-07
-1.92385135787054e-14 -5.54256258422 -3.2
0 0

0101101
*
Ed
 1e-07 1 1 0
1  43 0 0 6.4
2  85 12 59 0 6.4
2  86 23 60 0 6.4
0

0101000
+86 61 -83 61 *
Ve
1e-07
-1.74876640758947e-14 5.54256258422 3.2
0 0

0101101
*
Ed
 1e-07 1 1 0
1  44 0 0 6.39999999999965
2  87 12 59 0 6.39999999999965
2  88 24 60 0 6.39999999999965
0

0101000
+85 61 -81 61 *
Ve
1e-07
-1.765254609154e-14 -2.8421709430404e-15 -6.4
0 0

0101101
*
Ed
 1e-07 1 1 0
1  45 0 0 6.39999999999965
2  89 12 59 0 6.39999999999965
2  90 25 60 0 6.39999999999965
0

0101000
+83 61 -79 61 *
Ve
1e-07
-1.67771213401346e-14 5.54256258422 -3.2
0 0

0101101
*
Ed
 1e-07 1 1 0
1  46 0 0 6.4
2  91 12 59 0 6.4
2  92 26 60 0 6.4
0

0101000
+77 61 -81 61 *
Ed
 1e-07 1 1 0
1  47 0 0 6.39999999999965
2  93 12 59 0 6.39999999999965
2  94 27 60 0 6.39999999999965
0

0101000
+79 61 -77 61 *
Wi

0101000
-84 58 +82 58 -80 58 +78 58 +76 58 +75 58 *
Fa
0  1e-07 12 49

0101000
+91 0 +90 0 +89 0 +88 0 +87 0 +74 0 *
Ve
1e-07
-12.7 41.35 -41.35
0 0

0101101
*
Ed
 1e-07 1 1 0
1  48 0 0 12.7
2  95 13 0 0 12.7
2  96 15 0 0 12.7
0

0101000
+157 62 -72 62 *
Ve
1e-07
-12.7 23.35 -41.35
0 0

0101101
*
Ed
 1e-07 1 1 0
1  49 0 0 18
2  97 13 46 0 18
2  98 28 47 0 18
0

0101000
+72 63 -70 63 *
Ed
 1e-07 1 1 0
1  50 0 0 12.7
2  99 13 0 0 12.7
2  100 21 0 0 12.7
0

0101000
+159 62 -70 62 *
Wi

0101000
+71 0 +155 25 +69 45 -68 0 *
Fa
0  1e-07 13 0

0101000
+67 0 *
Ve
1e-07
-12.7 -41.35 41.35
0 0

0101101
*
Ed
 1e-07 1 1 0
1  51 0 0 12.7
2  101 14 0 0 12.7
2  102 17 0 0 12.7
0

0101000
+152 42 -65 42 *
Ed
 1e-07 1 1 0
1  52 0 0 82.7
2  103 14 46 0 82.7
2  104 19 47 0 82.7
0

0101000
+65 48 -100 48 *
Wi

0101000
+64 0 -150 32 +63 45 -99 0 *
Fa
0  1e-07 14 0

0101000
+62 0 *
Ve
1e-07
-12.7 41.35 41.35
0 0

0101101
*
Ed
 1e-07 1 1 0
1  53 0 0 12.7
2  105 15 0 0 12.7
2  106 16 0 0 12.7
0

0101000
+147 62 -60 62 *
Ed
 1e-07 1 1 0
1  54 0 0 82.7
2  107 15 46 0 82.7
2  108 28 47 0 82.7
0

0101000
+60 63 -72 63 *
Wi

0101000
+59 0 +146 25 +58 45 -71 0 *
Fa
0  1e-07 15 0

0101000
+57 0 *
Ve
1e-07
-12.7 23.35 41.35
0 0

0101101
*
Ed
 1e-07 1 1 0
1  55 0 0 12.7
2  109 16 0 0 12.7
2  110 21 0 0 12.7
0

0101000
+142 62 -55 62 *
Ed
 1e-07 1 1 0
1  56 0 0 18
2  111 16 46 0 18
2  112 28 47 0 18
0

0101000
+55 63 -60 63 *
Wi

0101000
+54 0 +141 25 +53 45 -59 0 *
Fa
0  1e-07 16 0

0101000
+52 0 *
Ve
1e-07
-12.7 -23.35 41.35
0 0

0101101
*
Ed
 1e-07 1 1 0
1  57 0 0 12.7
2  113 17 0 0 12.7
2  114 20 0 0 12.7
0

0101000
+140 42 -50 42 *
Ed
 1e-07 1 1 0
1  58 0 0 18
2  115 17 46 0 18
2  116 19 47 0 18
0

0101000
+50 48 -65 48 *
Wi

0101000
+49 0 -138 32 +48 45 -64 0 *
Fa
0  1e-07 17 0

0101000
+47 0 *
Wi

0101000
+104 0 +103 0 *
Ve
1e-07
9.99999999999998 -5.54256258422 3.2
0 0

0101101
*
Ve
1e-07
9.99999999999998 -5.54256258422 -3.2
0 0

0101101
*
Ed
 1e-07 1 1 0
1  59 0 0 6.4
2  117 18 65 0 6.4
2  118 23 66 0 6.4
0

0101000
+44 67 -43 67 *
Ve
1e-07
9.99999999999998 1.73194791841524e-15 6.4
0 0

0101101
*
Ed
 1e-07 1 1 0
1  60 0 0 6.39999999999965
2  119 18 65 0 6.39999999999965
2  120 22 66 0 6.39999999999965
0

0101000
+44 67 -41 67 *
Ve
1e-07
9.99999999999998 -3.95239396766556e-15 -6.4
0 0

0101101
*
Ed
 1e-07 1 1 0
1  61 0 0 6.39999999999965
2  121 18 65 0 6.39999999999965
2  122 25 66 0 6.39999999999965
0

0101000
+43 67 -39 67 *
Ve
1e-07
9.99999999999998 5.54256258422 3.2
0 0

0101101
*
Ed
 1e-07 1 1 0
1  62 0 0 6.39999999999965
2  123 18 65 0 6.39999999999965
2  124 24 66 0 6.39999999999965
0

0101000
+41 67 -37 67 *
Ve
1e-07
9.99999999999998 5.54256258422 -3.2
0 0

0101101
*
Ed
 1e-07 1 1 0
1  63 0 0 6.39999999999965
2  125 18 65 0 6.39999999999965
2  126 27 66 0 6.39999999999965
0

0101000
+39 67 -35 67 *
Ed
 1e-07 1 1 0
1  64 0 0 6.4
2  127 18 65 0 6.4
2  128 26 66 0 6.4
0

0101000
+35 67 -37 67 *
Wi

0101000
-42 64 +40 64 -38 64 +36 64 -34 64 -33 64 *
Fa
0  1e-07 18 40

0101000
+45 0 +32 0 *
Ed
 1e-07 1 1 0
1  65 0 0 82.7
2  129 19 47 0 82.7
2  130 20 46 0 82.7
0

0101000
+98 48 -50 48 *
Wi

0101100
+97 0 +30 0 +48 0 +63 0 *
Fa
0  1e-07 19 0

0101000
-29 43 *
Wi

0101000
+96 0 -92 50 +30 45 -49 0 *
Fa
0  1e-07 20 0

0101000
+27 0 *
Ed
 1e-07 1 1 0
1  66 0 0 82.7
2  131 21 46 0 82.7
2  132 28 47 0 82.7
0

0101000
+70 63 -55 63 *
Wi

0101000
+68 0 -93 50 +25 45 -54 0 *
Fa
0  1e-07 21 0

0101000
+24 0 *
Ed
 1e-07 1 1 0
1  67 0 0 10
2  133 22 0 0 10
2  134 23 0 0 10
0

0101000
+86 41 -44 41 *
Ed
 1e-07 1 1 0
1  68 0 0 10
2  135 22 0 0 10
2  136 24 0 0 10
0

0101000
+85 41 -41 41 *
Wi

0101000
+22 0 -84 69 +40 64 -21 0 *
Fa
0  1e-07 22 0

0101000
+20 0 *
Ed
 1e-07 1 1 0
1  69 0 0 10
2  137 23 0 0 10
2  138 25 0 0 10
0

0101000
+83 41 -43 41 *
Wi

0101000
+22 0 -82 69 +42 64 -18 0 *
Fa
0  1e-07 23 0

0101000
+17 0 *
Ed
 1e-07 1 1 0
1  70 0 0 10
2  139 24 0 0 10
2  140 26 0 0 10
0

0101000
+81 41 -37 41 *
Wi

0101000
+21 0 -80 69 +36 64 -15 0 *
Fa
0  1e-07 24 0

0101000
+14 0 *
Ed
 1e-07 1 1 0
1  71 0 0 10
2  141 25 0 0 10
2  142 27 0 0 10
0

0101000
+79 41 -39 41 *
Wi

0101000
+18 0 -78 69 +38 64 -12 0 *
Fa
0  1e-07 25 0

0101000
+11 0 *
Ed
 1e-07 1 1 0
1  72 0 0 10
2  143 26 0 0 10
2  144 27 0 0 10
0

0101000
+77 41 -35 41 *
Wi

0101000
+9 0 -76 69 +33 64 -15 0 *
Fa
0  1e-07 26 0

0101000
+8 0 *
Wi

0101000
+12 0 -75 69 +34 64 -9 0 *
Fa
0  1e-07 27 0

0101000
+6 0 *
Wi

0101100
+69 0 +25 0 +53 0 +58 0 *
Fa
0  1e-07 28 0

0101000
-4 43 *
Sh

0101000
-164 7 -153 0 -148 6 -143 0 -136 0 -129 34 -122 34 -115 34 -108 34 -101 34 
+94 6 +73 0 -66 0 +61 6 -56 0 -51 0 +46 6 +31 34 +28 68 +26 6 
-23 0 -19 34 +16 34 -13 34 +10 34 +7 34 +5 34 -3 70 *
So

0100000
+2 0 *

+1 1 