DBRep_DrawableShape

CASCADE Topology V1, (c) Matra-Datavision
Locations 14
1
              0               0               1             100 
              1               0               0               0 
              0               1               0               0 
2  1 -1 0
1
              0               0               1             100 
              1               0               0               0 
              0               1               0               0 
1
              0 1.11022302462516e-16               1             100 
              1               0 1.11022302462516e-16               0 
1.11022302462516e-16               1               0               0 
2  3 1 4 -1 0
2  4 1 3 -1 0
2  3 -1 0
2  1 -1 4 1 3 -1 0
1
              1               0               0               0 
              0               1               0 1.99840144432528e-13 
              0               0               1            1800 
2  3 1 4 -1 9 1 0
2  9 -1 4 1 3 -1 0
2  1 -1 9 -1 4 1 3 -1 0
2  4 -1 0
2  4 -1 9 1 0
Curve2ds 36
1 0 0 1.1102230246251568e-16 -1 
1 0 0 1.1102230246251568e-16 -1 
1 249.99999999999997 0 1.1102230246251568e-16 -1 
1 0 0 1.1102230246251568e-16 -1 
1 0 0 1 0 
1 0 0 1 -1.1102230246251565e-16 
1 1.9984014443252818e-13 -1799.9999999999998 1 0 
1 0 0 1 -1.1102230246251565e-16 
1 949.99999999999989 5.9952043329758579e-15 1.1102230246251568e-16 -1 
1 0 0 1.1102230246251568e-16 -1 
1 0 0 1 0 
1 0 0 1.1102230246251565e-16 -1 
1 1.998401444325282e-13 -1799.9999999999998 1 0 
1 0 0 1.1102230246251565e-16 -1 
1 699.99999999999989 4.4337959222777431e-46 1.1102230246251568e-16 -1 
1 0 0 -1.1102230246251568e-16 -1 
1 0 0 1 0 
1 1.0547118733938987e-13 -949.99999999999989 1 -1.1102230246251565e-16 
1 1.9984014443252818e-13 -1799.9999999999998 1 0 
1 1.0547118733938988e-13 -949.99999999999989 1 -1.1102230246251565e-16 
1 639.99999999999989 0 1.1102230246251568e-16 -1 
1 496.58836071740552 5.1070259132757264e-15 -1.4755625669398027e-16 -1 
1 0 0 1 0 
1 249.99999999999997 -2.775557561562891e-14 1.1102230246251565e-16 -1 
1 1.998401444325282e-13 -1799.9999999999998 1 0 
1 249.99999999999997 -2.7755575615628914e-14 1.1102230246251565e-16 -1 
1 100 -1.1102230246251569e-14 -1.1102230246251568e-16 -1 
1 -0 0 -1.4755625669398027e-16 -1 
1 0 0 1 0 
1 700 -950 -1.1102230246251565e-16 1 
1 -1.998401444325282e-13 -1799.9999999999998 1 0 
1 700 -950 -1.1102230246251565e-16 1 
1 -0 0 1 1.2325951644078307e-32 
1 700 -850 -0.90618313999526545 0.42288546533112398 
1 -2.9055168363560107e-13 -1799.9999999999998 1 1.2325951644078307e-32 
1 700 -850 -0.90618313999526545 0.42288546533112398 
Curves 18
1 0 0 0 0 1.1102230246251568e-16 1 
1 2.7755575615628914e-14 249.99999999999997 0 0 1.1102230246251568e-16 1 
1 0 0 0 0 1 0 
1 0 0 0 0 1 0 
1 949.99999999999989 0 9.9475983006414026e-14 0 1.1102230246251568e-16 1 
1 0 0 0 1 0 0 
1 0 0 0 1 0 0 
1 950 699.99999999999989 9.9475983006414026e-14 0 1.1102230246251568e-16 1 
1 950 0 0 0 1 0 
1 950 0 0 0 1 0 
1 639.99999999999989 249.99999999999997 7.1054273576010019e-14 0 1.1102230246251568e-16 1 
1 0 250 0 1 0 0 
1 0 250 0 1 0 0 
1 850 699.99999999999989 9.9475983006414026e-14 0 1.1102230246251568e-16 1 
1 950 700 0 -1 0 0 
1 950 700 0 -1 0 0 
1 850 700 0 -0.42288546533112387 -0.90618313999526545 0 
1 850 700 0 -0.42288546533112387 -0.90618313999526545 0 
Polygon3D 0
PolygonOnTriangulations 0
Surfaces 8
1 0 0 0 -1 1.1102230246251568e-16 -1.2325951644078315e-32 1.1102230246251568e-16 1 0 1.2325951644078315e-32 -1.3684555315672051e-48 -1 
1 0 0 0 1.2325951644078315e-32 1 -1.1102230246251568e-16 1 0 1.1102230246251568e-16 1.1102230246251568e-16 -1.1102230246251568e-16 -1 
1 2.7755575615628914e-14 249.99999999999997 0 1.2325951644078315e-32 1 -1.1102230246251568e-16 1 0 1.1102230246251568e-16 1.1102230246251568e-16 -1.1102230246251568e-16 -1 
1 100 0 0 1 0 0 -0 0 1 0 -1 0 
1 100 0 0 1 0 0 -0 0 1 0 -1 0 
1 949.99999999999989 0 1.0547118733938987e-13 -1 1.1102230246251568e-16 -1.2325951644078315e-32 1.1102230246251568e-16 1 0 1.2325951644078315e-32 -1.3684555315672051e-48 -1 
1 950 699.99999999999989 1.0547118733938987e-13 -1.2325951644078315e-32 -1 1.1102230246251568e-16 -1 0 -1.1102230246251568e-16 1.1102230246251568e-16 -1.1102230246251568e-16 -1 
1 850 699.99999999999989 9.4368957093138306e-14 0.90618313999526545 -0.42288546533112398 4.6949718038993736e-17 -0.42288546533112398 -0.90618313999526545 -4.6949718038993687e-17 6.2399396274552592e-17 2.2690689554382718e-17 -1 
Triangulations 0

TShapes 48
Ve
1e-07
100 0 0
0 0

0101101
*
Ve
1e-07
1900 0 1.99840144432528e-13
0 0

0101101
*
Ed
 1e-07 1 1 0
1  1 0 0 1800
2  1 1 0 0 1800
2  2 2 0 0 1800
0

0101000
+48 2 -47 2 *
Ve
1e-07
100 2.77555756156289e-14 250
0 0

0101101
*
Ve
1e-07
1900 2.77555756156289e-14 250
0 0

0101101
*
Ed
 1e-07 1 1 0
1  2 0 0 1800
2  3 1 0 0 1800
2  4 3 0 0 1800
0

0101000
+45 2 -44 2 *
Ed
 1e-07 1 1 0
1  3 0 0 250
2  5 1 6 0 250
2  6 4 7 0 250
0

0101000
+48 8 -45 8 *
Ed
 1e-07 1 1 0
1  4 0 0 250
2  7 1 11 0 250
2  8 5 7 0 250
0

0101000
+47 12 -44 12 *
Wi

0101000
+46 0 -43 0 -42 5 +41 10 *
Fa
0  1e-07 1 0

0101000
+40 0 *
Ve
1e-07
100 950 0
0 0

0101101
*
Ve
1e-07
1900 950 1.99840144432528e-13
0 0

0101101
*
Ed
 1e-07 1 1 0
1  5 0 0 1800
2  9 2 0 0 1800
2  10 6 0 0 1800
0

0101000
+38 2 -37 2 *
Ed
 1e-07 1 1 0
1  6 0 0 950
2  11 2 6 0 950
2  12 4 7 0 950
0

0101000
+48 8 -38 8 *
Ed
 1e-07 1 1 0
1  7 0 0 950
2  13 2 11 0 950
2  14 5 7 0 950
0

0101000
+47 12 -37 12 *
Wi

0101000
+46 0 -36 0 -35 5 +34 10 *
Fa
0  1e-07 2 0

0101000
+33 0 *
Ve
1e-07
100 950 700
0 0

0101101
*
Ve
1e-07
1900 950 700
0 0

0101101
*
Ed
 1e-07 1 1 0
1  8 0 0 1800
2  15 6 0 0 1800
2  16 7 0 0 1800
0

0101000
+31 2 -30 2 *
Ed
 1e-07 1 1 0
1  9 0 0 700
2  17 6 6 0 700
2  18 4 7 0 700
0

0101000
+38 8 -31 8 *
Ed
 1e-07 1 1 0
1  10 0 0 700
2  19 6 11 0 700
2  20 5 7 0 700
0

0101000
+37 12 -30 12 *
Wi

0101000
+36 0 -29 0 -28 5 +27 10 *
Fa
0  1e-07 6 0

0101000
+26 0 *
Ve
1e-07
100 640 250
0 0

0101101
*
Ve
1e-07
1900 640 250
0 0

0101101
*
Ed
 1e-07 1 1 0
1  11 0 0 1800
2  21 3 0 0 1800
2  22 8 0 0 1800
0

0101000
+24 2 -23 2 *
Ed
 1e-07 1 1 0
1  12 0 0 640
2  23 3 6 0 640
2  24 4 7 0 640
0

0101000
+45 8 -24 8 *
Ed
 1e-07 1 1 0
1  13 0 0 640
2  25 3 11 0 640
2  26 5 7 0 640
0

0101000
+44 12 -23 12 *
Wi

0101000
+43 0 -22 0 -21 5 +20 10 *
Fa
0  1e-07 3 0

0101000
+19 0 *
Ve
1e-07
100 850 700
0 0

0101101
*
Ve
1e-07
1900 850 700
0 0

0101101
*
Ed
 1e-07 1 1 0
1  14 0 0 1800
2  27 7 0 0 1800
2  28 8 0 0 1800
0

0101000
+17 2 -16 2 *
Ed
 1e-07 1 1 0
1  15 0 0 100
2  29 7 6 0 100
2  30 4 7 0 100
0

0101000
+31 8 -17 8 *
Ed
 1e-07 1 1 0
1  16 0 0 100
2  31 7 11 0 100
2  32 5 7 0 100
0

0101000
+30 12 -16 12 *
Wi

0101000
+29 0 -15 0 -14 5 +13 10 *
Fa
0  1e-07 7 0

0101000
+12 0 *
Ed
 1e-07 1 1 0
1  17 0 0 496.588360717405
2  33 8 6 0 496.588360717405
2  34 4 7 0 496.588360717405
0

0101000
+17 8 -24 8 *
Ed
 1e-07 1 1 0
1  18 0 0 496.588360717405
2  35 8 11 0 496.588360717405
2  36 5 7 0 496.588360717405
0

0101000
+16 12 -23 12 *
Wi

0101000
+15 0 -22 0 -10 5 +9 10 *
Fa
0  1e-07 8 0

0101000
+8 0 *
Wi

0101100
+42 0 -35 0 -28 0 +21 0 -14 0 -10 0 *
Fa
0  1e-07 4 0

0101000
-6 3 *
Wi

0101100
+41 0 -34 0 -27 0 +20 0 -13 0 -9 0 *
Fa
0  1e-07 5 0

0101000
-4 3 *
Sh

0101000
-39 0 +32 0 +25 0 -18 0 +11 0 +7 0 +5 13 -3 14 *
So

1100000
-2 0 *

+1 1 