DBRep_DrawableShape

CASCADE Topology V1, (c) Matra-Datavision
Locations 10
1
              1               0               0               0 
              0              -1               0              -0 
              0               0              -1              -3 
1
              1               0               0               0 
              0               1               0               0 
              0               0               1               0 
2  1 1 2 -1 0
2  2 1 1 -1 0
2  1 -1 0
1
              1               0               0               0 
              0               1               0               0 
              0               0               1             -18 
2  1 1 2 -1 6 1 0
2  6 -1 2 1 1 -1 0
2  2 -1 0
2  2 -1 6 1 0
Curve2ds 48
1 4.7123889803846897 0 0 -1 
1 1167.9956000000116 0 0 -1 
1 6.2831853071792843 0 0 -1 
1 404 0 0 -1 
1 0 0 1 0 
2 0 -19 1 0 0 -1 19
1 0 -18 1 0 
2 0 -19 1 0 0 -1 19
1 0 0 0 -1 
1 4.7126205593332218 0 0 -1 
1 0 0 1 0 
1 -1167.9956000000116 0 1 0 
1 0 -18 1 0 
1 -1167.9956000000116 0 1 0 
1 3.1415926267756906 0 0 -1 
1 0 0 0 -1 
1 0 0 1 0 
2 -1167.9999999999943 -18.999999490526307 1 0 0 -1 19
1 0 -18 1 0 
2 -1167.9999999999943 -18.999999490526307 1 0 0 -1 19
1 404 0 0 -1 
1 3.1415926535897931 0 0 -1 
1 0 0 1 0 
1 -1186.9999999999943 -18.999999999994259 0 -1 
1 0 -18 1 0 
1 -1186.9999999999943 -18.999999999994259 0 -1 
1 1.5707963267951988 0 0 -1 
1 0 0 0 -1 
1 0 0 1 0 
2 -1167.9999999999943 -422.99999999999426 1 0 0 -1 19
1 0 -18 1 0 
2 -1167.9999999999943 -422.99999999999426 1 0 0 -1 19
1 1168 0 0 -1 
1 1.5707963267948966 0 0 -1 
1 0 0 1 0 
1 -1168 -441.99999999999426 1 0 
1 0 -18 1 0 
1 -1168 -441.99999999999426 1 0 
1 0 0 0 -1 
1 0 0 0 -1 
1 0 0 1 0 
2 0 -422.99999999999426 1 0 0 -1 19
1 0 -18 1 0 
2 0 -422.99999999999426 1 0 0 -1 19
1 0 0 1 0 
1 19 -422.99999999999426 0 1 
1 0 -18 1 0 
1 19 -422.99999999999426 0 1 
Curves 24
1 1200 454.99999999999426 -3 0 0 -1 
1 1219 436 -3 0 0 -1 
2 1200 -435.99999999999426 0 0 0 1 1 0 -0 -0 1 0 19
2 1200 -435.99999999999426 0 0 0 1 1 0 -0 -0 1 0 19
1 32.004399999988514 454.99999999999426 -3 0 0 -1 
1 32.004399999988514 -454.99999999999426 0 1 0 0 
1 32.004399999988514 -454.99999999999426 0 1 0 0 
1 13.000000000005741 436 -3 0 0 -1 
2 32.000000000005734 -436.00000050946795 0 0 0 1 1 0 -0 -0 1 0 19
2 32.000000000005734 -436.00000050946795 0 0 0 1 1 0 -0 -0 1 0 19
1 13.000000000005741 32 -3 0 0 -1 
1 13.000000000005741 -436 0 0 1 0 
1 13.000000000005741 -436 0 0 1 0 
1 32 13 -3 0 0 -1 
2 32.000000000005741 -32 0 0 0 1 1 0 -0 -0 1 0 19
2 32.000000000005741 -32 0 0 0 1 1 0 -0 -0 1 0 19
1 1200 13 -3 0 0 -1 
1 32 -13 0 1 0 0 
1 32 -13 0 1 0 0 
1 1219 32 -3 0 0 -1 
2 1200 -32 0 0 0 1 1 0 -0 -0 1 0 19
2 1200 -32 0 0 0 1 1 0 -0 -0 1 0 19
1 1219 -32 0 0 -1 0 
1 1219 -32 0 0 -1 0 
Polygon3D 0
PolygonOnTriangulations 0
Surfaces 10
2 1200 435.99999999999426 -3 -0 -0 1 1 0 0 0 -1 -0 19
1 32.004399999988514 454.99999999999426 -3 0 -1 0 1 0 0 -0 0 1 
1 1219 32 -3 1 -0 0 0 1 0 -0 0 1 
1 1200 454.99999999999426 -3 0 0 1 1 0 -0 -0 1 0 
1 1200 454.99999999999426 -3 0 0 1 1 0 -0 -0 1 0 
2 32.000000000005734 436.00000050946795 -3 -0 -0 1 1 0 0 0 -1 -0 19
1 13.000000000005741 436 -3 -1 -0 -0 0 -1 0 -0 0 1 
2 32.000000000005741 32 -3 -0 -0 1 1 0 0 0 -1 -0 19
1 32 13 -3 0 -1 0 1 0 0 -0 0 1 
2 1200 32 -3 -0 -0 1 1 0 0 0 -1 -0 19
Triangulations 0

TShapes 62
Ve
1e-07
1200 454.999999999994 -3
0 0

0101101
*
Ve
1e-07
1200 454.999999999994 -21
0 0

0101101
*
Ed
 1e-07 1 1 0
1  1 0 0 18
2  1 1 0 0 18
2  2 2 0 0 18
4 G1 1 0 2 0
0

0101000
+62 0 -61 0 *
Ve
1e-07
1219 436 -3
0 0

0101101
*
Ve
1e-07
1219 436 -21
0 0

0101101
*
Ed
 1e-07 1 1 0
1  2 0 0 18
2  3 1 0 0 18
2  4 3 0 0 18
4 G1 1 0 3 0
0

0101000
+59 0 -58 0 *
Ed
 1e-07 1 1 0
1  3 0 4.71238898038469 6.28318530717928
2  5 1 4 4.71238898038469 6.28318530717928
2  6 4 5 4.71238898038469 6.28318530717928
0

0101000
+62 4 -59 4 *
Ed
 1e-07 1 1 0
1  4 0 4.71238898038469 6.28318530717928
2  7 1 8 4.71238898038469 6.28318530717928
2  8 5 5 4.71238898038469 6.28318530717928
0

0101000
+61 8 -58 8 *
Wi

0101000
+60 0 -57 0 -56 3 +55 7 *
Fa
0  1e-07 1 0

0101000
+54 0 *
Ve
1e-07
32.0043999999885 454.999999999994 -3
0 0

0101101
*
Ve
1e-07
32.0043999999885 454.999999999994 -21
0 0

0101101
*
Ed
 1e-07 1 1 0
1  5 0 0 18
2  9 2 0 0 18
2  10 6 0 0 18
4 G1 2 0 6 0
0

0101000
+52 0 -51 0 *
Ed
 1e-07 1 1 0
1  6 0 0 1167.99560000001
2  11 2 4 0 1167.99560000001
2  12 4 5 0 1167.99560000001
0

0101000
+52 4 -62 4 *
Ed
 1e-07 1 1 0
1  7 0 0 1167.99560000001
2  13 2 8 0 1167.99560000001
2  14 5 5 0 1167.99560000001
0

0101000
+51 8 -61 8 *
Wi

0101000
+50 0 -60 0 -49 3 +48 7 *
Fa
0  1e-07 2 0

0101000
+47 0 *
Ve
1e-07
13.0000000000057 436 -3
0 0

0101101
*
Ve
1e-07
13.0000000000057 436 -21
0 0

0101101
*
Ed
 1e-07 1 1 0
1  8 0 0 18
2  15 6 0 0 18
2  16 7 0 0 18
4 G1 6 0 7 0
0

0101000
+45 0 -44 0 *
Ed
 1e-07 1 1 0
1  9 0 3.14159262677569 4.71262055933322
2  17 6 4 3.14159262677569 4.71262055933322
2  18 4 5 3.14159262677569 4.71262055933322
0

0101000
+45 4 -52 4 *
Ed
 1e-07 1 1 0
1  10 0 3.14159262677569 4.71262055933322
2  19 6 8 3.14159262677569 4.71262055933322
2  20 5 5 3.14159262677569 4.71262055933322
0

0101000
+44 8 -51 8 *
Wi

0101000
+43 0 -50 0 -42 3 +41 7 *
Fa
0  1e-07 6 0

0101000
+40 0 *
Ve
1.00000001776357e-07
13.0000000000057 32 -3
0 0

0101101
*
Ve
1.00000001776357e-07
13.0000000000057 32 -21
0 0

0101101
*
Ed
 1.00000001776357e-07 1 1 0
1  11 0 0 18
2  21 7 0 0 18
2  22 8 0 0 18
4 G1 7 0 8 0
0

0101000
+38 0 -37 0 *
Ed
 1e-07 1 1 0
1  12 0 0 404
2  23 7 4 0 404
2  24 4 5 0 404
0

0101000
+45 4 -38 4 *
Ed
 1e-07 1 1 0
1  13 0 0 404
2  25 7 8 0 404
2  26 5 5 0 404
0

0101000
+44 8 -37 8 *
Wi

0101000
+43 0 -36 0 -35 3 +34 7 *
Fa
0  1e-07 7 0

0101000
+33 0 *
Ve
1e-07
32 13 -3
0 0

0101101
*
Ve
1e-07
32 13 -21
0 0

0101101
*
Ed
 1e-07 1 1 0
1  14 0 0 18
2  27 8 0 0 18
2  28 9 0 0 18
4 G1 8 0 9 0
0

0101000
+31 0 -30 0 *
Ed
 1e-07 1 1 0
1  15 0 1.5707963267952 3.14159265358979
2  29 8 4 1.5707963267952 3.14159265358979
2  30 4 5 1.5707963267952 3.14159265358979
0

0101000
+31 4 -38 4 *
Ed
 1e-07 1 1 0
1  16 0 1.5707963267952 3.14159265358979
2  31 8 8 1.5707963267952 3.14159265358979
2  32 5 5 1.5707963267952 3.14159265358979
0

0101000
+30 8 -37 8 *
Wi

0101000
+29 0 -36 0 -28 3 +27 7 *
Fa
0  1e-07 8 0

0101000
+26 0 *
Ve
1e-07
1200 13 -3
0 0

0101101
*
Ve
1e-07
1200 13 -21
0 0

0101101
*
Ed
 1e-07 1 1 0
1  17 0 0 18
2  33 9 0 0 18
2  34 10 0 0 18
4 G1 9 0 10 0
0

0101000
+24 0 -23 0 *
Ed
 1e-07 1 1 0
1  18 0 0 1168
2  35 9 4 0 1168
2  36 4 5 0 1168
0

0101000
+31 4 -24 4 *
Ed
 1e-07 1 1 0
1  19 0 0 1168
2  37 9 8 0 1168
2  38 5 5 0 1168
0

0101000
+30 8 -23 8 *
Wi

0101000
+29 0 -22 0 -21 3 +20 7 *
Fa
0  1e-07 9 0

0101000
+19 0 *
Ve
1e-07
1219 32 -3
0 0

0101101
*
Ve
1e-07
1219 32 -21
0 0

0101101
*
Ed
 1e-07 1 1 0
1  20 0 0 18
2  39 10 0 0 18
2  40 3 0 0 18
4 G1 10 0 3 0
0

0101000
+17 0 -16 0 *
Ed
 1e-07 1 1 0
1  21 0 0 1.5707963267949
2  41 10 4 0 1.5707963267949
2  42 4 5 0 1.5707963267949
0

0101000
+17 4 -24 4 *
Ed
 1e-07 1 1 0
1  22 0 0 1.5707963267949
2  43 10 8 0 1.5707963267949
2  44 5 5 0 1.5707963267949
0

0101000
+16 8 -23 8 *
Wi

0101000
+15 0 -22 0 -14 3 +13 7 *
Fa
0  1e-07 10 0

0101000
+12 0 *
Ed
 1e-07 1 1 0
1  23 0 0 404
2  45 3 4 0 404
2  46 4 5 0 404
0

0101000
+17 4 -59 4 *
Ed
 1e-07 1 1 0
1  24 0 0 404
2  47 3 8 0 404
2  48 5 5 0 404
0

0101000
+16 8 -58 8 *
Wi

0101000
+15 0 -57 0 -10 3 +9 7 *
Fa
0  1e-07 3 0

0101000
+8 0 *
Wi

0101100
-56 1 -49 1 -42 1 +35 1 -28 1 +21 1 -14 1 +10 1 *
Fa
0  1e-07 4 0

0101000
+6 0 *
Wi

0101100
-55 1 -48 1 -41 1 +34 1 -27 1 +20 1 -13 1 +9 1 *
Fa
0  1e-07 5 0

0101000
+4 0 *
Sh

0101000
-53 0 -46 0 -39 0 +32 0 -25 0 +18 0 -11 0 +7 0 +5 9 -3 10 
*
So

1100000
+2 0 *

+1 0 