DBRep_DrawableShape

CASCADE Topology V1, (c) Matra-Datavision
Locations 21
1
              1               0               0              -0 
              0 1.77321265310004e-16              -1            6300 
              0               1 1.77321265310004e-16              -0 
1
              1               0               0               0 
              0               1               0            -100 
              0               0               1               0 
1
              1               0               0              -0 
              0               1               0             200 
              0               0               1              -0 
2  1 1 2 1 3 1 0
2  3 -1 2 -1 1 -1 0
1
              1               0               0               0 
              0               1               0               0 
              0               0               1            2400 
2  6 -1 0
1
              0               0               1            3950 
              1               0               0              -0 
              0               1               0              -0 
1
              1               0               0             100 
              0               1               0               0 
              0               0               1               0 
1
              1               0               0            -200 
              0               1               0              -0 
              0               0               1              -0 
2  8 1 9 1 10 1 0
2  10 -1 9 -1 8 -1 0
1
              1               0               0               0 
              0               1               0               0 
              0               0               1            2400 
2  13 -1 0
1
              1               0               0               0 
              0               1               0               0 
              0               0               1            2400 
2  15 -1 0
1
              1               0               0              -0 
              0 1.77321265310004e-16              -1            3800 
              0               1 1.77321265310004e-16              -0 
1
              1               0               0               0 
              0               1               0            -100 
              0               0               1 2.16546357564983e-14 
1
              1               0               0              -0 
              0               1               0             200 
              0               0               1 -4.33092715129966e-14 
2  17 1 18 1 19 1 0
2  19 -1 18 -1 17 -1 0
Curve2ds 150
8 -2400 0
1 600 0 0 1 
8 -2400 0
1 50 0 -0 1 
1 0 -0 1 0 
1 0 1680 1 0 
1 1600 -2100 0 1 
1 -3.54642530620008e-14 -200 1 0 
1 2420 -2100 -1 -0 
1 0 -200 1 0 
1 2420 0 0 -1 
1 3.54642530620008e-14 -200 1 0 
1 0 -0 1 0 
1 0 6150 1 0 
1 3700 0 0 -1 
1 0 0 0 -1 
1 0 -2400 1 0 
1 0 6150 1 0 
1 100 0 0 -1 
1 3600 0 0 -1 
1 0 0 1 0 
1 3700 6150 -0 -1 
1 0 -2400 1 0 
1 3700 6150 -0 -1 
8 0 2100
1 2320 0 0 -1 
8 0 2100
1 1.77321265310004e-14 -100 1 1.77321265310004e-16 
1 0 -0 1 0 
1 100 6050 1 0 
1 0 -2400 1 0 
1 100 6050 1 0 
1 0 -0 0 -1 
1 6050 0 0 -1 
1 0 -0 1 0 
1 100 1580 1 0 
8 -1050 1050
1 1500 -1050 -0 1 
8 -1050 1050
1 1050 -100.00000000000018 1 -1.77321265310004e-16 
8 -1160 -340
1 1160 -2100 -1 -0 
8 -1160 -340
1 1160 -100 1 0 
1 0 0 1 0 
1 100 -4470 0 1 
1 0 -2400 1 0 
1 100 0 0 1 
8 0 2400
1 3650 0 0 -1 
1 1264.7560975609756 1434.268292682927 -1 -1.4768765659737677e-33 
1 3650 -2100 1 0 
1 0 -200 1 0 
1 4470 -2100 0 1 
1 0 -200 1 0 
1 0 -0 0 -1 
1 0 0 0 -1 
1 100 0 0 -1 
1 0 0 0 -1 
1 0 -0 1 0 
1 0 0 1 0 
1 0 -2400 1 0 
1 0 0 1 0 
8 -1050 1050
1 4470 -1050 0 -1 
8 -1050 1050
1 1050 -100 -1 0 
1 0 0 1 0 
1 -0 -4470 0 1 
1 6150 0 0 -1 
1 0 -0 0 -1 
1 0 -2400 1 0 
1 0 0 0 1 
1 0 0 1 0 
1 0 0 0 1 
8 -2100 0
1 3650 0 0 1 
1 1264.7560975609756 1534.268292682927 1 1.4768765659737677e-33 
8 -2645 -1825
1 1825 -2100 -1 0 
8 -2645 -1825
1 -1825 -100 -1 0 
8 0 2400
1 3550 0 0 -1 
8 0 2400
1 50 0 0 -1 
1 0 -2400 1 0 
1 100 0 0 1 
1 0 0 1 0 
1 100 0 0 1 
1 2100 0 0 -1 
1 -100 0 1 0 
1 0 0 0 -1 
1 820 0 0 -1 
1 0 -2400 1 0 
1 0 6150 1 0 
1 0 -0 1 0 
1 0 1680 1 0 
8 -2400 0
1 500 0 0 1 
8 -2400 0
1 50 0 -0 1 
1 0 0 0 -1 
1 -835.2439024390244 1634.268292682927 5.7213869575411063e-50 -1 
8 -1.0827317878249145e-14 2100
1 970 -1.0827317878249145e-14 0 -1 
8 -1.0827317878249145e-14 2100
1 6.9048086527512555e-15 -100 1 1.77321265310004e-16 
1 0 -0 1 0 
1 0 -100 1 0 
1 3650 0 0 -1 
1 100 0 0 -1 
1 0 -2400 1 0 
1 50 3550 1 0 
1 0 -0 1 0 
1 50 3550 1 0 
8 -1050 1050
1 150 -1050 -0 1 
8 -1050 1050
1 1050 -99.99999999999973 1 -1.77321265310004e-16 
8 -485 335
1 485 -2100 -1 -0 
8 -485 335
1 485 -99.999999999999545 1 0 
1 2100 -3.7237465715100842e-13 -1.77321265310004e-16 -1 
1 1600 1480 0 1 
1 0 0 -1.77321265310004e-16 -1 
1 820 0 0 -1 
1 0 0 1 0 
1 500 1630 0 1 
1 1200 0 0 -1 
1 0 -0 0 -1 
1 0 -2400 1 0 
1 500 6100 0 1 
1 2100 3.7237465715100842e-13 -3.922509225497891e-17 -1 
1 0 4.5474735088646412e-13 0 -1 
1 -7.8450184509957792e-15 -200 1 0 
1 1264.7560975609756 514.26829268292704 -1 3.5766023463747628e-33 
1 0 0 -3.922509225497891e-17 -1 
1 970 -200 0 1 
1 0 0 1 0 
1 1264.7560975609756 1484.268292682927 5.7213869575411063e-50 -1 
1 3650 0 0 -1 
1 0 0 1 0 
1 0 0 0 -1 
1 1264.7560975609756 -2165.731707317073 -1 -1.4768765659737677e-33 
1 0 -2400 1 0 
1 3700 3650 -0 -1 
1 2100 8.2372693735455711e-14 3.922509225497891e-17 -1 
1 200 3450 0 1 
1 -3.54642530620008e-14 -200 1 0 
1 -835.2439024390244 1334.268292682927 1 -3.5766023463747628e-33 
1 8.0636375655560188e-29 4.5474735088646412e-13 3.922509225497891e-17 -1 
1 820 4.5474735088646412e-13 0 -1 
1 0 -200 1 0 
1 -835.2439024390244 514.26829268292704 -5.7213869575411063e-50 1 
1 0 0 1 0 
1 600 1630 0 1 
1 1200 0 0 -1 
1 100 0 0 -1 
1 0 -2400 1 0 
1 600 6100 0 1 
1 0 0 0 -1 
1 2100 3.7237465715100842e-13 1.77321265310004e-16 -1 
1 0 0 1.77321265310004e-16 -1 
1 2420 5950 0 1 
1 0 -0 1 0 
1 500 2830 1 0 
1 0 -2400 1 0 
1 500 7300 1 0 
1 50 3650 1 0 
1 1264.7560975609756 1484.268292682927 5.7213869575411063e-50 -1 
1 50 3650 1 0 
1 -1135.2439024390244 1484.268292682927 5.7213869575411063e-50 -1 
Curves 75
1 3350 6400 0 -0 -0 -1 
1 3950 6400 0 -1 0 0 
1 2350 2100 0 0 -1 0 
1 1530 2100 0 1 0 0 
1 1530 0 0 0 1 0 
1 3950 6400 0 -1 0 0 
1 250 6400 0 0 0 1 
1 3950 6400 0 -1 0 0 
1 250 6300 0 0 0 1 
1 250 6400 0 0 -1 0 
1 250 6400 0 0 -1 0 
1 1530 6300 0 0 0 1 
1 3850 6300 0 -1 0 0 
1 3850 6300 0 -1 0 0 
1 3850 6300 0 0 0 1 
1 3850 6300 0 -1 0 0 
1 2350 6300 1050 0 -0 -1 
1 2690 6300 2100 1 0 0 
1 3850 250 0 0 1 0 
1 3850 250 0 0 1 0 
1 3850 3900 0 0 0 1 
1 3900 2100 0 1 0 0 
1 4720 2100 0 0 -1 0 
1 3950 250 0 0 0 1 
1 3850 250 0 0 0 1 
1 3950 250 0 -1 0 0 
1 3950 250 0 -1 0 0 
1 3950 4720 1050 0 0 1 
1 3950 250 0 0 1 0 
1 3950 6400 0 0 0 1 
1 3950 250 0 0 1 0 
1 3950 250 0 0 1 0 
1 3950 3900 0 0 0 -1 
1 3950 2075 2100 -0 -1 -0 
1 3850 3800 0 0 0 1 
1 3850 250 0 0 1 0 
1 3850 250 0 0 1 0 
1 4050 4720 0 -1 -0 -0 
1 4050 4720 2100 -1 -0 -0 
1 3950 6400 0 -1 0 0 
1 3950 6400 0 -1 0 0 
1 3450 6400 0 -0 -0 -1 
1 4050 3900 2100 -1 -0 -0 
1 2930 3800 1.0827317878249145e-14 0 0 1 
1 3900 3800 0 -1 0 0 
1 250 3800 0 0 0 1 
1 3900 3800 0 -1 0 0 
1 3900 3800 0 -1 0 0 
1 3750 3800 1050 0 -0 -1 
1 3415 3800 2100 1 0 0 
1 2350 6200 0 -0 1 -0 
1 2350 6200 2100 -0 1 -0 
1 3450 6350 0 0 1 0 
1 3450 7550 0 0 0 1 
1 3450 6350 0 0 1 0 
1 2930 3700 2100 -0 1 -2.1654635756498291e-16 
1 2930 0 0 0 1 0 
1 2930 3700 2.165463575649829e-14 -0 1 -2.1654635756498291e-16 
1 3900 3900 0 -1 0 0 
1 250 3900 0 0 -1 0 
1 250 3900 0 0 0 1 
1 250 3900 0 0 -1 0 
1 3750 3700 2.165463575649829e-14 -0 1 -2.1654635756498291e-16 
1 3750 2100 0 0 -1 0 
1 3750 3700 2100 -0 1 -2.1654635756498291e-16 
1 2930 2100 0 1 0 0 
1 3350 6350 0 0 1 0 
1 3350 7550 0 0 0 1 
1 3350 6350 0 0 1 0 
1 1530 6200 2100 -0 1 -0 
1 1530 6200 0 -0 1 -0 
1 3450 7550 0 -1 0 0 
1 3450 7550 0 -1 0 0 
1 3900 3900 0 -1 0 0 
1 3900 3900 0 -1 0 0 
Polygon3D 0
PolygonOnTriangulations 0
Surfaces 27
1 3950 6400 0 0 -1 0 -1 0 0 -0 -0 -1 
1 3350 6350 0 -1 0 0 0 1 0 0 0 -1 
1 3950 4720 0 0 0 -1 -1 0 -0 0 1 0 
1 2350 6200 2100 -1 -0 0 0 -1.77321265310004e-16 -1 0 -1 1.77321265310004e-16 
1 1530 6200 2100 0 0 -1 1 0 0 0 -1 0 
1 1530 6200 0 1 0 -0 0 1.77321265310004e-16 1 0 -1 1.77321265310004e-16 
1 3950 250 0 0 0 -1 -1 0 -0 0 1 0 
1 250 6400 0 1 0 -0 0 -1 0 0 -0 -1 
1 3950 250 2400 0 0 -1 -1 0 -0 0 1 0 
1 3850 6300 0 0 -1 0 -1 0 0 -0 -0 -1 
1 3850 250 0 -1 0 0 0 1 0 0 0 -1 
1 2415.731707317073 3900 1264.7560975609756 2.8499000971562695e-17 -1 5.1822046935871439e-17 0 -5.1822046935871439e-17 -1 1 2.8499000971562695e-17 -1.4768765659737677e-33 
1 4050 3900 2100 0 0 -1 0 1 0 1 -0 0 
1 4050 4720 2100 0 -1 0 0 0 -1 1 0 0 
1 3950 250 0 0 -1 0 -1 0 0 -0 -0 -1 
1 3950 250 0 -1 0 0 0 1 0 0 0 -1 
1 3850 250 0 -1 0 0 0 1 0 0 0 -1 
1 3950 250 0 0 0 -1 -1 0 -0 0 1 0 
1 3950 6400 0 0 -1 0 -1 0 0 -0 -0 -1 
1 3900 3800 0 0 -1 0 -1 0 0 -0 -0 -1 
1 3450 6350 0 -1 0 0 0 1 0 0 0 -1 
1 2930 3700 2.165463575649829e-14 1 0 -0 0 1.77321265310004e-16 1 0 -1 1.77321265310004e-16 
1 3900 3900 0 -0 -0 -1 -1 0 0 0 1 -0 
1 250 3900 0 1 0 -0 0 -1 0 0 -0 -1 
1 3750 3700.0000000000005 2100 -1 -0 0 0 -1.77321265310004e-16 -1 0 -1 1.77321265310004e-16 
1 2930 3700.0000000000005 2100 0 -2.1654635756498291e-16 -1 1 0 0 0 -1 2.1654635756498291e-16 
1 3450 7550 0 0 -1 0 -1 0 0 -0 -0 -1 
Triangulations 0

TShapes 182
Ve
1.00005e-07
3350 6400 2400
0 0

0101101
*
Ve
1.00005e-07
3350 6400 0
0 0

0101101
*
Ed
 1.00005e-07 1 1 0
1  1 0 -2400 0
2  1 1 0 -2400 0
2  2 2 0 -2400 0
0

0101000
+182 0 -181 0 *
Ve
1.00005e-07
2350 6400 0
0 0

0101101
*
Ed
 1.00005e-07 1 1 0
1  2 0 600 1600
2  3 1 0 600 1600
2  4 3 0 600 1600
0

0101000
+181 0 -179 0 *
Ve
1e-07
2350 6400 2100
0 0

0101101
*
Ed
 1e-07 1 1 0
1  3 0 0 2100
2  5 1 5 0 2100
2  6 4 5 0 2100
0

0101000
+177 5 -179 5 *
Ve
1e-07
1530 6400 2100
0 0

0101101
*
Ed
 1e-07 1 1 0
1  4 0 0 820
2  7 1 5 0 820
2  8 5 5 0 820
0

0101000
+175 5 -177 5 *
Ve
1e-07
1530 6400 0
0 0

0101101
*
Ed
 1e-07 1 1 0
1  5 0 0 2100
2  9 1 5 0 2100
2  10 6 5 0 2100
0

0101000
+173 5 -175 5 *
Ve
1.00005e-07
250 6400 0
0 0

0101101
*
Ed
 1.00005e-07 1 1 0
1  6 0 2420 3700
2  11 1 0 2420 3700
2  12 7 0 2420 3700
0

0101000
+173 0 -171 0 *
Ve
1.00005e-07
250 6400 2400
0 0

0101101
*
Ed
 1.00005e-07 1 1 0
1  7 0 0 2400
2  13 1 0 0 2400
2  14 8 0 0 2400
0

0101000
+171 0 -169 0 *
Ed
 1.00005e-07 1 1 0
1  8 0 600 3700
2  15 1 7 600 3700
2  16 9 7 600 3700
0

0101000
+182 7 -169 7 *
Wi

0101000
-180 0 -178 0 +176 4 +174 4 +172 4 -170 0 -168 0 +167 6 *
Fa
0  1.00005e-07 1 0

0101000
+166 0 *
Ve
1.00005e-07
250 6300 0
0 0

0101101
*
Ve
1.00005e-07
250 6300 2400
0 0

0101101
*
Ed
 1.00005e-07 1 1 0
1  9 0 0 2400
2  17 8 0 0 2400
2  18 10 0 0 2400
0

0101000
+164 0 -163 0 *
Ed
 1.00005e-07 1 1 0
1  10 0 0 100
2  19 8 0 0 100
2  20 7 0 0 100
0

0101000
+171 0 -164 0 *
Ed
 1.00005e-07 1 1 0
1  11 0 0 100
2  21 8 7 0 100
2  22 9 7 0 100
0

0101000
+169 7 -163 7 *
Wi

0101000
+168 0 -162 0 -161 0 +160 6 *
Fa
0  1.00005e-07 8 0

0101000
+159 0 *
Ve
1.00005e-07
1530 6300 0
0 0

0101101
*
Ve
2.00006e-07
1530 6300 2100
0 0

0101101
*
Ed
 1.00005e-07 1 1 0
1  12 0 0 2100
2  23 10 0 0 2100
2  24 6 0 0 2100
0

0101000
+157 0 -156 0 *
Ed
 1.00005e-07 1 1 0
1  13 0 2320 3600
2  25 10 0 2320 3600
2  26 7 0 2320 3600
0

0101000
+157 0 -164 0 *
Ve
1.00005e-07
3850 6300 2400
0 0

0101101
*
Ed
 1.00005e-07 1 1 0
1  14 0 0 3600
2  27 10 7 0 3600
2  28 9 7 0 3600
0

0101000
+153 7 -163 7 *
Ve
1.00005e-07
3850 6300 0
0 0

0101101
*
Ed
 1.00005e-07 1 1 0
1  15 0 0 2400
2  29 10 0 0 2400
2  30 11 0 0 2400
0

0101000
+151 0 -153 0 *
Ve
1.00005e-07
2350 6300 0
0 0

0101101
*
Ed
 1.00005e-07 1 1 0
1  16 0 0 1500
2  31 10 0 0 1500
2  32 3 0 0 1500
0

0101000
+151 0 -149 0 *
Ve
2.00006e-07
2350 6300 2100
0 0

0101101
*
Ed
 1.00005e-07 1 1 0
1  17 0 -1050 1050
2  33 10 0 -1050 1050
2  34 4 0 -1050 1050
0

0101000
+147 0 -149 0 *
Ed
 1.00005e-07 1 1 0
1  18 0 -1160 -340
2  35 10 0 -1160 -340
2  36 5 0 -1160 -340
0

0101000
+156 0 -147 0 *
Wi

0101000
+155 0 -154 0 -162 0 +152 6 +150 0 -148 0 +146 0 +145 0 *
Fa
0  1.00005e-07 10 0

0101000
+144 0 *
Ve
1.00005e-07
3850 4720 0
0 0

0101101
*
Ed
 1.00005e-07 1 1 0
1  19 0 4470 6050
2  37 11 0 4470 6050
2  38 3 0 4470 6050
0

0101000
+142 0 -151 0 *
Ve
1.00005e-07
3850 3900 2400
0 0

0101101
*
Ed
 1.00005e-07 1 1 0
1  20 0 3650 6050
2  39 11 7 3650 6050
2  40 9 7 3650 6050
0

0101000
+140 7 -153 7 *
Ve
1.00005e-07
3850 3900 2100
0 0

0101101
*
Ed
 1.00005e-07 1 1 0
1  21 0 2100 2400
2  41 11 0 2100 2400
2  42 12 0 2100 2400
0

0101000
+138 0 -140 0 *
Ve
1e-07
3850 4720 2100
0 0

0101101
*
Ed
 1e-07 1 1 0
1  22 0 0 820
2  43 11 12 0 820
2  44 13 12 0 820
0

0101000
+138 12 -136 12 *
Ed
 1e-07 1 1 0
1  23 0 0 2100
2  45 11 12 0 2100
2  46 14 12 0 2100
0

0101000
+136 12 -142 12 *
Wi

0101000
-141 0 -150 0 +139 6 +137 0 -135 11 -134 11 *
Fa
0  1.00005e-07 11 0

0101000
+133 0 *
Ve
1.00005e-07
3950 250 0
0 0

0101101
*
Ve
1.00005e-07
3950 250 2400
0 0

0101101
*
Ed
 1.00005e-07 1 1 0
1  24 0 0 2400
2  47 15 0 0 2400
2  48 16 0 0 2400
0

0101000
+131 0 -130 0 *
Ve
1.00005e-07
3850 250 0
0 0

0101101
*
Ve
1.00005e-07
3850 250 2400
0 0

0101101
*
Ed
 1.00005e-07 1 1 0
1  25 0 0 2400
2  49 15 0 0 2400
2  50 17 0 0 2400
0

0101000
+128 0 -127 0 *
Ed
 1.00005e-07 1 1 0
1  26 0 0 100
2  51 15 0 0 100
2  52 18 0 0 100
0

0101000
+131 0 -128 0 *
Ed
 1.00005e-07 1 1 0
1  27 0 0 100
2  53 15 7 0 100
2  54 9 7 0 100
0

0101000
+130 7 -127 7 *
Wi

0101000
+129 0 -126 0 -125 0 +124 6 *
Fa
0  1.00005e-07 15 0

0101000
+123 0 *
Ve
1.00005e-07
3950 4720 0
0 0

0101101
*
Ve
2.00006e-07
3950 4720 2100
0 0

0101101
*
Ed
 1.00005e-07 1 1 0
1  28 0 -1050 1050
2  55 16 0 -1050 1050
2  56 14 0 -1050 1050
0

0101000
+121 0 -120 0 *
Ve
1.00005e-07
3950 6400 0
0 0

0101101
*
Ed
 1.00005e-07 1 1 0
1  29 0 4470 6150
2  57 16 0 4470 6150
2  58 3 0 4470 6150
0

0101000
+121 0 -118 0 *
Ve
1.00005e-07
3950 6400 2400
0 0

0101101
*
Ed
 1.00005e-07 1 1 0
1  30 0 0 2400
2  59 16 0 0 2400
2  60 19 0 0 2400
0

0101000
+118 0 -116 0 *
Ed
 1.00005e-07 1 1 0
1  31 0 0 6150
2  61 16 7 0 6150
2  62 9 7 0 6150
0

0101000
+130 7 -116 7 *
Ve
1.00005e-07
3950 3900 0
0 0

0101101
*
Ed
 1.00005e-07 1 1 0
1  32 0 0 3650
2  63 16 0 0 3650
2  64 18 0 0 3650
0

0101000
+131 0 -113 0 *
Ve
2.00011e-07
3950 3900 2100
0 0

0101101
*
Ed
 1.00005e-07 1 1 0
1  33 0 -2100 0
2  65 16 0 -2100 0
2  66 12 0 -2100 0
0

0101000
+111 0 -113 0 *
Ed
 1.00005e-07 1 1 0
1  34 0 -2645 -1825
2  67 16 0 -2645 -1825
2  68 13 0 -2645 -1825
0

0101000
+120 0 -111 0 *
Wi

0101000
+119 0 -117 0 -115 0 +114 6 +129 0 -112 0 +110 0 +109 0 *
Fa
0  1.00005e-07 16 0

0101000
+108 0 *
Ve
1.00005e-07
3850 3800 0
0 0

0101101
*
Ve
1.00005e-07
3850 3800 2400
0 0

0101101
*
Ed
 1.00005e-07 1 1 0
1  35 0 0 2400
2  69 17 0 0 2400
2  70 20 0 0 2400
0

0101000
+106 0 -105 0 *
Ed
 1.00005e-07 1 1 0
1  36 0 0 3550
2  71 17 7 0 3550
2  72 9 7 0 3550
0

0101000
+127 7 -105 7 *
Ed
 1.00005e-07 1 1 0
1  37 0 0 3550
2  73 17 0 0 3550
2  74 18 0 0 3550
0

0101000
+128 0 -106 0 *
Wi

0101000
-104 0 +103 6 +126 0 -102 0 *
Fa
0  1.00005e-07 17 0

0101000
+101 0 *
Ed
 1.00005e-07 1 1 0
1  38 0 100 200
2  75 14 0 100 200
2  76 3 0 100 200
0

0101000
+121 0 -142 0 *
Ed
 1e-07 1 1 0
1  39 0 100 200
2  77 14 0 100 200
2  78 13 0 100 200
0

0101000
+120 0 -136 0 *
Wi

0101000
-99 0 +134 11 +98 0 +119 0 *
Fa
0  1e-07 14 0

0101000
+97 0 *
Ve
1.00005e-07
3450 6400 2400
0 0

0101101
*
Ed
 1.00005e-07 1 1 0
1  40 0 0 500
2  79 19 7 0 500
2  80 9 7 0 500
0

0101000
+116 7 -95 7 *
Ve
1.00005e-07
3450 6400 0
0 0

0101101
*
Ed
 1.00005e-07 1 1 0
1  41 0 0 500
2  81 19 0 0 500
2  82 3 0 0 500
0

0101000
+118 0 -93 0 *
Ed
 1.00005e-07 1 1 0
1  42 0 -2400 0
2  83 19 0 -2400 0
2  84 21 0 -2400 0
0

0101000
+95 0 -93 0 *
Wi

0101000
+94 6 +115 0 -92 0 +91 0 *
Fa
0  1.00005e-07 19 0

0101000
+90 0 *
Ed
 1.00005e-07 1 1 0
1  43 0 99.9999999999999 200
2  85 13 0 99.9999999999999 200
2  86 12 0 99.9999999999999 200
0

0101000
+111 0 -138 0 *
Wi

0101000
-98 0 +135 11 +88 0 +109 0 *
Fa
0  1e-07 13 0

0101000
+87 0 *
Ve
1.00005e-07
2930 3800 -5.91645678915759e-31
0 0

0101101
*
Ve
2.00011e-07
2930 3800 2100
0 0

0101101
*
Ed
 1.00005e-07 1 1 0
1  44 0 -1.08273178782491e-14 2100
2  87 20 0 -1.08273178782491e-14 2100
2  88 22 0 -1.08273178782491e-14 2100
0

0101000
+85 0 -84 0 *
Ve
1.00005e-07
250 3800 0
0 0

0101101
*
Ed
 1.00005e-07 1 1 0
1  45 0 970 3650
2  89 20 0 970 3650
2  90 23 0 970 3650
0

0101000
+85 0 -82 0 *
Ve
1.00005e-07
250 3800 2400
0 0

0101101
*
Ed
 1.00005e-07 1 1 0
1  46 0 0 2400
2  91 20 0 0 2400
2  92 24 0 0 2400
0

0101000
+82 0 -80 0 *
Ed
 1.00005e-07 1 1 0
1  47 0 50 3650
2  93 20 14 50 3650
2  94 9 14 50 3650
0

0101000
+105 14 -80 14 *
Ve
1.00005e-07
3750 3800 -5.91645678915759e-31
0 0

0101101
*
Ed
 1.00005e-07 1 1 0
1  48 0 50 150
2  95 20 0 50 150
2  96 18 0 50 150
0

0101000
+106 0 -77 0 *
Ve
2.00011e-07
3750 3800 2100
0 0

0101101
*
Ed
 1.00005e-07 1 1 0
1  49 0 -1050 1050
2  97 20 0 -1050 1050
2  98 25 0 -1050 1050
0

0101000
+75 0 -77 0 *
Ed
 1.00005e-07 1 1 0
1  50 0 -485 335
2  99 20 0 -485 335
2  100 26 0 -485 335
0

0101000
+84 0 -75 0 *
Wi

0101000
+83 0 -81 0 -79 0 +78 13 +104 0 -76 0 +74 0 +73 0 *
Fa
0  1.00005e-07 20 0

0101000
+72 0 *
Ed
 1.00005e-07 1 1 0
1  51 0 100 200
2  101 4 0 100 200
2  102 3 0 100 200
0

0101000
+149 0 -179 0 *
Ed
 1e-07 1 1 0
1  52 0 100 200
2  103 4 0 100 200
2  104 5 0 100 200
0

0101000
+147 0 -177 0 *
Wi

0101000
-146 0 -70 0 +176 4 +69 0 *
Fa
0  1e-07 4 0

0101000
+68 0 *
Ve
1.00005e-07
3450 7550 0
0 0

0101101
*
Ed
 1.00005e-07 1 1 0
1  53 0 50 1200
2  105 21 0 50 1200
2  106 3 0 50 1200
0

0101000
+93 0 -66 0 *
Ve
1.00005e-07
3450 7550 2400
0 0

0101101
*
Ed
 1.00005e-07 1 1 0
1  54 0 0 2400
2  107 21 0 0 2400
2  108 27 0 0 2400
0

0101000
+66 0 -64 0 *
Ed
 1.00005e-07 1 1 0
1  55 0 50 1200
2  109 21 16 50 1200
2  110 9 16 50 1200
0

0101000
+95 16 -64 16 *
Wi

0101000
-91 0 -65 0 -63 0 +62 15 *
Fa
0  1.00005e-07 21 0

0101000
+61 0 *
Ve
1.00005e-07
2930 3900 2100
0 0

0101101
*
Ed
 1.00005e-07 1 1 0
1  56 0 99.9999999999999 200
2  111 22 0 99.9999999999999 200
2  112 26 0 99.9999999999999 200
0

0101000
+84 0 -59 0 *
Ve
1.00005e-07
2930 3900 -2.16546357564983e-14
0 0

0101101
*
Ed
 1.00005e-07 1 1 0
1  57 0 0 2100
2  113 22 21 0 2100
2  114 12 21 0 2100
0

0101000
+57 21 -59 21 *
Ed
 1.00005e-07 1 1 0
1  58 0 100 200
2  115 22 0 100 200
2  116 23 0 100 200
0

0101000
+85 0 -57 0 *
Wi

0101000
-83 0 -58 0 +56 20 +55 0 *
Fa
0  1.00005e-07 22 0

0101000
+54 0 *
Ve
1.00005e-07
250 3900 0
0 0

0101101
*
Ed
 1.00005e-07 1 1 0
1  59 0 970 3650
2  117 23 0 970 3650
2  118 12 0 970 3650
0

0101000
+57 0 -52 0 *
Ed
 1.00005e-07 1 1 0
1  60 0 0 100
2  119 23 0 0 100
2  120 24 0 0 100
0

0101000
+52 0 -82 0 *
Wi

0101000
-51 0 -50 0 +81 0 -55 0 *
Fa
0  1e-07 23 0

0101000
+49 0 *
Ve
1.00005e-07
250 3900 2400
0 0

0101101
*
Ed
 1.00005e-07 1 1 0
1  61 0 0 2400
2  121 24 0 0 2400
2  122 12 0 0 2400
0

0101000
+52 0 -47 0 *
Ed
 1.00005e-07 1 1 0
1  62 0 0 100
2  123 24 14 0 100
2  124 9 14 0 100
0

0101000
+47 14 -80 14 *
Wi

0101000
+46 0 -79 0 -50 0 +45 13 *
Fa
0  1.00005e-07 24 0

0101000
+44 0 *
Ve
1.00005e-07
3750 3900 -2.16546357564983e-14
0 0

0101101
*
Ed
 1.00005e-07 1 1 0
1  63 0 100 200
2  125 25 0 100 200
2  126 18 0 100 200
0

0101000
+77 0 -42 0 *
Ve
1.00005e-07
3750 3900 2100
0 0

0101101
*
Ed
 1.00005e-07 1 1 0
1  64 0 0 2100
2  127 25 21 0 2100
2  128 12 21 0 2100
0

0101000
+40 21 -42 21 *
Ed
 1.00005e-07 1 1 0
1  65 0 100 200
2  129 25 0 100 200
2  130 26 0 100 200
0

0101000
+75 0 -40 0 *
Wi

0101000
-74 0 -41 0 +39 20 +38 0 *
Fa
0  1.00005e-07 25 0

0101000
+37 0 *
Ed
 1.00005e-07 1 1 0
1  66 0 0 820
2  131 26 21 0 820
2  132 12 21 0 820
0

0101000
+59 21 -40 21 *
Wi

0101000
-73 0 -38 0 +35 20 +58 0 *
Fa
0  1.00005e-07 26 0

0101000
+34 0 *
Ve
1.00005e-07
3350 7550 0
0 0

0101101
*
Ed
 1.00005e-07 1 1 0
1  67 0 50 1200
2  133 2 0 50 1200
2  134 3 0 50 1200
0

0101000
+181 0 -32 0 *
Ve
1.00005e-07
3350 7550 2400
0 0

0101101
*
Ed
 1.00005e-07 1 1 0
1  68 0 0 2400
2  135 2 0 0 2400
2  136 27 0 0 2400
0

0101000
+32 0 -30 0 *
Ed
 1.00005e-07 1 1 0
1  69 0 50 1200
2  137 2 16 50 1200
2  138 9 16 50 1200
0

0101000
+182 16 -30 16 *
Wi

0101000
-180 0 -31 0 -29 0 +28 15 *
Fa
0  1.00005e-07 2 0

0101000
+27 0 *
Ed
 1e-07 1 1 0
1  70 0 99.9999999999999 200
2  139 5 0 99.9999999999999 200
2  140 6 0 99.9999999999999 200
0

0101000
+156 0 -175 0 *
Wi

0101000
-145 0 -69 0 +174 4 +25 0 *
Fa
0  1e-07 5 0

0101000
+24 0 *
Ed
 1e-07 1 1 0
1  71 0 100 200
2  141 6 0 100 200
2  142 7 0 100 200
0

0101000
+157 0 -173 0 *
Wi

0101000
-155 0 -25 0 +172 4 +22 0 *
Fa
0  1e-07 6 0

0101000
+21 0 *
Wi

0101000
-22 0 -170 0 -161 0 +154 0 *
Fa
0  1e-07 7 0

0101000
+19 0 *
Ed
 1.00005e-07 1 1 0
1  72 0 0 100
2  143 27 0 0 100
2  144 3 0 0 100
0

0101000
+66 0 -32 0 *
Ed
 1.00005e-07 1 1 0
1  73 0 0 100
2  145 27 16 0 100
2  146 9 16 0 100
0

0101000
+64 16 -30 16 *
Wi

0101000
+63 0 -29 0 -17 0 +16 15 *
Fa
0  1.00005e-07 27 0

0101000
+15 0 *
Ed
 1e-07 1 1 0
1  74 0 -50 150
2  147 18 0 -50 150
2  148 12 0 -50 150
0

0101000
+113 0 -42 0 *
Wi

0101000
-112 0 +125 0 +102 0 +76 0 +41 0 -13 0 *
Fa
0  1.00005e-07 18 0

0101000
+12 0 *
Wi

0101100
-117 0 +99 0 +141 0 +148 0 +70 0 -178 0 +31 0 -17 0 -65 0 -92 0 
*
Fa
0  1.00005e-07 3 0

0101000
+10 0 *
Ed
 1.00005e-07 1 1 0
1  75 0 50 3650
2  149 9 14 50 3650
2  150 12 14 50 3650
0

0101000
+140 14 -47 14 *
Wi

0101100
+114 6 +94 6 +62 15 +16 15 -28 15 +167 6 +160 6 -152 6 -139 6 +8 13 
+45 13 -78 13 -103 6 -124 6 *
Fa
0  1.00005e-07 9 0

0101000
-7 0 *
Wi

0101000
-88 0 +110 0 +13 0 -39 20 -35 20 -56 20 +51 0 +46 0 -8 13 -137 0 
*
Fa
0  1.00005e-07 12 0

0101000
-5 0 *
Sh

0101000
-165 0 -158 0 +143 0 +132 0 +122 0 -107 0 +100 0 +96 0 -89 0 +86 0 
+71 0 +67 0 -60 0 +53 0 +48 0 -43 0 +36 0 +33 0 +26 0 +23 0 
+20 0 +18 0 -14 0 +11 0 +9 0 -6 0 -4 0 *
So

0100000
+3 0 *
Co

1100000
+2 0 *

+1 0 