DBRep_DrawableShape

CASCADE Topology V1, (c) Matra-Datavision
Locations 7
1
              1               0               0               0 
              0               1               0               0 
              0               0               1               0 
1
              1               0               0           -75.4 
              0               1               0          -41.35 
              0               0               1           -41.7 
2  1 -1 2 -1 0
1
2.22044604925031e-016              -1               0           -75.4 
              1 2.22044604925031e-016               0               0 
              0               0               1           -41.7 
2  4 1 2 -1 0
2  2 1 4 -1 0
2  1 -1 4 -1 0
Curve2ds 44
1 0 0 1 0 
1 0 25.399999999999999 1 0 
1 12.699999999999999 0 0 -1 
1 25.399999999999999 0 0 1 
1 0 -82.700000000000003 1 0 
1 0 25.399999999999999 1 0 
1 0 0 0 -1 
1 25.399999999999999 0 0 1 
1 0 0 0 1 
1 0 0 1 0 
1 12.699999999999999 0 0 1 
1 0 0 1 0 
1 0 0 1 0 
1 0 0 1 0 
1 0 0 0 1 
1 12.699999999999999 0 0 -1 
1 0 0 0 1 
1 -41.350000000000001 -9.1815444136500449e-015 1 2.2204460492503131e-016 
1 0 0 0 1 
1 -41.350000000000001 -9.1815444136500449e-015 1 2.2204460492503131e-016 
1 0 82.700000000000003 1 0 
1 12.699999999999999 0 0 1 
1 0 0 0 1 
1 12.699999999999999 0 0 -1 
1 0 0 0 1 
1 0 82.700000000000003 1 0 
1 0 0 1 0 
1 0 -82.700000000000003 1 0 
1 0 0 0 1 
1 0 0 0 -1 
1 0 0 0 1 
1 -41.350000000000001 -9.1815444136500449e-015 1 2.2204460492503131e-016 
1 0 0 0 1 
1 -41.350000000000001 -9.1815444136500449e-015 1 2.2204460492503131e-016 
1 0 0 0 1 
1 0 0 0 -1 
1 0 -28.650000000000002 1 0 
1 3.1415926535897931 -0 0 1 
2 0 0 1 0 -0 1 12.699999999999999
1 0 12.699999999999999 1 0 
1 0 -54.049999999999997 1 0 
1 0 -0 0 1 
2 0 0 1 0 -0 1 12.699999999999999
1 0 0 1 0 
Curves 22
1 25.399999999999999 0 0 0 0 1 
1 25.399999999999999 0 12.699999999999999 0 1 0 
1 25.399999999999999 82.700000000000003 0 0 0 1 
1 25.399999999999999 0 0 -0 1 0 
1 0 0 0 1 0 -0 
1 0 0 12.699999999999999 1 0 -0 
1 0 0 0 0 0 1 
1 0 0 12.699999999999999 -0 1 0 
1 0 0 12.699999999999999 -0 1 0 
1 0 0 12.699999999999999 -0 1 0 
1 0 82.700000000000003 12.699999999999999 1 0 -0 
1 0 0 12.699999999999999 -0 1 0 
1 0 82.700000000000003 0 1 0 -0 
1 0 82.700000000000003 0 0 0 1 
1 0 0 0 -0 1 0 
1 0 0 0 -0 1 0 
1 0 0 0 -0 1 0 
1 0 0 0 -0 1 0 
1 -12.699999999999999 1.5553014349171384e-015 0 0 0 1 
2 0 0 12.699999999999999 0 0 1 1 0 -0 -0 1 0 12.699999999999999
1 12.699999999999999 0 0 0 0 1 
2 0 0 0 0 0 1 1 0 -0 -0 1 0 12.699999999999999
Polygon3D 0
PolygonOnTriangulations 0
Surfaces 10
1 25.399999999999999 0 0 1 0 -0 0 0 1 0 -1 0 
1 0 0 0 -0 1 0 0 0 1 1 0 -0 
1 0 0 12.699999999999999 0 0 1 1 0 -0 -0 1 0 
1 0 82.700000000000003 0 -0 1 0 0 0 1 1 0 -0 
1 0 0 0 0 0 1 1 0 -0 -0 1 0 
1 0 0 0 1 0 -0 0 0 1 0 -1 0 
1 0 0 12.699999999999999 0 0 1 1 0 -0 -0 1 0 
1 0 0 0 1 0 -0 0 0 1 0 -1 0 
1 0 0 0 0 0 1 1 0 -0 -0 1 0 
2 0 0 0 0 0 1 1 0 -0 -0 1 0 12.699999999999999
Triangulations 0

TShapes 59
Ve
1e-007
-50 -41.35 -29
0 0

0101101
*
Ve
1e-007
-50 -41.35 -41.7
0 0

0101101
*
Ed
 1e-007 1 1 0
1  1 0 0 12.7
2  1 1 0 0 12.7
2  2 2 0 0 12.7
0

0101000
-59 3 +58 3 *
Ve
1e-007
-50 41.35 -29
0 0

0101101
*
Ed
 1e-007 1 1 0
1  2 0 0 82.7
2  3 1 0 0 82.7
2  4 3 0 0 82.7
0

0101000
-56 3 +59 3 *
Ve
1e-007
-50 41.35 -41.7
0 0

0101101
*
Ed
 1e-007 1 1 0
1  3 0 0 12.7
2  5 1 0 0 12.7
2  6 4 0 0 12.7
0

0101000
-56 3 +54 3 *
Ed
 1e-007 1 1 0
1  4 0 0 82.7
2  7 1 0 0 82.7
2  8 5 0 0 82.7
0

0101000
-54 3 +58 3 *
Wi

0101000
-57 0 -55 0 +53 0 +52 0 *
Fa
0  1e-007 1 0

0101000
+51 0 *
Ve
1e-007
-75.4 -41.35 -41.7
0 0

0101101
*
Ed
 1e-007 1 1 0
1  5 0 0 25.4
2  9 2 0 0 25.4
2  10 5 0 0 25.4
0

0101000
-58 3 +49 3 *
Ve
1e-007
-75.4 -41.35 -29
0 0

0101101
*
Ed
 1e-007 1 1 0
1  6 0 0 25.4
2  11 2 0 0 25.4
2  12 3 0 0 25.4
0

0101000
-59 3 +47 3 *
Ed
 1e-007 1 1 0
1  7 0 0 12.7
2  13 2 0 0 12.7
2  14 6 0 0 12.7
0

0101000
-47 3 +49 3 *
Wi

0101000
-48 0 -57 0 +46 0 +45 0 *
Fa
0  1e-007 2 0

0101000
+44 0 *
Ve
1e-007
-75.4 -12.7 -29
0 0

0101101
*
Ed
 1e-007 1 1 0
1  8 0 0 28.65
2  15 3 0 0 28.65
2  16 6 0 0 28.65
0

0101000
+47 3 -42 3 *
Ve
1e-007
-75.4 0 -29
0 0

0101101
*
Ed
 1e-007 1 1 0
1  9 0 28.65 41.35
2  17 3 0 28.65 41.35
2  18 7 5 28.65 41.35
0

0101000
+42 3 -40 3 *
Ve
1e-007
-75.4 12.7 -29
0 0

0101101
*
Ed
 1e-007 1 1 0
1  10 0 41.35 54.05
2  19 3 0 41.35 54.05
2  20 7 5 41.35 54.05
0

0101000
+40 3 -38 3 *
Ve
1e-007
-75.4 41.35 -29
0 0

0101101
*
Ed
 1e-007 1 1 0
1  11 0 0 25.4
2  21 3 0 0 25.4
2  22 4 0 0 25.4
0

0101000
-56 3 +36 3 *
Ed
 1e-007 1 1 0
1  12 0 54.05 82.7
2  23 3 0 54.05 82.7
2  24 8 0 54.05 82.7
0

0101000
+38 3 -36 3 *
Wi

0101000
-41 2 +46 2 -39 2 +55 2 -37 2 -35 2 -34 2 *
Fa
0  1e-007 3 2

0101000
+33 0 *
Ve
1e-007
-75.4 41.35 -41.7
0 0

0101101
*
Ed
 1e-007 1 1 0
1  13 0 0 25.4
2  25 4 0 0 25.4
2  26 5 0 0 25.4
0

0101000
-54 3 +31 3 *
Ed
 1e-007 1 1 0
1  14 0 0 12.7
2  27 4 0 0 12.7
2  28 8 0 0 12.7
0

0101000
-36 3 +31 3 *
Wi

0101000
-30 0 -53 0 +35 0 +29 0 *
Fa
0  1e-007 4 0

0101000
+28 0 *
Ve
1e-007
-75.4 -12.7 -41.7
0 0

0101101
*
Ed
 1e-007 1 1 0
1  15 0 0 28.65
2  29 5 0 0 28.65
2  30 6 0 0 28.65
0

0101000
+49 3 -26 3 *
Ve
1e-007
-75.4 0 -41.7
0 0

0101101
*
Ed
 1e-007 1 1 0
1  16 0 28.65 41.35
2  31 5 0 28.65 41.35
2  32 9 5 28.65 41.35
0

0101000
+26 3 -24 3 *
Ve
1e-007
-75.4 12.7 -41.7
0 0

0101101
*
Ed
 1e-007 1 1 0
1  17 0 41.35 54.05
2  33 5 0 41.35 54.05
2  34 9 5 41.35 54.05
0

0101000
+24 3 -22 3 *
Ed
 1e-007 1 1 0
1  18 0 54.05 82.7
2  35 5 0 54.05 82.7
2  36 8 0 54.05 82.7
0

0101000
+22 3 -31 3 *
Wi

0101000
-25 2 +48 2 -23 2 +52 2 -21 2 -30 2 -20 2 *
Fa
0  1e-007 5 2

0101000
+19 0 *
Ed
 1e-007 1 1 0
1  19 0 0 12.7
2  37 6 6 0 12.7
2  38 10 0 0 12.7
0

0101000
-42 7 +26 7 *
Wi

0101000
-41 2 +17 4 +25 2 -45 2 *
Fa
0  1e-007 6 2

0101000
+16 0 *
Ed
 1e-007 1 1 0
1  20 0 0 3.14159265358979
2  39 7 0 0 3.14159265358979
2  40 10 0 0 3.14159265358979
0

0101100
-42 7 +38 7 *
Wi

0101000
+14 4 +39 2 +37 2 *
Fa
0  1e-007 7 4

0101000
+13 0 *
Ed
 1e-007 1 1 0
1  21 0 0 12.7
2  41 8 6 0 12.7
2  42 10 0 0 12.7
0

0101000
-38 7 +22 7 *
Wi

0101000
-34 2 +29 2 +20 2 -11 4 *
Fa
0  1e-007 8 2

0101000
+10 0 *
Ed
 1e-007 1 1 0
1  22 0 0 3.14159265358979
2  43 9 0 0 3.14159265358979
2  44 10 0 0 3.14159265358979
0

0101100
-26 7 +22 7 *
Wi

0101000
+8 4 +23 2 +21 2 *
Fa
0  1e-007 9 4

0101000
+7 0 *
Wi

0101000
-14 4 +17 4 -11 4 +8 4 *
Fa
0  1e-007 10 4

0101000
+5 0 *
Sh

0101000
+50 2 -43 2 +32 0 +27 2 -18 0 -15 0 +12 0 -9 0 -6 0 +4 0 
*
So

0100000
+3 0 *
Co

1100000
+2 0 *

+1 1 