DBRep_DrawableShape

CASCADE Topology V1, (c) Matra-Datavision
Locations 13
1
              1               0               0               0 
              0               1               0               0 
              0               0               1               0 
1
              1               0               0               0 
              0               1               0             -40 
              0               0               1               0 
2  1 -1 2 -1 0
1
              1               0               0               0 
              0               1               0               0 
              0               0               1            1780 
2  2 1 4 -1 0
2  1 -1 4 -1 0
2  1 -1 0
1
              1               0               0               0 
              0               1               0               0 
              0               0               1             990 
2  2 1 8 -1 0
2  1 -1 8 -1 0
1
              1               0               0               0 
              0               1               0               0 
              0               0               1             200 
2  2 1 11 -1 0
2  1 -1 11 -1 0
Curve2ds 78
1 0 0 1 0 
1 0 405 1 0 
1 2100 0 0 -1 
1 405 0 0 1 
1 0 -40 1 0 
1 0 405 1 0 
1 0 0 0 -1 
1 405 0 0 1 
1 0 0 0 1 
1 0 0 1 0 
1 2100 0 0 1 
1 0 0 1 0 
1 0 0 1 0 
1 0 0 1 0 
1 0 0 0 1 
1 2100 0 0 -1 
1 0 40 1 0 
1 2100 0 0 1 
1 1780 8 1 0 
1 0 -0 0 1 
8 -8.5873218044581563 0
1 1780 0 0 -1 
8 -8.5873218044581563 0
1 0 0 -1 0 
1 0 0 1 0 
1 0 -40 1 0 
8 -8.5873218044581563 0
1 1110 0 0 -1 
8 -8.5873218044581563 0
1 0 0 -1 0 
1 990 8 1 0 
1 0 -0 0 1 
8 -8.5873218044581563 0
1 990 0 0 -1 
8 -8.5873218044581563 0
1 0 0 -1 0 
1 0 0 1 0 
1 0 -40 1 0 
8 -8.5873218044581563 0
1 320 0 0 -1 
8 -8.5873218044581563 0
1 0 0 -1 0 
1 200 8 1 0 
1 0 -0 0 1 
8 -8.5873218044581563 0
1 200 0 0 -1 
8 -8.5873218044581563 0
1 0 0 -1 0 
1 0 0 1 0 
1 0 -40 1 0 
1 0 0 0 1 
1 0 40 1 0 
1 0 0 1 0 
1 0 -40 1 0 
8 -8.5873218044581563 0
1 1900 0 0 -1 
8 -8.5873218044581563 0
1 0 0 -1 0 
1 0 0 0 1 
1 0 0 0 -1 
8 11.41267819554184 20
1 1780 -20 0 -1 
8 11.41267819554184 20
1 0 -20 0 1 
8 11.41267819554184 20
1 1110 -20 0 -1 
8 11.41267819554184 20
1 0 -20 0 1 
8 0 120
1 990 -32 1 0 
8 0 120
1 4.7123889803846897 0 0 1 
8 11.41267819554184 20
1 990 -20 0 -1 
8 11.41267819554184 20
1 0 -20 0 1 
8 11.41267819554184 20
1 320 -20 0 -1 
8 11.41267819554184 20
1 0 -20 0 1 
8 0 120
1 200 -32 1 0 
8 0 120
1 4.7123889803846897 0 0 1 
8 11.41267819554184 20
1 200 -20 0 -1 
8 11.41267819554184 20
1 0 -20 0 1 
8 11.41267819554184 20
1 1900 -20 0 -1 
8 11.41267819554184 20
1 0 -20 0 1 
8 0 120
1 1780 -32 1 0 
8 0 120
1 4.7123889803846897 0 0 1 
1 0 0 1 0 
2 0 0 1 0 -0 1 8
1 0 120 1 0 
2 0 0 1 0 -0 1 8
2 0 0 1 0 -0 1 8
1 0 120 1 0 
1 0 0 1 0 
2 0 0 1 0 -0 1 8
2 0 0 1 0 -0 1 8
1 0 120 1 0 
1 0 0 1 0 
2 0 0 1 0 -0 1 8
Curves 39
1 405 0 0 0 0 1 
1 405 0 2100 0 1 0 
1 405 40 0 0 0 1 
1 405 0 0 -0 1 0 
1 0 0 0 1 0 -0 
1 0 0 2100 1 0 -0 
1 0 0 0 0 0 1 
1 0 0 2100 -0 1 0 
1 0 40 2100 1 0 -0 
1 8 -1.9593701661158036e-15 0 0 0 1 
1 0 0 1780 -1 0 0 
1 0 40 0 0 0 1 
1 0 0 1110 -1 0 0 
1 8 -1.9593701661158036e-15 0 0 0 1 
1 0 0 990 -1 0 0 
1 0 40 0 0 0 1 
1 0 0 320 -1 0 0 
1 8 -1.9593701661158036e-15 0 0 0 1 
1 0 0 200 -1 0 0 
1 0 40 0 0 0 1 
1 0 40 0 1 0 -0 
1 0 40 0 0 0 1 
1 0 0 1900 -1 0 0 
1 0 0 0 -0 1 0 
1 0 -20 1780 0 1 0 
1 0 -20 1110 0 1 0 
1 0 -8 990 0 0 1 
1 0 -20 990 0 1 0 
1 0 -20 320 0 1 0 
1 0 -8 200 0 0 1 
1 0 -20 200 0 1 0 
1 0 -20 1900 0 1 0 
1 0 -8 1780 0 0 1 
2 0 0 0 0 0 1 1 0 -0 -0 1 0 8
2 0 0 120 0 0 1 1 0 -0 -0 1 0 8
2 0 0 120 0 0 1 1 0 -0 -0 1 0 8
2 0 0 0 0 0 1 1 0 -0 -0 1 0 8
2 0 0 120 0 0 1 1 0 -0 -0 1 0 8
2 0 0 0 0 0 1 1 0 -0 -0 1 0 8
Polygon3D 0
PolygonOnTriangulations 0
Surfaces 15
1 405 0 0 1 0 -0 0 0 1 0 -1 0 
1 0 0 0 -0 1 0 0 0 1 1 0 -0 
1 0 0 2100 0 0 1 1 0 -0 -0 1 0 
1 0 40 0 -0 1 0 0 0 1 1 0 -0 
1 0 0 0 0 0 1 1 0 -0 -0 1 0 
1 0 0 0 1 0 -0 0 0 1 0 -1 0 
2 0 0 0 0 0 1 1 0 -0 -0 1 0 8
1 0 0 0 0 0 1 1 0 -0 -0 1 0 
1 0 0 120 0 0 1 1 0 -0 -0 1 0 
2 0 0 0 0 0 1 1 0 -0 -0 1 0 8
1 0 0 0 0 0 1 1 0 -0 -0 1 0 
1 0 0 120 0 0 1 1 0 -0 -0 1 0 
2 0 0 0 0 0 1 1 0 -0 -0 1 0 8
1 0 0 0 0 0 1 1 0 -0 -0 1 0 
1 0 0 120 0 0 1 1 0 -0 -0 1 0 
Triangulations 0

TShapes 98
Ve
1e-07
405 -40 2100
0 0

0101101
*
Ve
1e-07
405 -40 0
0 0

0101101
*
Ed
 1e-07 1 1 0
1  1 0 0 2100
2  1 1 0 0 2100
2  2 2 0 0 2100
0

0101000
-98 3 +97 3 *
Ve
1e-07
405 0 2100
0 0

0101101
*
Ed
 1e-07 1 1 0
1  2 0 0 40
2  3 1 0 0 40
2  4 3 0 0 40
0

0101000
-95 3 +98 3 *
Ve
1e-07
405 0 0
0 0

0101101
*
Ed
 1e-07 1 1 0
1  3 0 0 2100
2  5 1 0 0 2100
2  6 4 0 0 2100
0

0101000
-95 3 +93 3 *
Ed
 1e-07 1 1 0
1  4 0 0 40
2  7 1 0 0 40
2  8 5 0 0 40
0

0101000
-93 3 +97 3 *
Wi

0101000
-96 0 -94 0 +92 0 +91 0 *
Fa
0  1e-07 1 0

0101000
+90 0 *
Ve
1e-07
0 -40 0
0 0

0101101
*
Ed
 1e-07 1 1 0
1  5 0 0 405
2  9 2 0 0 405
2  10 5 0 0 405
0

0101000
-97 3 +88 3 *
Ve
1e-07
0 -40 2100
0 0

0101101
*
Ed
 1e-07 1 1 0
1  6 0 0 405
2  11 2 0 0 405
2  12 3 0 0 405
0

0101000
-98 3 +86 3 *
Ed
 1e-07 1 1 0
1  7 0 0 2100
2  13 2 0 0 2100
2  14 6 0 0 2100
0

0101000
-86 3 +88 3 *
Wi

0101000
-87 0 -96 0 +85 0 +84 0 *
Fa
0  1e-07 2 0

0101000
+83 0 *
Ve
1e-07
0 0 2100
0 0

0101101
*
Ed
 1e-07 1 1 0
1  8 0 0 40
2  15 3 0 0 40
2  16 6 0 0 40
0

0101000
-81 3 +86 3 *
Ed
 1e-07 1 1 0
1  9 0 0 405
2  17 3 0 0 405
2  18 4 0 0 405
0

0101000
-95 3 +81 3 *
Wi

0101000
-80 0 -79 0 +94 0 +85 0 *
Fa
0  1e-07 3 0

0101000
+78 0 *
Ve
1e-07
8 -1.9593701661158e-15 1900
0 0

0101101
*
Ve
1e-07
8 -1.9593701661158e-15 1780
0 0

0101101
*
Ed
 1e-07 1 1 0
1  10 0 0 120
2  19 4 5 0 120
2  20 7 0 0 120
0

0101000
-76 6 +75 6 *
Ve
2.00001e-07
0 0 1780
0 0

0101101
*
Ed
 1e-07 1 1 0
1  11 0 -8 0
2  21 4 2 -8 0
2  22 8 4 -8 0
0

0101000
+75 7 -73 7 *
Ve
2.00001e-07
0 0 1110
0 0

0101101
*
Ed
 1e-07 1 1 0
1  12 0 1110 1780
2  23 4 0 1110 1780
2  24 6 0 1110 1780
0

0101000
+71 3 -73 3 *
Ve
1e-07
8 -1.9593701661158e-15 1110
0 0

0101101
*
Ed
 1e-07 1 1 0
1  13 0 -8 0
2  25 4 2 -8 0
2  26 9 8 -8 0
0

0101000
+69 7 -71 7 *
Ve
1e-07
8 -1.9593701661158e-15 990
0 0

0101101
*
Ed
 1e-07 1 1 0
1  14 0 0 120
2  27 4 9 0 120
2  28 10 0 0 120
0

0101000
-69 10 +67 10 *
Ve
2.00001e-07
0 0 990
0 0

0101101
*
Ed
 1e-07 1 1 0
1  15 0 -8 0
2  29 4 2 -8 0
2  30 11 8 -8 0
0

0101000
+67 7 -65 7 *
Ve
2.00001e-07
0 0 320
0 0

0101101
*
Ed
 1e-07 1 1 0
1  16 0 320 990
2  31 4 0 320 990
2  32 6 0 320 990
0

0101000
+63 3 -65 3 *
Ve
1e-07
8 -1.9593701661158e-15 320
0 0

0101101
*
Ed
 1e-07 1 1 0
1  17 0 -8 0
2  33 4 2 -8 0
2  34 12 11 -8 0
0

0101000
+61 7 -63 7 *
Ve
1e-07
8 -1.9593701661158e-15 200
0 0

0101101
*
Ed
 1e-07 1 1 0
1  18 0 0 120
2  35 4 12 0 120
2  36 13 0 0 120
0

0101000
-61 13 +59 13 *
Ve
2.00001e-07
0 0 200
0 0

0101101
*
Ed
 1e-07 1 1 0
1  19 0 -8 0
2  37 4 2 -8 0
2  38 14 11 -8 0
0

0101000
+59 7 -57 7 *
Ve
1e-07
0 0 0
0 0

0101101
*
Ed
 1e-07 1 1 0
1  20 0 0 200
2  39 4 0 0 200
2  40 6 0 0 200
0

0101000
+55 3 -57 3 *
Ed
 1e-07 1 1 0
1  21 0 0 405
2  41 4 0 0 405
2  42 5 0 0 405
0

0101000
-93 3 +55 3 *
Ve
2.00001e-07
0 0 1900
0 0

0101101
*
Ed
 1e-07 1 1 0
1  22 0 1900 2100
2  43 4 0 1900 2100
2  44 6 0 1900 2100
0

0101000
+52 3 -81 3 *
Ed
 1e-07 1 1 0
1  23 0 -8 0
2  45 4 2 -8 0
2  46 15 4 -8 0
0

0101000
+76 7 -52 7 *
Wi

0101000
+74 4 -72 0 +70 2 +68 0 +66 8 -64 0 +62 2 +60 0 +58 11 -56 0 
+54 2 -53 2 -92 2 +79 2 +51 2 +50 0 *
Fa
0  1e-07 4 2

0101000
+49 0 *
Ed
 1e-07 1 1 0
1  24 0 0 40
2  47 5 0 0 40
2  48 6 0 0 40
0

0101000
-55 3 +88 3 *
Wi

0101000
-47 0 -53 0 +91 0 +87 0 *
Fa
0  1e-07 5 0

0101000
+46 0 *
Ve
2.00001e-07
-1.46952762458685e-15 -8 1780
0 0

0101101
*
Ed
 1e-07 1 1 0
1  25 0 12 20
2  49 6 2 12 20
2  50 8 4 12 20
0

0101000
+44 7 -73 7 *
Ve
2.00001e-07
-1.46952762458685e-15 -8 1110
0 0

0101101
*
Ed
 1e-07 1 1 0
1  26 0 12 20
2  51 6 2 12 20
2  52 9 8 12 20
0

0101000
+42 7 -71 7 *
Ve
2.00001e-07
-1.46952762458685e-15 -8 990
0 0

0101101
*
Ed
 1e-07 1 1 0
1  27 0 0 120
2  53 6 2 0 120
2  54 10 8 0 120
0

0101000
+40 7 -42 7 *
Ed
 1e-07 1 1 0
1  28 0 12 20
2  55 6 2 12 20
2  56 11 8 12 20
0

0101000
+40 7 -65 7 *
Ve
2.00001e-07
-1.46952762458685e-15 -8 320
0 0

0101101
*
Ed
 1e-07 1 1 0
1  29 0 12 20
2  57 6 2 12 20
2  58 12 11 12 20
0

0101000
+37 7 -63 7 *
Ve
2.00001e-07
-1.46952762458685e-15 -8 200
0 0

0101101
*
Ed
 1e-07 1 1 0
1  30 0 0 120
2  59 6 2 0 120
2  60 13 11 0 120
0

0101000
+35 7 -37 7 *
Ed
 1e-07 1 1 0
1  31 0 12 20
2  61 6 2 12 20
2  62 14 11 12 20
0

0101000
+35 7 -57 7 *
Ve
2.00001e-07
-1.46952762458685e-15 -8 1900
0 0

0101101
*
Ed
 1e-07 1 1 0
1  32 0 12 20
2  63 6 2 12 20
2  64 15 4 12 20
0

0101000
+32 7 -52 7 *
Ed
 1e-07 1 1 0
1  33 0 0 120
2  65 6 2 0 120
2  66 7 4 0 120
0

0101000
+44 7 -32 7 *
Wi

0101000
-43 0 +70 2 +41 0 +39 0 -38 0 +62 2 +36 0 +34 0 -33 0 +54 2 
+47 2 -84 2 -80 2 +51 2 +31 0 +30 0 *
Fa
0  1e-07 6 2

0101000
+29 0 *
Ed
 1e-07 1 1 0
1  34 0 0 4.71238898038469
2  67 7 0 0 4.71238898038469
2  68 8 0 0 4.71238898038469
0

0101000
+75 6 -44 6 *
Ed
 1e-07 1 1 0
1  35 0 0 4.71238898038469
2  69 7 0 0 4.71238898038469
2  70 15 0 0 4.71238898038469
0

0101000
+76 6 -32 6 *
Wi

0101000
+27 4 -74 4 -26 4 +30 0 *
Fa
0  1e-07 7 4

0101000
+25 0 *
Wi

0101000
+27 4 -72 0 +43 0 *
Fa
0  1e-07 8 4

0101000
+23 0 *
Ed
 1e-07 1 1 0
1  36 0 0 4.71238898038469
2  71 9 0 0 4.71238898038469
2  72 10 0 0 4.71238898038469
0

0101000
+69 10 -42 10 *
Wi

0101000
+21 8 -68 0 +41 0 *
Fa
0  1e-07 9 8

0101000
+20 0 *
Ed
 1e-07 1 1 0
1  37 0 0 4.71238898038469
2  73 10 0 0 4.71238898038469
2  74 11 0 0 4.71238898038469
0

0101000
+67 10 -40 10 *
Wi

0101000
+18 8 -66 8 -21 8 +39 0 *
Fa
0  1e-07 10 8

0101000
+17 0 *
Wi

0101000
+18 8 -64 0 +38 0 *
Fa
0  1e-07 11 8

0101000
+15 0 *
Ed
 1e-07 1 1 0
1  38 0 0 4.71238898038469
2  75 12 0 0 4.71238898038469
2  76 13 0 0 4.71238898038469
0

0101000
+61 13 -37 13 *
Wi

0101000
+13 11 -60 0 +36 0 *
Fa
0  1e-07 12 11

0101000
+12 0 *
Ed
 1e-07 1 1 0
1  39 0 0 4.71238898038469
2  77 13 0 0 4.71238898038469
2  78 14 0 0 4.71238898038469
0

0101000
+59 13 -35 13 *
Wi

0101000
+10 11 -58 11 -13 11 +34 0 *
Fa
0  1e-07 13 11

0101000
+9 0 *
Wi

0101000
+10 11 -56 0 +33 0 *
Fa
0  1e-07 14 11

0101000
+7 0 *
Wi

0101000
+26 4 -50 0 +31 0 *
Fa
0  1e-07 15 4

0101000
+5 0 *
Sh

0101000
+89 2 -82 2 +77 2 +48 0 -45 2 -28 0 +24 0 -22 0 +19 0 +16 0 
-14 0 +11 0 +8 0 -6 0 +4 0 *
So

0100000
+3 0 *
Co

1100000
+2 0 *

+1 1 