DBRep_DrawableShape

CASCADE Topology V1, (c) Matra-Datavision
Locations 25
1
              1               0               0            8350 
              0               1               0            5370 
              0               0               1               0 
1
              1               0               0               0 
              0               1               0             -40 
              0               0               1               0 
1
              1               0               0               0 
              0               1               0               0 
              0               0               1               0 
2  2 1 3 1 0
2  1 -1 3 -1 2 -1 0
1
              1               0               0               0 
              0               1               0             -40 
              0               0               1             990 
2  2 1 3 1 6 -1 0
2  1 -1 6 -1 0
2  1 -1 0
1
              1               0               0               0 
              0               1               0             -40 
              0               0               1             200 
2  2 1 3 1 10 -1 0
2  1 -1 10 -1 0
1
              1               0               0               0 
              0               1               0             -40 
              0               0               1            1780 
2  2 1 3 1 13 -1 0
2  1 -1 13 -1 0
1
              1               0               0               0 
              0               1               0               0 
              0               0               1            1780 
2  2 1 16 -1 0
2  1 -1 3 -1 16 -1 0
2  1 -1 3 -1 0
1
              1               0               0               0 
              0               1               0               0 
              0               0               1             990 
2  2 1 20 -1 0
2  1 -1 3 -1 20 -1 0
1
              1               0               0               0 
              0               1               0               0 
              0               0               1             200 
2  2 1 23 -1 0
2  1 -1 3 -1 23 -1 0
Curve2ds 132
1 0 0 1 0 
1 0 405 1 0 
1 2100 0 0 -1 
1 405 0 0 1 
1 0 -40 1 0 
1 0 405 1 0 
1 0 0 0 -1 
1 405 0 0 1 
1 990 8 1 0 
1 6.2831853071795862 -0 0 1 
1 990 0 0 -1 
1 0 0 -1 0 
1 0 0 1 0 
1 0 0 1 0 
1 320 0 0 -1 
1 0 0 -1 0 
1 200 8 1 0 
1 6.2831853071795862 -0 0 1 
1 200 0 0 -1 
1 0 0 -1 0 
1 0 0 1 0 
1 0 0 1 0 
1 0 0 0 1 
1 0 0 1 0 
1 2100 0 0 1 
1 0 0 1 0 
1 0 0 1 0 
1 0 0 1 0 
1 1900 0 0 -1 
1 0 0 -1 0 
1 1780 8 1 0 
1 6.2831853071795862 -0 0 1 
1 1780 0 0 -1 
1 0 0 -1 0 
1 0 0 1 0 
1 0 0 1 0 
1 1110 0 0 -1 
1 0 0 -1 0 
1 0 0 0 1 
1 2100 0 0 -1 
1 0 40 1 0 
1 2100 0 0 1 
1 1780 8 1 0 
1 0 -0 0 1 
1 1780 0 0 -1 
1 0 0 -1 0 
1 0 0 1 0 
1 0 -40 1 0 
1 1110 0 0 -1 
1 0 0 -1 0 
1 990 8 1 0 
1 0 -0 0 1 
1 990 0 0 -1 
1 0 0 -1 0 
1 0 0 1 0 
1 0 -40 1 0 
1 320 0 0 -1 
1 0 0 -1 0 
1 200 8 1 0 
1 0 -0 0 1 
1 200 0 0 -1 
1 0 0 -1 0 
1 0 0 1 0 
1 0 -40 1 0 
1 0 0 0 1 
1 0 40 1 0 
1 0 0 1 0 
1 0 -40 1 0 
1 1900 0 0 -1 
1 0 0 -1 0 
1 0 0 0 1 
1 0 0 0 -1 
1 1.5707963267948966 0 0 1 
1 990 -8 1 0 
1 0 120 1 0 
2 0 0 1 0 -0 1 8
1 0 0 1 0 
2 0 0 1 0 -0 1 8
1 0 0 0 1 
1 990 0 0 -1 
1 1110 0 0 -1 
1 0 0 0 1 
1 1780 0 0 -1 
1 0 0 0 1 
1 1780 -8 1 0 
1 1.5707963267948966 0 0 1 
1 1900 0 0 -1 
1 0 0 0 1 
1 1900 -20 0 -1 
1 0 -20 0 1 
1 1780 -32 1 0 
1 4.7123889803846897 0 0 1 
1 1780 -20 0 -1 
1 0 -20 0 1 
1 1110 -20 0 -1 
1 0 -20 0 1 
1 990 -32 1 0 
1 4.7123889803846897 0 0 1 
1 990 -20 0 -1 
1 0 -20 0 1 
1 320 -20 0 -1 
1 0 -20 0 1 
1 200 -32 1 0 
1 4.7123889803846897 0 0 1 
1 200 -20 0 -1 
1 0 -20 0 1 
1 200 0 0 -1 
1 0 0 0 1 
1 200 -8 1 0 
1 1.5707963267948966 0 0 1 
1 320 0 0 -1 
1 0 0 0 1 
2 0 0 1 0 -0 1 8
1 0 120 1 0 
1 0 0 1 0 
2 0 0 1 0 -0 1 8
2 0 0 1 0 -0 1 8
1 0 120 1 0 
1 0 0 1 0 
2 0 0 1 0 -0 1 8
1 0 0 1 0 
2 0 0 1 0 -0 1 8
1 0 120 1 0 
2 0 0 1 0 -0 1 8
2 0 0 1 0 -0 1 8
1 0 120 1 0 
1 0 0 1 0 
2 0 0 1 0 -0 1 8
2 0 0 1 0 -0 1 8
1 0 120 1 0 
1 0 0 1 0 
2 0 0 1 0 -0 1 8
Curves 66
1 415 0 0 -0 -0 1 
1 415 0 2100 -0 1 -0 
1 415 40 0 -0 -0 1 
1 415 0 0 -0 1 -0 
1 812 -1.9593701661158036e-15 0 -0 -0 1 
1 820 -40 990 1 -0 -0 
1 820 0 0 -0 -0 1 
1 820 -40 320 1 -0 -0 
1 812 -1.9593701661158036e-15 0 -0 -0 1 
1 820 -40 200 1 -0 -0 
1 820 0 0 -0 -0 1 
1 820 0 0 -1 -0 -0 
1 820 0 2100 -1 -0 -0 
1 820 0 0 -0 -0 1 
1 820 -40 1900 1 -0 -0 
1 812 -1.9593701661158036e-15 0 -0 -0 1 
1 820 -40 1780 1 -0 -0 
1 820 0 0 -0 -0 1 
1 820 -40 1110 1 -0 -0 
1 820 0 2100 -0 1 -0 
1 820 40 2100 -1 -0 -0 
1 812 -1.9593701661158036e-15 0 -0 -0 1 
1 820 0 1780 1 -0 -0 
1 820 40 0 -0 -0 1 
1 820 0 1110 1 -0 -0 
1 812 -1.9593701661158036e-15 0 -0 -0 1 
1 820 0 990 1 -0 -0 
1 820 40 0 -0 -0 1 
1 820 0 320 1 -0 -0 
1 812 -1.9593701661158036e-15 0 -0 -0 1 
1 820 0 200 1 -0 -0 
1 820 40 0 -0 -0 1 
1 820 40 0 -1 -0 -0 
1 820 40 0 -0 -0 1 
1 820 0 1900 1 -0 -0 
1 820 0 0 -0 1 -0 
1 820 -32 990 -0 -0 1 
2 820 0 120 0 0 -1 -1 -0 -0 -0 1 0 8
2 820 0 0 0 0 -1 -1 -0 -0 -0 1 0 8
1 820 -40 990 -0 1 -0 
1 820 -40 1110 -0 1 -0 
1 820 -40 1780 -0 1 -0 
1 820 -32 1780 -0 -0 1 
1 820 -40 1900 -0 1 -0 
1 820 -20 1900 -0 1 -0 
1 820 -8 1780 -0 -0 1 
1 820 -20 1780 -0 1 -0 
1 820 -20 1110 -0 1 -0 
1 820 -8 990 -0 -0 1 
1 820 -20 990 -0 1 -0 
1 820 -20 320 -0 1 -0 
1 820 -8 200 -0 -0 1 
1 820 -20 200 -0 1 -0 
1 820 -40 200 -0 1 -0 
1 820 -32 200 -0 -0 1 
1 820 -40 320 -0 1 -0 
2 820 0 120 0 0 -1 -1 -0 -0 -0 1 0 8
2 820 0 0 0 0 -1 -1 -0 -0 -0 1 0 8
2 820 0 120 0 0 -1 -1 -0 -0 -0 1 0 8
2 820 0 0 0 0 -1 -1 -0 -0 -0 1 0 8
2 820 0 0 0 0 -1 -1 -0 -0 -0 1 0 8
2 820 0 120 0 0 -1 -1 -0 -0 -0 1 0 8
2 820 0 120 0 0 -1 -1 -0 -0 -0 1 0 8
2 820 0 0 0 0 -1 -1 -0 -0 -0 1 0 8
2 820 0 120 0 0 -1 -1 -0 -0 -0 1 0 8
2 820 0 0 0 0 -1 -1 -0 -0 -0 1 0 8
Polygon3D 0
PolygonOnTriangulations 0
Surfaces 24
1 415 0 0 -1 -0 -0 -0 0 1 -0 -1 0 
1 820 0 0 -0 1 -0 0 0 1 -1 -0 0 
1 820 0 2100 -0 -0 1 -1 0 0 0 1 0 
1 820 40 0 -0 1 -0 0 0 1 -1 -0 0 
1 820 0 0 -0 -0 1 -1 0 0 0 1 0 
2 820 0 0 -0 -0 1 -1 0 0 0 1 0 8
1 820 0 0 -0 -0 1 -1 0 0 0 1 0 
1 820 0 0 -1 -0 -0 -0 0 1 -0 -1 0 
1 820 0 120 -0 -0 1 -1 0 0 0 1 0 
2 820 0 0 -0 -0 1 -1 0 0 0 1 0 8
1 820 0 0 -0 -0 1 -1 0 0 0 1 0 
1 820 0 120 -0 -0 1 -1 0 0 0 1 0 
2 820 0 0 -0 -0 1 -1 0 0 0 1 0 8
1 820 0 0 -0 -0 1 -1 0 0 0 1 0 
1 820 0 120 -0 -0 1 -1 0 0 0 1 0 
2 820 0 0 -0 -0 1 -1 0 0 0 1 0 8
1 820 0 0 -0 -0 1 -1 0 0 0 1 0 
1 820 0 120 -0 -0 1 -1 0 0 0 1 0 
2 820 0 0 -0 -0 1 -1 0 0 0 1 0 8
1 820 0 0 -0 -0 1 -1 0 0 0 1 0 
1 820 0 120 -0 -0 1 -1 0 0 0 1 0 
2 820 0 0 -0 -0 1 -1 0 0 0 1 0 8
1 820 0 0 -0 -0 1 -1 0 0 0 1 0 
1 820 0 120 -0 -0 1 -1 0 0 0 1 0 
Triangulations 0

TShapes 161
Ve
1e-07
8765 5330 2100
0 0

0101101
*
Ve
1e-07
8765 5330 0
0 0

0101101
*
Ed
 1e-07 1 1 0
1  1 0 0 2100
2  1 1 0 0 2100
2  2 2 0 0 2100
0

0101000
-161 5 +160 5 *
Ve
1e-07
8765 5370 2100
0 0

0101101
*
Ed
 1e-07 1 1 0
1  2 0 0 40
2  3 1 0 0 40
2  4 3 0 0 40
0

0101000
-158 5 +161 5 *
Ve
1e-07
8765 5370 0
0 0

0101101
*
Ed
 1e-07 1 1 0
1  3 0 0 2100
2  5 1 0 0 2100
2  6 4 0 0 2100
0

0101000
-158 5 +156 5 *
Ed
 1e-07 1 1 0
1  4 0 0 40
2  7 1 0 0 40
2  8 5 0 0 40
0

0101000
-156 5 +160 5 *
Wi

0101000
-159 0 -157 0 +155 0 +154 0 *
Fa
0  1e-07 1 0

0101000
+153 0 *
Ve
1e-07
9162 5330 1110
0 0

0101101
*
Ve
1e-07
9162 5330 990
0 0

0101101
*
Ed
 1e-07 1 1 0
1  5 0 0 120
2  9 2 7 0 120
2  10 6 0 0 120
0

0101000
-151 8 +150 8 *
Ve
2.00001e-07
9170 5330 990
0 0

0101101
*
Ed
 1e-07 1 1 0
1  6 0 -8 0
2  11 2 4 -8 0
2  12 7 6 -8 0
0

0101000
+150 9 -148 9 *
Ve
2.00001e-07
9170 5330 320
0 0

0101101
*
Ed
 1e-07 1 1 0
1  7 0 320 990
2  13 2 0 320 990
2  14 8 0 320 990
0

0101000
+146 5 -148 5 *
Ve
1e-07
9162 5330 320
0 0

0101101
*
Ed
 1e-07 1 1 0
1  8 0 -8 0
2  15 2 4 -8 0
2  16 9 10 -8 0
0

0101000
+144 9 -146 9 *
Ve
1e-07
9162 5330 200
0 0

0101101
*
Ed
 1e-07 1 1 0
1  9 0 0 120
2  17 2 11 0 120
2  18 10 0 0 120
0

0101000
-144 12 +142 12 *
Ve
2.00001e-07
9170 5330 200
0 0

0101101
*
Ed
 1e-07 1 1 0
1  10 0 -8 0
2  19 2 4 -8 0
2  20 11 10 -8 0
0

0101000
+142 9 -140 9 *
Ve
1e-07
9170 5330 0
0 0

0101101
*
Ed
 1e-07 1 1 0
1  11 0 0 200
2  21 2 0 0 200
2  22 8 0 0 200
0

0101000
+138 5 -140 5 *
Ed
 1e-07 1 1 0
1  12 0 0 405
2  23 2 0 0 405
2  24 5 0 0 405
0

0101000
-160 5 +138 5 *
Ve
1e-07
9170 5330 2100
0 0

0101101
*
Ed
 1e-07 1 1 0
1  13 0 0 405
2  25 2 0 0 405
2  26 3 0 0 405
0

0101000
-161 5 +135 5 *
Ve
2.00001e-07
9170 5330 1900
0 0

0101101
*
Ed
 1e-07 1 1 0
1  14 0 1900 2100
2  27 2 0 1900 2100
2  28 8 0 1900 2100
0

0101000
+133 5 -135 5 *
Ve
1e-07
9162 5330 1900
0 0

0101101
*
Ed
 1e-07 1 1 0
1  15 0 -8 0
2  29 2 4 -8 0
2  30 12 13 -8 0
0

0101000
+131 9 -133 9 *
Ve
1e-07
9162 5330 1780
0 0

0101101
*
Ed
 1e-07 1 1 0
1  16 0 0 120
2  31 2 14 0 120
2  32 13 0 0 120
0

0101000
-131 15 +129 15 *
Ve
2.00001e-07
9170 5330 1780
0 0

0101101
*
Ed
 1e-07 1 1 0
1  17 0 -8 0
2  33 2 4 -8 0
2  34 14 13 -8 0
0

0101000
+129 9 -127 9 *
Ve
2.00001e-07
9170 5330 1110
0 0

0101101
*
Ed
 1e-07 1 1 0
1  18 0 1110 1780
2  35 2 0 1110 1780
2  36 8 0 1110 1780
0

0101000
+125 5 -127 5 *
Ed
 1e-07 1 1 0
1  19 0 -8 0
2  37 2 4 -8 0
2  38 15 6 -8 0
0

0101000
+151 9 -125 9 *
Wi

0101000
+149 6 -147 0 +145 4 +143 0 +141 10 -139 0 +137 4 -136 4 -159 4 +134 4 
+132 4 +130 0 +128 13 -126 0 +124 4 +123 0 *
Fa
0  1e-07 2 4

0101000
+122 0 *
Ve
1e-07
9170 5370 2100
0 0

0101101
*
Ed
 1e-07 1 1 0
1  20 0 0 40
2  39 3 0 0 40
2  40 8 0 0 40
0

0101000
-120 5 +135 5 *
Ed
 1e-07 1 1 0
1  21 0 0 405
2  41 3 0 0 405
2  42 4 0 0 405
0

0101000
-158 5 +120 5 *
Wi

0101000
-119 0 -118 0 +157 0 +134 0 *
Fa
0  1e-07 3 0

0101000
+117 0 *
Ve
1e-07
9162 5370 1900
0 0

0101101
*
Ve
1e-07
9162 5370 1780
0 0

0101101
*
Ed
 1e-07 1 1 0
1  22 0 0 120
2  43 4 17 0 120
2  44 16 0 0 120
0

0101000
-115 18 +114 18 *
Ve
2.00001e-07
9170 5370 1780
0 0

0101101
*
Ed
 1e-07 1 1 0
1  23 0 -8 0
2  45 4 2 -8 0
2  46 17 16 -8 0
0

0101000
+114 19 -112 19 *
Ve
2.00001e-07
9170 5370 1110
0 0

0101101
*
Ed
 1e-07 1 1 0
1  24 0 1110 1780
2  47 4 0 1110 1780
2  48 8 0 1110 1780
0

0101000
+110 5 -112 5 *
Ve
1e-07
9162 5370 1110
0 0

0101101
*
Ed
 1e-07 1 1 0
1  25 0 -8 0
2  49 4 2 -8 0
2  50 18 20 -8 0
0

0101000
+108 19 -110 19 *
Ve
1e-07
9162 5370 990
0 0

0101101
*
Ed
 1e-07 1 1 0
1  26 0 0 120
2  51 4 21 0 120
2  52 19 0 0 120
0

0101000
-108 22 +106 22 *
Ve
2.00001e-07
9170 5370 990
0 0

0101101
*
Ed
 1e-07 1 1 0
1  27 0 -8 0
2  53 4 2 -8 0
2  54 20 20 -8 0
0

0101000
+106 19 -104 19 *
Ve
2.00001e-07
9170 5370 320
0 0

0101101
*
Ed
 1e-07 1 1 0
1  28 0 320 990
2  55 4 0 320 990
2  56 8 0 320 990
0

0101000
+102 5 -104 5 *
Ve
1e-07
9162 5370 320
0 0

0101101
*
Ed
 1e-07 1 1 0
1  29 0 -8 0
2  57 4 2 -8 0
2  58 21 23 -8 0
0

0101000
+100 19 -102 19 *
Ve
1e-07
9162 5370 200
0 0

0101101
*
Ed
 1e-07 1 1 0
1  30 0 0 120
2  59 4 24 0 120
2  60 22 0 0 120
0

0101000
-100 25 +98 25 *
Ve
2.00001e-07
9170 5370 200
0 0

0101101
*
Ed
 1e-07 1 1 0
1  31 0 -8 0
2  61 4 2 -8 0
2  62 23 23 -8 0
0

0101000
+98 19 -96 19 *
Ve
1e-07
9170 5370 0
0 0

0101101
*
Ed
 1e-07 1 1 0
1  32 0 0 200
2  63 4 0 0 200
2  64 8 0 0 200
0

0101000
+94 5 -96 5 *
Ed
 1e-07 1 1 0
1  33 0 0 405
2  65 4 0 0 405
2  66 5 0 0 405
0

0101000
-156 5 +94 5 *
Ve
2.00001e-07
9170 5370 1900
0 0

0101101
*
Ed
 1e-07 1 1 0
1  34 0 1900 2100
2  67 4 0 1900 2100
2  68 8 0 1900 2100
0

0101000
+91 5 -120 5 *
Ed
 1e-07 1 1 0
1  35 0 -8 0
2  69 4 2 -8 0
2  70 24 16 -8 0
0

0101000
+115 19 -91 19 *
Wi

0101000
+113 16 -111 0 +109 2 +107 0 +105 20 -103 0 +101 2 +99 0 +97 23 -95 0 
+93 2 -92 2 -155 2 +118 2 +90 2 +89 0 *
Fa
0  1e-07 4 2

0101000
+88 0 *
Ed
 1e-07 1 1 0
1  36 0 0 40
2  71 5 0 0 40
2  72 8 0 0 40
0

0101000
-94 5 +138 5 *
Wi

0101000
-86 0 -92 0 +154 0 +136 0 *
Fa
0  1e-07 5 0

0101000
+85 0 *
Ve
2.00001e-07
9170 5338 990
0 0

0101101
*
Ve
2.00001e-07
9170 5338 1110
0 0

0101101
*
Ed
 1e-07 1 1 0
1  37 0 0 120
2  73 6 6 0 120
2  74 8 4 0 120
0

0101000
+83 9 -82 9 *
Ed
 1e-07 1 1 0
1  38 0 1.5707963267949 6.28318530717959
2  75 6 0 1.5707963267949 6.28318530717959
2  76 15 0 1.5707963267949 6.28318530717959
0

0101000
+82 8 -151 8 *
Ed
 1e-07 1 1 0
1  39 0 1.5707963267949 6.28318530717959
2  77 6 0 1.5707963267949 6.28318530717959
2  78 7 0 1.5707963267949 6.28318530717959
0

0101000
+83 8 -150 8 *
Wi

0101000
-81 0 -80 6 +149 6 +79 6 *
Fa
0  1e-07 6 6

0101000
+78 0 *
Ed
 1e-07 1 1 0
1  40 0 0 8
2  79 7 6 0 8
2  80 8 4 0 8
0

0101000
+148 9 -83 9 *
Wi

0101000
+79 6 +76 0 +147 0 *
Fa
0  1e-07 7 6

0101000
+75 0 *
Ed
 1e-07 1 1 0
1  41 0 0 8
2  81 8 4 0 8
2  82 15 6 0 8
0

0101000
+125 9 -82 9 *
Ve
2.00001e-07
9170 5338 1780
0 0

0101101
*
Ed
 1e-07 1 1 0
1  42 0 0 8
2  83 8 4 0 8
2  84 14 13 0 8
0

0101000
+127 9 -72 9 *
Ve
2.00001e-07
9170 5338 1900
0 0

0101101
*
Ed
 1e-07 1 1 0
1  43 0 0 120
2  85 8 4 0 120
2  86 13 13 0 120
0

0101000
+72 9 -70 9 *
Ed
 1e-07 1 1 0
1  44 0 0 8
2  87 8 4 0 8
2  88 12 13 0 8
0

0101000
+133 9 -70 9 *
Ve
2.00001e-07
9170 5362 1900
0 0

0101101
*
Ed
 1e-07 1 1 0
1  45 0 12 20
2  89 8 2 12 20
2  90 24 16 12 20
0

0101000
+67 19 -91 19 *
Ve
2.00001e-07
9170 5362 1780
0 0

0101101
*
Ed
 1e-07 1 1 0
1  46 0 0 120
2  91 8 2 0 120
2  92 16 16 0 120
0

0101000
+65 19 -67 19 *
Ed
 1e-07 1 1 0
1  47 0 12 20
2  93 8 2 12 20
2  94 17 16 12 20
0

0101000
+65 19 -112 19 *
Ve
2.00001e-07
9170 5362 1110
0 0

0101101
*
Ed
 1e-07 1 1 0
1  48 0 12 20
2  95 8 2 12 20
2  96 18 20 12 20
0

0101000
+62 19 -110 19 *
Ve
2.00001e-07
9170 5362 990
0 0

0101101
*
Ed
 1e-07 1 1 0
1  49 0 0 120
2  97 8 2 0 120
2  98 19 20 0 120
0

0101000
+60 19 -62 19 *
Ed
 1e-07 1 1 0
1  50 0 12 20
2  99 8 2 12 20
2  100 20 20 12 20
0

0101000
+60 19 -104 19 *
Ve
2.00001e-07
9170 5362 320
0 0

0101101
*
Ed
 1e-07 1 1 0
1  51 0 12 20
2  101 8 2 12 20
2  102 21 23 12 20
0

0101000
+57 19 -102 19 *
Ve
2.00001e-07
9170 5362 200
0 0

0101101
*
Ed
 1e-07 1 1 0
1  52 0 0 120
2  103 8 2 0 120
2  104 22 23 0 120
0

0101000
+55 19 -57 19 *
Ed
 1e-07 1 1 0
1  53 0 12 20
2  105 8 2 12 20
2  106 23 23 12 20
0

0101000
+55 19 -96 19 *
Ve
2.00001e-07
9170 5338 200
0 0

0101101
*
Ed
 1e-07 1 1 0
1  54 0 0 8
2  107 8 4 0 8
2  108 11 10 0 8
0

0101000
+140 9 -52 9 *
Ve
2.00001e-07
9170 5338 320
0 0

0101101
*
Ed
 1e-07 1 1 0
1  55 0 0 120
2  109 8 4 0 120
2  110 10 10 0 120
0

0101000
+52 9 -50 9 *
Ed
 1e-07 1 1 0
1  56 0 0 8
2  111 8 4 0 8
2  112 9 10 0 8
0

0101000
+146 9 -50 9 *
Wi

0101000
-81 0 +73 0 -124 4 -71 0 -69 0 +68 0 -132 4 -119 4 +90 4 +66 3 
+64 3 -63 3 +109 4 +61 3 +59 3 -58 3 +101 4 +56 3 +54 3 -53 3 
+93 4 +86 4 -137 4 -51 0 -49 0 +48 0 -145 4 -76 0 *
Fa
0  1e-07 8 4

0101000
+47 0 *
Ed
 1e-07 1 1 0
1  57 0 1.5707963267949 6.28318530717959
2  113 9 0 1.5707963267949 6.28318530717959
2  114 10 0 1.5707963267949 6.28318530717959
0

0101000
+50 12 -144 12 *
Wi

0101000
+45 10 +48 0 +143 0 *
Fa
0  1e-07 9 10

0101000
+44 0 *
Ed
 1e-07 1 1 0
1  58 0 1.5707963267949 6.28318530717959
2  115 10 0 1.5707963267949 6.28318530717959
2  116 11 0 1.5707963267949 6.28318530717959
0

0101000
+52 12 -142 12 *
Wi

0101000
-49 0 -45 10 +141 10 +42 10 *
Fa
0  1e-07 10 10

0101000
+41 0 *
Wi

0101000
+42 10 +51 0 +139 0 *
Fa
0  1e-07 11 10

0101000
+39 0 *
Ed
 1e-07 1 1 0
1  59 0 1.5707963267949 6.28318530717959
2  117 12 0 1.5707963267949 6.28318530717959
2  118 13 0 1.5707963267949 6.28318530717959
0

0101000
+70 15 -131 15 *
Wi

0101000
+37 13 +68 0 +130 0 *
Fa
0  1e-07 12 13

0101000
+36 0 *
Ed
 1e-07 1 1 0
1  60 0 1.5707963267949 6.28318530717959
2  119 13 0 1.5707963267949 6.28318530717959
2  120 14 0 1.5707963267949 6.28318530717959
0

0101000
+72 15 -129 15 *
Wi

0101000
-69 0 -37 13 +128 13 +34 13 *
Fa
0  1e-07 13 13

0101000
+33 0 *
Wi

0101000
+34 13 +71 0 +126 0 *
Fa
0  1e-07 14 13

0101000
+31 0 *
Wi

0101000
+80 6 +73 0 +123 0 *
Fa
0  1e-07 15 6

0101000
+29 0 *
Ed
 1e-07 1 1 0
1  61 0 0 4.71238898038469
2  121 16 0 0 4.71238898038469
2  122 17 0 0 4.71238898038469
0

0101000
+114 18 -65 18 *
Ed
 1e-07 1 1 0
1  62 0 0 4.71238898038469
2  123 16 0 0 4.71238898038469
2  124 24 0 0 4.71238898038469
0

0101000
+115 18 -67 18 *
Wi

0101000
+27 16 -113 16 -26 16 +64 0 *
Fa
0  1e-07 16 16

0101000
+25 0 *
Wi

0101000
+27 16 -111 0 +63 0 *
Fa
0  1e-07 17 16

0101000
+23 0 *
Ed
 1e-07 1 1 0
1  63 0 0 4.71238898038469
2  125 18 0 0 4.71238898038469
2  126 19 0 0 4.71238898038469
0

0101000
+108 22 -62 22 *
Wi

0101000
+21 20 -107 0 +61 0 *
Fa
0  1e-07 18 20

0101000
+20 0 *
Ed
 1e-07 1 1 0
1  64 0 0 4.71238898038469
2  127 19 0 0 4.71238898038469
2  128 20 0 0 4.71238898038469
0

0101000
+106 22 -60 22 *
Wi

0101000
+18 20 -105 20 -21 20 +59 0 *
Fa
0  1e-07 19 20

0101000
+17 0 *
Wi

0101000
+18 20 -103 0 +58 0 *
Fa
0  1e-07 20 20

0101000
+15 0 *
Ed
 1e-07 1 1 0
1  65 0 0 4.71238898038469
2  129 21 0 0 4.71238898038469
2  130 22 0 0 4.71238898038469
0

0101000
+100 25 -57 25 *
Wi

0101000
+13 23 -99 0 +56 0 *
Fa
0  1e-07 21 23

0101000
+12 0 *
Ed
 1e-07 1 1 0
1  66 0 0 4.71238898038469
2  131 22 0 0 4.71238898038469
2  132 23 0 0 4.71238898038469
0

0101000
+98 25 -55 25 *
Wi

0101000
+10 23 -97 23 -13 23 +54 0 *
Fa
0  1e-07 22 23

0101000
+9 0 *
Wi

0101000
+10 23 -95 0 +53 0 *
Fa
0  1e-07 23 23

0101000
+7 0 *
Wi

0101000
+26 16 -89 0 +66 0 *
Fa
0  1e-07 24 16

0101000
+5 0 *
Sh

0101000
-152 4 +121 0 -116 4 -87 3 +84 4 -77 0 +74 0 +46 0 -43 0 -40 0 
+38 0 -35 0 -32 0 +30 0 -28 0 -24 3 +22 3 -19 3 -16 3 +14 3 
-11 3 -8 3 +6 3 -4 3 *
So

0100000
+3 0 *
Co

1100000
+2 0 *

+1 1 