DBRep_DrawableShape

CASCADE Topology V1, (c) Matra-Datavision
Locations 8
1
              1               0               0               0 
              0               1               0               0 
              0               0               1              12 
2  1 -1 0
1
              0              -1               0             610 
             -1              -0 -2.22044604925031e-16             210 
2.22044604925031e-16               0              -1             -15 
2  3 -1 0
2  1 -1 3 -1 0
1
              0              -1               0             610 
             -1              -0 -2.22044604925031e-16             210 
2.22044604925031e-16               0              -1            -147 
2  6 -1 0
2  1 -1 6 -1 0
Curve2ds 48
7 0 0  1 2 2  61.968032396290752 -81.999999999999915  -71.538521749938354 -61.999999999999915 
 0 2 132 2
8 0 132
1 8 0 0 1 
7 0 0  9 10 2  61.968032396290752 -81.999999999999915  61.968032396290752 -63.777777777777686  61.968032396290752 -45.555555555555458  61.968032396290752 -27.333333333333258  61.968032396290752 -9.111111111111029  61.968032396290752 9.1111111111111995  61.968032396290752 27.3333333333334  61.968032396290752 45.555555555555628  61.968032396290752 63.777777777777857  61.968032396290752 82.000000000000028 
 0 10 1 10
7 0 0  9 10 2  0 0  0 -18.222222222222229  0 -36.444444444444457  0 -54.666666666666657  0 -72.888888888888886  0 -91.111111111111114  0 -109.33333333333331  0 -127.55555555555554  0 -145.77777777777777  0 -163.99999999999994 
 0 10 1 10
7 0 0  1 2 2  61.968032396290752 82.000000000000028  -71.538521749938354 62.000000000000085 
 0 2 132 2
8 0 132
1 1 0 0 1 
7 0 0  9 10 2  -71.538521749938354 -61.999999999999915  -71.538521749938354 -48.222222222222143  -71.538521749938354 -34.444444444444372  -71.538521749938354 -20.6666666666666  -71.538521749938354 -6.8888888888888005  -71.538521749938354 6.888888888888971  -71.538521749938354 20.666666666666771  -71.538521749938354 34.444444444444542  -71.538521749938354 48.222222222222314  -71.538521749938354 62.000000000000085 
 0 10 1 10
7 0 0  9 10 2  0 0  0 -13.777777777777771  0 -27.555555555555543  0 -41.333333333333314  0 -55.111111111111114  0 -68.888888888888886  0 -82.666666666666686  0 -96.444444444444457  0 -110.22222222222223  0 -124 
 0 10 1 10
8 1 2
1 0 0 1 0 
7 0 0  9 10 2  0 -163.99999999999994  -1.4779288903810084e-12 -177.08996938995523  -2.5702092716616107 -190.17993896750585  -7.7106296131685212 -202.69315348704396  -15.270259544197472 -214.05286586610589  -24.947134133927648 -223.72974045576882  -36.306846512932736 -231.28937038685515  -48.820061032505009 -236.42979072832645  -61.910030610041986 -239.0000000000021  -75 -239 
 1 10 2 10
1 2 0 0 1 
7 0 0  1 2 2  63.034393186498207 -121.99999999999989  -70.4721609597309 -101.99999999999983 
 0 2 132 2
8 1 2
1 0 132 1 0 
7 0 0  9 10 2  0 -124  -1.7053025658242404e-12 -137.08996938995591  -2.5702092716607012 -150.17993896750298  -7.7106296131703402 -162.69315348704998  -15.270259544195255 -174.05286586609725  -24.947134133929239 -183.72974045577806  -36.306846512932111 -191.28937038684796  -48.820061032505123 -196.42979072833029  -61.910030610041986 -199.00000000000097  -75 -199 
 1 10 2 10
7 0 0  9 10 2  63.034393186498207 -121.99999999999989  63.034393186498207 -94.8888888888888  63.034393186498207 -67.777777777777715  63.034393186498207 -40.666666666666515  63.034393186498207 -13.555555555555429  63.034393186498207 13.555555555555657  63.034393186498207 40.666666666666742  63.034393186498207 67.777777777777942  63.034393186498207 94.888888888889028  63.034393186498193 121.99999999999989 
 2 10 3 10
7 0 0  9 10 2  -75 -239  -102.11111111111109 -239  -129.22222222222217 -239  -156.33333333333337 -239  -183.44444444444446 -239  -210.55555555555554 -239  -237.66666666666663 -239  -264.77777777777783 -239  -291.88888888888891 -239  -318.99999999999977 -238.99999999999986 
 2 10 3 10
7 0 0  1 2 2  63.034393186498185 121.99999999999989  -70.4721609597309 101.99999999999989 
 0 2 132 2
8 0 132
1 3 0 0 1 
7 0 0  9 10 2  -70.4721609597309 -101.99999999999983  -70.4721609597309 -79.333333333333258  -70.4721609597309 -56.666666666666515  -70.4721609597309 -33.999999999999886  -70.4721609597309 -11.333333333333258  -70.4721609597309 11.333333333333485  -70.4721609597309 34.000000000000114  -70.4721609597309 56.666666666666742  -70.4721609597309 79.333333333333485  -70.4721609597309 101.99999999999989 
 2 10 3 10
7 0 0  9 10 2  -75 -199  -97.666666666666629 -199  -120.33333333333337 -199  -143 -199  -165.66666666666663 -199  -188.33333333333337 -199  -211 -199  -233.66666666666663 -199  -256.33333333333337 -199  -278.99999999999977 -198.99999999999989 
 2 10 3 10
8 3 4
1 0 0 1 0 
7 0 0  9 10 2  -318.99999999999977 -238.99999999999986  -332.08996938995449 -238.99999999999858  -345.17993896750841 -236.42979072833933  -357.69315348703822 -231.28937038682807  -369.05286586611555 -223.72974045580921  -378.72974045575734 -214.05286586606408  -386.28937038686445 -202.69315348707397  -391.42979072832145 -190.17993896749135  -394.00000000000352 -177.08996938995915  -394 -164 
 3 10 4 10
1 4 0 0 1 
7 0 0  1 2 2  -61.968032396290724 82  71.538521749938354 62 
 0 2 132 2
8 3 4
1 0 132 1 0 
7 0 0  9 10 2  -278.99999999999977 -198.99999999999989  -292.08996938995688 -198.9999999999981  -305.17993896749874 -196.4297907283412  -317.6931534870605 -191.28937038682369  -329.05286586608008 -183.729740455815  -338.72974045579736 -174.05286586605882  -346.28937038683307 -162.69315348707718  -351.42979072833759 -150.17993896748987  -353.99999999999909 -137.08996938995961  -354 -124 
 3 10 4 10
7 0 0  9 10 2  -61.968032396290724 82  -61.968032396290724 63.777777777777771  -61.968032396290724 45.555555555555543  -61.968032396290724 27.333333333333343  -61.968032396290724 9.1111111111111143  -61.968032396290724 -9.1111111111111143  -61.968032396290724 -27.333333333333314  -61.968032396290724 -45.555555555555543  -61.968032396290724 -63.777777777777771  -61.968032396290724 -82 
 4 10 5 10
7 0 0  9 10 2  -394 -164  -394 -145.77777777777777  -394 -127.55555555555554  -394 -109.33333333333334  -394 -91.111111111111114  -394 -72.888888888888886  -394 -54.666666666666686  -394 -36.444444444444457  -394 -18.222222222222229  -394 0 
 4 10 5 10
7 0 0  1 2 2  -61.968032396290724 -82  71.538521749938354 -62 
 0 2 132 2
8 0 132
1 5 0 0 1 
7 0 0  9 10 2  71.538521749938354 62  71.538521749938354 48.222222222222229  71.538521749938354 34.444444444444457  71.538521749938354 20.666666666666686  71.538521749938354 6.8888888888888857  71.538521749938354 -6.8888888888888857  71.538521749938354 -20.666666666666686  71.538521749938354 -34.444444444444457  71.538521749938354 -48.222222222222229  71.538521749938354 -62 
 4 10 5 10
7 0 0  9 10 2  -354 -124  -354 -110.22222222222223  -354 -96.444444444444457  -354 -82.666666666666686  -354 -68.888888888888886  -354 -55.111111111111114  -354 -41.333333333333314  -354 -27.555555555555543  -354 -13.777777777777771  -354 0 
 4 10 5 10
8 5 6
1 0 0 1 0 
7 0 0  9 10 2  -394 0  -393.99999999999727 13.089969389955399  -391.42979072834521 26.179938967506473  -386.28937038681568 38.6931534870414  -378.72974045582259 50.052865866109528  -369.05286586605439 59.729740455765182  -357.69315348707903 67.289370386857854  -345.17993896748942 72.429790728325088  -332.08996938995961 75.000000000002558  -319 75 
 5 10 6 10
1 6 0 0 1 
7 0 0  1 2 2  -63.0343931864982 122  70.4721609597309 102 
 0 2 132 2
8 5 6
1 0 132 1 0 
7 0 0  9 10 2  -354 0  -353.99999999999648 13.089969389956991  -351.42979072834794 26.179938967499879  -346.28937038680988 38.693153487055781  -338.7297404558318 50.052865866088837  -329.05286586604336 59.7297404557861  -317.69315348708801 67.28937038684262  -305.17993896748465 72.429790728332534  -292.08996938996086 75.000000000000512  -279 75 
 5 10 6 10
7 0 0  9 10 2  -63.034393186498207 122  -63.034393186498207 94.888888888888914  -63.034393186498207 67.777777777777828  -63.034393186498207 40.666666666666629  -63.034393186498207 13.555555555555543  -63.034393186498207 -13.555555555555543  -63.034393186498207 -40.666666666666629  -63.034393186498207 -67.777777777777828  -63.034393186498207 -94.888888888888914  -63.034393186498214 -122 
 6 10 7 10
7 0 0  9 10 2  -319 75  -291.88888888888891 75  -264.77777777777783 75  -237.66666666666663 75  -210.55555555555554 75  -183.44444444444446 75  -156.33333333333337 75  -129.22222222222217 75  -102.11111111111109 75  -75 75.000000000000057 
 6 10 7 10
7 0 0  1 2 2  -63.0343931864982 -122  70.4721609597309 -102 
 0 2 132 2
8 0 132
1 7 0 0 1 
7 0 0  9 10 2  70.4721609597309 102  70.4721609597309 79.333333333333371  70.4721609597309 56.666666666666629  70.4721609597309 34  70.4721609597309 11.333333333333371  70.4721609597309 -11.333333333333371  70.4721609597309 -34  70.4721609597309 -56.666666666666629  70.4721609597309 -79.333333333333371  70.4721609597309 -102 
 6 10 7 10
7 0 0  9 10 2  -279 75  -256.33333333333337 75  -233.66666666666663 75  -211 75  -188.33333333333337 75  -165.66666666666663 75  -143 75  -120.33333333333337 75  -97.666666666666629 75  -75 75 
 6 10 7 10
8 7 8
1 0 0 1 0 
7 0 0  9 10 2  -75 75.000000000000057  -61.910030610043577 75.000000000000227  -48.820061032499893 72.429790728331966  -36.306846512942002 67.289370386844837  -24.947134133916165 59.729740455783769  -15.270259544207931 50.052865866089633  -7.7106296131618137 38.693153487056406  -2.5702092716653624 26.179938967499311  -2.2737367544323206e-13 13.089969389957048  0 0 
 7 10 8 10
8 7 8
1 0 132 1 0 
7 0 0  9 10 2  -75 75  -61.910030610042782 74.999999999999034  -48.820061032502849 72.429790728336116  -36.306846512935692 67.289370386837334  -24.947134133925488 59.729740455791784  -15.270259544198041 50.052865866084005  -7.7106296131694876 38.693153487059021  -2.570209271661497 26.179938967498515  -1.1368683772161603e-12 13.089969389957218  0 0 
 7 10 8 10
Curves 24
7 0 0  1 2 2  413 292 -15  433 272 -147 
 0 2 132 2
7 0 0  9 10 2  -82 197 -1.8651746813702646e-14  -63.777777777777779 197 -1.4605600679513182e-14  -45.555555555555557 197 -1.0559454545323722e-14  -27.333333333333332 197 -6.5133084111342585e-15  -9.1111111111111143 197 -2.4671622769448013e-15  9.1111111111111089 197 1.5789838572446585e-15  27.333333333333329 197 5.6251299914341191e-15  45.55555555555555 197 9.6712761256235799e-15  63.777777777777779 197 1.3717422259813042e-14  81.999999999999943 197.00000000000003 1.7763568394002498e-14 
 0 10 1 10
7 0 0  1 2 2  413 128.00000000000006 -15  433 148 -147 
 0 2 132 2
7 0 0  9 10 2  -62.000000000000014 177 -3.5527136788005136e-15  -48.222222222222271 177 -4.9343245538897042e-16  -34.444444444444485 177 2.5658487680225737e-15  -20.6666666666667 177 5.6251299914341152e-15  -6.8888888888889186 177 8.684411214845657e-15  6.8888888888888618 177 1.17436924382572e-14  20.666666666666643 177 1.4802973661668749e-14  34.444444444444429 177 1.7862254885080293e-14  48.222222222222214 177 2.0921536108491834e-14  61.999999999999972 177.00000000000003 2.3980817331903375e-14 
 0 10 1 10
7 0 0  9 10 2  81.999999999999943 197.00000000000003 1.7763568394002498e-14  95.089969389955215 196.99999999999849 2.0670125475675971e-14  108.17993896750586 194.42979072833839 2.3576682599003277e-14  120.69315348704394 189.28937038683145 2.6355174373337627e-14  132.05286586610589 181.72974045580253 2.8877537220606695e-14  141.72974045576882 172.05286586607232 3.1026235015779008e-14  149.28937038685515 160.69315348706726 3.270481005720548e-14  154.42979072832645 148.17993896749499 3.3846212661076618e-14  157.0000000000021 135.08996938995801 3.4416913763380269e-14  157 122 3.4416913763379853e-14 
 1 10 2 10
7 0 0  1 2 2  488 52.999999999999993 -15  508 72.999999999999972 -147 
 0 2 132 2
7 0 0  9 10 2  61.999999999999972 177.00000000000003 2.3980817331903375e-14  75.089969389955868 176.99999999999827 2.6887374413576901e-14  88.179938967502949 174.4297907283393 2.9793931536903968e-14  100.69315348704994 169.28937038682963 3.2572423311238822e-14  112.05286586609721 161.72974045580472 3.5094786158507155e-14  121.72974045577803 152.05286586607076 3.7243483953680333e-14  129.28937038684793 140.69315348706789 3.8922058995106003e-14  134.42979072833026 128.17993896749485 4.0063461598977709e-14  137.00000000000094 115.08996938995803 4.0634162701281045e-14  136.99999999999997 102 4.0634162701280729e-14 
 1 10 2 10
7 0 0  9 10 2  157 122 3.4416913763379853e-14  157 94.888888888888886 3.4416913763379853e-14  157 67.777777777777771 3.4416913763379853e-14  157 40.666666666666664 3.4416913763379853e-14  157 13.555555555555562 3.4416913763379853e-14  157 -13.555555555555554 3.4416913763379853e-14  157 -40.666666666666657 3.4416913763379853e-14  157 -67.777777777777771 3.4416913763379853e-14  157 -94.888888888888872 3.4416913763379853e-14  156.99999999999986 -121.99999999999983 3.4416913763379821e-14 
 2 10 3 10
7 0 0  1 2 2  731.99999999999977 53.000000000000142 -15  711.99999999999977 73.000000000000099 -147 
 0 2 132 2
7 0 0  9 10 2  136.99999999999997 102 4.0634162701280729e-14  136.99999999999997 79.333333333333329 4.0634162701280729e-14  136.99999999999997 56.666666666666671 4.0634162701280729e-14  136.99999999999997 34.000000000000007 4.0634162701280729e-14  136.99999999999997 11.333333333333336 4.0634162701280729e-14  136.99999999999997 -11.333333333333334 4.0634162701280729e-14  136.99999999999997 -34 4.0634162701280729e-14  136.99999999999997 -56.666666666666664 4.0634162701280729e-14  136.99999999999997 -79.333333333333343 4.0634162701280729e-14  136.99999999999986 -101.99999999999983 4.0634162701280692e-14 
 2 10 3 10
7 0 0  9 10 2  156.99999999999986 -121.99999999999983 3.4416913763379821e-14  156.99999999999858 -135.08996938995446 3.4416913763379184e-14  154.42979072833933 -148.17993896750841 3.3846212661080644e-14  149.28937038682807 -160.69315348703827 3.2704810057197112e-14  141.72974045580921 -172.05286586611561 3.1026235015790633e-14  132.05286586606408 -181.72974045575731 2.8877537220595625e-14  120.69315348707397 -189.28937038686442 2.6355174373344837e-14  108.17993896749137 -194.42979072832148 2.3576682599000081e-14  95.089969389959165 -197.0000000000035 2.0670125475676829e-14  82 -197 1.7763568394002501e-14 
 3 10 4 10
7 0 0  1 2 2  807 128 -15  787 148 -147 
 0 2 132 2
7 0 0  9 10 2  136.99999999999986 -101.99999999999983 4.0634162701280692e-14  136.99999999999807 -115.08996938995693 4.0634162701280067e-14  134.42979072834117 -128.17993896749871 4.0063461598981432e-14  129.28937038682366 -140.69315348706056 3.8922058995098165e-14  121.72974045581498 -152.05286586608011 3.7243483953691579e-14  112.05286586605881 -161.72974045579733 3.509478615849594e-14  100.69315348707715 -169.28937038683301 3.2572423311246628e-14  88.179938967489861 -174.42979072833757 2.9793931536900244e-14  75.089969389959563 -176.99999999999909 2.6887374413577955e-14  61.999999999999986 -177 2.3980817331903378e-14 
 3 10 4 10
7 0 0  9 10 2  82 -197 1.7763568394002501e-14  63.777777777777779 -197 1.3717422259813042e-14  45.555555555555557 -197 9.6712761256235767e-15  27.333333333333332 -197 5.6251299914341152e-15  9.1111111111111143 -197 1.5789838572446575e-15  -9.1111111111111089 -197 -2.4671622769448029e-15  -27.333333333333329 -197 -6.5133084111342633e-15  -45.55555555555555 -197 -1.0559454545323722e-14  -63.777777777777779 -197 -1.4605600679513182e-14  -82 -197 -1.8651746813702643e-14 
 4 10 5 10
7 0 0  1 2 2  807 292 -15  787 272 -147 
 0 2 132 2
7 0 0  9 10 2  61.999999999999986 -177 2.3980817331903378e-14  48.222222222222214 -177 2.0921536108491834e-14  34.444444444444429 -177 1.7862254885080287e-14  20.666666666666643 -177 1.4802973661668745e-14  6.8888888888888618 -177 1.1743692438257201e-14  -6.8888888888889186 -177 8.6844112148456586e-15  -20.6666666666667 -177 5.6251299914341167e-15  -34.444444444444485 -177 2.5658487680225733e-15  -48.222222222222257 -177 -4.9343245538897042e-16  -62.000000000000036 -177 -3.5527136788005136e-15 
 4 10 5 10
7 0 0  9 10 2  -82 -197 -1.8651746813702643e-14  -95.089969389955371 -196.99999999999727 -2.1558303895376298e-14  -108.17993896750649 -194.42979072834524 -2.4464861018702866e-14  -120.69315348704143 -189.28937038681565 -2.7243352793038945e-14  -132.0528658661095 -181.72974045582259 -2.9765715640304788e-14  -141.72974045576521 -172.05286586605442 -3.1914413435481317e-14  -149.28937038685785 -160.693153487079 -3.3592988476904122e-14  -154.42979072832506 -148.17993896748939 -3.4734391080777399e-14  -157.00000000000256 -135.08996938995955 -3.5305092183080268e-14  -157 -122 -3.5305092183079984e-14 
 5 10 6 10
7 0 0  1 2 2  732 367 -15  712 347 -147 
 0 2 132 2
7 0 0  9 10 2  -62.000000000000036 -177 -3.5527136788005136e-15  -75.089969389957005 -176.99999999999645 -6.4592707604742162e-15  -88.179938967499879 -174.42979072834794 -9.3658278838005557e-15  -100.69315348705581 -169.28937038680991 -1.2144319658137249e-14  -112.05286586608889 -161.72974045583183 -1.4666682505402081e-14  -121.72974045578616 -152.05286586604333 -1.6815380300579822e-14  -129.28937038684268 -140.69315348708801 -1.8493955342001419e-14  -134.42979072833256 -128.17993896748462 -1.9635357945875636e-14  -137.00000000000054 -115.08996938996087 -2.020605904817801e-14  -137.00000000000003 -102 -2.0206059048177871e-14 
 5 10 6 10
7 0 0  9 10 2  -157 -122 -3.5305092183079984e-14  -157 -94.888888888888886 -3.5305092183079984e-14  -157 -67.777777777777771 -3.5305092183079984e-14  -157 -40.666666666666664 -3.5305092183079984e-14  -157 -13.555555555555562 -3.5305092183079984e-14  -157 13.555555555555554 -3.5305092183079984e-14  -157 40.666666666666657 -3.5305092183079984e-14  -157 67.777777777777771 -3.5305092183079984e-14  -157 94.888888888888872 -3.5305092183079984e-14  -157.00000000000006 122 -3.5305092183079984e-14 
 6 10 7 10
7 0 0  1 2 2  488 367 -15  508 347 -147 
 0 2 132 2
7 0 0  9 10 2  -137.00000000000003 -102 -2.0206059048177871e-14  -137.00000000000003 -79.333333333333329 -2.0206059048177871e-14  -137.00000000000003 -56.666666666666671 -2.0206059048177871e-14  -137.00000000000003 -34.000000000000007 -2.0206059048177871e-14  -137.00000000000003 -11.333333333333336 -2.0206059048177871e-14  -137.00000000000003 11.333333333333334 -2.0206059048177871e-14  -137.00000000000003 34 -2.0206059048177871e-14  -137.00000000000003 56.666666666666664 -2.0206059048177871e-14  -137.00000000000003 79.333333333333343 -2.0206059048177871e-14  -137.00000000000003 101.99999999999999 -2.0206059048177862e-14 
 6 10 7 10
7 0 0  9 10 2  -157.00000000000006 122 -3.5305092183079984e-14  -157.00000000000026 135.08996938995642 -3.5305092183079555e-14  -154.42979072833197 148.17993896750014 -3.473439108077952e-14  -149.28937038684484 160.693153487058 -3.3592988476900531e-14  -141.72974045578377 172.05286586608381 -3.1914413435485602e-14  -132.05286586608966 181.72974045579207 -2.9765715640300926e-14  -120.69315348705643 189.28937038683821 -2.7243352793041557e-14  -108.17993896749933 194.42979072833467 -2.4464861018701689e-14  -95.089969389957048 196.9999999999998 -2.1558303895376579e-14  -82 197 -1.8651746813702646e-14 
 7 10 8 10
7 0 0  9 10 2  -137.00000000000003 101.99999999999999 -2.0206059048177862e-14  -136.99999999999906 115.08996938995725 -2.0206059048177729e-14  -134.42979072833612 128.17993896749712 -1.9635357945876492e-14  -129.28937038683736 140.69315348706431 -1.8493955341999989e-14  -121.72974045579184 152.05286586607454 -1.681538030058158e-14  -112.05286586608405 161.72974045580196 -1.46666825054004e-14  -100.69315348705906 169.28937038683051 -1.2144319658138474e-14  -88.179938967498529 174.4297907283385 -9.3658278837999656e-15  -75.089969389957247 176.99999999999889 -6.4592707604743701e-15  -62.000000000000014 177 -3.5527136788005136e-15 
 7 10 8 10
Polygon3D 0
PolygonOnTriangulations 0
Surfaces 10
1 422.2831446055327 210.00000000000009 -76.268754396515277 -0.98871550422476662 2.240463411490417e-17 -0.14980537942799504 -0.14980537942799504 -1.1555579666323415e-33 0.98871550422476662 -2.2151809115888884e-17 -1 -3.3563347145286225e-18 
9 0 0 0 0 9 1 10 2 2 2 488 367 -15  508 347 -147  
474.91003061004358 367.00000000000023 -15  494.91003061004278 346.99999999999909 -147  
461.82006103249984 364.42979072833197 -15  481.82006103250279 344.42979072833617 -147  
449.30684651294195 359.28937038684484 -15  469.30684651293569 339.28937038683733 -147  
437.94713413391622 351.72974045578383 -15  457.94713413392554 331.72974045579178 -147  
428.27025954420793 342.05286586608958 -15  448.27025954419804 322.05286586608401 -147  
420.71062961316187 330.69315348705641 -15  440.71062961316949 310.69315348705902 -147  
415.57020927166536 318.17993896749931 -15  435.5702092716615 298.17993896749852 -147  
413.00000000000023 305.08996938995699 -15  433.00000000000114 285.08996938995722 -147  
413 292 -15  433 272 -147  

7 10
8 10

0 2
132 2

1 413 292 -14.999999999999998 0 0 -1 -1 0 -0 0 1 0 
9 0 0 0 0 9 1 10 2 2 2 413 128.00000000000006 -15  433 148 -147  
413.00000000000148 114.9100306100448 -15  433.00000000000171 134.91003061004409 -147  
415.57020927166161 101.82006103249417 -15  435.5702092716607 121.82006103249704 -147  
420.71062961316852 89.306846512956056 -15  440.71062961317034 109.30684651295003 -147  
428.27025954419753 77.947134133894139 -15  448.27025954419526 97.947134133902779 -147  
437.94713413392765 68.270259544231195 -15  457.94713413392924 88.270259544221958 -147  
449.30684651293268 60.710629613144846 -15  469.30684651293211 80.710629613152037 -147  
461.82006103250501 55.570209271673541 -15  481.82006103250512 75.570209271669725 -147  
474.91003061004199 52.999999999997897 -15  494.91003061004199 72.999999999999019 -147  
488 52.999999999999993 -15  508 72.999999999999972 -147  

1 10
2 10

0 2
132 2

1 433 272 -147 0 0 -1 -1 0 -0 0 1 0 
1 609.99999999999989 62.442891188316807 -77.323081842890744 -4.5296233636686742e-16 0.98871550422476673 0.14980537942799493 0 -0.14980537942799493 0.98871550422476673 1 4.4785088479579557e-16 6.7856194666029624e-17 
9 0 0 0 0 9 1 10 2 2 2 731.99999999999977 53.000000000000142 -15  711.99999999999977 73.000000000000099 -147  
745.0899693899546 53.000000000001421 -15  725.08996938995688 73.000000000001904 -147  
758.17993896750829 55.570209271660666 -15  738.17993896749874 75.570209271658783 -147  
770.69315348703822 60.710629613171932 -15  750.6931534870605 80.710629613176309 -147  
782.05286586611555 68.270259544190793 -15  762.05286586608008 88.270259544184995 -147  
791.72974045575734 77.947134133935918 -15  771.72974045579736 97.947134133941177 -147  
799.28937038686445 89.306846512926029 -15  779.28937038683307 109.30684651292282 -147  
804.42979072832145 101.82006103250863 -15  784.42979072833759 121.82006103251011 -147  
807.00000000000364 114.91003061004083 -15  786.99999999999909 134.91003061004039 -147  
807 128 -15  787 148 -147  

3 10
4 10

0 2
132 2

1 797.71685539446742 210 -76.268754396515263 -0.98871550422476662 7.1913746448467217e-19 0.14980537942799499 -0.14980537942799499 0 -0.98871550422476662 -7.1102236080488285e-19 -1 1.0773066072801258e-19 
9 0 0 0 0 9 1 10 2 2 2 807 292 -15  787 272 -147  
806.99999999999716 305.0899693899554 -15  786.99999999999648 285.08996938995699 -147  
804.42979072834521 318.17993896750653 -15  784.42979072834794 298.17993896749994 -147  
799.28937038681579 330.69315348704134 -15  779.28937038680988 310.69315348705578 -147  
791.72974045582271 342.05286586610947 -15  771.7297404558318 322.05286586608878 -147  
782.05286586605428 351.72974045576518 -15  762.05286586604336 331.7297404557861 -147  
770.69315348707914 359.28937038685785 -15  750.69315348708801 339.28937038684262 -147  
758.17993896748942 364.42979072832514 -15  738.17993896748465 344.42979072833253 -147  
745.08996938995972 367.00000000000256 -15  725.08996938996086 347.00000000000051 -147  
732 367 -15  712 347 -147  

5 10
6 10

0 2
132 2

1 610 357.55710881168318 -77.323081842890758 1.7310201063151603e-17 0.98871550422476662 -0.14980537942799496 0 -0.14980537942799496 -0.98871550422476662 1 -1.711486417238603e-17 2.5931612382403078e-18 
Triangulations 0

TShapes 62
Ve
1.01e-07
413 292 -3
0 0

0101101
*
Ve
1.01e-07
433 272 -135
0 0

0101101
*
Ed
 1e-07 1 1 0
1  1 0 0 132
2  1 1 0 0 132
2  2 2 0 0 132
4 G1 1 0 2 0
0

0101000
+62 2 -61 2 *
Ve
1.01e-07
413 128 -3
0 0

0101101
*
Ed
 1e-07 1 1 0
1  2 0 0 1
2  3 1 4 0 1
2  4 3 4 0 1
0

0101000
+62 5 -59 5 *
Ve
1.01e-07
433 148 -135
0 0

0101101
*
Ed
 1e-07 1 1 0
1  3 0 0 132
2  5 1 0 0 132
2  6 4 0 0 132
4 G1 1 0 4 0
0

0101000
+59 2 -57 2 *
Ed
 1e-07 1 1 0
1  4 0 0 1
2  7 1 7 0 1
2  8 5 7 0 1
0

0101000
+61 8 -57 8 *
Wi

0101100
-60 0 +58 3 +56 0 -55 6 *
Fa
0  1e-07 1 0

0101000
+54 0 *
Ve
1.01e-07
488 53 -3
0 0

0101101
*
Ed
 1e-07 1 1 0
1  5 0 1 2
2  9 4 4 1 2
2  10 3 4 1 2
0

0101000
+59 5 -52 5 *
Ve
1.01e-07
508 73 -135
0 0

0101101
*
Ed
 1e-07 1 1 0
1  6 0 0 132
2  11 4 0 0 132
2  12 6 0 0 132
4 G1 4 0 6 0
0

0101000
+52 2 -50 2 *
Ed
 1e-07 1 1 0
1  7 0 1 2
2  13 4 7 1 2
2  14 5 7 1 2
0

0101000
+57 8 -50 8 *
Wi

0101100
-56 0 +51 3 +49 0 -48 6 *
Fa
0  1e-07 4 0

0101000
+47 0 *
Ve
1.01e-07
732 53.0000000000001 -3
0 0

0101101
*
Ed
 1e-07 1 1 0
1  8 0 2 3
2  15 6 4 2 3
2  16 3 4 2 3
0

0101000
+52 5 -45 5 *
Ve
1.01e-07
712 73.0000000000001 -135
0 0

0101101
*
Ed
 1e-07 1 1 0
1  9 0 0 132
2  17 6 0 0 132
2  18 7 0 0 132
4 G1 6 0 7 0
0

0101000
+45 2 -43 2 *
Ed
 1e-07 1 1 0
1  10 0 2 3
2  19 6 7 2 3
2  20 5 7 2 3
0

0101000
+50 8 -43 8 *
Wi

0101100
-49 0 +44 3 +42 0 -41 6 *
Fa
0  1e-07 6 0

0101000
+40 0 *
Ve
1.01e-07
807 128 -3
0 0

0101101
*
Ed
 1e-07 1 1 0
1  11 0 3 4
2  21 7 4 3 4
2  22 3 4 3 4
0

0101000
+45 5 -38 5 *
Ve
1.01e-07
787 148 -135
0 0

0101101
*
Ed
 1e-07 1 1 0
1  12 0 0 132
2  23 7 0 0 132
2  24 8 0 0 132
4 G1 7 0 8 0
0

0101000
+38 2 -36 2 *
Ed
 1e-07 1 1 0
1  13 0 3 4
2  25 7 7 3 4
2  26 5 7 3 4
0

0101000
+43 8 -36 8 *
Wi

0101100
-42 0 +37 3 +35 0 -34 6 *
Fa
0  1e-07 7 0

0101000
+33 0 *
Ve
1.01e-07
807 292 -3
0 0

0101101
*
Ed
 1e-07 1 1 0
1  14 0 4 5
2  27 8 4 4 5
2  28 3 4 4 5
0

0101000
+38 5 -31 5 *
Ve
1.01e-07
787 272 -135
0 0

0101101
*
Ed
 1e-07 1 1 0
1  15 0 0 132
2  29 8 0 0 132
2  30 9 0 0 132
4 G1 8 0 9 0
0

0101000
+31 2 -29 2 *
Ed
 1e-07 1 1 0
1  16 0 4 5
2  31 8 7 4 5
2  32 5 7 4 5
0

0101000
+36 8 -29 8 *
Wi

0101100
-35 0 +30 3 +28 0 -27 6 *
Fa
0  1e-07 8 0

0101000
+26 0 *
Ve
1.01e-07
732 367 -3
0 0

0101101
*
Ed
 1e-07 1 1 0
1  17 0 5 6
2  33 9 4 5 6
2  34 3 4 5 6
0

0101000
+31 5 -24 5 *
Ve
1.01e-07
712 347 -135
0 0

0101101
*
Ed
 1e-07 1 1 0
1  18 0 0 132
2  35 9 0 0 132
2  36 10 0 0 132
4 G1 9 0 10 0
0

0101000
+24 2 -22 2 *
Ed
 1e-07 1 1 0
1  19 0 5 6
2  37 9 7 5 6
2  38 5 7 5 6
0

0101000
+29 8 -22 8 *
Wi

0101100
-28 0 +23 3 +21 0 -20 6 *
Fa
0  1e-07 9 0

0101000
+19 0 *
Ve
1.01e-07
488 367 -3
0 0

0101101
*
Ed
 1e-07 1 1 0
1  20 0 6 7
2  39 10 4 6 7
2  40 3 4 6 7
0

0101000
+24 5 -17 5 *
Ve
1.01e-07
508 347 -135
0 0

0101101
*
Ed
 1e-07 1 1 0
1  21 0 0 132
2  41 10 0 0 132
2  42 2 0 0 132
4 G1 10 0 2 0
0

0101000
+17 2 -15 2 *
Ed
 1e-07 1 1 0
1  22 0 6 7
2  43 10 7 6 7
2  44 5 7 6 7
0

0101000
+22 8 -15 8 *
Wi

0101100
-21 0 +16 3 +14 0 -13 6 *
Fa
0  1e-07 10 0

0101000
+12 0 *
Ed
 1e-07 1 1 0
1  23 0 7 8
2  45 2 4 7 8
2  46 3 4 7 8
0

0101000
+17 5 -62 5 *
Ed
 1e-07 1 1 0
1  24 0 7 8
2  47 2 7 7 8
2  48 5 7 7 8
0

0101000
+15 8 -61 8 *
Wi

0101100
-14 0 +10 3 +60 0 -9 6 *
Fa
0  1e-07 2 0

0101000
+8 0 *
Wi

0101100
+58 3 +51 3 +44 3 +37 3 +30 3 +23 3 +16 3 +10 3 *
Fa
0  1e-07 3 0

0101000
-6 0 *
Wi

0101100
+55 6 +48 6 +41 6 +34 6 +27 6 +20 6 +13 6 +9 6 *
Fa
0  1e-07 5 0

0101000
-4 0 *
Sh

0101100
+53 0 +46 0 +39 0 +32 0 +25 0 +18 0 +11 0 +7 0 +5 0 -3 0 
*
So

1100100
-2 0 *

+1 1 