DBRep_DrawableShape

CASCADE Topology V1, (c) Matra-Datavision
Locations 14
1
              1               0               0               0 
              0               1               0               0 
              0               0               1               0 
1
              1               0               0               0 
              0               1               0               0 
              0               0               1               0 
1
              1               0               0               0 
              0               1               0               0 
              0               0               1               0 
2  2 1 3 -1 0
2  1 -1 3 1 2 -1 0
2  1 -1 0
1
              1               0               0              -0 
              0               1               0               0 
              0               0               1            1910 
1
              1               0               0               0 
              0               1               0               0 
              0               0               1               1 
1
              1               0               0              -0 
              0               1               0              -0 
              0               0               1           -1811 
2  7 1 8 1 3 -1 9 1 0
2  9 -1 3 1 8 -1 7 -1 0
2  7 -1 0
2  1 -1 9 -1 3 1 8 -1 7 -1 0
2  8 1 3 -1 9 1 0
Curve2ds 84
1 0 0 1 0 
1 0 0 1 0 
1 1910 0 0 -1 
1 0 0 0 1 
1 0 -915 1 0 
1 0 0 1 0 
1 0 0 0 -1 
1 0 0 0 1 
1 0 0 0 1 
1 0 0 1 0 
1 0 915 1 0 
1 0 0 1 0 
1 1910 0 0 1 
1 0 0 1 0 
2 239.99999967473869 820 0 -1 1 0 20
1 -1.5707963267948966 -1 1 0 
8 -374.76649184812919 -134.35030695082963
1 -39.142188851749545 569.1423425228445 -0.70710712780479401 -0.70710643456813116 
8 -374.76649184812919 -134.35030695082963
1 374.76649184812919 -1 1 0 
2 70 650.00016699057653 0 -1 1 0 20
1 -1.5707963267948966 -1 1 0 
8 50.000000103083785 600.00016697317437
1 50 50.000000103083785 0 1 
8 50.000000103083785 600.00016697317437
1 -50.000000103083785 -1 1 0 
2 70 100 0 -1 1 0 20
1 -1.5707963267948966 -1 1 0 
8 34.99999960531904 809.99995915713691
1 34.99999960531904 80.000000000000014 1 0 
8 34.99999960531904 809.99995915713691
1 -34.99999960531904 -1 1 0 
2 845 100 0 -1 1 0 20
1 -1.5707963267948966 -1 1 0 
8 -410.0000035776809 310.00001073761496
1 865 410.0000035776809 0 -1 
8 -410.0000035776809 310.00001073761496
1 410.0000035776809 -1 1 0 
2 845 820 0 -1 1 0 20
1 -1.5707963267948966 -1 1 0 
8 120 724.99995876158494
1 120 840 1 0 
8 120 724.99995876158494
1 -120 -1 1 0 
1 0 915 1 0 
1 1910 0 0 1 
1 915 0 0 1 
1 1910 0 0 -1 
1 0 0 0 1 
1 0 915 1 0 
1 0 915 1 0 
1 0 -915 1 0 
1 915 0 0 1 
1 0 0 0 -1 
1 2.3561941546382661 0 0 -1 
1 1.2058308112392845e-13 0 0 -1 
1 0 -1811 1 0 
2 -3.2526131121812796e-07 -20 1 0 -0 1 19.999999999999972
1 1.5707963105318312 0 0 -1 
1 0 0 0 -1 
1 240.41618489729956 0 0 -1 
1 2.3561940348386607 0 0 -1 
1 -0 -1811 1 0 
1 -14.142131203540174 -5.8578596308183251 -0.70710712780479401 -0.70710643456813116 
1 3.1415926493057156 0 0 -1 
1 550.00016687009054 0 0 -1 
1 0 -1811 1 0 
2 -170 -189.99983300942347 1 0 -0 1 20
1 0 -1811 1 0 
1 -190 -739.99999979383244 0 1 
1 0 0 0 -1 
1 3.1415926432814145 0 0 -1 
1 4.7123889409165942 0 0 -1 
1 0 0 0 -1 
1 0 -1811 1 0 
2 -170 -740 1 0 -0 1 20
1 774.99995955181782 0 0 -1 
1 4.7123869185074803 0 0 -1 
1 0 -1811 1 0 
1 -170.00000078936193 -760 1 0 
1 6.283184949182882 0 0 -1 
1 720.00001431529586 0 0 -1 
1 0 -1811 1 0 
2 605 -740 1 0 -0 1 20
1 0 -1811 1 0 
1 625 -19.9999928446382 0 -1 
1 0 0 0 -1 
1 3.5776809269742789e-07 0 0 -1 
1 1.5707983887156545 0 0 -1 
1 604.99995876158482 0 0 -1 
1 0 -1811 1 0 
2 605 -20 1 0 -0 1 20
1 0 -1811 1 0 
1 0 0 1 0 
Curves 42
1 0 0 0 0 0 1 
1 0 0 1910 -0 1 0 
1 0 915 0 0 0 1 
1 0 0 0 -0 1 0 
1 0 0 0 1 0 -0 
1 915 0 0 0 0 1 
1 0 0 1910 1 0 -0 
2 239.99999967473869 820 1910 0 0 1 0 -1 0 1 0 -0 20
1 -39.142188851749545 569.1423425228445 1910 -0.70710712780479401 -0.70710643456813116 0 
2 70 650.00016699057653 1910 0 0 1 0 -1 0 1 0 -0 20
1 50 50.000000103083785 1910 0 1 0 
2 70 100 1910 0 0 1 0 -1 0 1 0 -0 20
1 34.99999960531904 80.000000000000014 1910 1 0 -0 
2 845 100 1910 0 0 1 0 -1 0 1 0 -0 20
1 865 410.0000035776809 1910 0 -1 0 
2 845 820 1910 0 0 1 0 -1 0 1 0 -0 20
1 120 840 1910 1 0 -0 
1 0 915 1910 1 0 -0 
1 915 0 1910 0 1 0 
1 0 915 0 1 0 -0 
1 915 915 0 0 0 1 
1 915 0 0 -0 1 0 
1 225.85786879645983 834.14214036918156 1911 -0 -0 -1 
2 239.99999967473869 820 0 0 0 1 1 0 -0 -0 1 0 20
1 240 840 1911 -0 -0 -1 
1 55.857870815944054 664.1423090539796 1911 -0 -0 -1 
1 225.85786879645983 834.14214036918167 0 -0.70710712780479401 -0.70710643456813116 0 
1 50 650.00016707625809 1911 -0 -0 -1 
2 70 650.00016699057653 0 0 0 1 1 0 -0 -0 1 0 20
1 50 100.00000020616757 0 0 1 0 
1 50 100.00000020616757 1911 -0 -0 -1 
1 69.99999921063808 80.000000000000014 1911 -0 -0 -1 
2 70 100 0 0 0 1 1 0 -0 -0 1 0 20
1 844.99995876245589 80.000000000021259 1911 -0 -0 -1 
1 69.99999921063808 80.000000000000014 0 1 0 0 
1 864.99999999999932 99.999992840065929 1911 -0 -0 -1 
2 845 100 0 0 0 1 1 0 -0 -0 1 0 20
1 865 820.0000071553618 0 0 -1 0 
1 864.99999999999932 820.0000071553618 1911 -0 -0 -1 
1 844.99995876158482 839.99999999997874 1911 -0 -0 -1 
2 845 820 0 0 0 1 1 0 -0 -0 1 0 20
1 240 840 0 1 0 0 
Polygon3D 0
PolygonOnTriangulations 0
Surfaces 17
1 0 0 0 1 0 -0 0 0 1 0 -1 0 
1 0 0 0 -0 1 0 0 0 1 1 0 -0 
1 0 0 1910 0 0 1 1 0 -0 -0 1 0 
1 0 915 0 -0 1 0 0 0 1 1 0 -0 
1 0 0 0 0 0 1 1 0 -0 -0 1 0 
1 915 0 0 1 0 -0 0 0 1 0 -1 0 
2 239.99999967473869 820 1911 0 0 1 1 0 -0 -0 1 0 20
1 225.85786879645983 834.14214036918167 1911 -0.70710643456813116 0.70710712780479401 0 -0.70710712780479401 -0.70710643456813116 0 0 0 1 
2 70 650.00016699057653 1911 0 0 1 1 0 -0 -0 1 0 20
1 50 100.00000020616757 1911 1 0 0 -0 1 0 0 -0 1 
2 70 100 1911 0 0 1 1 0 -0 -0 1 0 20
1 69.99999921063808 80.000000000000014 1911 0 -1 0 1 0 0 -0 0 1 
2 845 100 1911 0 0 1 1 0 -0 -0 1 0 20
1 865 820.0000071553618 1911 -1 0 0 0 -1 0 0 0 1 
2 845 820 1911 0 0 1 1 0 -0 -0 1 0 20
1 240 840 1911 0 -1 0 1 0 0 -0 0 1 
1 240 840 1910 -0 0 1 1 0 0 0 1 -0 
Triangulations 0

TShapes 107
Ve
1e-07
0 0 1910
0 0

0101101
*
Ve
1e-07
0 0 0
0 0

0101101
*
Ed
 1e-07 1 1 0
1  1 0 0 1910
2  1 1 0 0 1910
2  2 2 0 0 1910
0

0101000
-107 5 +106 5 *
Ve
1e-07
0 915 1910
0 0

0101101
*
Ed
 1e-07 1 1 0
1  2 0 0 915
2  3 1 0 0 915
2  4 3 0 0 915
0

0101000
-104 5 +107 5 *
Ve
1e-07
0 915 0
0 0

0101101
*
Ed
 1e-07 1 1 0
1  3 0 0 1910
2  5 1 0 0 1910
2  6 4 0 0 1910
0

0101000
-104 5 +102 5 *
Ed
 1e-07 1 1 0
1  4 0 0 915
2  7 1 0 0 915
2  8 5 0 0 915
0

0101000
-102 5 +106 5 *
Wi

0101000
-105 0 -103 0 +101 0 +100 0 *
Fa
0  1e-07 1 0

0101000
+99 0 *
Ve
1e-07
915 0 0
0 0

0101101
*
Ed
 1e-07 1 1 0
1  5 0 0 915
2  9 2 0 0 915
2  10 5 0 0 915
0

0101000
-97 5 +106 5 *
Ve
1e-07
915 0 1910
0 0

0101101
*
Ed
 1e-07 1 1 0
1  6 0 0 1910
2  11 2 0 0 1910
2  12 6 0 0 1910
0

0101000
-95 5 +97 5 *
Ed
 1e-07 1 1 0
1  7 0 0 915
2  13 2 0 0 915
2  14 3 0 0 915
0

0101000
-95 5 +107 5 *
Wi

0101000
-96 0 -94 0 +93 0 +105 0 *
Fa
0  1e-07 2 0

0101000
+92 0 *
Ve
0.00102371432444572
240 840 1910
0 0

0101101
*
Ve
2.00001113686838e-07
225.85786879646 834.142140369182 1910
0 0

0101101
*
Ed
 1e-07 1 1 0
1  8 0 3.14159263732673 3.92699048143316
2  15 3 4 3.14159263732673 3.92699048143316
2  16 7 0 3.14159263732673 3.92699048143316
0

0101000
+90 6 -89 6 *
Ve
2.00001017763568e-07
55.8578708159441 664.14230905398 1910
0 0

0101101
*
Ed
 1e-07 1 1 0
1  9 0 -374.766491848129 -134.35030695083
2  17 3 4 -374.766491848129 -134.35030695083
2  18 8 0 -374.766491848129 -134.35030695083
0

0101000
+89 6 -87 6 *
Ve
0.000511707151663886
50 650.000167076258 1910
0 0

0101101
*
Ed
 1e-07 1 1 0
1  10 0 3.92699036163356 4.71238897610061
2  19 3 4 3.92699036163356 4.71238897610061
2  20 9 0 3.92699036163356 4.71238897610061
0

0101000
+87 6 -85 6 *
Ve
2.00001e-07
50 100.000000206168 1910
0 0

0101101
*
Ed
 1e-07 1 1 0
1  11 0 50.0000001030838 600.000166973174
2  21 3 4 50.0000001030838 600.000166973174
2  22 10 0 50.0000001030838 600.000166973174
0

0101000
+83 6 -85 6 *
Ve
2.00001e-07
69.9999992106381 80 1910
0 0

0101101
*
Ed
 1e-07 1 1 0
1  12 0 4.71238897007631 6.28318526771149
2  23 3 4 4.71238897007631 6.28318526771149
2  24 11 0 4.71238897007631 6.28318526771149
0

0101000
+83 6 -81 6 *
Ve
2.00022252409246e-07
844.999958762456 80.0000000000213 1910
0 0

0101101
*
Ed
 1e-07 1 1 0
1  13 0 34.999999605319 809.999959157137
2  25 3 4 34.999999605319 809.999959157137
2  26 12 0 34.999999605319 809.999959157137
0

0101000
+81 6 -79 6 *
Ve
2.00001625439074e-07
864.999999999999 99.9999928400659 1910
0 0

0101101
*
Ed
 1e-07 1 1 0
1  14 0 6.28318324530238 7.85398127597778
2  27 3 4 6.28318324530238 7.85398127597778
2  28 13 0 6.28318324530238 7.85398127597778
0

0101000
+79 6 -77 6 *
Ve
2.00001625277607e-07
864.999999999999 820.000007155362 1910
0 0

0101101
*
Ed
 1e-07 1 1 0
1  15 0 -410.000003577681 310.000010737615
2  29 3 4 -410.000003577681 310.000010737615
2  30 14 0 -410.000003577681 310.000010737615
0

0101000
+75 6 -77 6 *
Ve
2.00022259514648e-07
844.999958761585 839.999999999979 1910
0 0

0101101
*
Ed
 1e-07 1 1 0
1  16 0 1.57079668456299 3.14159471551055
2  31 3 4 1.57079668456299 3.14159471551055
2  32 15 0 1.57079668456299 3.14159471551055
0

0101000
+75 6 -73 6 *
Ed
 1e-07 1 1 0
1  17 0 120 724.999958761585
2  33 3 4 120 724.999958761585
2  34 16 0 120 724.999958761585
0

0101000
+90 6 -73 6 *
Wi

0101000
-88 0 -86 0 -84 0 +82 0 -80 0 -78 0 -76 0 +74 0 -72 0 +71 0 
*
Ve
1e-07
915 915 1910
0 0

0101101
*
Ed
 1e-07 1 1 0
1  18 0 0 915
2  35 3 0 0 915
2  36 4 0 0 915
0

0101000
-69 5 +104 5 *
Ed
 1e-07 1 1 0
1  19 0 0 915
2  37 3 0 0 915
2  38 6 0 0 915
0

0101000
-69 5 +95 5 *
Wi

0101000
-103 4 -68 4 +93 4 +67 4 *
Fa
0  1e-07 3 4

0101000
+70 0 +66 0 *
Ve
1e-07
915 915 0
0 0

0101101
*
Ed
 1e-07 1 1 0
1  20 0 0 915
2  39 4 0 0 915
2  40 5 0 0 915
0

0101000
-64 5 +102 5 *
Ed
 1e-07 1 1 0
1  21 0 0 1910
2  41 4 0 0 1910
2  42 6 0 0 1910
0

0101000
-69 5 +64 5 *
Wi

0101000
-63 0 -62 0 +68 0 +101 0 *
Fa
0  1e-07 4 0

0101000
+61 0 *
Ed
 1e-07 1 1 0
1  22 0 0 915
2  43 5 0 0 915
2  44 6 0 0 915
0

0101000
-64 5 +97 5 *
Wi

0101000
-100 0 -63 0 +59 0 +96 0 *
Fa
0  1e-07 5 0

0101000
+58 0 *
Wi

0101000
-94 0 -67 0 +62 0 +59 0 *
Fa
0  1e-07 6 0

0101000
+56 0 *
Ve
1.00000113686838e-07
225.85786879646 834.142140369182 100
0 0

0101101
*
Ed
 1.00000113686838e-07 1 1 0
1  23 0 0.999999999999895 1811
2  45 7 0 0.999999999999895 1811
2  46 8 0 0.999999999999895 1811
4 G1 7 0 8 0
0

0101000
+89 6 -54 6 *
Ve
1e-07
240 840 100
0 0

0101101
*
Ed
 1e-07 1 1 0
1  24 0 1.57079631053183 2.35619415463827
2  47 7 11 1.57079631053183 2.35619415463827
2  48 17 12 1.57079631053183 2.35619415463827
0

0101000
+52 13 -54 13 *
Ed
 1e-07 1 1 0
1  25 0 1.00000000000009 1811
2  49 7 0 1.00000000000009 1811
2  50 16 0 1.00000000000009 1811
4 G1 7 0 16 0
0

0101000
+90 6 -52 6 *
Wi

0101000
-88 0 -53 0 +51 10 +50 0 *
Fa
0  1e-07 7 0

0101000
+49 0 *
Ve
1.00000017763568e-07
55.8578708159441 664.14230905398 100
0 0

0101101
*
Ed
 1.00000017763568e-07 1 1 0
1  26 0 1.00000000000009 1811
2  51 8 0 1.00000000000009 1811
2  52 9 0 1.00000000000009 1811
4 G1 8 0 9 0
0

0101000
+87 6 -47 6 *
Ed
 1e-07 1 1 0
1  27 0 0 240.4161848973
2  53 8 11 0 240.4161848973
2  54 17 12 0 240.4161848973
0

0101000
+54 13 -47 13 *
Wi

0101000
-86 0 -46 0 +45 10 +53 0 *
Fa
0  1e-07 8 0

0101000
+44 0 *
Ve
1e-07
50 650.000167076258 100
0 0

0101101
*
Ed
 1e-07 1 1 0
1  28 0 1.00000000000009 1811
2  55 9 0 1.00000000000009 1811
2  56 10 0 1.00000000000009 1811
4 G1 9 0 10 0
0

0101000
+85 6 -42 6 *
Ed
 1e-07 1 1 0
1  29 0 2.35619403483866 3.14159264930572
2  57 9 11 2.35619403483866 3.14159264930572
2  58 17 12 2.35619403483866 3.14159264930572
0

0101000
+47 13 -42 13 *
Wi

0101000
-84 0 -41 0 +40 10 +46 0 *
Fa
0  1e-07 9 0

0101000
+39 0 *
Ve
1e-07
50 100.000000206168 100
0 0

0101101
*
Ed
 1e-07 1 1 0
1  30 0 0 550.000166870091
2  59 10 11 0 550.000166870091
2  60 17 12 0 550.000166870091
0

0101000
+37 13 -42 13 *
Ed
 1e-07 1 1 0
1  31 0 1.00000000000009 1811
2  61 10 0 1.00000000000009 1811
2  62 11 0 1.00000000000009 1811
4 G1 10 0 11 0
0

0101000
+83 6 -37 6 *
Wi

0101000
-82 0 -41 0 +36 10 +35 0 *
Fa
0  1e-07 10 0

0101000
+34 0 *
Ve
1e-07
69.9999992106381 80 100
0 0

0101101
*
Ed
 1e-07 1 1 0
1  32 0 1.00000000000008 1811
2  63 11 0 1.00000000000008 1811
2  64 12 0 1.00000000000008 1811
4 G1 11 0 12 0
0

0101000
+81 6 -32 6 *
Ed
 1e-07 1 1 0
1  33 0 3.14159264328141 4.71238894091659
2  65 11 11 3.14159264328141 4.71238894091659
2  66 17 12 3.14159264328141 4.71238894091659
0

0101000
+37 13 -32 13 *
Wi

0101000
-80 0 -31 0 +30 10 +35 0 *
Fa
0  1e-07 11 0

0101000
+29 0 *
Ve
1.00021252409246e-07
844.999958762456 80.0000000000213 100
0 0

0101101
*
Ed
 1.00021252409246e-07 1 1 0
1  34 0 1.00000000000008 1811
2  67 12 0 1.00000000000008 1811
2  68 13 0 1.00000000000008 1811
4 G1 12 0 13 0
0

0101000
+79 6 -27 6 *
Ed
 1e-07 1 1 0
1  35 0 0 774.999959551818
2  69 12 11 0 774.999959551818
2  70 17 12 0 774.999959551818
0

0101000
+32 13 -27 13 *
Wi

0101000
-78 0 -26 0 +25 10 +31 0 *
Fa
0  1e-07 12 0

0101000
+24 0 *
Ve
1.00000625439074e-07
864.999999999999 99.9999928400659 100
0 0

0101101
*
Ed
 1.00000625439074e-07 1 1 0
1  36 0 0.999999999999912 1811
2  71 13 0 0.999999999999912 1811
2  72 14 0 0.999999999999912 1811
4 G1 13 0 14 0
0

0101000
+77 6 -22 6 *
Ed
 1e-07 1 1 0
1  37 0 4.71238691850748 6.28318494918288
2  73 13 11 4.71238691850748 6.28318494918288
2  74 17 12 4.71238691850748 6.28318494918288
0

0101000
+27 13 -22 13 *
Wi

0101000
-76 0 -21 0 +20 10 +26 0 *
Fa
0  1e-07 13 0

0101000
+19 0 *
Ve
1.00000625277607e-07
864.999999999999 820.000007155362 100
0 0

0101101
*
Ed
 1e-07 1 1 0
1  38 0 0 720.000014315296
2  75 14 11 0 720.000014315296
2  76 17 12 0 720.000014315296
0

0101000
+17 13 -22 13 *
Ed
 1.00000625277607e-07 1 1 0
1  39 0 0.999999999999912 1811
2  77 14 0 0.999999999999912 1811
2  78 15 0 0.999999999999912 1811
4 G1 14 0 15 0
0

0101000
+75 6 -17 6 *
Wi

0101000
-74 0 -21 0 +16 10 +15 0 *
Fa
0  1e-07 14 0

0101000
+14 0 *
Ve
1.00021259514648e-07
844.999958761585 839.999999999979 100
0 0

0101101
*
Ed
 1.00021259514648e-07 1 1 0
1  40 0 1.00000000000007 1811
2  79 15 0 1.00000000000007 1811
2  80 16 0 1.00000000000007 1811
4 G1 15 0 16 0
0

0101000
+73 6 -12 6 *
Ed
 1e-07 1 1 0
1  41 0 3.57768092697428e-07 1.57079838871565
2  81 15 11 3.57768092697428e-07 1.57079838871565
2  82 17 12 3.57768092697428e-07 1.57079838871565
0

0101000
+17 13 -12 13 *
Wi

0101000
-72 0 -11 0 +10 10 +15 0 *
Fa
0  1e-07 15 0

0101000
+9 0 *
Ed
 1e-07 1 1 0
1  42 0 0 604.999958761585
2  83 16 11 0 604.999958761585
2  84 17 12 0 604.999958761585
0

0101000
+52 13 -12 13 *
Wi

0101000
-71 0 -11 0 +7 10 +50 0 *
Fa
0  1e-07 16 0

0101000
+6 0 *
Wi

0101100
+7 7 -10 7 +16 7 -20 7 -25 7 -30 7 +36 7 -40 7 -45 7 -51 7 
*
Fa
0  1e-07 17 0

0101000
-4 0 *
Sh

0101000
-98 4 -91 4 +65 0 +60 4 -57 4 +55 4 -48 0 -43 0 -38 0 +33 0 
-28 0 -23 0 -18 0 +13 0 -8 0 +5 0 +3 14 *
So

0100000
+2 0 *

+1 1 