DBRep_DrawableShape

CASCADE Topology V1, (c) Matra-Datavision
Locations 30
1
              1               0               0               0 
              0               1               0               0 
              0               0               1               0 
1
              1               0               0               0 
              0               1               0               0 
              0               0               1               0 
1
              1               0               0               0 
              0               1               0               0 
              0               0               1               0 
1
              1               0               0               0 
              0               1               0               0 
              0               0               1               0 
2  2 -1 3 1 4 -1 0
1
              1               0               0               0 
              0               1               0               0 
              0               0               1               0 
2  6 -1 0
2  2 1 6 -1 0
2  1 -1 4 1 3 -1 2 1 6 -1 0
2  3 1 4 -1 0
2  1 -1 4 1 3 -1 0
2  6 1 2 -1 3 1 4 -1 0
1
              1               0               0               0 
              0               1               0               0 
              0               0               1               5 
2  6 1 2 -1 13 1 3 1 4 -1 0
2  13 -1 2 1 6 -1 0
2  4 1 3 -1 13 -1 2 1 6 -1 0
2  1 -1 4 1 3 -1 13 -1 2 1 6 -1 0
2  1 -1 0
1
              1               0               0              -0 
              0               1               0               0 
              0               0               1               5 
1
              1               0               0               0 
              0               1               0               0 
              0               0               1              15 
2  19 1 4 -1 20 1 0
2  20 -1 4 1 19 -1 0
2  19 -1 0
2  1 -1 20 -1 4 1 19 -1 0
2  4 -1 20 1 0
2  19 1 4 -1 0
2  4 1 19 -1 0
2  2 -1 13 1 3 1 19 -1 0
2  1 -1 4 1 19 -1 0
2  2 -1 13 1 3 1 4 -1 0
Curve2ds 64
1 0 0 1 0 
1 0 0 1 0 
1 120 0 0 -1 
1 0 0 1 0 
1 120 -60 -1 0 
1 0 -0 1 0 
1 0 -60 0 1 
1 0 0 1 0 
1 0 0 0 -1 
1 60 0 0 -1 
1 0 -5 1 0 
1 120 0 -1 -0 
1 120 0 0 -1 
1 0 0 0 -1 
1 0 -5 1 0 
1 60 0 -1 0 
1 60 0 0 -1 
1 0 -0 0 -1 
1 0 -5 1 0 
1 120 0 -1 0 
1 120 0 0 -1 
1 0 0 0 -1 
1 0 -5 1 0 
1 60 0 -1 0 
1 0 -0 0 -1 
1 60 0 0 -1 
1 0 -15 1 0 
1 -120 60 1 0 
1 120 0 0 -1 
1 0 0 0 -1 
1 0 0 0 -1 
1 120 0 0 -1 
1 0 -15 1 0 
1 -120 0 0 1 
1 0 0 0 -1 
1 60 0 0 -1 
1 0 -15 1 0 
1 0 0 -1 0 
1 0 -15 1 0 
1 0 60 0 -1 
1 -5 5 -1 0 
1 0 -15 1 0 
1 -115 5 0 1 
1 0 -15 1 0 
1 -115 55 1 0 
1 0 -15 1 0 
1 -5 55 0 -1 
1 0 -15 1 0 
1 0 0 0 -1 
1 50 0 0 -1 
1 0 0 1 0 
1 5 -55 1 0 
1 110 0 0 -1 
1 0 0 0 -1 
1 0 0 1 0 
1 115 -55 0 1 
1 50 0 0 -1 
1 0 -0 0 -1 
1 0 -0 1 0 
1 115 -5 -1 0 
1 110 0 0 -1 
1 0 0 0 -1 
1 0 0 1 0 
1 5 -5 0 -1 
Curves 32
1 0 30 0 1 0 0 
1 120 30 0 0 -1 0 
1 120 -30 0 -1 0 0 
1 0 -30 0 0 1 0 
1 0 30 0 0 0 1 
1 0 30 0 1 0 0 
1 120 30 0 0 0 1 
1 120 30 0 0 -1 0 
1 120 -30 0 0 0 1 
1 120 -30 0 -1 0 0 
1 0 -30 0 0 0 1 
1 0 -30 0 0 1 0 
1 120 30 5 0 0 1 
1 120 30 0 -1 0 0 
1 0 30 5 0 0 1 
1 120 -30 5 0 0 1 
1 120 -30 0 0 1 0 
1 0 -30 5 0 0 1 
1 0 -30 0 1 0 0 
1 0 30 0 0 -1 0 
1 5 -25 0 1 0 0 
1 115 -25 0 0 1 0 
1 115 25 0 -1 0 0 
1 5 25 0 0 -1 0 
1 5 -25 5 0 0 1 
1 5 -25 0 1 0 0 
1 115 -25 5 0 0 1 
1 115 -25 0 0 1 0 
1 115 25 5 0 0 1 
1 115 25 0 -1 0 0 
1 5 25 5 0 0 1 
1 5 25 0 0 -1 0 
Polygon3D 0
PolygonOnTriangulations 0
Surfaces 15
1 0 30 0 -0 0 1 1 0 0 0 1 -0 
1 0 30 0 0 1 0 1 0 0 0 0 -1 
1 120 30 0 1 0 -0 0 -1 0 0 -0 -1 
1 120 -30 0 0 -1 0 -1 0 0 -0 -0 -1 
1 0 -30 0 -1 0 0 0 1 0 0 0 -1 
1 120 30 5 0 -1 0 -1 0 0 -0 -0 -1 
1 120 -30 5 -1 0 0 0 1 0 0 0 -1 
1 0 -30 5 0 1 0 1 0 0 0 0 -1 
1 0 30 5 1 0 -0 0 -1 0 0 -0 -1 
1 0 -30 5 0 0 -1 -1 0 -0 0 1 0 
1 5 -25 5 0 1 0 1 0 0 0 0 -1 
1 115 -25 5 -1 0 0 0 1 0 0 0 -1 
1 115 25 5 0 -1 0 -1 0 0 -0 -0 -1 
1 5 25 5 1 0 -0 0 -1 0 0 -0 -1 
1 0 30 0 -0 0 1 1 0 0 0 1 -0 
Triangulations 0

TShapes 85
Ve
1e-07
0 30 0
0 0

0101101
*
Ve
1e-07
120 30 0
0 0

0101101
*
Ed
 1e-07 1 1 0
1  1 0 0 120
2  1 1 7 0 120
2  2 2 8 0 120
0

0101000
+85 9 -84 9 *
Ve
1e-07
120 -30 0
0 0

0101101
*
Ed
 1e-07 1 1 0
1  2 0 0 60
2  3 1 7 0 60
2  4 3 8 0 60
0

0101000
+84 9 -82 9 *
Ve
1e-07
0 -30 0
0 0

0101101
*
Ed
 1e-07 1 1 0
1  3 0 0 120
2  5 1 7 0 120
2  6 4 8 0 120
0

0101000
+82 9 -80 9 *
Ed
 1e-07 1 1 0
1  4 0 0 60
2  7 1 7 0 60
2  8 5 8 0 60
0

0101000
+80 9 -85 9 *
Wi

0101100
+83 0 +81 0 +79 0 +78 0 *
Fa
0  1e-07 1 0

0101000
-77 6 *
Ve
1e-07
0 30 5
0 0

0101101
*
Ed
 1e-07 1 1 0
1  5 0 0 5
2  9 2 0 0 5
2  10 5 0 0 5
0

0101000
+85 11 -75 11 *
Ve
1e-07
120 30 5
0 0

0101101
*
Ed
 1e-07 1 1 0
1  6 0 0 120
2  11 2 15 0 120
2  12 6 16 0 120
0

0101000
+75 17 -73 17 *
Ed
 1e-07 1 1 0
1  7 0 0 5
2  13 2 0 0 5
2  14 3 0 0 5
0

0101000
+84 11 -73 11 *
Wi

0101000
+74 10 -83 12 +72 14 -71 10 *
Fa
0  1e-07 2 10

0101000
+70 0 *
Ve
1e-07
120 -30 5
0 0

0101101
*
Ed
 1e-07 1 1 0
1  8 0 0 60
2  15 3 15 0 60
2  16 7 16 0 60
0

0101000
+73 17 -68 17 *
Ed
 1e-07 1 1 0
1  9 0 0 5
2  17 3 0 0 5
2  18 4 0 0 5
0

0101000
+82 11 -68 11 *
Wi

0101000
+71 10 -81 12 +67 14 -66 10 *
Fa
0  1e-07 3 10

0101000
+65 0 *
Ve
1e-07
0 -30 5
0 0

0101101
*
Ed
 1e-07 1 1 0
1  10 0 0 120
2  19 4 15 0 120
2  20 8 16 0 120
0

0101000
+68 17 -63 17 *
Ed
 1e-07 1 1 0
1  11 0 0 5
2  21 4 0 0 5
2  22 5 0 0 5
0

0101000
+80 11 -63 11 *
Wi

0101000
+66 10 -79 12 +62 14 -61 10 *
Fa
0  1e-07 4 10

0101000
+60 0 *
Ed
 1e-07 1 1 0
1  12 0 0 60
2  23 5 15 0 60
2  24 9 16 0 60
0

0101000
+63 17 -75 17 *
Wi

0101000
+61 10 -78 12 +58 14 -74 10 *
Fa
0  1e-07 5 10

0101000
+57 0 *
Ve
1e-07
120 30 20
0 0

0101101
*
Ed
 1e-07 1 1 0
1  13 0 0 15
2  25 6 0 0 15
2  26 7 0 0 15
0

0101000
+73 18 -55 18 *
Ve
1e-07
0 30 20
0 0

0101101
*
Ed
 1e-07 1 1 0
1  14 0 0 120
2  27 6 22 0 120
2  28 10 23 0 120
0

0101000
+55 24 -53 24 *
Ed
 1e-07 1 1 0
1  15 0 0 15
2  29 6 0 0 15
2  30 9 0 0 15
0

0101000
+75 18 -53 18 *
Wi

0101000
+54 0 +72 14 +52 21 -51 0 *
Fa
0  1e-07 6 0

0101000
+50 0 *
Ve
1e-07
120 -30 20
0 0

0101101
*
Ed
 1e-07 1 1 0
1  16 0 0 15
2  31 7 0 0 15
2  32 8 0 0 15
0

0101000
+68 18 -48 18 *
Ed
 1e-07 1 1 0
1  17 0 0 60
2  33 7 22 0 60
2  34 10 23 0 60
0

0101000
+48 24 -55 24 *
Wi

0101000
+47 0 +67 14 +46 21 -54 0 *
Fa
0  1e-07 7 0

0101000
+45 0 *
Ve
1e-07
0 -30 20
0 0

0101101
*
Ed
 1e-07 1 1 0
1  18 0 0 15
2  35 8 0 0 15
2  36 9 0 0 15
0

0101000
+63 18 -43 18 *
Ed
 1e-07 1 1 0
1  19 0 0 120
2  37 8 22 0 120
2  38 10 23 0 120
0

0101000
+43 24 -48 24 *
Wi

0101000
+42 0 +62 14 +41 21 -47 0 *
Fa
0  1e-07 8 0

0101000
+40 0 *
Ed
 1e-07 1 1 0
1  20 0 0 60
2  39 9 22 0 60
2  40 10 23 0 60
0

0101000
+53 24 -43 24 *
Wi

0101000
+51 0 +58 14 +38 21 -42 0 *
Fa
0  1e-07 9 0

0101000
+37 0 *
Wi

0101100
+41 0 +46 0 +52 0 +38 0 *
Ve
1e-07
5 -25 20
0 0

0101101
*
Ve
5.09001269276204e-05
115 -25 20
0 0

0101101
*
Ed
 1e-07 1 1 0
1  21 0 0 110
2  41 10 23 0 110
2  42 11 22 0 110
0

0101000
+34 24 -33 24 *
Ve
1e-07
115 25 20
0 0

0101101
*
Ed
 1e-07 1 1 0
1  22 0 0 50
2  43 10 23 0 50
2  44 12 22 0 50
0

0101000
+33 24 -31 24 *
Ve
1e-07
5 25 20
0 0

0101101
*
Ed
 1e-07 1 1 0
1  23 0 0 110
2  45 10 23 0 110
2  46 13 22 0 110
0

0101000
+31 24 -29 24 *
Ed
 1e-07 1 1 0
1  24 0 0 50
2  47 10 23 0 50
2  48 14 22 0 50
0

0101000
+29 24 -34 24 *
Wi

0101100
+32 0 +30 0 +28 0 +27 0 *
Fa
0  1e-07 10 0

0101000
-35 19 +26 19 *
Ve
1e-07
5 -25 5
0 0

0101101
*
Ed
 1e-07 1 1 0
1  25 0 0 15
2  49 11 0 0 15
2  50 14 0 0 15
0

0101000
+24 18 -34 18 *
Ve
5.09001269276204e-05
115 -25 5
0 0

0101101
*
Ed
 1e-07 1 1 0
1  26 0 0 110
2  51 11 27 0 110
2  52 15 28 0 110
0

0101000
+24 29 -22 29 *
Ed
 1e-07 1 1 0
1  27 0 0 15
2  53 11 0 0 15
2  54 12 0 0 15
0

0101000
+22 18 -33 18 *
Wi

0101000
+23 0 -21 26 +32 21 -20 0 *
Fa
0  1e-07 11 0

0101000
+19 0 *
Ve
1e-07
115 25 5
0 0

0101101
*
Ed
 1e-07 1 1 0
1  28 0 0 50
2  55 12 27 0 50
2  56 15 28 0 50
0

0101000
+22 29 -17 29 *
Ed
 1e-07 1 1 0
1  29 0 0 15
2  57 12 0 0 15
2  58 13 0 0 15
0

0101000
+17 18 -31 18 *
Wi

0101000
+20 0 -16 26 +30 21 -15 0 *
Fa
0  1e-07 12 0

0101000
+14 0 *
Ve
1e-07
5 25 5
0 0

0101101
*
Ed
 1e-07 1 1 0
1  30 0 0 110
2  59 13 27 0 110
2  60 15 28 0 110
0

0101000
+17 29 -12 29 *
Ed
 1e-07 1 1 0
1  31 0 0 15
2  61 13 0 0 15
2  62 14 0 0 15
0

0101000
+12 18 -29 18 *
Wi

0101000
+15 0 -11 26 +28 21 -10 0 *
Fa
0  1e-07 13 0

0101000
+9 0 *
Ed
 1e-07 1 1 0
1  32 0 0 50
2  63 14 27 0 50
2  64 15 28 0 50
0

0101000
+12 29 -24 29 *
Wi

0101000
+10 0 -7 26 +27 21 -23 0 *
Fa
0  1e-07 14 0

0101000
+6 0 *
Wi

0101000
+7 26 +11 26 +16 26 +21 26 *
Fa
0  1e-07 15 30

0101000
+4 0 *
Sh

0101000
-76 5 +69 0 +64 0 +59 0 +56 0 -49 0 -44 0 -39 0 -36 0 -25 25 
+18 0 +13 0 +8 0 +5 0 +3 0 *
So

0100000
+2 0 *

+1 1 