DBRep_DrawableShape

CASCADE Topology V1, (c) Matra-Datavision
Locations 8
1
              1               0               0               0 
              0               1               0               0 
              0               0               1              12 
2  1 -1 0
1
              0              -1               0             610 
             -1              -0 -2.22044604925031e-16             210 
2.22044604925031e-16               0              -1             -15 
2  3 -1 0
2  1 -1 3 -1 0
1
              0              -1               0             610 
             -1              -0 -2.22044604925031e-16             210 
2.22044604925031e-16               0              -1            -147 
2  6 -1 0
2  1 -1 6 -1 0
Curve2ds 48
7 0 0  1 2 2  -85.000000000000057 -68.236720319780915  -65.000000000000057 68.236720319780915 
 0 2 132 2
8 0 132
1 8 0 0 1 
7 0 0  9 10 2  -85.000000000000057 -68.236720319780915  -66.111111111111143 -68.236720319780915  -47.222222222222285 -68.236720319780915  -28.3333333333334 -68.236720319780915  -9.4444444444445139 -68.236720319780915  9.4444444444444002 -68.236720319780915  28.333333333333258 -68.236720319780915  47.222222222222172 -68.236720319780915  66.111111111111057 -68.236720319780915  84.999999999999886 -68.236720319780915 
 0 10 1 10
7 0 0  9 10 2  0 0  0 -18.888888888888914  0 -37.777777777777771  0 -56.666666666666657  0 -75.555555555555543  0 -94.444444444444457  0 -113.33333333333331  0 -132.22222222222223  0 -151.11111111111111  0 -169.99999999999994 
 0 10 1 10
7 0 0  1 2 2  84.999999999999901 -68.236720319780915  64.999999999999915 68.236720319780915 
 0 2 132 2
8 0 132
1 1 0 0 1 
7 0 0  9 10 2  -65.000000000000057 68.236720319780915  -50.5555555555556 68.236720319780915  -36.111111111111171 68.236720319780915  -21.666666666666714 68.236720319780915  -7.2222222222222854 68.236720319780915  7.2222222222221717 68.236720319780915  21.6666666666666 68.236720319780915  36.111111111111057 68.236720319780915  50.555555555555486 68.236720319780915  64.999999999999915 68.236720319780915 
 0 10 1 10
7 0 0  9 10 2  -64.999999999999943 180.00000000000011  -50.555555555555486 180.00000000000011  -36.111111111111057 180.00000000000011  -21.6666666666666 180.00000000000011  -7.2222222222221717 180.00000000000011  7.2222222222222854 180.00000000000011  21.666666666666714 180.00000000000011  36.111111111111171 180.00000000000011  50.5555555555556 180.00000000000011  65.000000000000028 180.00000000000011 
 0 10 1 10
8 1 2
1 0 0 1 0 
7 0 0  9 10 2  0 -169.99999999999994  -2.0463630789890885e-12 -183.0899693899562  -2.5702092716592233 -196.17993896750136  -7.7106296131740919 -208.69315348705354  -15.27025954418832 -220.05286586609199  -24.947134133938789 -229.72974045578383  -36.30684651292313 -237.28937038684333  -48.82006103251058 -242.42979072833282  -61.910030610040167 -245.00000000000023  -75 -244.99999999999986 
 1 10 2 10
1 2 0 0 1 
7 0 0  1 2 2  64.527508867654205 -124.99999999999989  -71.945931771907553 -104.99999999999983 
 0 2 132 2
8 1 2
1 0 132 1 0 
7 0 0  9 10 2  65.000000000000028 180.00000000000011  78.08996938995503 179.99999999999852  91.179938967506715 177.42979072833896  103.69315348704171 172.28937038682977  115.05286586611011 164.72974045580634  124.72974045576416 155.05286586606735  132.28937038685856 143.69315348707175  137.42979072832495 131.17993896749266  140.00000000000256 118.08996938995892  140.00000000000006 105.00000000000011 
 1 10 2 10
7 0 0  9 10 2  64.527508867654234 -124.99999999999989  64.527508867654234 -97.222222222222058  64.527508867654234 -69.444444444444343  64.527508867654234 -41.666666666666515  64.527508867654234 -13.8888888888888  64.527508867654234 13.888888888889028  64.527508867654234 41.666666666666742  64.527508867654234 69.444444444444571  64.527508867654234 97.222222222222285  64.527508867654205 125 
 2 10 3 10
7 0 0  9 10 2  -75 -244.99999999999986  -102.77777777777783 -244.99999999999986  -130.55555555555554 -244.99999999999986  -158.33333333333337 -244.99999999999986  -186.11111111111109 -244.99999999999986  -213.88888888888891 -244.99999999999986  -241.66666666666663 -244.99999999999986  -269.44444444444446 -244.99999999999986  -297.22222222222217 -244.99999999999986  -324.99999999999989 -244.99999999999974 
 2 10 3 10
7 0 0  1 2 2  64.527508867654205 125.00000000000011  -71.945931771907581 104.99999999999989 
 0 2 132 2
8 0 132
1 3 0 0 1 
7 0 0  9 10 2  -71.945931771907553 -104.99999999999983  -71.945931771907553 -81.666666666666515  -71.945931771907553 -58.333333333333258  -71.945931771907553 -34.999999999999886  -71.945931771907553 -11.666666666666515  -71.945931771907553 11.666666666666742  -71.945931771907581 35.000000000000114  -71.945931771907581 58.333333333333485  -71.945931771907581 81.666666666666742  -71.945931771907581 104.99999999999989 
 2 10 3 10
7 0 0  9 10 2  140.00000000000006 105.00000000000011  140.00000000000006 81.666666666666742  140.00000000000006 58.333333333333485  140.00000000000006 35.000000000000114  140.00000000000006 11.666666666666742  140.00000000000006 -11.666666666666515  140.00000000000006 -34.999999999999886  140.00000000000006 -58.333333333333258  140.00000000000006 -81.666666666666515  139.99999999999991 -104.99999999999966 
 2 10 3 10
8 3 4
1 0 0 1 0 
7 0 0  9 10 2  -324.99999999999989 -244.99999999999974  -338.08996938995233 -244.99999999999721  -351.17993896751614 -242.42979072834291  -363.6931534870223 -237.28937038682324  -375.05286586613488 -229.72974045581012  -384.72974045574074 -220.05286586606596  -392.28937038687445 -208.69315348707235  -397.42979072831713 -196.17993896749169  -400.00000000000455 -183.08996938995915  -400 -170 
 3 10 4 10
1 4 0 0 1 
7 0 0  1 2 2  -63.496925951682528 85.000000000000014  72.976514687879273 65.000000000000028 
 0 2 132 2
8 3 4
1 0 132 1 0 
7 0 0  9 10 2  139.99999999999991 -104.99999999999966  139.99999999999855 -118.08996938995449  137.42979072833958 -131.17993896750761  132.28937038682744 -143.6931534870406  124.72974045580997 -155.05286586610919  115.0528658660638 -164.72974045576711  103.69315348707377 -172.28937038685422  91.179938967491765 -177.4297907283277  78.089969389959066 -180.00000000000136  65.000000000000085 -179.99999999999989 
 3 10 4 10
7 0 0  9 10 2  -63.496925951682528 85  -63.496925951682528 66.111111111111143  -63.496925951682528 47.222222222222229  -63.496925951682528 28.333333333333371  -63.496925951682528 9.4444444444444571  -63.496925951682528 -9.4444444444444287  -63.496925951682528 -28.333333333333314  -63.496925951682528 -47.222222222222229  -63.496925951682528 -66.111111111111086  -63.496925951682528 -85 
 4 10 5 10
7 0 0  9 10 2  -400 -170  -400 -151.11111111111114  -400 -132.22222222222223  -400 -113.33333333333337  -400 -94.444444444444457  -400 -75.555555555555571  -400 -56.666666666666686  -400 -37.777777777777771  -400 -18.888888888888914  -400 0 
 4 10 5 10
7 0 0  1 2 2  -63.496925951682528 -85  72.976514687879273 -65 
 0 2 132 2
8 0 132
1 5 0 0 1 
7 0 0  9 10 2  72.976514687879273 65.000000000000028  72.976514687879273 50.5555555555556  72.976514687879273 36.111111111111143  72.976514687879273 21.666666666666686  72.976514687879273 7.2222222222222285  72.976514687879273 -7.2222222222222001  72.976514687879273 -21.666666666666657  72.976514687879273 -36.111111111111086  72.976514687879273 -50.555555555555543  72.976514687879273 -65 
 4 10 5 10
7 0 0  9 10 2  65.000000000000085 -179.99999999999989  50.555555555555657 -179.99999999999989  36.1111111111112 -179.99999999999989  21.666666666666742 -179.99999999999989  7.2222222222222854 -179.99999999999989  -7.2222222222221433 -179.99999999999989  -21.6666666666666 -179.99999999999989  -36.111111111111029 -179.99999999999989  -50.555555555555486 -179.99999999999989  -64.999999999999943 -179.99999999999989 
 4 10 5 10
8 5 6
1 0 0 1 0 
7 0 0  9 10 2  -400 0  -399.99999999999341 13.089969389953637  -397.42979072835669 26.17993896751068  -392.28937038679624 38.693153487035602  -384.72974045584772 50.052865866115724  -375.05286586602961 59.729740455760748  -363.69315348709733 67.2893703868599  -351.17993896748021 72.429790728324519  -338.08996938996222 75.000000000002615  -325 75 
 5 10 6 10
1 6 0 0 1 
7 0 0  1 2 2  -64.527508867654234 125  71.945931771907567 105 
 0 2 132 2
8 5 6
1 0 132 1 0 
7 0 0  9 10 2  -64.999999999999943 -179.99999999999989  -78.089969389956366 -179.99999999999739  -91.179938967502039 -177.4297907283443  -103.69315348705106 -172.28937038681715  -115.05286586609549 -164.72974045582134  -124.72974045577922 -155.05286586605382  -132.28937038684745 -143.69315348708039  -137.42979072833003 -131.17993896748806  -140.00000000000114 -118.08996938995995  -139.99999999999994 -104.99999999999989 
 5 10 6 10
7 0 0  9 10 2  -64.527508867654234 125  -64.527508867654234 97.222222222222172  -64.527508867654234 69.444444444444457  -64.527508867654234 41.666666666666629  -64.527508867654234 13.888888888888914  -64.527508867654234 -13.888888888888914  -64.527508867654234 -41.666666666666629  -64.527508867654234 -69.444444444444457  -64.527508867654234 -97.222222222222172  -64.527508867654234 -124.99999999999994 
 6 10 7 10
7 0 0  9 10 2  -325 75  -297.22222222222217 75  -269.44444444444446 75  -241.66666666666663 75  -213.88888888888891 75  -186.11111111111109 75  -158.33333333333337 75  -130.55555555555554 75  -102.77777777777783 75  -75 75.000000000000057 
 6 10 7 10
7 0 0  1 2 2  -64.527508867654248 -124.99999999999994  71.945931771907567 -104.99999999999994 
 0 2 132 2
8 0 132
1 7 0 0 1 
7 0 0  9 10 2  71.945931771907567 105  71.945931771907567 81.666666666666629  71.945931771907567 58.333333333333371  71.945931771907567 35  71.945931771907539 11.666666666666629  71.945931771907539 -11.666666666666629  71.945931771907567 -35  71.945931771907567 -58.333333333333371  71.945931771907567 -81.666666666666629  71.945931771907567 -104.99999999999994 
 6 10 7 10
7 0 0  9 10 2  -139.99999999999994 -104.99999999999989  -139.99999999999994 -81.666666666666515  -139.99999999999994 -58.333333333333258  -139.99999999999994 -34.999999999999886  -139.99999999999994 -11.666666666666515  -139.99999999999994 11.666666666666742  -139.99999999999994 35.000000000000114  -139.99999999999994 58.333333333333485  -139.99999999999994 81.666666666666742  -139.99999999999994 105.00000000000011 
 6 10 7 10
8 7 8
1 0 0 1 0 
7 0 0  9 10 2  -75 75.000000000000057  -61.910030610042895 74.999999999999432  -48.820061032502792 72.429790728335206  -36.306846512935635 67.289370386838755  -24.947134133925488 59.729740455791386  -15.270259544198325 50.052865866082584  -7.7106296131687486 38.693153487061409  -2.5702092716618949 26.179938967496923  -1.0800249583553523e-12 13.089969389957673  0 0 
 7 10 8 10
8 7 8
1 0 132 1 0 
7 0 0  9 10 2  -139.99999999999994 105.00000000000011  -139.99999999999847 118.08996938995716  -137.42979072833845 131.17993896749812  -132.28937038683154 143.69315348706186  -124.72974045580105 155.05286586607986  -115.05286586607355 164.72974045579519  -103.69315348706698 172.28937038683671  -91.179938967494593 177.42979072833521  -78.089969389958185 180  -64.999999999999943 180.00000000000011 
 7 10 8 10
Curves 24
7 0 0  1 2 2  410 295 -15  430 275 -150 
 0 2 132 2
7 0 0  9 10 2  -85 200 -1.9317880628477746e-14  -66.111111111111114 200 -1.5123704757671587e-14  -47.222222222222229 200 -1.0929528886865442e-14  -28.333333333333336 200 -6.7353530160592954e-15  -9.4444444444444446 200 -2.5411771452531468e-15  9.4444444444444429 200 1.6529987255530018e-15  28.333333333333329 200 5.8471745963591496e-15  47.222222222222214 200 1.0041350467165297e-14  66.111111111111114 200 1.4235526337971443e-14  84.999999999999943 200.00000000000003 1.8429702208777592e-14 
 0 10 1 10
7 0 0  1 2 2  410 125.00000000000004 -15  430 145.00000000000003 -150 
 0 2 132 2
7 0 0  9 10 2  -65.000000000000014 180 2.999999999999996  -50.555555555555571 180 2.9999999999999991  -36.111111111111136 180 3.0000000000000022  -21.666666666666696 180 3.0000000000000053  -7.2222222222222507 180 3.0000000000000089  7.2222222222221939 180 3.000000000000012  21.666666666666639 180 3.0000000000000155  36.111111111111086 180 3.0000000000000187  50.555555555555529 180 3.0000000000000218  64.999999999999943 180.00000000000003 3.0000000000000244 
 0 10 1 10
7 0 0  9 10 2  84.999999999999943 200.00000000000003 1.8429702208777592e-14  98.08996938995621 199.99999999999793 2.133625929045102e-14  111.17993896750136 197.42979072834075 2.4242816413778497e-14  123.69315348705354 192.28937038682594 2.7021308188112547e-14  135.05286586609199 184.72974045581168 2.954367103538189e-14  144.72974045578383 175.05286586606124 3.1692368830554051e-14  152.28937038684333 163.69315348707684 3.3370943871980681e-14  157.42979072833282 151.17993896748945 3.451234647585156e-14  160.00000000000023 138.0899693899598 3.5083047578155414e-14  159.99999999999986 125 3.5083047578154915e-14 
 1 10 2 10
7 0 0  1 2 2  485 50.000000000000128 -15.000000000000014  505 69.999999999999986 -150 
 0 2 132 2
7 0 0  9 10 2  64.999999999999943 180.00000000000003 3.0000000000000244  78.089969389954945 179.99999999999844 2.9999999999999756  91.179938967506629 177.42979072833882 3.0000000000002078  103.69315348704163 172.28937038682963 2.9999999999996891  115.05286586611003 164.72974045580622 3.0000000000005005  124.72974045576407 155.05286586606724 2.9999999999995977  132.28937038685848 143.69315348707164 3.000000000000338  137.42979072832486 131.17993896749255 2.9999999999999001  140.00000000000247 118.08996938995878 3.000000000000079  139.99999999999997 105 3.0000000000000422 
 1 10 2 10
7 0 0  9 10 2  159.99999999999986 125 3.5083047578154915e-14  159.99999999999986 97.222222222222229 3.5083047578154915e-14  159.99999999999986 69.444444444444443 3.5083047578154915e-14  159.99999999999986 41.666666666666664 3.5083047578154915e-14  159.99999999999986 13.888888888888891 3.5083047578154915e-14  159.99999999999986 -13.888888888888889 3.5083047578154915e-14  159.99999999999986 -41.666666666666657 3.5083047578154915e-14  159.99999999999986 -69.444444444444443 3.5083047578154915e-14  159.99999999999986 -97.222222222222229 3.5083047578154915e-14  159.99999999999974 -124.99999999999986 3.508304757815489e-14 
 2 10 3 10
7 0 0  1 2 2  735 50.000000000000263 -15  714.99999999999977 70.000000000000171 -150 
 0 2 132 2
7 0 0  9 10 2  139.99999999999997 105 3.0000000000000422  139.99999999999997 81.666666666666671 3.0000000000000422  139.99999999999997 58.333333333333336 3.0000000000000422  139.99999999999997 35 3.0000000000000422  139.99999999999997 11.666666666666666 3.0000000000000422  139.99999999999997 -11.666666666666666 3.0000000000000422  139.99999999999997 -35 3.0000000000000422  139.99999999999997 -58.333333333333336 3.0000000000000422  139.99999999999997 -81.666666666666671 3.0000000000000422  139.99999999999983 -104.99999999999983 3.0000000000000382 
 2 10 3 10
7 0 0  9 10 2  159.99999999999974 -124.99999999999986 3.508304757815489e-14  159.99999999999721 -138.08996938995233 3.5083047578154398e-14  157.42979072834291 -151.17993896751611 3.4512346475854924e-14  152.28937038682324 -163.69315348702236 3.3370943871974301e-14  144.72974045581012 -175.05286586613494 3.1692368830562003e-14  135.05286586606596 -184.72974045574077 2.9543671035374626e-14  123.69315348707235 -192.28937038687451 2.7021308188117249e-14  111.17993896749171 -197.42979072831719 2.424281641377632e-14  98.089969389959137 -200.00000000000458 2.1336259290451636e-14  85.000000000000014 -200 1.8429702208777599e-14 
 3 10 4 10
7 0 0  1 2 2  810 124.99999999999997 -15  790 144.99999999999997 -150 
 0 2 132 2
7 0 0  9 10 2  139.99999999999983 -104.99999999999983 3.0000000000000382  139.99999999999847 -118.0899693899546 2.9999999999999964  137.4297907283395 -131.17993896750772 3.0000000000002021  132.28937038682736 -143.69315348704077 2.9999999999997096  124.72974045580989 -155.05286586610927 3.0000000000005018  115.05286586606371 -164.72974045576723 2.9999999999995945  103.69315348707369 -172.2893703868543 3.000000000000326  91.17993896749168 -177.42979072832787 2.999999999999893  78.089969389958981 -180.00000000000151 3.0000000000000648  65 -180 3.0000000000000244 
 3 10 4 10
7 0 0  9 10 2  85.000000000000014 -200 1.8429702208777599e-14  66.111111111111128 -200 1.4235526337971452e-14  47.222222222222236 -200 1.0041350467165305e-14  28.333333333333357 -200 5.8471745963591528e-15  9.4444444444444642 -200 1.6529987255530046e-15  -9.4444444444444304 -200 -2.5411771452531432e-15  -28.333333333333325 -200 -6.7353530160592914e-15  -47.222222222222214 -200 -1.0929528886865441e-14  -66.111111111111114 -200 -1.512370475767159e-14  -85.000000000000014 -200 -1.9317880628477736e-14 
 4 10 5 10
7 0 0  1 2 2  810 295 -15  790 275 -150 
 0 2 132 2
7 0 0  9 10 2  65 -180 3.0000000000000244  50.555555555555557 -180 3.0000000000000213  36.111111111111114 -180 3.0000000000000178  21.666666666666668 -180 3.0000000000000147  7.2222222222222108 -180 3.0000000000000115  -7.2222222222222383 -180 3.0000000000000089  -21.666666666666679 -180 3.0000000000000053  -36.111111111111114 -180 3.0000000000000018  -50.555555555555564 -180 2.9999999999999991  -65.000000000000028 -180 2.9999999999999956 
 4 10 5 10
7 0 0  9 10 2  -85.000000000000014 -200 -1.9317880628477736e-14  -98.089969389953637 -199.99999999999346 -2.222443771015053e-14  -111.17993896751069 -197.42979072835675 -2.5130994833480806e-14  -123.69315348703562 -192.28937038679618 -2.7909486607808655e-14  -135.05286586611572 -184.72974045584775 -3.0431849455087108e-14  -144.72974045576075 -175.05286586602966 -3.25805472502495e-14  -152.28937038685993 -163.69315348709728 -3.425912229168388e-14  -157.42979072832449 -151.17993896748015 -3.5400524895550404e-14  -160.00000000000261 -138.08996938996222 -3.5971225997855867e-14  -160 -125 -3.5971225997855078e-14 
 5 10 6 10
7 0 0  1 2 2  735 370 -15  715 350 -150 
 0 2 132 2
7 0 0  9 10 2  -65.000000000000028 -180 2.9999999999999956  -78.089969389956465 -179.99999999999744 2.9999999999999716  -91.179938967502125 -177.42979072834436 3.000000000000087  -103.69315348705113 -172.28937038681724 2.9999999999997837  -115.0528658660956 -164.7297404558214 3.0000000000002189  -124.72974045577934 -155.05286586605393 2.999999999999805  -132.28937038684751 -143.69315348708051 3.0000000000000764  -137.42979072833015 -131.17993896748811 2.9999999999999418  -140.00000000000122 -118.08996938996005 2.9999999999999885  -140.00000000000003 -105 2.9999999999999791 
 5 10 6 10
7 0 0  9 10 2  -160 -125 -3.5971225997855078e-14  -160 -97.222222222222229 -3.5971225997855078e-14  -160 -69.444444444444443 -3.5971225997855078e-14  -160 -41.666666666666664 -3.5971225997855078e-14  -160 -13.888888888888891 -3.5971225997855078e-14  -160 13.888888888888889 -3.5971225997855078e-14  -160 41.666666666666657 -3.5971225997855078e-14  -160 69.444444444444443 -3.5971225997855078e-14  -160 97.222222222222229 -3.5971225997855078e-14  -160.00000000000006 125 -3.5971225997855078e-14 
 6 10 7 10
7 0 0  1 2 2  485 370.00000000000011 -15  505 350 -150 
 0 2 132 2
7 0 0  9 10 2  -140.00000000000003 -105 2.9999999999999791  -140.00000000000003 -81.666666666666671 2.9999999999999791  -140.00000000000003 -58.333333333333336 2.9999999999999791  -140.00000000000003 -35 2.9999999999999791  -140.00000000000003 -11.666666666666666 2.9999999999999791  -140.00000000000003 11.666666666666666 2.9999999999999791  -140.00000000000003 35 2.9999999999999791  -140.00000000000003 58.333333333333336 2.9999999999999791  -140.00000000000003 81.666666666666671 2.9999999999999791  -140.00000000000006 104.99999999999999 2.9999999999999787 
 6 10 7 10
7 0 0  9 10 2  -160.00000000000006 125 -3.5971225997855078e-14  -159.9999999999994 138.08996938995713 -3.5971225997854554e-14  -157.42979072833521 151.17993896749721 -3.5400524895555068e-14  -152.28937038683878 163.69315348706434 -3.4259122291674464e-14  -144.72974045579139 175.05286586607448 -3.2580547250262646e-14  -135.05286586608256 184.72974045580168 -3.0431849455073817e-14  -123.69315348706139 192.28937038683122 -2.7909486607818336e-14  -111.17993896749694 197.42979072833811 -2.5130994833475956e-14  -98.089969389957687 199.99999999999892 -2.22244377101519e-14  -85 200 -1.9317880628477746e-14 
 7 10 8 10
7 0 0  9 10 2  -140.00000000000006 104.99999999999999 2.9999999999999787  -139.99999999999855 118.08996938995705 2.9999999999999334  -137.42979072833853 131.179938967498 3.0000000000001212  -132.28937038683165 143.69315348706172 2.9999999999997522  -124.72974045580111 155.05286586607974 3.0000000000002163  -115.05286586607362 164.72974045579508 2.9999999999998286  -103.69315348706706 172.28937038683662 3.0000000000000568  -91.179938967494664 177.42979072833512 2.9999999999999623  -78.089969389958256 179.99999999999989 3.0000000000000013  -65.000000000000014 180 2.999999999999996 
 7 10 8 10
Polygon3D 0
PolygonOnTriangulations 0
Surfaces 10
1 420 209.99999999999994 -82.5 0.98920346235387091 -2.410801242122828e-18 0.14654866108946235 -2.3322393320889551e-18 -1 -7.0790151893113239e-19 0.14654866108946235 3.584720820744221e-19 -0.98920346235387091 
9 0 0 0 0 9 1 10 2 2 2 485 370.00000000000011 -15  505 350 -150  
471.91003061004295 369.99999999999943 -15  491.91003061004295 349.99999999999852 -149.99999999999997  
458.82006103250279 367.42979072833521 -15  478.820061032502 347.4297907283385 -150.00000000000014  
446.30684651293564 362.28937038683875 -15.000000000000014  466.30684651293825 342.28937038683159 -149.99999999999977  
434.94713413392549 354.72974045579139 -14.999999999999986  454.94713413392026 334.72974045580116 -150.00000000000028  
425.27025954419832 345.05286586608258 -15  445.27025954420492 325.0528658660736 -149.99999999999986  
417.71062961316875 333.69315348706147 -15  437.71062961316341 313.69315348706704 -150.00000000000009  
412.57020927166184 321.17993896749692 -15.000000000000014  432.57020927166491 301.17993896749465 -149.99999999999994  
410.00000000000102 308.08996938995767 -15  430.00000000000011 288.08996938995824 -150.00000000000003  
410 295 -15  430 275 -150  

7 10
8 10

0 2
132 2

1 410 295 -14.999999999999998 0 0 -1 -1 0 -0 0 1 0 
9 0 0 0 0 9 1 10 2 2 2 410 125.00000000000004 -15  430 145.00000000000003 -150  
410.0000000000021 111.91003061004382 -15  430.00000000000165 131.91003061004506 -149.99999999999997  
412.57020927165922 98.820061032498657 -15  432.57020927166116 118.82006103249334 -150.0000000000002  
417.71062961317415 86.306846512946464 -15.000000000000014  437.71062961317028 106.30684651295834 -149.99999999999966  
425.27025954418832 74.947134133908023 -14.999999999999986  445.27025954419378 94.947134133889946 -150.00000000000051  
434.94713413393879 65.270259544216174 -14.999999999999986  454.94713413393276 85.270259544235898 -149.9999999999996  
446.30684651292313 57.710629613156669 -15  466.30684651292836 77.710629613141492 -150.00000000000031  
458.82006103251064 52.570209271667181 -15.000000000000014  478.82006103250745 72.570209271675111 -149.99999999999983  
471.91003061004017 49.999999999999773 -15  491.91003061004119 69.999999999997499 -150.00000000000006  
485 50.000000000000128 -15.000000000000014  505 69.999999999999986 -150  

1 10
2 10

0 2
132 2

1 610.00000000000011 210.00000000000006 -150.00000000000009 -5.3797711652758922e-18 5.3963688394958401e-18 -1 0 -1 -5.3963688394958401e-18 -1 -2.9031229479913051e-35 5.3797711652758922e-18 
1 609.99999999999989 59.456420027993246 -78.830835188953657 -5.0222719502169692e-16 0.98920346235387102 0.14654866108946141 -2.4651903288156619e-32 -0.14654866108946141 0.98920346235387102 1 4.9680488020373537e-16 7.3600722993145532e-17 
9 0 0 0 0 9 1 10 2 2 2 735 50.000000000000263 -15  714.99999999999977 70.000000000000171 -150  
748.08996938995233 50.000000000002785 -15  728.0899693899546 70.000000000001506 -149.99999999999997  
761.17993896751614 52.570209271657099 -15  741.17993896750772 72.570209271660474 -150.00000000000017  
773.6931534870223 57.710629613176764 -15  753.69315348704072 77.710629613172614 -149.99999999999969  
785.05286586613477 65.270259544189912 -14.999999999999986  765.0528658661093 85.270259544190083 -150.00000000000051  
794.72974045574063 74.947134133934028 -14.999999999999986  774.72974045576723 94.947134133936245 -149.9999999999996  
802.28937038687434 86.306846512927649 -14.999999999999986  782.28937038685433 106.30684651292628 -150.00000000000034  
807.42979072831713 98.820061032508292 -15  787.42979072832782 118.82006103250829 -149.99999999999989  
810.00000000000466 111.91003061004088 -15  790.00000000000148 131.91003061004099 -150.00000000000006  
810 124.99999999999997 -15  790 144.99999999999997 -150  

3 10
4 10

0 2
132 2

1 800.69461051848418 210 -77.81137900023171 -0.9892034623538708 1.3279911858188523e-17 0.14654866108946235 -0.14654866108946235 0 -0.9892034623538708 -1.3136534789874312e-17 -1 1.9461533022036021e-18 
9 0 0 0 0 9 1 10 2 2 2 810 295 -15  790 275 -150  
809.99999999999352 308.08996938995369 -15  789.99999999999761 288.08996938995642 -150  
807.42979072835681 321.17993896751062 -15  787.42979072834453 301.1799389675021 -150.00000000000011  
802.28937038679635 333.69315348703554 -15.000000000000014  782.28937038681727 313.69315348705112 -149.99999999999977  
794.72974045584772 345.05286586611578 -14.999999999999986  774.72974045582157 325.05286586609554 -150.00000000000028  
785.05286586602961 354.72974045576075 -15  765.05286586605393 334.72974045577928 -149.99999999999983  
773.69315348709733 362.28937038685996 -15  753.69315348708051 342.28937038684757 -150.00000000000011  
761.17993896748021 367.42979072832452 -15  741.17993896748817 347.42979072833009 -149.99999999999997  
748.08996938996211 370.00000000000261 -15  728.08996938996006 350.00000000000125 -150.00000000000003  
735 370 -15  715 350 -150  

5 10
6 10

0 2
132 2

1 610 360.54357997200697 -78.830835188953685 1.8397350208512313e-16 0.9892034623538708 -0.14654866108946255 0 -0.14654866108946255 -0.9892034623538708 1 -1.8198722524397087e-16 2.6961070406514239e-17 
Triangulations 0

TShapes 62
Ve
1.01e-07
410 295 -3
0 0

0101101
*
Ve
1.01e-07
430 275 -138
0 0

0101101
*
Ed
 1e-07 1 1 0
1  1 0 0 132
2  1 1 0 0 132
2  2 2 0 0 132
4 G1 1 0 2 0
0

0101000
+62 2 -61 2 *
Ve
1.01e-07
410 125 -3
0 0

0101101
*
Ed
 1e-07 1 1 0
1  2 0 0 1
2  3 1 4 0 1
2  4 3 4 0 1
0

0101000
+62 5 -59 5 *
Ve
1.01e-07
430 145 -138
0 0

0101101
*
Ed
 1e-07 1 1 0
1  3 0 0 132
2  5 1 0 0 132
2  6 4 0 0 132
4 G1 1 0 4 0
0

0101000
+59 2 -57 2 *
Ed
 1e-07 1 1 0
1  4 0 0 1
2  7 1 7 0 1
2  8 5 7 0 1
0

0101000
+61 8 -57 8 *
Wi

0101100
-60 0 +58 3 +56 0 -55 6 *
Fa
0  1e-07 1 0

0101000
+54 0 *
Ve
1.01e-07
485 50.0000000000001 -3
0 0

0101101
*
Ed
 1e-07 1 1 0
1  5 0 1 2
2  9 4 4 1 2
2  10 3 4 1 2
0

0101000
+59 5 -52 5 *
Ve
1.01e-07
505 70 -138
0 0

0101101
*
Ed
 1e-07 1 1 0
1  6 0 0 132
2  11 4 0 0 132
2  12 6 0 0 132
4 G1 4 0 6 0
0

0101000
+52 2 -50 2 *
Ed
 1e-07 1 1 0
1  7 0 1 2
2  13 4 7 1 2
2  14 5 7 1 2
0

0101000
+57 8 -50 8 *
Wi

0101100
-56 0 +51 3 +49 0 -48 6 *
Fa
0  1e-07 4 0

0101000
+47 0 *
Ve
1.01e-07
735 50.0000000000003 -3
0 0

0101101
*
Ed
 1e-07 1 1 0
1  8 0 2 3
2  15 6 4 2 3
2  16 3 4 2 3
0

0101000
+52 5 -45 5 *
Ve
1.01e-07
715 70.0000000000001 -138
0 0

0101101
*
Ed
 1e-07 1 1 0
1  9 0 0 132
2  17 6 0 0 132
2  18 7 0 0 132
4 G1 6 0 7 0
0

0101000
+45 2 -43 2 *
Ed
 1e-07 1 1 0
1  10 0 2 3
2  19 6 7 2 3
2  20 5 7 2 3
0

0101000
+50 8 -43 8 *
Wi

0101100
-49 0 +44 3 +42 0 -41 6 *
Fa
0  1e-07 6 0

0101000
+40 0 *
Ve
1.01e-07
810 125 -3
0 0

0101101
*
Ed
 1e-07 1 1 0
1  11 0 3 4
2  21 7 4 3 4
2  22 3 4 3 4
0

0101000
+45 5 -38 5 *
Ve
1.01e-07
790 145 -138
0 0

0101101
*
Ed
 1e-07 1 1 0
1  12 0 0 132
2  23 7 0 0 132
2  24 8 0 0 132
4 G1 7 0 8 0
0

0101000
+38 2 -36 2 *
Ed
 1e-07 1 1 0
1  13 0 3 4
2  25 7 7 3 4
2  26 5 7 3 4
0

0101000
+43 8 -36 8 *
Wi

0101100
-42 0 +37 3 +35 0 -34 6 *
Fa
0  1e-07 7 0

0101000
+33 0 *
Ve
1.01e-07
810 295 -3
0 0

0101101
*
Ed
 1e-07 1 1 0
1  14 0 4 5
2  27 8 4 4 5
2  28 3 4 4 5
0

0101000
+38 5 -31 5 *
Ve
1.01e-07
790 275 -138
0 0

0101101
*
Ed
 1e-07 1 1 0
1  15 0 0 132
2  29 8 0 0 132
2  30 9 0 0 132
4 G1 8 0 9 0
0

0101000
+31 2 -29 2 *
Ed
 1e-07 1 1 0
1  16 0 4 5
2  31 8 7 4 5
2  32 5 7 4 5
0

0101000
+36 8 -29 8 *
Wi

0101100
-35 0 +30 3 +28 0 -27 6 *
Fa
0  1e-07 8 0

0101000
+26 0 *
Ve
1.01e-07
735 370 -3
0 0

0101101
*
Ed
 1e-07 1 1 0
1  17 0 5 6
2  33 9 4 5 6
2  34 3 4 5 6
0

0101000
+31 5 -24 5 *
Ve
1.01e-07
715 350 -138
0 0

0101101
*
Ed
 1e-07 1 1 0
1  18 0 0 132
2  35 9 0 0 132
2  36 10 0 0 132
4 G1 9 0 10 0
0

0101000
+24 2 -22 2 *
Ed
 1e-07 1 1 0
1  19 0 5 6
2  37 9 7 5 6
2  38 5 7 5 6
0

0101000
+29 8 -22 8 *
Wi

0101100
-28 0 +23 3 +21 0 -20 6 *
Fa
0  1e-07 9 0

0101000
+19 0 *
Ve
1.01e-07
485 370 -3
0 0

0101101
*
Ed
 1e-07 1 1 0
1  20 0 6 7
2  39 10 4 6 7
2  40 3 4 6 7
0

0101000
+24 5 -17 5 *
Ve
1.01e-07
505 350 -138
0 0

0101101
*
Ed
 1e-07 1 1 0
1  21 0 0 132
2  41 10 0 0 132
2  42 2 0 0 132
4 G1 10 0 2 0
0

0101000
+17 2 -15 2 *
Ed
 1e-07 1 1 0
1  22 0 6 7
2  43 10 7 6 7
2  44 5 7 6 7
0

0101000
+22 8 -15 8 *
Wi

0101100
-21 0 +16 3 +14 0 -13 6 *
Fa
0  1e-07 10 0

0101000
+12 0 *
Ed
 1e-07 1 1 0
1  23 0 7 8
2  45 2 4 7 8
2  46 3 4 7 8
0

0101000
+17 5 -62 5 *
Ed
 1e-07 1 1 0
1  24 0 7 8
2  47 2 7 7 8
2  48 5 7 7 8
0

0101000
+15 8 -61 8 *
Wi

0101100
-14 0 +10 3 +60 0 -9 6 *
Fa
0  1e-07 2 0

0101000
+8 0 *
Wi

0101100
+58 3 +51 3 +44 3 +37 3 +30 3 +23 3 +16 3 +10 3 *
Fa
0  1e-07 3 0

0101000
-6 0 *
Wi

0101100
+55 6 +48 6 +41 6 +34 6 +27 6 +20 6 +13 6 +9 6 *
Fa
0  1e-07 5 0

0101000
-4 0 *
Sh

0101100
+53 0 +46 0 +39 0 +32 0 +25 0 +18 0 +11 0 +7 0 +5 0 -3 0 
*
So

1100100
-2 0 *

+1 1 