DBRep_DrawableShape

CASCADE Topology V1, (c) Matra-Datavision
Locations 42
1
              0               0               1               0 
              1               0               0               0 
              0               1               0               0 
1
              0               0               1               0 
              1               0               0               0 
              0               1               0               0 
1
              0 1.11022302462516e-016               1               0 
              1               0 1.11022302462516e-016               0 
1.11022302462516e-016               1               0               0 
2  2 1 3 -1 0
1
              0               0               1               0 
              1               0               0               0 
              0               1               0               0 
1
              0 1.11022302462516e-016               1               0 
              1               0 1.11022302462516e-016               0 
1.11022302462516e-016               1               0               0 
2  5 1 6 -1 0
1
              0               0               1               0 
              1               0               0               0 
              0               1               0               0 
1
              0 1.11022302462516e-016               1               0 
              1               0 1.11022302462516e-016               0 
1.11022302462516e-016               1               0               0 
2  8 1 9 -1 5 1 6 -1 0
2  9 1 8 -1 0
2  8 -1 0
2  1 -1 3 1 2 -1 6 1 5 -1 9 1 8 -1 0
2  1 -1 3 1 2 -1 6 1 5 -1 0
1
              1               0               0               0 
              0               1               0 6.66133814775094e-015 
              0               0               1              60 
2  8 1 9 -1 15 1 5 1 6 -1 0
2  15 -1 9 1 8 -1 0
2  1 -1 3 1 2 -1 6 1 5 -1 15 -1 9 1 8 -1 0
2  9 -1 5 1 6 -1 2 1 3 -1 0
1
              0 1.11022302462516e-016              -1 9.18154441365007e-015 
              1 -2.22044604925031e-016 1.11022302462516e-016 1.13171272460609e-046 
-1.11022302462516e-016              -1 -2.22044604925031e-016 2.03871240193057e-030 
2  20 1 3 -1 0
2  9 -1 5 1 6 -1 2 1 20 -1 0
2  3 1 20 -1 0
2  1 -1 3 1 20 -1 0
2  8 1 9 -1 5 1 6 -1 2 1 3 -1 0
2  9 -1 15 1 5 1 6 -1 2 1 3 -1 0
2  8 1 9 -1 15 1 5 1 6 -1 2 1 3 -1 0
1
-2.22044604925031e-016 -1.11022302462516e-016               1              60 
              1 -2.22044604925031e-016 1.11022302462516e-016              -0 
1.11022302462516e-016               1               0 6.66133814775094e-015 
2  28 1 6 -1 2 1 3 -1 0
2  9 -1 15 1 5 1 28 -1 0
2  6 1 28 -1 0
2  1 -1 3 1 2 -1 6 1 28 -1 0
2  1 -1 0
1
              1               0               0 -5.95634652711397e-015 
              0               1               0 -1.19126930542279e-014 
              0               0               1          -53.65 
2  6 -1 34 1 2 1 3 -1 0
2  28 1 6 -1 0
2  1 -1 3 1 2 -1 0
2  28 1 6 -1 34 1 0
2  34 -1 6 1 28 -1 0
2  28 -1 0
2  1 -1 3 1 2 -1 34 -1 6 1 28 -1 0
2  28 1 6 -1 34 1 2 1 3 -1 0
Curve2ds 52
1 0 0 1 0 
2 9.1815444136500433e-015 41.349999999999994 -2.2204460492503131e-016 -1 -1 2.2204460492503131e-016 41.350000000000001
1 0 0 0 -1 
1 6.2831853071795898 0 0 -1 
1 0 -60 1 0 
2 9.1815444136500433e-015 41.349999999999994 -2.2204460492503131e-016 -1 -1 2.2204460492503131e-016 41.350000000000001
2 1.3772316620475089e-014 41.349999999999994 -2.220446049250319e-016 -1 1 -2.220446049250319e-016 3.1499999999999999
1 0 0 1 0 
2 12.900000000000015 54.25 -2.220446049250319e-016 -1 1 -2.220446049250319e-016 7
1 0 0 1 0 
2 12.900000000000009 28.449999999999999 -2.220446049250319e-016 -1 1 -2.220446049250319e-016 7
1 0 0 1 0 
2 -12.899999999999983 54.249999999999986 -2.220446049250319e-016 -1 1 -2.220446049250319e-016 7
1 0 0 1 0 
2 -12.899999999999988 28.449999999999992 -2.220446049250319e-016 -1 1 -2.220446049250319e-016 7
1 0 0 1 0 
2 9.1815444136500417e-015 41.349999999999994 -3.3306690738754701e-016 -1 -1 3.3306690738754701e-016 35.5
1 0 0 1 0 
1 0 0 0 -1 
1 6.2831853071795862 0 0 -1 
1 5.497787143782138 -6.3500000000000068 1 0 
2 35.499999999999986 -1.3233858453531925e-014 -0.70710678118654746 0.70710678118654757 -0.70710678118654757 -0.70710678118654746 3.1499999999999999
1 -0.78539816339744828 -6.3500000000000068 1 0 
2 35.499999999999986 -1.3233858453531925e-014 -0.70710678118654746 0.70710678118654757 -0.70710678118654757 -0.70710678118654746 3.1499999999999999
1 0 0 0 -1 
1 6.2831853071795862 0 0 -1 
1 5.497787143782138 -6.350000000000013 1 0 
2 48.399999999999991 -12.900000000000013 -0.70710678118654746 0.70710678118654757 -0.70710678118654757 -0.70710678118654746 7
1 -0.78539816339744828 -6.350000000000013 1 0 
2 48.399999999999991 -12.900000000000013 -0.70710678118654746 0.70710678118654757 -0.70710678118654757 -0.70710678118654746 7
1 0 0 0 -1 
1 6.2831853071795862 0 0 -1 
1 5.497787143782138 -6.350000000000005 1 0 
2 22.599999999999991 -12.900000000000011 -0.70710678118654746 0.70710678118654757 -0.70710678118654757 -0.70710678118654746 7
1 -0.78539816339744828 -6.350000000000005 1 0 
2 22.599999999999991 -12.900000000000011 -0.70710678118654746 0.70710678118654757 -0.70710678118654757 -0.70710678118654746 7
1 0 0 0 -1 
1 6.2831853071795862 0 0 -1 
1 5.497787143782138 -6.3500000000000076 1 0 
2 48.399999999999977 12.899999999999984 -0.70710678118654746 0.70710678118654757 -0.70710678118654757 -0.70710678118654746 7
1 -0.78539816339744828 -6.3500000000000076 1 0 
2 48.399999999999977 12.899999999999984 -0.70710678118654746 0.70710678118654757 -0.70710678118654757 -0.70710678118654746 7
1 0 0 0 -1 
1 6.2831853071795862 0 0 -1 
1 5.497787143782138 -6.3499999999999996 1 0 
2 22.599999999999984 12.899999999999986 -0.70710678118654746 0.70710678118654757 -0.70710678118654757 -0.70710678118654746 7
1 -0.78539816339744828 -6.3499999999999996 1 0 
2 22.599999999999984 12.899999999999986 -0.70710678118654746 0.70710678118654757 -0.70710678118654757 -0.70710678118654746 7
1 0 0 0 -1 
1 6.2831853071795862 0 0 -1 
1 0 -53.649999999999999 1 0 
2 35.499999999999993 -7.8825834748386051e-015 -1 2.2204460492503126e-016 2.2204460492503126e-016 1 35.5
Curves 26
2 0 0 0 0 0 1 1 0 -0 -0 1 0 41.350000000000001
1 41.349999999999994 0 4.5907722068250225e-015 0 1.1102230246251568e-016 1 
2 0 0 0 0 0 1 1 0 -0 -0 1 0 41.350000000000001
2 0 0 0 0 0 1 1 0 -0 -0 1 0 3.1499999999999999
2 -12.9 12.9 0 0 0 1 1 0 -0 -0 1 0 7
2 12.9 12.9 0 0 0 1 1 0 -0 -0 1 0 7
2 -12.9 -12.9 0 0 0 1 1 0 -0 -0 1 0 7
2 12.9 -12.9 0 0 0 1 1 0 -0 -0 1 0 7
2 -0 -0 0 0 0 1 1 0 -0 -0 1 0 35.5
1 3.1499999999999995 -3.4972025275692119e-016 9.5312646664069967e-015 -1.1102230246251563e-016 2.2204460492503136e-016 1 
2 -7.0499162063697535e-016 7.0499162063697841e-016 6.3500000000000156 1.1102230246251568e-016 -1.1102230246251568e-016 -1 0.70710678118654757 0.70710678118654757 0 0.70710678118654757 -0.70710678118654757 1.5700924586837754e-016 3.1499999999999999
2 -7.0499162063697535e-016 7.0499162063697841e-016 6.3500000000000156 1.1102230246251568e-016 -1.1102230246251568e-016 -1 0.70710678118654757 0.70710678118654757 0 0.70710678118654757 -0.70710678118654757 1.5700924586837754e-016 3.1499999999999999
1 -5.9000000000000039 -12.899999999999999 9.9587005308876813e-015 -1.1102230246251563e-016 2.2204460492503136e-016 1 
2 -12.900000000000002 -12.899999999999997 6.3500000000000218 1.1102230246251568e-016 -1.1102230246251568e-016 -1 0.70710678118654757 0.70710678118654757 0 0.70710678118654757 -0.70710678118654757 1.5700924586837754e-016 7
2 -12.900000000000002 -12.899999999999997 6.3500000000000218 1.1102230246251568e-016 -1.1102230246251568e-016 -1 0.70710678118654757 0.70710678118654757 0 0.70710678118654757 -0.70710678118654757 1.5700924586837754e-016 7
1 19.899999999999991 -12.9 1.2823075934420585e-014 -1.1102230246251563e-016 2.2204460492503136e-016 1 
2 12.899999999999995 -12.9 6.3500000000000174 1.1102230246251568e-016 -1.1102230246251568e-016 -1 0.70710678118654757 0.70710678118654757 0 0.70710678118654757 -0.70710678118654757 1.5700924586837754e-016 7
2 12.899999999999995 -12.9 6.3500000000000174 1.1102230246251568e-016 -1.1102230246251568e-016 -1 0.70710678118654757 0.70710678118654757 0 0.70710678118654757 -0.70710678118654757 1.5700924586837754e-016 7
1 -5.899999999999995 12.899999999999999 7.094325127354777e-015 -1.1102230246251563e-016 2.2204460492503136e-016 1 
2 -12.899999999999995 12.9 6.3500000000000139 1.1102230246251568e-016 -1.1102230246251568e-016 -1 0.70710678118654757 0.70710678118654757 0 0.70710678118654757 -0.70710678118654757 1.5700924586837754e-016 7
2 -12.899999999999995 12.9 6.3500000000000139 1.1102230246251568e-016 -1.1102230246251568e-016 -1 0.70710678118654757 0.70710678118654757 0 0.70710678118654757 -0.70710678118654757 1.5700924586837754e-016 7
1 19.899999999999999 12.899999999999997 9.9587005308876813e-015 -1.1102230246251563e-016 2.2204460492503136e-016 1 
2 12.900000000000002 12.899999999999997 6.3500000000000085 1.1102230246251568e-016 -1.1102230246251568e-016 -1 0.70710678118654757 0.70710678118654757 0 0.70710678118654757 -0.70710678118654757 1.5700924586837754e-016 7
2 12.900000000000002 12.899999999999997 6.3500000000000085 1.1102230246251568e-016 -1.1102230246251568e-016 -1 0.70710678118654757 0.70710678118654757 0 0.70710678118654757 -0.70710678118654757 1.5700924586837754e-016 7
1 35.499999999999993 1.7263968032921184e-014 60 -1.1102230246251568e-016 -2.2204460492503136e-016 -1 
2 -0 -0 0 0 0 1 1 0 -0 -0 1 0 35.5
Polygon3D 0
PolygonOnTriangulations 0
Surfaces 10
2 0 0 0 1.1102230246251568e-016 -1.2325951644078315e-032 -1 1 0 1.1102230246251568e-016 1.3684555315672051e-048 1 -1.2325951644078315e-032 41.350000000000001
1 0 41.350000000000001 0 -1 -0 0 -0 0 -1 0 -1 -0 
1 0 41.350000000000001 0 -1 -0 0 -0 0 -1 0 -1 -0 
2 3.395138173818258e-046 3.0580686028958443e-030 9.1815444136500717e-015 1.1102230246251568e-016 -1.1102230246251568e-016 -1 1 -1.1102230246251565e-016 1.110223024625157e-016 -1.1102230246251568e-016 -1 1.1102230246251565e-016 3.1499999999999999
2 -12.900000000000002 -12.899999999999997 9.1815444136500717e-015 1.1102230246251568e-016 -1.1102230246251568e-016 -1 1 -1.1102230246251565e-016 1.110223024625157e-016 -1.1102230246251568e-016 -1 1.1102230246251565e-016 7
2 12.899999999999995 -12.9 1.2045919817182975e-014 1.1102230246251568e-016 -1.1102230246251568e-016 -1 1 -1.1102230246251565e-016 1.110223024625157e-016 -1.1102230246251568e-016 -1 1.1102230246251565e-016 7
2 -12.899999999999995 12.9 6.3171690101171682e-015 1.1102230246251568e-016 -1.1102230246251568e-016 -1 1 -1.1102230246251565e-016 1.110223024625157e-016 -1.1102230246251568e-016 -1 1.1102230246251565e-016 7
2 12.900000000000002 12.899999999999997 9.1815444136500717e-015 1.1102230246251568e-016 -1.1102230246251568e-016 -1 1 -1.1102230246251565e-016 1.110223024625157e-016 -1.1102230246251568e-016 -1 1.1102230246251565e-016 7
2 7.3955709864469883e-031 1.3322676295501882e-014 60 1.1102230246251563e-016 1.1102230246251568e-016 1 1 1.1102230246251563e-016 -1.1102230246251564e-016 -1.1102230246251564e-016 1 -1.1102230246251568e-016 35.5
1 60 35.5 1.0602629885170248e-014 -1 -2.0015288331270426e-016 -1.1555832105966956e-016 2.0015288331270426e-016 -1 0 -1.1555832105966956e-016 -2.3129331150868058e-032 1 
Triangulations 0

TShapes 78
Ve
1e-007
1.37723166204751e-014 41.35 1.52903430144791e-030
0 0

0101101
*
Ed
 1e-007 1 1 0
1  1 0 0 6.28318530717959
2  1 1 11 0 6.28318530717959
2  2 2 12 0 6.28318530717959
0

0101100
+78 13 -78 13 *
Ve
1e-007
60 41.35 1.99840144432528e-014
0 0

0101101
*
Ed
 1e-007 1 1 0
1  2 0 0 60
3  3 4CN 1 0 0 60
0

0101000
+78 14 -76 14 *
Ed
 1e-007 1 1 0
1  3 0 0 6.28318530717959
2  5 1 17 0 6.28318530717959
2  6 3 12 0 6.28318530717959
0

0101100
+76 18 -76 18 *
Wi

0101000
-77 10 -75 7 +74 16 +75 7 *
Fa
0  1e-007 1 7

0101000
+73 0 *
Ve
1e-007
9.531264666407e-015 3.15 -3.49720252756921e-016
0 0

0101101
*
Ed
 1e-007 1 1 0
1  4 0 0 6.28318530717959
2  7 2 22 0 6.28318530717959
2  8 4 23 0 6.28318530717959
0

0101100
+71 24 -71 24 *
Wi

0101000
-70 21 *
Ve
1e-007
9.95870053088768e-015 -5.9 -12.9
0 0

0101101
*
Ed
 1e-007 1 1 0
1  5 0 0 6.28318530717959
2  9 2 22 0 6.28318530717959
2  10 5 23 0 6.28318530717959
0

0101100
+68 24 -68 24 *
Wi

0101000
-67 21 *
Ve
1e-007
1.28230759344206e-014 19.9 -12.9
0 0

0101101
*
Ed
 1e-007 1 1 0
1  6 0 0 6.28318530717959
2  11 2 22 0 6.28318530717959
2  12 6 23 0 6.28318530717959
0

0101100
+65 24 -65 24 *
Wi

0101000
-64 21 *
Ve
1e-007
7.09432512735478e-015 -5.9 12.9
0 0

0101101
*
Ed
 1e-007 1 1 0
1  7 0 0 6.28318530717959
2  13 2 22 0 6.28318530717959
2  14 7 23 0 6.28318530717959
0

0101100
+62 24 -62 24 *
Wi

0101000
-61 21 *
Ve
1e-007
9.95870053088768e-015 19.9 12.9
0 0

0101101
*
Ed
 1e-007 1 1 0
1  8 0 0 6.28318530717959
2  15 2 22 0 6.28318530717959
2  16 8 23 0 6.28318530717959
0

0101100
+59 24 -59 24 *
Wi

0101000
-58 21 *
Wi

0101000
-77 25 *
Fa
0  1e-007 2 19

0101000
+69 0 +66 0 +63 0 +60 0 +57 0 +56 0 *
Wi

0101000
-74 27 *
Ve
1e-007
60 35.5 2.39253061806721e-014
0 0

0101101
*
Ed
 1e-007 1 1 0
1  9 0 0 6.28318530717959
2  17 3 30 0 6.28318530717959
2  18 9 31 0 6.28318530717959
0

0101100
+53 32 -53 32 *
Wi

0101000
+52 29 *
Fa
0  1e-007 3 26

0101000
+54 0 +51 0 *
Ve
2.00001e-007
6.35000000000001 3.15 1.06026298851703e-015
0 0

0101101
*
Ed
 1e-007 1 1 0
1  10 0 0 6.35
3  19 20CN 4 0 0 6.35
0

0101000
+71 33 -49 33 *
Ve
1e-007
6.35000000000002 2.22738636073762 2.22738636073763
0 0

0101101
*
Ed
 1e-007 1 1 0
1  11 0 0 0.785398163397448
2  21 4 0 0 0.785398163397448
2  22 10 35 0 0.785398163397448
0

0101000
+47 33 -49 33 *
Ed
 1e-007 1 1 0
1  12 0 0.785398163397448 6.28318530717959
2  23 4 0 0.785398163397448 6.28318530717959
2  24 10 35 0.785398163397448 6.28318530717959
0

0101000
+49 33 -47 33 *
Wi

0101000
+48 0 -70 21 -48 0 +46 0 +45 0 *
Fa
0  1e-007 4 0

0101000
+44 0 *
Ve
2.00001e-007
6.35000000000002 -5.9 -12.9
0 0

0101101
*
Ed
 1e-007 1 1 0
1  13 0 0 6.35000000000001
3  25 26CN 5 0 0 6.35000000000001
0

0101000
+68 33 -42 33 *
Ve
1e-007
6.35000000000002 -7.95025253169417 -7.95025253169416
0 0

0101101
*
Ed
 1e-007 1 1 0
1  14 0 0 0.785398163397448
2  27 5 0 0 0.785398163397448
2  28 10 35 0 0.785398163397448
0

0101000
+40 33 -42 33 *
Ed
 1e-007 1 1 0
1  15 0 0.785398163397448 6.28318530717959
2  29 5 0 0.785398163397448 6.28318530717959
2  30 10 35 0.785398163397448 6.28318530717959
0

0101000
+42 33 -40 33 *
Wi

0101000
+41 0 -67 21 -41 0 +39 0 +38 0 *
Fa
0  1e-007 5 0

0101000
+37 0 *
Ve
2.00001e-007
6.35000000000001 19.9 -12.9
0 0

0101101
*
Ed
 1e-007 1 1 0
1  16 0 0 6.35
3  31 32CN 6 0 0 6.35
0

0101000
+65 33 -35 33 *
Ve
1e-007
6.35000000000002 17.8497474683058 -7.95025253169417
0 0

0101101
*
Ed
 1e-007 1 1 0
1  17 0 0 0.785398163397448
2  33 6 0 0 0.785398163397448
2  34 10 35 0 0.785398163397448
0

0101000
+33 33 -35 33 *
Ed
 1e-007 1 1 0
1  18 0 0.785398163397448 6.28318530717959
2  35 6 0 0.785398163397448 6.28318530717959
2  36 10 35 0.785398163397448 6.28318530717959
0

0101000
+35 33 -33 33 *
Wi

0101000
+34 0 -64 21 -34 0 +32 0 +31 0 *
Fa
0  1e-007 6 0

0101000
+30 0 *
Ve
2.00001e-007
6.35000000000001 -5.9 12.9
0 0

0101101
*
Ed
 1e-007 1 1 0
1  19 0 0 6.35000000000001
3  37 38CN 7 0 0 6.35000000000001
0

0101000
+62 33 -28 33 *
Ve
1e-007
6.35000000000001 -7.95025253169416 17.8497474683058
0 0

0101101
*
Ed
 1e-007 1 1 0
1  20 0 0 0.785398163397448
2  39 7 0 0 0.785398163397448
2  40 10 35 0 0.785398163397448
0

0101000
+26 33 -28 33 *
Ed
 1e-007 1 1 0
1  21 0 0.785398163397448 6.28318530717959
2  41 7 0 0.785398163397448 6.28318530717959
2  42 10 35 0.785398163397448 6.28318530717959
0

0101000
+28 33 -26 33 *
Wi

0101000
+27 0 -61 21 -27 0 +25 0 +24 0 *
Fa
0  1e-007 7 0

0101000
+23 0 *
Ve
2.00001e-007
6.35000000000001 19.9 12.9
0 0

0101101
*
Ed
 1e-007 1 1 0
1  22 0 0 6.35
3  43 44CN 8 0 0 6.35
0

0101000
+59 33 -21 33 *
Ve
1e-007
6.35000000000001 17.8497474683058 17.8497474683058
0 0

0101101
*
Ed
 1e-007 1 1 0
1  23 0 0 0.785398163397448
2  45 8 0 0 0.785398163397448
2  46 10 35 0 0.785398163397448
0

0101000
+19 33 -21 33 *
Ed
 1e-007 1 1 0
1  24 0 0.785398163397448 6.28318530717959
2  47 8 0 0.785398163397448 6.28318530717959
2  48 10 35 0.785398163397448 6.28318530717959
0

0101000
+21 33 -19 33 *
Wi

0101000
+20 0 -58 21 -20 0 +18 0 +17 0 *
Fa
0  1e-007 8 0

0101000
+16 0 *
Ve
1e-007
6.35 35.5 6.05626659933022e-015
0 0

0101101
*
Ed
 1e-007 1 1 0
1  25 0 0 53.65
3  49 50CN 9 0 0 53.65
0

0101000
+53 37 -14 37 *
Ed
 1e-007 1 1 0
1  26 0 0 6.28318530717959
2  51 9 39 0 6.28318530717959
2  52 10 40 0 6.28318530717959
0

0101100
+14 41 -14 41 *
Wi

0101000
-52 36 -13 0 +12 38 +13 0 *
Fa
0  1e-007 9 0

0101000
+11 0 *
Wi

0101000
-45 0 -46 0 *
Wi

0101000
-38 0 -39 0 *
Wi

0101000
-31 0 -32 0 *
Wi

0101000
-24 0 -25 0 *
Wi

0101000
-17 0 -18 0 *
Wi

0101000
-12 42 *
Fa
0  1e-007 10 35

0101000
+9 0 +8 0 +7 0 +6 0 +5 0 +4 0 *
Sh

0101000
-72 4 +55 0 -50 0 -43 0 -36 0 -29 0 -22 0 -15 0 -10 4 -3 0 
*
So

0100000
+2 0 *

+1 1 