DBRep_DrawableShape

CASCADE Topology V1, (c) Matra-Datavision
Locations 9
1
              1               0               0               0 
              0               1               0               0 
              0               0               1               0 
2  1 -1 0
1
              1               0               0               0 
              0               1               0               0 
              0               0               1               0 
2  3 -1 0
2  1 -1 3 -1 0
1
              1               0               0               0 
              0               1               0               0 
              0               0               1            2100 
2  3 1 6 1 0
2  6 -1 3 -1 0
2  1 -1 6 -1 3 -1 0
Curve2ds 8
1 0 0 0 -1 
1 1.5707963267948966 0 0 -1 
1 0 0 1 0 
1 0 -2100 1 0 
1 4.7123889803846897 0 0 -1 
1 6.2831853071795862 0 0 -1 
1 0 0 1 0 
1 0 -2100 1 0 
Curves 8
1 410.00000000000017 -1.4210854715202004e-14 0 0 0 1 
1 1.8662458731166787e-13 410 0 0 0 1 
2 1.6152015705830913e-13 -1.4210854715202004e-14 0 0 0 1 1 0 -0 -0 1 0 410
2 1.6152015705830913e-13 -1.4210854715202004e-14 0 0 0 1 1 0 -0 -0 1 0 410
1 -7.5313290760076201e-14 -450 0 0 0 1 
1 410 -40.000000000000099 0 0 0 1 
2 0 -40 0 0 0 1 1 0 -0 -0 1 0 410
2 0 -40 0 0 0 1 1 0 -0 -0 1 0 410
Polygon3D 0
PolygonOnTriangulations 0
Surfaces 2
2 1.6152015705830913e-13 -1.4210854715202004e-14 0 -0 -0 -1 1 0 0 -0 1 -0 410
2 0 -40 0 -0 -0 -1 1 0 0 -0 1 -0 410
Triangulations 0

TShapes 23
Ve
1e-07
410 -1.4210854715202e-14 0
0 0

0101101
*
Ve
1e-07
410 -1.4210854715202e-14 2100
0 0

0101101
*
Ed
 1e-07 1 1 0
1  1 0 0 2100
2  1 1 0 0 2100
0

0101000
+23 2 -22 2 *
Ve
1e-07
1.86624587311668e-13 410 0
0 0

0101101
*
Ve
1e-07
1.86624587311668e-13 410 2100
0 0

0101101
*
Ed
 1e-07 1 1 0
1  2 0 0 2100
2  2 1 0 0 2100
0

0101000
+20 2 -19 2 *
Ed
 1e-07 1 1 0
1  3 0 0 1.5707963267949
2  3 1 4 0 1.5707963267949
0

0101000
+23 5 -20 5 *
Ed
 1e-07 1 1 0
1  4 0 0 1.5707963267949
2  4 1 8 0 1.5707963267949
0

0101000
+22 9 -19 9 *
Wi

0101000
+21 0 -18 0 -17 3 +16 7 *
Fa
0  1e-07 1 0

0101000
+15 0 *
Sh

0101000
+14 0 *
Ve
1e-07
-7.53132907600762e-14 -450 0
0 0

0101101
*
Ve
1e-07
-7.53132907600762e-14 -450 2100
0 0

0101101
*
Ed
 1e-07 1 1 0
1  5 0 0 2100
2  5 2 0 0 2100
0

0101000
+12 2 -11 2 *
Ve
1e-07
410 -40.0000000000001 0
0 0

0101101
*
Ve
1e-07
410 -40.0000000000001 2100
0 0

0101101
*
Ed
 1e-07 1 1 0
1  6 0 0 2100
2  6 2 0 0 2100
0

0101000
+9 2 -8 2 *
Ed
 1e-07 1 1 0
1  7 0 4.71238898038469 6.28318530717959
2  7 2 4 4.71238898038469 6.28318530717959
0

0101000
+12 5 -9 5 *
Ed
 1e-07 1 1 0
1  8 0 4.71238898038469 6.28318530717959
2  8 2 8 4.71238898038469 6.28318530717959
0

0101000
+11 9 -8 9 *
Wi

0101000
+10 0 -7 0 -6 3 +5 7 *
Fa
0  1e-07 2 0

0101000
+4 0 *
Sh

0101000
+3 0 *
Co

1100000
+13 0 +2 0 *

+1 1 