DBRep_DrawableShape

CASCADE Topology V1, (c) Matra-Datavision
Locations 13
1
              1               0               0            7600 
              0               1               0               0 
              0               0               1               0 
2  1 -1 0
1
              1               0               0              -0 
              0 1.77321265310004e-16              -1              -0 
              0               1 1.77321265310004e-16               0 
2  3 -1 0
2  1 -1 3 -1 0
1
              1               0               0               0 
              0               1               0              -1 
              0               0               1 1.77321265310004e-16 
2  3 1 6 1 0
2  6 -1 3 -1 0
2  1 -1 6 -1 3 -1 0
1
              1               0               0               0 
              0               1               0              -1 
              0               0               1 1.77321265310004e-16 
2  3 1 10 1 0
2  10 -1 3 -1 0
2  1 -1 10 -1 3 -1 0
Curve2ds 48
8 0 1
7 0 0  1 2 2  0 0  0 -1 
 0 2 1 2
8 0 1
7 0 0  1 2 2  1000 0  1000 -1 
 0 2 1 2
8 0 1
7 0 0  1 2 2  1800 0  1800 -1 
 0 2 1 2
8 0 1
7 0 0  1 2 2  0 0  2.2204460492503131e-16 -1 
 0 2 1 2
8 0 1800
7 0 0  1 2 2  0 0  1800 0 
 0 2 1800 2
8 0 1800
7 0 0  1 2 2  0 0  0 1800 
 0 2 1800 2
8 0 1800
7 0 0  1 2 2  0 -1  1800 -1 
 0 2 1800 2
8 0 1800
7 0 0  1 2 2  2.2204460492503131e-16 0  2.2204460492503131e-16 1800 
 0 2 1800 2
8 0 1
7 0 0  1 2 2  0 0  -2.2204460492503131e-16 -1 
 0 2 1 2
8 0 1
7 0 0  1 2 2  1800 0  1800 -1 
 0 2 1 2
8 0 1000
7 0 0  1 2 2  0 0  1000 0 
 0 2 1000 2
8 0 1000
7 0 0  1 2 2  1000 0  0 0 
 0 2 1000 2
8 0 1000
7 0 0  1 2 2  -2.2204460492503131e-16 -1  1000 -1 
 0 2 1000 2
8 0 1000
7 0 0  1 2 2  1000 0  2.2204460492503131e-16 0 
 0 2 1000 2
8 0 1
7 0 0  1 2 2  1000 0  1000 -1 
 0 2 1 2
8 0 1
7 0 0  1 2 2  0 0  0 -1 
 0 2 1 2
8 0 1000
7 0 0  1 2 2  0 0  1000 0 
 0 2 1000 2
8 0 1000
7 0 0  1 2 2  0 1800  1000 1800 
 0 2 1000 2
8 0 1000
7 0 0  1 2 2  2.2204460492503131e-16 -1  1000 -1 
 0 2 1000 2
8 0 1000
7 0 0  1 2 2  2.2204460492503131e-16 1800  1000 1800 
 0 2 1000 2
8 0 1800
7 0 0  1 2 2  1000 1800  1000 0 
 0 2 1800 2
8 0 1800
7 0 0  1 2 2  0 0  1800 0 
 0 2 1800 2
8 0 900
7 0 0  1 2 2  950 50  50 50 
 0 2 900 2
8 0 900
7 0 0  1 2 2  0 0  900 0 
 0 2 900 2
8 0 1700
7 0 0  1 2 2  950 1750  950 50 
 0 2 1700 2
8 0 1700
7 0 0  1 2 2  0 0  1700 0 
 0 2 1700 2
8 0 900
7 0 0  1 2 2  50 1750  950 1750 
 0 2 900 2
8 0 900
7 0 0  1 2 2  0 0  900 0 
 0 2 900 2
8 0 1700
7 0 0  1 2 2  50 50  50 1750 
 0 2 1700 2
8 0 1700
7 0 0  1 2 2  0 0  1700 0 
 0 2 1700 2
8 0 1800
7 0 0  1 2 2  1000 1800  1000 0 
 0 2 1800 2
8 0 1800
7 0 0  1 2 2  0 -1  1800 -1 
 0 2 1800 2
8 0 900
7 0 0  1 2 2  950 50  50 50 
 0 2 900 2
8 0 900
7 0 0  1 2 2  -2.2204460492503131e-16 -1  900 -1 
 0 2 900 2
8 0 1700
7 0 0  1 2 2  950 1750  950 50 
 0 2 1700 2
8 0 1700
7 0 0  1 2 2  0 -1  1700 -1 
 0 2 1700 2
8 0 900
7 0 0  1 2 2  50 1750  950 1750 
 0 2 900 2
8 0 900
7 0 0  1 2 2  2.2204460492503131e-16 -1  900 -1 
 0 2 900 2
8 0 1700
7 0 0  1 2 2  50 50  50 1750 
 0 2 1700 2
8 0 1700
7 0 0  1 2 2  0 -1  1700 -1 
 0 2 1700 2
8 0 1
7 0 0  1 2 2  0 0  -2.2204460492503131e-16 -1 
 0 2 1 2
8 0 1
7 0 0  1 2 2  1700 0  1700 -1 
 0 2 1 2
8 0 1
7 0 0  1 2 2  900 0  900 -1 
 0 2 1 2
8 0 1
7 0 0  1 2 2  0 0  0 -1 
 0 2 1 2
8 0 1
7 0 0  1 2 2  0 0  0 -1 
 0 2 1 2
8 0 1
7 0 0  1 2 2  900 0  900 -1 
 0 2 1 2
8 0 1
7 0 0  1 2 2  0 0  2.2204460492503131e-16 -1 
 0 2 1 2
8 0 1
7 0 0  1 2 2  1700 0  1700 -1 
 0 2 1 2
Curves 24
8 0 1
7 0 0  1 2 2  1150 3.9010678368200935e-13 2200  1150 -0.99999999999960987 2200 
 0 2 1 2
8 0 1
7 0 0  1 2 2  2950 3.9010678368200935e-13 2200  2950 -0.99999999999960987 2200 
 0 2 1 2
8 0 1800
7 0 0  1 2 2  1150 3.9010678368200935e-13 2200  2950 3.9010678368200935e-13 2200 
 0 2 1800 2
8 0 1800
7 0 0  1 2 2  1150 -0.99999999999960987 2200  2950 -0.99999999999960987 2200 
 0 2 1800 2
8 0 1
7 0 0  1 2 2  1150 2.127855183720051e-13 1200  1150 -0.99999999999978717 1200 
 0 2 1 2
8 0 1000
7 0 0  1 2 2  1150 2.127855183720051e-13 1200  1150 3.9010678368200935e-13 2200 
 0 2 1000 2
8 0 1000
7 0 0  1 2 2  1150 -0.99999999999978717 1200  1150 -0.99999999999960987 2200 
 0 2 1000 2
8 0 1
7 0 0  1 2 2  2950 2.127855183720051e-13 1200  2950 -0.99999999999978717 1200 
 0 2 1 2
8 0 1000
7 0 0  1 2 2  2950 3.9010678368200935e-13 2200  2950 2.127855183720051e-13 1200 
 0 2 1000 2
8 0 1000
7 0 0  1 2 2  2950 -0.99999999999960987 2200  2950 -0.99999999999978717 1200 
 0 2 1000 2
8 0 1800
7 0 0  1 2 2  2950 2.127855183720051e-13 1200  1150 2.127855183720051e-13 1200 
 0 2 1800 2
8 0 900
7 0 0  1 2 2  1200 2.2165158163750531e-13 1250  1200 3.8124072041650914e-13 2150 
 0 2 900 2
8 0 1700
7 0 0  1 2 2  2900 2.2165158163750531e-13 1250  1200 2.2165158163750531e-13 1250 
 0 2 1700 2
8 0 900
7 0 0  1 2 2  2900 3.8124072041650914e-13 2150  2900 2.2165158163750531e-13 1250 
 0 2 900 2
8 0 1700
7 0 0  1 2 2  1200 3.8124072041650914e-13 2150  2900 3.8124072041650914e-13 2150 
 0 2 1700 2
8 0 1800
7 0 0  1 2 2  2950 -0.99999999999978717 1200  1150 -0.99999999999978717 1200 
 0 2 1800 2
8 0 900
7 0 0  1 2 2  1200 -0.9999999999997784 1250  1200 -0.99999999999961875 2150 
 0 2 900 2
8 0 1700
7 0 0  1 2 2  2900 -0.9999999999997784 1250  1200 -0.9999999999997784 1250 
 0 2 1700 2
8 0 900
7 0 0  1 2 2  2900 -0.99999999999961875 2150  2900 -0.9999999999997784 1250 
 0 2 900 2
8 0 1700
7 0 0  1 2 2  1200 -0.99999999999961875 2150  2900 -0.99999999999961875 2150 
 0 2 1700 2
8 0 1
7 0 0  1 2 2  1200 2.2165158163750531e-13 1250  1200 -0.9999999999997784 1250 
 0 2 1 2
8 0 1
7 0 0  1 2 2  1200 3.8124072041650914e-13 2150  1200 -0.99999999999961875 2150 
 0 2 1 2
8 0 1
7 0 0  1 2 2  2900 2.2165158163750531e-13 1250  2900 -0.9999999999997784 1250 
 0 2 1 2
8 0 1
7 0 0  1 2 2  2900 3.8124072041650914e-13 2150  2900 -0.99999999999961875 2150 
 0 2 1 2
Polygon3D 0
PolygonOnTriangulations 0
Surfaces 10
9 0 0 0 0 1 1 2 2 2 2 1150.000000001 -0.9999999989996099 2200  1150.000000001 -9.9960989321631805e-10 2200  
2949.999999999 -0.9999999989996099 2200  2949.999999999 -9.9960989321631805e-10 2200  

1.0000000000000001e-09 2
1799.999999999 2

-0.99999999900000003 2
-1.0000000000000001e-09 2

9 0 0 0 0 1 1 2 2 2 2 1150 -0.9999999989997872 1200.000000001  1150 -9.9978721448162785e-10 1200.000000001  
1150 -0.9999999989996099 2199.999999999  1150 -9.9960989321631826e-10 2199.999999999  

9.9999982267873475e-10 2
999.99999999900001 2

-0.99999999900000003 2
-1.0000000000000001e-09 2

9 0 0 0 0 1 1 2 2 2 2 2950 -0.9999999989996099 2199.999999999  2950 -9.9960989321631826e-10 2199.999999999  
2950 -0.9999999989997872 1200.000000001  2950 -9.9978721448162785e-10 1200.000000001  

1.0000000000000001e-09 2
999.99999999900001 2

-0.99999999900000003 2
-1.0000000000000001e-09 2

9 0 0 0 0 1 1 2 2 2 2 1150.000000001 3.9010678368183204e-13 2199.999999999  2949.999999999 3.9010678368183204e-13 2199.999999999  
1150.000000001 2.1278551837218241e-13 1200.000000001  2949.999999999 2.1278551837218241e-13 1200.000000001  

1.0000000000000001e-09 2
999.99999999900001 2

1.0000000000000001e-09 2
1799.999999999 2

9 0 0 0 0 1 1 2 2 2 2 1150.000000001 -0.99999999999960987 2199.999999999  2949.999999999 -0.99999999999960987 2199.999999999  
1150.000000001 -0.99999999999978717 1200.000000001  2949.999999999 -0.99999999999978717 1200.000000001  

1.0000000000000001e-09 2
999.99999999900001 2

1.0000000000000001e-09 2
1799.999999999 2

9 0 0 0 0 1 1 2 2 2 2 2949.999999999 -0.9999999989997872 1200  2949.999999999 -9.9978721448162806e-10 1200  
1150.000000001 -0.9999999989997872 1200  1150.000000001 -9.9978721448162806e-10 1200  

1.0000000000000001e-09 2
1799.999999999 2

-0.99999999900000003 2
-1.0000000000000001e-09 2

9 0 0 0 0 1 1 2 2 2 2 1200 -0.99999999899977843 1250.000000001  1200 -9.9977834841836235e-10 1250.000000001  
1200 -0.99999999899961878 2149.999999999  1200 -9.9961875927958376e-10 2149.999999999  

9.9999982267873475e-10 2
899.99999999900001 2

-0.99999999900000003 2
-1.0000000000000001e-09 2

9 0 0 0 0 1 1 2 2 2 2 2899.999999999 -0.99999999899977843 1250  2899.999999999 -9.9977834841836256e-10 1250  
1200.000000001 -0.99999999899977843 1250  1200.000000001 -9.9977834841836256e-10 1250  

1.0000000000000001e-09 2
1699.999999999 2

-0.99999999900000003 2
-1.0000000000000001e-09 2

9 0 0 0 0 1 1 2 2 2 2 2900 -0.99999999899961878 2149.999999999  2900 -9.9961875927958376e-10 2149.999999999  
2900 -0.99999999899977843 1250.000000001  2900 -9.9977834841836235e-10 1250.000000001  

1.0000000000000001e-09 2
899.99999999900001 2

-0.99999999900000003 2
-1.0000000000000001e-09 2

9 0 0 0 0 1 1 2 2 2 2 1200.000000001 -0.99999999899961878 2150  1200.000000001 -9.9961875927958355e-10 2150  
2899.999999999 -0.99999999899961878 2150  2899.999999999 -9.9961875927958355e-10 2150  

1.0000000000000001e-09 2
1699.999999999 2

-0.99999999900000003 2
-1.0000000000000001e-09 2

Triangulations 0

TShapes 66
Ve
1e-07
8750 3.90106783682009e-13 2200
0 0

0101101
*
Ve
1e-07
8750 -0.99999999999961 2200
0 0

0101101
*
Ed
 1e-07 1 1 0
1  1 0 0 1
2  1 1 0 0 1
2  2 2 0 0 1
0

0101000
+66 2 -65 2 *
Ve
1e-07
10550 3.90106783682009e-13 2200
0 0

0101101
*
Ve
1e-07
10550 -0.99999999999961 2200
0 0

0101101
*
Ed
 1e-07 1 1 0
1  2 0 0 1
2  3 1 0 0 1
2  4 3 0 0 1
0

0101000
+63 2 -62 2 *
Ed
 1e-07 1 1 0
1  3 4 0 1800
2  5 1 4 0 1800
2  6 4 4 0 1800
0

0101000
+66 5 -63 5 *
Ed
 1e-07 1 1 0
1  4 8 0 1800
2  7 1 8 0 1800
2  8 5 8 0 1800
0

0101000
+65 9 -62 9 *
Wi

0101000
+64 0 -61 0 -60 3 +59 7 *
Fa
0  1e-07 1 0

0101000
+58 0 *
Ve
1e-07
8750 2.12785518372005e-13 1200
0 0

0101101
*
Ve
1e-07
8750 -0.999999999999787 1200
0 0

0101101
*
Ed
 1e-07 1 1 0
1  5 0 0 1
2  9 2 0 0 1
2  10 6 0 0 1
0

0101000
+56 2 -55 2 *
Ed
 1e-07 1 1 0
1  6 4 0 1000
2  11 2 4 0 1000
2  12 4 4 0 1000
0

0101000
+56 5 -66 5 *
Ed
 1e-07 1 1 0
1  7 8 0 1000
2  13 2 8 0 1000
2  14 5 8 0 1000
0

0101000
+55 9 -65 9 *
Wi

0101000
+54 0 -64 0 -53 3 +52 7 *
Fa
0  1e-07 2 0

0101000
+51 0 *
Ve
1e-07
10550 2.12785518372005e-13 1200
0 0

0101101
*
Ve
1e-07
10550 -0.999999999999787 1200
0 0

0101101
*
Ed
 1e-07 1 1 0
1  8 0 0 1
2  15 3 0 0 1
2  16 6 0 0 1
0

0101000
+49 2 -48 2 *
Ed
 1e-07 1 1 0
1  9 4 0 1000
2  17 3 4 0 1000
2  18 4 4 0 1000
0

0101000
+63 5 -49 5 *
Ed
 1e-07 1 1 0
1  10 8 0 1000
2  19 3 8 0 1000
2  20 5 8 0 1000
0

0101000
+62 9 -48 9 *
Wi

0101000
+61 0 -47 0 -46 3 +45 7 *
Fa
0  1e-07 3 0

0101000
+44 0 *
Ed
 1e-07 1 1 0
1  11 4 0 1800
2  21 4 4 0 1800
2  22 6 4 0 1800
0

0101000
+49 5 -56 5 *
Wi

0101000
-60 3 -53 3 -46 3 -42 3 *
Ve
1e-07
8800 2.21651581637505e-13 1250
0 0

0101101
*
Ve
1e-07
8800 3.81240720416509e-13 2150
0 0

0101101
*
Ed
 1e-07 1 1 0
1  12 4 0 900
2  23 4 4 0 900
2  24 7 4 0 900
0

0101000
+40 5 -39 5 *
Ve
1e-07
10500 2.21651581637505e-13 1250
0 0

0101101
*
Ed
 1e-07 1 1 0
1  13 4 0 1700
2  25 4 4 0 1700
2  26 8 4 0 1700
0

0101000
+37 5 -40 5 *
Ve
1e-07
10500 3.81240720416509e-13 2150
0 0

0101101
*
Ed
 1e-07 1 1 0
1  14 4 0 900
2  27 4 4 0 900
2  28 9 4 0 900
0

0101000
+35 5 -37 5 *
Ed
 1e-07 1 1 0
1  15 4 0 1700
2  29 4 4 0 1700
2  30 10 4 0 1700
0

0101000
+39 5 -35 5 *
Wi

0101000
+38 3 +36 3 +34 3 +33 3 *
Fa
0  1e-07 4 0

0101000
+41 0 +32 0 *
Ed
 1e-07 1 1 0
1  16 8 0 1800
2  31 5 8 0 1800
2  32 6 8 0 1800
0

0101000
+48 9 -55 9 *
Wi

0101000
-59 7 -52 7 -45 7 -30 7 *
Ve
1e-07
8800 -0.999999999999778 1250
0 0

0101101
*
Ve
1e-07
8800 -0.999999999999619 2150
0 0

0101101
*
Ed
 1e-07 1 1 0
1  17 12 0 900
2  33 5 12 0 900
2  34 7 12 0 900
0

0101000
+28 13 -27 13 *
Ve
1e-07
10500 -0.999999999999778 1250
0 0

0101101
*
Ed
 1e-07 1 1 0
1  18 12 0 1700
2  35 5 12 0 1700
2  36 8 12 0 1700
0

0101000
+25 13 -28 13 *
Ve
1e-07
10500 -0.999999999999619 2150
0 0

0101101
*
Ed
 1e-07 1 1 0
1  19 12 0 900
2  37 5 12 0 900
2  38 9 12 0 900
0

0101000
+23 13 -25 13 *
Ed
 1e-07 1 1 0
1  20 12 0 1700
2  39 5 12 0 1700
2  40 10 12 0 1700
0

0101000
+27 13 -23 13 *
Wi

0101000
+26 11 +24 11 +22 11 +21 11 *
Fa
0  1e-07 5 0

0101000
+29 0 +20 0 *
Wi

0101000
+47 0 -54 0 -42 3 +30 7 *
Fa
0  1e-07 6 0

0101000
+18 0 *
Ed
 1e-07 1 1 0
1  21 0 0 1
2  41 7 0 0 1
2  42 8 0 0 1
0

0101000
+40 2 -28 2 *
Ed
 1e-07 1 1 0
1  22 0 0 1
2  43 7 0 0 1
2  44 10 0 0 1
0

0101000
+39 2 -27 2 *
Wi

0101000
+16 0 -38 3 +26 11 -15 0 *
Fa
0  1e-07 7 0

0101000
+14 0 *
Ed
 1e-07 1 1 0
1  23 0 0 1
2  45 8 0 0 1
2  46 9 0 0 1
0

0101000
+37 2 -25 2 *
Wi

0101000
+12 0 -36 3 +24 11 -16 0 *
Fa
0  1e-07 8 0

0101000
+11 0 *
Ed
 1e-07 1 1 0
1  24 0 0 1
2  47 9 0 0 1
2  48 10 0 0 1
0

0101000
+35 2 -23 2 *
Wi

0101000
+9 0 -34 3 +22 11 -12 0 *
Fa
0  1e-07 9 0

0101000
+8 0 *
Wi

0101000
+15 0 -33 3 +21 11 -9 0 *
Fa
0  1e-07 10 0

0101000
+6 0 *
Sh

0101000
+57 0 +50 0 +43 0 -31 0 +19 0 +17 0 -13 0 -10 0 -7 0 -5 0 
*
So

0100000
+4 0 *
Co

0100000
+3 0 *
Co

1100000
+2 0 *

+1 1 