DBRep_DrawableShape

CASCADE Topology V1, (c) Matra-Datavision
Locations 25
1
              0               0               1               0 
              1               0               0               0 
              0               1               0               0 
1
              0               0               1               0 
              1               0               0               0 
              0               1               0               0 
1
              0 1.11022302462516e-16               1               0 
              1               0 1.11022302462516e-16               0 
1.11022302462516e-16               1               0               0 
2  2 1 3 -1 0
2  1 -1 3 1 2 -1 0
1
              0               0               1               0 
              1               0               0               0 
              0               1               0               0 
1
              0 1.11022302462516e-16               1               0 
              1               0 1.11022302462516e-16               0 
1.11022302462516e-16               1               0               0 
2  6 1 7 -1 0
2  7 1 6 -1 0
2  6 -1 0
2  1 -1 3 1 2 -1 7 1 6 -1 0
1
              1               0               0               0 
              0               1               0 1.40998324127395e-15 
              0               0               1            12.7 
2  6 1 7 -1 12 1 0
2  12 -1 7 1 6 -1 0
2  1 -1 3 1 2 -1 12 -1 7 1 6 -1 0
2  7 -1 2 1 3 -1 0
2  1 -1 0
2  6 1 7 -1 2 1 3 -1 0
2  7 -1 12 1 2 1 3 -1 0
2  6 1 7 -1 12 1 2 1 3 -1 0
1
-2.22044604925031e-16 -1.11022302462516e-16               1            12.7 
              1 -2.22044604925031e-16 1.11022302462516e-16              -0 
1.11022302462516e-16               1               0 1.40998324127395e-15 
2  21 1 3 -1 0
2  7 -1 12 1 2 1 21 -1 0
2  3 1 21 -1 0
2  1 -1 3 1 21 -1 0
Curve2ds 64
1 0 0 2.2204460492503136e-16 -1 
1 82.699999999999989 9.1815444136500433e-15 -2.2204460492503136e-16 -1 
1 82.69999999999996 -9.1815444136500449e-15 2.2204460492503136e-16 -1 
1 0 0 2.2204460492503136e-16 -1 
1 -3.5032461608120435e-46 1.5777218104420236e-30 1 -1.1102230246251568e-16 
1 -0 -0 -2.2204460492503131e-16 -1 
1 2.8199664825478978e-15 -12.699999999999998 1 -1.1102230246251568e-16 
1 -0 -0 -2.2204460492503131e-16 -1 
1 -0 0 -2.2204460492503136e-16 -1 
1 82.69999999999996 9.1815444136500449e-15 -2.2204460492503136e-16 -1 
1 -7.1054273576010019e-15 -2.3665827156630354e-30 1 1.1102230246251568e-16 
1 -82.700000000000003 -1.4210854715202001e-14 1 2.2204460492503131e-16 
1 -7.1054273576010019e-15 -12.699999999999998 1 1.1102230246251568e-16 
1 -82.700000000000003 -1.4210854715202001e-14 1 2.2204460492503131e-16 
1 82.699999999999989 -9.1815444136500433e-15 2.2204460492503136e-16 -1 
1 -0 0 -2.2204460492503136e-16 -1 
1 -7.1054273576010019e-15 2.3665827156630354e-30 1 -1.1102230246251568e-16 
1 -1.8363088827300087e-14 -82.699999999999974 -1 -2.2204460492503131e-16 
1 -7.1054273576010019e-15 -12.699999999999998 1 -1.1102230246251568e-16 
1 -1.8363088827300087e-14 -82.699999999999974 -1 -2.2204460492503131e-16 
2 -28.45000000000001 -54.249999999999986 1 -1.2325951644078318e-32 -1.2325951644078318e-32 -1 9
1 4.7123889803846897 -12.700000000000001 1 0 
2 -28.45000000000001 -54.249999999999986 1 -1.2325951644078318e-32 -1.2325951644078318e-32 -1 9
1 -1.5707963267948966 -12.700000000000001 1 0 
2 -28.450000000000003 -28.449999999999989 1 -1.2325951644078318e-32 -1.2325951644078318e-32 -1 9
1 4.7123889803846897 -12.700000000000005 1 0 
2 -28.450000000000003 -28.449999999999989 1 -1.2325951644078318e-32 -1.2325951644078318e-32 -1 9
1 -1.5707963267948966 -12.700000000000005 1 0 
2 -54.25 -28.449999999999985 1 -1.2325951644078318e-32 -1.2325951644078318e-32 -1 9
1 4.7123889803846897 -12.700000000000008 1 0 
2 -54.25 -28.449999999999985 1 -1.2325951644078318e-32 -1.2325951644078318e-32 -1 9
1 -1.5707963267948966 -12.700000000000008 1 0 
2 -54.250000000000014 -54.249999999999986 1 -1.2325951644078318e-32 -1.2325951644078318e-32 -1 9
1 4.7123889803846897 -12.700000000000005 1 0 
2 -54.250000000000014 -54.249999999999986 1 -1.2325951644078318e-32 -1.2325951644078318e-32 -1 9
1 -1.5707963267948966 -12.700000000000005 1 0 
2 -41.350000000000001 -41.349999999999987 1 -1.2325951644078318e-32 -1.2325951644078318e-32 -1 3.1499999999999999
1 4.7123889803846897 -12.700000000000005 1 0 
2 -41.350000000000001 -41.349999999999987 1 -1.2325951644078318e-32 -1.2325951644078318e-32 -1 3.1499999999999999
1 -1.5707963267948966 -12.700000000000005 1 0 
1 -82.700000000000017 -82.699999999999989 2.2204460492503131e-16 1 
1 -3.5032461608120435e-46 -1.5777218104420236e-30 1 1.1102230246251568e-16 
1 -82.700000000000017 -82.699999999999989 2.2204460492503131e-16 1 
1 -2.8199664825478978e-15 -12.699999999999998 1 1.1102230246251568e-16 
2 -28.450000000000014 -54.249999999999986 -3.3306690738754701e-16 -1 -1 3.3306690738754701e-16 8.9999999999999982
1 0 0 1 0 
2 -28.450000000000003 -28.449999999999989 -3.3306690738754701e-16 -1 -1 3.3306690738754701e-16 9
1 0 0 1 0 
2 -54.25 -28.449999999999989 -3.3306690738754701e-16 -1 -1 3.3306690738754701e-16 9
1 0 0 1 0 
2 -54.250000000000014 -54.249999999999986 -3.3306690738754701e-16 -1 -1 3.3306690738754701e-16 9.0000000000000018
1 0 0 1 0 
2 -41.350000000000001 -41.349999999999987 -3.3306690738754701e-16 -1 -1 3.3306690738754701e-16 3.1499999999999999
1 0 0 1 0 
1 0 0 0 -1 
1 6.2831853071795862 0 0 -1 
1 0 0 0 -1 
1 6.2831853071795862 0 0 -1 
1 0 0 0 -1 
1 6.2831853071795862 0 0 -1 
1 0 0 0 -1 
1 6.2831853071795862 0 0 -1 
1 0 0 0 -1 
1 6.2831853071795862 0 0 -1 
Curves 32
1 -41.349999999999987 -41.349999999999994 -4.5907722068250209e-15 0 1.1102230246251568e-16 1 
1 41.349999999999987 -41.349999999999994 4.5907722068250225e-15 0 1.1102230246251568e-16 1 
1 -41.349999999999987 -41.350000000000001 0 1 0 0 
1 -41.349999999999987 -41.350000000000001 0 1 0 0 
1 -41.349999999999973 41.350000000000009 -4.5907722068250209e-15 0 1.1102230246251568e-16 1 
1 -41.349999999999987 41.350000000000016 0 0 -1 0 
1 -41.349999999999987 41.350000000000016 0 0 -1 0 
1 41.350000000000001 41.350000000000009 4.5907722068250225e-15 0 1.1102230246251568e-16 1 
1 41.350000000000001 -41.350000000000001 0 0 1 0 
1 41.350000000000001 -41.350000000000001 0 0 1 0 
2 12.899999999999999 -12.899999999999995 -1.4210854715202004e-14 1.1102230246251563e-16 1.1102230246251568e-16 1 0 -1 1.1102230246251568e-16 1 -1.2325951644078309e-32 -1.1102230246251563e-16 9
2 12.899999999999999 -12.899999999999995 -1.4210854715202004e-14 1.1102230246251563e-16 1.1102230246251568e-16 1 0 -1 1.1102230246251568e-16 1 -1.2325951644078309e-32 -1.1102230246251563e-16 9
2 -12.899999999999999 -12.899999999999999 -1.4210854715202004e-14 1.1102230246251563e-16 1.1102230246251568e-16 1 0 -1 1.1102230246251568e-16 1 -1.2325951644078309e-32 -1.1102230246251563e-16 9
2 -12.899999999999999 -12.899999999999999 -1.4210854715202004e-14 1.1102230246251563e-16 1.1102230246251568e-16 1 0 -1 1.1102230246251568e-16 1 -1.2325951644078309e-32 -1.1102230246251563e-16 9
2 -12.900000000000002 12.899999999999999 -2.1316282072803006e-14 1.1102230246251563e-16 1.1102230246251568e-16 1 0 -1 1.1102230246251568e-16 1 -1.2325951644078309e-32 -1.1102230246251563e-16 9
2 -12.900000000000002 12.899999999999999 -2.1316282072803006e-14 1.1102230246251563e-16 1.1102230246251568e-16 1 0 -1 1.1102230246251568e-16 1 -1.2325951644078309e-32 -1.1102230246251563e-16 9
2 12.899999999999995 12.900000000000002 -2.1316282072803006e-14 1.1102230246251563e-16 1.1102230246251568e-16 1 0 -1 1.1102230246251568e-16 1 -1.2325951644078309e-32 -1.1102230246251563e-16 9
2 12.899999999999995 12.900000000000002 -2.1316282072803006e-14 1.1102230246251563e-16 1.1102230246251568e-16 1 0 -1 1.1102230246251568e-16 1 -1.2325951644078309e-32 -1.1102230246251563e-16 9
2 -1.4099832412739487e-15 1.4099832412739454e-15 -1.7763568394002505e-14 1.1102230246251563e-16 1.1102230246251568e-16 1 0 -1 1.1102230246251568e-16 1 -1.2325951644078309e-32 -1.1102230246251563e-16 3.1499999999999999
2 -1.4099832412739487e-15 1.4099832412739454e-15 -1.7763568394002505e-14 1.1102230246251563e-16 1.1102230246251568e-16 1 0 -1 1.1102230246251568e-16 1 -1.2325951644078309e-32 -1.1102230246251563e-16 3.1499999999999999
1 41.350000000000001 41.350000000000016 0 -1 0 0 
1 41.350000000000001 41.350000000000016 0 -1 0 0 
2 12.9 -12.9 0 0 0 1 1 0 -0 -0 1 0 9
2 -12.9 -12.9 0 0 0 1 1 0 -0 -0 1 0 9
2 -12.9 12.9 0 0 0 1 1 0 -0 -0 1 0 9
2 12.9 12.9 0 0 0 1 1 0 -0 -0 1 0 9
2 0 0 0 0 0 1 1 0 -0 -0 1 0 3.1499999999999999
1 21.899999999999999 -12.899999999999993 12.699999999999985 -1.1102230246251568e-16 -2.2204460492503136e-16 -1 
1 -3.8999999999999986 -12.899999999999995 12.699999999999989 -1.1102230246251568e-16 -2.2204460492503136e-16 -1 
1 -3.9000000000000012 12.900000000000002 12.699999999999987 -1.1102230246251568e-16 -2.2204460492503136e-16 -1 
1 21.899999999999991 12.900000000000004 12.699999999999982 -1.1102230246251568e-16 -2.2204460492503136e-16 -1 
1 3.1499999999999995 3.1696867353048196e-15 12.699999999999987 -1.1102230246251568e-16 -2.2204460492503136e-16 -1 
Polygon3D 0
PolygonOnTriangulations 0
Surfaces 11
1 -41.349999999999987 -41.349999999999994 -4.5907722068250209e-15 1.2325951644078315e-32 1 -1.1102230246251568e-16 1 0 1.1102230246251568e-16 1.1102230246251568e-16 -1.1102230246251568e-16 -1 
1 -41.349999999999973 41.350000000000009 -4.5907722068250209e-15 1 -1.1102230246251568e-16 1.2325951644078315e-32 -1.1102230246251568e-16 -1 0 1.2325951644078315e-32 -1.3684555315672051e-48 -1 
1 41.349999999999987 -41.349999999999994 4.5907722068250225e-15 -1 1.1102230246251568e-16 -1.2325951644078315e-32 1.1102230246251568e-16 1 0 1.2325951644078315e-32 -1.3684555315672051e-48 -1 
1 0 -41.349999999999987 -41.350000000000001 -1 0 0 0 0 -1 -0 -1 -0 
1 0 -41.349999999999987 -41.350000000000001 -1 0 0 0 0 -1 -0 -1 -0 
1 41.350000000000001 41.350000000000009 4.5907722068250225e-15 -1.2325951644078315e-32 -1 1.1102230246251568e-16 -1 0 -1.1102230246251568e-16 1.1102230246251568e-16 -1.1102230246251568e-16 -1 
2 12.9 -12.899999999999993 12.699999999999987 1.1102230246251563e-16 1.1102230246251568e-16 1 1 1.1102230246251563e-16 -1.1102230246251564e-16 -1.1102230246251564e-16 1 -1.1102230246251568e-16 9
2 -12.899999999999997 -12.899999999999997 12.69999999999999 1.1102230246251563e-16 1.1102230246251568e-16 1 1 1.1102230246251563e-16 -1.1102230246251564e-16 -1.1102230246251564e-16 1 -1.1102230246251568e-16 9
2 -12.9 12.9 12.699999999999987 1.1102230246251563e-16 1.1102230246251568e-16 1 1 1.1102230246251563e-16 -1.1102230246251564e-16 -1.1102230246251564e-16 1 -1.1102230246251568e-16 9
2 12.899999999999997 12.900000000000004 12.699999999999983 1.1102230246251563e-16 1.1102230246251568e-16 1 1 1.1102230246251563e-16 -1.1102230246251564e-16 -1.1102230246251564e-16 1 -1.1102230246251568e-16 9
2 1.5653958587979443e-31 2.8199664825478951e-15 12.699999999999987 1.1102230246251563e-16 1.1102230246251568e-16 1 1 1.1102230246251563e-16 -1.1102230246251564e-16 -1.1102230246251564e-16 1 -1.1102230246251568e-16 3.1499999999999999
Triangulations 0

TShapes 89
Ve
1e-07
-9.18154441365004e-15 -41.35 -41.35
0 0

0101101
*
Ve
1e-07
12.7 -41.35 -41.35
0 0

0101101
*
Ed
 1e-07 1 1 0
1  1 0 0 12.7
2  1 1 0 0 12.7
2  2 2 0 0 12.7
0

0101000
+89 5 -88 5 *
Ve
1e-07
9.18154441365004e-15 41.35 -41.35
0 0

0101101
*
Ve
1e-07
12.7 41.35 -41.35
0 0

0101101
*
Ed
 1e-07 1 1 0
1  2 0 0 12.7
2  3 1 0 0 12.7
2  4 3 0 0 12.7
0

0101000
+86 5 -85 5 *
Ed
 1e-07 1 1 0
1  3 0 0 82.7
2  5 1 9 0 82.7
2  6 4 10 0 82.7
0

0101000
+89 11 -86 11 *
Ed
 1e-07 1 1 0
1  4 0 0 82.7
2  7 1 14 0 82.7
2  8 5 10 0 82.7
0

0101000
+88 15 -85 15 *
Wi

0101000
+87 0 -84 0 -83 8 +82 13 *
Fa
0  1e-07 1 0

0101000
+81 0 *
Ve
1e-07
-9.18154441365004e-15 -41.35 41.35
0 0

0101101
*
Ve
1e-07
12.7 -41.35 41.35
0 0

0101101
*
Ed
 1e-07 1 1 0
1  5 0 0 12.7
2  9 2 0 0 12.7
2  10 6 0 0 12.7
0

0101000
+79 5 -78 5 *
Ed
 1e-07 1 1 0
1  6 0 0 82.7
2  11 2 9 0 82.7
2  12 4 10 0 82.7
0

0101000
+79 11 -89 11 *
Ed
 1e-07 1 1 0
1  7 0 0 82.7
2  13 2 14 0 82.7
2  14 5 10 0 82.7
0

0101000
+78 15 -88 15 *
Wi

0101000
+77 0 -87 0 -76 8 +75 13 *
Fa
0  1e-07 2 0

0101000
+74 0 *
Ve
1e-07
9.18154441365004e-15 41.35 41.35
0 0

0101101
*
Ve
1e-07
12.7 41.35 41.35
0 0

0101101
*
Ed
 1e-07 1 1 0
1  8 0 0 12.7
2  15 3 0 0 12.7
2  16 6 0 0 12.7
0

0101000
+72 5 -71 5 *
Ed
 1e-07 1 1 0
1  9 0 0 82.7
2  17 3 9 0 82.7
2  18 4 10 0 82.7
0

0101000
+86 11 -72 11 *
Ed
 1e-07 1 1 0
1  10 0 0 82.7
2  19 3 14 0 82.7
2  20 5 10 0 82.7
0

0101000
+85 15 -71 15 *
Wi

0101000
+84 0 -70 0 -69 8 +68 13 *
Fa
0  1e-07 3 0

0101000
+67 0 *
Ve
1e-07
-1.32116539930394e-14 12.9 -21.9
0 0

0101101
*
Ve
2.00001e-07
-1.4210854715202e-14 21.9 -12.9
0 0

0101101
*
Ed
 1e-07 1 1 0
1  11 0 0 1.5707963267949
2  21 4 16 0 1.5707963267949
2  22 7 0 0 1.5707963267949
0

0101000
+65 17 -64 17 *
Ed
 1e-07 1 1 0
1  12 0 1.5707963267949 6.28318530717959
2  23 4 16 1.5707963267949 6.28318530717959
2  24 7 0 1.5707963267949 6.28318530717959
0

0101000
+64 17 -65 17 *
Wi

0101000
+63 0 +62 0 *
Ve
1e-07
-1.32116539930394e-14 -12.9 -21.9
0 0

0101101
*
Ve
2.00001e-07
-1.4210854715202e-14 -3.9 -12.9
0 0

0101101
*
Ed
 1e-07 1 1 0
1  13 0 0 1.5707963267949
2  25 4 16 0 1.5707963267949
2  26 8 0 0 1.5707963267949
0

0101000
+60 17 -59 17 *
Ed
 1e-07 1 1 0
1  14 0 1.5707963267949 6.28318530717959
2  27 4 16 1.5707963267949 6.28318530717959
2  28 8 0 1.5707963267949 6.28318530717959
0

0101000
+59 17 -60 17 *
Wi

0101000
+58 0 +57 0 *
Ve
1e-07
-2.03170813506404e-14 -12.9 3.9
0 0

0101101
*
Ve
2.00001e-07
-2.1316282072803e-14 -3.9 12.9
0 0

0101101
*
Ed
 1e-07 1 1 0
1  15 0 0 1.5707963267949
2  29 4 16 0 1.5707963267949
2  30 9 0 0 1.5707963267949
0

0101000
+55 17 -54 17 *
Ed
 1e-07 1 1 0
1  16 0 1.5707963267949 6.28318530717959
2  31 4 16 1.5707963267949 6.28318530717959
2  32 9 0 1.5707963267949 6.28318530717959
0

0101000
+54 17 -55 17 *
Wi

0101000
+53 0 +52 0 *
Ve
1e-07
-2.03170813506404e-14 12.9 3.9
0 0

0101101
*
Ve
2.00001e-07
-2.1316282072803e-14 21.9 12.9
0 0

0101101
*
Ed
 1e-07 1 1 0
1  17 0 0 1.5707963267949
2  33 4 16 0 1.5707963267949
2  34 10 0 0 1.5707963267949
0

0101000
+50 17 -49 17 *
Ed
 1e-07 1 1 0
1  18 0 1.5707963267949 6.28318530717959
2  35 4 16 1.5707963267949 6.28318530717959
2  36 10 0 1.5707963267949 6.28318530717959
0

0101000
+49 17 -50 17 *
Wi

0101000
+48 0 +47 0 *
Ve
1e-07
-1.74138481412456e-14 -2.18151072473678e-15 -3.15
0 0

0101101
*
Ve
2.00001e-07
-1.77635683940025e-14 3.15 3.4972025275692e-16
0 0

0101101
*
Ed
 1e-07 1 1 0
1  19 0 0 1.5707963267949
2  37 4 16 0 1.5707963267949
2  38 11 0 0 1.5707963267949
0

0101000
+45 17 -44 17 *
Ed
 1e-07 1 1 0
1  20 0 1.5707963267949 6.28318530717959
2  39 4 16 1.5707963267949 6.28318530717959
2  40 11 0 1.5707963267949 6.28318530717959
0

0101000
+44 17 -45 17 *
Wi

0101000
+43 0 +42 0 *
Ed
 1e-07 1 1 0
1  21 0 0 82.7
2  41 4 10 0 82.7
2  42 6 9 0 82.7
0

0101000
+72 11 -79 11 *
Wi

0101000
-83 18 -76 18 -69 18 -40 18 *
Fa
0  1e-07 4 16

0101000
+61 0 +56 0 +51 0 +46 0 +41 0 +39 0 *
Ed
 1e-07 1 1 0
1  22 0 0 82.7
2  43 5 10 0 82.7
2  44 6 14 0 82.7
0

0101000
+71 15 -78 15 *
Wi

0101000
-82 20 -75 20 -68 20 -37 20 *
Ve
1e-07
12.7 21.9 -12.9
0 0

0101101
*
Ed
 1e-07 1 1 0
1  23 0 0 6.28318530717959
2  45 5 23 0 6.28318530717959
2  46 7 24 0 6.28318530717959
0

0101100
+35 25 -35 25 *
Wi

0101000
+34 22 *
Ve
1e-07
12.7 -3.9 -12.9
0 0

0101101
*
Ed
 1e-07 1 1 0
1  24 0 0 6.28318530717959
2  47 5 23 0 6.28318530717959
2  48 8 24 0 6.28318530717959
0

0101100
+32 25 -32 25 *
Wi

0101000
+31 22 *
Ve
1e-07
12.7 -3.9 12.9
0 0

0101101
*
Ed
 1e-07 1 1 0
1  25 0 0 6.28318530717959
2  49 5 23 0 6.28318530717959
2  50 9 24 0 6.28318530717959
0

0101100
+29 25 -29 25 *
Wi

0101000
+28 22 *
Ve
1e-07
12.7 21.9 12.9
0 0

0101101
*
Ed
 1e-07 1 1 0
1  26 0 0 6.28318530717959
2  51 5 23 0 6.28318530717959
2  52 10 24 0 6.28318530717959
0

0101100
+26 25 -26 25 *
Wi

0101000
+25 22 *
Ve
1e-07
12.7 3.15 3.16968673530482e-15
0 0

0101101
*
Ed
 1e-07 1 1 0
1  27 0 0 6.28318530717959
2  53 5 23 0 6.28318530717959
2  54 11 24 0 6.28318530717959
0

0101100
+23 25 -23 25 *
Wi

0101000
+22 22 *
Fa
0  1e-07 5 19

0101000
+36 0 +33 0 +30 0 +27 0 +24 0 +21 0 *
Wi

0101000
+70 0 -77 0 -40 8 +37 13 *
Fa
0  1e-07 6 0

0101000
+19 0 *
Ed
 1e-07 1 1 0
1  28 0 0 12.7
3  55 56CN 7 0 0 12.7
0

0101000
+35 17 -64 17 *
Wi

0101000
+17 0 -34 22 -17 0 +63 0 +62 0 *
Fa
0  1e-07 7 0

0101000
+16 0 *
Ed
 1e-07 1 1 0
1  29 0 0 12.7
3  57 58CN 8 0 0 12.7
0

0101000
+32 17 -59 17 *
Wi

0101000
+14 0 -31 22 -14 0 +58 0 +57 0 *
Fa
0  1e-07 8 0

0101000
+13 0 *
Ed
 1e-07 1 1 0
1  30 0 0 12.7
3  59 60CN 9 0 0 12.7
0

0101000
+29 17 -54 17 *
Wi

0101000
+11 0 -28 22 -11 0 +53 0 +52 0 *
Fa
0  1e-07 9 0

0101000
+10 0 *
Ed
 1e-07 1 1 0
1  31 0 0 12.7
3  61 62CN 10 0 0 12.7
0

0101000
+26 17 -49 17 *
Wi

0101000
+8 0 -25 22 -8 0 +48 0 +47 0 *
Fa
0  1e-07 10 0

0101000
+7 0 *
Ed
 1e-07 1 1 0
1  32 0 0 12.7
3  63 64CN 11 0 0 12.7
0

0101000
+23 17 -44 17 *
Wi

0101000
+5 0 -22 22 -5 0 +43 0 +42 0 *
Fa
0  1e-07 11 0

0101000
+4 0 *
Sh

0101000
-80 4 -73 4 -66 4 +38 0 -20 0 -18 4 -15 0 -12 0 -9 0 -6 0 
-3 0 *
So

0100000
+2 0 *

+1 1 