DBRep_DrawableShape

CASCADE Topology V1, (c) Matra-Datavision
Locations 80
1
              0               0               1               0 
              1               0               0               0 
              0               1               0               0 
1
              0               0               1               0 
              1               0               0               0 
              0               1               0               0 
1
              0 1.11022302462516e-016               1               0 
              1               0 1.11022302462516e-016               0 
1.11022302462516e-016               1               0               0 
1
              0               0               1               0 
              1               0               0               0 
              0               1               0               0 
1
              0 1.11022302462516e-016               1               0 
              1               0 1.11022302462516e-016               0 
1.11022302462516e-016               1               0               0 
1
              1               0               0               0 
              0               1               0               0 
              0               0               1               0 
1
              0               0               1               0 
              1               0               0               0 
              0               1               0               0 
1
              0 1.11022302462516e-016               1               0 
              1               0 1.11022302462516e-016               0 
1.11022302462516e-016               1               0               0 
2  2 1 3 -1 4 1 5 -1 6 1 7 1 8 -1 0
1
              0 1.11022302462516e-016               1               0 
              1               0 1.11022302462516e-016               0 
1.11022302462516e-016               1               0               0 
1
              1               0               0               0 
              0               1               0 1.40998324127395e-015 
              0               0               1            12.7 
1
              0               0               1               0 
              1               0               0               0 
              0               1               0               0 
1
              0 1.11022302462516e-016               1               0 
              1               0 1.11022302462516e-016               0 
1.11022302462516e-016               1               0               0 
2  10 -1 11 1 12 1 13 -1 0
1
              0               0               1               0 
              1               0               0               0 
              0               1               0               0 
2  15 1 10 -1 11 1 12 1 13 -1 0
2  15 -1 0
2  11 -1 10 1 15 -1 0
2  1 -1 8 1 7 -1 6 -1 5 1 4 -1 3 1 2 -1 13 1 12 -1 11 -1 10 1 15 -1 0
1
-2.22044604925031e-016 -1.11022302462516e-016               1            12.7 
              1 -2.22044604925031e-016 1.11022302462516e-016              -0 
1.11022302462516e-016               1               0 1.40998324127395e-015 
2  20 1 13 -1 0
2  10 -1 11 1 12 1 20 -1 0
2  13 1 20 -1 0
2  1 -1 8 1 7 -1 6 -1 5 1 4 -1 3 1 2 -1 13 1 20 -1 0
2  12 1 13 -1 2 1 3 -1 4 1 5 -1 6 1 7 1 8 -1 0
2  1 -1 8 1 7 -1 6 -1 5 1 4 -1 3 1 2 -1 13 1 12 -1 0
2  15 1 10 -1 12 1 13 -1 2 1 3 -1 4 1 5 -1 6 1 7 1 8 -1 0
2  10 1 15 -1 0
2  5 1 4 -1 3 1 2 -1 13 1 12 -1 10 1 15 -1 0
2  1 -1 8 1 7 -1 6 -1 5 1 4 -1 3 1 2 -1 13 1 12 -1 10 1 15 -1 0
2  15 1 10 -1 11 1 12 1 13 -1 2 1 3 -1 4 1 5 -1 6 1 7 1 8 -1 0
2  6 -1 5 1 4 -1 3 1 2 -1 13 1 12 -1 10 1 15 -1 0
2  7 1 8 -1 0
2  12 1 13 -1 2 1 3 -1 4 1 5 -1 6 1 0
2  15 1 10 -1 12 1 13 -1 2 1 3 -1 4 1 5 -1 6 1 0
2  15 1 10 -1 11 1 12 1 13 -1 2 1 3 -1 4 1 5 -1 6 1 0
2  4 1 5 -1 6 1 7 1 8 -1 0
2  2 1 3 -1 0
2  20 1 13 -1 2 1 3 -1 0
2  1 -1 8 1 7 -1 6 -1 5 1 4 -1 3 1 2 -1 0
2  10 -1 12 1 13 -1 0
1
              1               0               0 -1.11022302462516e-015 
              0               1               0 2.22044604925031e-015 
              0               0               1              10 
2  3 -1 42 1 0
2  1 -1 8 1 7 -1 6 -1 5 1 4 -1 0
2  6 1 7 1 8 -1 0
2  1 -1 8 1 7 -1 6 -1 0
1
              0 4.44089209850063e-016              -1 -2.75446332409501e-014 
              1               0               0 -1.01854145214547e-045 
              0              -1 -4.44089209850063e-016 -9.17420580868748e-030 
1
              1               0               0 -6.26158343519178e-031 
              0               1               0 -7.04991620636974e-015 
              0               0               1           -12.7 
2  47 1 5 -1 48 1 6 1 7 1 8 -1 0
2  48 -1 5 1 47 -1 0
2  47 -1 0
2  1 -1 8 1 7 -1 6 -1 48 -1 5 1 47 -1 0
2  10 -1 12 1 13 -1 2 1 3 -1 4 1 5 -1 6 1 0
2  47 1 5 -1 0
2  10 -1 12 1 13 -1 2 1 3 -1 4 1 5 -1 6 1 5 1 47 -1 0
2  5 1 47 -1 0
2  1 -1 8 1 7 -1 5 1 47 -1 0
2  47 1 5 -1 6 1 0
2  10 -1 12 1 13 -1 2 1 3 -1 4 1 47 -1 0
2  1 -1 8 1 7 -1 6 -1 5 1 47 -1 0
2  2 1 3 -1 4 1 5 -1 6 1 0
1
              0 1.11022302462516e-016              -1 -1.83630888273001e-014 
              1 -2.22044604925031e-016 1.11022302462516e-016 -2.26342544921216e-046 
-1.11022302462516e-016              -1 -2.22044604925031e-016 -4.0774248038611e-030 
2  62 1 3 -1 4 1 5 -1 6 1 0
2  10 -1 12 1 13 -1 2 1 62 -1 0
2  3 1 62 -1 0
2  1 -1 8 1 7 -1 6 -1 5 1 4 -1 3 1 62 -1 0
2  1 -1 8 1 7 -1 0
2  47 1 5 -1 48 1 0
2  1 -1 8 1 7 -1 48 -1 5 1 47 -1 0
1
-2.22044604925031e-016               1 -1.11022302462516e-016 -5.09678100482638e-031 
-1.11022302462516e-016 -2.22044604925031e-016              -1          -41.35 
             -1 -1.11022302462516e-016               0 4.59077220682502e-015 
2  70 1 8 -1 0
2  6 1 7 1 70 -1 0
2  1 -1 8 1 70 -1 0
2  62 1 3 -1 42 1 0
2  62 -1 0
2  42 -1 3 1 62 -1 0
2  1 -1 8 1 7 -1 6 -1 5 1 4 -1 42 -1 3 1 62 -1 0
2  5 -1 48 1 6 1 7 1 8 -1 0
2  62 1 3 -1 0
2  5 -1 48 1 7 1 8 -1 0
Curve2ds 150
1 -0 -0 -5.5511151231257807e-016 -1 
1 7.0499162063697417e-015 -12.699999999999994 1 -4.4408920985006247e-016 
1 -82.699999999999974 -4.2632564145605999e-014 1 5.5511151231257807e-016 
1 -1.4210854715202001e-014 -12.699999999999994 1 4.4408920985006257e-016 
1 -4.5907722068250191e-014 -82.699999999999946 -1 -5.5511151231257807e-016 
1 -2.3789086673071151e-030 -12.699999999999994 1 -4.4408920985006257e-016 
1 -82.700000000000017 -82.699999999999989 5.5511151231257807e-016 1 
1 -7.0499162063697417e-015 -12.699999999999994 1 4.4408920985006247e-016 
2 -28.450000000000017 -54.249999999999979 -6.6613381477509373e-016 -1 -1 6.6613381477509373e-016 9
1 0 0 1 0 
2 -28.449999999999996 -28.449999999999989 -6.6613381477509373e-016 -1 -1 6.6613381477509373e-016 9
1 0 0 1 0 
2 -54.249999999999986 -28.449999999999996 -6.6613381477509373e-016 -1 -1 6.6613381477509373e-016 9
1 0 0 1 0 
2 -54.250000000000007 -54.249999999999986 -6.6613381477509373e-016 -1 -1 6.6613381477509373e-016 9
1 0 0 1 0 
2 -41.350000000000001 -41.349999999999987 -6.6613381477509373e-016 -1 -1 6.6613381477509373e-016 3.1499999999999999
1 0 0 1 0 
1 0 0 5.5511151231257827e-016 -1 
1 82.69999999999996 3.6726177654600148e-014 -5.5511151231257827e-016 -1 
1 -1.7516230804060216e-045 3.1554436208840472e-030 1 -4.4408920985006247e-016 
1 1.4210854715202002e-014 -4.5907722068250201e-015 1 4.4408920985006271e-016 
1 -1.7516230804060216e-045 3.1554436208840472e-030 1 -4.4408920985006247e-016 
1 -0 -0 -5.5511151231257807e-016 -1 
1 82.699999999999932 -3.6726177654600142e-014 5.5511151231257827e-016 -1 
1 0 -0 5.5511151231257827e-016 -1 
1 -1.7516230804060216e-045 3.1554436208840472e-030 1 -4.4408920985006247e-016 
1 82.699999999999974 -1.377231662047507e-014 -1 4.4408920985006271e-016 
1 -0 -0 -5.5511151231257827e-016 -1 
1 82.699999999999932 3.6726177654600142e-014 -5.5511151231257827e-016 -1 
1 -7.1054273576010019e-015 -6.3108872417680944e-030 1 4.4408920985006257e-016 
1 -7.1054273576009877e-015 3.2135405447775155e-014 1 -5.5511151231257847e-016 
1 -7.1054273576010019e-015 9.4663308626521417e-030 1 -4.4408920985006257e-016 
1 82.69999999999996 1.3772316620475049e-014 -1 5.5511151231257827e-016 
1 82.69999999999996 -3.6726177654600148e-014 5.5511151231257827e-016 -1 
1 -0 0 -5.5511151231257827e-016 -1 
1 -0 0 1 4.4408920985006247e-016 
1 18.000000000000007 6.1678440133050554e-014 -1 -4.4408920985006271e-016 
1 -0 0 1 4.4408920985006247e-016 
1 -82.700000000000017 -82.699999999999989 5.5511151231257807e-016 1 
1 -0 0 1 4.4408920985006247e-016 
1 -64.699999999999989 6.686318165805004e-014 1 -4.4408920985006271e-016 
1 0 0 0 -1 
1 6.2831853071795862 0 0 -1 
1 4.7123889803846897 -12.700000000000001 1 0 
2 -28.45000000000001 -54.249999999999986 1 -1.2325951644078318e-032 -1.2325951644078318e-032 -1 9
1 -1.5707963267948966 -12.700000000000001 1 0 
2 -28.45000000000001 -54.249999999999986 1 -1.2325951644078318e-032 -1.2325951644078318e-032 -1 9
1 0 0 0 -1 
1 6.2831853071795862 0 0 -1 
1 4.7123889803846897 -12.700000000000005 1 0 
2 -28.450000000000003 -28.449999999999989 1 -1.2325951644078318e-032 -1.2325951644078318e-032 -1 9
1 -1.5707963267948966 -12.700000000000005 1 0 
2 -28.450000000000003 -28.449999999999989 1 -1.2325951644078318e-032 -1.2325951644078318e-032 -1 9
1 0 0 0 -1 
1 6.2831853071795862 0 0 -1 
1 4.7123889803846897 -12.700000000000008 1 0 
2 -54.25 -28.449999999999985 1 -1.2325951644078318e-032 -1.2325951644078318e-032 -1 9
1 -1.5707963267948966 -12.700000000000008 1 0 
2 -54.25 -28.449999999999985 1 -1.2325951644078318e-032 -1.2325951644078318e-032 -1 9
1 0 0 0 -1 
1 6.2831853071795862 0 0 -1 
1 4.7123889803846897 -12.700000000000005 1 0 
2 -54.250000000000014 -54.249999999999986 1 -1.2325951644078318e-032 -1.2325951644078318e-032 -1 9
1 -1.5707963267948966 -12.700000000000005 1 0 
2 -54.250000000000014 -54.249999999999986 1 -1.2325951644078318e-032 -1.2325951644078318e-032 -1 9
1 0 0 0 -1 
1 6.2831853071795862 0 0 -1 
1 4.7123889803846897 -2.7000000000000046 1 0 
2 3.1999999999999984 -5.5425625842199988 1 -2.465190328815663e-032 -2.465190328815663e-032 -1 3.1499999999999999
1 -1.5707963267948966 -2.7000000000000046 1 0 
2 3.1999999999999984 -5.5425625842199988 1 -2.465190328815663e-032 -2.465190328815663e-032 -1 3.1499999999999999
1 0 0 -2.2204460492503146e-016 -1 
1 82.699999999999974 -9.1815444136500496e-015 2.2204460492503141e-016 -1 
1 -2.8199664825478982e-015 -12.699999999999999 1 1.1102230246251573e-016 
1 0 -0 -2.2204460492503121e-016 -1 
1 18 1.9984014443252826e-015 -2.2204460492503146e-016 -1 
1 0 0 -2.2204460492503141e-016 -1 
1 -2.88102874890228e-014 -64.699999999999974 -1 -1.1102230246251554e-016 
1 0 0 1 0 
1 4.2188474935756075e-015 -17.999999999999979 -1 -2.2204460492503118e-016 
1 -7.1054273576010019e-015 -7.8886090522101251e-031 1 1.1102230246251575e-016 
1 -44.550000000000004 -35.807437415779994 -0.50000000000002776 -0.86602540378442261 
1 0 0 1 -3.033185711008747e-016 
1 -44.550000000000004 -35.807437415779994 1 5.5511151231257807e-016 
1 -4.4408920985006262e-016 -1.4791141972893976e-031 1 2.2204460492503141e-016 
1 -47.75 -41.349999999999987 0.50000000000002753 -0.86602540378442283 
1 -3.3306690738755367e-016 -3.1796530424162918e-030 1 -8.1273966175831002e-017 
1 -38.150000000000006 -35.807437415779987 0.50000000000002753 -0.86602540378442283 
1 -1.0853323593326554e-045 3.1554436208840472e-030 1 -8.1273966175831002e-017 
1 -38.150000000000006 -46.892562584219981 -1 -5.5511151231257807e-016 
1 -4.4408920985006262e-016 1.4791141972893976e-031 1 -2.2204460492503141e-016 
1 -34.950000000000003 -41.349999999999987 -0.50000000000002776 -0.86602540378442261 
1 -3.3306690738755239e-016 3.0942563444195653e-030 1 -3.033185711008747e-016 
1 0 0 -1.1102230246251573e-016 -1 
1 82.699999999999989 0 1.1102230246251575e-016 -1 
1 -1.4099832412739491e-015 -12.699999999999999 1 0 
1 0 0 -1.1102230246251562e-016 -1 
1 18 -3.944304526105059e-031 -1.1102230246251573e-016 -1 
1 0 0 -1.1102230246251575e-016 -1 
1 82.699244249326711 -7.4999999619227813 0.00010076675643277825 0.99999999492303038 
1 82.699244249326711 -7.4999999619227813 0.00010076675643277825 0.99999999492303038 
2 40.265007490560663 171.7044674787663 1 -7.7715611723760978e-016 7.7715611723760978e-016 1 184.16
2 40.265007490560663 171.7044674787663 1 -7.7715611723760978e-016 7.7715611723760978e-016 1 184.16
1 2.0387124019305479e-030 4.5907722068250122e-015 9.4468833733334179e-005 -0.99999999553781971 
1 2.0387124019305479e-030 4.5907722068250122e-015 9.4468833733334179e-005 -0.99999999553781971 
1 0 0 1.1102230246251575e-016 -1 
1 17.999999999999993 -3.944304526105059e-031 1.1102230246251573e-016 -1 
1 1.4654943925052062e-015 -12.700000000000001 1 0 
1 -82.699999999999989 -1.4210854715201999e-014 1 1.1102230246251562e-016 
1 0 0 1.1102230246251573e-016 -1 
1 82.699999999999989 0 -1.1102230246251575e-016 -1 
1 1.4099832412739493e-015 -12.700000000000001 1 0 
1 -82.699999999999989 -18.000000000000007 1.1102230246251562e-016 1 
1 -0 0 2.2204460492503146e-016 -1 
1 82.699999999999974 9.1815444136500433e-015 -2.2204460492503141e-016 -1 
1 2.8199664825478978e-015 -12.699999999999998 1 -1.1102230246251573e-016 
1 -82.699999999999989 -18.000000000000014 2.2204460492503121e-016 1 
1 17.999999999999986 -1.9984014443252778e-015 2.2204460492503146e-016 -1 
1 0 0 2.2204460492503141e-016 -1 
1 0 -0 1 5.5511151231257807e-016 
1 -3.7747582837255314e-015 -10 1 2.2204460492503141e-016 
1 0 -0 -0.50000000000002764 -0.86602540378442261 
1 4.3277339615880763e-015 -10 1 -3.033185711008747e-016 
1 6.3999999999999986 3.5527136788005001e-015 0.50000000000002764 -0.86602540378442272 
1 2.4382189852749265e-016 -9.9999999999999982 1 -8.1273966175831002e-017 
1 -3.2000000000000006 -5.5425625842199997 0.50000000000002764 -0.86602540378442272 
1 -5.6579068456408251e-017 -10 1 -8.1273966175831002e-017 
1 9.5999999999999961 -5.5425625842199926 -0.50000000000002764 -0.86602540378442261 
1 3.1630677029566637e-015 -9.9999999999999982 1 -3.033185711008747e-016 
1 6.3999999999999959 -11.085125168439992 -1 -5.5511151231257807e-016 
1 2.8865798640254062e-015 -9.9999999999999982 1 -2.2204460492503141e-016 
1 -5.6399329650957949e-015 -12.699999999999999 1 -1.1102230246251575e-016 
1 -82.699999999999989 -1.4210854715201993e-014 1 2.2204460492503123e-016 
1 -3.9968028886505628e-015 -17.999999999999993 -1 -2.2204460492503123e-016 
1 -8.5709217501062088e-015 -12.699999999999999 1 1.1102230246251575e-016 
1 -1.4654943925052069e-015 -12.699999999999999 1 0 
1 -1.9984014443252822e-015 -18 -1 -1.1102230246251562e-016 
1 0 0 3.5882972233213563e-016 -1 
1 0 0 -3.3306690738754706e-016 -1 
1 6.3999999999996469 -1.9412388550454879e-015 3.5882972233213563e-016 -1 
1 -3.4158679198688594e-031 -2.4828700941565224e-047 2.5762814944570082e-017 -1 
1 6.3999999999999977 1.4210854715202026e-015 -3.3306690738754706e-016 -1 
1 -1.0853323593326554e-045 3.1554436208840472e-030 2.5762814944570082e-017 -1 
1 6.3999999999996433 -5.2015338352529155e-016 2.5762814944570082e-017 -1 
1 6.3999999999999977 -1.4210854715202026e-015 3.3306690738754706e-016 -1 
1 6.3999999999996433 -5.201533835252882e-016 2.5762814944570082e-017 -1 
1 3.4158679198688603e-031 6.2752453078735784e-047 3.5882972233213563e-016 -1 
1 0 0 3.3306690738754706e-016 -1 
1 6.3999999999996469 -1.9412388550454879e-015 3.5882972233213563e-016 -1 
Curves 75
1 -41.349999999999987 -41.350000000000001 0 1 0 0 
1 -41.349999999999987 41.350000000000016 0 0 -1 0 
1 41.350000000000001 -41.350000000000001 0 0 1 0 
1 41.350000000000001 41.350000000000016 0 -1 0 0 
2 12.9 -12.9 0 0 0 1 1 0 -0 -0 1 0 9
2 -12.9 -12.9 0 0 0 1 1 0 -0 -0 1 0 9
2 -12.9 12.9 0 0 0 1 1 0 -0 -0 1 0 9
2 12.9 12.9 0 0 0 1 1 0 -0 -0 1 0 9
2 0 0 0 0 0 1 1 0 -0 -0 1 0 3.1499999999999999
1 -41.349999999999987 -41.349999999999994 -4.5907722068250209e-015 0 1.1102230246251568e-016 1 
1 -41.349999999999987 -41.350000000000001 0 1 0 0 
1 -41.349999999999987 -41.350000000000001 0 1 0 0 
1 41.349999999999987 -41.349999999999994 4.5907722068250225e-015 0 1.1102230246251568e-016 1 
1 -41.349999999999987 -41.350000000000001 0 1 0 0 
1 -41.349999999999973 41.350000000000009 -4.5907722068250209e-015 0 1.1102230246251568e-016 1 
1 -41.349999999999987 41.350000000000016 0 0 -1 0 
1 41.350000000000001 -41.350000000000001 0 0 1 0 
1 41.350000000000001 41.350000000000009 4.5907722068250225e-015 0 1.1102230246251568e-016 1 
1 41.350000000000001 41.350000000000016 0 -1 0 0 
1 41.350000000000001 41.350000000000016 0 -1 0 0 
1 41.350000000000001 41.350000000000016 0 -1 0 0 
1 21.899999999999999 -12.899999999999993 12.699999999999985 -1.1102230246251568e-016 -2.2204460492503136e-016 -1 
2 12.899999999999999 -12.899999999999995 -1.4210854715202004e-014 1.1102230246251563e-016 1.1102230246251568e-016 1 0 -1 1.1102230246251568e-016 1 -1.2325951644078309e-032 -1.1102230246251563e-016 9
2 12.899999999999999 -12.899999999999995 -1.4210854715202004e-014 1.1102230246251563e-016 1.1102230246251568e-016 1 0 -1 1.1102230246251568e-016 1 -1.2325951644078309e-032 -1.1102230246251563e-016 9
1 -3.8999999999999986 -12.899999999999995 12.699999999999989 -1.1102230246251568e-016 -2.2204460492503136e-016 -1 
2 -12.899999999999999 -12.899999999999999 -1.4210854715202004e-014 1.1102230246251563e-016 1.1102230246251568e-016 1 0 -1 1.1102230246251568e-016 1 -1.2325951644078309e-032 -1.1102230246251563e-016 9
2 -12.899999999999999 -12.899999999999999 -1.4210854715202004e-014 1.1102230246251563e-016 1.1102230246251568e-016 1 0 -1 1.1102230246251568e-016 1 -1.2325951644078309e-032 -1.1102230246251563e-016 9
1 -3.9000000000000012 12.900000000000002 12.699999999999987 -1.1102230246251568e-016 -2.2204460492503136e-016 -1 
2 -12.900000000000002 12.899999999999999 -2.1316282072803006e-014 1.1102230246251563e-016 1.1102230246251568e-016 1 0 -1 1.1102230246251568e-016 1 -1.2325951644078309e-032 -1.1102230246251563e-016 9
2 -12.900000000000002 12.899999999999999 -2.1316282072803006e-014 1.1102230246251563e-016 1.1102230246251568e-016 1 0 -1 1.1102230246251568e-016 1 -1.2325951644078309e-032 -1.1102230246251563e-016 9
1 21.899999999999991 12.900000000000004 12.699999999999982 -1.1102230246251568e-016 -2.2204460492503136e-016 -1 
2 12.899999999999995 12.900000000000002 -2.1316282072803006e-014 1.1102230246251563e-016 1.1102230246251568e-016 1 0 -1 1.1102230246251568e-016 1 -1.2325951644078309e-032 -1.1102230246251563e-016 9
2 12.899999999999995 12.900000000000002 -2.1316282072803006e-014 1.1102230246251563e-016 1.1102230246251568e-016 1 0 -1 1.1102230246251568e-016 1 -1.2325951644078309e-032 -1.1102230246251563e-016 9
1 3.1499999999999995 3.1696867353048196e-015 12.699999999999987 -1.1102230246251568e-016 -2.2204460492503136e-016 -1 
2 -2.9976021664879224e-016 3.6304292905242559e-015 9.9999999999999805 1.1102230246251564e-016 2.2204460492503136e-016 1 0 -1 2.2204460492503136e-016 1 -2.4651903288156619e-032 -1.1102230246251564e-016 3.1499999999999999
2 -2.9976021664879224e-016 3.6304292905242559e-015 9.9999999999999805 1.1102230246251564e-016 2.2204460492503136e-016 1 0 -1 2.2204460492503136e-016 1 -2.4651903288156619e-032 -1.1102230246251564e-016 3.1499999999999999
1 -41.350000000000001 -41.349999999999994 -1.3772316620475056e-014 -4.9303806576313249e-032 -5.5511151231257837e-016 -1 
1 -41.350000000000001 41.350000000000001 0 1 0 0 
1 -23.350000000000001 -41.349999999999994 -1.1773915176149774e-014 -4.9303806576313249e-032 -5.5511151231257837e-016 -1 
1 23.350000000000001 41.349999999999994 1.9984014443252818e-015 -1.1102230246251562e-016 -1 -1.1102230246251568e-016 
1 -23.350000000000001 41.350000000000001 0 0 -1 0 
1 -5.5425625842199997 -3.2000000000000002 0 0.86602540378442272 -0.50000000000002764 0 
1 -5.5425625842199997 -3.2000000000000002 0 0 1 0 
1 0 -6.4000000000000004 0 0.86602540378442272 0.50000000000002764 0 
1 -5.5425625842199997 3.2000000000000002 0 0.86602540378442272 0.50000000000002764 0 
1 5.5425625842199997 3.2000000000000002 0 0 -1 0 
1 0 6.4000000000000004 0 0.86602540378442272 -0.50000000000002764 0 
1 41.350000000000001 -41.349999999999994 -4.590772206825009e-015 2.2204460492503141e-016 -5.5511151231257837e-016 -1 
1 41.350000000000001 41.349999999999987 0 -1 1.1102230246251562e-016 1.1102230246251568e-016 
1 23.350000000000001 -41.349999999999994 -6.5891736511502916e-015 2.2204460492503141e-016 -5.5511151231257837e-016 -1 
1 41.349244249326745 -7.4999999619227777 0 0.00010076675643233416 0.99999999492303038 0 
2 -1.0849925094393995 171.7044674787663 0 0 0 1 1 0 -0 -0 1 0 184.16
1 -41.349999999999987 -5.5089266481900254e-014 0 9.4468833733778282e-005 -0.99999999553781982 0 
1 41.349999999999987 41.349999999999994 -4.1316949861425186e-014 2.2204460492503141e-016 -5.5511151231257837e-016 -1 
1 41.349999999999987 -41.350000000000001 -9.1815444136500449e-015 1.1102230246251562e-016 1 1.1102230246251568e-016 
1 23.349999999999994 41.349999999999994 -4.3315351305750467e-014 2.2204460492503141e-016 -5.5511151231257837e-016 -1 
1 23.349999999999998 -41.349999999999994 -7.1831429693247631e-015 1 -1.1102230246251562e-016 -1.1102230246251568e-016 
1 -23.349999999999994 41.349999999999994 -4.8500092830749947e-014 -4.9303806576313249e-032 -5.5511151231257837e-016 -1 
1 -23.350000000000001 -41.350000000000001 0 -1 0 0 
1 -41.349999999999987 41.349999999999994 -5.0498494275075229e-014 -4.9303806576313249e-032 -5.5511151231257837e-016 -1 
1 -5.5425625842199997 -3.2000000000000002 0 0 1 0 
1 -5.5425625842199997 -3.2000000000000002 0 0.86602540378442272 -0.50000000000002764 0 
1 -5.5425625842199997 3.2000000000000002 0 0.86602540378442272 0.50000000000002764 0 
1 0 -6.4000000000000004 0 0.86602540378442272 0.50000000000002764 0 
1 0 6.4000000000000004 0 0.86602540378442272 -0.50000000000002764 0 
1 5.5425625842199997 3.2000000000000002 0 0 -1 0 
1 -41.350000000000001 -41.350000000000001 0 0 1 0 
1 -23.350000000000001 41.350000000000001 0 0 -1 0 
1 23.350000000000005 41.349999999999994 1.9984014443252818e-015 -1.1102230246251562e-016 -1 -1.1102230246251568e-016 
1 -5.5425625842199979 3.2000000000000002 -1.9333708254822828e-014 -1.1102230246251563e-016 2.2204460492503136e-016 1 
1 2.1316282072803005e-015 6.3999999999999995 -1.9073631563060184e-014 -1.1102230246251563e-016 2.2204460492503136e-016 1 
1 -5.5425625842199997 -3.1999999999999993 -1.8623165519062731e-014 -1.1102230246251563e-016 2.2204460492503136e-016 1 
1 5.5425625842199997 3.1999999999999993 -1.8103012135537436e-014 -1.1102230246251563e-016 2.2204460492503136e-016 1 
1 -2.1316282072803005e-015 -6.3999999999999995 -1.7652546091539983e-014 -1.1102230246251563e-016 2.2204460492503136e-016 1 
1 5.5425625842199979 -3.2000000000000002 -1.7392469399777339e-014 -1.1102230246251563e-016 2.2204460492503136e-016 1 
Polygon3D 0
PolygonOnTriangulations 0
Surfaces 29
1 0 -41.349999999999987 -41.350000000000001 -1 0 0 0 0 -1 -0 -1 -0 
1 -41.349999999999987 -41.349999999999994 -4.5907722068250209e-015 1.2325951644078315e-032 1 -1.1102230246251568e-016 1 0 1.1102230246251568e-016 1.1102230246251568e-016 -1.1102230246251568e-016 -1 
1 -41.349999999999973 41.350000000000009 -4.5907722068250209e-015 1 -1.1102230246251568e-016 1.2325951644078315e-032 -1.1102230246251568e-016 -1 0 1.2325951644078315e-032 -1.3684555315672051e-048 -1 
1 41.349999999999987 -41.349999999999994 4.5907722068250225e-015 -1 1.1102230246251568e-016 -1.2325951644078315e-032 1.1102230246251568e-016 1 0 1.2325951644078315e-032 -1.3684555315672051e-048 -1 
1 41.350000000000001 41.350000000000009 4.5907722068250225e-015 -1.2325951644078315e-032 -1 1.1102230246251568e-016 -1 0 -1.1102230246251568e-016 1.1102230246251568e-016 -1.1102230246251568e-016 -1 
2 12.9 -12.899999999999993 12.699999999999987 1.1102230246251563e-016 1.1102230246251568e-016 1 1 1.1102230246251563e-016 -1.1102230246251564e-016 -1.1102230246251564e-016 1 -1.1102230246251568e-016 9
2 -12.899999999999997 -12.899999999999997 12.69999999999999 1.1102230246251563e-016 1.1102230246251568e-016 1 1 1.1102230246251563e-016 -1.1102230246251564e-016 -1.1102230246251564e-016 1 -1.1102230246251568e-016 9
2 -12.9 12.9 12.699999999999987 1.1102230246251563e-016 1.1102230246251568e-016 1 1 1.1102230246251563e-016 -1.1102230246251564e-016 -1.1102230246251564e-016 1 -1.1102230246251568e-016 9
2 12.899999999999997 12.900000000000004 12.699999999999983 1.1102230246251563e-016 1.1102230246251568e-016 1 1 1.1102230246251563e-016 -1.1102230246251564e-016 -1.1102230246251564e-016 1 -1.1102230246251568e-016 9
2 1.5653958587979443e-031 2.8199664825478951e-015 12.699999999999987 1.1102230246251563e-016 1.1102230246251568e-016 1 1 1.1102230246251563e-016 -1.1102230246251564e-016 -1.1102230246251564e-016 1 -1.1102230246251568e-016 3.1499999999999999
1 -41.350000000000001 -41.349999999999994 -1.3772316620475056e-014 -6.1629758220391569e-032 -1 5.5511151231257837e-016 1 0 1.1102230246251568e-016 -1.1102230246251568e-016 5.5511151231257837e-016 1 
1 0 -41.349999999999987 -41.350000000000001 -1 0 0 0 0 -1 -0 -1 -0 
1 41.350000000000001 -41.349999999999994 -4.590772206825009e-015 -6.1629758220391569e-032 -1 5.5511151231257837e-016 -1 -0 -1.1102230246251568e-016 -1.1102230246251568e-016 5.5511151231257837e-016 1 
1 -41.349999999999987 41.349999999999994 -5.0498494275075229e-014 -1 1.1102230246251568e-016 -1.232595164407832e-032 -1.1102230246251568e-016 -1 4.4408920985006262e-016 3.6977854932234928e-032 4.4408920985006262e-016 1 
1 41.349999999999987 41.349999999999994 -4.1316949861425186e-014 1 1.1102230246251568e-016 2.2204460492503136e-016 1.1102230246251558e-016 -1 4.4408920985006262e-016 -2.2204460492503141e-016 4.4408920985006262e-016 1 
1 23.349999999999994 41.349999999999994 -4.3315351305750467e-014 6.1629758220391569e-032 1 -5.5511151231257837e-016 1 0 1.1102230246251568e-016 -1.1102230246251568e-016 5.5511151231257837e-016 1 
1 -23.349999999999994 41.349999999999994 -4.8500092830749947e-014 6.1629758220391569e-032 1 -5.5511151231257837e-016 -1 0 -1.1102230246251568e-016 -1.1102230246251568e-016 5.5511151231257837e-016 1 
1 -1.8718360195180135e-014 -5.5425625842199988 3.2000000000000006 -1 5.559680859162067e-031 -1.1102230246251526e-016 1.1102230246251526e-016 0 -1 -5.559680859162067e-031 -1 -6.1724856994094766e-047 
1 -41.349999999999987 41.349999999999994 -5.0498494275075229e-014 -1 1.1102230246251568e-016 -1.232595164407832e-032 -1.1102230246251568e-016 -1 4.4408920985006262e-016 3.6977854932234928e-032 4.4408920985006262e-016 1 
1 -9.1815444136500339e-015 -41.350000000000001 -41.350000000000001 -1 0 -4.4408920985006257e-016 4.4408920985006257e-016 0 -1 0 -1 -0 
1 -23.350000000000001 -41.349999999999994 -1.1773915176149774e-014 1 -1.1102230246251568e-016 1.232595164407832e-032 1.1102230246251568e-016 1 -4.4408920985006262e-016 3.6977854932234928e-032 4.4408920985006262e-016 1 
1 23.350000000000001 -41.349999999999994 -6.5891736511502916e-015 -1 -1.1102230246251568e-016 -2.2204460492503136e-016 -1.1102230246251558e-016 1 -4.4408920985006262e-016 -2.2204460492503141e-016 4.4408920985006262e-016 1 
1 -5.5425625842199979 3.2000000000000002 -1.9333708254822828e-014 -0.50000000000002742 0.86602540378442283 -2.4780741986961376e-016 0.86602540378442283 0.50000000000002742 4.0636983087915557e-017 1.5909636962210651e-016 -1.9428902930939939e-016 -1 
1 -5.5425625842199979 3.2000000000000002 -1.9333708254822828e-014 1 -3.3306690738754701e-016 1.110223024625157e-016 -3.3306690738754701e-016 -1 1.1102230246251564e-016 1.1102230246251565e-016 -1.1102230246251568e-016 -1 
1 2.1316282072803009e-015 6.3999999999999995 -1.9073631563060184e-014 0.50000000000002787 0.86602540378442261 -1.3678511740709197e-016 0.86602540378442261 -0.50000000000002787 1.5165928555043735e-016 6.2948235302924771e-017 -1.9428902930939939e-016 -1 
1 -5.5425625842199997 -3.1999999999999993 -1.8623165519062728e-014 0.50000000000002787 0.86602540378442261 -1.3678511740709197e-016 0.86602540378442261 -0.50000000000002787 1.5165928555043735e-016 6.2948235302924771e-017 -1.9428902930939939e-016 -1 
1 5.5425625842199979 -3.2000000000000002 -1.7392469399777339e-014 -1 3.3306690738754701e-016 -1.110223024625157e-016 3.3306690738754701e-016 1 -1.1102230246251564e-016 1.1102230246251565e-016 -1.1102230246251568e-016 -1 
1 -2.1316282072803009e-015 -6.3999999999999995 -1.7652546091539983e-014 -0.50000000000002742 0.86602540378442283 -2.4780741986961376e-016 0.86602540378442283 0.50000000000002742 4.0636983087915557e-017 1.5909636962210651e-016 -1.9428902930939939e-016 -1 
1 -9.1815444136500307e-015 41.350000000000001 -41.349999999999987 -1 1.110223024625157e-016 -5.5511151231257817e-016 3.3306690738754691e-016 1.1102230246251562e-016 -1 1.1102230246251568e-016 1 1.1102230246251568e-016 
Triangulations 0

TShapes 195
Ve
1e-007
12.7 -41.35 -41.35
0 0

0101101
*
Ve
1e-007
12.7 41.35 -41.35
0 0

0101101
*
Ed
 1e-007 1 1 0
1  1 0 0 82.7
2  1 1 17 0 82.7
2  2 2 18 0 82.7
0

0101000
+195 19 -194 19 *
Ve
1e-007
12.7 -41.3499999999999 41.35
0 0

0101101
*
Ed
 1e-007 1 1 0
1  2 0 0 82.7
2  3 1 17 0 82.7
2  4 3 18 0 82.7
0

0101000
+192 19 -195 19 *
Ve
1e-007
12.7 41.35 41.35
0 0

0101101
*
Ed
 1e-007 1 1 0
1  3 0 0 82.7
2  5 1 17 0 82.7
2  6 4 18 0 82.7
0

0101000
+194 19 -190 19 *
Ed
 1e-007 1 1 0
1  4 0 0 82.7
2  7 1 17 0 82.7
2  8 5 18 0 82.7
0

0101000
+190 19 -192 19 *
Wi

0101000
-193 16 -191 16 -189 16 -188 16 *
Ve
1e-007
12.7 21.9 -12.9
0 0

0101101
*
Ed
 1e-007 1 1 0
1  5 0 0 6.28318530717959
2  9 1 22 0 6.28318530717959
2  10 6 23 0 6.28318530717959
0

0101100
+186 24 -186 24 *
Wi

0101000
+185 21 *
Ve
1e-007
12.7 -3.9 -12.9
0 0

0101101
*
Ed
 1e-007 1 1 0
1  6 0 0 6.28318530717959
2  11 1 22 0 6.28318530717959
2  12 7 23 0 6.28318530717959
0

0101100
+183 24 -183 24 *
Wi

0101000
+182 21 *
Ve
1e-007
12.7 -3.9 12.9
0 0

0101101
*
Ed
 1e-007 1 1 0
1  7 0 0 6.28318530717959
2  13 1 22 0 6.28318530717959
2  14 8 23 0 6.28318530717959
0

0101100
+180 24 -180 24 *
Wi

0101000
+179 21 *
Ve
1e-007
12.7 21.9 12.9
0 0

0101101
*
Ed
 1e-007 1 1 0
1  8 0 0 6.28318530717959
2  15 1 22 0 6.28318530717959
2  16 9 23 0 6.28318530717959
0

0101100
+177 24 -177 24 *
Wi

0101000
+176 21 *
Ve
1e-007
12.7 3.15 7.39963645912666e-015
0 0

0101101
*
Ed
 1e-007 1 1 0
1  9 0 0 6.28318530717959
2  17 1 22 0 6.28318530717959
2  18 10 23 0 6.28318530717959
0

0101100
+174 24 -174 24 *
Wi

0101000
+173 21 *
Fa
0  1e-007 1 14

0101000
+187 0 +184 0 +181 0 +178 0 +175 0 +172 0 *
Ve
1.00000041688851e-007
1.03181352351101e-014 -41.35 -41.35
0 0

0101101
*
Ed
 1e-007 1 1 0
1  10 0 0 12.7
2  19 2 0 0 12.7
2  20 3 0 0 12.7
0

0101000
+170 26 -195 26 *
Ve
1e-007
-1.43662859386495e-014 -23.35 -41.35
0 0

0101101
*
Ed
 1e-007 1 1 0
1  11 0 0 18
2  21 2 28 0 18
2  22 11 29 0 18
0

0101000
+170 30 -168 30 *
Ve
1e-007
-3.99680288865055e-015 23.35 -41.35
0 0

0101101
*
Ed
 1e-007 1 1 0
1  12 0 18 64.7
2  23 2 28 18 64.7
2  24 12 17 18 64.7
0

0101000
+168 30 -166 30 *
Ve
1.00000025230753e-007
1.14769305170626e-014 41.35 -41.35
0 0

0101101
*
Ed
 1e-007 1 1 0
1  13 0 0 12.7
2  25 2 0 0 12.7
2  26 4 0 0 12.7
0

0101000
+164 26 -194 26 *
Ed
 1e-007 1 1 0
1  14 0 64.7 82.7
2  27 2 28 64.7 82.7
2  28 13 32 64.7 82.7
0

0101000
+166 30 -164 30 *
Wi

0101000
+169 25 -167 27 +193 31 -165 27 -163 25 -162 27 *
Fa
0  1e-007 2 25

0101000
+161 0 *
Ve
1.00000038798516e-007
-4.47600290165439e-014 -41.35 41.35
0 0

0101101
*
Ed
 1e-007 1 1 0
1  15 0 0 12.7
2  29 3 0 0 12.7
2  30 5 0 0 12.7
0

0101000
+159 26 -192 26 *
Ed
 1e-007 1 1 0
1  16 0 0 82.7
2  31 3 28 0 82.7
2  32 14 29 0 82.7
0

0101000
+159 30 -170 30 *
Wi

0101000
+158 25 -157 27 +191 31 -169 25 *
Fa
0  1e-007 3 25

0101000
+156 0 *
Ve
1.00000030674319e-007
-6.88615831023753e-015 41.35 41.35
0 0

0101101
*
Ed
 1e-007 1 1 0
1  17 0 0 82.7
2  33 4 28 0 82.7
2  34 15 32 0 82.7
0

0101000
+164 30 -154 30 *
Ed
 1e-007 1 1 0
1  18 0 0 12.7
2  35 4 0 0 12.7
2  36 5 0 0 12.7
0

0101000
+154 26 -190 26 *
Wi

0101000
+163 34 -153 35 +189 36 -152 34 *
Fa
0  1e-007 4 34

0101000
+151 0 *
Ve
1e-007
-4.07229805432507e-014 23.35 41.35
0 0

0101101
*
Ed
 1e-007 1 1 0
1  19 0 0 18
2  37 5 28 0 18
2  38 16 32 0 18
0

0101000
+154 30 -149 30 *
Ve
1e-007
-5.10924635932497e-014 -23.35 41.35
0 0

0101101
*
Ed
 1e-007 1 1 0
1  20 0 18 64.7
2  39 5 28 18 64.7
2  40 12 17 18 64.7
0

0101000
+149 30 -147 30 *
Ed
 1e-007 1 1 0
1  21 0 64.7 82.7
2  41 5 28 64.7 82.7
2  42 17 29 64.7 82.7
0

0101000
+147 30 -159 30 *
Wi

0101000
+152 25 -148 27 +188 31 -146 27 -158 25 -145 27 *
Fa
0  1e-007 5 25

0101000
+144 0 *
Ve
2.00001e-007
-6.91668944341472e-015 21.9 -12.9
0 0

0101101
*
Ed
 1e-007 1 1 0
1  22 0 0 12.7
3  43 44CN 6 0 0 12.7
0

0101000
+186 40 -142 40 *
Ve
1e-007
-8.91509088774001e-015 12.9 -21.9
0 0

0101101
*
Ed
 1e-007 1 1 0
1  23 0 0 1.5707963267949
2  45 6 0 0 1.5707963267949
2  46 12 41 0 1.5707963267949
0

0101000
+140 40 -142 40 *
Ed
 1e-007 1 1 0
1  24 0 1.5707963267949 6.28318530717959
2  47 6 0 1.5707963267949 6.28318530717959
2  48 12 41 1.5707963267949 6.28318530717959
0

0101000
+142 40 -140 40 *
Wi

0101000
-185 39 -141 38 +139 38 +138 38 +141 38 *
Fa
0  1e-007 6 38

0101000
+137 0 *
Ve
2.00001e-007
-1.55098156540134e-014 -3.9 -12.9
0 0

0101101
*
Ed
 1e-007 1 1 0
1  25 0 0 12.7
3  49 50CN 7 0 0 12.7
0

0101000
+183 40 -135 40 *
Ve
1e-007
-1.75082170983387e-014 -12.9 -21.9
0 0

0101101
*
Ed
 1e-007 1 1 0
1  26 0 0 1.5707963267949
2  51 7 0 0 1.5707963267949
2  52 12 41 0 1.5707963267949
0

0101000
+133 40 -135 40 *
Ed
 1e-007 1 1 0
1  27 0 1.5707963267949 6.28318530717959
2  53 7 0 1.5707963267949 6.28318530717959
2  54 12 41 1.5707963267949 6.28318530717959
0

0101000
+135 40 -133 40 *
Wi

0101000
-182 39 -134 38 +132 38 +131 38 +134 38 *
Fa
0  1e-007 7 38

0101000
+130 0 *
Ve
2.00001e-007
-2.26152430116144e-014 -3.9 12.9
0 0

0101101
*
Ed
 1e-007 1 1 0
1  28 0 0 12.7
3  55 56CN 8 0 0 12.7
0

0101000
+180 40 -128 40 *
Ve
1e-007
-2.46136444559397e-014 -12.9 3.9
0 0

0101101
*
Ed
 1e-007 1 1 0
1  29 0 0 1.5707963267949
2  57 8 0 0 1.5707963267949
2  58 12 41 0 1.5707963267949
0

0101000
+126 40 -128 40 *
Ed
 1e-007 1 1 0
1  30 0 1.5707963267949 6.28318530717959
2  59 8 0 1.5707963267949 6.28318530717959
2  60 12 41 1.5707963267949 6.28318530717959
0

0101000
+128 40 -126 40 *
Wi

0101000
-179 39 -127 38 +125 38 +124 38 +127 38 *
Fa
0  1e-007 8 38

0101000
+123 0 *
Ve
2.00001e-007
-1.40221168010157e-014 21.9 12.9
0 0

0101101
*
Ed
 1e-007 1 1 0
1  31 0 0 12.7
3  61 62CN 9 0 0 12.7
0

0101000
+177 40 -121 40 *
Ve
1e-007
-1.6020518245341e-014 12.9 3.9
0 0

0101101
*
Ed
 1e-007 1 1 0
1  32 0 0 1.5707963267949
2  63 9 0 0 1.5707963267949
2  64 12 41 0 1.5707963267949
0

0101000
+119 40 -121 40 *
Ed
 1e-007 1 1 0
1  33 0 1.5707963267949 6.28318530717959
2  65 9 0 1.5707963267949 6.28318530717959
2  66 12 41 1.5707963267949 6.28318530717959
0

0101000
+121 40 -119 40 *
Wi

0101000
-176 39 -120 38 +118 38 +117 38 +120 38 *
Fa
0  1e-007 9 38

0101000
+116 0 *
Ve
2.00001e-007
9.99999999999998 3.15 5.9008353758827e-015
0 0

0101101
*
Ed
 1e-007 1 1 0
1  34 0 0 2.7
3  67 68CN 10 0 0 2.7
0

0101000
+174 40 -114 40 *
Ve
1e-007
9.99999999999998 -1.77072820562547e-015 -3.14999999999999
0 0

0101101
*
Ed
 1e-007 1 1 0
1  35 0 0 1.5707963267949
2  69 10 38 0 1.5707963267949
2  70 18 43 0 1.5707963267949
0

0101000
+112 44 -114 44 *
Ed
 1e-007 1 1 0
1  36 0 1.5707963267949 6.28318530717959
2  71 10 38 1.5707963267949 6.28318530717959
2  72 18 43 1.5707963267949 6.28318530717959
0

0101000
+114 44 -112 44 *
Wi

0101000
+113 38 -173 39 -113 38 +111 0 +110 0 *
Fa
0  1e-007 10 38

0101000
+109 0 *
Ve
1e-007
-12.7 -41.35 -41.35
0 0

0101101
*
Ed
 1e-007 1 1 0
1  37 0 0 12.7
2  73 11 0 0 12.7
2  74 19 0 0 12.7
0

0101000
+170 46 -107 46 *
Ve
1e-007
-12.7 -23.35 -41.35
0 0

0101101
*
Ed
 1e-007 1 1 0
1  38 0 0 18
2  75 11 50 0 18
2  76 20 51 0 18
0

0101000
+107 52 -105 52 *
Ed
 1e-007 1 1 0
1  39 0 0 12.7
2  77 11 0 0 12.7
2  78 21 0 0 12.7
0

0101000
+168 46 -105 46 *
Wi

0101000
+106 45 -167 27 +104 49 -103 45 *
Fa
0  1e-007 11 45

0101000
+102 0 *
Ed
 1e-007 1 1 0
1  40 0 0 82.7
2  79 12 55 0 82.7
2  80 22 56 0 82.7
0

0101000
+166 57 -149 57 *
Ed
 1e-007 1 1 0
1  41 0 0 82.7
2  81 12 59 0 82.7
2  82 21 56 0 82.7
0

0101000
+168 60 -147 60 *
Wi

0101000
-165 35 -100 54 -146 35 +99 58 *
Wi

0101000
+139 61 +138 61 *
Wi

0101000
+132 61 +131 61 *
Wi

0101000
+125 61 +124 61 *
Wi

0101000
+118 61 +117 61 *
Ve
1e-007
-2.05644043741082e-014 -5.54256258422 3.2
0 0

0101101
*
Ve
1e-007
-1.90736315630602e-014 3.5527136788005e-015 6.4
0 0

0101101
*
Ed
 1e-007 1 1 0
1  42 0 0 6.39999999999965
2  83 12 64 0 6.39999999999965
2  84 23 65 0 6.39999999999965
0

0101000
+93 66 -92 66 *
Ve
1e-007
-1.98538616383481e-014 -5.54256258422 -3.2
0 0

0101101
*
Ed
 1e-007 1 1 0
1  43 0 0 6.4
2  85 12 64 0 6.4
2  86 24 65 0 6.4
0

0101000
+93 66 -90 66 *
Ve
1e-007
-1.6872316016252e-014 5.54256258422 3.2
0 0

0101101
*
Ed
 1e-007 1 1 0
1  44 0 0 6.39999999999965
2  87 12 64 0 6.39999999999965
2  88 25 65 0 6.39999999999965
0

0101000
+92 66 -88 66 *
Ve
1e-007
-1.765254609154e-014 -3.5527136788005e-015 -6.4
0 0

0101101
*
Ed
 1e-007 1 1 0
1  45 0 0 6.39999999999965
2  89 12 64 0 6.39999999999965
2  90 26 65 0 6.39999999999965
0

0101000
+90 66 -86 66 *
Ve
1e-007
-1.61617732804919e-014 5.54256258422 -3.2
0 0

0101101
*
Ed
 1e-007 1 1 0
1  46 0 0 6.4
2  91 12 64 0 6.4
2  92 27 65 0 6.4
0

0101000
+84 66 -88 66 *
Ed
 1e-007 1 1 0
1  47 0 0 6.39999999999965
2  93 12 64 0 6.39999999999965
2  94 28 65 0 6.39999999999965
0

0101000
+86 66 -84 66 *
Wi

0101000
-91 63 +89 63 -87 63 +85 63 +83 63 +82 63 *
Fa
0  1e-007 12 53

0101000
+98 0 +97 0 +96 0 +95 0 +94 0 +81 0 *
Ve
1e-007
-12.7 41.35 -41.35
0 0

0101101
*
Ed
 1e-007 1 1 0
1  48 0 0 12.7
2  95 13 0 0 12.7
2  96 15 0 0 12.7
0

0101000
+164 67 -79 67 *
Ve
1e-007
-12.7 23.35 -41.35
0 0

0101101
*
Ed
 1e-007 1 1 0
1  49 0 0 18
2  97 13 50 0 18
2  98 29 51 0 18
0

0101000
+79 69 -77 69 *
Ed
 1e-007 1 1 0
1  50 0 0 12.7
2  99 13 0 0 12.7
2  100 22 0 0 12.7
0

0101000
+166 67 -77 67 *
Wi

0101000
+78 0 +162 35 +76 68 -75 0 *
Fa
0  1e-007 13 0

0101000
+74 0 *
Ve
1.00000026441028e-007
-7.49999996192276 -41.35 -41.3492442493267
0 0

0101101
*
Ed
 1e-007 1 1 0
1  51 0 0 7.5000000000001
2  101 14 72 0 7.5000000000001
2  102 19 72 0 7.5000000000001
0

0101000
+72 73 -170 73 *
Ve
1.00000017763568e-007
-7.99999999999999 -41.35 41.3492442493267
0 0

0101101
*
Ed
 1e-007 1 1 0
1  52 0 4.49197117863317 4.94489875515322
2  103 14 72 4.49197117863317 4.94489875515322
2  104 19 72 4.49197117863317 4.94489875515322
0

0101000
+70 73 -72 73 *
Ed
 1e-007 1 1 0
1  53 0 0 8.00000003569739
2  105 14 72 0 8.00000003569739
2  106 19 72 0 8.00000003569739
0

0101000
+159 73 -70 73 *
Wi

0101000
-157 27 +71 71 +69 71 +68 71 *
Fa
0  1e-007 14 45

0101000
+67 0 *
Ve
1e-007
-12.7 41.35 41.35
0 0

0101101
*
Ed
 1e-007 1 1 0
1  54 0 0 12.7
2  107 15 0 0 12.7
2  108 16 0 0 12.7
0

0101000
+154 67 -65 67 *
Ed
 1e-007 1 1 0
1  55 0 0 82.7
2  109 15 50 0 82.7
2  110 29 51 0 82.7
0

0101000
+65 69 -79 69 *
Wi

0101000
+64 0 +153 35 +63 68 -78 0 *
Fa
0  1e-007 15 0

0101000
+62 0 *
Ve
1e-007
-12.7 23.35 41.35
0 0

0101101
*
Ed
 1e-007 1 1 0
1  56 0 0 12.7
2  111 16 0 0 12.7
2  112 22 0 0 12.7
0

0101000
+149 67 -60 67 *
Ed
 1e-007 1 1 0
1  57 0 0 18
2  113 16 50 0 18
2  114 29 51 0 18
0

0101000
+60 69 -65 69 *
Wi

0101000
+59 0 +148 35 +58 68 -64 0 *
Fa
0  1e-007 16 0

0101000
+57 0 *
Ve
1e-007
-12.7 -23.35 41.35
0 0

0101101
*
Ed
 1e-007 1 1 0
1  58 0 0 12.7
2  115 17 0 0 12.7
2  116 21 0 0 12.7
0

0101000
+147 46 -55 46 *
Ve
1e-007
-12.7000000000001 -41.35 41.35
0 0

0101101
*
Ed
 1e-007 1 1 0
1  59 0 0 18
2  117 17 50 0 18
2  118 20 51 0 18
0

0101000
+55 52 -53 52 *
Ed
 1e-007 1 1 0
1  60 0 0 12.7
2  119 17 0 0 12.7
2  120 19 0 0 12.7
0

0101000
+159 46 -53 46 *
Wi

0101000
+54 45 -145 27 +52 49 -51 45 *
Fa
0  1e-007 17 45

0101000
+50 0 *
Wi

0101000
+111 0 +110 0 *
Ve
1e-007
9.99999999999998 -5.54256258422 3.2
0 0

0101101
*
Ve
1e-007
9.99999999999998 -5.54256258422 -3.19999999999999
0 0

0101101
*
Ed
 1e-007 1 1 0
1  61 0 0 6.4
2  121 18 75 0 6.4
2  122 24 76 0 6.4
0

0101000
+47 77 -46 77 *
Ve
1e-007
9.99999999999998 2.44249065417534e-015 6.4
0 0

0101101
*
Ed
 1e-007 1 1 0
1  62 0 0 6.39999999999965
2  123 18 75 0 6.39999999999965
2  124 23 76 0 6.39999999999965
0

0101000
+47 77 -44 77 *
Ve
1e-007
9.99999999999998 -4.66293670342566e-015 -6.39999999999999
0 0

0101101
*
Ed
 1e-007 1 1 0
1  63 0 0 6.39999999999965
2  125 18 75 0 6.39999999999965
2  126 26 76 0 6.39999999999965
0

0101000
+46 77 -42 77 *
Ve
1e-007
9.99999999999998 5.54256258422 3.2
0 0

0101101
*
Ed
 1e-007 1 1 0
1  64 0 0 6.39999999999965
2  127 18 75 0 6.39999999999965
2  128 25 76 0 6.39999999999965
0

0101000
+44 77 -40 77 *
Ve
1e-007
9.99999999999998 5.54256258422 -3.2
0 0

0101101
*
Ed
 1e-007 1 1 0
1  65 0 0 6.39999999999965
2  129 18 75 0 6.39999999999965
2  130 28 76 0 6.39999999999965
0

0101000
+42 77 -38 77 *
Ed
 1e-007 1 1 0
1  66 0 0 6.4
2  131 18 75 0 6.4
2  132 27 76 0 6.4
0

0101000
+38 77 -40 77 *
Wi

0101000
-45 74 +43 74 -41 74 +39 74 -37 74 -36 74 *
Fa
0  1e-007 18 43

0101000
+48 0 +35 0 *
Ed
 1e-007 1 1 0
1  67 0 0 82.7
2  133 19 50 0 82.7
2  134 20 51 0 82.7
0

0101000
+53 52 -107 52 *
Wi

0101000
-68 71 -69 71 -71 71 -106 45 +33 49 +51 45 *
Fa
0  1e-007 19 45

0101000
+32 0 *
Ed
 1e-007 1 1 0
1  68 0 0 82.7
2  135 20 51 0 82.7
2  136 21 50 0 82.7
0

0101000
+105 52 -55 52 *
Wi

0101100
+104 0 +30 0 +52 0 +33 0 *
Fa
0  1e-007 20 0

0101000
-29 47 *
Wi

0101000
+103 0 -99 54 +30 68 -54 0 *
Fa
0  1e-007 21 0

0101000
+27 0 *
Ed
 1e-007 1 1 0
1  69 0 0 82.7
2  137 22 50 0 82.7
2  138 29 51 0 82.7
0

0101000
+77 69 -60 69 *
Wi

0101000
+75 0 -100 54 +25 68 -59 0 *
Fa
0  1e-007 22 0

0101000
+24 0 *
Ed
 1e-007 1 1 0
1  70 0 0 10
2  139 23 0 0 10
2  140 24 0 0 10
0

0101000
+93 44 -47 44 *
Ed
 1e-007 1 1 0
1  71 0 0 10
2  141 23 0 0 10
2  142 25 0 0 10
0

0101000
+92 44 -44 44 *
Wi

0101000
+22 0 -91 79 +43 74 -21 0 *
Fa
0  1e-007 23 0

0101000
+20 0 *
Ed
 1e-007 1 1 0
1  72 0 0 10
2  143 24 0 0 10
2  144 26 0 0 10
0

0101000
+90 44 -46 44 *
Wi

0101000
+22 0 -89 79 +45 74 -18 0 *
Fa
0  1e-007 24 0

0101000
+17 0 *
Ed
 1e-007 1 1 0
1  73 0 0 10
2  145 25 0 0 10
2  146 27 0 0 10
0

0101000
+88 44 -40 44 *
Wi

0101000
+21 0 -87 79 +39 74 -15 0 *
Fa
0  1e-007 25 0

0101000
+14 0 *
Ed
 1e-007 1 1 0
1  74 0 0 10
2  147 26 0 0 10
2  148 28 0 0 10
0

0101000
+86 44 -42 44 *
Wi

0101000
+18 0 -85 79 +41 74 -12 0 *
Fa
0  1e-007 26 0

0101000
+11 0 *
Ed
 1e-007 1 1 0
1  75 0 0 10
2  149 27 0 0 10
2  150 28 0 0 10
0

0101000
+84 44 -38 44 *
Wi

0101000
+9 0 -83 79 +36 74 -15 0 *
Fa
0  1e-007 27 0

0101000
+8 0 *
Wi

0101000
+12 0 -82 79 +37 74 -9 0 *
Fa
0  1e-007 28 0

0101000
+6 0 *
Wi

0101100
+76 0 +25 0 +58 0 +63 0 *
Fa
0  1e-007 29 0

0101000
-4 47 *
Sh

0101000
-171 9 -160 0 -155 0 -150 33 -143 0 -136 37 -129 37 -122 37 -115 37 -108 37 
+101 0 +80 33 -73 33 +66 0 -61 33 -56 33 +49 0 +34 37 +31 0 +28 78 
+26 45 -23 33 -19 37 +16 37 -13 37 +10 37 +7 37 +5 37 -3 80 *
So

0100000
+2 0 *

+1 1 