DBRep_DrawableShape

CASCADE Topology V1, (c) Matra-Datavision
Locations 76
1
              0               0               1               0 
              1               0               0               0 
              0               1               0               0 
1
              0               0               1               0 
              1               0               0               0 
              0               1               0               0 
1
              0 1.11022302462516e-16               1               0 
              1               0 1.11022302462516e-16               0 
1.11022302462516e-16               1               0               0 
1
              0               0               1               0 
              1               0               0               0 
              0               1               0               0 
1
              0 1.11022302462516e-16               1               0 
              1               0 1.11022302462516e-16               0 
1.11022302462516e-16               1               0               0 
1
              1               0               0               0 
              0               1               0               0 
              0               0               1               0 
1
              0               0               1               0 
              1               0               0               0 
              0               1               0               0 
1
              0 1.11022302462516e-16               1               0 
              1               0 1.11022302462516e-16               0 
1.11022302462516e-16               1               0               0 
2  2 1 3 -1 4 1 5 -1 6 1 7 1 8 -1 0
1
              0 1.11022302462516e-16               1               0 
              1               0 1.11022302462516e-16               0 
1.11022302462516e-16               1               0               0 
1
              1               0               0               0 
              0               1               0 1.40998324127395e-15 
              0               0               1            12.7 
1
              0               0               1               0 
              1               0               0               0 
              0               1               0               0 
1
              0 1.11022302462516e-16               1               0 
              1               0 1.11022302462516e-16               0 
1.11022302462516e-16               1               0               0 
2  10 -1 11 1 12 1 13 -1 0
1
              0               0               1               0 
              1               0               0               0 
              0               1               0               0 
2  15 1 10 -1 11 1 12 1 13 -1 0
2  15 -1 0
2  11 -1 10 1 15 -1 0
2  1 -1 8 1 7 -1 6 -1 5 1 4 -1 3 1 2 -1 13 1 12 -1 11 -1 10 1 15 -1 0
1
-2.22044604925031e-16 -1.11022302462516e-16               1            12.7 
              1 -2.22044604925031e-16 1.11022302462516e-16              -0 
1.11022302462516e-16               1               0 1.40998324127395e-15 
2  20 1 13 -1 0
2  10 -1 11 1 12 1 20 -1 0
2  13 1 20 -1 0
2  1 -1 8 1 7 -1 6 -1 5 1 4 -1 3 1 2 -1 13 1 20 -1 0
2  7 1 8 -1 0
2  12 1 13 -1 2 1 3 -1 4 1 5 -1 6 1 0
2  1 -1 8 1 7 -1 6 -1 5 1 4 -1 3 1 2 -1 13 1 12 -1 0
2  15 1 10 -1 12 1 13 -1 2 1 3 -1 4 1 5 -1 6 1 0
2  10 1 15 -1 0
2  5 1 4 -1 3 1 2 -1 13 1 12 -1 10 1 15 -1 0
2  1 -1 8 1 7 -1 6 -1 5 1 4 -1 3 1 2 -1 13 1 12 -1 10 1 15 -1 0
2  15 1 10 -1 11 1 12 1 13 -1 2 1 3 -1 4 1 5 -1 6 1 0
2  6 -1 5 1 4 -1 3 1 2 -1 13 1 12 -1 10 1 15 -1 0
2  6 1 7 1 8 -1 0
2  12 1 13 -1 2 1 3 -1 4 1 5 -1 0
2  15 1 10 -1 12 1 13 -1 2 1 3 -1 4 1 5 -1 0
2  15 1 10 -1 11 1 12 1 13 -1 2 1 3 -1 4 1 5 -1 0
2  4 1 5 -1 6 1 7 1 8 -1 0
2  2 1 3 -1 0
2  20 1 13 -1 2 1 3 -1 0
2  1 -1 8 1 7 -1 6 -1 5 1 4 -1 3 1 2 -1 0
2  10 -1 12 1 13 -1 0
1
              1               0               0 -1.11022302462516e-15 
              0               1               0 2.22044604925031e-15 
              0               0               1              10 
2  3 -1 43 1 0
2  1 -1 8 1 7 -1 6 -1 5 1 4 -1 0
2  15 1 10 -1 12 1 13 -1 2 1 3 -1 4 1 5 -1 6 1 7 1 8 -1 0
2  1 -1 8 1 7 -1 6 -1 0
2  1 -1 0
2  10 -1 12 1 13 -1 2 1 3 -1 4 1 5 -1 6 1 0
1
              0 4.44089209850063e-16              -1 -2.75446332409501e-14 
              1               0               0 -1.01854145214547e-45 
              0              -1 -4.44089209850063e-16 -9.17420580868748e-30 
2  50 1 5 -1 0
2  10 -1 12 1 13 -1 2 1 3 -1 4 1 5 -1 6 1 5 1 50 -1 0
2  5 1 50 -1 0
2  1 -1 8 1 7 -1 5 1 50 -1 0
2  50 1 5 -1 6 1 0
2  10 -1 12 1 13 -1 2 1 3 -1 4 1 50 -1 0
2  1 -1 8 1 7 -1 6 -1 5 1 50 -1 0
2  2 1 3 -1 4 1 5 -1 6 1 0
1
              0 1.11022302462516e-16              -1 -1.83630888273001e-14 
              1 -2.22044604925031e-16 1.11022302462516e-16 -2.26342544921216e-46 
-1.11022302462516e-16              -1 -2.22044604925031e-16 -4.0774248038611e-30 
2  59 1 3 -1 4 1 5 -1 6 1 0
2  10 -1 12 1 13 -1 2 1 59 -1 0
2  3 1 59 -1 0
2  1 -1 8 1 7 -1 6 -1 5 1 4 -1 3 1 59 -1 0
2  1 -1 8 1 7 -1 0
1
-2.22044604925031e-16               1 -1.11022302462516e-16 -5.09678100482638e-31 
-1.11022302462516e-16 -2.22044604925031e-16              -1          -41.35 
             -1 -1.11022302462516e-16               0 4.59077220682502e-15 
2  65 1 8 -1 0
2  6 1 7 1 65 -1 0
2  8 1 65 -1 0
2  1 -1 8 1 65 -1 0
2  59 1 3 -1 43 1 0
2  59 -1 0
2  43 -1 3 1 59 -1 0
2  1 -1 8 1 7 -1 6 -1 5 1 4 -1 43 -1 3 1 59 -1 0
2  50 1 5 -1 6 1 7 1 8 -1 0
2  50 1 5 -1 7 1 8 -1 0
2  59 1 3 -1 0
Curve2ds 144
1 -0 -0 -4.4408920985006247e-16 -1 
1 5.6399329650957949e-15 -12.699999999999996 1 -3.3306690738754686e-16 
1 -82.699999999999974 -4.2632564145605999e-14 1 4.4408920985006252e-16 
1 -7.1054273576009995e-15 -12.699999999999996 1 3.3306690738754691e-16 
1 -3.6726177654600154e-14 -82.699999999999946 -1 -4.4408920985006252e-16 
1 7.1054273576009995e-15 -12.699999999999996 1 -3.3306690738754691e-16 
1 -82.700000000000017 -82.699999999999989 4.4408920985006247e-16 1 
1 -5.6399329650957949e-15 -12.699999999999996 1 3.3306690738754686e-16 
2 -28.450000000000006 -54.249999999999986 -5.5511151231257817e-16 -1 -1 5.5511151231257817e-16 9
1 0 0 1 0 
2 -28.449999999999996 -28.449999999999989 -5.5511151231257817e-16 -1 -1 5.5511151231257817e-16 9
1 0 0 1 0 
2 -54.249999999999986 -28.449999999999992 -5.5511151231257817e-16 -1 -1 5.5511151231257817e-16 9
1 0 0 1 0 
2 -54.25 -54.249999999999986 -5.5511151231257817e-16 -1 -1 5.5511151231257817e-16 9
1 0 0 1 0 
2 -41.350000000000001 -41.349999999999987 -5.5511151231257817e-16 -1 -1 5.5511151231257817e-16 3.1499999999999999
1 0 0 1 0 
1 0 0 4.4408920985006271e-16 -1 
1 82.699999999999974 2.7544633240950121e-14 -4.4408920985006262e-16 -1 
1 1.4012984643248174e-45 -3.1554436208840472e-30 1 -3.3306690738754686e-16 
1 1.4210854715202004e-14 -4.5907722068250138e-15 1 3.3306690738754696e-16 
1 1.4012984643248174e-45 -3.1554436208840472e-30 1 -3.3306690738754686e-16 
1 -0 -0 -4.4408920985006247e-16 -1 
1 82.699999999999946 -2.7544633240950114e-14 4.4408920985006271e-16 -1 
1 0 -0 4.4408920985006262e-16 -1 
1 1.4012984643248174e-45 -3.1554436208840472e-30 1 -3.3306690738754686e-16 
1 82.699999999999989 -4.5907722068250138e-15 -1 3.3306690738754696e-16 
1 -0 -0 -4.4408920985006262e-16 -1 
1 82.699999999999946 2.7544633240950114e-14 -4.4408920985006271e-16 -1 
1 -0 -0 1 3.3306690738754691e-16 
1 1.4270986813513869e-29 3.2135405447775161e-14 1 -4.4408920985006271e-16 
1 0 -0 1 -3.3306690738754691e-16 
1 82.699999999999974 2.2953861034125105e-14 -1 4.4408920985006262e-16 
1 82.699999999999974 -2.7544633240950121e-14 4.4408920985006262e-16 -1 
1 -0 0 -4.4408920985006271e-16 -1 
1 1.4012984643248174e-45 3.1554436208840472e-30 1 3.3306690738754686e-16 
1 18.000000000000007 5.9680038688725272e-14 -1 -3.3306690738754696e-16 
1 1.4012984643248174e-45 3.1554436208840472e-30 1 3.3306690738754686e-16 
1 -82.700000000000017 -82.699999999999989 4.4408920985006247e-16 1 
1 1.4012984643248174e-45 3.1554436208840472e-30 1 3.3306690738754686e-16 
1 -64.699999999999989 5.968003868872526e-14 1 -3.3306690738754696e-16 
1 0 0 0 -1 
1 6.2831853071795862 0 0 -1 
1 4.7123889803846897 -12.700000000000001 1 0 
2 -28.45000000000001 -54.249999999999986 1 -1.2325951644078318e-32 -1.2325951644078318e-32 -1 9
1 -1.5707963267948966 -12.700000000000001 1 0 
2 -28.45000000000001 -54.249999999999986 1 -1.2325951644078318e-32 -1.2325951644078318e-32 -1 9
1 0 0 0 -1 
1 6.2831853071795862 0 0 -1 
1 4.7123889803846897 -12.700000000000005 1 0 
2 -28.450000000000003 -28.449999999999989 1 -1.2325951644078318e-32 -1.2325951644078318e-32 -1 9
1 -1.5707963267948966 -12.700000000000005 1 0 
2 -28.450000000000003 -28.449999999999989 1 -1.2325951644078318e-32 -1.2325951644078318e-32 -1 9
1 0 0 0 -1 
1 6.2831853071795862 0 0 -1 
1 4.7123889803846897 -12.700000000000008 1 0 
2 -54.25 -28.449999999999985 1 -1.2325951644078318e-32 -1.2325951644078318e-32 -1 9
1 -1.5707963267948966 -12.700000000000008 1 0 
2 -54.25 -28.449999999999985 1 -1.2325951644078318e-32 -1.2325951644078318e-32 -1 9
1 0 0 0 -1 
1 6.2831853071795862 0 0 -1 
1 4.7123889803846897 -12.700000000000005 1 0 
2 -54.250000000000014 -54.249999999999986 1 -1.2325951644078318e-32 -1.2325951644078318e-32 -1 9
1 -1.5707963267948966 -12.700000000000005 1 0 
2 -54.250000000000014 -54.249999999999986 1 -1.2325951644078318e-32 -1.2325951644078318e-32 -1 9
1 0 0 0 -1 
1 6.2831853071795862 0 0 -1 
1 4.7123889803846897 -2.7000000000000046 1 0 
2 3.1999999999999984 -5.5425625842199988 1 -2.465190328815663e-32 -2.465190328815663e-32 -1 3.1499999999999999
1 -1.5707963267948966 -2.7000000000000046 1 0 
2 3.1999999999999984 -5.5425625842199988 1 -2.465190328815663e-32 -2.465190328815663e-32 -1 3.1499999999999999
1 18 -3.944304526105059e-31 -1.1102230246251573e-16 -1 
1 0 0 -1.1102230246251575e-16 -1 
1 5.4400928206632678e-15 -7.4999999999999938 1 1.1102230246251568e-16 
1 4.9449028554193779 0 0 -1 
1 0 0 -1.1102230246251573e-16 -1 
1 82.699999999999989 0 1.1102230246251575e-16 -1 
1 -2.1627144519698044e-14 -64.699999999999989 -1 7.3955709864469846e-32 
1 0 0 1 0 
1 6.2172489379008829e-15 -17.999999999999986 -1 -1.1102230246251556e-16 
1 0 0 1 0 
1 -44.549999999999997 -35.807437415779987 -0.50000000000002776 -0.86602540378442261 
1 -4.3161772615408397e-46 3.1554436208840472e-30 1 -1.5165928555043735e-16 
1 -44.549999999999997 -35.807437415779987 1 4.4408920985006252e-16 
1 -3.5032461608120411e-46 3.1554436208840472e-30 1 1.110223024625157e-16 
1 -47.75 -41.349999999999987 0.50000000000002764 -0.86602540378442272 
1 -3.4158679198688673e-31 3.1554436208840472e-30 1 -4.0636983087915483e-17 
1 -38.149999999999999 -35.807437415779987 0.50000000000002764 -0.86602540378442272 
1 -1.2132742844034986e-15 2.8283634205600638e-30 1 -4.0636983087915483e-17 
1 -38.149999999999999 -46.892562584219988 -1 -4.4408920985006252e-16 
1 3.5032461608120411e-46 3.1554436208840472e-30 1 -1.110223024625157e-16 
1 -34.950000000000003 -41.349999999999987 -0.50000000000002776 -0.86602540378442261 
1 3.4158679198688563e-31 3.1554436208840472e-30 1 -1.5165928555043735e-16 
1 18 -3.944304526105059e-31 -1.1102230246251573e-16 -1 
1 0 0 -1.1102230246251575e-16 -1 
1 82.699999999999989 -7.5000000000000036 -1 1.1102230246251568e-16 
1 4.9449028554193779 0 0 -1 
1 0 0 -1.1102230246251573e-16 -1 
1 82.699999999999989 0 1.1102230246251575e-16 -1 
2 40.265028455577387 171.7042934475177 1 -7.7715611723760978e-16 7.7715611723760978e-16 1 184.16
1 0 0 1 0 
1 0 0 1.1102230246251575e-16 -1 
1 17.999999999999993 -3.944304526105059e-31 1.1102230246251573e-16 -1 
2 40.265028455577408 171.7042934475177 1 -7.7715611723760958e-16 7.7715611723760958e-16 1 184.16
1 0 -82.69999999999996 1 0 
1 0 0 1.1102230246251575e-16 -1 
1 17.999999999999993 -3.944304526105059e-31 1.1102230246251573e-16 -1 
1 -64.69999999999996 -7.9999999999999325 1 1.1102230246251568e-16 
1 4.4919668564475419 0 0 -1 
1 0 0 1.1102230246251573e-16 -1 
1 82.699999999999989 0 -1.1102230246251575e-16 -1 
1 17.999999999999986 -7.9999999999999272 -1 1.1102230246251568e-16 
1 4.4919668564475419 0 0 -1 
1 0 0 1.1102230246251573e-16 -1 
1 82.699999999999989 0 -1.1102230246251575e-16 -1 
1 0 -0 1 4.4408920985006252e-16 
1 -1.9984014443252818e-15 -9.9999999999999982 1 1.110223024625157e-16 
1 0 -0 -0.50000000000002776 -0.86602540378442272 
1 2.1529783339928128e-15 -9.9999999999999982 1 -1.5165928555043735e-16 
1 6.3999999999999986 3.5527136788005005e-15 0.50000000000002776 -0.86602540378442272 
1 -1.1617486545143581e-15 -10 1 -4.0636983087915483e-17 
1 -3.2000000000000006 -5.5425625842199997 0.50000000000002776 -0.86602540378442272 
1 -1.1155626107509816e-16 -10 1 -4.0636983087915483e-17 
1 9.5999999999999961 -5.5425625842199944 -0.50000000000002776 -0.86602540378442272 
1 1.9978674857127791e-15 -9.9999999999999982 1 -1.5165928555043735e-16 
1 6.3999999999999968 -11.085125168439994 -1 -4.4408920985006252e-16 
1 1.9984014443252818e-15 -9.9999999999999982 1 -1.110223024625157e-16 
2 42.434971544422581 171.70429344751773 -1 -7.7715611723760978e-16 -7.7715611723760978e-16 1 184.16
1 0 -18.000000000000004 1 0 
2 42.434971544422574 171.70429344751773 -1 -7.7715611723760958e-16 -7.7715611723760958e-16 1 184.16
1 0 -64.69999999999996 1 0 
1 0 0 2.0717043678169826e-16 -1 
1 0 0 -2.2204460492503136e-16 -1 
1 6.3999999999996477 -9.7061942752274492e-16 2.0717043678169826e-16 -1 
1 -3.4158679198688594e-31 -2.4828700941565234e-47 -1.487416814334534e-17 -1 
1 6.3999999999999986 7.1054273576010259e-16 -2.2204460492503136e-16 -1 
1 -7.819423422353076e-46 3.1554436208840472e-30 -1.487416814334534e-17 -1 
1 6.3999999999996433 -2.6007669176264883e-16 -1.487416814334534e-17 -1 
1 6.3999999999999986 -7.1054273576010259e-16 2.2204460492503136e-16 -1 
1 6.3999999999996433 -2.6007669176264568e-16 -1.487416814334534e-17 -1 
1 3.4158679198688607e-31 6.2752453078735804e-47 2.0717043678169826e-16 -1 
1 0 0 2.2204460492503136e-16 -1 
1 6.3999999999996477 -9.7061942752274452e-16 2.0717043678169826e-16 -1 
Curves 72
1 -41.349999999999987 -41.350000000000001 0 1 0 0 
1 -41.349999999999987 41.350000000000016 0 0 -1 0 
1 41.350000000000001 -41.350000000000001 0 0 1 0 
1 41.350000000000001 41.350000000000016 0 -1 0 0 
2 12.9 -12.9 0 0 0 1 1 0 -0 -0 1 0 9
2 -12.9 -12.9 0 0 0 1 1 0 -0 -0 1 0 9
2 -12.9 12.9 0 0 0 1 1 0 -0 -0 1 0 9
2 12.9 12.9 0 0 0 1 1 0 -0 -0 1 0 9
2 0 0 0 0 0 1 1 0 -0 -0 1 0 3.1499999999999999
1 -41.349999999999987 -41.349999999999994 -4.5907722068250209e-15 0 1.1102230246251568e-16 1 
1 -41.349999999999987 -41.350000000000001 0 1 0 0 
1 -41.349999999999987 -41.350000000000001 0 1 0 0 
1 41.349999999999987 -41.349999999999994 4.5907722068250225e-15 0 1.1102230246251568e-16 1 
1 -41.349999999999987 -41.350000000000001 0 1 0 0 
1 -41.349999999999973 41.350000000000009 -4.5907722068250209e-15 0 1.1102230246251568e-16 1 
1 -41.349999999999987 41.350000000000016 0 0 -1 0 
1 41.350000000000001 -41.350000000000001 0 0 1 0 
1 41.350000000000001 41.350000000000009 4.5907722068250225e-15 0 1.1102230246251568e-16 1 
1 41.350000000000001 41.350000000000016 0 -1 0 0 
1 41.350000000000001 41.350000000000016 0 -1 0 0 
1 41.350000000000001 41.350000000000016 0 -1 0 0 
1 21.899999999999999 -12.899999999999993 12.699999999999985 -1.1102230246251568e-16 -2.2204460492503136e-16 -1 
2 12.899999999999999 -12.899999999999995 -1.4210854715202004e-14 1.1102230246251563e-16 1.1102230246251568e-16 1 0 -1 1.1102230246251568e-16 1 -1.2325951644078309e-32 -1.1102230246251563e-16 9
2 12.899999999999999 -12.899999999999995 -1.4210854715202004e-14 1.1102230246251563e-16 1.1102230246251568e-16 1 0 -1 1.1102230246251568e-16 1 -1.2325951644078309e-32 -1.1102230246251563e-16 9
1 -3.8999999999999986 -12.899999999999995 12.699999999999989 -1.1102230246251568e-16 -2.2204460492503136e-16 -1 
2 -12.899999999999999 -12.899999999999999 -1.4210854715202004e-14 1.1102230246251563e-16 1.1102230246251568e-16 1 0 -1 1.1102230246251568e-16 1 -1.2325951644078309e-32 -1.1102230246251563e-16 9
2 -12.899999999999999 -12.899999999999999 -1.4210854715202004e-14 1.1102230246251563e-16 1.1102230246251568e-16 1 0 -1 1.1102230246251568e-16 1 -1.2325951644078309e-32 -1.1102230246251563e-16 9
1 -3.9000000000000012 12.900000000000002 12.699999999999987 -1.1102230246251568e-16 -2.2204460492503136e-16 -1 
2 -12.900000000000002 12.899999999999999 -2.1316282072803006e-14 1.1102230246251563e-16 1.1102230246251568e-16 1 0 -1 1.1102230246251568e-16 1 -1.2325951644078309e-32 -1.1102230246251563e-16 9
2 -12.900000000000002 12.899999999999999 -2.1316282072803006e-14 1.1102230246251563e-16 1.1102230246251568e-16 1 0 -1 1.1102230246251568e-16 1 -1.2325951644078309e-32 -1.1102230246251563e-16 9
1 21.899999999999991 12.900000000000004 12.699999999999982 -1.1102230246251568e-16 -2.2204460492503136e-16 -1 
2 12.899999999999995 12.900000000000002 -2.1316282072803006e-14 1.1102230246251563e-16 1.1102230246251568e-16 1 0 -1 1.1102230246251568e-16 1 -1.2325951644078309e-32 -1.1102230246251563e-16 9
2 12.899999999999995 12.900000000000002 -2.1316282072803006e-14 1.1102230246251563e-16 1.1102230246251568e-16 1 0 -1 1.1102230246251568e-16 1 -1.2325951644078309e-32 -1.1102230246251563e-16 9
1 3.1499999999999995 3.1696867353048196e-15 12.699999999999987 -1.1102230246251568e-16 -2.2204460492503136e-16 -1 
2 -2.9976021664879224e-16 3.6304292905242559e-15 9.9999999999999805 1.1102230246251564e-16 2.2204460492503136e-16 1 0 -1 2.2204460492503136e-16 1 -2.4651903288156619e-32 -1.1102230246251564e-16 3.1499999999999999
2 -2.9976021664879224e-16 3.6304292905242559e-15 9.9999999999999805 1.1102230246251564e-16 2.2204460492503136e-16 1 0 -1 2.2204460492503136e-16 1 -2.4651903288156619e-32 -1.1102230246251564e-16 3.1499999999999999
1 -23.350000000000001 -41.349999999999994 -1.1773915176149774e-14 -4.9303806576313249e-32 -5.5511151231257837e-16 -1 
1 -41.349999999999994 -41.350000000000023 -7.5000000000000124 1 -1.1102230246251563e-16 2.2204460492503136e-16 
1 -41.350000000000001 -41.349999999999994 -1.3772316620475056e-14 -4.9303806576313249e-32 -5.5511151231257837e-16 -1 
1 23.350000000000001 41.349999999999994 1.9984014443252818e-15 -1.1102230246251562e-16 -1 -1.1102230246251568e-16 
1 -23.350000000000001 41.350000000000001 0 0 -1 0 
1 -5.5425625842199997 -3.2000000000000002 0 0.86602540378442272 -0.50000000000002764 0 
1 -5.5425625842199997 -3.2000000000000002 0 0 1 0 
1 0 -6.4000000000000004 0 0.86602540378442272 0.50000000000002764 0 
1 -5.5425625842199997 3.2000000000000002 0 0.86602540378442272 0.50000000000002764 0 
1 5.5425625842199997 3.2000000000000002 0 0 -1 0 
1 0 6.4000000000000004 0 0.86602540378442272 -0.50000000000002764 0 
1 23.350000000000001 -41.349999999999994 -6.5891736511502916e-15 2.2204460492503141e-16 -5.5511151231257837e-16 -1 
1 -41.349999999999994 -41.350000000000023 -7.5000000000000124 1 -1.1102230246251563e-16 2.2204460492503136e-16 
1 41.350000000000001 -41.349999999999994 -4.590772206825009e-15 2.2204460492503141e-16 -5.5511151231257837e-16 -1 
2 -1.0849715444226713 171.7042934475177 0 0 0 1 1 0 -0 -0 1 0 184.16
1 -41.349999999999987 41.349999999999994 -5.0498494275075229e-14 -4.9303806576313249e-32 -5.5511151231257837e-16 -1 
2 41.349999999999937 1.0849715444226573 171.7042934475177 -1 2.2204460492503141e-16 -2.2204460492503136e-16 -2.2204460492503136e-16 -1 -2.2204460492503136e-16 -2.2204460492503141e-16 -2.2204460492503131e-16 1 184.16
1 41.349999999999987 41.349999999999994 -4.1316949861425186e-14 2.2204460492503141e-16 -5.5511151231257837e-16 -1 
1 -41.349999999999973 41.350000000000016 -7.9999999999999805 1 -1.1102230246251563e-16 2.2204460492503136e-16 
1 23.349999999999994 41.349999999999994 -4.3315351305750467e-14 2.2204460492503141e-16 -5.5511151231257837e-16 -1 
1 -41.349999999999973 41.350000000000016 -7.9999999999999805 1 -1.1102230246251563e-16 2.2204460492503136e-16 
1 -23.349999999999994 41.349999999999994 -4.8500092830749947e-14 -4.9303806576313249e-32 -5.5511151231257837e-16 -1 
1 -5.5425625842199997 -3.2000000000000002 0 0 1 0 
1 -5.5425625842199997 -3.2000000000000002 0 0.86602540378442272 -0.50000000000002764 0 
1 -5.5425625842199997 3.2000000000000002 0 0.86602540378442272 0.50000000000002764 0 
1 0 -6.4000000000000004 0 0.86602540378442272 0.50000000000002764 0 
1 0 6.4000000000000004 0 0.86602540378442272 -0.50000000000002764 0 
1 5.5425625842199997 3.2000000000000002 0 0 -1 0 
2 -23.350000000000019 1.0849715444226717 171.70429344751767 -1 2.2204460492503141e-16 -2.2204460492503136e-16 -2.2204460492503136e-16 -1 -2.2204460492503136e-16 -2.2204460492503141e-16 -2.2204460492503131e-16 1 184.16
2 23.349999999999937 1.0849715444226613 171.7042934475177 -1 2.2204460492503141e-16 -2.2204460492503136e-16 -2.2204460492503136e-16 -1 -2.2204460492503136e-16 -2.2204460492503141e-16 -2.2204460492503131e-16 1 184.16
1 -5.5425625842199979 3.2000000000000002 -1.9333708254822828e-14 -1.1102230246251563e-16 2.2204460492503136e-16 1 
1 2.1316282072803005e-15 6.3999999999999995 -1.9073631563060184e-14 -1.1102230246251563e-16 2.2204460492503136e-16 1 
1 -5.5425625842199997 -3.1999999999999993 -1.8623165519062731e-14 -1.1102230246251563e-16 2.2204460492503136e-16 1 
1 5.5425625842199997 3.1999999999999993 -1.8103012135537436e-14 -1.1102230246251563e-16 2.2204460492503136e-16 1 
1 -2.1316282072803005e-15 -6.3999999999999995 -1.7652546091539983e-14 -1.1102230246251563e-16 2.2204460492503136e-16 1 
1 5.5425625842199979 -3.2000000000000002 -1.7392469399777339e-14 -1.1102230246251563e-16 2.2204460492503136e-16 1 
Polygon3D 0
PolygonOnTriangulations 0
Surfaces 28
1 0 -41.349999999999987 -41.350000000000001 -1 0 0 0 0 -1 -0 -1 -0 
1 -41.349999999999987 -41.349999999999994 -4.5907722068250209e-15 1.2325951644078315e-32 1 -1.1102230246251568e-16 1 0 1.1102230246251568e-16 1.1102230246251568e-16 -1.1102230246251568e-16 -1 
1 -41.349999999999973 41.350000000000009 -4.5907722068250209e-15 1 -1.1102230246251568e-16 1.2325951644078315e-32 -1.1102230246251568e-16 -1 0 1.2325951644078315e-32 -1.3684555315672051e-48 -1 
1 41.349999999999987 -41.349999999999994 4.5907722068250225e-15 -1 1.1102230246251568e-16 -1.2325951644078315e-32 1.1102230246251568e-16 1 0 1.2325951644078315e-32 -1.3684555315672051e-48 -1 
1 41.350000000000001 41.350000000000009 4.5907722068250225e-15 -1.2325951644078315e-32 -1 1.1102230246251568e-16 -1 0 -1.1102230246251568e-16 1.1102230246251568e-16 -1.1102230246251568e-16 -1 
2 12.9 -12.899999999999993 12.699999999999987 1.1102230246251563e-16 1.1102230246251568e-16 1 1 1.1102230246251563e-16 -1.1102230246251564e-16 -1.1102230246251564e-16 1 -1.1102230246251568e-16 9
2 -12.899999999999997 -12.899999999999997 12.69999999999999 1.1102230246251563e-16 1.1102230246251568e-16 1 1 1.1102230246251563e-16 -1.1102230246251564e-16 -1.1102230246251564e-16 1 -1.1102230246251568e-16 9
2 -12.9 12.9 12.699999999999987 1.1102230246251563e-16 1.1102230246251568e-16 1 1 1.1102230246251563e-16 -1.1102230246251564e-16 -1.1102230246251564e-16 1 -1.1102230246251568e-16 9
2 12.899999999999997 12.900000000000004 12.699999999999983 1.1102230246251563e-16 1.1102230246251568e-16 1 1 1.1102230246251563e-16 -1.1102230246251564e-16 -1.1102230246251564e-16 1 -1.1102230246251568e-16 9
2 1.5653958587979443e-31 2.8199664825478951e-15 12.699999999999987 1.1102230246251563e-16 1.1102230246251568e-16 1 1 1.1102230246251563e-16 -1.1102230246251564e-16 -1.1102230246251564e-16 1 -1.1102230246251568e-16 3.1499999999999999
1 -41.350000000000001 -41.349999999999994 -1.3772316620475056e-14 -6.1629758220391569e-32 -1 5.5511151231257837e-16 1 0 1.1102230246251568e-16 -1.1102230246251568e-16 5.5511151231257837e-16 1 
1 0 -41.349999999999987 -41.350000000000001 -1 0 0 0 0 -1 -0 -1 -0 
1 41.350000000000001 -41.349999999999994 -4.590772206825009e-15 -6.1629758220391569e-32 -1 5.5511151231257837e-16 -1 0 -1.1102230246251568e-16 -1.1102230246251568e-16 5.5511151231257837e-16 1 
1 -41.349999999999987 41.349999999999994 -5.0498494275075229e-14 -1 1.1102230246251568e-16 -1.232595164407832e-32 -1.1102230246251568e-16 -1 4.4408920985006262e-16 3.6977854932234928e-32 4.4408920985006262e-16 1 
1 41.349999999999987 41.349999999999994 -4.1316949861425186e-14 1 1.1102230246251568e-16 2.2204460492503136e-16 1.1102230246251558e-16 -1 4.4408920985006262e-16 -2.2204460492503141e-16 4.4408920985006262e-16 1 
1 23.349999999999994 41.349999999999994 -4.3315351305750467e-14 6.1629758220391569e-32 1 -5.5511151231257837e-16 1 0 1.1102230246251568e-16 -1.1102230246251568e-16 5.5511151231257837e-16 1 
1 -23.349999999999994 41.349999999999994 -4.8500092830749947e-14 6.1629758220391569e-32 1 -5.5511151231257837e-16 -1 0 -1.1102230246251568e-16 -1.1102230246251568e-16 5.5511151231257837e-16 1 
1 -1.8718360195180135e-14 -5.5425625842199988 3.2000000000000006 -1 5.559680859162067e-31 -1.1102230246251526e-16 1.1102230246251526e-16 0 -1 -5.559680859162067e-31 -1 -6.1724856994094766e-47 
1 -23.350000000000001 -41.349999999999994 -1.1773915176149774e-14 1 -1.1102230246251568e-16 1.232595164407832e-32 1.1102230246251568e-16 1 -4.4408920985006262e-16 3.6977854932234928e-32 4.4408920985006262e-16 1 
2 -41.350000000000023 1.0849715444226757 171.70429344751767 -1 2.2204460492503141e-16 -2.2204460492503136e-16 -2.2204460492503136e-16 -1 -2.2204460492503136e-16 -2.2204460492503136e-16 1.2325951644078312e-32 1 184.16
1 23.350000000000001 -41.349999999999994 -6.5891736511502916e-15 -1 -1.1102230246251568e-16 -2.2204460492503136e-16 -1.1102230246251558e-16 1 -4.4408920985006262e-16 -2.2204460492503141e-16 4.4408920985006262e-16 1 
1 -5.5425625842199979 3.2000000000000002 -1.9333708254822828e-14 -0.50000000000002742 0.86602540378442283 -2.4780741986961376e-16 0.86602540378442283 0.50000000000002742 4.0636983087915557e-17 1.5909636962210651e-16 -1.9428902930939939e-16 -1 
1 -5.5425625842199979 3.2000000000000002 -1.9333708254822828e-14 1 -3.3306690738754701e-16 1.110223024625157e-16 -3.3306690738754701e-16 -1 1.1102230246251564e-16 1.1102230246251565e-16 -1.1102230246251568e-16 -1 
1 2.1316282072803009e-15 6.3999999999999995 -1.9073631563060184e-14 0.50000000000002787 0.86602540378442261 -1.3678511740709197e-16 0.86602540378442261 -0.50000000000002787 1.5165928555043737e-16 6.2948235302924771e-17 -1.9428902930939939e-16 -1 
1 -5.5425625842199997 -3.1999999999999993 -1.8623165519062728e-14 0.50000000000002787 0.86602540378442261 -1.3678511740709197e-16 0.86602540378442261 -0.50000000000002787 1.5165928555043737e-16 6.2948235302924771e-17 -1.9428902930939939e-16 -1 
1 5.5425625842199979 -3.2000000000000002 -1.7392469399777339e-14 -1 3.3306690738754701e-16 -1.110223024625157e-16 3.3306690738754701e-16 1 -1.1102230246251564e-16 1.1102230246251565e-16 -1.1102230246251568e-16 -1 
1 -2.1316282072803009e-15 -6.3999999999999995 -1.7652546091539983e-14 -0.50000000000002742 0.86602540378442283 -2.4780741986961376e-16 0.86602540378442283 0.50000000000002742 4.0636983087915557e-17 1.5909636962210651e-16 -1.9428902930939939e-16 -1 
2 -41.350000000000023 1.0849715444226757 171.70429344751767 -1 2.2204460492503141e-16 -2.2204460492503136e-16 -2.2204460492503136e-16 -1 -2.2204460492503136e-16 -2.2204460492503136e-16 1.2325951644078312e-32 1 184.16
Triangulations 0

TShapes 188
Ve
1e-07
12.7 -41.35 -41.35
0 0

0101101
*
Ve
1e-07
12.7 41.35 -41.35
0 0

0101101
*
Ed
 1e-07 1 1 0
1  1 0 0 82.7
2  1 1 17 0 82.7
2  2 2 18 0 82.7
0

0101000
+188 19 -187 19 *
Ve
1e-07
12.7 -41.3499999999999 41.35
0 0

0101101
*
Ed
 1e-07 1 1 0
1  2 0 0 82.7
2  3 1 17 0 82.7
2  4 3 18 0 82.7
0

0101000
+185 19 -188 19 *
Ve
1e-07
12.7 41.35 41.35
0 0

0101101
*
Ed
 1e-07 1 1 0
1  3 0 0 82.7
2  5 1 17 0 82.7
2  6 4 18 0 82.7
0

0101000
+187 19 -183 19 *
Ed
 1e-07 1 1 0
1  4 0 0 82.7
2  7 1 17 0 82.7
2  8 5 18 0 82.7
0

0101000
+183 19 -185 19 *
Wi

0101000
-186 16 -184 16 -182 16 -181 16 *
Ve
1e-07
12.7 21.9 -12.9
0 0

0101101
*
Ed
 1e-07 1 1 0
1  5 0 0 6.28318530717959
2  9 1 22 0 6.28318530717959
2  10 6 23 0 6.28318530717959
0

0101100
+179 24 -179 24 *
Wi

0101000
+178 21 *
Ve
1e-07
12.7 -3.9 -12.9
0 0

0101101
*
Ed
 1e-07 1 1 0
1  6 0 0 6.28318530717959
2  11 1 22 0 6.28318530717959
2  12 7 23 0 6.28318530717959
0

0101100
+176 24 -176 24 *
Wi

0101000
+175 21 *
Ve
1e-07
12.7 -3.9 12.9
0 0

0101101
*
Ed
 1e-07 1 1 0
1  7 0 0 6.28318530717959
2  13 1 22 0 6.28318530717959
2  14 8 23 0 6.28318530717959
0

0101100
+173 24 -173 24 *
Wi

0101000
+172 21 *
Ve
1e-07
12.7 21.9 12.9
0 0

0101101
*
Ed
 1e-07 1 1 0
1  8 0 0 6.28318530717959
2  15 1 22 0 6.28318530717959
2  16 9 23 0 6.28318530717959
0

0101100
+170 24 -170 24 *
Wi

0101000
+169 21 *
Ve
1e-07
12.7 3.15 7.39963645912666e-15
0 0

0101101
*
Ed
 1e-07 1 1 0
1  9 0 0 6.28318530717959
2  17 1 22 0 6.28318530717959
2  18 10 23 0 6.28318530717959
0

0101100
+167 24 -167 24 *
Wi

0101000
+166 21 *
Fa
0  1e-07 1 14

0101000
+180 0 +177 0 +174 0 +171 0 +168 0 +165 0 *
Ve
1.00000010307424e-07
-2.06584749307126e-14 -41.35 -41.35
0 0

0101101
*
Ed
 1e-07 1 1 0
1  10 0 0 12.7
2  19 2 0 0 12.7
2  20 3 0 0 12.7
0

0101000
+163 27 -188 27 *
Ve
1e-07
-1.43662859386495e-14 -23.35 -41.35
0 0

0101101
*
Ed
 1e-07 1 1 0
1  11 0 0 18
2  21 2 29 0 18
2  22 11 30 0 18
0

0101000
+163 31 -161 31 *
Ve
1e-07
-3.99680288865055e-15 23.35 -41.35
0 0

0101101
*
Ed
 1e-07 1 1 0
1  12 0 18 64.7
2  23 2 29 18 64.7
2  24 12 17 18 64.7
0

0101000
+161 31 -159 31 *
Ve
1.00000025230753e-07
1.14769305170626e-14 41.35 -41.35
0 0

0101101
*
Ed
 1e-07 1 1 0
1  13 0 0 12.7
2  25 2 0 0 12.7
2  26 4 0 0 12.7
0

0101000
+157 27 -187 27 *
Ed
 1e-07 1 1 0
1  14 0 64.7 82.7
2  27 2 29 64.7 82.7
2  28 13 33 64.7 82.7
0

0101000
+159 31 -157 31 *
Wi

0101000
+162 26 -160 28 +186 32 -158 28 -156 26 -155 28 *
Fa
0  1e-07 2 26

0101000
+154 0 *
Ve
1.00000026693725e-07
-3.90215637580126e-14 -41.35 41.35
0 0

0101101
*
Ed
 1e-07 1 1 0
1  15 0 0 12.7
2  29 3 0 0 12.7
2  30 5 0 0 12.7
0

0101000
+152 27 -185 27 *
Ed
 1e-07 1 1 0
1  16 0 0 82.7
2  31 3 29 0 82.7
2  32 14 30 0 82.7
0

0101000
+152 31 -163 31 *
Wi

0101000
+151 35 -150 36 +184 37 -162 35 *
Fa
0  1e-07 3 35

0101000
+149 0 *
Ve
1.00000030674319e-07
-6.88615831023758e-15 41.35 41.35
0 0

0101101
*
Ed
 1e-07 1 1 0
1  17 0 0 82.7
2  33 4 29 0 82.7
2  34 15 33 0 82.7
0

0101000
+157 31 -147 31 *
Ed
 1e-07 1 1 0
1  18 0 0 12.7
2  35 4 0 0 12.7
2  36 5 0 0 12.7
0

0101000
+147 27 -183 27 *
Wi

0101000
+156 26 -146 28 +182 32 -145 26 *
Fa
0  1e-07 4 26

0101000
+144 0 *
Ve
1e-07
-4.07229805432507e-14 23.35 41.35
0 0

0101101
*
Ed
 1e-07 1 1 0
1  19 0 0 18
2  37 5 29 0 18
2  38 16 33 0 18
0

0101000
+147 31 -142 31 *
Ve
1e-07
-5.10924635932496e-14 -23.35 41.35
0 0

0101101
*
Ed
 1e-07 1 1 0
1  20 0 18 64.7
2  39 5 29 18 64.7
2  40 12 17 18 64.7
0

0101000
+142 31 -140 31 *
Ed
 1e-07 1 1 0
1  21 0 64.7 82.7
2  41 5 29 64.7 82.7
2  42 17 30 64.7 82.7
0

0101000
+140 31 -152 31 *
Wi

0101000
+145 26 -141 28 +181 32 -139 28 -151 26 -138 28 *
Fa
0  1e-07 5 26

0101000
+137 0 *
Ve
2.00001e-07
-6.91668944341473e-15 21.9 -12.9
0 0

0101101
*
Ed
 1e-07 1 1 0
1  22 0 0 12.7
3  43 44CN 6 0 0 12.7
0

0101000
+179 41 -135 41 *
Ve
1e-07
-8.91509088774005e-15 12.9 -21.9
0 0

0101101
*
Ed
 1e-07 1 1 0
1  23 0 0 1.5707963267949
2  45 6 0 0 1.5707963267949
2  46 12 42 0 1.5707963267949
0

0101000
+133 41 -135 41 *
Ed
 1e-07 1 1 0
1  24 0 1.5707963267949 6.28318530717959
2  47 6 0 1.5707963267949 6.28318530717959
2  48 12 42 1.5707963267949 6.28318530717959
0

0101000
+135 41 -133 41 *
Wi

0101000
-178 40 -134 39 +132 39 +131 39 +134 39 *
Fa
0  1e-07 6 39

0101000
+130 0 *
Ve
2.00001e-07
-1.55098156540134e-14 -3.9 -12.9
0 0

0101101
*
Ed
 1e-07 1 1 0
1  25 0 0 12.7
3  49 50CN 7 0 0 12.7
0

0101000
+176 41 -128 41 *
Ve
1e-07
-1.75082170983387e-14 -12.9 -21.9
0 0

0101101
*
Ed
 1e-07 1 1 0
1  26 0 0 1.5707963267949
2  51 7 0 0 1.5707963267949
2  52 12 42 0 1.5707963267949
0

0101000
+126 41 -128 41 *
Ed
 1e-07 1 1 0
1  27 0 1.5707963267949 6.28318530717959
2  53 7 0 1.5707963267949 6.28318530717959
2  54 12 42 1.5707963267949 6.28318530717959
0

0101000
+128 41 -126 41 *
Wi

0101000
-175 40 -127 39 +125 39 +124 39 +127 39 *
Fa
0  1e-07 7 39

0101000
+123 0 *
Ve
2.00001e-07
-2.26152430116144e-14 -3.9 12.9
0 0

0101101
*
Ed
 1e-07 1 1 0
1  28 0 0 12.7
3  55 56CN 8 0 0 12.7
0

0101000
+173 41 -121 41 *
Ve
1e-07
-2.46136444559398e-14 -12.9 3.9
0 0

0101101
*
Ed
 1e-07 1 1 0
1  29 0 0 1.5707963267949
2  57 8 0 0 1.5707963267949
2  58 12 42 0 1.5707963267949
0

0101000
+119 41 -121 41 *
Ed
 1e-07 1 1 0
1  30 0 1.5707963267949 6.28318530717959
2  59 8 0 1.5707963267949 6.28318530717959
2  60 12 42 1.5707963267949 6.28318530717959
0

0101000
+121 41 -119 41 *
Wi

0101000
-172 40 -120 39 +118 39 +117 39 +120 39 *
Fa
0  1e-07 8 39

0101000
+116 0 *
Ve
2.00001e-07
-1.40221168010157e-14 21.9 12.9
0 0

0101101
*
Ed
 1e-07 1 1 0
1  31 0 0 12.7
3  61 62CN 9 0 0 12.7
0

0101000
+170 41 -114 41 *
Ve
1e-07
-1.6020518245341e-14 12.9 3.9
0 0

0101101
*
Ed
 1e-07 1 1 0
1  32 0 0 1.5707963267949
2  63 9 0 0 1.5707963267949
2  64 12 42 0 1.5707963267949
0

0101000
+112 41 -114 41 *
Ed
 1e-07 1 1 0
1  33 0 1.5707963267949 6.28318530717959
2  65 9 0 1.5707963267949 6.28318530717959
2  66 12 42 1.5707963267949 6.28318530717959
0

0101000
+114 41 -112 41 *
Wi

0101000
-169 40 -113 39 +111 39 +110 39 +113 39 *
Fa
0  1e-07 9 39

0101000
+109 0 *
Ve
2.00001e-07
9.99999999999998 3.15 5.90083537588269e-15
0 0

0101101
*
Ed
 1e-07 1 1 0
1  34 0 0 2.7
3  67 68CN 10 0 0 2.7
0

0101000
+167 41 -107 41 *
Ve
1e-07
9.99999999999998 -1.77072820562547e-15 -3.15
0 0

0101101
*
Ed
 1e-07 1 1 0
1  35 0 0 1.5707963267949
2  69 10 39 0 1.5707963267949
2  70 18 44 0 1.5707963267949
0

0101000
+105 45 -107 45 *
Ed
 1e-07 1 1 0
1  36 0 1.5707963267949 6.28318530717959
2  71 10 39 1.5707963267949 6.28318530717959
2  72 18 44 1.5707963267949 6.28318530717959
0

0101000
+107 45 -105 45 *
Wi

0101000
+106 39 -166 40 -106 39 +104 0 +103 0 *
Fa
0  1e-07 10 39

0101000
+102 0 *
Ve
1.00000056843419e-07
-7.50000000000001 -23.35 -41.35
0 0

0101101
*
Ed
 1e-07 1 1 0
1  37 0 0 7.49999999999999
2  73 11 0 0 7.49999999999999
2  74 19 0 0 7.49999999999999
0

0101000
+161 47 -100 47 *
Ve
1.00000042632564e-07
-7.50000000000001 -41.35 -41.35
0 0

0101101
*
Ed
 1.00000042632564e-07 1 1 0
1  38 0 0 18
2  75 11 34 0 18
2  76 20 0 0 18
0

0101000
+98 48 -100 48 *
Ed
 1e-07 1 1 0
1  39 0 0 7.49999999999999
2  77 11 0 0 7.49999999999999
2  78 14 0 0 7.49999999999999
0

0101000
+163 47 -98 47 *
Wi

0101000
-160 46 -99 34 +97 0 +96 34 *
Fa
0  1e-07 11 34

0101000
+95 0 *
Ed
 1e-07 1 1 0
1  40 0 0 82.7
2  79 12 52 0 82.7
2  80 21 53 0 82.7
0

0101000
+159 54 -142 54 *
Ed
 1e-07 1 1 0
1  41 0 0 82.7
2  81 12 56 0 82.7
2  82 19 53 0 82.7
0

0101000
+161 57 -140 57 *
Wi

0101000
-158 28 -93 51 -139 28 +92 55 *
Wi

0101000
+132 58 +131 58 *
Wi

0101000
+125 58 +124 58 *
Wi

0101000
+118 58 +117 58 *
Wi

0101000
+111 58 +110 58 *
Ve
1e-07
-2.05644043741082e-14 -5.54256258422 3.2
0 0

0101101
*
Ve
1e-07
-1.90736315630602e-14 3.5527136788005e-15 6.4
0 0

0101101
*
Ed
 1e-07 1 1 0
1  42 0 0 6.39999999999965
2  83 12 61 0 6.39999999999965
2  84 22 62 0 6.39999999999965
0

0101000
+86 63 -85 63 *
Ve
1e-07
-1.98538616383481e-14 -5.54256258422 -3.2
0 0

0101101
*
Ed
 1e-07 1 1 0
1  43 0 0 6.4
2  85 12 61 0 6.4
2  86 23 62 0 6.4
0

0101000
+86 63 -83 63 *
Ve
1e-07
-1.6872316016252e-14 5.54256258422 3.2
0 0

0101101
*
Ed
 1e-07 1 1 0
1  44 0 0 6.39999999999965
2  87 12 61 0 6.39999999999965
2  88 24 62 0 6.39999999999965
0

0101000
+85 63 -81 63 *
Ve
1e-07
-1.765254609154e-14 -3.5527136788005e-15 -6.4
0 0

0101101
*
Ed
 1e-07 1 1 0
1  45 0 0 6.39999999999965
2  89 12 61 0 6.39999999999965
2  90 25 62 0 6.39999999999965
0

0101000
+83 63 -79 63 *
Ve
1e-07
-1.61617732804919e-14 5.54256258422 -3.2
0 0

0101101
*
Ed
 1e-07 1 1 0
1  46 0 0 6.4
2  91 12 61 0 6.4
2  92 26 62 0 6.4
0

0101000
+77 63 -81 63 *
Ed
 1e-07 1 1 0
1  47 0 0 6.39999999999965
2  93 12 61 0 6.39999999999965
2  94 27 62 0 6.39999999999965
0

0101000
+79 63 -77 63 *
Wi

0101000
-84 60 +82 60 -80 60 +78 60 +76 60 +75 60 *
Fa
0  1e-07 12 49

0101000
+91 0 +90 0 +89 0 +88 0 +87 0 +74 0 *
Ve
1.00000060396133e-07
-7.5 23.35 -41.35
0 0

0101101
*
Ed
 1e-07 1 1 0
1  48 0 0 7.49999999999999
2  95 13 0 0 7.49999999999999
2  96 21 0 0 7.49999999999999
0

0101000
+159 64 -72 64 *
Ve
1.00000060747921e-07
-7.49999999999999 41.35 -41.35
0 0

0101101
*
Ed
 1.00000042632564e-07 1 1 0
1  49 0 64.7 82.7
2  97 13 25 64.7 82.7
2  98 28 0 64.7 82.7
0

0101000
+72 48 -70 48 *
Ed
 1e-07 1 1 0
1  50 0 0 7.49999999999999
2  99 13 0 0 7.49999999999999
2  100 15 0 0 7.49999999999999
0

0101000
+157 64 -70 64 *
Wi

0101000
+155 46 -71 25 -69 0 +68 25 *
Fa
0  1e-07 13 25

0101000
+67 0 *
Ve
1.00000025618983e-07
-7.99999999999998 -41.35 41.35
0 0

0101101
*
Ed
 1e-07 1 1 0
1  51 0 4.49196685644754 4.94490285541938
2  101 14 67 4.49196685644754 4.94490285541938
2  102 20 68 4.49196685644754 4.94490285541938
0

0101000
+65 69 -98 69 *
Ed
 1e-07 1 1 0
1  52 0 0 7.99999999999993
2  103 14 0 0 7.99999999999993
2  104 17 0 0 7.99999999999993
0

0101000
+152 47 -65 47 *
Wi

0101000
-150 46 -96 34 +64 66 +63 34 *
Fa
0  1e-07 14 34

0101000
+62 0 *
Ve
1.00000039829837e-07
-7.99999999999996 41.35 41.35
0 0

0101101
*
Ed
 1e-07 1 1 0
1  53 0 4.49196685644754 4.94490285541938
2  105 15 25 4.49196685644754 4.94490285541938
2  106 28 0 4.49196685644754 4.94490285541938
0

0101000
+60 48 -70 48 *
Ed
 1e-07 1 1 0
1  54 0 0 7.99999999999993
2  107 15 0 0 7.99999999999993
2  108 16 0 0 7.99999999999993
0

0101000
+147 64 -60 64 *
Wi

0101000
+146 46 -68 25 +59 0 +58 25 *
Fa
0  1e-07 15 25

0101000
+57 0 *
Ve
1.00000040267196e-07
-7.99999999999997 23.35 41.35
0 0

0101101
*
Ed
 1.00000025618983e-07 1 1 0
1  55 0 64.7 82.7
2  109 16 25 64.7 82.7
2  110 28 0 64.7 82.7
0

0101000
+55 48 -60 48 *
Ed
 1e-07 1 1 0
1  56 0 0 7.99999999999993
2  111 16 0 0 7.99999999999993
2  112 21 0 0 7.99999999999993
0

0101000
+142 64 -55 64 *
Wi

0101000
+141 46 -58 25 +54 0 +53 25 *
Fa
0  1e-07 16 25

0101000
+52 0 *
Ve
1.00000043382551e-07
-7.99999999999998 -23.35 41.35
0 0

0101101
*
Ed
 1.00000025618983e-07 1 1 0
1  57 0 0 18
2  113 17 34 0 18
2  114 20 0 0 18
0

0101000
+65 48 -50 48 *
Ed
 1e-07 1 1 0
1  58 0 0 7.99999999999993
2  115 17 0 0 7.99999999999993
2  116 19 0 0 7.99999999999993
0

0101000
+140 47 -50 47 *
Wi

0101000
-138 46 -63 34 -49 0 +48 34 *
Fa
0  1e-07 17 34

0101000
+47 0 *
Wi

0101000
+104 0 +103 0 *
Ve
1e-07
9.99999999999998 -5.54256258422 3.2
0 0

0101101
*
Ve
1e-07
9.99999999999998 -5.54256258422 -3.2
0 0

0101101
*
Ed
 1e-07 1 1 0
1  59 0 0 6.4
2  117 18 71 0 6.4
2  118 23 72 0 6.4
0

0101000
+44 73 -43 73 *
Ve
1e-07
9.99999999999998 2.44249065417534e-15 6.4
0 0

0101101
*
Ed
 1e-07 1 1 0
1  60 0 0 6.39999999999965
2  119 18 71 0 6.39999999999965
2  120 22 72 0 6.39999999999965
0

0101000
+44 73 -41 73 *
Ve
1e-07
9.99999999999998 -4.66293670342566e-15 -6.4
0 0

0101101
*
Ed
 1e-07 1 1 0
1  61 0 0 6.39999999999965
2  121 18 71 0 6.39999999999965
2  122 25 72 0 6.39999999999965
0

0101000
+43 73 -39 73 *
Ve
1e-07
9.99999999999998 5.54256258422 3.2
0 0

0101101
*
Ed
 1e-07 1 1 0
1  62 0 0 6.39999999999965
2  123 18 71 0 6.39999999999965
2  124 24 72 0 6.39999999999965
0

0101000
+41 73 -37 73 *
Ve
1e-07
9.99999999999998 5.54256258422 -3.2
0 0

0101101
*
Ed
 1e-07 1 1 0
1  63 0 0 6.39999999999965
2  125 18 71 0 6.39999999999965
2  126 27 72 0 6.39999999999965
0

0101000
+39 73 -35 73 *
Ed
 1e-07 1 1 0
1  64 0 0 6.4
2  127 18 71 0 6.4
2  128 26 72 0 6.4
0

0101000
+35 73 -37 73 *
Wi

0101000
-42 70 +40 70 -38 70 +36 70 -34 70 -33 70 *
Fa
0  1e-07 18 44

0101000
+45 0 +32 0 *
Ed
 1e-07 1 1 0
1  65 0 4.49196685644754 4.94490285541938
2  129 19 34 4.49196685644754 4.94490285541938
2  130 20 0 4.49196685644754 4.94490285541938
0

0101000
+50 48 -100 48 *
Wi

0101000
-92 74 -48 34 -30 0 +99 34 *
Fa
0  1e-07 19 34

0101000
+29 0 *
Wi

0101000
-64 66 -97 0 +30 0 +49 0 *
Fa
0  1e-07 20 0

0101000
+27 0 *
Ed
 1e-07 1 1 0
1  66 0 4.49196685644754 4.94490285541938
2  131 21 25 4.49196685644754 4.94490285541938
2  132 28 0 4.49196685644754 4.94490285541938
0

0101000
+55 48 -72 48 *
Wi

0101000
-93 75 -53 25 -25 0 +71 25 *
Fa
0  1e-07 21 25

0101000
+24 0 *
Ed
 1e-07 1 1 0
1  67 0 0 10
2  133 22 0 0 10
2  134 23 0 0 10
0

0101000
+86 45 -44 45 *
Ed
 1e-07 1 1 0
1  68 0 0 10
2  135 22 0 0 10
2  136 24 0 0 10
0

0101000
+85 45 -41 45 *
Wi

0101000
+22 0 -84 76 +40 70 -21 0 *
Fa
0  1e-07 22 0

0101000
+20 0 *
Ed
 1e-07 1 1 0
1  69 0 0 10
2  137 23 0 0 10
2  138 25 0 0 10
0

0101000
+83 45 -43 45 *
Wi

0101000
+22 0 -82 76 +42 70 -18 0 *
Fa
0  1e-07 23 0

0101000
+17 0 *
Ed
 1e-07 1 1 0
1  70 0 0 10
2  139 24 0 0 10
2  140 26 0 0 10
0

0101000
+81 45 -37 45 *
Wi

0101000
+21 0 -80 76 +36 70 -15 0 *
Fa
0  1e-07 24 0

0101000
+14 0 *
Ed
 1e-07 1 1 0
1  71 0 0 10
2  141 25 0 0 10
2  142 27 0 0 10
0

0101000
+79 45 -39 45 *
Wi

0101000
+18 0 -78 76 +38 70 -12 0 *
Fa
0  1e-07 25 0

0101000
+11 0 *
Ed
 1e-07 1 1 0
1  72 0 0 10
2  143 26 0 0 10
2  144 27 0 0 10
0

0101000
+77 45 -35 45 *
Wi

0101000
+9 0 -76 76 +33 70 -15 0 *
Fa
0  1e-07 26 0

0101000
+8 0 *
Wi

0101000
+12 0 -75 76 +34 70 -9 0 *
Fa
0  1e-07 27 0

0101000
+6 0 *
Wi

0101000
-25 0 -69 0 +59 0 +54 0 *
Fa
0  1e-07 28 0

0101000
+4 0 *
Sh

0101100
-164 9 -153 25 -148 34 -143 25 -136 25 -129 38 -122 38 -115 38 -108 38 -101 38 
+94 0 +73 25 -66 0 +61 0 -56 0 -51 0 +46 0 +31 38 +28 0 +26 0 
-23 0 -19 38 +16 38 -13 38 +10 38 +7 38 +5 38 +3 0 *
So

0100000
+2 0 *

+1 1 