DBRep_DrawableShape

CASCADE Topology V1, (c) Matra-Datavision
Locations 9
1
              1               0               0           18500 
              0               1               0               0 
              0               0               1               0 
2  1 -1 0
1
              0               0              -1              -0 
             -1               0               0              -0 
              0               1               0               0 
2  3 -1 0
2  1 -1 3 -1 0
1
              1               0               0          -18500 
              0               1               0               0 
              0               0               1               0 
2  3 1 6 1 0
2  6 -1 3 -1 0
2  1 -1 6 -1 3 -1 0
Curve2ds 18
1 0 0 0 -1 
1 0 0 0 -1 
1 9000 0 0 -1 
1 0 0 0 -1 
1 0 0 1 0 
1 0 -0 0 -1 
1 0 -18500 1 0 
1 0 -0 0 -1 
1 4658.7423277536227 0 0 -1 
1 4658.7423277536245 0 0 -1 
1 0 0 1 0 
1 0 -9000 -0.25881867051728752 0.96592592665880128 
1 0 -18500 1 0 
1 0 -9000 -0.25881867051728752 0.96592592665880128 
1 0 0 1 0 
1 0 -0 -0.25881867051728752 -0.96592592665880128 
1 0 -18500 1 0 
1 0 -0 -0.25881867051728752 -0.96592592665880128 
Curves 9
1 0 -599.99999999999955 2400 -1 0 0 
1 0 8400 2400 -1 0 0 
1 599.99999999999955 2400 0 -1 0 0 
1 599.99999999999955 2400 0 -1 0 0 
1 0 3900.0000000000009 3605.7694955518059 -1 0 0 
1 -8400 2400 0 0.96592592665880128 0.25881867051728752 0 
1 -8400 2400 0 0.96592592665880128 0.25881867051728752 0 
1 599.99999999999955 2400 0 -0.96592592665880128 0.25881867051728746 0 
1 599.99999999999955 2400 0 -0.96592592665880128 0.25881867051728746 0 
Polygon3D 0
PolygonOnTriangulations 0
Surfaces 5
1 0 -599.99999999999955 2400 0 0 -1 0 1 0 1 -0 0 
1 0 -599.99999999999955 2400 0 0.25881867051728746 -0.96592592665880128 0 0.96592592665880128 0.25881867051728746 1 -0 0 
1 0 8400 2400 0 0.25881867051728752 0.96592592665880128 0 -0.96592592665880128 0.25881867051728752 1 0 -0 
1 0 -599.99999999999955 2400 -1 0 0 0 0 -1 -0 -1 -0 
1 0 -599.99999999999955 2400 -1 0 0 0 0 -1 -0 -1 -0 
Triangulations 0

TShapes 27
Ve
1e-07
18500 -600 2400
0 0

0101101
*
Ve
1e-07
0 -600 2400
0 0

0101101
*
Ed
 1e-07 1 1 0
1  1 0 0 18500
2  1 1 0 0 18500
2  2 2 0 0 18500
0

0101000
+27 2 -26 2 *
Ve
1e-07
18500 8400 2400
0 0

0101101
*
Ve
1e-07
0 8400 2400
0 0

0101101
*
Ed
 1e-07 1 1 0
1  2 0 0 18500
2  3 1 0 0 18500
2  4 3 0 0 18500
0

0101000
+24 2 -23 2 *
Ed
 1e-07 1 1 0
1  3 0 0 9000
2  5 1 4 0 9000
2  6 4 4 0 9000
0

0101000
+27 5 -24 5 *
Ed
 1e-07 1 1 0
1  4 0 0 9000
2  7 1 8 0 9000
2  8 5 4 0 9000
0

0101000
+26 9 -23 9 *
Wi

0101000
+25 0 -22 0 -21 3 +20 7 *
Fa
0  1e-07 1 0

0101000
+19 0 *
Ve
1.00000227373675e-07
18500 3900 3605.76949555181
0 0

0101101
*
Ve
1.00000227373675e-07
0 3900 3605.76949555181
0 0

0101101
*
Ed
 1.00000227373675e-07 1 1 0
1  5 0 0 18500
2  9 3 0 0 18500
2  10 2 0 0 18500
0

0101000
+17 2 -16 2 *
Ed
 1e-07 1 1 0
1  6 0 0 4658.74232775362
2  11 3 4 0 4658.74232775362
2  12 4 4 0 4658.74232775362
0

0101000
+24 5 -17 5 *
Ed
 1e-07 1 1 0
1  7 0 0 4658.74232775362
2  13 3 8 0 4658.74232775362
2  14 5 4 0 4658.74232775362
0

0101000
+23 9 -16 9 *
Wi

0101000
+22 0 -15 0 -14 3 +13 7 *
Fa
0  1e-07 3 0

0101000
+12 0 *
Ed
 1e-07 1 1 0
1  8 0 0 4658.74232775362
2  15 2 4 0 4658.74232775362
2  16 4 4 0 4658.74232775362
0

0101000
+27 5 -17 5 *
Ed
 1e-07 1 1 0
1  9 0 0 4658.74232775362
2  17 2 8 0 4658.74232775362
2  18 5 4 0 4658.74232775362
0

0101000
+26 9 -16 9 *
Wi

0101000
+25 0 -15 0 -10 3 +9 7 *
Fa
0  1e-07 2 0

0101000
+8 0 *
Wi

0101100
+21 0 +14 0 -10 0 *
Fa
0  1e-07 4 0

0101000
-6 3 *
Wi

0101100
+20 0 +13 0 -9 0 *
Fa
0  1e-07 5 0

0101000
-4 3 *
Sh

0101000
-18 0 -11 0 +7 0 +5 0 -3 6 *
So

1100000
-2 0 *

+1 1 