DBRep_DrawableShape

CASCADE Topology V1, (c) Matra-Datavision
Locations 5
1
              1               0               0            5150 
              0               1               0            5324 
              0               0               1               0 
2  1 -1 0
1
              1               0               0               0 
              0               1               0               0 
              0               0               1               0 
2  3 -1 0
2  1 -1 3 -1 0
Curve2ds 14
1 0 0 1 0 
1 0 40 1 0 
2 0 0 -1 0 0 1 10
1 6.2831853071795862 0 0 1 
1 0 0 0 1 
2 0 0 -1 0 0 1 28.805854981054381
1 0 5.323000048928086 1 0 
1 0 7.2433705654310865 1 0 
1 0 2.5309800625537631 1 0 
1 6.2831853071795862 4.7123889803846915 0 1 
1 0 4.7123889803846915 0 1 
1 0 3.2604351477699134 1 0 
1 6.2831853071795862 0 0 1 
1 0 0 0 1 
Curves 7
2 760 -20 930 0 1 0 0 -0 1 1 0 -0 10
2 760 20 930 0 1 0 0 -0 1 1 0 -0 10
1 760 -20 940 -0 1 -0 
2 760 20.000000000017721 930 0 1 0 0 -0 1 1 0 -0 28.805854981054381
2 760 37.770788930908466 930 0 1 0 0 -0 1 1 0 -0 28.805854981053926
2 760 28.885394465469403 952.5875998663463 -1 0 0 -0 -1 -0 0 -0 1 10.845134
2 760 3.6626183576617279 934.93589688950294 -1 0 0 -0 -1 -0 0 -0 1 41.631024478703665
Polygon3D 0
PolygonOnTriangulations 0
Surfaces 4
2 760 -20 930 0 1 0 0 -0 1 1 0 -0 10
1 760 20 930 0 1 0 -0 0 -1 1 -0 -0 
5 760 28.885394465469403 930 0 1 0 0 -0 1 1 0 -0 22.587599866346295 10.845134
7 760 -20 930 0 1 0 
8 2.5309800625537631 3.2604351477699134
2 760 3.6626183576617279 934.93589688950294 -1 0 0 -0 -1 -0 0 -0 1 41.631024478703665
Triangulations 0

TShapes 23
Ve
1e-07
5910 5304 940
0 0

0101101
*
Ed
 1e-07 1 1 0
1  1 0 0 6.28318530717959
2  1 1 0 0 6.28318530717959
0

0101100
+23 2 -23 2 *
Ve
1e-07
5910 5344 940
0 0

0101101
*
Ed
 1e-07 1 1 0
1  2 0 0 6.28318530717959
2  2 1 0 0 6.28318530717959
2  3 2 0 0 6.28318530717959
0

0101100
+21 2 -21 2 *
Ed
 1e-07 1 1 0
1  3 0 0 40
3  4 5CN 1 4 0 40
0

0101000
+23 5 -21 5 *
Wi

0101000
+22 0 -20 0 -19 3 +19 3 *
Fa
0  1e-07 1 0

0101000
+18 0 *
Wi

0101000
+20 0 *
Ve
1.00017724488544e-07
5910 5344.00000000002 958.805854981054
0 0

0101101
*
Ed
 1.00017724488544e-07 1 1 0
1  4 0 0 6.28318530717959
2  6 2 0 0 6.28318530717959
2  7 3 0 0 6.28318530717959
0

0101100
+15 2 -15 2 *
Wi

0101000
-14 0 *
Fa
0  1e-07 2 0

0101000
+16 0 +13 0 *
Ve
1.00005117190461e-07
5910 5361.77078893091 958.805854981054
0 0

0101101
*
Ed
 1.00005117190461e-07 1 1 0
1  5 0 0 6.28318530717959
2  8 3 0 0 6.28318530717959
2  9 4 0 0 6.28318530717959
4 G1 3 0 4 0
0

0101100
+11 2 -11 2 *
Ed
 1e-07 1 1 0
1  6 0 0.610611068543395 2.5309815850464
3  10 11CN 3 4 0.610611068543395 2.5309815850464
0

0101000
+15 5 -11 5 *
Wi

0101000
+14 0 -10 0 -9 3 +9 3 *
Fa
0  1e-07 3 0

0101000
+8 0 *
Ve
1e-07
5910 5368.99999999998 929.999999999998
0 0

0101101
*
Ed
 1e-07 1 1 1
2  12 4 0 0 6.28318530717959
0

0101100
+6 2 -6 2 *
Ed
 1e-07 1 1 0
1  7 0 2.53098006255376 3.26043514776991
3  13 14CN 4 4 2.53098006255376 3.26043514776991
0

0101000
+11 5 -6 5 *
Wi

0101000
+10 0 -5 0 -4 3 +4 3 *
Fa
0  1e-07 4 0

0101000
+3 0 *
Sh

1101000
+17 0 +12 0 +7 0 +2 0 *

+1 1 