DBRep_DrawableShape

CASCADE Topology V1, (c) Matra-Datavision
Locations 10
1
-2.22044604925031e-16 -1.11022302462516e-16               1              60 
              1 -2.22044604925031e-16 1.11022302462516e-16              -0 
1.11022302462516e-16               1               0 6.66133814775094e-15 
1
              0 1.11022302462516e-16               1               0 
              1               0 1.11022302462516e-16               0 
1.11022302462516e-16               1               0               0 
2  1 1 2 -1 0
2  2 1 1 -1 0
2  1 -1 0
1
              1               0               0 -5.95634652711397e-15 
              0               1               0 -1.19126930542279e-14 
              0               0               1          -53.65 
2  1 1 2 -1 6 1 0
2  6 -1 2 1 1 -1 0
2  2 -1 0
2  2 -1 6 1 0
Curve2ds 6
1 0 0 0 -1 
1 6.2831853071795862 0 0 -1 
1 0 0 1 0 
2 35.499999999999993 -7.8825834748386067e-15 -1 2.2204460492503128e-16 2.2204460492503128e-16 1 35.5
1 0 -53.649999999999999 1 0 
2 35.499999999999993 -7.8825834748386067e-15 -1 2.2204460492503128e-16 2.2204460492503128e-16 1 35.5
Curves 3
1 35.499999999999993 1.7263968032921184e-14 60 -1.1102230246251568e-16 -2.2204460492503136e-16 -1 
2 -0 -0 0 0 0 1 1 0 -0 -0 1 0 35.5
2 -0 -0 0 0 0 1 1 0 -0 -0 1 0 35.5
Polygon3D 0
PolygonOnTriangulations 0
Surfaces 3
2 7.3955709864469883e-31 1.3322676295501882e-14 60 1.1102230246251563e-16 1.1102230246251568e-16 1 1 1.1102230246251563e-16 -1.1102230246251564e-16 -1.1102230246251564e-16 1 -1.1102230246251568e-16 35.5
1 60 35.5 1.0602629885170248e-14 -1 -2.0015288331270426e-16 -1.1555832105966956e-16 2.0015288331270426e-16 -1 0 -1.1555832105966956e-16 -2.3129331150868058e-32 1 
1 60 35.5 1.0602629885170248e-14 -1 -2.0015288331270426e-16 -1.1555832105966956e-16 2.0015288331270426e-16 -1 0 -1.1555832105966956e-16 -2.3129331150868058e-32 1 
Triangulations 0

TShapes 13
Ve
1e-07
35.5 1.72639680329212e-14 60
0 0

0101101
*
Ve
1e-07
35.5 5.35127497869325e-15 6.35
0 0

0101101
*
Ed
 1e-07 1 1 0
1  1 0 0 53.65
3  1 2CN 1 0 0 53.65
0

0101000
+13 0 -12 0 *
Ed
 1e-07 1 1 0
1  2 0 0 6.28318530717959
2  3 1 4 0 6.28318530717959
2  4 2 5 0 6.28318530717959
0

0101100
+13 4 -13 4 *
Ed
 1e-07 1 1 0
1  3 0 0 6.28318530717959
2  5 1 8 0 6.28318530717959
2  6 3 5 0 6.28318530717959
0

0101100
+12 8 -12 8 *
Wi

0101000
+11 0 -11 0 -10 3 +9 7 *
Fa
0  1e-07 1 0

0101000
+8 0 *
Wi

0101100
+10 0 *
Fa
0  1e-07 2 0

0101000
-6 1 *
Wi

0101100
+9 0 *
Fa
0  1e-07 3 0

0101000
-4 1 *
Sh

0101000
-7 0 +5 9 -3 10 *
So

1100000
-2 0 *

+1 0 