DBRep_DrawableShape

CASCADE Topology V1, (c) Matra-Datavision
Locations 22
1
              1               0               0               0 
              0               1               0               0 
              0               0               1               0 
1
              1               0               0               0 
              0               1               0               0 
              0               0               1              12 
2  1 -1 2 -1 0
1
              0              -1               0             610 
             -1              -0 -2.22044604925031e-16             210 
2.22044604925031e-16               0              -1             -15 
2  4 -1 0
2  1 -1 2 -1 4 -1 0
1
              0              -1               0             610 
             -1              -0 -2.22044604925031e-16             210 
2.22044604925031e-16               0              -1            -147 
2  7 -1 0
2  1 -1 2 -1 7 -1 0
2  4 1 2 1 0
2  7 1 2 1 0
1
              0              -1               0             610 
             -1              -0 -2.22044604925031e-16             210 
2.22044604925031e-16               0              -1             -15 
1
              1               0               0               0 
              0               1               0               0 
              0               0               1              12 
2  12 1 13 1 0
2  2 1 13 -1 12 -1 0
2  12 -1 0
2  1 -1 13 -1 12 -1 0
2  1 -1 13 -1 0
1
              0              -1               0             610 
             -1              -0 -2.22044604925031e-16             210 
2.22044604925031e-16               0              -1            -147 
2  19 1 13 1 0
2  19 -1 0
2  1 -1 13 -1 19 -1 0
Curve2ds 96
7 0 0  1 2 2  -85.000000000000057 -68.236720319780915  -65.000000000000057 68.236720319780915 
 0 2 132 2
8 0 132
1 8 0 0 1 
7 0 0  9 10 2  -85.000000000000057 -68.236720319780915  -66.111111111111143 -68.236720319780915  -47.222222222222285 -68.236720319780915  -28.3333333333334 -68.236720319780915  -9.4444444444445139 -68.236720319780915  9.4444444444444002 -68.236720319780915  28.333333333333258 -68.236720319780915  47.222222222222172 -68.236720319780915  66.111111111111057 -68.236720319780915  84.999999999999886 -68.236720319780915 
 0 10 1 10
7 0 0  9 10 2  0 0  0 -18.888888888888914  0 -37.777777777777771  0 -56.666666666666657  0 -75.555555555555543  0 -94.444444444444457  0 -113.33333333333331  0 -132.22222222222223  0 -151.11111111111111  0 -169.99999999999994 
 0 10 1 10
7 0 0  1 2 2  84.999999999999901 -68.236720319780915  64.999999999999915 68.236720319780915 
 0 2 132 2
8 0 132
1 1 0 0 1 
7 0 0  9 10 2  -65.000000000000057 68.236720319780915  -50.5555555555556 68.236720319780915  -36.111111111111171 68.236720319780915  -21.666666666666714 68.236720319780915  -7.2222222222222854 68.236720319780915  7.2222222222221717 68.236720319780915  21.6666666666666 68.236720319780915  36.111111111111057 68.236720319780915  50.555555555555486 68.236720319780915  64.999999999999915 68.236720319780915 
 0 10 1 10
7 0 0  9 10 2  -64.999999999999943 180.00000000000011  -50.555555555555486 180.00000000000011  -36.111111111111057 180.00000000000011  -21.6666666666666 180.00000000000011  -7.2222222222221717 180.00000000000011  7.2222222222222854 180.00000000000011  21.666666666666714 180.00000000000011  36.111111111111171 180.00000000000011  50.5555555555556 180.00000000000011  65.000000000000028 180.00000000000011 
 0 10 1 10
8 0 132
1 7 0 0 1 
7 0 0  1 2 2  -64.527508867654248 -124.99999999999994  71.945931771907567 -104.99999999999994 
 0 2 132 2
8 7 8
1 0 0 1 0 
7 0 0  9 10 2  -75 75.000000000000057  -61.910030610042895 74.999999999999432  -48.820061032502792 72.429790728335206  -36.306846512935635 67.289370386838755  -24.947134133925488 59.729740455791386  -15.270259544198325 50.052865866082584  -7.7106296131687486 38.693153487061409  -2.5702092716618949 26.179938967496923  -1.0800249583553523e-12 13.089969389957673  0 0 
 7 10 8 10
8 7 8
1 0 132 1 0 
7 0 0  9 10 2  -139.99999999999994 105.00000000000011  -139.99999999999847 118.08996938995716  -137.42979072833845 131.17993896749812  -132.28937038683154 143.69315348706186  -124.72974045580105 155.05286586607986  -115.05286586607355 164.72974045579519  -103.69315348706698 172.28937038683671  -91.179938967494593 177.42979072833521  -78.089969389958185 180  -64.999999999999943 180.00000000000011 
 7 10 8 10
7 0 0  9 10 2  0 -169.99999999999994  -2.0463630789890885e-12 -183.0899693899562  -2.5702092716592233 -196.17993896750136  -7.7106296131740919 -208.69315348705354  -15.27025954418832 -220.05286586609199  -24.947134133938789 -229.72974045578383  -36.30684651292313 -237.28937038684333  -48.82006103251058 -242.42979072833282  -61.910030610040167 -245.00000000000023  -75 -244.99999999999986 
 1 10 2 10
8 1 2
1 0 0 1 0 
7 0 0  9 10 2  -325 75  -297.22222222222217 75  -269.44444444444446 75  -241.66666666666663 75  -213.88888888888891 75  -186.11111111111109 75  -158.33333333333337 75  -130.55555555555554 75  -102.77777777777783 75  -75 75.000000000000057 
 6 10 7 10
7 0 0  9 10 2  -64.527508867654234 125  -64.527508867654234 97.222222222222172  -64.527508867654234 69.444444444444457  -64.527508867654234 41.666666666666629  -64.527508867654234 13.888888888888914  -64.527508867654234 -13.888888888888914  -64.527508867654234 -41.666666666666629  -64.527508867654234 -69.444444444444457  -64.527508867654234 -97.222222222222172  -64.527508867654234 -124.99999999999994 
 6 10 7 10
7 0 0  9 10 2  -75 -244.99999999999986  -102.77777777777783 -244.99999999999986  -130.55555555555554 -244.99999999999986  -158.33333333333337 -244.99999999999986  -186.11111111111109 -244.99999999999986  -213.88888888888891 -244.99999999999986  -241.66666666666663 -244.99999999999986  -269.44444444444446 -244.99999999999986  -297.22222222222217 -244.99999999999986  -324.99999999999989 -244.99999999999974 
 2 10 3 10
7 0 0  9 10 2  64.527508867654234 -124.99999999999989  64.527508867654234 -97.222222222222058  64.527508867654234 -69.444444444444343  64.527508867654234 -41.666666666666515  64.527508867654234 -13.8888888888888  64.527508867654234 13.888888888889028  64.527508867654234 41.666666666666742  64.527508867654234 69.444444444444571  64.527508867654234 97.222222222222285  64.527508867654205 125 
 2 10 3 10
7 0 0  9 10 2  -400 0  -399.99999999999341 13.089969389953637  -397.42979072835669 26.17993896751068  -392.28937038679624 38.693153487035602  -384.72974045584772 50.052865866115724  -375.05286586602961 59.729740455760748  -363.69315348709733 67.2893703868599  -351.17993896748021 72.429790728324519  -338.08996938996222 75.000000000002615  -325 75 
 5 10 6 10
8 5 6
1 0 0 1 0 
7 0 0  9 10 2  -324.99999999999989 -244.99999999999974  -338.08996938995233 -244.99999999999721  -351.17993896751614 -242.42979072834291  -363.6931534870223 -237.28937038682324  -375.05286586613488 -229.72974045581012  -384.72974045574074 -220.05286586606596  -392.28937038687445 -208.69315348707235  -397.42979072831713 -196.17993896749169  -400.00000000000455 -183.08996938995915  -400 -170 
 3 10 4 10
8 3 4
1 0 0 1 0 
7 0 0  9 10 2  -400 -170  -400 -151.11111111111114  -400 -132.22222222222223  -400 -113.33333333333337  -400 -94.444444444444457  -400 -75.555555555555571  -400 -56.666666666666686  -400 -37.777777777777771  -400 -18.888888888888914  -400 0 
 4 10 5 10
7 0 0  9 10 2  -63.496925951682528 85  -63.496925951682528 66.111111111111143  -63.496925951682528 47.222222222222229  -63.496925951682528 28.333333333333371  -63.496925951682528 9.4444444444444571  -63.496925951682528 -9.4444444444444287  -63.496925951682528 -28.333333333333314  -63.496925951682528 -47.222222222222229  -63.496925951682528 -66.111111111111086  -63.496925951682528 -85 
 4 10 5 10
7 0 0  9 10 2  -78 72.000000000000057  -64.910030610043577 72.000000000000227  -51.820061032499893 69.429790728331966  -39.306846512942002 64.289370386844837  -27.947134133916165 56.729740455783769  -18.270259544207931 47.052865866089633  -10.710629613161814 35.693153487056406  -5.5702092716653624 23.179938967499311  -3.0000000000002274 10.089969389957048  -3 -3 
 7 10 8 10
8 7 8
1 0 0 1 0 
7 0 0  9 10 2  -322 72  -294.88888888888891 72  -267.77777777777783 72  -240.66666666666663 72  -213.55555555555554 72  -186.44444444444446 72  -159.33333333333337 72  -132.22222222222217 72  -105.11111111111109 72  -78 72.000000000000057 
 6 10 7 10
7 0 0  9 10 2  -63.034393186498207 122  -63.034393186498207 94.888888888888914  -63.034393186498207 67.777777777777828  -63.034393186498207 40.666666666666629  -63.034393186498207 13.555555555555543  -63.034393186498207 -13.555555555555543  -63.034393186498207 -40.666666666666629  -63.034393186498207 -67.777777777777828  -63.034393186498207 -94.888888888888914  -63.034393186498214 -122 
 6 10 7 10
7 0 0  9 10 2  -397 -3  -396.99999999999727 10.089969389955399  -394.42979072834521 23.179938967506473  -389.28937038681568 35.6931534870414  -381.72974045582259 47.052865866109528  -372.05286586605439 56.729740455765182  -360.69315348707903 64.289370386857854  -348.17993896748942 69.429790728325088  -335.08996938995961 72.000000000002558  -322 72 
 5 10 6 10
8 5 6
1 0 0 1 0 
7 0 0  9 10 2  -397 -167  -397 -148.77777777777777  -397 -130.55555555555554  -397 -112.33333333333334  -397 -94.111111111111114  -397 -75.888888888888886  -397 -57.666666666666686  -397 -39.444444444444457  -397 -21.222222222222229  -397 -3 
 4 10 5 10
7 0 0  9 10 2  -61.968032396290724 82  -61.968032396290724 63.777777777777771  -61.968032396290724 45.555555555555543  -61.968032396290724 27.333333333333343  -61.968032396290724 9.1111111111111143  -61.968032396290724 -9.1111111111111143  -61.968032396290724 -27.333333333333314  -61.968032396290724 -45.555555555555543  -61.968032396290724 -63.777777777777771  -61.968032396290724 -82 
 4 10 5 10
7 0 0  9 10 2  -321.99999999999977 -241.99999999999986  -335.08996938995449 -241.99999999999858  -348.17993896750841 -239.42979072833933  -360.69315348703822 -234.28937038682807  -372.05286586611555 -226.72974045580921  -381.72974045575734 -217.05286586606408  -389.28937038686445 -205.69315348707397  -394.42979072832145 -193.17993896749135  -397.00000000000352 -180.08996938995915  -397 -167 
 3 10 4 10
8 3 4
1 0 0 1 0 
7 0 0  9 10 2  -78 -242  -105.11111111111109 -242  -132.22222222222217 -242  -159.33333333333337 -242  -186.44444444444446 -242  -213.55555555555554 -242  -240.66666666666663 -242  -267.77777777777783 -242  -294.88888888888891 -242  -321.99999999999977 -241.99999999999986 
 2 10 3 10
7 0 0  9 10 2  63.034393186498207 -121.99999999999989  63.034393186498207 -94.8888888888888  63.034393186498207 -67.777777777777715  63.034393186498207 -40.666666666666515  63.034393186498207 -13.555555555555429  63.034393186498207 13.555555555555657  63.034393186498207 40.666666666666742  63.034393186498207 67.777777777777942  63.034393186498207 94.888888888889028  63.034393186498193 121.99999999999989 
 2 10 3 10
7 0 0  9 10 2  -3 -166.99999999999994  -3.0000000000014779 -180.08996938995523  -5.5702092716616107 -193.17993896750585  -10.710629613168521 -205.69315348704396  -18.270259544197472 -217.05286586610589  -27.947134133927648 -226.72974045576882  -39.306846512932736 -234.28937038685515  -51.820061032505009 -239.42979072832645  -64.910030610041986 -242.0000000000021  -78 -242 
 1 10 2 10
8 1 2
1 0 0 1 0 
7 0 0  9 10 2  -3 -3  -3 -21.222222222222229  -3 -39.444444444444457  -3 -57.666666666666657  -3 -75.888888888888886  -3 -94.111111111111114  -3 -112.33333333333331  -3 -130.55555555555554  -3 -148.77777777777777  -3 -166.99999999999994 
 0 10 1 10
7 0 0  9 10 2  61.968032396290752 -81.999999999999915  61.968032396290752 -63.777777777777686  61.968032396290752 -45.555555555555458  61.968032396290752 -27.333333333333258  61.968032396290752 -9.111111111111029  61.968032396290752 9.1111111111111995  61.968032396290752 27.3333333333334  61.968032396290752 45.555555555555628  61.968032396290752 63.777777777777857  61.968032396290752 82.000000000000028 
 0 10 1 10
8 1 2
1 0 132 1 0 
7 0 0  9 10 2  65.000000000000028 180.00000000000011  78.08996938995503 179.99999999999852  91.179938967506715 177.42979072833896  103.69315348704171 172.28937038682977  115.05286586611011 164.72974045580634  124.72974045576416 155.05286586606735  132.28937038685856 143.69315348707175  137.42979072832495 131.17993896749266  140.00000000000256 118.08996938995892  140.00000000000006 105.00000000000011 
 1 10 2 10
1 2 0 0 1 
7 0 0  1 2 2  64.527508867654205 -124.99999999999989  -71.945931771907553 -104.99999999999983 
 0 2 132 2
7 0 0  9 10 2  140.00000000000006 105.00000000000011  140.00000000000006 81.666666666666742  140.00000000000006 58.333333333333485  140.00000000000006 35.000000000000114  140.00000000000006 11.666666666666742  140.00000000000006 -11.666666666666515  140.00000000000006 -34.999999999999886  140.00000000000006 -58.333333333333258  140.00000000000006 -81.666666666666515  139.99999999999991 -104.99999999999966 
 2 10 3 10
7 0 0  9 10 2  -71.945931771907553 -104.99999999999983  -71.945931771907553 -81.666666666666515  -71.945931771907553 -58.333333333333258  -71.945931771907553 -34.999999999999886  -71.945931771907553 -11.666666666666515  -71.945931771907553 11.666666666666742  -71.945931771907581 35.000000000000114  -71.945931771907581 58.333333333333485  -71.945931771907581 81.666666666666742  -71.945931771907581 104.99999999999989 
 2 10 3 10
7 0 0  9 10 2  139.99999999999991 -104.99999999999966  139.99999999999855 -118.08996938995449  137.42979072833958 -131.17993896750761  132.28937038682744 -143.6931534870406  124.72974045580997 -155.05286586610919  115.0528658660638 -164.72974045576711  103.69315348707377 -172.28937038685422  91.179938967491765 -177.4297907283277  78.089969389959066 -180.00000000000136  65.000000000000085 -179.99999999999989 
 3 10 4 10
8 3 4
1 0 132 1 0 
7 0 0  9 10 2  65.000000000000085 -179.99999999999989  50.555555555555657 -179.99999999999989  36.1111111111112 -179.99999999999989  21.666666666666742 -179.99999999999989  7.2222222222222854 -179.99999999999989  -7.2222222222221433 -179.99999999999989  -21.6666666666666 -179.99999999999989  -36.111111111111029 -179.99999999999989  -50.555555555555486 -179.99999999999989  -64.999999999999943 -179.99999999999989 
 4 10 5 10
7 0 0  9 10 2  72.976514687879273 65.000000000000028  72.976514687879273 50.5555555555556  72.976514687879273 36.111111111111143  72.976514687879273 21.666666666666686  72.976514687879273 7.2222222222222285  72.976514687879273 -7.2222222222222001  72.976514687879273 -21.666666666666657  72.976514687879273 -36.111111111111086  72.976514687879273 -50.555555555555543  72.976514687879273 -65 
 4 10 5 10
7 0 0  9 10 2  -64.999999999999943 -179.99999999999989  -78.089969389956366 -179.99999999999739  -91.179938967502039 -177.4297907283443  -103.69315348705106 -172.28937038681715  -115.05286586609549 -164.72974045582134  -124.72974045577922 -155.05286586605382  -132.28937038684745 -143.69315348708039  -137.42979072833003 -131.17993896748806  -140.00000000000114 -118.08996938995995  -139.99999999999994 -104.99999999999989 
 5 10 6 10
8 5 6
1 0 132 1 0 
7 0 0  9 10 2  -139.99999999999994 -104.99999999999989  -139.99999999999994 -81.666666666666515  -139.99999999999994 -58.333333333333258  -139.99999999999994 -34.999999999999886  -139.99999999999994 -11.666666666666515  -139.99999999999994 11.666666666666742  -139.99999999999994 35.000000000000114  -139.99999999999994 58.333333333333485  -139.99999999999994 81.666666666666742  -139.99999999999994 105.00000000000011 
 6 10 7 10
7 0 0  9 10 2  71.945931771907567 105  71.945931771907567 81.666666666666629  71.945931771907567 58.333333333333371  71.945931771907567 35  71.945931771907539 11.666666666666629  71.945931771907539 -11.666666666666629  71.945931771907567 -35  71.945931771907567 -58.333333333333371  71.945931771907567 -81.666666666666629  71.945931771907567 -104.99999999999994 
 6 10 7 10
7 0 0  1 2 2  -64.527508867654234 125  71.945931771907567 105 
 0 2 132 2
1 6 0 0 1 
7 0 0  1 2 2  64.527508867654205 125.00000000000011  -71.945931771907581 104.99999999999989 
 0 2 132 2
8 0 132
1 3 0 0 1 
8 0 132
1 5 0 0 1 
7 0 0  1 2 2  -63.496925951682528 -85  72.976514687879273 -65 
 0 2 132 2
1 4 0 0 1 
7 0 0  1 2 2  -63.496925951682528 85.000000000000014  72.976514687879273 65.000000000000028 
 0 2 132 2
8 0 132
1 7 0 0 1 
7 0 0  1 2 2  -63.0343931864982 -122  70.4721609597309 -102 
 0 2 132 2
8 7 8
1 0 132 1 0 
7 0 0  9 10 2  -75 75  -61.910030610042782 74.999999999999034  -48.820061032502849 72.429790728336116  -36.306846512935692 67.289370386837334  -24.947134133925488 59.729740455791784  -15.270259544198041 50.052865866084005  -7.7106296131694876 38.693153487059021  -2.570209271661497 26.179938967498515  -1.1368683772161603e-12 13.089969389957218  0 0 
 7 10 8 10
8 0 132
1 8 0 0 1 
7 0 0  1 2 2  61.968032396290752 -81.999999999999915  -71.538521749938354 -61.999999999999915 
 0 2 132 2
7 0 0  1 2 2  -63.0343931864982 122  70.4721609597309 102 
 0 2 132 2
1 6 0 0 1 
7 0 0  9 10 2  70.4721609597309 102  70.4721609597309 79.333333333333371  70.4721609597309 56.666666666666629  70.4721609597309 34  70.4721609597309 11.333333333333371  70.4721609597309 -11.333333333333371  70.4721609597309 -34  70.4721609597309 -56.666666666666629  70.4721609597309 -79.333333333333371  70.4721609597309 -102 
 6 10 7 10
7 0 0  9 10 2  -279 75  -256.33333333333337 75  -233.66666666666663 75  -211 75  -188.33333333333337 75  -165.66666666666663 75  -143 75  -120.33333333333337 75  -97.666666666666629 75  -75 75 
 6 10 7 10
8 0 132
1 5 0 0 1 
7 0 0  1 2 2  -61.968032396290724 -82  71.538521749938354 -62 
 0 2 132 2
8 5 6
1 0 132 1 0 
7 0 0  9 10 2  -354 0  -353.99999999999648 13.089969389956991  -351.42979072834794 26.179938967499879  -346.28937038680988 38.693153487055781  -338.7297404558318 50.052865866088837  -329.05286586604336 59.7297404557861  -317.69315348708801 67.28937038684262  -305.17993896748465 72.429790728332534  -292.08996938996086 75.000000000000512  -279 75 
 5 10 6 10
7 0 0  1 2 2  -61.968032396290724 82  71.538521749938354 62 
 0 2 132 2
1 4 0 0 1 
7 0 0  9 10 2  71.538521749938354 62  71.538521749938354 48.222222222222229  71.538521749938354 34.444444444444457  71.538521749938354 20.666666666666686  71.538521749938354 6.8888888888888857  71.538521749938354 -6.8888888888888857  71.538521749938354 -20.666666666666686  71.538521749938354 -34.444444444444457  71.538521749938354 -48.222222222222229  71.538521749938354 -62 
 4 10 5 10
7 0 0  9 10 2  -354 -124  -354 -110.22222222222223  -354 -96.444444444444457  -354 -82.666666666666686  -354 -68.888888888888886  -354 -55.111111111111114  -354 -41.333333333333314  -354 -27.555555555555543  -354 -13.777777777777771  -354 0 
 4 10 5 10
8 0 132
1 3 0 0 1 
7 0 0  1 2 2  63.034393186498185 121.99999999999989  -70.4721609597309 101.99999999999989 
 0 2 132 2
8 3 4
1 0 132 1 0 
7 0 0  9 10 2  -278.99999999999977 -198.99999999999989  -292.08996938995688 -198.9999999999981  -305.17993896749874 -196.4297907283412  -317.6931534870605 -191.28937038682369  -329.05286586608008 -183.729740455815  -338.72974045579736 -174.05286586605882  -346.28937038683307 -162.69315348707718  -351.42979072833759 -150.17993896748987  -353.99999999999909 -137.08996938995961  -354 -124 
 3 10 4 10
7 0 0  1 2 2  63.034393186498207 -121.99999999999989  -70.4721609597309 -101.99999999999983 
 0 2 132 2
1 2 0 0 1 
7 0 0  9 10 2  -70.4721609597309 -101.99999999999983  -70.4721609597309 -79.333333333333258  -70.4721609597309 -56.666666666666515  -70.4721609597309 -33.999999999999886  -70.4721609597309 -11.333333333333258  -70.4721609597309 11.333333333333485  -70.4721609597309 34.000000000000114  -70.4721609597309 56.666666666666742  -70.4721609597309 79.333333333333485  -70.4721609597309 101.99999999999989 
 2 10 3 10
7 0 0  9 10 2  -75 -199  -97.666666666666629 -199  -120.33333333333337 -199  -143 -199  -165.66666666666663 -199  -188.33333333333337 -199  -211 -199  -233.66666666666663 -199  -256.33333333333337 -199  -278.99999999999977 -198.99999999999989 
 2 10 3 10
8 0 132
1 1 0 0 1 
7 0 0  1 2 2  61.968032396290752 82.000000000000028  -71.538521749938354 62.000000000000085 
 0 2 132 2
8 1 2
1 0 132 1 0 
7 0 0  9 10 2  0 -124  -1.7053025658242404e-12 -137.08996938995591  -2.5702092716607012 -150.17993896750298  -7.7106296131703402 -162.69315348704998  -15.270259544195255 -174.05286586609725  -24.947134133929239 -183.72974045577806  -36.306846512932111 -191.28937038684796  -48.820061032505123 -196.42979072833029  -61.910030610041986 -199.00000000000097  -75 -199 
 1 10 2 10
7 0 0  9 10 2  -71.538521749938354 -61.999999999999915  -71.538521749938354 -48.222222222222143  -71.538521749938354 -34.444444444444372  -71.538521749938354 -20.6666666666666  -71.538521749938354 -6.8888888888888005  -71.538521749938354 6.888888888888971  -71.538521749938354 20.666666666666771  -71.538521749938354 34.444444444444542  -71.538521749938354 48.222222222222314  -71.538521749938354 62.000000000000085 
 0 10 1 10
7 0 0  9 10 2  0 0  0 -13.777777777777771  0 -27.555555555555543  0 -41.333333333333314  0 -55.111111111111114  0 -68.888888888888886  0 -82.666666666666686  0 -96.444444444444457  0 -110.22222222222223  0 -124 
 0 10 1 10
Curves 48
7 0 0  1 2 2  410 295 -15  430 275 -150 
 0 2 132 2
7 0 0  9 10 2  -85 200 -1.9317880628477746e-14  -66.111111111111114 200 -1.5123704757671587e-14  -47.222222222222229 200 -1.0929528886865442e-14  -28.333333333333336 200 -6.7353530160592954e-15  -9.4444444444444446 200 -2.5411771452531468e-15  9.4444444444444429 200 1.6529987255530018e-15  28.333333333333329 200 5.8471745963591496e-15  47.222222222222214 200 1.0041350467165297e-14  66.111111111111114 200 1.4235526337971443e-14  84.999999999999943 200.00000000000003 1.8429702208777592e-14 
 0 10 1 10
7 0 0  1 2 2  410 125.00000000000004 -15  430 145.00000000000003 -150 
 0 2 132 2
7 0 0  9 10 2  -65.000000000000014 180 2.999999999999996  -50.555555555555571 180 2.9999999999999991  -36.111111111111136 180 3.0000000000000022  -21.666666666666696 180 3.0000000000000053  -7.2222222222222507 180 3.0000000000000089  7.2222222222221939 180 3.000000000000012  21.666666666666639 180 3.0000000000000155  36.111111111111086 180 3.0000000000000187  50.555555555555529 180 3.0000000000000218  64.999999999999943 180.00000000000003 3.0000000000000244 
 0 10 1 10
7 0 0  1 2 2  485 370.00000000000011 -15  505 350 -150 
 0 2 132 2
7 0 0  9 10 2  -160.00000000000006 125 -3.5971225997855078e-14  -159.9999999999994 138.08996938995713 -3.5971225997854554e-14  -157.42979072833521 151.17993896749721 -3.5400524895555068e-14  -152.28937038683878 163.69315348706434 -3.4259122291674464e-14  -144.72974045579139 175.05286586607448 -3.2580547250262646e-14  -135.05286586608256 184.72974045580168 -3.0431849455073817e-14  -123.69315348706139 192.28937038683122 -2.7909486607818336e-14  -111.17993896749694 197.42979072833811 -2.5130994833475956e-14  -98.089969389957687 199.99999999999892 -2.22244377101519e-14  -85 200 -1.9317880628477746e-14 
 7 10 8 10
7 0 0  9 10 2  -140.00000000000006 104.99999999999999 2.9999999999999787  -139.99999999999855 118.08996938995705 2.9999999999999334  -137.42979072833853 131.179938967498 3.0000000000001212  -132.28937038683165 143.69315348706172 2.9999999999997522  -124.72974045580111 155.05286586607974 3.0000000000002163  -115.05286586607362 164.72974045579508 2.9999999999998286  -103.69315348706706 172.28937038683662 3.0000000000000568  -91.179938967494664 177.42979072833512 2.9999999999999623  -78.089969389958256 179.99999999999989 3.0000000000000013  -65.000000000000014 180 2.999999999999996 
 7 10 8 10
7 0 0  9 10 2  84.999999999999943 200.00000000000003 1.8429702208777592e-14  98.08996938995621 199.99999999999793 2.133625929045102e-14  111.17993896750136 197.42979072834075 2.4242816413778497e-14  123.69315348705354 192.28937038682594 2.7021308188112547e-14  135.05286586609199 184.72974045581168 2.954367103538189e-14  144.72974045578383 175.05286586606124 3.1692368830554051e-14  152.28937038684333 163.69315348707684 3.3370943871980681e-14  157.42979072833282 151.17993896748945 3.451234647585156e-14  160.00000000000023 138.0899693899598 3.5083047578155414e-14  159.99999999999986 125 3.5083047578154915e-14 
 1 10 2 10
7 0 0  9 10 2  -160 -125 -3.5971225997855078e-14  -160 -97.222222222222229 -3.5971225997855078e-14  -160 -69.444444444444443 -3.5971225997855078e-14  -160 -41.666666666666664 -3.5971225997855078e-14  -160 -13.888888888888891 -3.5971225997855078e-14  -160 13.888888888888889 -3.5971225997855078e-14  -160 41.666666666666657 -3.5971225997855078e-14  -160 69.444444444444443 -3.5971225997855078e-14  -160 97.222222222222229 -3.5971225997855078e-14  -160.00000000000006 125 -3.5971225997855078e-14 
 6 10 7 10
7 0 0  9 10 2  159.99999999999986 125 3.5083047578154915e-14  159.99999999999986 97.222222222222229 3.5083047578154915e-14  159.99999999999986 69.444444444444443 3.5083047578154915e-14  159.99999999999986 41.666666666666664 3.5083047578154915e-14  159.99999999999986 13.888888888888891 3.5083047578154915e-14  159.99999999999986 -13.888888888888889 3.5083047578154915e-14  159.99999999999986 -41.666666666666657 3.5083047578154915e-14  159.99999999999986 -69.444444444444443 3.5083047578154915e-14  159.99999999999986 -97.222222222222229 3.5083047578154915e-14  159.99999999999974 -124.99999999999986 3.508304757815489e-14 
 2 10 3 10
7 0 0  9 10 2  -85.000000000000014 -200 -1.9317880628477736e-14  -98.089969389953637 -199.99999999999346 -2.222443771015053e-14  -111.17993896751069 -197.42979072835675 -2.5130994833480806e-14  -123.69315348703562 -192.28937038679618 -2.7909486607808655e-14  -135.05286586611572 -184.72974045584775 -3.0431849455087108e-14  -144.72974045576075 -175.05286586602966 -3.25805472502495e-14  -152.28937038685993 -163.69315348709728 -3.425912229168388e-14  -157.42979072832449 -151.17993896748015 -3.5400524895550404e-14  -160.00000000000261 -138.08996938996222 -3.5971225997855867e-14  -160 -125 -3.5971225997855078e-14 
 5 10 6 10
7 0 0  9 10 2  159.99999999999974 -124.99999999999986 3.508304757815489e-14  159.99999999999721 -138.08996938995233 3.5083047578154398e-14  157.42979072834291 -151.17993896751611 3.4512346475854924e-14  152.28937038682324 -163.69315348702236 3.3370943871974301e-14  144.72974045581012 -175.05286586613494 3.1692368830562003e-14  135.05286586606596 -184.72974045574077 2.9543671035374626e-14  123.69315348707235 -192.28937038687451 2.7021308188117249e-14  111.17993896749171 -197.42979072831719 2.424281641377632e-14  98.089969389959137 -200.00000000000458 2.1336259290451636e-14  85.000000000000014 -200 1.8429702208777599e-14 
 3 10 4 10
7 0 0  9 10 2  85.000000000000014 -200 1.8429702208777599e-14  66.111111111111128 -200 1.4235526337971452e-14  47.222222222222236 -200 1.0041350467165305e-14  28.333333333333357 -200 5.8471745963591528e-15  9.4444444444444642 -200 1.6529987255530046e-15  -9.4444444444444304 -200 -2.5411771452531432e-15  -28.333333333333325 -200 -6.7353530160592914e-15  -47.222222222222214 -200 -1.0929528886865441e-14  -66.111111111111114 -200 -1.512370475767159e-14  -85.000000000000014 -200 -1.9317880628477736e-14 
 4 10 5 10
7 0 0  9 10 2  -157.00000000000006 122 -3.5305092183079984e-14  -157.00000000000026 135.08996938995642 -3.5305092183079555e-14  -154.42979072833197 148.17993896750014 -3.473439108077952e-14  -149.28937038684484 160.693153487058 -3.3592988476900531e-14  -141.72974045578377 172.05286586608381 -3.1914413435485602e-14  -132.05286586608966 181.72974045579207 -2.9765715640300926e-14  -120.69315348705643 189.28937038683821 -2.7243352793041557e-14  -108.17993896749933 194.42979072833467 -2.4464861018701689e-14  -95.089969389957048 196.9999999999998 -2.1558303895376579e-14  -82 197 -1.8651746813702646e-14 
 7 10 8 10
7 0 0  9 10 2  -157 -122 -3.5305092183079984e-14  -157 -94.888888888888886 -3.5305092183079984e-14  -157 -67.777777777777771 -3.5305092183079984e-14  -157 -40.666666666666664 -3.5305092183079984e-14  -157 -13.555555555555562 -3.5305092183079984e-14  -157 13.555555555555554 -3.5305092183079984e-14  -157 40.666666666666657 -3.5305092183079984e-14  -157 67.777777777777771 -3.5305092183079984e-14  -157 94.888888888888872 -3.5305092183079984e-14  -157.00000000000006 122 -3.5305092183079984e-14 
 6 10 7 10
7 0 0  9 10 2  -82 -197 -1.8651746813702643e-14  -95.089969389955371 -196.99999999999727 -2.1558303895376298e-14  -108.17993896750649 -194.42979072834524 -2.4464861018702866e-14  -120.69315348704143 -189.28937038681565 -2.7243352793038945e-14  -132.0528658661095 -181.72974045582259 -2.9765715640304788e-14  -141.72974045576521 -172.05286586605442 -3.1914413435481317e-14  -149.28937038685785 -160.693153487079 -3.3592988476904122e-14  -154.42979072832506 -148.17993896748939 -3.4734391080777399e-14  -157.00000000000256 -135.08996938995955 -3.5305092183080268e-14  -157 -122 -3.5305092183079984e-14 
 5 10 6 10
7 0 0  9 10 2  82 -197 1.7763568394002501e-14  63.777777777777779 -197 1.3717422259813042e-14  45.555555555555557 -197 9.6712761256235767e-15  27.333333333333332 -197 5.6251299914341152e-15  9.1111111111111143 -197 1.5789838572446575e-15  -9.1111111111111089 -197 -2.4671622769448029e-15  -27.333333333333329 -197 -6.5133084111342633e-15  -45.55555555555555 -197 -1.0559454545323722e-14  -63.777777777777779 -197 -1.4605600679513182e-14  -82 -197 -1.8651746813702643e-14 
 4 10 5 10
7 0 0  9 10 2  156.99999999999986 -121.99999999999983 3.4416913763379821e-14  156.99999999999858 -135.08996938995446 3.4416913763379184e-14  154.42979072833933 -148.17993896750841 3.3846212661080644e-14  149.28937038682807 -160.69315348703827 3.2704810057197112e-14  141.72974045580921 -172.05286586611561 3.1026235015790633e-14  132.05286586606408 -181.72974045575731 2.8877537220595625e-14  120.69315348707397 -189.28937038686442 2.6355174373344837e-14  108.17993896749137 -194.42979072832148 2.3576682599000081e-14  95.089969389959165 -197.0000000000035 2.0670125475676829e-14  82 -197 1.7763568394002501e-14 
 3 10 4 10
7 0 0  9 10 2  157 122 3.4416913763379853e-14  157 94.888888888888886 3.4416913763379853e-14  157 67.777777777777771 3.4416913763379853e-14  157 40.666666666666664 3.4416913763379853e-14  157 13.555555555555562 3.4416913763379853e-14  157 -13.555555555555554 3.4416913763379853e-14  157 -40.666666666666657 3.4416913763379853e-14  157 -67.777777777777771 3.4416913763379853e-14  157 -94.888888888888872 3.4416913763379853e-14  156.99999999999986 -121.99999999999983 3.4416913763379821e-14 
 2 10 3 10
7 0 0  9 10 2  81.999999999999943 197.00000000000003 1.7763568394002498e-14  95.089969389955215 196.99999999999849 2.0670125475675971e-14  108.17993896750586 194.42979072833839 2.3576682599003277e-14  120.69315348704394 189.28937038683145 2.6355174373337627e-14  132.05286586610589 181.72974045580253 2.8877537220606695e-14  141.72974045576882 172.05286586607232 3.1026235015779008e-14  149.28937038685515 160.69315348706726 3.270481005720548e-14  154.42979072832645 148.17993896749499 3.3846212661076618e-14  157.0000000000021 135.08996938995801 3.4416913763380269e-14  157 122 3.4416913763379853e-14 
 1 10 2 10
7 0 0  9 10 2  -82 197 -1.8651746813702646e-14  -63.777777777777779 197 -1.4605600679513182e-14  -45.555555555555557 197 -1.0559454545323722e-14  -27.333333333333332 197 -6.5133084111342585e-15  -9.1111111111111143 197 -2.4671622769448013e-15  9.1111111111111089 197 1.5789838572446585e-15  27.333333333333329 197 5.6251299914341191e-15  45.55555555555555 197 9.6712761256235799e-15  63.777777777777779 197 1.3717422259813042e-14  81.999999999999943 197.00000000000003 1.7763568394002498e-14 
 0 10 1 10
7 0 0  9 10 2  64.999999999999943 180.00000000000003 3.0000000000000244  78.089969389954945 179.99999999999844 2.9999999999999756  91.179938967506629 177.42979072833882 3.0000000000002078  103.69315348704163 172.28937038682963 2.9999999999996891  115.05286586611003 164.72974045580622 3.0000000000005005  124.72974045576407 155.05286586606724 2.9999999999995977  132.28937038685848 143.69315348707164 3.000000000000338  137.42979072832486 131.17993896749255 2.9999999999999001  140.00000000000247 118.08996938995878 3.000000000000079  139.99999999999997 105 3.0000000000000422 
 1 10 2 10
7 0 0  1 2 2  485 50.000000000000128 -15.000000000000014  505 69.999999999999986 -150 
 0 2 132 2
7 0 0  9 10 2  139.99999999999997 105 3.0000000000000422  139.99999999999997 81.666666666666671 3.0000000000000422  139.99999999999997 58.333333333333336 3.0000000000000422  139.99999999999997 35 3.0000000000000422  139.99999999999997 11.666666666666666 3.0000000000000422  139.99999999999997 -11.666666666666666 3.0000000000000422  139.99999999999997 -35 3.0000000000000422  139.99999999999997 -58.333333333333336 3.0000000000000422  139.99999999999997 -81.666666666666671 3.0000000000000422  139.99999999999983 -104.99999999999983 3.0000000000000382 
 2 10 3 10
7 0 0  9 10 2  139.99999999999983 -104.99999999999983 3.0000000000000382  139.99999999999847 -118.0899693899546 2.9999999999999964  137.4297907283395 -131.17993896750772 3.0000000000002021  132.28937038682736 -143.69315348704077 2.9999999999997096  124.72974045580989 -155.05286586610927 3.0000000000005018  115.05286586606371 -164.72974045576723 2.9999999999995945  103.69315348707369 -172.2893703868543 3.000000000000326  91.17993896749168 -177.42979072832787 2.999999999999893  78.089969389958981 -180.00000000000151 3.0000000000000648  65 -180 3.0000000000000244 
 3 10 4 10
7 0 0  9 10 2  65 -180 3.0000000000000244  50.555555555555557 -180 3.0000000000000213  36.111111111111114 -180 3.0000000000000178  21.666666666666668 -180 3.0000000000000147  7.2222222222222108 -180 3.0000000000000115  -7.2222222222222383 -180 3.0000000000000089  -21.666666666666679 -180 3.0000000000000053  -36.111111111111114 -180 3.0000000000000018  -50.555555555555564 -180 2.9999999999999991  -65.000000000000028 -180 2.9999999999999956 
 4 10 5 10
7 0 0  9 10 2  -65.000000000000028 -180 2.9999999999999956  -78.089969389956465 -179.99999999999744 2.9999999999999716  -91.179938967502125 -177.42979072834436 3.000000000000087  -103.69315348705113 -172.28937038681724 2.9999999999997837  -115.0528658660956 -164.7297404558214 3.0000000000002189  -124.72974045577934 -155.05286586605393 2.999999999999805  -132.28937038684751 -143.69315348708051 3.0000000000000764  -137.42979072833015 -131.17993896748811 2.9999999999999418  -140.00000000000122 -118.08996938996005 2.9999999999999885  -140.00000000000003 -105 2.9999999999999791 
 5 10 6 10
7 0 0  9 10 2  -140.00000000000003 -105 2.9999999999999791  -140.00000000000003 -81.666666666666671 2.9999999999999791  -140.00000000000003 -58.333333333333336 2.9999999999999791  -140.00000000000003 -35 2.9999999999999791  -140.00000000000003 -11.666666666666666 2.9999999999999791  -140.00000000000003 11.666666666666666 2.9999999999999791  -140.00000000000003 35 2.9999999999999791  -140.00000000000003 58.333333333333336 2.9999999999999791  -140.00000000000003 81.666666666666671 2.9999999999999791  -140.00000000000006 104.99999999999999 2.9999999999999787 
 6 10 7 10
7 0 0  1 2 2  735 370 -15  715 350 -150 
 0 2 132 2
7 0 0  1 2 2  735 50.000000000000263 -15  714.99999999999977 70.000000000000171 -150 
 0 2 132 2
7 0 0  1 2 2  810 295 -15  790 275 -150 
 0 2 132 2
7 0 0  1 2 2  810 124.99999999999997 -15  790 144.99999999999997 -150 
 0 2 132 2
7 0 0  1 2 2  488 367 -15  508 347 -147 
 0 2 132 2
7 0 0  9 10 2  -137.00000000000003 101.99999999999999 -2.0206059048177862e-14  -136.99999999999906 115.08996938995725 -2.0206059048177729e-14  -134.42979072833612 128.17993896749712 -1.9635357945876492e-14  -129.28937038683736 140.69315348706431 -1.8493955341999989e-14  -121.72974045579184 152.05286586607454 -1.681538030058158e-14  -112.05286586608405 161.72974045580196 -1.46666825054004e-14  -100.69315348705906 169.28937038683051 -1.2144319658138474e-14  -88.179938967498529 174.4297907283385 -9.3658278837999656e-15  -75.089969389957247 176.99999999999889 -6.4592707604743701e-15  -62.000000000000014 177 -3.5527136788005136e-15 
 7 10 8 10
7 0 0  1 2 2  413 292 -15  433 272 -147 
 0 2 132 2
7 0 0  1 2 2  732 367 -15  712 347 -147 
 0 2 132 2
7 0 0  9 10 2  -137.00000000000003 -102 -2.0206059048177871e-14  -137.00000000000003 -79.333333333333329 -2.0206059048177871e-14  -137.00000000000003 -56.666666666666671 -2.0206059048177871e-14  -137.00000000000003 -34.000000000000007 -2.0206059048177871e-14  -137.00000000000003 -11.333333333333336 -2.0206059048177871e-14  -137.00000000000003 11.333333333333334 -2.0206059048177871e-14  -137.00000000000003 34 -2.0206059048177871e-14  -137.00000000000003 56.666666666666664 -2.0206059048177871e-14  -137.00000000000003 79.333333333333343 -2.0206059048177871e-14  -137.00000000000003 101.99999999999999 -2.0206059048177862e-14 
 6 10 7 10
7 0 0  1 2 2  807 292 -15  787 272 -147 
 0 2 132 2
7 0 0  9 10 2  -62.000000000000036 -177 -3.5527136788005136e-15  -75.089969389957005 -176.99999999999645 -6.4592707604742162e-15  -88.179938967499879 -174.42979072834794 -9.3658278838005557e-15  -100.69315348705581 -169.28937038680991 -1.2144319658137249e-14  -112.05286586608889 -161.72974045583183 -1.4666682505402081e-14  -121.72974045578616 -152.05286586604333 -1.6815380300579822e-14  -129.28937038684268 -140.69315348708801 -1.8493955342001419e-14  -134.42979072833256 -128.17993896748462 -1.9635357945875636e-14  -137.00000000000054 -115.08996938996087 -2.020605904817801e-14  -137.00000000000003 -102 -2.0206059048177871e-14 
 5 10 6 10
7 0 0  1 2 2  807 128 -15  787 148 -147 
 0 2 132 2
7 0 0  9 10 2  61.999999999999986 -177 2.3980817331903378e-14  48.222222222222214 -177 2.0921536108491834e-14  34.444444444444429 -177 1.7862254885080287e-14  20.666666666666643 -177 1.4802973661668745e-14  6.8888888888888618 -177 1.1743692438257201e-14  -6.8888888888889186 -177 8.6844112148456586e-15  -20.6666666666667 -177 5.6251299914341167e-15  -34.444444444444485 -177 2.5658487680225733e-15  -48.222222222222257 -177 -4.9343245538897042e-16  -62.000000000000036 -177 -3.5527136788005136e-15 
 4 10 5 10
7 0 0  1 2 2  731.99999999999977 53.000000000000142 -15  711.99999999999977 73.000000000000099 -147 
 0 2 132 2
7 0 0  9 10 2  136.99999999999986 -101.99999999999983 4.0634162701280692e-14  136.99999999999807 -115.08996938995693 4.0634162701280067e-14  134.42979072834117 -128.17993896749871 4.0063461598981432e-14  129.28937038682366 -140.69315348706056 3.8922058995098165e-14  121.72974045581498 -152.05286586608011 3.7243483953691579e-14  112.05286586605881 -161.72974045579733 3.509478615849594e-14  100.69315348707715 -169.28937038683301 3.2572423311246628e-14  88.179938967489861 -174.42979072833757 2.9793931536900244e-14  75.089969389959563 -176.99999999999909 2.6887374413577955e-14  61.999999999999986 -177 2.3980817331903378e-14 
 3 10 4 10
7 0 0  1 2 2  488 52.999999999999993 -15  508 72.999999999999972 -147 
 0 2 132 2
7 0 0  9 10 2  136.99999999999997 102 4.0634162701280729e-14  136.99999999999997 79.333333333333329 4.0634162701280729e-14  136.99999999999997 56.666666666666671 4.0634162701280729e-14  136.99999999999997 34.000000000000007 4.0634162701280729e-14  136.99999999999997 11.333333333333336 4.0634162701280729e-14  136.99999999999997 -11.333333333333334 4.0634162701280729e-14  136.99999999999997 -34 4.0634162701280729e-14  136.99999999999997 -56.666666666666664 4.0634162701280729e-14  136.99999999999997 -79.333333333333343 4.0634162701280729e-14  136.99999999999986 -101.99999999999983 4.0634162701280692e-14 
 2 10 3 10
7 0 0  1 2 2  413 128.00000000000006 -15  433 148 -147 
 0 2 132 2
7 0 0  9 10 2  61.999999999999972 177.00000000000003 2.3980817331903375e-14  75.089969389955868 176.99999999999827 2.6887374413576901e-14  88.179938967502949 174.4297907283393 2.9793931536903968e-14  100.69315348704994 169.28937038682963 3.2572423311238822e-14  112.05286586609721 161.72974045580472 3.5094786158507155e-14  121.72974045577803 152.05286586607076 3.7243483953680333e-14  129.28937038684793 140.69315348706789 3.8922058995106003e-14  134.42979072833026 128.17993896749485 4.0063461598977709e-14  137.00000000000094 115.08996938995803 4.0634162701281045e-14  136.99999999999997 102 4.0634162701280729e-14 
 1 10 2 10
7 0 0  9 10 2  -62.000000000000014 177 -3.5527136788005136e-15  -48.222222222222271 177 -4.9343245538897042e-16  -34.444444444444485 177 2.5658487680225737e-15  -20.6666666666667 177 5.6251299914341152e-15  -6.8888888888889186 177 8.684411214845657e-15  6.8888888888888618 177 1.17436924382572e-14  20.666666666666643 177 1.4802973661668749e-14  34.444444444444429 177 1.7862254885080293e-14  48.222222222222214 177 2.0921536108491834e-14  61.999999999999972 177.00000000000003 2.3980817331903375e-14 
 0 10 1 10
Polygon3D 0
PolygonOnTriangulations 0
Surfaces 19
1 420 209.99999999999994 -82.5 0.98920346235387091 -2.410801242122828e-18 0.14654866108946235 -2.3322393320889551e-18 -1 -7.0790151893113239e-19 0.14654866108946235 3.584720820744221e-19 -0.98920346235387091 
9 0 0 0 0 9 1 10 2 2 2 485 370.00000000000011 -15  505 350 -150  
471.91003061004295 369.99999999999943 -15  491.91003061004295 349.99999999999852 -149.99999999999997  
458.82006103250279 367.42979072833521 -15  478.820061032502 347.4297907283385 -150.00000000000014  
446.30684651293564 362.28937038683875 -15.000000000000014  466.30684651293825 342.28937038683159 -149.99999999999977  
434.94713413392549 354.72974045579139 -14.999999999999986  454.94713413392026 334.72974045580116 -150.00000000000028  
425.27025954419832 345.05286586608258 -15  445.27025954420492 325.0528658660736 -149.99999999999986  
417.71062961316875 333.69315348706147 -15  437.71062961316341 313.69315348706704 -150.00000000000009  
412.57020927166184 321.17993896749692 -15.000000000000014  432.57020927166491 301.17993896749465 -149.99999999999994  
410.00000000000102 308.08996938995767 -15  430.00000000000011 288.08996938995824 -150.00000000000003  
410 295 -15  430 275 -150  

7 10
8 10

0 2
132 2

1 410 295 -14.999999999999998 0 0 -1 -1 0 -0 0 1 0 
9 0 0 0 0 9 1 10 2 2 2 410 125.00000000000004 -15  430 145.00000000000003 -150  
410.0000000000021 111.91003061004382 -15  430.00000000000165 131.91003061004506 -149.99999999999997  
412.57020927165922 98.820061032498657 -15  432.57020927166116 118.82006103249334 -150.0000000000002  
417.71062961317415 86.306846512946464 -15.000000000000014  437.71062961317028 106.30684651295834 -149.99999999999966  
425.27025954418832 74.947134133908023 -14.999999999999986  445.27025954419378 94.947134133889946 -150.00000000000051  
434.94713413393879 65.270259544216174 -14.999999999999986  454.94713413393276 85.270259544235898 -149.9999999999996  
446.30684651292313 57.710629613156669 -15  466.30684651292836 77.710629613141492 -150.00000000000031  
458.82006103251064 52.570209271667181 -15.000000000000014  478.82006103250745 72.570209271675111 -149.99999999999983  
471.91003061004017 49.999999999999773 -15  491.91003061004119 69.999999999997499 -150.00000000000006  
485 50.000000000000128 -15.000000000000014  505 69.999999999999986 -150  

1 10
2 10

0 2
132 2

1 610.00000000000011 210.00000000000006 -150.00000000000009 -5.3797711652758922e-18 5.3963688394958401e-18 -1 0 -1 -5.3963688394958401e-18 -1 -2.9031229479913051e-35 5.3797711652758922e-18 
1 610 360.54357997200697 -78.830835188953685 1.8397350208512313e-16 0.9892034623538708 -0.14654866108946255 0 -0.14654866108946255 -0.9892034623538708 1 -1.8198722524397087e-16 2.6961070406514239e-17 
1 609.99999999999989 59.456420027993246 -78.830835188953657 -5.0222719502169692e-16 0.98920346235387102 0.14654866108946141 -2.4651903288156619e-32 -0.14654866108946141 0.98920346235387102 1 4.9680488020373537e-16 7.3600722993145532e-17 
9 0 0 0 0 9 1 10 2 2 2 810 295 -15  790 275 -150  
809.99999999999352 308.08996938995369 -15  789.99999999999761 288.08996938995642 -150  
807.42979072835681 321.17993896751062 -15  787.42979072834453 301.1799389675021 -150.00000000000011  
802.28937038679635 333.69315348703554 -15.000000000000014  782.28937038681727 313.69315348705112 -149.99999999999977  
794.72974045584772 345.05286586611578 -14.999999999999986  774.72974045582157 325.05286586609554 -150.00000000000028  
785.05286586602961 354.72974045576075 -15  765.05286586605393 334.72974045577928 -149.99999999999983  
773.69315348709733 362.28937038685996 -15  753.69315348708051 342.28937038684757 -150.00000000000011  
761.17993896748021 367.42979072832452 -15  741.17993896748817 347.42979072833009 -149.99999999999997  
748.08996938996211 370.00000000000261 -15  728.08996938996006 350.00000000000125 -150.00000000000003  
735 370 -15  715 350 -150  

5 10
6 10

0 2
132 2

9 0 0 0 0 9 1 10 2 2 2 735 50.000000000000263 -15  714.99999999999977 70.000000000000171 -150  
748.08996938995233 50.000000000002785 -15  728.0899693899546 70.000000000001506 -149.99999999999997  
761.17993896751614 52.570209271657099 -15  741.17993896750772 72.570209271660474 -150.00000000000017  
773.6931534870223 57.710629613176764 -15  753.69315348704072 77.710629613172614 -149.99999999999969  
785.05286586613477 65.270259544189912 -14.999999999999986  765.0528658661093 85.270259544190083 -150.00000000000051  
794.72974045574063 74.947134133934028 -14.999999999999986  774.72974045576723 94.947134133936245 -149.9999999999996  
802.28937038687434 86.306846512927649 -14.999999999999986  782.28937038685433 106.30684651292628 -150.00000000000034  
807.42979072831713 98.820061032508292 -15  787.42979072832782 118.82006103250829 -149.99999999999989  
810.00000000000466 111.91003061004088 -15  790.00000000000148 131.91003061004099 -150.00000000000006  
810 124.99999999999997 -15  790 144.99999999999997 -150  

3 10
4 10

0 2
132 2

1 800.69461051848418 210 -77.81137900023171 -0.9892034623538708 1.3279911858188523e-17 0.14654866108946235 -0.14654866108946235 0 -0.9892034623538708 -1.3136534789874312e-17 -1 1.9461533022036021e-18 
9 0 0 0 0 9 1 10 2 2 2 488 367 -15  508 347 -147  
474.91003061004358 367.00000000000023 -15  494.91003061004278 346.99999999999909 -147  
461.82006103249984 364.42979072833197 -15  481.82006103250279 344.42979072833617 -147  
449.30684651294195 359.28937038684484 -15  469.30684651293569 339.28937038683733 -147  
437.94713413391622 351.72974045578383 -15  457.94713413392554 331.72974045579178 -147  
428.27025954420793 342.05286586608958 -15  448.27025954419804 322.05286586608401 -147  
420.71062961316187 330.69315348705641 -15  440.71062961316949 310.69315348705902 -147  
415.57020927166536 318.17993896749931 -15  435.5702092716615 298.17993896749852 -147  
413.00000000000023 305.08996938995699 -15  433.00000000000114 285.08996938995722 -147  
413 292 -15  433 272 -147  

7 10
8 10

0 2
132 2

1 610 357.55710881168318 -77.323081842890758 1.7310201063151603e-17 0.98871550422476662 -0.14980537942799496 0 -0.14980537942799496 -0.98871550422476662 1 -1.711486417238603e-17 2.5931612382403078e-18 
9 0 0 0 0 9 1 10 2 2 2 807 292 -15  787 272 -147  
806.99999999999716 305.0899693899554 -15  786.99999999999648 285.08996938995699 -147  
804.42979072834521 318.17993896750653 -15  784.42979072834794 298.17993896749994 -147  
799.28937038681579 330.69315348704134 -15  779.28937038680988 310.69315348705578 -147  
791.72974045582271 342.05286586610947 -15  771.7297404558318 322.05286586608878 -147  
782.05286586605428 351.72974045576518 -15  762.05286586604336 331.7297404557861 -147  
770.69315348707914 359.28937038685785 -15  750.69315348708801 339.28937038684262 -147  
758.17993896748942 364.42979072832514 -15  738.17993896748465 344.42979072833253 -147  
745.08996938995972 367.00000000000256 -15  725.08996938996086 347.00000000000051 -147  
732 367 -15  712 347 -147  

5 10
6 10

0 2
132 2

1 797.71685539446742 210 -76.268754396515263 -0.98871550422476662 7.1913746448467217e-19 0.14980537942799499 -0.14980537942799499 0 -0.98871550422476662 -7.1102236080488285e-19 -1 1.0773066072801258e-19 
9 0 0 0 0 9 1 10 2 2 2 731.99999999999977 53.000000000000142 -15  711.99999999999977 73.000000000000099 -147  
745.0899693899546 53.000000000001421 -15  725.08996938995688 73.000000000001904 -147  
758.17993896750829 55.570209271660666 -15  738.17993896749874 75.570209271658783 -147  
770.69315348703822 60.710629613171932 -15  750.6931534870605 80.710629613176309 -147  
782.05286586611555 68.270259544190793 -15  762.05286586608008 88.270259544184995 -147  
791.72974045575734 77.947134133935918 -15  771.72974045579736 97.947134133941177 -147  
799.28937038686445 89.306846512926029 -15  779.28937038683307 109.30684651292282 -147  
804.42979072832145 101.82006103250863 -15  784.42979072833759 121.82006103251011 -147  
807.00000000000364 114.91003061004083 -15  786.99999999999909 134.91003061004039 -147  
807 128 -15  787 148 -147  

3 10
4 10

0 2
132 2

1 609.99999999999989 62.442891188316807 -77.323081842890744 -4.5296233636686742e-16 0.98871550422476673 0.14980537942799493 0 -0.14980537942799493 0.98871550422476673 1 4.4785088479579557e-16 6.7856194666029624e-17 
9 0 0 0 0 9 1 10 2 2 2 413 128.00000000000006 -15  433 148 -147  
413.00000000000148 114.9100306100448 -15  433.00000000000171 134.91003061004409 -147  
415.57020927166161 101.82006103249417 -15  435.5702092716607 121.82006103249704 -147  
420.71062961316852 89.306846512956056 -15  440.71062961317034 109.30684651295003 -147  
428.27025954419753 77.947134133894139 -15  448.27025954419526 97.947134133902779 -147  
437.94713413392765 68.270259544231195 -15  457.94713413392924 88.270259544221958 -147  
449.30684651293268 60.710629613144846 -15  469.30684651293211 80.710629613152037 -147  
461.82006103250501 55.570209271673541 -15  481.82006103250512 75.570209271669725 -147  
474.91003061004199 52.999999999997897 -15  494.91003061004199 72.999999999999019 -147  
488 52.999999999999993 -15  508 72.999999999999972 -147  

1 10
2 10

0 2
132 2

1 422.2831446055327 210.00000000000009 -76.268754396515277 -0.98871550422476662 2.240463411490417e-17 -0.14980537942799504 -0.14980537942799504 -1.1555579666323415e-33 0.98871550422476662 -2.2151809115888884e-17 -1 -3.3563347145286225e-18 
1 433 272 -147 0 0 -1 -1 0 -0 0 1 0 
Triangulations 0

TShapes 122
Ve
1.01e-07
410 295 -3
0 0

0101101
*
Ve
1.01e-07
430 275 -138
0 0

0101101
*
Ed
 1e-07 1 1 0
1  1 0 0 132
2  1 1 0 0 132
2  2 2 0 0 132
4 G1 1 0 2 0
0

0101000
+122 3 -121 3 *
Ve
1.01e-07
410 125 -3
0 0

0101101
*
Ed
 1e-07 1 1 0
1  2 0 0 1
2  3 1 5 0 1
2  4 3 5 0 1
0

0101000
+122 6 -119 6 *
Ve
1.01e-07
430 145 -138
0 0

0101101
*
Ed
 1e-07 1 1 0
1  3 0 0 132
2  5 1 0 0 132
2  6 4 0 0 132
4 G1 1 0 4 0
0

0101000
+119 3 -117 3 *
Ed
 1e-07 1 1 0
1  4 0 0 1
2  7 1 8 0 1
2  8 5 8 0 1
0

0101000
+121 9 -117 9 *
Wi

0101100
-120 0 +118 4 +116 0 -115 7 *
Fa
0  1e-07 1 0

0101000
+114 0 *
Ve
1.01e-07
485 370 -3
0 0

0101101
*
Ve
1.01e-07
505 350 -138
0 0

0101101
*
Ed
 1e-07 1 1 0
1  5 0 0 132
2  9 2 0 0 132
2  10 6 0 0 132
4 G1 2 0 6 0
0

0101000
+112 3 -111 3 *
Ed
 1e-07 1 1 0
1  6 0 7 8
2  11 2 5 7 8
2  12 3 5 7 8
0

0101000
+112 6 -122 6 *
Ed
 1e-07 1 1 0
1  7 0 7 8
2  13 2 8 7 8
2  14 5 8 7 8
0

0101000
+111 9 -121 9 *
Wi

0101000
-110 2 +109 10 -108 11 +120 2 *
Fa
0  1e-07 2 2

0101000
+107 0 *
Ve
1.01e-07
485 50.0000000000001 -3
0 0

0101101
*
Ed
 1e-07 1 1 0
1  8 0 1 2
2  15 3 5 1 2
2  16 4 5 1 2
0

0101000
+119 6 -105 6 *
Ve
1.01e-07
735 370 -3
0 0

0101101
*
Ed
 1e-07 1 1 0
1  9 0 6 7
2  17 3 5 6 7
2  18 6 5 6 7
0

0101000
+103 6 -112 6 *
Ve
1.01e-07
735 50.0000000000003 -3
0 0

0101101
*
Ed
 1e-07 1 1 0
1  10 0 2 3
2  19 3 5 2 3
2  20 7 5 2 3
0

0101000
+105 6 -101 6 *
Ve
1.01e-07
810 295 -3
0 0

0101101
*
Ed
 1e-07 1 1 0
1  11 0 5 6
2  21 3 5 5 6
2  22 8 5 5 6
0

0101000
+99 6 -103 6 *
Ve
1.01e-07
810 125 -3
0 0

0101101
*
Ed
 1e-07 1 1 0
1  12 0 3 4
2  23 3 5 3 4
2  24 9 5 3 4
0

0101000
+101 6 -97 6 *
Ed
 1e-07 1 1 0
1  13 0 4 5
2  25 3 5 4 5
2  26 10 5 4 5
0

0101000
+97 6 -99 6 *
Wi

0101000
-118 10 -109 10 -104 10 -102 10 -100 10 -98 10 -96 10 -95 10 *
Ve
1.01e-07
488 367 -3
0 0

0101101
*
Ve
1.01e-07
413 292 -3
0 0

0101101
*
Ed
 1e-07 1 1 0
1  14 0 7 8
2  27 3 15 7 8
2  28 11 16 7 8
0

0101000
+93 17 -92 17 *
Ve
1.01e-07
732 367 -3
0 0

0101101
*
Ed
 1e-07 1 1 0
1  15 0 6 7
2  29 3 15 6 7
2  30 12 16 6 7
0

0101000
+90 17 -93 17 *
Ve
1.01e-07
807 292 -3
0 0

0101101
*
Ed
 1e-07 1 1 0
1  16 0 5 6
2  31 3 15 5 6
2  32 13 16 5 6
0

0101000
+88 17 -90 17 *
Ve
1.01e-07
807 128 -3
0 0

0101101
*
Ed
 1e-07 1 1 0
1  17 0 4 5
2  33 3 15 4 5
2  34 14 16 4 5
0

0101000
+86 17 -88 17 *
Ve
1.01e-07
732 53.0000000000001 -3
0 0

0101101
*
Ed
 1e-07 1 1 0
1  18 0 3 4
2  35 3 15 3 4
2  36 15 16 3 4
0

0101000
+84 17 -86 17 *
Ve
1.01e-07
488 53 -3
0 0

0101101
*
Ed
 1e-07 1 1 0
1  19 0 2 3
2  37 3 15 2 3
2  38 16 16 2 3
0

0101000
+82 17 -84 17 *
Ve
1.01e-07
413 128 -3
0 0

0101101
*
Ed
 1e-07 1 1 0
1  20 0 1 2
2  39 3 15 1 2
2  40 17 16 1 2
0

0101000
+80 17 -82 17 *
Ed
 1e-07 1 1 0
1  21 0 0 1
2  41 3 15 0 1
2  42 18 16 0 1
0

0101000
+92 17 -80 17 *
Wi

0101000
+91 14 +89 14 +87 14 +85 14 +83 14 +81 14 +79 14 +78 14 *
Fa
0  1e-07 3 2

0101000
+94 0 +77 0 *
Ve
1.01e-07
505 70 -138
0 0

0101101
*
Ed
 1e-07 1 1 0
1  22 0 1 2
2  43 4 8 1 2
2  44 5 8 1 2
0

0101000
+117 9 -75 9 *
Ed
 1e-07 1 1 0
1  23 0 0 132
2  45 4 0 0 132
2  46 7 0 0 132
4 G1 4 0 7 0
0

0101000
+105 3 -75 3 *
Wi

0101000
-116 2 +104 10 -74 11 +73 2 *
Fa
0  1e-07 4 2

0101000
+72 0 *
Ve
1.01e-07
715 70.0000000000001 -138
0 0

0101101
*
Ed
 1e-07 1 1 0
1  24 0 2 3
2  47 5 8 2 3
2  48 7 8 2 3
0

0101000
+75 9 -70 9 *
Ve
1.01e-07
790 145 -138
0 0

0101101
*
Ed
 1e-07 1 1 0
1  25 0 3 4
2  49 5 8 3 4
2  50 9 8 3 4
0

0101000
+70 9 -68 9 *
Ve
1.01e-07
790 275 -138
0 0

0101101
*
Ed
 1e-07 1 1 0
1  26 0 4 5
2  51 5 8 4 5
2  52 10 8 4 5
0

0101000
+68 9 -66 9 *
Ve
1.01e-07
715 350 -138
0 0

0101101
*
Ed
 1e-07 1 1 0
1  27 0 5 6
2  53 5 8 5 6
2  54 8 8 5 6
0

0101000
+66 9 -64 9 *
Ed
 1e-07 1 1 0
1  28 0 6 7
2  55 5 8 6 7
2  56 6 8 6 7
0

0101000
+64 9 -111 9 *
Wi

0101100
+115 7 +74 7 +69 7 +67 7 +65 7 +63 7 +62 7 +108 7 *
Fa
0  1e-07 5 0

0101000
-61 0 *
Ed
 1e-07 1 1 0
1  29 0 0 132
2  57 6 0 0 132
2  58 8 0 0 132
4 G1 6 0 8 0
0

0101000
+103 3 -64 3 *
Wi

0101100
-59 0 +102 4 +110 0 -62 7 *
Fa
0  1e-07 6 0

0101000
+58 0 *
Ed
 1e-07 1 1 0
1  30 0 0 132
2  59 7 0 0 132
2  60 9 0 0 132
4 G1 7 0 9 0
0

0101000
+101 3 -70 3 *
Wi

0101100
-73 0 +100 4 +56 0 -69 7 *
Fa
0  1e-07 7 0

0101000
+55 0 *
Ed
 1e-07 1 1 0
1  31 0 0 132
2  61 8 0 0 132
2  62 10 0 0 132
4 G1 8 0 10 0
0

0101000
+99 3 -66 3 *
Wi

0101000
-53 2 +98 10 -63 11 +59 2 *
Fa
0  1e-07 8 2

0101000
+52 0 *
Ed
 1e-07 1 1 0
1  32 0 0 132
2  63 9 0 0 132
2  64 10 0 0 132
4 G1 9 0 10 0
0

0101000
+97 3 -68 3 *
Wi

0101000
-56 2 +96 10 -67 11 +50 2 *
Fa
0  1e-07 9 2

0101000
+49 0 *
Wi

0101100
-50 0 +95 4 +53 0 -65 7 *
Fa
0  1e-07 10 0

0101000
+47 0 *
Ve
1.01e-07
508 347 -135
0 0

0101101
*
Ed
 1e-07 1 1 0
1  33 0 0 132
2  65 11 0 0 132
2  66 12 0 0 132
4 G1 11 0 12 0
0

0101000
+93 18 -45 18 *
Ve
1.01e-07
433 272 -135
0 0

0101101
*
Ed
 1e-07 1 1 0
1  34 0 7 8
2  67 11 21 7 8
2  68 19 21 7 8
0

0101000
+45 22 -43 22 *
Ed
 1e-07 1 1 0
1  35 0 0 132
2  69 11 0 0 132
2  70 18 0 0 132
4 G1 11 0 18 0
0

0101000
+92 18 -43 18 *
Wi

0101000
-44 13 +91 14 -42 20 +41 13 *
Fa
0  1e-07 11 13

0101000
+40 0 *
Ve
1.01e-07
712 347 -135
0 0

0101101
*
Ed
 1e-07 1 1 0
1  36 0 0 132
2  71 12 0 0 132
2  72 13 0 0 132
4 G1 12 0 13 0
0

0101000
+90 18 -38 18 *
Ed
 1e-07 1 1 0
1  37 0 6 7
2  73 12 21 6 7
2  74 19 21 6 7
0

0101000
+38 22 -45 22 *
Wi

0101000
-37 13 +89 14 -36 20 +44 13 *
Fa
0  1e-07 12 13

0101000
+35 0 *
Ve
1.01e-07
787 272 -135
0 0

0101101
*
Ed
 1e-07 1 1 0
1  38 0 0 132
2  75 13 0 0 132
2  76 14 0 0 132
4 G1 13 0 14 0
0

0101000
+88 18 -33 18 *
Ed
 1e-07 1 1 0
1  39 0 5 6
2  77 13 21 5 6
2  78 19 21 5 6
0

0101000
+33 22 -38 22 *
Wi

0101000
-32 13 +87 14 -31 20 +37 13 *
Fa
0  1e-07 13 13

0101000
+30 0 *
Ve
1.01e-07
787 148 -135
0 0

0101101
*
Ed
 1e-07 1 1 0
1  40 0 0 132
2  79 14 0 0 132
2  80 15 0 0 132
4 G1 14 0 15 0
0

0101000
+86 18 -28 18 *
Ed
 1e-07 1 1 0
1  41 0 4 5
2  81 14 21 4 5
2  82 19 21 4 5
0

0101000
+28 22 -33 22 *
Wi

0101000
-27 13 +85 14 -26 20 +32 13 *
Fa
0  1e-07 14 13

0101000
+25 0 *
Ve
1.01e-07
712 73.0000000000001 -135
0 0

0101101
*
Ed
 1e-07 1 1 0
1  42 0 0 132
2  83 15 0 0 132
2  84 16 0 0 132
4 G1 15 0 16 0
0

0101000
+84 18 -23 18 *
Ed
 1e-07 1 1 0
1  43 0 3 4
2  85 15 21 3 4
2  86 19 21 3 4
0

0101000
+23 22 -28 22 *
Wi

0101000
-22 13 +83 14 -21 20 +27 13 *
Fa
0  1e-07 15 13

0101000
+20 0 *
Ve
1.01e-07
508 73 -135
0 0

0101101
*
Ed
 1e-07 1 1 0
1  44 0 0 132
2  87 16 0 0 132
2  88 17 0 0 132
4 G1 16 0 17 0
0

0101000
+82 18 -18 18 *
Ed
 1e-07 1 1 0
1  45 0 2 3
2  89 16 21 2 3
2  90 19 21 2 3
0

0101000
+18 22 -23 22 *
Wi

0101000
-17 13 +81 14 -16 20 +22 13 *
Fa
0  1e-07 16 13

0101000
+15 0 *
Ve
1.01e-07
433 148 -135
0 0

0101101
*
Ed
 1e-07 1 1 0
1  46 0 0 132
2  91 17 0 0 132
2  92 18 0 0 132
4 G1 17 0 18 0
0

0101000
+80 18 -13 18 *
Ed
 1e-07 1 1 0
1  47 0 1 2
2  93 17 21 1 2
2  94 19 21 1 2
0

0101000
+13 22 -18 22 *
Wi

0101000
-12 13 +79 14 -11 20 +17 13 *
Fa
0  1e-07 17 13

0101000
+10 0 *
Ed
 1e-07 1 1 0
1  48 0 0 1
2  95 18 21 0 1
2  96 19 21 0 1
0

0101000
+43 22 -13 22 *
Wi

0101000
-41 13 +78 14 -8 20 +12 13 *
Fa
0  1e-07 18 13

0101000
+7 0 *
Wi

0101000
-8 20 -42 20 -11 20 -36 20 -16 20 -31 20 -21 20 -26 20 *
Fa
0  1e-07 19 13

0101000
+5 0 *
Sh

0101000
-113 2 -106 0 -76 0 -71 0 +60 2 -57 2 -54 2 -51 0 -48 0 -46 2 
+39 0 +34 0 +29 0 +24 0 +19 0 +14 0 +9 0 +6 0 -4 0 *
So

0100000
+3 0 *
Co

1100000
+2 0 *

+1 1 