DBRep_DrawableShape

CASCADE Topology V1, (c) Matra-Datavision
Locations 42
1
              1               0               0               0 
              0               1               0               0 
              0               0               1               0 
1
              1               0               0               0 
              0               1               0               0 
              0               0               1               0 
1
              1               0               0               0 
              0               1               0               0 
              0               0               1               0 
1
              1               0               0               0 
              0               1               0               0 
              0               0               1               0 
1
              1               0               0               0 
              0               1               0               0 
              0               0               1               0 
2  2 1 3 -1 4 1 5 -1 0
2  1 -1 5 1 4 -1 3 1 2 -1 0
1
              1               0               0               0 
              0               1               0               0 
              0               0               1               0 
1
              1               0               0               0 
              0               1               0               0 
              0               0               1               0 
2  8 1 9 -1 0
2  9 1 8 -1 0
2  8 -1 0
2  1 -1 5 1 4 -1 3 1 2 -1 9 1 8 -1 0
1
              1               0               0              -0 
              0               1               0              -0 
              0               0               1              -3 
2  8 1 9 -1 14 1 0
2  14 -1 9 1 8 -1 0
2  1 -1 5 1 4 -1 3 1 2 -1 14 -1 9 1 8 -1 0
2  4 1 5 -1 0
2  2 1 3 -1 0
2  8 1 9 -1 2 1 3 -1 0
2  8 1 9 -1 14 1 2 1 3 -1 0
2  9 -1 2 1 3 -1 4 1 5 -1 0
2  8 1 9 -1 2 1 3 -1 4 1 5 -1 0
2  9 -1 14 1 2 1 3 -1 4 1 5 -1 0
1
              1               0               0               0 
              0              -1               0              -0 
              0               0              -1              -3 
2  25 1 3 -1 4 1 5 -1 0
2  9 -1 14 1 2 1 25 -1 0
2  3 1 25 -1 0
2  1 -1 5 1 4 -1 3 1 25 -1 0
2  8 1 9 -1 14 1 2 1 3 -1 4 1 5 -1 0
2  2 -1 14 -1 9 1 8 -1 0
2  1 -1 5 1 4 -1 0
2  25 1 3 -1 0
1
              1               0               0               0 
              0               1               0               0 
              0               0               1             -18 
2  25 1 3 -1 34 1 0
2  34 -1 3 1 25 -1 0
2  25 -1 0
2  1 -1 5 1 4 -1 34 -1 3 1 25 -1 0
2  3 -1 4 1 5 -1 0
2  1 -1 0
2  3 -1 34 1 4 1 5 -1 0
2  25 1 3 -1 34 1 4 1 5 -1 0
Curve2ds 192
1 0 0 0 -1 
1 1.5707963267948966 0 0 -1 
1 1194 0 0 -1 
1 1.5707963267948966 0 0 -1 
1 0 0 1 0 
1 -1194 0 1 0 
1 0 -3 1 0 
1 -1194 0 1 0 
1 0 0 0 -1 
1 430 0 0 -1 
1 0 0 1 0 
2 -1194 -19 -1 0 0 1 19
1 0 -3 1 0 
2 -1194 -19 -1 0 0 1 19
1 0 0 1 0 
2 0 -19 -1 0 0 1 19
1 0 -3 1 0 
2 0 -19 -1 0 0 1 19
1 3.1415926535897931 0 0 -1 
1 0 0 0 -1 
1 19 -19 0 -1 
1 0 0 1 0 
2 0 -449 -1 0 0 1 19
1 0 0 1 0 
1 -1213 -449 0 1 
1 0 0 1 0 
1 0 -468 -1 0 
1 0 0 1 0 
2 -1194 -449 -1 0 0 1 19
1 0 0 1 0 
2 -19.000000000005734 -37.999999490532048 -1 0 0 1 19
1 0 0 1 0 
1 -19.004399999988514 -19.000000000005741 -1 0 
1 0 0 1 0 
1 -5.7411853049416095e-12 -38 0 -1 
1 0 0 1 0 
2 -1174.999994 -38.000005999999985 -1 0 0 1 19.000005999999985
1 0 0 1 0 
2 -19 -430 -1 0 0 1 19
1 0 0 1 0 
1 -1194 -38 0 -1 
1 0 0 1 0 
1 -19 -449 -1 0 
1 0 0 1 0 
2 -1175 -430 -1 0 0 1 19
1 0 0 1 0 
2 -1181 -32.000000000005741 -1 0 -0 -1 19
1 0 0 1 0 
1 -13.004399999988514 -13.000000000005741 -1 0 
1 0 0 1 0 
1 -1200 -436 0 1 
1 0 0 1 0 
2 -13.000000000005734 -31.999999490532048 -1 0 -0 -1 19
1 0 0 1 0 
2 -1181 -436 -1 0 -0 -1 19
1 0 0 1 0 
1 5.9999999999942588 -32 0 -1 
1 0 0 1 0 
1 -13 -455 -1 0 
1 0 0 1 0 
2 -13.000000000005741 -436 -1 0 -0 -1 19
1 0 0 1 0 
1 19 -19 0 -1 
1 0 -3 1 0 
2 0 -449 -1 0 0 1 19
1 0 -3 1 0 
1 -1213 -449 0 1 
1 0 -3 1 0 
1 0 -468 -1 0 
1 0 -3 1 0 
2 -1194 -449 -1 0 0 1 19
1 0 -3 1 0 
1 0 0 0 -1 
1 6.2831853071795862 0 0 -1 
1 430 0 0 -1 
1 3.1415926535897931 0 0 -1 
1 4.7123889803846897 0 0 -1 
1 0 0 0 -1 
1 1194 0 0 -1 
1 4.7123889803846897 0 0 -1 
1 1.5705647478463647 0 0 -1 
1 0 0 0 -1 
1 0 -3 1 0 
2 -1161.9999999999943 -24.999999490526307 1 0 -0 1 19
1 3.1415926804032916 0 0 -1 
1 -5.7411853049416095e-12 0 0 -1 
1 0 -3 1 0 
1 -1161.9956000000116 -6 1 0 
1 1155.9956000000116 0 0 -1 
1 1.570796011005521 0 0 -1 
1 0 -3 1 0 
1 -1180.9999999999943 -24.999999999994259 0 -1 
1 392 0 0 -1 
1 3.1415926535897931 0 0 -1 
1 3.1578937391188729e-07 0 0 -1 
1 0 0 0 -1 
1 0 -3 1 0 
2 -6.0000059999999849 -25.000005999994244 1 0 -0 1 19.000005999999985
1 0 -3 1 0 
2 -1162 -416.99999999999426 1 0 -0 1 19
1 4.7123889803846897 0 0 -1 
1 0 0 0 -1 
1 0 -3 1 0 
1 13 -24.999999999994259 0 -1 
1 392 0 0 -1 
1 6.2831853071795862 0 0 -1 
1 0 -3 1 0 
1 -1162 -435.99999999999426 1 0 
1 1156 0 0 -1 
1 4.7123889803846897 0 0 -1 
1 0 -3 1 0 
2 -6 -416.99999999999426 1 0 -0 1 19
1 4.7123889803846897 0 0 -1 
1 1167.9956000000116 0 0 -1 
1 0 -18 1 0 
2 0 -19 1 0 0 -1 19
1 6.2831853071792843 0 0 -1 
1 404 0 0 -1 
1 0 0 0 -1 
1 4.7126205593332218 0 0 -1 
1 0 -18 1 0 
1 -1167.9956000000116 0 1 0 
1 0 0 0 -1 
1 0 0 0 -1 
1 0 -18 1 0 
1 19 -422.99999999999426 0 1 
1 3.1415926267756906 0 0 -1 
1 0 0 0 -1 
1 0 -18 1 0 
2 -1167.9999999999943 -18.999999490526307 1 0 0 -1 19
1 0 -18 1 0 
2 0 -422.99999999999426 1 0 0 -1 19
1 1.5707963267948966 0 0 -1 
1 1168 0 0 -1 
1 0 -18 1 0 
1 -1186.9999999999943 -18.999999999994259 0 -1 
1 404 0 0 -1 
1 3.1415926535897931 0 0 -1 
1 0 0 0 -1 
1 1.5707963267951988 0 0 -1 
1 0 -18 1 0 
1 -1168 -441.99999999999426 1 0 
1 0 -18 1 0 
2 -1167.9999999999943 -422.99999999999426 1 0 0 -1 19
2 -465 -159.99999999999426 0 -1 1 0 75
1 -1.5707963267948966 -1 1 0 
8 -357.5 -107.5
1 -357.5 -84.999999999994259 1 0 
8 -357.5 -107.5
1 357.5 -1 1 0 
2 -715 -159.99999999999426 0 -1 1 0 75
1 -1.5707963267948966 -1 1 0 
8 79.999999999997158 249.99999999999716
1 -790 -79.999999999997101 0 -1 
8 79.999999999997158 249.99999999999716
1 -79.999999999997158 -1 1 0 
2 -715 -329.99999999999426 0 -1 1 0 75
1 -1.5707963267948966 -1 1 0 
8 -357.5 -107.5
1 -357.5 -404.99999999999415 1 0 
8 -357.5 -107.5
1 357.5 -1 1 0 
2 -465 -329.99999999999415 0 -1 1 0 75
1 4.7123889803846897 -1 1 0 
8 79.999999999997158 249.99999999999719
1 -390 -79.999999999997101 0 -1 
8 79.999999999997158 249.99999999999719
1 -79.999999999997158 -1 1 0 
2 -465 -159.99999999999426 0 -1 1 0 75
1 -1.5707963267948966 -19 1 0 
8 -357.5 -107.5
1 -357.5 -84.999999999994259 1 0 
8 -357.5 -107.5
1 357.5 -19 1 0 
2 -715 -159.99999999999426 0 -1 1 0 75
1 -1.5707963267948966 -19 1 0 
8 79.999999999997158 249.99999999999716
1 -790 -79.999999999997101 0 -1 
8 79.999999999997158 249.99999999999716
1 -79.999999999997158 -19 1 0 
2 -715 -329.99999999999426 0 -1 1 0 75
1 -1.5707963267948966 -19 1 0 
8 -357.5 -107.5
1 -357.5 -404.99999999999415 1 0 
8 -357.5 -107.5
1 357.5 -19 1 0 
2 -465 -329.99999999999415 0 -1 1 0 75
1 4.7123889803846897 -19 1 0 
8 79.999999999997158 249.99999999999719
1 -390 -79.999999999997101 0 -1 
8 79.999999999997158 249.99999999999719
1 -79.999999999997158 -19 1 0 
1 7.971713754839244e-17 0 0 -1 
1 0 0 0 -1 
1 1.5707963267948966 0 0 -1 
1 250 0 0 -1 
1 0 0 0 -1 
1 1.5707963267948966 0 0 -1 
1 3.1415926535897931 0 0 -1 
1 0 0 0 -1 
1 170 0 0 -1 
1 3.1415926535897931 0 0 -1 
1 4.7123889803846897 0 0 -1 
1 0 0 0 -1 
1 250 0 0 -1 
1 4.7123889803846897 0 0 -1 
1 6.2831853071795845 0 0 -1 
1 170.00000000000003 0 0 -1 
Curves 96
1 1213 468 0 -0 -0 -1 
1 19 468 0 -0 -0 -1 
1 1213 468 0 -1 0 0 
1 1213 468 0 -1 0 0 
1 1232 449 0 -0 -0 -1 
2 1213 449 0 0 0 1 1 0 -0 -0 1 0 19
2 1213 449 0 0 0 1 1 0 -0 -0 1 0 19
2 19 449 0 0 0 1 1 0 -0 -0 1 0 19
2 19 449 0 0 0 1 1 0 -0 -0 1 0 19
1 0 449 0 -0 -0 -1 
1 0 449 0 0 -1 0 
2 19 19 0 0 0 1 1 0 -0 -0 1 0 19
1 1232 18.999999999999996 0 0 1 0 
1 19 0 0 1 0 0 
2 1213 19 0 0 0 1 1 0 -0 -0 1 0 19
2 38.000000000005734 430.00000050946795 0 0 0 1 1 0 -0 -0 1 0 19
1 38.004399999988514 448.99999999999426 0 1 0 0 
1 19.000000000005741 430 0 0 -1 0 
2 1193.999994 429.99999400000002 0 0 0 1 1 0 -0 -0 1 0 19.000005999999999
2 38 38 0 0 0 1 1 0 -0 -0 1 0 19
1 1213 430 0 0 -1 0 
1 38 19 0 1 0 0 
2 1194 38 0 0 0 1 1 0 -0 -0 1 0 19
2 1200 -435.99999999999426 0 0 0 1 1 0 -0 -0 1 0 19
1 32.004399999988514 -454.99999999999426 0 1 0 0 
1 1219 -32 0 0 -1 0 
2 32.000000000005734 -436.00000050946795 0 0 0 1 1 0 -0 -0 1 0 19
2 1200 -32 0 0 0 1 1 0 -0 -0 1 0 19
1 13.000000000005741 -436 0 0 1 0 
1 32 -13 0 1 0 0 
2 32.000000000005741 -32 0 0 0 1 1 0 -0 -0 1 0 19
1 0 449 0 0 -1 0 
2 19 19 0 0 0 1 1 0 -0 -0 1 0 19
1 1232 18.999999999999996 0 0 1 0 
1 19 0 0 1 0 0 
2 1213 19 0 0 0 1 1 0 -0 -0 1 0 19
1 1232 18.999999999999996 0 -0 -0 -1 
1 0 19 0 -0 -0 -1 
1 19 0 0 -0 -0 -1 
1 1213 0 0 -0 -0 -1 
1 38.004399999988514 448.99999999999426 0 -0 -0 -1 
2 38.000000000005734 430.00000050946795 0 0 0 1 1 0 -0 -0 1 0 19
1 19.000000000005741 430.00000000000574 0 -0 -0 -1 
1 38.004399999988514 448.99999999999426 0 1 0 0 
1 1194 448.9999999999967 0 -0 -0 -1 
1 19.000000000005741 430 0 0 -1 0 
1 19.000000000002871 38 0 -0 -0 -1 
1 1212.9999999999995 430 0 -0 -0 -1 
2 1193.999994 429.99999400000002 0 0 0 1 1 0 -0 -0 1 0 19.000005999999999
2 38 38 0 0 0 1 1 0 -0 -0 1 0 19
1 38 19 0 -0 -0 -1 
1 1213 430 0 0 -1 0 
1 1213 38 0 -0 -0 -1 
1 38 19 0 1 0 0 
1 1194 19 0 -0 -0 -1 
2 1194 38 0 0 0 1 1 0 -0 -0 1 0 19
1 1200 454.99999999999426 -3 0 0 -1 
2 1200 -435.99999999999426 0 0 0 1 1 0 -0 -0 1 0 19
1 1219 436 -3 0 0 -1 
1 32.004399999988514 454.99999999999426 -3 0 0 -1 
1 32.004399999988514 -454.99999999999426 0 1 0 0 
1 1219 32 -3 0 0 -1 
1 1219 -32 0 0 -1 0 
1 13.000000000005741 436 -3 0 0 -1 
2 32.000000000005734 -436.00000050946795 0 0 0 1 1 0 -0 -0 1 0 19
2 1200 -32 0 0 0 1 1 0 -0 -0 1 0 19
1 1200 13 -3 0 0 -1 
1 13.000000000005741 -436 0 0 1 0 
1 13.000000000005741 32 -3 0 0 -1 
1 32 13 -3 0 0 -1 
1 32 -13 0 1 0 0 
2 32.000000000005741 -32 0 0 0 1 1 0 -0 -0 1 0 19
2 735 295 -3 0 0 1 0 -1 0 1 0 -0 75
1 842.5 370 -3 1 0 -0 
2 485 295 -3 0 0 1 0 -1 0 1 0 -0 75
1 410 374.99999999999716 -3 0 -1 0 
2 485 125 -3 0 0 1 0 -1 0 1 0 -0 75
1 842.5 50.000000000000121 -3 1 0 -0 
2 735 125.00000000000013 -3 0 0 1 0 -1 0 1 0 -0 75
1 810 374.99999999999716 -3 0 -1 0 
2 735 295 -21 0 0 1 0 -1 0 1 0 -0 75
1 842.5 370 -21 1 0 -0 
2 485 295 -21 0 0 1 0 -1 0 1 0 -0 75
1 410 374.99999999999716 -21 0 -1 0 
2 485 125 -21 0 0 1 0 -1 0 1 0 -0 75
1 842.5 50.000000000000121 -21 1 0 -0 
2 735 125.00000000000013 -21 0 0 1 0 -1 0 1 0 -0 75
1 810 374.99999999999716 -21 0 -1 0 
1 810 295 -2 -0 -0 -1 
1 735 370 -2 -0 -0 -1 
1 485 370 -2 -0 -0 -1 
1 410 295 -2 -0 -0 -1 
1 410 125 -2 -0 -0 -1 
1 485 50.000000000000064 -2 -0 -0 -1 
1 735 50.000000000000128 -2 -0 -0 -1 
1 810 124.99999999999997 -2 -0 -0 -1 
Polygon3D 0
PolygonOnTriangulations 0
Surfaces 36
1 1213 468 0 0 1 -0 -1 0 0 0 0 1 
2 1213 449 0 0 0 1 1 0 -0 -0 1 0 19
2 19 449 0 0 0 1 1 0 -0 -0 1 0 19
1 19 468 0 0 0 -1 -1 0 -0 0 1 0 
1 19 468 0 0 0 -1 -1 0 -0 0 1 0 
1 1232 18.999999999999996 0 1 0 0 -0 1 0 0 -0 1 
1 0 449 0 -1 0 0 0 -1 0 0 0 1 
2 19 19 0 0 0 1 1 0 -0 -0 1 0 19
1 19 0 0 0 -1 0 1 0 0 -0 0 1 
2 1213 19 0 0 0 1 1 0 -0 -0 1 0 19
2 38.000000000005734 430.00000050946795 0 0 0 1 1 0 -0 -0 1 0 19
1 38.004399999988514 448.99999999999426 0 0 -1 0 1 0 0 -0 0 1 
1 19.000000000005741 430 0 -1 0 0 0 -1 0 0 0 1 
2 1193.999994 429.99999400000002 0 0 0 1 1 0 -0 -0 1 0 19.000005999999999
2 38 38 0 0 0 1 1 0 -0 -0 1 0 19
1 1213 430 0 -1 0 0 0 -1 0 0 0 1 
1 38 19 0 0 -1 0 1 0 0 -0 0 1 
2 1194 38 0 0 0 1 1 0 -0 -0 1 0 19
2 1200 435.99999999999426 -3 -0 -0 1 1 0 0 0 -1 -0 19
1 32.004399999988514 454.99999999999426 -3 0 -1 0 1 0 0 -0 0 1 
1 1219 32 -3 1 -0 0 0 1 0 -0 0 1 
2 32.000000000005734 436.00000050946795 -3 -0 -0 1 1 0 0 0 -1 -0 19
2 1200 32 -3 -0 -0 1 1 0 0 0 -1 -0 19
1 13.000000000005741 436 -3 -1 -0 -0 0 -1 0 -0 0 1 
1 32 13 -3 0 -1 0 1 0 0 -0 0 1 
2 32.000000000005741 32 -3 -0 -0 1 1 0 0 0 -1 -0 19
1 1200 454.99999999999426 -3 0 0 1 1 0 -0 -0 1 0 
1 1200 454.99999999999426 -3 0 0 1 1 0 -0 -0 1 0 
2 735 295 -2 0 0 1 1 0 -0 -0 1 0 75
1 485 370 -2 0 -1 0 1 0 0 -0 0 1 
2 485 295 -2 0 0 1 1 0 -0 -0 1 0 75
1 410 295 -2 -1 0 0 0 -1 0 0 0 1 
2 485 125 -2 0 0 1 1 0 -0 -0 1 0 75
1 485 50.000000000000128 -2 0 -1 0 1 0 0 -0 0 1 
2 735 125.00000000000013 -2 0 0 1 1 0 -0 -0 1 0 75
1 810 295 -2 -1 0 0 0 -1 0 0 0 1 
Triangulations 0

TShapes 238
Ve
1e-07
1213 468 0
0 0

0101101
*
Ve
1e-07
1213 468 -3
0 0

0101101
*
Ed
 1e-07 1 1 0
1  1 0 0 3
2  1 1 0 0 3
2  2 2 0 0 3
4 G1 1 0 2 0
0

0101000
+238 7 -237 7 *
Ve
1e-07
19 468 0
0 0

0101101
*
Ve
1e-07
19 468 -3
0 0

0101101
*
Ed
 1e-07 1 1 0
1  2 0 0 3
2  3 1 0 0 3
2  4 3 0 0 3
4 G1 1 0 3 0
0

0101000
+235 7 -234 7 *
Ed
 1e-07 1 1 0
1  3 0 0 1194
2  5 1 11 0 1194
2  6 4 12 0 1194
0

0101000
+238 13 -235 13 *
Ed
 1e-07 1 1 0
1  4 0 0 1194
2  7 1 16 0 1194
2  8 5 12 0 1194
0

0101000
+237 17 -234 17 *
Wi

0101000
+236 0 -233 0 -232 10 +231 15 *
Fa
0  1e-07 1 0

0101000
+230 0 *
Ve
1e-07
1232 449 0
0 0

0101101
*
Ve
1e-07
1232 449 -3
0 0

0101101
*
Ed
 1e-07 1 1 0
1  5 0 0 3
2  9 2 0 0 3
2  10 6 0 0 3
4 G1 2 0 6 0
0

0101000
+228 7 -227 7 *
Ed
 1e-07 1 1 0
1  6 0 0 1.5707963267949
2  11 2 11 0 1.5707963267949
2  12 4 12 0 1.5707963267949
0

0101000
+228 13 -238 13 *
Ed
 1e-07 1 1 0
1  7 0 0 1.5707963267949
2  13 2 16 0 1.5707963267949
2  14 5 12 0 1.5707963267949
0

0101000
+227 17 -237 17 *
Wi

0101000
+226 19 -225 20 +224 21 -236 19 *
Fa
0  1e-07 2 19

0101000
+223 0 *
Ve
1e-07
0 449 0
0 0

0101101
*
Ed
 1e-07 1 1 0
1  8 0 1.5707963267949 3.14159265358979
2  15 3 11 1.5707963267949 3.14159265358979
2  16 4 12 1.5707963267949 3.14159265358979
0

0101000
+235 13 -221 13 *
Ve
1e-07
0 449 -3
0 0

0101101
*
Ed
 1e-07 1 1 0
1  9 0 1.5707963267949 3.14159265358979
2  17 3 16 1.5707963267949 3.14159265358979
2  18 5 12 1.5707963267949 3.14159265358979
0

0101000
+234 17 -219 17 *
Ed
 1e-07 1 1 0
1  10 0 0 3
2  19 3 0 0 3
2  20 7 0 0 3
4 G1 3 0 7 0
0

0101000
+221 7 -219 7 *
Wi

0101000
+233 19 -220 20 +218 21 -217 19 *
Fa
0  1e-07 3 19

0101000
+216 0 *
Ve
1.00000001776357e-07
0 19 0
0 0

0101101
*
Ed
 1e-07 1 1 0
1  11 0 0 430
2  21 4 12 0 430
2  22 7 11 0 430
0

0101000
+221 13 -214 13 *
Ve
1.00000001776357e-07
19 0 0
0 0

0101101
*
Ed
 1e-07 1 1 0
1  12 0 3.14159265358979 4.71238898038469
2  23 4 12 3.14159265358979 4.71238898038469
2  24 8 11 3.14159265358979 4.71238898038469
0

0101000
+214 13 -212 13 *
Ve
1e-07
1232 19 0
0 0

0101101
*
Ed
 1e-07 1 1 0
1  13 0 0 430
2  25 4 12 0 430
2  26 6 11 0 430
0

0101000
+210 13 -228 13 *
Ve
1e-07
1213 0 0
0 0

0101101
*
Ed
 1e-07 1 1 0
1  14 0 0 1194
2  27 4 12 0 1194
2  28 9 11 0 1194
0

0101000
+212 13 -208 13 *
Ed
 1e-07 1 1 0
1  15 0 4.71238898038469 6.28318530717959
2  29 4 12 4.71238898038469 6.28318530717959
2  30 10 11 4.71238898038469 6.28318530717959
0

0101000
+208 13 -210 13 *
Wi

0101000
-220 23 -232 23 -213 23 -225 23 -211 23 -209 23 -207 23 -206 23 *
Ve
1e-07
38.0043999999885 448.999999999994 0
0 0

0101101
*
Ve
1.00005741185305e-07
19.0000000000057 430.000000000006 0
0 0

0101101
*
Ed
 1e-07 1 1 0
1  16 0 1.57056474784636 3.14159268040329
2  31 4 12 1.57056474784636 3.14159268040329
2  32 11 11 1.57056474784636 3.14159268040329
0

0101000
+204 13 -203 13 *
Ve
1.00002415845302e-07
1194 448.999999999997 0
0 0

0101101
*
Ed
 1e-07 1 1 0
1  17 0 0 1155.99560000001
2  33 4 12 0 1155.99560000001
2  34 12 11 0 1155.99560000001
0

0101000
+204 13 -201 13 *
Ve
1.00002870592652e-07
19.0000000000029 38 0
0 0

0101101
*
Ed
 1e-07 1 1 0
1  18 0 0 392
2  35 4 12 0 392
2  36 13 11 0 392
0

0101000
+203 13 -199 13 *
Ve
1.00000454747351e-07
1213 430 0
0 0

0101101
*
Ed
 1e-07 1 1 0
1  19 0 3.15789373911887e-07 1.57079601100552
2  37 4 12 3.15789373911887e-07 1.57079601100552
2  38 14 11 3.15789373911887e-07 1.57079601100552
0

0101000
+197 13 -201 13 *
Ve
1e-07
38 19 0
0 0

0101101
*
Ed
 1e-07 1 1 0
1  20 0 3.14159265358979 4.71238898038469
2  39 4 12 3.14159265358979 4.71238898038469
2  40 15 11 3.14159265358979 4.71238898038469
0

0101000
+199 13 -195 13 *
Ve
1.00000003552714e-07
1213 38 0
0 0

0101101
*
Ed
 1e-07 1 1 0
1  21 0 0 392
2  41 4 12 0 392
2  42 16 11 0 392
0

0101000
+197 13 -193 13 *
Ve
1e-07
1194 19 0
0 0

0101101
*
Ed
 1e-07 1 1 0
1  22 0 0 1156
2  43 4 12 0 1156
2  44 17 11 0 1156
0

0101000
+195 13 -191 13 *
Ed
 1e-07 1 1 0
1  23 0 4.71238898038469 6.28318530717959
2  45 4 12 4.71238898038469 6.28318530717959
2  46 18 11 4.71238898038469 6.28318530717959
0

0101000
+191 13 -193 13 *
Wi

0101000
+202 23 -200 23 +198 23 +196 23 +194 23 -192 23 +190 23 +189 23 *
Fa
0  1e-07 4 22

0101000
+205 0 +188 0 *
Ve
1e-07
1200 454.999999999994 -3
0 0

0101101
*
Ve
1e-07
1219 436 -3
0 0

0101101
*
Ed
 1e-07 1 1 0
1  24 0 4.71238898038469 6.28318530717928
2  47 5 27 4.71238898038469 6.28318530717928
2  48 19 28 4.71238898038469 6.28318530717928
0

0101000
+186 29 -185 29 *
Ve
1e-07
32.0043999999885 454.999999999994 -3
0 0

0101101
*
Ed
 1e-07 1 1 0
1  25 0 0 1167.99560000001
2  49 5 27 0 1167.99560000001
2  50 20 28 0 1167.99560000001
0

0101000
+183 29 -186 29 *
Ve
1e-07
1219 32 -3
0 0

0101101
*
Ed
 1e-07 1 1 0
1  26 0 0 404
2  51 5 27 0 404
2  52 21 28 0 404
0

0101000
+181 29 -185 29 *
Ve
1e-07
13.0000000000057 436 -3
0 0

0101101
*
Ed
 1e-07 1 1 0
1  27 0 3.14159262677569 4.71262055933322
2  53 5 27 3.14159262677569 4.71262055933322
2  54 22 28 3.14159262677569 4.71262055933322
0

0101000
+179 29 -183 29 *
Ve
1e-07
1200 13 -3
0 0

0101101
*
Ed
 1e-07 1 1 0
1  28 0 0 1.5707963267949
2  55 5 27 0 1.5707963267949
2  56 23 28 0 1.5707963267949
0

0101000
+181 29 -177 29 *
Ve
1.00000001776357e-07
13.0000000000057 32 -3
0 0

0101101
*
Ed
 1e-07 1 1 0
1  29 0 0 404
2  57 5 27 0 404
2  58 24 28 0 404
0

0101000
+179 29 -175 29 *
Ve
1e-07
32 13 -3
0 0

0101101
*
Ed
 1e-07 1 1 0
1  30 0 0 1168
2  59 5 27 0 1168
2  60 25 28 0 1168
0

0101000
+173 29 -177 29 *
Ed
 1e-07 1 1 0
1  31 0 1.5707963267952 3.14159265358979
2  61 5 27 1.5707963267952 3.14159265358979
2  62 26 28 1.5707963267952 3.14159265358979
0

0101000
+173 29 -175 29 *
Wi

0101000
-184 26 -182 26 +180 26 -178 26 -176 26 +174 26 +172 26 -171 26 *
Ve
1.00000001776357e-07
0 19 -3
0 0

0101101
*
Ed
 1e-07 1 1 0
1  32 0 0 430
2  63 5 12 0 430
2  64 7 16 0 430
0

0101000
+219 17 -169 17 *
Ve
1.00000001776357e-07
19 0 -3
0 0

0101101
*
Ed
 1e-07 1 1 0
1  33 0 3.14159265358979 4.71238898038469
2  65 5 12 3.14159265358979 4.71238898038469
2  66 8 16 3.14159265358979 4.71238898038469
0

0101000
+169 17 -167 17 *
Ve
1e-07
1232 19 -3
0 0

0101101
*
Ed
 1e-07 1 1 0
1  34 0 0 430
2  67 5 12 0 430
2  68 6 16 0 430
0

0101000
+165 17 -227 17 *
Ve
1e-07
1213 0 -3
0 0

0101101
*
Ed
 1e-07 1 1 0
1  35 0 0 1194
2  69 5 12 0 1194
2  70 9 16 0 1194
0

0101000
+167 17 -163 17 *
Ed
 1e-07 1 1 0
1  36 0 4.71238898038469 6.28318530717959
2  71 5 12 4.71238898038469 6.28318530717959
2  72 10 16 4.71238898038469 6.28318530717959
0

0101000
+163 17 -165 17 *
Wi

0101000
-218 30 -231 30 -168 30 -224 30 -166 30 -164 30 -162 30 -161 30 *
Fa
0  1e-07 5 24

0101000
+170 0 +160 0 *
Ed
 1e-07 1 1 0
1  37 0 0 3
2  73 6 0 0 3
2  74 10 0 0 3
4 G1 6 0 10 0
0

0101000
+210 7 -165 7 *
Wi

0101000
+158 0 -226 0 -209 10 +164 15 *
Fa
0  1e-07 6 0

0101000
+157 0 *
Ed
 1.00000001776357e-07 1 1 0
1  38 0 0 3
2  75 7 0 0 3
2  76 8 0 0 3
4 G1 7 0 8 0
0

0101000
+214 7 -169 7 *
Wi

0101000
+217 0 -155 0 -213 10 +168 15 *
Fa
0  1e-07 7 0

0101000
+154 0 *
Ed
 1.00000001776357e-07 1 1 0
1  39 0 0 3
2  77 8 0 0 3
2  78 9 0 0 3
4 G1 8 0 9 0
0

0101000
+212 7 -167 7 *
Wi

0101000
+155 19 -211 20 +166 21 -152 19 *
Fa
0  1e-07 8 19

0101000
+151 0 *
Ed
 1e-07 1 1 0
1  40 0 0 3
2  79 9 0 0 3
2  80 10 0 0 3
4 G1 9 0 10 0
0

0101000
+208 7 -163 7 *
Wi

0101000
+152 0 -149 0 -207 10 +162 15 *
Fa
0  1e-07 9 0

0101000
+148 0 *
Wi

0101000
+149 19 -206 20 +161 21 -158 19 *
Fa
0  1e-07 10 19

0101000
+146 0 *
Ve
1e-07
38.0043999999885 448.999999999994 -3
0 0

0101101
*
Ed
 1e-07 1 1 0
1  41 0 0 3
2  81 11 0 0 3
2  82 12 0 0 3
4 G1 11 0 12 0
0

0101000
+204 7 -144 7 *
Ve
1.00005741185305e-07
19.0000000000057 430.000000000006 -3
0 0

0101101
*
Ed
 1e-07 1 1 0
1  42 0 1.57056474784636 3.14159268040329
2  83 11 16 1.57056474784636 3.14159268040329
2  84 27 31 1.57056474784636 3.14159268040329
0

0101000
+144 17 -142 17 *
Ed
 1.00005741185305e-07 1 1 0
1  43 0 0 3
2  85 11 0 0 3
2  86 13 0 0 3
4 G1 11 0 13 0
0

0101000
+203 7 -142 7 *
Wi

0101000
+143 19 -202 20 +141 21 -140 19 *
Fa
0  1e-07 11 19

0101000
+139 0 *
Ve
1.00002415845302e-07
1194 448.999999999997 -3
0 0

0101101
*
Ed
 1e-07 1 1 0
1  44 0 0 1155.99560000001
2  87 12 16 0 1155.99560000001
2  88 27 31 0 1155.99560000001
0

0101000
+144 17 -137 17 *
Ed
 1.00002415845302e-07 1 1 0
1  45 0 0 3
2  89 12 0 0 3
2  90 14 0 0 3
4 G1 12 0 14 0
0

0101000
+201 7 -137 7 *
Wi

0101000
+143 19 -200 20 +136 21 -135 19 *
Fa
0  1e-07 12 19

0101000
+134 0 *
Ve
1.00002870592652e-07
19.0000000000029 38 -3
0 0

0101101
*
Ed
 1e-07 1 1 0
1  46 0 0 392
2  91 13 16 0 392
2  92 27 31 0 392
0

0101000
+142 17 -132 17 *
Ed
 1.00002870592652e-07 1 1 0
1  47 0 0 3
2  93 13 0 0 3
2  94 15 0 0 3
4 G1 13 0 15 0
0

0101000
+199 7 -132 7 *
Wi

0101000
+140 19 -198 20 +131 21 -130 19 *
Fa
0  1e-07 13 19

0101000
+129 0 *
Ve
1.00000454747351e-07
1213 430 -3
0 0

0101101
*
Ed
 1.00000454747351e-07 1 1 0
1  48 0 0 3
2  95 14 0 0 3
2  96 16 0 0 3
4 G1 14 0 16 0
0

0101000
+197 7 -127 7 *
Ed
 1e-07 1 1 0
1  49 0 3.15789373911887e-07 1.57079601100552
2  97 14 16 3.15789373911887e-07 1.57079601100552
2  98 27 31 3.15789373911887e-07 1.57079601100552
0

0101000
+127 17 -137 17 *
Wi

0101000
+126 19 -196 20 +125 21 -135 19 *
Fa
0  1e-07 14 19

0101000
+124 0 *
Ve
1e-07
38 19 -3
0 0

0101101
*
Ed
 1e-07 1 1 0
1  50 0 3.14159265358979 4.71238898038469
2  99 15 16 3.14159265358979 4.71238898038469
2  100 27 31 3.14159265358979 4.71238898038469
0

0101000
+132 17 -122 17 *
Ed
 1e-07 1 1 0
1  51 0 0 3
2  101 15 0 0 3
2  102 17 0 0 3
4 G1 15 0 17 0
0

0101000
+195 7 -122 7 *
Wi

0101000
+130 19 -194 20 +121 21 -120 19 *
Fa
0  1e-07 15 19

0101000
+119 0 *
Ve
1.00000003552714e-07
1213 38 -3
0 0

0101101
*
Ed
 1e-07 1 1 0
1  52 0 0 392
2  103 16 16 0 392
2  104 27 31 0 392
0

0101000
+127 17 -117 17 *
Ed
 1.00000003552714e-07 1 1 0
1  53 0 0 3
2  105 16 0 0 3
2  106 18 0 0 3
4 G1 16 0 18 0
0

0101000
+193 7 -117 7 *
Wi

0101000
+126 19 -192 20 +116 21 -115 19 *
Fa
0  1e-07 16 19

0101000
+114 0 *
Ve
1e-07
1194 19 -3
0 0

0101101
*
Ed
 1e-07 1 1 0
1  54 0 0 1156
2  107 17 16 0 1156
2  108 27 31 0 1156
0

0101000
+122 17 -112 17 *
Ed
 1e-07 1 1 0
1  55 0 0 3
2  109 17 0 0 3
2  110 18 0 0 3
4 G1 17 0 18 0
0

0101000
+191 7 -112 7 *
Wi

0101000
+120 19 -190 20 +111 21 -110 19 *
Fa
0  1e-07 17 19

0101000
+109 0 *
Ed
 1e-07 1 1 0
1  56 0 4.71238898038469 6.28318530717959
2  111 18 16 4.71238898038469 6.28318530717959
2  112 27 31 4.71238898038469 6.28318530717959
0

0101000
+112 17 -117 17 *
Wi

0101000
+110 19 -189 20 +107 21 -115 19 *
Fa
0  1e-07 18 19

0101000
+106 0 *
Ve
1e-07
1200 454.999999999994 -21
0 0

0101101
*
Ed
 1e-07 1 1 0
1  57 0 0 18
2  113 19 0 0 18
2  114 20 0 0 18
4 G1 19 0 20 0
0

0101000
+186 32 -104 32 *
Ve
1e-07
1219 436 -21
0 0

0101101
*
Ed
 1e-07 1 1 0
1  58 0 4.71238898038469 6.28318530717928
2  115 19 36 4.71238898038469 6.28318530717928
2  116 28 37 4.71238898038469 6.28318530717928
0

0101000
+104 38 -102 38 *
Ed
 1e-07 1 1 0
1  59 0 0 18
2  117 19 0 0 18
2  118 21 0 0 18
4 G1 19 0 21 0
0

0101000
+185 32 -102 32 *
Wi

0101000
+103 0 -184 33 +101 35 -100 0 *
Fa
0  1e-07 19 0

0101000
+99 0 *
Ve
1e-07
32.0043999999885 454.999999999994 -21
0 0

0101101
*
Ed
 1e-07 1 1 0
1  60 0 0 18
2  119 20 0 0 18
2  120 22 0 0 18
4 G1 20 0 22 0
0

0101000
+183 32 -97 32 *
Ed
 1e-07 1 1 0
1  61 0 0 1167.99560000001
2  121 20 36 0 1167.99560000001
2  122 28 37 0 1167.99560000001
0

0101000
+97 38 -104 38 *
Wi

0101000
+96 0 -182 33 +95 35 -103 0 *
Fa
0  1e-07 20 0

0101000
+94 0 *
Ve
1e-07
1219 32 -21
0 0

0101101
*
Ed
 1e-07 1 1 0
1  62 0 0 18
2  123 21 0 0 18
2  124 23 0 0 18
4 G1 21 0 23 0
0

0101000
+181 32 -92 32 *
Ed
 1e-07 1 1 0
1  63 0 0 404
2  125 21 36 0 404
2  126 28 37 0 404
0

0101000
+92 38 -102 38 *
Wi

0101000
+91 0 -180 33 +90 35 -100 0 *
Fa
0  1e-07 21 0

0101000
+89 0 *
Ve
1e-07
13.0000000000057 436 -21
0 0

0101101
*
Ed
 1e-07 1 1 0
1  64 0 0 18
2  127 22 0 0 18
2  128 24 0 0 18
4 G1 22 0 24 0
0

0101000
+179 32 -87 32 *
Ed
 1e-07 1 1 0
1  65 0 3.14159262677569 4.71262055933322
2  129 22 36 3.14159262677569 4.71262055933322
2  130 28 37 3.14159262677569 4.71262055933322
0

0101000
+87 38 -97 38 *
Wi

0101000
+86 0 -178 33 +85 35 -96 0 *
Fa
0  1e-07 22 0

0101000
+84 0 *
Ve
1e-07
1200 13 -21
0 0

0101101
*
Ed
 1e-07 1 1 0
1  66 0 0 1.5707963267949
2  131 23 36 0 1.5707963267949
2  132 28 37 0 1.5707963267949
0

0101000
+92 38 -82 38 *
Ed
 1e-07 1 1 0
1  67 0 0 18
2  133 23 0 0 18
2  134 25 0 0 18
4 G1 23 0 25 0
0

0101000
+177 32 -82 32 *
Wi

0101000
+91 0 -176 33 +81 35 -80 0 *
Fa
0  1e-07 23 0

0101000
+79 0 *
Ve
1.00000001776357e-07
13.0000000000057 32 -21
0 0

0101101
*
Ed
 1e-07 1 1 0
1  68 0 0 404
2  135 24 36 0 404
2  136 28 37 0 404
0

0101000
+87 38 -77 38 *
Ed
 1.00000001776357e-07 1 1 0
1  69 0 0 18
2  137 24 0 0 18
2  138 26 0 0 18
4 G1 24 0 26 0
0

0101000
+175 32 -77 32 *
Wi

0101000
+86 0 -174 33 +76 35 -75 0 *
Fa
0  1e-07 24 0

0101000
+74 0 *
Ve
1e-07
32 13 -21
0 0

0101101
*
Ed
 1e-07 1 1 0
1  70 0 0 18
2  139 25 0 0 18
2  140 26 0 0 18
4 G1 25 0 26 0
0

0101000
+173 32 -72 32 *
Ed
 1e-07 1 1 0
1  71 0 0 1168
2  141 25 36 0 1168
2  142 28 37 0 1168
0

0101000
+72 38 -82 38 *
Wi

0101000
+71 0 -172 33 +70 35 -80 0 *
Fa
0  1e-07 25 0

0101000
+69 0 *
Ed
 1e-07 1 1 0
1  72 0 1.5707963267952 3.14159265358979
2  143 26 36 1.5707963267952 3.14159265358979
2  144 28 37 1.5707963267952 3.14159265358979
0

0101000
+72 38 -77 38 *
Wi

0101000
+71 0 -171 33 +67 35 -75 0 *
Fa
0  1e-07 26 0

0101000
+66 0 *
Ve
2.00001e-07
810 295 -3
0 0

0101101
*
Ve
2.00001e-07
735 370 -3
0 0

0101101
*
Ed
 1e-07 1 1 0
1  73 0 1.5707963267949 3.14159265358979
2  145 27 39 1.5707963267949 3.14159265358979
2  146 29 0 1.5707963267949 3.14159265358979
0

0101000
+64 40 -63 40 *
Ve
2.00001e-07
485 370 -3
0 0

0101101
*
Ed
 1e-07 1 1 0
1  74 0 -357.5 -107.5
2  147 27 39 -357.5 -107.5
2  148 30 0 -357.5 -107.5
0

0101000
+61 40 -63 40 *
Ve
2.00001e-07
410 295 -3
0 0

0101101
*
Ed
 1e-07 1 1 0
1  75 0 3.14159265358979 4.71238898038469
2  149 27 39 3.14159265358979 4.71238898038469
2  150 31 0 3.14159265358979 4.71238898038469
0

0101000
+61 40 -59 40 *
Ve
2.00001007105427e-07
410 125 -3
0 0

0101101
*
Ed
 1e-07 1 1 0
1  76 0 79.9999999999972 249.999999999997
2  151 27 39 79.9999999999972 249.999999999997
2  152 32 0 79.9999999999972 249.999999999997
0

0101000
+59 40 -57 40 *
Ve
2.00001063948846e-07
485 50.0000000000001 -3
0 0

0101101
*
Ed
 1e-07 1 1 0
1  77 0 4.71238898038469 6.28318530717959
2  153 27 39 4.71238898038469 6.28318530717959
2  154 33 0 4.71238898038469 6.28318530717959
0

0101000
+57 40 -55 40 *
Ve
2.00001e-07
735 50.0000000000001 -3
0 0

0101101
*
Ed
 1e-07 1 1 0
1  78 0 -357.5 -107.5
2  155 27 39 -357.5 -107.5
2  156 34 0 -357.5 -107.5
0

0101000
+55 40 -53 40 *
Ve
2.00001e-07
810 125 -3
0 0

0101101
*
Ed
 1e-07 1 1 0
1  79 0 0 1.57079632679489
2  157 27 39 0 1.57079632679489
2  158 35 0 0 1.57079632679489
0

0101000
+53 40 -51 40 *
Ed
 1e-07 1 1 0
1  80 0 79.9999999999972 249.999999999997
2  159 27 39 79.9999999999972 249.999999999997
2  160 36 0 79.9999999999972 249.999999999997
0

0101000
+64 40 -51 40 *
Wi

0101000
-62 0 +60 0 -58 0 -56 0 -54 0 -52 0 -50 0 +49 0 *
Wi

0101000
-136 30 +141 30 +125 30 +131 30 -116 30 +121 30 +107 30 +111 30 *
Fa
0  1e-07 27 39

0101000
+48 0 +47 0 *
Ve
2.00001e-07
810 295 -21
0 0

0101101
*
Ve
2.00001e-07
735 370 -21
0 0

0101101
*
Ed
 1e-07 1 1 0
1  81 0 1.5707963267949 3.14159265358979
2  161 28 41 1.5707963267949 3.14159265358979
2  162 29 0 1.5707963267949 3.14159265358979
0

0101000
+45 40 -44 40 *
Ve
2.00001e-07
485 370 -21
0 0

0101101
*
Ed
 1e-07 1 1 0
1  82 0 -357.5 -107.5
2  163 28 41 -357.5 -107.5
2  164 30 0 -357.5 -107.5
0

0101000
+42 40 -44 40 *
Ve
2.00001e-07
410 295 -21
0 0

0101101
*
Ed
 1e-07 1 1 0
1  83 0 3.14159265358979 4.71238898038469
2  165 28 41 3.14159265358979 4.71238898038469
2  166 31 0 3.14159265358979 4.71238898038469
0

0101000
+42 40 -40 40 *
Ve
2.00001007105427e-07
410 125 -21
0 0

0101101
*
Ed
 1e-07 1 1 0
1  84 0 79.9999999999972 249.999999999997
2  167 28 41 79.9999999999972 249.999999999997
2  168 32 0 79.9999999999972 249.999999999997
0

0101000
+40 40 -38 40 *
Ve
2.00001063948846e-07
485 50.0000000000001 -21
0 0

0101101
*
Ed
 1e-07 1 1 0
1  85 0 4.71238898038469 6.28318530717959
2  169 28 41 4.71238898038469 6.28318530717959
2  170 33 0 4.71238898038469 6.28318530717959
0

0101000
+38 40 -36 40 *
Ve
2.00001e-07
735 50.0000000000001 -21
0 0

0101101
*
Ed
 1e-07 1 1 0
1  86 0 -357.5 -107.5
2  171 28 41 -357.5 -107.5
2  172 34 0 -357.5 -107.5
0

0101000
+36 40 -34 40 *
Ve
2.00001e-07
810 125 -21
0 0

0101101
*
Ed
 1e-07 1 1 0
1  87 0 0 1.57079632679489
2  173 28 41 0 1.57079632679489
2  174 35 0 0 1.57079632679489
0

0101000
+34 40 -32 40 *
Ed
 1e-07 1 1 0
1  88 0 79.9999999999972 249.999999999997
2  175 28 41 79.9999999999972 249.999999999997
2  176 36 0 79.9999999999972 249.999999999997
0

0101000
+45 40 -32 40 *
Wi

0101000
-43 0 +41 0 -39 0 -37 0 -35 0 -33 0 -31 0 +30 0 *
Wi

0101000
-101 42 -95 42 +90 42 -85 42 -81 42 +76 42 +70 42 -67 42 *
Fa
0  1e-07 28 41

0101000
+29 0 +28 0 *
Ed
 1e-07 1 1 0
1  89 0 1 19
2  177 29 0 1 19
2  178 36 0 1 19
4 G1 29 0 36 0
0

0101000
+64 40 -45 40 *
Ed
 1e-07 1 1 0
1  90 0 1 19
2  179 29 0 1 19
2  180 30 0 1 19
4 G1 29 0 30 0
0

0101000
+63 40 -44 40 *
Wi

0101000
+26 0 -62 0 +43 0 -25 0 *
Fa
0  1e-07 29 0

0101000
+24 0 *
Ed
 1e-07 1 1 0
1  91 0 1 19
2  181 30 0 1 19
2  182 31 0 1 19
4 G1 30 0 31 0
0

0101000
+61 40 -42 40 *
Wi

0101000
+22 0 -60 0 +41 0 -25 0 *
Fa
0  1e-07 30 0

0101000
+21 0 *
Ed
 1e-07 1 1 0
1  92 0 1 19
2  183 31 0 1 19
2  184 32 0 1 19
4 G1 31 0 32 0
0

0101000
+59 40 -40 40 *
Wi

0101000
+22 0 -58 0 +39 0 -19 0 *
Fa
0  1e-07 31 0

0101000
+18 0 *
Ed
 1.00000007105427e-07 1 1 0
1  93 0 1 19
2  185 32 0 1 19
2  186 33 0 1 19
4 G1 32 0 33 0
0

0101000
+57 40 -38 40 *
Wi

0101000
+19 0 -56 0 +37 0 -16 0 *
Fa
0  1e-07 32 0

0101000
+15 0 *
Ed
 1.00000063948846e-07 1 1 0
1  94 0 1 19
2  187 33 0 1 19
2  188 34 0 1 19
4 G1 33 0 34 0
0

0101000
+55 40 -36 40 *
Wi

0101000
+16 0 -54 0 +35 0 -13 0 *
Fa
0  1e-07 33 0

0101000
+12 0 *
Ed
 1e-07 1 1 0
1  95 0 1 19
2  189 34 0 1 19
2  190 35 0 1 19
4 G1 34 0 35 0
0

0101000
+53 40 -34 40 *
Wi

0101000
+13 0 -52 0 +33 0 -10 0 *
Fa
0  1e-07 34 0

0101000
+9 0 *
Ed
 1e-07 1 1 0
1  96 0 1 19
2  191 35 0 1 19
2  192 36 0 1 19
4 G1 35 0 36 0
0

0101000
+51 40 -32 40 *
Wi

0101000
+10 0 -50 0 +31 0 -7 0 *
Fa
0  1e-07 35 0

0101000
+6 0 *
Wi

0101000
+26 0 -49 0 +30 0 -7 0 *
Fa
0  1e-07 36 0

0101000
+4 0 *
Sh

0101000
+229 6 +222 18 +215 18 -187 0 +159 0 +156 6 +153 6 +150 18 +147 6 +145 18 
-138 18 +133 18 -128 18 -123 18 -118 18 +113 18 -108 18 -105 18 -98 18 -93 18 
+88 18 -83 18 -78 18 +73 18 +68 18 -65 18 +46 0 -27 0 -23 0 +20 0 
-17 0 -14 0 -11 0 -8 0 -5 0 +3 0 *
So

0100000
+2 0 *

+1 1 