DBRep_DrawableShape

CASCADE Topology V1, (c) Matra-Datavision
Locations 29
1
              1               0               0               0 
              0               1               0               0 
              0               0               1               0 
1
              1               0               0               0 
              0               1               0               0 
              0               0               1               0 
1
              1               0               0               0 
              0               1               0               0 
              0               0               1               0 
1
              1               0               0               0 
              0               1               0               0 
              0               0               1               0 
1
              1               0               0               0 
              0               1               0               0 
              0               0               1               0 
2  2 1 3 -1 4 1 5 -1 0
2  1 -1 5 1 4 -1 3 1 2 -1 0
2  1 -1 0
2  4 1 5 -1 0
2  2 1 3 -1 0
2  1 -1 5 1 4 -1 0
1
              1               0               0              -0 
              0               1               0               0 
              0               0               1            1910 
1
              1               0               0               0 
              0               1               0               0 
              0               0               1               1 
1
              1               0               0              -0 
              0               1               0              -0 
              0               0               1            -941 
2  12 1 13 1 5 -1 14 1 0
2  14 -1 5 1 13 -1 12 -1 0
2  12 -1 0
2  1 -1 14 -1 5 1 13 -1 12 -1 0
2  5 1 4 -1 0
1
              1               0               0              -0 
              0               1               0               0 
              0               0               1            1910 
1
              1               0               0               0 
              0               1               0               0 
              0               0               1               1 
1
              1               0               0              -0 
              0               1               0              -0 
              0               0               1           -1811 
2  20 1 21 1 3 -1 22 1 4 1 5 -1 0
2  22 -1 3 1 21 -1 20 -1 0
2  20 -1 0
2  1 -1 5 1 4 -1 22 -1 3 1 21 -1 20 -1 0
2  20 1 21 1 3 -1 22 1 0
2  13 1 5 -1 14 1 0
2  21 1 3 -1 22 1 4 1 5 -1 0
Curve2ds 104
1 0 0 1 0 
1 0 0 1 0 
1 1910 0 0 -1 
1 0 0 0 1 
1 0 -915 1 0 
1 0 0 1 0 
1 0 0 0 -1 
1 0 0 0 1 
1 0 0 0 1 
1 0 0 1 0 
1 0 915 1 0 
1 0 0 1 0 
1 1910 0 0 1 
1 0 0 1 0 
8 -120 49.999983479590611
1 120 840 -1 0 
8 -120 49.999983479590611
1 120 -1 1 0 
2 70 819.99999999999989 0 -1 1 0 20
1 -1.5707963267948966 -1 1 0 
8 325.0000835381291 494.99989990709042
1 50 325.0000835381291 0 1 
8 325.0000835381291 494.99989990709042
1 -325.0000835381291 -1 1 0 
8 50.000000103083785 600.00016697317437
1 50 50.000000103083785 0 1 
8 50.000000103083785 600.00016697317437
1 -50.000000103083785 -1 1 0 
2 70 100 0 -1 1 0 20
1 -1.5707963267948966 -1 1 0 
8 34.99999960531904 809.99995915713691
1 34.99999960531904 80.000000000000014 1 0 
8 34.99999960531904 809.99995915713691
1 -34.99999960531904 -1 1 0 
2 845 100 0 -1 1 0 20
1 -1.5707963267948966 -1 1 0 
8 -410.0000035776809 310.00001073761496
1 865 410.0000035776809 0 -1 
8 -410.0000035776809 310.00001073761496
1 410.0000035776809 -1 1 0 
2 845 820 0 -1 1 0 20
1 -1.5707963267948966 -1 1 0 
8 120 724.99995876158494
1 120 840 1 0 
8 120 724.99995876158494
1 -120 -1 1 0 
1 0 915 1 0 
1 1910 0 0 1 
1 915 0 0 1 
1 1910 0 0 -1 
1 0 0 0 1 
1 0 915 1 0 
1 0 915 1 0 
1 0 -915 1 0 
1 915 0 0 1 
1 0 0 0 -1 
1 169.99998347959061 0 0 -1 
1 1.5707955007744272 0 0 -1 
1 0 -941 1 0 
1 0 0 1 0 
8 -1035.0999999999999 94.099999999999909
1 3.2526131121812796e-07 0 0 1 
1 3.1415934813288131 0 0 -1 
1 169.99981636896132 0 0 -1 
1 0 -941 1 0 
2 170 -20.000000000000114 -1 0 0 1 20
1 0 -941 1 0 
1 190 -189.99983292374179 0 1 
1 -1.1368683772161603e-13 0 0 -1 
1 550.00016687009054 0 0 -1 
1 0 0 0 -1 
1 3.1415926432814145 0 0 -1 
1 0 -1811 1 0 
1 -190 -739.99999979383244 0 1 
1 550.00016687009054 0 0 -1 
1 3.1415926493057156 0 0 -1 
1 4.7123889409165942 0 0 -1 
1 0 0 0 -1 
1 0 -1811 1 0 
2 -170 -740 1 0 -0 1 20
1 774.99995955181782 0 0 -1 
1 4.7123869185074803 0 0 -1 
1 0 -1811 1 0 
1 -170.00000078936193 -760 1 0 
1 6.283184949182882 0 0 -1 
1 720.00001431529586 0 0 -1 
1 0 -1811 1 0 
2 605 -740 1 0 -0 1 20
1 0 -1811 1 0 
1 625 -19.9999928446382 0 -1 
1 0 0 0 -1 
1 3.5776809269742789e-07 0 0 -1 
1 1.5707983887156545 0 0 -1 
1 604.99995876158482 0 0 -1 
1 0 -1811 1 0 
2 605 -20 1 0 -0 1 20
1 0 0 0 -1 
1 0 0 0 -1 
1 1.5707963105318312 0 0 -1 
1 0 -1811 1 0 
1 0 0 1 0 
2 170 -189.99983300942347 0 -1 -1 -0 20
1 -1.5707963267948966 -941 1 0 
8 7.0710660070612121 247.48725090436076
1 9.1421300287690315 -0.85786335796933599 0.70710712780479401 -0.70710643456813116 
8 7.0710660070612121 247.48725090436076
1 -7.0710660070612121 -941 1 -0 
2 3.2526131121812796e-07 -20 0 -1 -1 -0 20
1 -1.5707963267948966 -941 1 0 
2 -170 -189.99983300942347 1 0 -0 1 20
1 0 -1811 1 0 
1 -14.142131203540174 -5.8578596308183251 -0.70710712780479401 -0.70710643456813116 
1 -0 -1811 1 0 
2 -3.2526131121812796e-07 -20 1 0 -0 1 19.999999999999972
1 0 -1811 1 0 
1 2.3561940348386607 0 0 -1 
1 240.41618489729956 0 0 -1 
1 2.3561941546382661 0 0 -1 
1 1.2058308112392845e-13 0 0 -1 
Curves 53
1 0 0 0 0 0 1 
1 0 0 1910 -0 1 0 
1 0 915 0 0 0 1 
1 0 0 0 -0 1 0 
1 0 0 0 1 0 -0 
1 915 0 0 0 0 1 
1 0 0 1910 1 0 -0 
1 120 840 1910 -1 0 0 
2 70 819.99999999999989 1910 0 0 1 0 -1 0 1 0 -0 20
1 50 325.0000835381291 1910 0 1 0 
1 50 50.000000103083785 1910 0 1 0 
2 70 100 1910 0 0 1 0 -1 0 1 0 -0 20
1 34.99999960531904 80.000000000000014 1910 1 0 -0 
2 845 100 1910 0 0 1 0 -1 0 1 0 -0 20
1 865 410.0000035776809 1910 0 -1 0 
2 845 820 1910 0 0 1 0 -1 0 1 0 -0 20
1 120 840 1910 1 0 -0 
1 0 915 1910 1 0 -0 
1 915 0 1910 0 1 0 
1 0 915 0 1 0 -0 
1 915 915 0 0 0 1 
1 915 0 0 -0 1 0 
1 70.000016520409389 839.99999999999659 1911 -0 -0 -1 
1 240 840 0 -1 0 0 
1 239.99999967473869 840 1911 0 0 1 
1 50.000000000003425 819.99998344521953 1911 -0 -0 -1 
2 70 819.99999999999989 0 0 0 1 1 0 -0 -0 1 0 20
1 50 650.00016707625821 0 0 1 0 
1 50 650.00016707625809 1911 -0 -0 -1 
1 50 100.00000020616757 1911 -0 -0 -1 
1 50 100.00000020616757 0 0 1 0 
1 50 650.00016707625809 1911 -0 -0 -1 
1 69.99999921063808 80.000000000000014 1911 -0 -0 -1 
2 70 100 0 0 0 1 1 0 -0 -0 1 0 20
1 844.99995876245589 80.000000000021259 1911 -0 -0 -1 
1 69.99999921063808 80.000000000000014 0 1 0 0 
1 864.99999999999932 99.999992840065929 1911 -0 -0 -1 
2 845 100 0 0 0 1 1 0 -0 -0 1 0 20
1 865 820.0000071553618 0 0 -1 0 
1 864.99999999999932 820.0000071553618 1911 -0 -0 -1 
1 844.99995876158482 839.99999999997874 1911 -0 -0 -1 
2 845 820 0 0 0 1 1 0 -0 -0 1 0 20
1 240 840 1911 -0 -0 -1 
1 240 840 1911 -0 -0 -1 
1 240 840 0 1 0 0 
2 70 650.00016699057653 970 0 0 1 0 -1 0 1 0 -0 20
1 230.85786997123097 839.14213664203066 970 -0.70710712780479401 -0.70710643456813116 -0 
2 239.99999967473869 820 970 0 0 1 0 -1 0 1 0 -0 20
2 70 650.00016699057653 0 0 0 1 1 0 -0 -0 1 0 20
1 225.85786879645983 834.14214036918167 0 -0.70710712780479401 -0.70710643456813116 0 
2 239.99999967473869 820 0 0 0 1 1 0 -0 -0 1 0 20
1 55.857870815944054 664.1423090539796 1911 -0 -0 -1 
1 225.85786879645983 834.14214036918156 1911 -0 -0 -1 
Polygon3D 0
PolygonOnTriangulations 0
Surfaces 21
1 0 0 0 1 0 -0 0 0 1 0 -1 0 
1 0 0 0 -0 1 0 0 0 1 1 0 -0 
1 0 0 1910 0 0 1 1 0 -0 -0 1 0 
1 0 915 0 -0 1 0 0 0 1 1 0 -0 
1 0 0 0 0 0 1 1 0 -0 -0 1 0 
1 915 0 0 1 0 -0 0 0 1 0 -1 0 
1 240 840 1911 0 1 -0 -1 0 0 0 0 1 
2 70 819.99999999999989 1911 0 0 1 1 0 -0 -0 1 0 20
1 50 650.00016707625821 1911 1 0 0 -0 1 0 0 -0 1 
1 50 100.00000020616757 1911 1 0 0 -0 1 0 0 -0 1 
2 70 100 1911 0 0 1 1 0 -0 -0 1 0 20
1 69.99999921063808 80.000000000000014 1911 0 -1 0 1 0 0 -0 0 1 
2 845 100 1911 0 0 1 1 0 -0 -0 1 0 20
1 865 820.0000071553618 1911 -1 0 0 0 -1 0 0 0 1 
2 845 820 1911 0 0 1 1 0 -0 -0 1 0 20
1 240 840 1911 0 -1 0 1 0 0 -0 0 1 
1 240 840 1910 -0 0 -1 -1 0 0 0 1 0 
1 240 840 1910 -0 0 1 1 0 0 0 1 -0 
2 70 650.00016699057653 1911 0 0 1 1 0 -0 -0 1 0 20
2 239.99999967473869 820 1911 0 0 1 1 0 -0 -0 1 0 20
1 225.85786879645983 834.14214036918167 1911 -0.70710643456813116 0.70710712780479401 0 -0.70710712780479401 -0.70710643456813116 0 0 0 1 
Triangulations 0

TShapes 132
Ve
1e-07
0 0 1910
0 0

0101101
*
Ve
1e-07
0 0 0
0 0

0101101
*
Ed
 1e-07 1 1 0
1  1 0 0 1910
2  1 1 0 0 1910
2  2 2 0 0 1910
0

0101000
-132 7 +131 7 *
Ve
1e-07
0 915 1910
0 0

0101101
*
Ed
 1e-07 1 1 0
1  2 0 0 915
2  3 1 0 0 915
2  4 3 0 0 915
0

0101000
-129 7 +132 7 *
Ve
1e-07
0 915 0
0 0

0101101
*
Ed
 1e-07 1 1 0
1  3 0 0 1910
2  5 1 0 0 1910
2  6 4 0 0 1910
0

0101000
-129 7 +127 7 *
Ed
 1e-07 1 1 0
1  4 0 0 915
2  7 1 0 0 915
2  8 5 0 0 915
0

0101000
-127 7 +131 7 *
Wi

0101000
-130 0 -128 0 +126 0 +125 0 *
Fa
0  1e-07 1 0

0101000
+124 0 *
Ve
1e-07
915 0 0
0 0

0101101
*
Ed
 1e-07 1 1 0
1  5 0 0 915
2  9 2 0 0 915
2  10 5 0 0 915
0

0101000
-122 7 +131 7 *
Ve
1e-07
915 0 1910
0 0

0101101
*
Ed
 1e-07 1 1 0
1  6 0 0 1910
2  11 2 0 0 1910
2  12 6 0 0 1910
0

0101000
-120 7 +122 7 *
Ed
 1e-07 1 1 0
1  7 0 0 915
2  13 2 0 0 915
2  14 3 0 0 915
0

0101000
-120 7 +132 7 *
Wi

0101000
-121 0 -119 0 +118 0 +130 0 *
Fa
0  1e-07 2 0

0101000
+117 0 *
Ve
0.00102371432444572
240 840 1910
0 0

0101101
*
Ve
2.00004467448551e-07
70.0000165204094 839.999999999997 1910
0 0

0101101
*
Ed
 1e-07 1 1 0
1  8 0 -120 49.9999834795906
2  15 3 6 -120 49.9999834795906
2  16 7 0 -120 49.9999834795906
0

0101000
+115 8 -114 8 *
Ve
2.00004424815986e-07
50.0000000000034 819.99998344522 1910
0 0

0101101
*
Ed
 1e-07 1 1 0
1  9 0 3.14159182756932 4.71238980812371
2  17 3 6 3.14159182756932 4.71238980812371
2  18 8 0 3.14159182756932 4.71238980812371
0

0101000
+114 8 -112 8 *
Ve
0.000511707151663886
50 650.000167076258 1910
0 0

0101101
*
Ed
 1e-07 1 1 0
1  10 0 325.000083538129 494.99989990709
2  19 3 6 325.000083538129 494.99989990709
2  20 9 0 325.000083538129 494.99989990709
0

0101000
+110 8 -112 8 *
Ve
2.00001e-07
50 100.000000206168 1910
0 0

0101101
*
Ed
 1e-07 1 1 0
1  11 0 50.0000001030838 600.000166973174
2  21 3 10 50.0000001030838 600.000166973174
2  22 10 0 50.0000001030838 600.000166973174
0

0101000
+108 11 -110 11 *
Ve
2.00001e-07
69.9999992106381 80 1910
0 0

0101101
*
Ed
 1e-07 1 1 0
1  12 0 4.71238897007631 6.28318526771149
2  23 3 10 4.71238897007631 6.28318526771149
2  24 11 0 4.71238897007631 6.28318526771149
0

0101000
+108 11 -106 11 *
Ve
2.00022252409246e-07
844.999958762456 80.0000000000213 1910
0 0

0101101
*
Ed
 1e-07 1 1 0
1  13 0 34.999999605319 809.999959157137
2  25 3 10 34.999999605319 809.999959157137
2  26 12 0 34.999999605319 809.999959157137
0

0101000
+106 11 -104 11 *
Ve
2.00001625439074e-07
864.999999999999 99.9999928400659 1910
0 0

0101101
*
Ed
 1e-07 1 1 0
1  14 0 6.28318324530238 7.85398127597778
2  27 3 10 6.28318324530238 7.85398127597778
2  28 13 0 6.28318324530238 7.85398127597778
0

0101000
+104 11 -102 11 *
Ve
2.00001625277607e-07
864.999999999999 820.000007155362 1910
0 0

0101101
*
Ed
 1e-07 1 1 0
1  15 0 -410.000003577681 310.000010737615
2  29 3 10 -410.000003577681 310.000010737615
2  30 14 0 -410.000003577681 310.000010737615
0

0101000
+100 11 -102 11 *
Ve
2.00022259514648e-07
844.999958761585 839.999999999979 1910
0 0

0101101
*
Ed
 1e-07 1 1 0
1  16 0 1.57079668456299 3.14159471551055
2  31 3 10 1.57079668456299 3.14159471551055
2  32 15 0 1.57079668456299 3.14159471551055
0

0101000
+100 11 -98 11 *
Ed
 1e-07 1 1 0
1  17 0 120 724.999958761585
2  33 3 10 120 724.999958761585
2  34 16 0 120 724.999958761585
0

0101000
+115 11 -98 11 *
Wi

0101000
-113 0 -111 0 +109 0 +107 9 -105 9 -103 9 -101 9 +99 9 -97 9 +96 9 
*
Ve
1e-07
915 915 1910
0 0

0101101
*
Ed
 1e-07 1 1 0
1  18 0 0 915
2  35 3 0 0 915
2  36 4 0 0 915
0

0101000
-94 7 +129 7 *
Ed
 1e-07 1 1 0
1  19 0 0 915
2  37 3 0 0 915
2  38 6 0 0 915
0

0101000
-94 7 +120 7 *
Wi

0101000
-128 6 -93 6 +118 6 +92 6 *
Fa
0  1e-07 3 6

0101000
+95 0 +91 0 *
Ve
1e-07
915 915 0
0 0

0101101
*
Ed
 1e-07 1 1 0
1  20 0 0 915
2  39 4 0 0 915
2  40 5 0 0 915
0

0101000
-89 7 +127 7 *
Ed
 1e-07 1 1 0
1  21 0 0 1910
2  41 4 0 0 1910
2  42 6 0 0 1910
0

0101000
-94 7 +89 7 *
Wi

0101000
-88 0 -87 0 +93 0 +126 0 *
Fa
0  1e-07 4 0

0101000
+86 0 *
Ed
 1e-07 1 1 0
1  22 0 0 915
2  43 5 0 0 915
2  44 6 0 0 915
0

0101000
-89 7 +122 7 *
Wi

0101000
-125 0 -88 0 +84 0 +121 0 *
Fa
0  1e-07 5 0

0101000
+83 0 *
Wi

0101000
-119 0 -92 0 +87 0 +84 0 *
Fa
0  1e-07 6 0

0101000
+81 0 *
Ve
1.00003467448551e-07
70.0000165204094 839.999999999997 970
0 0

0101101
*
Ed
 1.00003467448551e-07 1 1 0
1  23 0 1.00000000000006 941
2  45 7 0 1.00000000000006 941
2  46 8 0 1.00000000000006 941
4 G1 7 0 8 0
0

0101000
+114 8 -79 8 *
Ve
0.098100524674305
240 840 970
0 0

0101101
*
Ed
 1e-07 1 1 0
1  24 0 0 169.999983479591
2  47 7 16 0 169.999983479591
2  48 17 17 0 169.999983479591
0

0101000
+77 18 -79 18 *
Ed
 1e-07 1 1 0
1  25 0 -941 -1
2  49 7 0 -941 -1
0

0101000
+77 8 -115 8 *
Wi

0101000
-113 0 -78 0 +76 15 -75 0 *
Fa
0  1e-07 7 0

0101000
+74 0 *
Ve
1.00003424815986e-07
50.0000000000034 819.99998344522 970
0 0

0101101
*
Ed
 1.00003424815986e-07 1 1 0
1  26 0 0.999999999999915 941
2  50 8 0 0.999999999999915 941
2  51 9 0 0.999999999999915 941
4 G1 8 0 9 0
0

0101000
+112 8 -72 8 *
Ed
 1e-07 1 1 0
1  27 0 1.57079550077443 3.14159348132881
2  52 8 16 1.57079550077443 3.14159348132881
2  53 17 17 1.57079550077443 3.14159348132881
0

0101000
+79 18 -72 18 *
Wi

0101000
-111 0 -71 0 +70 15 +78 0 *
Fa
0  1e-07 8 0

0101000
+69 0 *
Ve
0.015604062418539
50 650.000167076258 970
0 0

0101101
*
Ed
 1e-07 1 1 0
1  28 0 0 169.999816368961
2  54 9 16 0 169.999816368961
2  55 17 17 0 169.999816368961
0

0101000
+67 18 -72 18 *
Ed
 1e-07 1 1 0
1  29 0 1.00000000000009 941
2  56 9 19 1.00000000000009 941
2  57 10 0 1.00000000000009 941
0

0101000
+110 11 -67 11 *
Wi

0101000
-109 0 -71 0 +66 15 +65 9 *
Fa
0  1e-07 9 0

0101000
+64 0 *
Ve
1e-07
50 100.000000206168 100
0 0

0101101
*
Ed
 1e-07 1 1 0
1  30 0 1.00000000000009 1811
2  58 10 0 1.00000000000009 1811
2  59 11 0 1.00000000000009 1811
4 G1 10 0 11 0
0

0101000
+108 11 -62 11 *
Ve
1e-07
50 650.000167076258 100
0 0

0101101
*
Ed
 1e-07 1 1 0
1  31 0 0 550.000166870091
2  60 10 24 0 550.000166870091
2  61 18 25 0 550.000166870091
0

0101000
+62 26 -60 26 *
Ed
 1e-07 1 1 0
1  32 0 941 1811
2  62 10 0 941 1811
2  63 19 0 941 1811
4 G1 10 0 19 0
0

0101000
+67 11 -60 11 *
Wi

0101000
-107 9 +61 9 -65 9 +59 23 -58 9 *
Fa
0  1e-07 10 9

0101000
+57 0 *
Ve
1e-07
69.9999992106381 80 100
0 0

0101101
*
Ed
 1e-07 1 1 0
1  33 0 1.00000000000008 1811
2  64 11 0 1.00000000000008 1811
2  65 12 0 1.00000000000008 1811
4 G1 11 0 12 0
0

0101000
+106 11 -55 11 *
Ed
 1e-07 1 1 0
1  34 0 3.14159264328141 4.71238894091659
2  66 11 24 3.14159264328141 4.71238894091659
2  67 18 25 3.14159264328141 4.71238894091659
0

0101000
+62 26 -55 26 *
Wi

0101000
-105 0 -54 0 +53 27 +61 0 *
Fa
0  1e-07 11 0

0101000
+52 0 *
Ve
1.00021252409246e-07
844.999958762456 80.0000000000213 100
0 0

0101101
*
Ed
 1.00021252409246e-07 1 1 0
1  35 0 1.00000000000008 1811
2  68 12 0 1.00000000000008 1811
2  69 13 0 1.00000000000008 1811
4 G1 12 0 13 0
0

0101000
+104 11 -50 11 *
Ed
 1e-07 1 1 0
1  36 0 0 774.999959551818
2  70 12 24 0 774.999959551818
2  71 18 25 0 774.999959551818
0

0101000
+55 26 -50 26 *
Wi

0101000
-103 0 -49 0 +48 27 +54 0 *
Fa
0  1e-07 12 0

0101000
+47 0 *
Ve
1.00000625439074e-07
864.999999999999 99.9999928400659 100
0 0

0101101
*
Ed
 1.00000625439074e-07 1 1 0
1  37 0 0.999999999999912 1811
2  72 13 0 0.999999999999912 1811
2  73 14 0 0.999999999999912 1811
4 G1 13 0 14 0
0

0101000
+102 11 -45 11 *
Ed
 1e-07 1 1 0
1  38 0 4.71238691850748 6.28318494918288
2  74 13 24 4.71238691850748 6.28318494918288
2  75 18 25 4.71238691850748 6.28318494918288
0

0101000
+50 26 -45 26 *
Wi

0101000
-101 0 -44 0 +43 27 +49 0 *
Fa
0  1e-07 13 0

0101000
+42 0 *
Ve
1.00000625277607e-07
864.999999999999 820.000007155362 100
0 0

0101101
*
Ed
 1e-07 1 1 0
1  39 0 0 720.000014315296
2  76 14 24 0 720.000014315296
2  77 18 25 0 720.000014315296
0

0101000
+40 26 -45 26 *
Ed
 1.00000625277607e-07 1 1 0
1  40 0 0.999999999999912 1811
2  78 14 0 0.999999999999912 1811
2  79 15 0 0.999999999999912 1811
4 G1 14 0 15 0
0

0101000
+100 11 -40 11 *
Wi

0101000
-99 0 -44 0 +39 27 +38 0 *
Fa
0  1e-07 14 0

0101000
+37 0 *
Ve
1.00021259514648e-07
844.999958761585 839.999999999979 100
0 0

0101101
*
Ed
 1.00021259514648e-07 1 1 0
1  41 0 1.00000000000007 1811
2  80 15 0 1.00000000000007 1811
2  81 16 0 1.00000000000007 1811
4 G1 15 0 16 0
0

0101000
+98 11 -35 11 *
Ed
 1e-07 1 1 0
1  42 0 3.57768092697428e-07 1.57079838871565
2  82 15 24 3.57768092697428e-07 1.57079838871565
2  83 18 25 3.57768092697428e-07 1.57079838871565
0

0101000
+40 26 -35 26 *
Wi

0101000
-97 0 -34 0 +33 27 +38 0 *
Fa
0  1e-07 15 0

0101000
+32 0 *
Ed
 1.00000014210855e-07 1 1 0
1  43 0 1 941
2  84 16 9 1 941
0

0101000
+115 8 -77 8 *
Ve
1e-07
240 840 100
0 0

0101101
*
Ed
 1e-07 1 1 0
1  44 0 941 1811
2  85 16 0 941 1811
2  86 20 0 941 1811
4 G1 16 0 20 0
0

0101000
+77 11 -29 11 *
Ed
 1e-07 1 1 0
1  45 0 0 604.999958761585
2  87 16 24 0 604.999958761585
2  88 18 25 0 604.999958761585
0

0101000
+29 26 -35 26 *
Wi

0101000
-96 9 +30 0 -34 9 +28 9 +27 23 *
Fa
0  1e-07 16 9

0101000
+26 0 *
Ve
2.00001017763568e-07
55.8578708159441 664.14230905398 970
0 0

0101101
*
Ed
 1e-07 1 1 0
1  46 0 3.92699036163356 4.71238897610061
2  89 17 28 3.92699036163356 4.71238897610061
2  90 19 9 3.92699036163356 4.71238897610061
0

0101000
+24 8 -67 8 *
Ve
2.00001113686838e-07
225.85786879646 834.142140369182 970
0 0

0101101
*
Ed
 1e-07 1 1 0
1  47 0 7.07106600706121 247.487250904361
2  91 17 28 7.07106600706121 247.487250904361
2  92 21 9 7.07106600706121 247.487250904361
0

0101000
+22 8 -24 8 *
Ed
 1e-07 1 1 0
1  48 0 3.14159263732673 3.92699048143316
2  93 17 28 3.14159263732673 3.92699048143316
2  94 20 9 3.14159263732673 3.92699048143316
0

0101000
+77 8 -22 8 *
Wi

0101000
-76 15 -70 15 +66 15 +23 0 +21 0 +20 0 *
Fa
0  1e-07 17 28

0101000
+19 0 *
Ve
1.00000017763568e-07
55.8578708159441 664.14230905398 100
0 0

0101101
*
Ed
 1e-07 1 1 0
1  49 0 2.35619403483866 3.14159264930572
2  95 18 25 2.35619403483866 3.14159264930572
2  96 19 24 2.35619403483866 3.14159264930572
0

0101000
+17 26 -60 26 *
Ve
1.00000113686838e-07
225.85786879646 834.142140369182 100
0 0

0101101
*
Ed
 1e-07 1 1 0
1  50 0 0 240.4161848973
2  97 18 25 0 240.4161848973
2  98 21 24 0 240.4161848973
0

0101000
+15 26 -17 26 *
Ed
 1e-07 1 1 0
1  51 0 1.57079631053183 2.35619415463827
2  99 18 25 1.57079631053183 2.35619415463827
2  100 20 24 1.57079631053183 2.35619415463827
0

0101000
+29 26 -15 26 *
Wi

0101100
+27 20 -33 20 +39 20 -43 20 -48 20 -53 20 +59 20 -16 20 -14 20 -13 20 
*
Fa
0  1e-07 18 0

0101000
-12 0 *
Ed
 1.00000017763568e-07 1 1 0
1  52 0 941 1811
2  101 19 0 941 1811
2  102 21 0 941 1811
4 G1 19 0 21 0
0

0101000
+24 11 -17 11 *
Wi

0101000
-23 0 -58 9 +16 23 +10 9 *
Fa
0  1e-07 19 9

0101000
+9 0 *
Ed
 1.00000113686838e-07 1 1 0
1  53 0 941 1811
2  103 20 0 941 1811
2  104 21 0 941 1811
4 G1 20 0 21 0
0

0101000
+22 11 -15 11 *
Wi

0101000
-7 9 +13 23 +28 9 -20 0 *
Fa
0  1e-07 20 9

0101000
+6 0 *
Wi

0101000
-21 0 -10 9 +14 23 +7 9 *
Fa
0  1e-07 21 9

0101000
+4 0 *
Sh

0101000
-123 6 -116 6 +90 0 +85 6 -82 6 +80 6 -73 0 -68 0 +63 0 +56 0 
-51 9 -46 9 -41 9 +36 9 -31 9 +25 0 -18 0 +11 29 -8 0 -5 0 
-3 0 *
So

0100000
+2 0 *

+1 1 