DBRep_DrawableShape

CASCADE Topology V1, (c) Matra-Datavision
Locations 14
1
2.22044604925031e-16               1               0           17300 
             -1 2.22044604925031e-16              -0            2250 
             -0               0               1               0 
1
              1               0               0               0 
              0               1               0               0 
              0               0               1               0 
1
              1               0               0             100 
              0               1               0             -50 
              0               0               1             250 
2  3 -1 0
2  1 -1 2 -1 3 -1 0
2  1 -1 2 -1 0
1
              1               0               0             600 
              0               1               0               0 
              0               0               1               0 
2  2 1 7 1 0
2  1 -1 7 -1 2 -1 3 -1 0
2  1 -1 7 -1 2 -1 0
1
              1               0               0            1200 
              0               1               0               0 
              0               0               1               0 
2  2 1 11 1 0
2  1 -1 11 -1 2 -1 3 -1 0
2  1 -1 11 -1 2 -1 0
Curve2ds 228
1 0 0 0 -1 
1 0 0 0 1 
1 0 -19.999999999999996 1 0 
1 0 0 0 1 
1 0 -680 1 0 
1 0 0 0 1 
1 80 0 0 -1 
1 0 0 0 1 
2 20 19.999999999999996 0 -1 1 0 20
1 -4.7123889803846897 0 1 0 
2 20 680 0 -1 -1 -0 20
1 -1.5707963267948966 0 1 0 
1 0 0 1 0 
1 0 0 0 1 
1 0 700 1 0 
1 0 0 0 1 
2 580 19.999999999999996 0 -1 -1 -0 20
1 -4.7123889803846897 0 1 0 
2 580 680 0 -1 1 0 20
1 -1.5707963267948966 0 1 0 
1 600 0 0 1 
1 0 0 0 -1 
1 1.5707963267948966 0 0 1 
1 0 20 1 0 
1 0 80 1 0 
1 0 0 1 0 
1 1.5707963267948966 0 0 1 
1 0 20 1 0 
8 4.7123889803846897 6.2831853071795862
1 6.2831853071795862 80 -1 -0 
8 4.7123889803846897 6.2831853071795862
1 0 -6.2831853071795862 0 1 
8 4.7123889803846897 6.2831853071795862
1 6.2831853071795862 19.999999999999996 -1 -0 
8 4.7123889803846897 6.2831853071795862
1 0 -6.2831853071795862 0 1 
1 1.5707963267948966 0 0 1 
1 20 0 0 1 
1 0 680 1 0 
1 0 0 1 0 
1 0 580 1 0 
1 1.5707963267948966 0 0 1 
1 80 0 0 1 
1 0 0 0 1 
1 0 580 1 0 
1 1.5707963267948966 0 0 1 
1 80 0 0 1 
1 0 0 0 1 
1 0 0 0 1 
1 0 -19.999999999999996 1 0 
1 0 80 1 0 
1 0 0 1 0 
1 0 0 0 1 
1 0 -680 1 0 
8 4.7123889803846897 6.2831853071795862
1 6.2831853071795862 80 -1 -0 
8 4.7123889803846897 6.2831853071795862
1 0 -6.2831853071795862 0 1 
1 80 0 0 -1 
1 0 0 0 1 
1 0 -1.5707963267948966 1 0 
8 4.7123889803846897 6.2831853071795862
1 1.5707963267948966 -6.2831853071795862 0 1 
8 4.7123889803846897 6.2831853071795862
1 6.2831853071795862 20 -1 -0 
1 0 -1.5707963267948966 1 0 
8 4.7123889803846897 6.2831853071795862
1 1.5707963267948966 -6.2831853071795862 0 1 
8 4.7123889803846897 6.2831853071795862
1 -4.7123889803846897 20 1 0 
1 0 19.999999999999996 1 0 
1 1.5707963267948966 0 0 1 
1 0 680 1 0 
1 1.5707963267948966 0 0 1 
1 580 0 0 1 
1 1.5707963267948966 0 0 1 
8 4.7123889803846897 6.2831853071795862
1 6.2831853071795862 580 -1 -0 
8 4.7123889803846897 6.2831853071795862
1 1.5707963267948966 -6.2831853071795862 0 1 
8 4.7123889803846897 6.2831853071795862
1 -4.7123889803846897 580 1 0 
8 4.7123889803846897 6.2831853071795862
1 1.5707963267948966 -6.2831853071795862 0 1 
8 4.7123889803846897 6.2831853071795862
1 0 -6.2831853071795862 0 1 
8 4.7123889803846897 6.2831853071795862
1 6.2831853071795862 19.999999999999996 -1 -0 
1 0 -1.5707963267948966 1 0 
1 0 -1.5707963267948966 1 0 
1 0 0 1 0 
1 0 680 1 0 
1 0 0 0 -1 
1 0 0 0 1 
1 0 -19.999999999999996 1 0 
1 0 0 0 1 
1 0 -680 1 0 
1 0 0 0 1 
1 80 0 0 -1 
1 0 0 0 1 
2 20 19.999999999999996 0 -1 1 0 20
1 -4.7123889803846897 0 1 0 
2 20 680 0 -1 -1 -0 20
1 -1.5707963267948966 0 1 0 
1 0 0 1 0 
1 0 0 0 1 
1 0 700 1 0 
1 0 0 0 1 
2 580 19.999999999999996 0 -1 -1 -0 20
1 -4.7123889803846897 0 1 0 
2 580 680 0 -1 1 0 20
1 -1.5707963267948966 0 1 0 
1 600 0 0 1 
1 0 0 0 -1 
1 1.5707963267948966 0 0 1 
1 0 20 1 0 
1 0 80 1 0 
1 0 0 1 0 
1 1.5707963267948966 0 0 1 
1 0 20 1 0 
8 4.7123889803846897 6.2831853071795862
1 6.2831853071795862 80 -1 -0 
8 4.7123889803846897 6.2831853071795862
1 0 -6.2831853071795862 0 1 
8 4.7123889803846897 6.2831853071795862
1 6.2831853071795862 19.999999999999996 -1 -0 
8 4.7123889803846897 6.2831853071795862
1 0 -6.2831853071795862 0 1 
1 1.5707963267948966 0 0 1 
1 20 0 0 1 
1 0 680 1 0 
1 0 0 1 0 
1 0 580 1 0 
1 1.5707963267948966 0 0 1 
1 80 0 0 1 
1 0 0 0 1 
1 0 580 1 0 
1 1.5707963267948966 0 0 1 
1 80 0 0 1 
1 0 0 0 1 
1 0 0 0 1 
1 0 -19.999999999999996 1 0 
1 0 80 1 0 
1 0 0 1 0 
1 0 0 0 1 
1 0 -680 1 0 
8 4.7123889803846897 6.2831853071795862
1 6.2831853071795862 80 -1 -0 
8 4.7123889803846897 6.2831853071795862
1 0 -6.2831853071795862 0 1 
1 80 0 0 -1 
1 0 0 0 1 
1 0 -1.5707963267948966 1 0 
8 4.7123889803846897 6.2831853071795862
1 1.5707963267948966 -6.2831853071795862 0 1 
8 4.7123889803846897 6.2831853071795862
1 6.2831853071795862 20 -1 -0 
1 0 -1.5707963267948966 1 0 
8 4.7123889803846897 6.2831853071795862
1 1.5707963267948966 -6.2831853071795862 0 1 
8 4.7123889803846897 6.2831853071795862
1 -4.7123889803846897 20 1 0 
1 0 19.999999999999996 1 0 
1 1.5707963267948966 0 0 1 
1 0 680 1 0 
1 1.5707963267948966 0 0 1 
1 580 0 0 1 
1 1.5707963267948966 0 0 1 
8 4.7123889803846897 6.2831853071795862
1 6.2831853071795862 580 -1 -0 
8 4.7123889803846897 6.2831853071795862
1 1.5707963267948966 -6.2831853071795862 0 1 
8 4.7123889803846897 6.2831853071795862
1 -4.7123889803846897 580 1 0 
8 4.7123889803846897 6.2831853071795862
1 1.5707963267948966 -6.2831853071795862 0 1 
8 4.7123889803846897 6.2831853071795862
1 0 -6.2831853071795862 0 1 
8 4.7123889803846897 6.2831853071795862
1 6.2831853071795862 19.999999999999996 -1 -0 
1 0 -1.5707963267948966 1 0 
1 0 -1.5707963267948966 1 0 
1 0 0 1 0 
1 0 680 1 0 
1 0 0 0 -1 
1 0 0 0 1 
1 0 -19.999999999999996 1 0 
1 0 0 0 1 
1 0 -680 1 0 
1 0 0 0 1 
1 80 0 0 -1 
1 0 0 0 1 
2 20 19.999999999999996 0 -1 1 0 20
1 -4.7123889803846897 0 1 0 
2 20 680 0 -1 -1 -0 20
1 -1.5707963267948966 0 1 0 
1 0 0 1 0 
1 0 0 0 1 
1 0 700 1 0 
1 0 0 0 1 
2 580 19.999999999999996 0 -1 -1 -0 20
1 -4.7123889803846897 0 1 0 
2 580 680 0 -1 1 0 20
1 -1.5707963267948966 0 1 0 
1 600 0 0 1 
1 0 0 0 -1 
1 1.5707963267948966 0 0 1 
1 0 20 1 0 
1 0 80 1 0 
1 0 0 1 0 
1 1.5707963267948966 0 0 1 
1 0 20 1 0 
8 4.7123889803846897 6.2831853071795862
1 6.2831853071795862 80 -1 -0 
8 4.7123889803846897 6.2831853071795862
1 0 -6.2831853071795862 0 1 
8 4.7123889803846897 6.2831853071795862
1 6.2831853071795862 19.999999999999996 -1 -0 
8 4.7123889803846897 6.2831853071795862
1 0 -6.2831853071795862 0 1 
1 1.5707963267948966 0 0 1 
1 20 0 0 1 
1 0 680 1 0 
1 0 0 1 0 
1 0 580 1 0 
1 1.5707963267948966 0 0 1 
1 80 0 0 1 
1 0 0 0 1 
1 0 580 1 0 
1 1.5707963267948966 0 0 1 
1 80 0 0 1 
1 0 0 0 1 
1 0 0 0 1 
1 0 -19.999999999999996 1 0 
1 0 80 1 0 
1 0 0 1 0 
1 0 0 0 1 
1 0 -680 1 0 
8 4.7123889803846897 6.2831853071795862
1 6.2831853071795862 80 -1 -0 
8 4.7123889803846897 6.2831853071795862
1 0 -6.2831853071795862 0 1 
1 80 0 0 -1 
1 0 0 0 1 
1 0 -1.5707963267948966 1 0 
8 4.7123889803846897 6.2831853071795862
1 1.5707963267948966 -6.2831853071795862 0 1 
8 4.7123889803846897 6.2831853071795862
1 6.2831853071795862 20 -1 -0 
1 0 -1.5707963267948966 1 0 
8 4.7123889803846897 6.2831853071795862
1 1.5707963267948966 -6.2831853071795862 0 1 
8 4.7123889803846897 6.2831853071795862
1 -4.7123889803846897 20 1 0 
1 0 19.999999999999996 1 0 
1 1.5707963267948966 0 0 1 
1 0 680 1 0 
1 1.5707963267948966 0 0 1 
1 580 0 0 1 
1 1.5707963267948966 0 0 1 
8 4.7123889803846897 6.2831853071795862
1 6.2831853071795862 580 -1 -0 
8 4.7123889803846897 6.2831853071795862
1 1.5707963267948966 -6.2831853071795862 0 1 
8 4.7123889803846897 6.2831853071795862
1 -4.7123889803846897 580 1 0 
8 4.7123889803846897 6.2831853071795862
1 1.5707963267948966 -6.2831853071795862 0 1 
8 4.7123889803846897 6.2831853071795862
1 0 -6.2831853071795862 0 1 
8 4.7123889803846897 6.2831853071795862
1 6.2831853071795862 19.999999999999996 -1 -0 
1 0 -1.5707963267948966 1 0 
1 0 -1.5707963267948966 1 0 
1 0 0 1 0 
1 0 680 1 0 
Curves 108
1 0 0 0 -0 1 0 
1 100 -30.000000000000004 250 0 0 1 
1 100 630 250 0 0 1 
1 100 -50 330 0 1 0 
8 4.7123889803846897 6.2831853071795862
2 120 -30.000000000000004 250 0 0 1 0 -1 0 1 0 -0 20
8 1.5707963267948966 3.1415926535897931
2 120 630 250 -0 -0 -1 0 -1 0 -1 0 0 20
1 0 0 0 1 0 -0 
1 0 700 0 1 0 -0 
8 4.7123889803846897 6.2831853071795862
2 680 -30.000000000000004 250 -0 -0 -1 0 -1 0 -1 0 0 20
8 1.5707963267948966 3.1415926535897931
2 680 630 250 0 0 1 0 -1 0 1 0 -0 20
1 600 0 0 -0 1 0 
1 120 -50 250 0 0 1 
2 120 -30.000000000000004 330 0 0 1 -1 0 0 0 -1 0 20
1 120 650 250 0 0 1 
2 120 630 330 0 -0 1 -1 0 0 -0 -1 0 20
2 120 -30.000000000000004 330 0 -1 0 -1 0 0 -0 -0 -1 20
1 120 -50 350 0 1 0 
2 120 630 330 0 1 0 -1 0 0 0 -0 1 20
1 680 -50 250 0 0 1 
1 100 -50 330 1 0 0 
1 680 650 250 0 0 1 
1 100 650 330 1 0 0 
1 700 -30.000000000000004 250 0 0 1 
2 680 -30.000000000000004 330 -0 -0 -1 1 0 0 0 -1 0 20
1 700 630 250 0 0 1 
2 680 630 330 0 0 -1 1 0 0 0 -1 0 20
1 700 -50 330 0 1 0 
2 120 -30.000000000000004 330 1 -6.1230317691118863e-17 0 -6.1230317691118863e-17 -1 0 0 -0 -1 20
2 120 630 330 1 -0 6.1230317691118863e-17 -6.1230317691118863e-17 0 1 -0 -1 0 20
1 100 -30.000000000000004 350 1 0 0 
1 100 630 350 1 0 0 
1 680 -50 350 0 1 0 
2 680 -30.000000000000004 330 1 6.1230317691118863e-17 -0 6.1230317691118863e-17 -1 0 0 -0 -1 20
2 680 630 330 1 0 -6.1230317691118863e-17 6.1230317691118863e-17 0 1 0 -1 0 20
2 680 -30.000000000000004 330 0 1 0 1 0 0 0 0 -1 20
2 680 630 330 -0 -1 -0 1 -0 0 -0 0 1 20
1 0 0 0 -0 1 0 
1 100 -30.000000000000004 250 0 0 1 
1 100 630 250 0 0 1 
1 100 -50 330 0 1 0 
8 4.7123889803846897 6.2831853071795862
2 120 -30.000000000000004 250 0 0 1 0 -1 0 1 0 -0 20
8 1.5707963267948966 3.1415926535897931
2 120 630 250 -0 -0 -1 0 -1 0 -1 0 0 20
1 0 0 0 1 0 -0 
1 0 700 0 1 0 -0 
8 4.7123889803846897 6.2831853071795862
2 680 -30.000000000000004 250 -0 -0 -1 0 -1 0 -1 0 0 20
8 1.5707963267948966 3.1415926535897931
2 680 630 250 0 0 1 0 -1 0 1 0 -0 20
1 600 0 0 -0 1 0 
1 120 -50 250 0 0 1 
2 120 -30.000000000000004 330 0 0 1 -1 0 0 0 -1 0 20
1 120 650 250 0 0 1 
2 120 630 330 0 -0 1 -1 0 0 -0 -1 0 20
2 120 -30.000000000000004 330 0 -1 0 -1 0 0 -0 -0 -1 20
1 120 -50 350 0 1 0 
2 120 630 330 0 1 0 -1 0 0 0 -0 1 20
1 680 -50 250 0 0 1 
1 100 -50 330 1 0 0 
1 680 650 250 0 0 1 
1 100 650 330 1 0 0 
1 700 -30.000000000000004 250 0 0 1 
2 680 -30.000000000000004 330 -0 -0 -1 1 0 0 0 -1 0 20
1 700 630 250 0 0 1 
2 680 630 330 0 0 -1 1 0 0 0 -1 0 20
1 700 -50 330 0 1 0 
2 120 -30.000000000000004 330 1 -6.1230317691118863e-17 0 -6.1230317691118863e-17 -1 0 0 -0 -1 20
2 120 630 330 1 -0 6.1230317691118863e-17 -6.1230317691118863e-17 0 1 -0 -1 0 20
1 100 -30.000000000000004 350 1 0 0 
1 100 630 350 1 0 0 
1 680 -50 350 0 1 0 
2 680 -30.000000000000004 330 1 6.1230317691118863e-17 -0 6.1230317691118863e-17 -1 0 0 -0 -1 20
2 680 630 330 1 0 -6.1230317691118863e-17 6.1230317691118863e-17 0 1 0 -1 0 20
2 680 -30.000000000000004 330 0 1 0 1 0 0 0 0 -1 20
2 680 630 330 -0 -1 -0 1 -0 0 -0 0 1 20
1 0 0 0 -0 1 0 
1 100 -30.000000000000004 250 0 0 1 
1 100 630 250 0 0 1 
1 100 -50 330 0 1 0 
8 4.7123889803846897 6.2831853071795862
2 120 -30.000000000000004 250 0 0 1 0 -1 0 1 0 -0 20
8 1.5707963267948966 3.1415926535897931
2 120 630 250 -0 -0 -1 0 -1 0 -1 0 0 20
1 0 0 0 1 0 -0 
1 0 700 0 1 0 -0 
8 4.7123889803846897 6.2831853071795862
2 680 -30.000000000000004 250 -0 -0 -1 0 -1 0 -1 0 0 20
8 1.5707963267948966 3.1415926535897931
2 680 630 250 0 0 1 0 -1 0 1 0 -0 20
1 600 0 0 -0 1 0 
1 120 -50 250 0 0 1 
2 120 -30.000000000000004 330 0 0 1 -1 0 0 0 -1 0 20
1 120 650 250 0 0 1 
2 120 630 330 0 -0 1 -1 0 0 -0 -1 0 20
2 120 -30.000000000000004 330 0 -1 0 -1 0 0 -0 -0 -1 20
1 120 -50 350 0 1 0 
2 120 630 330 0 1 0 -1 0 0 0 -0 1 20
1 680 -50 250 0 0 1 
1 100 -50 330 1 0 0 
1 680 650 250 0 0 1 
1 100 650 330 1 0 0 
1 700 -30.000000000000004 250 0 0 1 
2 680 -30.000000000000004 330 -0 -0 -1 1 0 0 0 -1 0 20
1 700 630 250 0 0 1 
2 680 630 330 0 0 -1 1 0 0 0 -1 0 20
1 700 -50 330 0 1 0 
2 120 -30.000000000000004 330 1 -6.1230317691118863e-17 0 -6.1230317691118863e-17 -1 0 0 -0 -1 20
2 120 630 330 1 -0 6.1230317691118863e-17 -6.1230317691118863e-17 0 1 -0 -1 0 20
1 100 -30.000000000000004 350 1 0 0 
1 100 630 350 1 0 0 
1 680 -50 350 0 1 0 
2 680 -30.000000000000004 330 1 6.1230317691118863e-17 -0 6.1230317691118863e-17 -1 0 0 -0 -1 20
2 680 630 330 1 0 -6.1230317691118863e-17 6.1230317691118863e-17 0 1 0 -1 0 20
2 680 -30.000000000000004 330 0 1 0 1 0 0 0 0 -1 20
2 680 630 330 -0 -1 -0 1 -0 0 -0 0 1 20
Polygon3D 0
PolygonOnTriangulations 0
Surfaces 54
1 0 0 0 1 0 -0 0 0 1 0 -1 0 
1 0 0 0 0 0 1 1 0 -0 -0 1 0 
2 120 -30.000000000000004 250 0 0 1 -1 -0 0 0 -1 0 20
2 120 630 250 0 0 1 -1 -0 0 -0 1 -0 20
2 120 -50 330 0 1 0 -1 0 0 0 -0 1 20
1 0 0 0 -0 1 0 0 0 1 1 0 -0 
1 0 700 0 -0 1 0 0 0 1 1 0 -0 
2 680 -30.000000000000004 250 0 0 1 1 0 -0 0 -1 -0 20
2 680 630 250 0 0 1 1 0 -0 -0 1 0 20
1 600 0 0 1 0 -0 0 0 1 0 -1 0 
4 120 -30.000000000000004 330 -0 -0 -1 -1 0 0 -0 -1 0 20
4 120 630 330 -0 -1 -0 -1 0 0 -0 -0 1 20
1 0 0 100 0 0 1 1 0 -0 -0 1 0 
2 100 -30.000000000000004 330 1 0 0 0 -1 0 -0 -0 1 20
2 100 630 330 1 0 0 -0 1 0 0 -0 1 20
4 680 -30.000000000000004 330 -0 -0 -1 1 0 0 0 -1 0 20
4 680 630 330 -0 -1 -0 1 -0 0 -0 0 1 20
2 680 -50 330 0 1 0 1 0 -0 0 -0 1 20
1 0 0 0 1 0 -0 0 0 1 0 -1 0 
1 0 0 0 0 0 1 1 0 -0 -0 1 0 
2 120 -30.000000000000004 250 0 0 1 -1 -0 0 0 -1 0 20
2 120 630 250 0 0 1 -1 -0 0 -0 1 -0 20
2 120 -50 330 0 1 0 -1 0 0 0 -0 1 20
1 0 0 0 -0 1 0 0 0 1 1 0 -0 
1 0 700 0 -0 1 0 0 0 1 1 0 -0 
2 680 -30.000000000000004 250 0 0 1 1 0 -0 0 -1 -0 20
2 680 630 250 0 0 1 1 0 -0 -0 1 0 20
1 600 0 0 1 0 -0 0 0 1 0 -1 0 
4 120 -30.000000000000004 330 -0 -0 -1 -1 0 0 -0 -1 0 20
4 120 630 330 -0 -1 -0 -1 0 0 -0 -0 1 20
1 0 0 100 0 0 1 1 0 -0 -0 1 0 
2 100 -30.000000000000004 330 1 0 0 0 -1 0 -0 -0 1 20
2 100 630 330 1 0 0 -0 1 0 0 -0 1 20
4 680 -30.000000000000004 330 -0 -0 -1 1 0 0 0 -1 0 20
4 680 630 330 -0 -1 -0 1 -0 0 -0 0 1 20
2 680 -50 330 0 1 0 1 0 -0 0 -0 1 20
1 0 0 0 1 0 -0 0 0 1 0 -1 0 
1 0 0 0 0 0 1 1 0 -0 -0 1 0 
2 120 -30.000000000000004 250 0 0 1 -1 -0 0 0 -1 0 20
2 120 630 250 0 0 1 -1 -0 0 -0 1 -0 20
2 120 -50 330 0 1 0 -1 0 0 0 -0 1 20
1 0 0 0 -0 1 0 0 0 1 1 0 -0 
1 0 700 0 -0 1 0 0 0 1 1 0 -0 
2 680 -30.000000000000004 250 0 0 1 1 0 -0 0 -1 -0 20
2 680 630 250 0 0 1 1 0 -0 -0 1 0 20
1 600 0 0 1 0 -0 0 0 1 0 -1 0 
4 120 -30.000000000000004 330 -0 -0 -1 -1 0 0 -0 -1 0 20
4 120 630 330 -0 -1 -0 -1 0 0 -0 -0 1 20
1 0 0 100 0 0 1 1 0 -0 -0 1 0 
2 100 -30.000000000000004 330 1 0 0 0 -1 0 -0 -0 1 20
2 100 630 330 1 0 0 -0 1 0 0 -0 1 20
4 680 -30.000000000000004 330 -0 -0 -1 1 0 0 0 -1 0 20
4 680 630 330 -0 -1 -0 1 -0 0 -0 0 1 20
2 680 -50 330 0 1 0 1 0 -0 0 -0 1 20
Triangulations 0

TShapes 298
Ve
1e-07
17270 2150 250
0 0

0101101
*
Ve
0.000558703556780017
17930 2150 250
0 0

0101101
*
Ed
 1e-07 1 1 0
1  1 0 20 680
2  1 1 0 20 680
2  2 2 0 20 680
0

0101000
+298 5 -297 5 *
Ve
1e-07
17270 2150 330
0 0

0101101
*
Ed
 1e-07 1 1 0
1  2 0 0 80
2  3 1 3 0 80
2  4 3 0 0 80
4 G1 1 3 3 0
0

0101000
+298 6 -295 6 *
Ve
0.000558978879016219
17930 2150 330
0 0

0101101
*
Ed
 1e-07 1 1 0
1  3 0 0 80
2  5 1 3 0 80
2  6 4 0 0 80
4 G1 1 3 4 0
0

0101000
+297 6 -293 6 *
Ed
 1e-07 1 1 0
1  4 0 20 680
2  7 1 3 20 680
2  8 5 0 20 680
4 G1 1 3 5 0
0

0101000
+295 6 -293 6 *
Wi

0101100
+296 3 -294 0 +292 0 -291 0 *
Fa
0  1e-07 1 0

0101000
+290 4 *
Ve
1e-07
17250 2130 250
0 0

0101101
*
Ed
 1e-07 1 1 0
1  5 0 4.71238898038469 6.28318530717959
2  9 2 3 4.71238898038469 6.28318530717959
2  10 3 0 4.71238898038469 6.28318530717959
0

0101000
+298 6 -288 6 *
Ve
1e-07
17950 2130 250
0 0

0101101
*
Ed
 1e-07 1 1 0
1  6 0 1.5707963267949 3.14159265358979
2  11 2 3 1.5707963267949 3.14159265358979
2  12 4 0 1.5707963267949 3.14159265358979
0

0101000
+297 6 -286 6 *
Ve
1e-07
17250 1570 250
0 0

0101101
*
Ed
 1e-07 1 1 0
1  7 0 20 580
2  13 2 0 20 580
2  14 6 0 20 580
0

0101000
+288 5 -284 5 *
Ve
1e-07
17950 1570 250
0 0

0101101
*
Ed
 1e-07 1 1 0
1  8 0 20 580
2  15 2 0 20 580
2  16 7 0 20 580
0

0101000
+286 5 -282 5 *
Ve
1e-07
17270 1550 250
0 0

0101101
*
Ed
 1e-07 1 1 0
1  9 0 4.71238898038469 6.28318530717959
2  17 2 3 4.71238898038469 6.28318530717959
2  18 8 0 4.71238898038469 6.28318530717959
0

0101000
+280 6 -284 6 *
Ve
4.56817438090334e-06
17930 1550 250
0 0

0101101
*
Ed
 1e-07 1 1 0
1  10 0 1.5707963267949 3.14159265358979
2  19 2 3 1.5707963267949 3.14159265358979
2  20 9 0 1.5707963267949 3.14159265358979
0

0101000
+278 6 -282 6 *
Ed
 1e-07 1 1 0
1  11 0 20 680
2  21 2 0 20 680
2  22 10 0 20 680
0

0101000
+280 5 -278 5 *
Wi

0101100
-296 3 +287 0 -285 0 +283 3 -281 3 -279 0 +277 0 +276 3 *
Fa
0  1e-07 2 0

0101000
+275 4 *
Ve
1e-07
17250 2130 330
0 0

0101101
*
Ed
 1e-07 1 1 0
1  12 0 0 80
2  23 3 0 0 80
2  24 6 3 0 80
4 G1 3 0 6 3
0

0101000
+288 6 -273 6 *
Ed
 1e-07 1 1 0
1  13 0 0 1.5707963267949
2  25 3 0 0 1.5707963267949
2  26 11 0 0 1.5707963267949
4 G1 3 0 11 0
0

0101100
+295 6 -273 6 *
Wi

0101100
+287 0 -294 0 +272 0 -271 0 *
Fa
0  1e-07 3 0

0101000
+270 0 *
Ve
1e-07
17950 2130 330
0 0

0101101
*
Ed
 1e-07 1 1 0
1  14 0 0 80
2  27 4 0 0 80
2  28 7 3 0 80
4 G1 4 0 7 3
0

0101000
+286 6 -268 6 *
Ed
 1e-07 1 1 0
1  15 0 4.71238898038469 6.28318530717959
2  29 4 0 4.71238898038469 6.28318530717959
2  30 12 0 4.71238898038469 6.28318530717959
4 G1 4 0 12 0
0

0101100
+268 6 -293 6 *
Wi

0101100
+285 0 -292 0 +267 0 +266 0 *
Fa
0  1e-07 4 0

0101000
+265 0 *
Ve
1e-07
17270 2130 350
0 0

0101101
*
Ed
 1e-07 1 1 0
1  16 0 4.71238898038469 6.28318530717959
2  31 5 0 4.71238898038469 6.28318530717959
2  32 11 0 4.71238898038469 6.28318530717959
4 G1 5 0 11 0
0

0101100
+263 6 -295 6 *
Ve
1e-07
17930 2130 350
0 0

0101101
*
Ed
 1e-07 1 1 0
1  17 0 20 680
2  33 5 0 20 680
2  34 13 3 20 680
4 G1 5 0 13 3
0

0101000
+263 6 -261 6 *
Ed
 1e-07 1 1 0
1  18 0 0 1.5707963267949
2  35 5 0 0 1.5707963267949
2  36 12 0 0 1.5707963267949
4 G1 5 0 12 0
0

0101100
+293 6 -261 6 *
Wi

0101100
-262 0 +260 0 -291 0 -259 0 *
Fa
0  1e-07 5 0

0101000
+258 0 *
Ve
1e-07
17250 1570 330
0 0

0101101
*
Ed
 1e-07 1 1 0
1  19 0 0 80
2  37 6 3 0 80
2  38 8 0 0 80
4 G1 6 3 8 0
0

0101000
+284 6 -256 6 *
Ed
 1e-07 1 1 0
1  20 0 20 580
2  39 6 3 20 580
2  40 14 0 20 580
4 G1 6 3 14 0
0

0101000
+273 6 -256 6 *
Wi

0101100
-283 3 +272 0 -255 0 +254 0 *
Fa
0  1e-07 6 0

0101000
+253 4 *
Ve
1e-07
17950 1570 330
0 0

0101101
*
Ed
 1e-07 1 1 0
1  21 0 0 80
2  41 7 3 0 80
2  42 9 0 0 80
4 G1 7 3 9 0
0

0101000
+282 6 -251 6 *
Ed
 1e-07 1 1 0
1  22 0 20 580
2  43 7 3 20 580
2  44 15 0 20 580
4 G1 7 3 15 0
0

0101000
+268 6 -251 6 *
Wi

0101100
-281 3 +267 0 -250 0 +249 0 *
Fa
0  1e-07 7 0

0101000
+248 4 *
Ve
1e-07
17270 1550 330
0 0

0101101
*
Ed
 1e-07 1 1 0
1  23 0 0 80
2  45 8 0 0 80
2  46 10 3 0 80
4 G1 8 0 10 3
0

0101000
+280 6 -246 6 *
Ed
 1e-07 1 1 0
1  24 0 0 1.5707963267949
2  47 8 0 0 1.5707963267949
2  48 16 0 0 1.5707963267949
4 G1 8 0 16 0
0

0101100
+246 6 -256 6 *
Wi

0101100
+279 0 -245 0 +255 0 -244 0 *
Fa
0  1e-07 8 0

0101000
+243 0 *
Ve
4.58032227426125e-06
17930 1550 330
0 0

0101101
*
Ed
 1e-07 1 1 0
1  25 0 0 80
2  49 9 0 0 80
2  50 10 3 0 80
4 G1 9 0 10 3
0

0101000
+278 6 -241 6 *
Ed
 1e-07 1 1 0
1  26 0 4.71238898038469 6.28318530717959
2  51 9 0 4.71238898038469 6.28318530717959
2  52 17 0 4.71238898038469 6.28318530717959
4 G1 9 0 17 0
0

0101100
+251 6 -241 6 *
Wi

0101100
+277 0 -240 0 +250 0 +239 0 *
Fa
0  1e-07 9 0

0101000
+238 0 *
Ed
 1e-07 1 1 0
1  27 0 20 680
2  53 10 3 20 680
2  54 18 0 20 680
4 G1 10 3 18 0
0

0101000
+246 6 -241 6 *
Wi

0101100
+276 3 -245 0 +240 0 -236 0 *
Fa
0  1e-07 10 0

0101000
+235 4 *
Ed
 1e-07 1 1 1
2  55 11 0 0 1.5707963267949
0

0101000
+263 6 -263 6 *
Ed
 1e-07 1 1 0
1  28 0 4.71238898038469 6.28318530717959
2  56 11 0 4.71238898038469 6.28318530717959
2  57 14 0 4.71238898038469 6.28318530717959
4 G1 11 0 14 0
0

0101100
+263 6 -273 6 *
Wi

0101100
-262 0 +233 0 +232 0 -271 0 *
Fa
0  1e-07 11 0

0101000
+231 0 *
Ed
 1e-07 1 1 1
2  58 12 0 0 1.5707963267949
0

0101000
+268 6 -268 6 *
Ed
 1e-07 1 1 0
1  29 0 4.71238898038469 6.28318530717959
2  59 12 0 4.71238898038469 6.28318530717959
2  60 15 0 4.71238898038469 6.28318530717959
4 G1 12 0 15 0
0

0101100
+268 6 -261 6 *
Wi

0101100
-266 0 +229 0 +228 0 -259 0 *
Fa
0  1e-07 12 0

0101000
+227 0 *
Ve
1e-07
17270 1570 350
0 0

0101101
*
Ed
 1e-07 1 1 0
1  30 0 20 580
2  61 13 3 20 580
2  62 14 0 20 580
4 G1 13 3 14 0
0

0101000
+263 6 -225 6 *
Ve
1e-07
17930 1570 350
0 0

0101101
*
Ed
 1e-07 1 1 0
1  31 0 20 580
2  63 13 3 20 580
2  64 15 0 20 580
4 G1 13 3 15 0
0

0101000
+261 6 -223 6 *
Ed
 1e-07 1 1 0
1  32 0 20 680
2  65 13 3 20 680
2  66 18 0 20 680
4 G1 13 3 18 0
0

0101000
+225 6 -223 6 *
Wi

0101100
-260 0 +224 0 -222 0 +221 0 *
Fa
0  1e-07 13 0

0101000
+220 4 *
Ed
 1e-07 1 1 0
1  33 0 4.71238898038469 6.28318530717959
2  67 14 0 4.71238898038469 6.28318530717959
2  68 16 0 4.71238898038469 6.28318530717959
4 G1 14 0 16 0
0

0101100
+225 6 -256 6 *
Wi

0101100
-232 0 +224 0 -254 0 +218 0 *
Fa
0  1e-07 14 0

0101000
+217 0 *
Ed
 1e-07 1 1 0
1  34 0 4.71238898038469 6.28318530717959
2  69 15 0 4.71238898038469 6.28318530717959
2  70 17 0 4.71238898038469 6.28318530717959
4 G1 15 0 17 0
0

0101100
+251 6 -223 6 *
Wi

0101100
+228 0 -249 0 +222 0 -215 0 *
Fa
0  1e-07 15 0

0101000
+214 0 *
Ed
 1e-07 1 1 0
1  35 0 4.71238898038469 6.28318530717959
2  71 16 0 4.71238898038469 6.28318530717959
2  72 18 0 4.71238898038469 6.28318530717959
4 G1 16 0 18 0
0

0101100
+225 6 -246 6 *
Ed
 1e-07 1 1 1
2  73 16 0 0 1.5707963267949
0

0101000
+225 6 -225 6 *
Wi

0101100
-212 0 +211 0 +218 0 -244 0 *
Fa
0  1e-07 16 0

0101000
+210 0 *
Ed
 1e-07 1 1 1
2  74 17 0 0 1.5707963267949
0

0101000
+251 6 -251 6 *
Ed
 1e-07 1 1 0
1  36 0 0 1.5707963267949
2  75 17 0 0 1.5707963267949
2  76 18 0 0 1.5707963267949
4 G1 17 0 18 0
0

0101100
+241 6 -223 6 *
Wi

0101100
-239 0 +208 0 +215 0 -207 0 *
Fa
0  1e-07 17 0

0101000
+206 0 *
Wi

0101100
-212 0 +221 0 -236 0 -207 0 *
Fa
0  1e-07 18 0

0101000
+204 0 *
Sh

0101100
-289 3 -274 3 +269 0 -264 0 +257 0 -252 3 +247 3 -242 0 +237 0 +234 3 
-230 0 -226 0 +219 3 -216 0 +213 0 +209 0 +205 0 -203 0 *
So

0100000
+202 0 *
Co

0100000
+201 0 *
Ve
1e-07
17270 1550 250
0 0

0101101
*
Ve
3.52385334236864e-06
17930 1550 250
0 0

0101101
*
Ed
 1e-07 1 1 0
1  37 0 20 680
2  77 19 0 20 680
2  78 20 0 20 680
0

0101000
+199 9 -198 9 *
Ve
1e-07
17270 1550 330
0 0

0101101
*
Ed
 1e-07 1 1 0
1  38 0 0 80
2  79 19 3 0 80
2  80 21 0 0 80
4 G1 19 3 21 0
0

0101000
+199 10 -196 10 *
Ve
3.52638833147616e-06
17930 1550 330
0 0

0101101
*
Ed
 1e-07 1 1 0
1  39 0 0 80
2  81 19 3 0 80
2  82 22 0 0 80
4 G1 19 3 22 0
0

0101000
+198 10 -194 10 *
Ed
 1e-07 1 1 0
1  40 0 20 680
2  83 19 3 20 680
2  84 23 0 20 680
4 G1 19 3 23 0
0

0101000
+196 10 -194 10 *
Wi

0101100
+197 3 -195 0 +193 0 -192 0 *
Fa
0  1e-07 19 0

0101000
+191 4 *
Ve
1e-07
17250 1530 250
0 0

0101101
*
Ed
 1e-07 1 1 0
1  41 0 4.71238898038469 6.28318530717959
2  85 20 3 4.71238898038469 6.28318530717959
2  86 21 0 4.71238898038469 6.28318530717959
0

0101000
+199 10 -189 10 *
Ve
1e-07
17950 1530 250
0 0

0101101
*
Ed
 1e-07 1 1 0
1  42 0 1.5707963267949 3.14159265358979
2  87 20 3 1.5707963267949 3.14159265358979
2  88 22 0 1.5707963267949 3.14159265358979
0

0101000
+198 10 -187 10 *
Ve
1e-07
17250 970 250
0 0

0101101
*
Ed
 1e-07 1 1 0
1  43 0 20 580
2  89 20 0 20 580
2  90 24 0 20 580
0

0101000
+189 9 -185 9 *
Ve
1e-07
17950 970 250
0 0

0101101
*
Ed
 1e-07 1 1 0
1  44 0 20 580
2  91 20 0 20 580
2  92 25 0 20 580
0

0101000
+187 9 -183 9 *
Ve
1e-07
17270 950 250
0 0

0101101
*
Ed
 1e-07 1 1 0
1  45 0 4.71238898038469 6.28318530717959
2  93 20 3 4.71238898038469 6.28318530717959
2  94 26 0 4.71238898038469 6.28318530717959
0

0101000
+181 10 -185 10 *
Ve
4.56817438090334e-06
17930 950 250
0 0

0101101
*
Ed
 1e-07 1 1 0
1  46 0 1.5707963267949 3.14159265358979
2  95 20 3 1.5707963267949 3.14159265358979
2  96 27 0 1.5707963267949 3.14159265358979
0

0101000
+179 10 -183 10 *
Ed
 1e-07 1 1 0
1  47 0 20 680
2  97 20 0 20 680
2  98 28 0 20 680
0

0101000
+181 9 -179 9 *
Wi

0101100
-197 3 +188 0 -186 0 +184 3 -182 3 -180 0 +178 0 +177 3 *
Fa
0  1e-07 20 0

0101000
+176 4 *
Ve
1e-07
17250 1530 330
0 0

0101101
*
Ed
 1e-07 1 1 0
1  48 0 0 80
2  99 21 0 0 80
2  100 24 3 0 80
4 G1 21 0 24 3
0

0101000
+189 10 -174 10 *
Ed
 1e-07 1 1 0
1  49 0 0 1.5707963267949
2  101 21 0 0 1.5707963267949
2  102 29 0 0 1.5707963267949
4 G1 21 0 29 0
0

0101100
+196 10 -174 10 *
Wi

0101100
+188 0 -195 0 +173 0 -172 0 *
Fa
0  1e-07 21 0

0101000
+171 0 *
Ve
1e-07
17950 1530 330
0 0

0101101
*
Ed
 1e-07 1 1 0
1  50 0 0 80
2  103 22 0 0 80
2  104 25 3 0 80
4 G1 22 0 25 3
0

0101000
+187 10 -169 10 *
Ed
 1e-07 1 1 0
1  51 0 4.71238898038469 6.28318530717959
2  105 22 0 4.71238898038469 6.28318530717959
2  106 30 0 4.71238898038469 6.28318530717959
4 G1 22 0 30 0
0

0101100
+169 10 -194 10 *
Wi

0101100
+186 0 -193 0 +168 0 +167 0 *
Fa
0  1e-07 22 0

0101000
+166 0 *
Ve
1e-07
17270 1530 350
0 0

0101101
*
Ed
 1e-07 1 1 0
1  52 0 4.71238898038469 6.28318530717959
2  107 23 0 4.71238898038469 6.28318530717959
2  108 29 0 4.71238898038469 6.28318530717959
4 G1 23 0 29 0
0

0101100
+164 10 -196 10 *
Ve
1e-07
17930 1530 350
0 0

0101101
*
Ed
 1e-07 1 1 0
1  53 0 20 680
2  109 23 0 20 680
2  110 31 3 20 680
4 G1 23 0 31 3
0

0101000
+164 10 -162 10 *
Ed
 1e-07 1 1 0
1  54 0 0 1.5707963267949
2  111 23 0 0 1.5707963267949
2  112 30 0 0 1.5707963267949
4 G1 23 0 30 0
0

0101100
+194 10 -162 10 *
Wi

0101100
-163 0 +161 0 -192 0 -160 0 *
Fa
0  1e-07 23 0

0101000
+159 0 *
Ve
1e-07
17250 970 330
0 0

0101101
*
Ed
 1e-07 1 1 0
1  55 0 0 80
2  113 24 3 0 80
2  114 26 0 0 80
4 G1 24 3 26 0
0

0101000
+185 10 -157 10 *
Ed
 1e-07 1 1 0
1  56 0 20 580
2  115 24 3 20 580
2  116 32 0 20 580
4 G1 24 3 32 0
0

0101000
+174 10 -157 10 *
Wi

0101100
-184 3 +173 0 -156 0 +155 0 *
Fa
0  1e-07 24 0

0101000
+154 4 *
Ve
1e-07
17950 970 330
0 0

0101101
*
Ed
 1e-07 1 1 0
1  57 0 0 80
2  117 25 3 0 80
2  118 27 0 0 80
4 G1 25 3 27 0
0

0101000
+183 10 -152 10 *
Ed
 1e-07 1 1 0
1  58 0 20 580
2  119 25 3 20 580
2  120 33 0 20 580
4 G1 25 3 33 0
0

0101000
+169 10 -152 10 *
Wi

0101100
-182 3 +168 0 -151 0 +150 0 *
Fa
0  1e-07 25 0

0101000
+149 4 *
Ve
1e-07
17270 950 330
0 0

0101101
*
Ed
 1e-07 1 1 0
1  59 0 0 80
2  121 26 0 0 80
2  122 28 3 0 80
4 G1 26 0 28 3
0

0101000
+181 10 -147 10 *
Ed
 1e-07 1 1 0
1  60 0 0 1.5707963267949
2  123 26 0 0 1.5707963267949
2  124 34 0 0 1.5707963267949
4 G1 26 0 34 0
0

0101100
+147 10 -157 10 *
Wi

0101100
+180 0 -146 0 +156 0 -145 0 *
Fa
0  1e-07 26 0

0101000
+144 0 *
Ve
4.58032227426125e-06
17930 950 330
0 0

0101101
*
Ed
 1e-07 1 1 0
1  61 0 0 80
2  125 27 0 0 80
2  126 28 3 0 80
4 G1 27 0 28 3
0

0101000
+179 10 -142 10 *
Ed
 1e-07 1 1 0
1  62 0 4.71238898038469 6.28318530717959
2  127 27 0 4.71238898038469 6.28318530717959
2  128 35 0 4.71238898038469 6.28318530717959
4 G1 27 0 35 0
0

0101100
+152 10 -142 10 *
Wi

0101100
+178 0 -141 0 +151 0 +140 0 *
Fa
0  1e-07 27 0

0101000
+139 0 *
Ed
 1e-07 1 1 0
1  63 0 20 680
2  129 28 3 20 680
2  130 36 0 20 680
4 G1 28 3 36 0
0

0101000
+147 10 -142 10 *
Wi

0101100
+177 3 -146 0 +141 0 -137 0 *
Fa
0  1e-07 28 0

0101000
+136 4 *
Ed
 1e-07 1 1 1
2  131 29 0 0 1.5707963267949
0

0101000
+164 10 -164 10 *
Ed
 1e-07 1 1 0
1  64 0 4.71238898038469 6.28318530717959
2  132 29 0 4.71238898038469 6.28318530717959
2  133 32 0 4.71238898038469 6.28318530717959
4 G1 29 0 32 0
0

0101100
+164 10 -174 10 *
Wi

0101100
-163 0 +134 0 +133 0 -172 0 *
Fa
0  1e-07 29 0

0101000
+132 0 *
Ed
 1e-07 1 1 1
2  134 30 0 0 1.5707963267949
0

0101000
+169 10 -169 10 *
Ed
 1e-07 1 1 0
1  65 0 4.71238898038469 6.28318530717959
2  135 30 0 4.71238898038469 6.28318530717959
2  136 33 0 4.71238898038469 6.28318530717959
4 G1 30 0 33 0
0

0101100
+169 10 -162 10 *
Wi

0101100
-167 0 +130 0 +129 0 -160 0 *
Fa
0  1e-07 30 0

0101000
+128 0 *
Ve
1e-07
17270 970 350
0 0

0101101
*
Ed
 1e-07 1 1 0
1  66 0 20 580
2  137 31 3 20 580
2  138 32 0 20 580
4 G1 31 3 32 0
0

0101000
+164 10 -126 10 *
Ve
1e-07
17930 970 350
0 0

0101101
*
Ed
 1e-07 1 1 0
1  67 0 20 580
2  139 31 3 20 580
2  140 33 0 20 580
4 G1 31 3 33 0
0

0101000
+162 10 -124 10 *
Ed
 1e-07 1 1 0
1  68 0 20 680
2  141 31 3 20 680
2  142 36 0 20 680
4 G1 31 3 36 0
0

0101000
+126 10 -124 10 *
Wi

0101100
-161 0 +125 0 -123 0 +122 0 *
Fa
0  1e-07 31 0

0101000
+121 4 *
Ed
 1e-07 1 1 0
1  69 0 4.71238898038469 6.28318530717959
2  143 32 0 4.71238898038469 6.28318530717959
2  144 34 0 4.71238898038469 6.28318530717959
4 G1 32 0 34 0
0

0101100
+126 10 -157 10 *
Wi

0101100
-133 0 +125 0 -155 0 +119 0 *
Fa
0  1e-07 32 0

0101000
+118 0 *
Ed
 1e-07 1 1 0
1  70 0 4.71238898038469 6.28318530717959
2  145 33 0 4.71238898038469 6.28318530717959
2  146 35 0 4.71238898038469 6.28318530717959
4 G1 33 0 35 0
0

0101100
+152 10 -124 10 *
Wi

0101100
+129 0 -150 0 +123 0 -116 0 *
Fa
0  1e-07 33 0

0101000
+115 0 *
Ed
 1e-07 1 1 0
1  71 0 4.71238898038469 6.28318530717959
2  147 34 0 4.71238898038469 6.28318530717959
2  148 36 0 4.71238898038469 6.28318530717959
4 G1 34 0 36 0
0

0101100
+126 10 -147 10 *
Ed
 1e-07 1 1 1
2  149 34 0 0 1.5707963267949
0

0101000
+126 10 -126 10 *
Wi

0101100
-113 0 +112 0 +119 0 -145 0 *
Fa
0  1e-07 34 0

0101000
+111 0 *
Ed
 1e-07 1 1 1
2  150 35 0 0 1.5707963267949
0

0101000
+152 10 -152 10 *
Ed
 1e-07 1 1 0
1  72 0 0 1.5707963267949
2  151 35 0 0 1.5707963267949
2  152 36 0 0 1.5707963267949
4 G1 35 0 36 0
0

0101100
+142 10 -124 10 *
Wi

0101100
-140 0 +109 0 +116 0 -108 0 *
Fa
0  1e-07 35 0

0101000
+107 0 *
Wi

0101100
-113 0 +122 0 -137 0 -108 0 *
Fa
0  1e-07 36 0

0101000
+105 0 *
Sh

0101100
-190 3 -175 3 +170 0 -165 0 +158 0 -153 3 +148 3 -143 0 +138 0 +135 3 
-131 0 -127 0 +120 3 -117 0 +114 0 +110 0 +106 0 -104 0 *
So

0100000
+103 0 *
Co

0100000
+102 0 *
Ve
1e-07
17270 950 250
0 0

0101101
*
Ve
3.52385334236864e-06
17930 950 250
0 0

0101101
*
Ed
 1e-07 1 1 0
1  73 0 20 680
2  153 37 0 20 680
2  154 38 0 20 680
0

0101000
+100 13 -99 13 *
Ve
1e-07
17270 950 330
0 0

0101101
*
Ed
 1e-07 1 1 0
1  74 0 0 80
2  155 37 3 0 80
2  156 39 0 0 80
4 G1 37 3 39 0
0

0101000
+100 14 -97 14 *
Ve
3.52638833147616e-06
17930 950 330
0 0

0101101
*
Ed
 1e-07 1 1 0
1  75 0 0 80
2  157 37 3 0 80
2  158 40 0 0 80
4 G1 37 3 40 0
0

0101000
+99 14 -95 14 *
Ed
 1e-07 1 1 0
1  76 0 20 680
2  159 37 3 20 680
2  160 41 0 20 680
4 G1 37 3 41 0
0

0101000
+97 14 -95 14 *
Wi

0101100
+98 3 -96 0 +94 0 -93 0 *
Fa
0  1e-07 37 0

0101000
+92 4 *
Ve
1e-07
17250 930 250
0 0

0101101
*
Ed
 1e-07 1 1 0
1  77 0 4.71238898038469 6.28318530717959
2  161 38 3 4.71238898038469 6.28318530717959
2  162 39 0 4.71238898038469 6.28318530717959
0

0101000
+100 14 -90 14 *
Ve
1e-07
17950 930 250
0 0

0101101
*
Ed
 1e-07 1 1 0
1  78 0 1.5707963267949 3.14159265358979
2  163 38 3 1.5707963267949 3.14159265358979
2  164 40 0 1.5707963267949 3.14159265358979
0

0101000
+99 14 -88 14 *
Ve
1e-07
17250 370 250
0 0

0101101
*
Ed
 1e-07 1 1 0
1  79 0 20 580
2  165 38 0 20 580
2  166 42 0 20 580
0

0101000
+90 13 -86 13 *
Ve
1e-07
17950 370 250
0 0

0101101
*
Ed
 1e-07 1 1 0
1  80 0 20 580
2  167 38 0 20 580
2  168 43 0 20 580
0

0101000
+88 13 -84 13 *
Ve
1e-07
17270 350 250
0 0

0101101
*
Ed
 1e-07 1 1 0
1  81 0 4.71238898038469 6.28318530717959
2  169 38 3 4.71238898038469 6.28318530717959
2  170 44 0 4.71238898038469 6.28318530717959
0

0101000
+82 14 -86 14 *
Ve
0.0006920740717882
17930 350 250
0 0

0101101
*
Ed
 1e-07 1 1 0
1  82 0 1.5707963267949 3.14159265358979
2  171 38 3 1.5707963267949 3.14159265358979
2  172 45 0 1.5707963267949 3.14159265358979
0

0101000
+80 14 -84 14 *
Ed
 1e-07 1 1 0
1  83 0 20 680
2  173 38 0 20 680
2  174 46 0 20 680
0

0101000
+82 13 -80 13 *
Wi

0101100
-98 3 +89 0 -87 0 +85 3 -83 3 -81 0 +79 0 +78 3 *
Fa
0  1e-07 38 0

0101000
+77 4 *
Ve
1e-07
17250 930 330
0 0

0101101
*
Ed
 1e-07 1 1 0
1  84 0 0 80
2  175 39 0 0 80
2  176 42 3 0 80
4 G1 39 0 42 3
0

0101000
+90 14 -75 14 *
Ed
 1e-07 1 1 0
1  85 0 0 1.5707963267949
2  177 39 0 0 1.5707963267949
2  178 47 0 0 1.5707963267949
4 G1 39 0 47 0
0

0101100
+97 14 -75 14 *
Wi

0101100
+89 0 -96 0 +74 0 -73 0 *
Fa
0  1e-07 39 0

0101000
+72 0 *
Ve
1e-07
17950 930 330
0 0

0101101
*
Ed
 1e-07 1 1 0
1  86 0 0 80
2  179 40 0 0 80
2  180 43 3 0 80
4 G1 40 0 43 3
0

0101000
+88 14 -70 14 *
Ed
 1e-07 1 1 0
1  87 0 4.71238898038469 6.28318530717959
2  181 40 0 4.71238898038469 6.28318530717959
2  182 48 0 4.71238898038469 6.28318530717959
4 G1 40 0 48 0
0

0101100
+70 14 -95 14 *
Wi

0101100
+87 0 -94 0 +69 0 +68 0 *
Fa
0  1e-07 40 0

0101000
+67 0 *
Ve
1e-07
17270 930 350
0 0

0101101
*
Ed
 1e-07 1 1 0
1  88 0 4.71238898038469 6.28318530717959
2  183 41 0 4.71238898038469 6.28318530717959
2  184 47 0 4.71238898038469 6.28318530717959
4 G1 41 0 47 0
0

0101100
+65 14 -97 14 *
Ve
1e-07
17930 930 350
0 0

0101101
*
Ed
 1e-07 1 1 0
1  89 0 20 680
2  185 41 0 20 680
2  186 49 3 20 680
4 G1 41 0 49 3
0

0101000
+65 14 -63 14 *
Ed
 1e-07 1 1 0
1  90 0 0 1.5707963267949
2  187 41 0 0 1.5707963267949
2  188 48 0 0 1.5707963267949
4 G1 41 0 48 0
0

0101100
+95 14 -63 14 *
Wi

0101100
-64 0 +62 0 -93 0 -61 0 *
Fa
0  1e-07 41 0

0101000
+60 0 *
Ve
1e-07
17250 370 330
0 0

0101101
*
Ed
 1e-07 1 1 0
1  91 0 0 80
2  189 42 3 0 80
2  190 44 0 0 80
4 G1 42 3 44 0
0

0101000
+86 14 -58 14 *
Ed
 1e-07 1 1 0
1  92 0 20 580
2  191 42 3 20 580
2  192 50 0 20 580
4 G1 42 3 50 0
0

0101000
+75 14 -58 14 *
Wi

0101100
-85 3 +74 0 -57 0 +56 0 *
Fa
0  1e-07 42 0

0101000
+55 4 *
Ve
1e-07
17950 370 330
0 0

0101101
*
Ed
 1e-07 1 1 0
1  93 0 0 80
2  193 43 3 0 80
2  194 45 0 0 80
4 G1 43 3 45 0
0

0101000
+84 14 -53 14 *
Ed
 1e-07 1 1 0
1  94 0 20 580
2  195 43 3 20 580
2  196 51 0 20 580
4 G1 43 3 51 0
0

0101000
+70 14 -53 14 *
Wi

0101100
-83 3 +69 0 -52 0 +51 0 *
Fa
0  1e-07 43 0

0101000
+50 4 *
Ve
1e-07
17270 350 330
0 0

0101101
*
Ed
 1e-07 1 1 0
1  95 0 0 80
2  197 44 0 0 80
2  198 46 3 0 80
4 G1 44 0 46 3
0

0101000
+82 14 -48 14 *
Ed
 1e-07 1 1 0
1  96 0 0 1.5707963267949
2  199 44 0 0 1.5707963267949
2  200 52 0 0 1.5707963267949
4 G1 44 0 52 0
0

0101100
+48 14 -58 14 *
Wi

0101100
+81 0 -47 0 +57 0 -46 0 *
Fa
0  1e-07 44 0

0101000
+45 0 *
Ve
0.00069352297688431
17930 350 330
0 0

0101101
*
Ed
 1e-07 1 1 0
1  97 0 0 80
2  201 45 0 0 80
2  202 46 3 0 80
4 G1 45 0 46 3
0

0101000
+80 14 -43 14 *
Ed
 1e-07 1 1 0
1  98 0 4.71238898038469 6.28318530717959
2  203 45 0 4.71238898038469 6.28318530717959
2  204 53 0 4.71238898038469 6.28318530717959
4 G1 45 0 53 0
0

0101100
+53 14 -43 14 *
Wi

0101100
+79 0 -42 0 +52 0 +41 0 *
Fa
0  1e-07 45 0

0101000
+40 0 *
Ed
 1e-07 1 1 0
1  99 0 20 680
2  205 46 3 20 680
2  206 54 0 20 680
4 G1 46 3 54 0
0

0101000
+48 14 -43 14 *
Wi

0101100
+78 3 -47 0 +42 0 -38 0 *
Fa
0  1e-07 46 0

0101000
+37 4 *
Ed
 1e-07 1 1 1
2  207 47 0 0 1.5707963267949
0

0101000
+65 14 -65 14 *
Ed
 1e-07 1 1 0
1  100 0 4.71238898038469 6.28318530717959
2  208 47 0 4.71238898038469 6.28318530717959
2  209 50 0 4.71238898038469 6.28318530717959
4 G1 47 0 50 0
0

0101100
+65 14 -75 14 *
Wi

0101100
-64 0 +35 0 +34 0 -73 0 *
Fa
0  1e-07 47 0

0101000
+33 0 *
Ed
 1e-07 1 1 1
2  210 48 0 0 1.5707963267949
0

0101000
+70 14 -70 14 *
Ed
 1e-07 1 1 0
1  101 0 4.71238898038469 6.28318530717959
2  211 48 0 4.71238898038469 6.28318530717959
2  212 51 0 4.71238898038469 6.28318530717959
4 G1 48 0 51 0
0

0101100
+70 14 -63 14 *
Wi

0101100
-68 0 +31 0 +30 0 -61 0 *
Fa
0  1e-07 48 0

0101000
+29 0 *
Ve
1e-07
17270 370 350
0 0

0101101
*
Ed
 1e-07 1 1 0
1  102 0 20 580
2  213 49 3 20 580
2  214 50 0 20 580
4 G1 49 3 50 0
0

0101000
+65 14 -27 14 *
Ve
1e-07
17930 370 350
0 0

0101101
*
Ed
 1e-07 1 1 0
1  103 0 20 580
2  215 49 3 20 580
2  216 51 0 20 580
4 G1 49 3 51 0
0

0101000
+63 14 -25 14 *
Ed
 1e-07 1 1 0
1  104 0 20 680
2  217 49 3 20 680
2  218 54 0 20 680
4 G1 49 3 54 0
0

0101000
+27 14 -25 14 *
Wi

0101100
-62 0 +26 0 -24 0 +23 0 *
Fa
0  1e-07 49 0

0101000
+22 4 *
Ed
 1e-07 1 1 0
1  105 0 4.71238898038469 6.28318530717959
2  219 50 0 4.71238898038469 6.28318530717959
2  220 52 0 4.71238898038469 6.28318530717959
4 G1 50 0 52 0
0

0101100
+27 14 -58 14 *
Wi

0101100
-34 0 +26 0 -56 0 +20 0 *
Fa
0  1e-07 50 0

0101000
+19 0 *
Ed
 1e-07 1 1 0
1  106 0 4.71238898038469 6.28318530717959
2  221 51 0 4.71238898038469 6.28318530717959
2  222 53 0 4.71238898038469 6.28318530717959
4 G1 51 0 53 0
0

0101100
+53 14 -25 14 *
Wi

0101100
+30 0 -51 0 +24 0 -17 0 *
Fa
0  1e-07 51 0

0101000
+16 0 *
Ed
 1e-07 1 1 0
1  107 0 4.71238898038469 6.28318530717959
2  223 52 0 4.71238898038469 6.28318530717959
2  224 54 0 4.71238898038469 6.28318530717959
4 G1 52 0 54 0
0

0101100
+27 14 -48 14 *
Ed
 1e-07 1 1 1
2  225 52 0 0 1.5707963267949
0

0101000
+27 14 -27 14 *
Wi

0101100
-14 0 +13 0 +20 0 -46 0 *
Fa
0  1e-07 52 0

0101000
+12 0 *
Ed
 1e-07 1 1 1
2  226 53 0 0 1.5707963267949
0

0101000
+53 14 -53 14 *
Ed
 1e-07 1 1 0
1  108 0 0 1.5707963267949
2  227 53 0 0 1.5707963267949
2  228 54 0 0 1.5707963267949
4 G1 53 0 54 0
0

0101100
+43 14 -25 14 *
Wi

0101100
-41 0 +10 0 +17 0 -9 0 *
Fa
0  1e-07 53 0

0101000
+8 0 *
Wi

0101100
-14 0 +23 0 -38 0 -9 0 *
Fa
0  1e-07 54 0

0101000
+6 0 *
Sh

0101100
-91 3 -76 3 +71 0 -66 0 +59 0 -54 3 +49 3 -44 0 +39 0 +36 3 
-32 0 -28 0 +21 3 -18 0 +15 0 +11 0 +7 0 -5 0 *
So

0100000
+4 0 *
Co

0100000
+3 0 *
Co

1100000
+200 2 +101 8 +2 12 *

+1 1 