DBRep_DrawableShape

CASCADE Topology V1, (c) Matra-Datavision
Locations 72
1
              1               0               0               0 
              0               1               0               0 
              0               0               1               0 
2  1 -1 0
1
              1               0               0               0 
              0               1               0               0 
              0               0               1               0 
1
              1               0               0               0 
              0               1               0               0 
              0               0               1               0 
1
              1               0               0               0 
              0               1               0               0 
              0               0               1               0 
1
              1               0               0               0 
              0               1               0               0 
              0               0               1               0 
1
              1               0               0               0 
              0               1               0               0 
              0               0               1               0 
2  3 1 4 1 5 -1 6 1 7 -1 1 1 0
1
              1               0               0               0 
              0               1               0               0 
              0               0               1               0 
1
              1               0               0               0 
              0               1               0               0 
              0               0               1               0 
1
              1               0               0               0 
              0               1               0               0 
              0               0               1               0 
1
              1               0               0               0 
              0               1               0               0 
              0               0               1               0 
2  9 1 10 -1 11 1 12 -1 0
2  3 -1 0
2  9 1 10 -1 11 1 12 -1 3 1 0
2  1 -1 7 1 6 -1 5 1 4 -1 3 -1 12 1 11 -1 10 1 9 -1 0
2  1 -1 7 1 6 -1 5 1 4 -1 0
1
              1               0               0               0 
              0               1               0               0 
              0               0               1               0 
1
              1               0               0               0 
              0               1               0               0 
              0               0               1               0 
2  18 1 19 -1 0
1
              1              -0               0              -0 
              0 1.77321265310004e-16              -1              -0 
              0               1 1.77321265310004e-16               0 
1
              1               0               0               0 
              0               1               0              -1 
              0               0               1 2.22044604925031e-16 
1
              1               0               0               0 
              0               1               0              81 
              0               0               1 -1.79856129989275e-14 
2  21 1 22 1 12 -1 23 1 3 1 0
2  9 1 10 -1 11 1 12 -1 23 -1 12 1 22 -1 21 -1 0
2  23 -1 12 1 22 -1 21 -1 0
2  1 -1 7 1 6 -1 5 1 4 -1 3 -1 23 -1 12 1 22 -1 21 -1 0
2  9 1 10 -1 11 1 12 -1 3 1 4 1 5 -1 6 1 7 -1 1 1 0
2  3 -1 12 1 11 -1 10 1 9 -1 0
2  4 1 5 -1 6 1 7 -1 1 1 0
1
              1               0               0               0 
              0               1               0               0 
              0               0               1               1 
1
              1               0               0              -0 
              0               1               0              -0 
              0               0               1           -1811 
2  31 1 19 -1 32 1 9 1 10 -1 11 1 12 -1 3 1 0
2  6 1 7 -1 1 1 0
2  18 1 19 -1 9 1 10 -1 11 1 12 -1 3 1 4 1 5 -1 0
2  1 -1 7 1 6 -1 5 1 4 -1 3 -1 12 1 11 -1 10 1 9 -1 19 1 18 -1 0
2  3 1 4 1 5 -1 0
2  18 1 19 -1 9 1 10 -1 11 1 12 -1 0
2  1 -1 7 1 6 -1 5 1 4 -1 3 -1 0
2  9 1 10 -1 11 1 12 -1 3 1 4 1 5 -1 0
2  1 -1 7 1 6 -1 0
2  18 1 19 -1 9 1 10 -1 11 1 12 -1 3 1 4 1 5 -1 6 1 7 -1 1 1 0
2  11 1 12 -1 3 1 4 1 5 -1 0
2  18 1 19 -1 9 1 10 -1 0
2  1 -1 7 1 6 -1 5 1 4 -1 3 -1 12 1 11 -1 0
2  21 1 22 1 12 -1 23 1 0
2  31 1 19 -1 32 1 9 1 10 -1 11 1 12 -1 3 1 4 1 5 -1 6 1 7 -1 0
2  31 1 19 -1 32 1 9 1 10 -1 11 1 12 -1 3 1 4 1 5 -1 6 1 7 -1 1 1 0
2  4 1 5 -1 6 1 7 -1 0
2  11 1 12 -1 3 1 4 1 5 -1 6 1 7 -1 1 1 0
1
              1               0               0              -0 
              0               1               0               0 
              0               0               1            1910 
1
              1               0               0               0 
              0               1               0               0 
              0               0               1               1 
1
              1               0               0              -0 
              0               1               0              -0 
              0               0               1            -941 
2  51 1 52 1 10 -1 53 1 0
2  53 -1 10 1 52 -1 51 -1 0
2  51 -1 0
2  1 -1 7 1 6 -1 5 1 4 -1 3 -1 12 1 11 -1 53 -1 10 1 52 -1 51 -1 0
2  9 1 10 -1 0
2  3 -1 12 1 11 -1 0
1
              1               0               0              -0 
              0               1               0               0 
              0               0               1             100 
1
              1               0               0               0 
              0               1               0               0 
              0               0               1               1 
1
              1               0               0              -0 
              0               1               0              -0 
              0               0               1              -6 
2  60 1 61 1 7 -1 62 1 0
2  62 -1 7 1 61 -1 60 -1 0
2  60 -1 0
2  1 -1 62 -1 7 1 61 -1 60 -1 0
2  52 1 10 -1 53 1 0
2  11 1 12 -1 3 1 0
2  61 1 7 -1 62 1 0
2  61 1 7 -1 62 1 1 1 0
2  6 1 7 -1 0
2  51 1 52 1 10 -1 53 1 11 1 12 -1 3 1 4 1 5 -1 6 1 7 -1 1 1 0
Curve2ds 183
1 774.99995955181782 0 0 -1 
1 4.7123869185074803 0 0 -1 
1 774.99995955181782 -1791 -1 -0 
1 0 0 0 1 
8 34.99999960531904 809.99995915713691
1 -34.99999960531904 -1 1 0 
8 34.99999960531904 809.99995915713691
1 34.99999960531904 80.000000000000014 1 0 
1 0 0 0 -1 
1 4.7123889409165942 0 0 -1 
1 745.00000078936102 78.999993830648918 0 -1 
1 -1.4363022490110344e-14 -81 1 0 
8 34.99999960531904 809.99995915713691
1 -34.99999960531904 -1 1 0 
8 34.99999960531904 809.99995915713691
1 34.99999960531904 80.000000000000014 1 0 
2 725.00000078936193 -1721 1 0 -0 1 20
1 0 -81 1 0 
1 30.00000078936192 -1721.0000004032797 0 1 
1 -1.4058686940293665e-14 -81 1 0 
1 724.99995982951384 -1740.9999999999582 -1 0 
1 0 -81 1 0 
2 50.00000078936192 -1721 1 0 -0 1 20
1 0 -81 1 0 
1 6.283184949182882 0 0 -1 
1 720.00001431529586 0 0 -1 
1 6.283184949182882 -1791 -1 -0 
1 0 0 1 0 
1 -1.5707963267948966 -1 1 0 
2 845 100 0 -1 1 0 20
8 0 1.5707963267948966
1 0 0 1 0 
8 0 1.5707963267948966
1 1.5707980306754017 0 0 1 
1 1.5707963267948966 0 0 1 
1 604.99995876245589 -740 -1 -0 
8 0 1.5707963267948966
1 0 774.99995955181782 1 0 
8 0 1.5707963267948966
1 -8.8817841970012523e-16 0 0 1 
1 0 0 1 0 
1 1910 0 0 1 
1 0 0 0 1 
1 1910 0 0 -1 
8 0.49999999999998318 80.500000000000327
1 100 -0.49999999999998318 0 1 
8 0.49999999999998318 80.500000000000327
1 1720.0000004032797 -0.4999999999996782 1.7732126531000425e-16 -1 
1 0 915 1 0 
1 1910 0 0 1 
1 915 0 0 1 
1 1910 0 0 -1 
2 70 100 0 -1 1 0 20
1 -1.5707963267948966 -1 1 0 
1 0 0 1 0 
1 1910 0 0 1 
1 50 50.000000103083785 0 1 
1 0 50.000000103083785 0 -1 
8 -80.500000000000156 -0.49999999999982359
1 814.99999999999909 -0.49999999999982359 0 -1 
8 -80.500000000000156 -0.49999999999982359
1 79.999993830648918 -0.4999999999998378 1.7732126531000425e-16 1 
2 70 819.99999999999989 0 -1 1 0 20
1 -1.5707963267948966 -1 1 0 
8 -120 49.999983479590611
1 120 840 -1 0 
8 -120 49.999983479590611
1 120 -1 1 0 
8 -410.0000035776809 310.00001073761496
1 865 410.0000035776809 0 -1 
8 -410.0000035776809 310.00001073761496
1 410.0000035776809 -1 1 0 
8 120 724.99995876158494
1 120 840 1 0 
8 120 724.99995876158494
1 -120 -1 1 0 
2 845 820 0 -1 1 0 20
1 -1.5707963267948966 -1 1 0 
1 4.7123889409165933 -1791 -1 -0 
1 0 0 1 0 
1 3.1415926432814145 0 0 -1 
1 -1 -0 1 0 
1 1800 1.0842021724855044e-17 4.4723339615027058e-17 -1 
1 6.2831849987120307 0 0 -1 
8 -805.00000308467554 915.00000308467554
1 994.99999691532446 -0.99999999999982359 -1 1.7732126531000425e-16 
8 -805.00000308467554 915.00000308467554
1 994.99999691532446 814.99999999999909 1 0 
1 -1.5707963267948966 -0.99999999999996636 1 0 
2 190 795 -1 0 0 1 20
1 4.7123869323922829 0 0 -1 
1 0 0 0 -1 
1 0 0 -4.4723339615027058e-17 -1 
1 3.1415926737537787 0 0 -1 
8 -1815.0000002016398 -94.999999798360136
1 -94.99999979836015 -0.99999999999998324 -1 -1.7732126531000425e-16 
8 -1815.0000002016398 -94.999999798360136
1 94.99999979836015 100 -1 0 
1 674.99995898322538 0 0 -1 
1 4.7123889832310137 0 0 -1 
8 -277.49997946314943 397.49997952007595
1 397.49997952007595 -0.9999999999999698 -1 0 
8 -277.49997946314943 397.49997952007595
1 170.00000000004195 397.49997952007595 0 1 
1 -1.5707963267948966 -0.99999999999996636 1 0 
2 190 120 -1 0 0 1 20
1 0 -1791 1 0 
1 0 0 0 1 
1 0 0 0 -1 
1 3.5776809269742789e-07 0 0 -1 
8 0 1.5707963267948966
1 0 0 0 1 
8 0 1.5707963267948966
1 0 720.00001431529586 1 0 
1 0 1.5707963267948966 1 0 
2 225 -100 0 -1 1 0 40
1 4.7123889803846897 -1 1 0 
1 0 -20 1 0 
1 1.5707963267948966 0 0 1 
1 -170.0000004926934 -189.9998335021163 0.70710712780479401 0.70710643456813116 
1 1.5707963267948966 0 0 1 
1 605 -19.9999928446382 0 -1 
1 1.5707963267948966 0 0 1 
1 -170 -739.99999979383244 0 1 
1 1.5707963267948966 0 0 1 
1 0 1.5707963267948966 1 0 
8 0 1.5707963267948966
1 1.5707962976351788 0 0 1 
8 0 1.5707963267948966
1 0 1.4210854715202004e-14 1 0 
1 0 0 1 0 
1 0 0 1 0 
1 0 0 0 1 
1 0 0 1 0 
1 0 915 1 0 
1 0 0 1 0 
1 0 -915 1 0 
1 0 0 1 0 
1 0 0 0 -1 
1 0 0 0 1 
1 0 0 0 1 
1 0 915 1 0 
1 0 915 1 0 
1 0 -915 1 0 
1 0 0 0 -1 
1 915 0 0 1 
1 3.1415934813288131 0 0 -1 
1 -1 -719.99998323905197 1 0 
1 0 -941 1 0 
2 170 -20.000000000000114 -1 0 0 1 20
1 1.5707955007744272 0 0 -1 
1 169.99998347959061 0 0 -1 
1 0 -941 1 0 
1 0 0 1 0 
8 -1035.0999999999999 94.099999999999909
1 3.2526131121812796e-07 0 0 1 
8 -941 -1
1 0 0 -0 1 
1 604.99995876158482 0 0 -1 
1 1.5707983887156545 0 0 -1 
1 0 -1791 1 0 
1 0 0 0 1 
1 0 0 0 -1 
1 1.5707963105318312 0 0 -1 
1 1.5707983887156556 -1791 -1 -0 
1 0 0 1 0 
8 0 1.5707963267948966
1 0 0 1 0 
8 0 1.5707963267948966
1 1.5707980309475629 0 0 1 
1 0 0 0 -1 
1 6.2831853071795862 0 0 -1 
1 0 -6 1 0 
2 40 0 -1 0 0 1 40
8 0 1.5707963267948966
1 0 0 1 0 
8 0 1.5707963267948966
1 0.78539784410643487 0 0 1 
8 0 1.5707963267948966
1 0 604.99995876158482 1 0 
8 0 1.5707963267948966
1 1.1102230246251565e-15 0 0 1 
8 0 1.5707963267948966
1 0 8.5265128291212022e-14 1 0 
8 0 1.5707963267948966
1 0.78539861446705439 0 0 1 
1 0 0 0 1 
1 240.41618489729964 -1791 -1 0 
8 0 1.5707963267948966
1 0 240.41618489729953 1 0 
8 0 1.5707963267948966
1 0 0 0 1 
1 0 0 0 1 
1 1790 1.4210854715202004e-14 0 -1 
8 0 1.5707963267948966
1 0 550.00016687009054 1 0 
8 0 1.5707963267948966
1 -4.4408920985006262e-16 0 0 1 
2 465 740 0 1 1 -0 25
1 4.7123889803846897 -1 1 0 
1 190 -189.99983292374179 0 1 
1 940 -550.00016687009065 0 -1 
2 170 -189.99983300942347 0 -1 -1 -0 20
1 -1.5707963267948966 -941 1 0 
8 7.0710660070612121 247.48725090436076
1 9.1421300287690315 -0.85786335796933599 0.70710712780479401 -0.70710643456813116 
8 7.0710660070612121 247.48725090436076
1 -7.0710660070612121 -941 1 -0 
2 3.2526131121812796e-07 -20 0 -1 -1 -0 20
1 -1.5707963267948966 -941 1 0 
1 3.1415926493057156 0 0 -1 
1 -1 -550.00016687009054 1 0 
1 3.1415926493057151 -1791 -1 -0 
1 0 0 1 0 
1 2.3561940348386607 0 0 -1 
1 240.41618489729956 0 0 -1 
1 2.3561941546382661 0 0 -1 
1 1.2058308112392845e-13 0 0 -1 
1 2.3561941546382661 -1791 -1 -0 
1 0 0 1 0 
1 0 1.5707963267948966 1 0 
2 40 0 0 1 -1 0 25
1 -1.5707963267948966 -96 1 0 
1 0 1.5707963267948966 1 0 
1 0 1.5707963267948966 1 0 
1 0 0 0 -1 
1 6.2831853071795862 0 0 -1 
Curves 89
1 844.99995876245589 80.000000000021259 1911 -0 -0 -1 
1 844.99995876245589 80 120 -1 -0 -0 
1 34.99999960531904 80.000000000000014 1910 1 0 -0 
1 69.99999921063808 80.000000000000014 1911 -0 -0 -1 
1 814.99999999999909 1989.9999938306489 0 0 -1 0 
1 34.99999960531904 80.000000000000014 1910 1 0 -0 
2 795 190 0 0 0 1 1 0 -0 -0 1 0 20
1 100 189.9999995967203 0 0 1 0 
1 794.99995904015191 170.00000000004195 0 -1 0 0 
2 120 190 0 0 0 1 1 0 -0 -0 1 0 20
1 864.99999999999932 99.999992840065929 1911 -0 -0 -1 
2 845 100 120 -0 -0 -1 0.99999999999993594 -3.5799670428104888e-07 0 -3.5799670428104888e-07 -0.99999999999993594 0 20
2 845 100 1910 0 0 1 0 -1 0 1 0 -0 20
2 845 100 120 0.99999999999787437 -2.0618772093511806e-06 0 -2.0618772093511806e-06 -0.99999999999787437 0 0 -0 -1 20
1 844.99995876245589 100 100 -1 -0 -0 
2 69.999999210638066 100 120 1 0 0 0 -1 0 0 0 -1 20
1 0 0 1910 1 0 -0 
1 0 0 1910 -0 1 0 
1 100 -0.49999999999998318 1910 0 1 -0 
1 0 915 1910 1 0 -0 
1 915 0 1910 0 1 0 
2 70 100 1910 0 0 1 0 -1 0 1 0 -0 20
1 0 0 1910 1 0 -0 
1 50 50.000000103083785 1910 0 1 0 
1 814.99999999999909 -0.49999999999982359 1910 -0 -1 0 
2 70 819.99999999999989 1910 0 0 1 0 -1 0 1 0 -0 20
1 120 840 1910 -1 0 0 
1 865 410.0000035776809 1910 0 -1 0 
1 120 840 1910 1 0 -0 
2 845 820 1910 0 0 1 0 -1 0 1 0 -0 20
2 70 100 120 -0 -0 -1 -3.9468095991423974e-08 -0.99999999999999922 0 -0.99999999999999922 3.9468095991423974e-08 0 20
1 50 100.00000020616757 1911 -0 -0 -1 
1 814.99999999999909 -0.99999999999996636 189.99999383064892 0 1 -2.2204460492503131e-16 
1 814.99999999999909 0 994.99999691532446 -0 0 1 
2 795 0 190 0 -1 1.7732126531000425e-16 0 -1.7732126531000425e-16 -1 1 0 0 20
1 794.99995904015191 -0.9999999999999698 170.00000000004195 0 1 -2.2204460492503131e-16 
1 100 -0.99999999999996636 189.9999995967203 0 1 -2.2204460492503131e-16 
1 100 0 94.99999979836015 0 0 -1 
1 120.0000000569265 -0.9999999999999698 170.00000000002098 0 1 -2.2204460492503131e-16 
1 397.49997952007595 0 170.00000000004195 1 0 0 
2 120 0 190 0 -1 1.7732126531000425e-16 0 -1.7732126531000425e-16 -1 1 0 0 20
1 865 820.0000071553618 120 0 -1 0 
1 864.99999999999932 820.0000071553618 1911 -0 -0 -1 
2 845 99.999992840065943 120 -0 1 -0 1 0 -0 0 -0 -1 20
2 465 740 100 -0 0 1 0 -1 0 1 0 0 40
1 240 820 100 1 0 0 
1 69.999999507306612 650.0001664978837 99.999999999999957 0.70710712780479401 0.70710643456813116 -0 
1 845 820.0000071553618 100 0 -1 0 
1 70 100.00000020616756 100 0 1 0 
2 70 100 120 -1.030837817866796e-08 -1 0 -1 1.030837817866796e-08 0 -0 0 -1 20
1 0 0 0 0 0 1 
1 0 0 0 1 0 -0 
1 915 0 0 0 0 1 
1 0 915 0 0 0 1 
1 0 0 0 -0 1 0 
1 0 915 0 1 0 -0 
1 915 915 0 0 0 1 
1 915 0 0 -0 1 0 
1 50.000000000003425 819.99998344521953 1911 -0 -0 -1 
2 70 819.99999999999989 0 0 0 1 1 0 -0 -0 1 0 20
1 70.000016520409389 839.99999999999659 1911 -0 -0 -1 
1 240 840 0 -1 0 0 
1 239.99999967473869 840 1911 0 0 1 
1 844.99995876158482 839.99999999997874 1911 -0 -0 -1 
1 240 840 120 1 0 0 
1 240 840 1911 -0 -0 -1 
2 845 820 120 -0 -0 -1 -2.0619207589334115e-06 0.99999999999787426 0 0.99999999999787426 2.0619207589334115e-06 -0 20
2 845 820 120 -3.577680926808001e-07 0.99999999999993605 0 0.99999999999993605 3.577680926808001e-07 -0 -0 0 -1 20
1 505 740 101 -0 -0 -1 
2 465 740 0 0 0 1 1 0 -0 -0 1 0 40
2 240 820 120 -1 -0 -0 -0 1 0 0 0 -1 20
2 844.99995876158482 820 120 -1 -0 -0 -0 1 0 0 0 -1 20
2 70 650.00016699057653 120 -0.70710710317015213 -0.70710645920279624 0 -0.70710645920279624 0.70710710317015213 0 -0 0 -1 20
1 55.85787081594399 664.1423090539796 119.99999999999996 0.70710712780479401 0.70710643456813116 -0 
2 239.99999748782238 819.99999781308577 119.99999999999996 -0.70710712780479401 -0.70710643456813116 0 -0.70710643456813116 0.70710712780479401 0 -0 0 -1 20
1 50 100.00000020616756 120 0 1 0 
2 70 650.00016707625809 120 -0 -1 -0 -1 0 0 0 0 -1 20
2 465 740 0 0 0 -1 0 1 0 1 -0 0 25
1 50 650.00016707625821 0 0 1 0 
2 70 650.00016699057653 970 0 0 1 0 -1 0 1 0 -0 20
1 230.85786997123097 839.14213664203066 970 -0.70710712780479401 -0.70710643456813116 -0 
2 239.99999967473869 820 970 0 0 1 0 -1 0 1 0 -0 20
1 50 650.00016707625809 1911 -0 -0 -1 
2 70 650.00016699057653 120 -0 -0 -1 -1 4.2840781588893153e-09 0 4.2840781588893153e-09 1 -0 20
1 55.857870815944054 664.1423090539796 1911 -0 -0 -1 
1 225.85786879645983 834.14214036918156 1911 -0 -0 -1 
2 239.99999967473869 820 120 -0 -0 -1 -0.70710654391394312 0.70710701845907231 0 0.70710701845907231 0.70710654391394312 -0 20
2 465 740 95 0 0 -1 0 1 0 1 -0 0 25
1 490 740 -1 0 0 1 
Polygon3D 0
PolygonOnTriangulations 0
Surfaces 38
1 69.99999921063808 80.000000000000014 1911 0 -1 0 1 0 0 -0 0 1 
2 845 100 1911 0 0 1 1 0 -0 -0 1 0 20
2 844.99995876245589 100 120 -1 -0 -0 0 -1 0 0 -0 -1 20
1 0 0 1910 0 0 1 1 0 -0 -0 1 0 
2 70 100 1911 0 0 1 1 0 -0 -0 1 0 20
1 814.99999999999909 -0.99999999999964717 1989.9999938306489 -1 0 -0 0 -1.7732126531000425e-16 -1 -0 -1 1.7732126531000425e-16 
2 795 -0.99999999999996636 190 0 -1 1.7732126531000425e-16 1 0 0 -0 1.7732126531000425e-16 1 20
1 100 -0.99999999999996636 189.9999995967203 1 -0 0 0 1.7732126531000425e-16 1 -0 -1 1.7732126531000425e-16 
1 794.99995904015191 -0.9999999999999698 170.00000000004195 0 2.2204460492503131e-16 1 -1 0 0 0 -1 2.2204460492503131e-16 
2 120 -0.99999999999996636 190 0 -1 1.7732126531000425e-16 1 0 0 -0 1.7732126531000425e-16 1 20
1 865 820.0000071553618 1911 -1 0 0 0 -1 0 0 0 1 
4 845 100 120 -0 -0 -1 0.99999999999993594 -3.5799670428104888e-07 0 -3.5799670428104888e-07 -0.99999999999993594 0 20
1 240 840 1910 -0 0 1 1 0 0 0 1 -0 
4 70 100 120 -0 -0 -1 -3.9468095991423974e-08 -0.99999999999999922 0 -0.99999999999999922 3.9468095991423974e-08 0 20
1 0 0 0 -0 1 0 0 0 1 1 0 -0 
1 0 0 0 1 0 -0 0 0 1 0 -1 0 
1 0 915 0 -0 1 0 0 0 1 1 0 -0 
1 915 0 0 1 0 -0 0 0 1 0 -1 0 
1 50 100.00000020616757 1910 -1 0 0 0 0 -1 -0 -1 -0 
2 70 819.99999999999989 1911 0 0 1 1 0 -0 -0 1 0 20
1 240 840 1911 0 1 -0 -1 0 0 0 0 1 
1 240 840 1911 0 -1 0 1 0 0 -0 0 1 
2 845 820 1911 0 0 1 1 0 -0 -0 1 0 20
2 845 820.0000071553618 120 0 -1 0 1 0 0 0 -0 -1 20
2 465 740 101 0 0 1 1 0 -0 -0 1 0 40
2 240 820 120 1 0 0 -0 1 0 -0 0 -1 20
2 69.999999507306612 650.0001664978837 119.99999999999996 0.70710712780479401 0.70710643456813116 -0 -0.70710643456813116 0.70710712780479401 0 -0 -0 -1 20
2 70 100.00000020616756 120 0 1 0 -1 0 0 -0 0 -1 20
1 0 0 0 0 0 1 1 0 -0 -0 1 0 
1 240 840 1910 -0 0 -1 -1 0 0 0 1 0 
2 239.99999967473869 820 1911 0 0 1 1 0 -0 -0 1 0 20
4 845 820 120 -0 -0 -1 -2.0619207589334115e-06 0.99999999999787426 0 0.99999999999787426 2.0619207589334115e-06 -0 20
1 505 740 100 -0 0 -1 -1 0 0 0 1 0 
4 239.99999967473869 820 120 -0 -0 -1 -0.70710654391394312 0.70710701845907231 0 0.70710701845907231 0.70710654391394312 -0 20
4 70 650.00016699057653 120 -0 -0 -1 -1 4.2840781588893153e-09 0 4.2840781588893153e-09 1 -0 20
1 225.85786879645983 834.14214036918167 1911 -0.70710643456813116 0.70710712780479401 0 -0.70710712780479401 -0.70710643456813116 0 0 0 1 
2 465 740 -1 0 0 -1 1 0 0 0 -1 0 25
2 70 650.00016699057653 1911 0 0 1 1 0 -0 -0 1 0 20
Triangulations 0

TShapes 229
Ve
8.24750882202352e-05
844.999958762456 80.0000000000425 120
0 0

0101101
*
Ve
2.00022252409246e-07
844.999958762456 80.0000000000213 1910
0 0

0101101
*
Ed
 1.00021252409246e-07 1 1 0
1  1 0 1.00000000000008 1791
2  1 1 0 1.00000000000008 1791
2  2 2 0 1.00000000000008 1791
4 G1 1 0 2 0
0

0101000
-229 16 +228 16 *
Ve
1.57872386807867e-06
69.9999992106381 80 120
0 0

0101101
*
Ed
 1e-07 1 1 0
1  2 0 -0 774.999959551818
2  3 1 15 -0 774.999959551818
2  4 3 0 -0 774.999959551818
4 G1 1 15 3 0
0

0101000
+229 17 -226 17 *
Ve
1.00000163424829e-07
814.999999999999 80.0000000000002 1910
0 0

0101101
*
Ed
 1e-07 1 1 0
1  3 0 780.00000039468 809.999959157137
2  5 1 0 780.00000039468 809.999959157137
2  6 4 20 780.00000039468 809.999959157137
0

0101000
+224 16 -228 16 *
Ve
2.00001e-07
69.9999992106381 80 1910
0 0

0101101
*
Ed
 1e-07 1 1 0
1  4 0 1.00000000000008 1791
2  7 1 0 1.00000000000008 1791
2  8 5 0 1.00000000000008 1791
4 G1 1 0 5 0
0

0101000
-226 16 +222 16 *
Ve
1.00000014210855e-07
814.999999999999 80 189.999993830649
0 0

0101101
*
Ed
 1e-07 1 1 0
1  5 0 79.9999938306489 1800
2  9 1 25 79.9999938306489 1800
2  10 6 26 79.9999938306489 1800
0

0101000
+224 27 -220 27 *
Ve
1.00000156319402e-07
100 80.0000000000002 1910
0 0

0101101
*
Ed
 1e-07 1 1 0
1  6 0 34.999999605319 65.000000394681
2  11 1 0 34.999999605319 65.000000394681
2  12 4 20 34.999999605319 65.000000394681
0

0101000
+222 16 -218 16 *
Ve
1e-07
794.999959040152 80 170.000000000042
0 0

0101101
*
Ed
 1e-07 1 1 0
1  7 0 4.71238693239228 6.28318499871203
2  13 1 25 4.71238693239228 6.28318499871203
2  14 7 26 4.71238693239228 6.28318499871203
0

0101000
+216 27 -220 27 *
Ve
1e-07
100 80 189.99999959672
0 0

0101101
*
Ed
 1e-07 1 1 0
1  8 0 0 1720.00000040328
2  15 1 25 0 1720.00000040328
2  16 8 26 0 1720.00000040328
0

0101000
+214 27 -218 27 *
Ve
1.00020975232391e-07
120.000000056926 80 170.000000000021
0 0

0101101
*
Ed
 1e-07 1 1 0
1  9 0 0 674.999958983225
2  17 1 25 0 674.999958983225
2  18 9 26 0 674.999958983225
0

0101000
+216 27 -212 27 *
Ed
 1e-07 1 1 0
1  10 0 3.14159267375378 4.71238898323101
2  19 1 25 3.14159267375378 4.71238898323101
2  20 10 26 3.14159267375378 4.71238898323101
0

0101000
+214 27 -212 27 *
Wi

0101100
-227 15 -225 0 -223 15 +221 15 +219 24 -217 15 -215 24 +213 24 +211 24 -210 24 
*
Fa
0  1e-07 1 13

0101000
+209 14 *
Ve
1.43198681143986e-05
865 99.9999928400659 120
0 0

0101101
*
Ve
2.00001625439074e-07
864.999999999999 99.9999928400659 1910
0 0

0101101
*
Ed
 1.00000625439074e-07 1 1 0
1  11 0 0.999999999999912 1791
2  21 2 0 0.999999999999912 1791
2  22 11 0 0.999999999999912 1791
4 G1 2 0 11 0
0

0101000
-207 16 +206 16 *
Ed
 1e-07 1 1 0
1  12 0 -0 1.5707980306754
2  23 2 15 -0 1.5707980306754
2  24 12 0 -0 1.5707980306754
4 G1 2 15 12 0
0

0101100
+207 17 -229 17 *
Ed
 1e-07 1 1 0
1  13 0 6.28318324530238 7.85398127597778
2  25 2 0 6.28318324530238 7.85398127597778
2  26 4 20 6.28318324530238 7.85398127597778
0

0101000
+228 16 -206 16 *
Wi

0101100
-205 15 -204 0 -203 15 +227 15 *
Fa
0  1e-07 2 0

0101000
+202 29 *
Ve
8.24750882202352e-05
845 99.9999928400659 100
0 0

0101101
*
Ed
 8.24750882202352e-05 1 1 0
1  14 0 0 1.5707963267949
2  27 3 0 0 1.5707963267949
2  28 12 0 0 1.5707963267949
4 G1 3 0 12 0
0

0101100
+229 17 -200 17 *
Ve
1.57872386807867e-06
69.9999992106381 100 100
0 0

0101101
*
Ed
 1e-07 1 1 0
1  15 0 -0 774.999959551818
2  29 3 0 -0 774.999959551818
2  30 13 33 -0 774.999959551818
4 G1 3 0 13 33
0

0101000
+200 17 -198 17 *
Ed
 1.57872386807867e-06 1 1 0
1  16 0 0 1.5707963267949
2  31 3 0 0 1.5707963267949
2  32 14 0 0 1.5707963267949
4 G1 3 0 14 0
0

0101100
+226 17 -198 17 *
Wi

0101100
+199 0 -225 0 +197 0 -196 0 *
Fa
0  1e-07 3 0

0101000
+195 0 *
Ve
1e-07
0 0 1910
0 0

0101101
*
Ve
2.00001e-07
100 0 1910
0 0

0101101
*
Ed
 1e-07 1 1 0
1  17 0 0 100
2  33 4 0 0 100
2  34 15 0 0 100
0

0101000
+193 36 -192 36 *
Ve
1e-07
0 915 1910
0 0

0101101
*
Ed
 1e-07 1 1 0
1  18 0 0 915
2  35 4 0 0 915
2  36 16 0 0 915
0

0101000
-190 36 +193 36 *
Ed
 1e-07 1 1 0
1  19 0 0.499999999999983 80.5000000000003
2  37 4 38 0.499999999999983 80.5000000000003
2  38 8 0 0.499999999999983 80.5000000000003
0

0101000
+192 39 -218 39 *
Ve
1e-07
915 915 1910
0 0

0101101
*
Ed
 1e-07 1 1 0
1  20 0 0 915
2  39 4 0 0 915
2  40 17 0 0 915
0

0101000
-187 36 +190 36 *
Ve
1e-07
915 0 1910
0 0

0101101
*
Ed
 1e-07 1 1 0
1  21 0 0 915
2  41 4 0 0 915
2  42 18 0 0 915
0

0101000
-187 36 +185 36 *
Ve
2.00001e-07
50 100.000000206168 1910
0 0

0101101
*
Ed
 1e-07 1 1 0
1  22 0 4.71238897007631 6.28318526771149
2  43 4 20 4.71238897007631 6.28318526771149
2  44 5 0 4.71238897007631 6.28318526771149
0

0101000
+183 16 -222 16 *
Ve
2.00001e-07
814.999999999999 0 1910
0 0

0101101
*
Ed
 1e-07 1 1 0
1  23 0 814.999999999999 915
2  45 4 0 814.999999999999 915
2  46 15 0 814.999999999999 915
0

0101000
+181 36 -185 36 *
Ve
2.00004424815986e-07
50.0000000000034 819.99998344522 1910
0 0

0101101
*
Ed
 1e-07 1 1 0
1  24 0 50.0000001030838 769.999983342136
2  47 4 42 50.0000001030838 769.999983342136
2  48 19 0 50.0000001030838 769.999983342136
0

0101000
+183 0 -179 0 *
Ed
 1e-07 1 1 0
1  25 0 -80.5000000000002 -0.499999999999824
2  49 4 38 -80.5000000000002 -0.499999999999824
2  50 6 0 -80.5000000000002 -0.499999999999824
0

0101000
+224 39 -181 39 *
Ve
2.00004467448551e-07
70.0000165204094 839.999999999997 1910
0 0

0101101
*
Ed
 1e-07 1 1 0
1  26 0 3.14159182756932 4.71238980812371
2  51 4 44 3.14159182756932 4.71238980812371
2  52 20 0 3.14159182756932 4.71238980812371
0

0101000
+176 45 -179 45 *
Ve
0.00102371432444572
240 840 1910
0 0

0101101
*
Ed
 1e-07 1 1 0
1  27 0 -120 49.9999834795906
2  53 4 44 -120 49.9999834795906
2  54 21 0 -120 49.9999834795906
0

0101000
+174 45 -176 45 *
Ve
2.00001625277607e-07
864.999999999999 820.000007155362 1910
0 0

0101101
*
Ed
 1e-07 1 1 0
1  28 0 -410.000003577681 310.000010737615
2  55 4 20 -410.000003577681 310.000010737615
2  56 11 0 -410.000003577681 310.000010737615
0

0101000
+172 16 -206 16 *
Ve
2.00022259514648e-07
844.999958761585 839.999999999979 1910
0 0

0101101
*
Ed
 1e-07 1 1 0
1  29 0 120 724.999958761585
2  57 4 20 120 724.999958761585
2  58 22 0 120 724.999958761585
0

0101000
+174 16 -170 16 *
Ed
 1e-07 1 1 0
1  30 0 1.57079668456299 3.14159471551055
2  59 4 20 1.57079668456299 3.14159471551055
2  60 23 0 1.57079668456299 3.14159471551055
0

0101000
+172 16 -170 16 *
Wi

0101000
+191 35 -189 35 +188 37 -186 35 -217 40 +184 35 -182 40 +180 35 +178 41 +177 37 
-223 40 -175 43 -203 40 -173 43 +171 40 +169 40 -168 40 *
Fa
0  1e-07 4 35

0101000
+167 0 *
Ve
4.12335140254072e-07
50 100.000000206168 120
0 0

0101101
*
Ed
 1e-07 1 1 0
1  31 0 -8.88178419700125e-16 1.57079629763518
2  61 5 15 -8.88178419700125e-16 1.57079629763518
2  62 14 0 -8.88178419700125e-16 1.57079629763518
4 G1 5 15 14 0
0

0101100
+226 17 -165 17 *
Ed
 1.00003424815986e-07 1 1 0
1  32 0 1.00000000000009 1791
2  63 5 0 1.00000000000009 1791
2  64 19 16 1.00000000000009 1791
0

0101000
-165 16 +183 16 *
Wi

0101100
-221 15 -164 0 -182 15 +163 15 *
Fa
0  1e-07 5 0

0101000
+162 29 *
Ve
2.00001014210855e-07
814.999999999999 0 189.999993830649
0 0

0101101
*
Ed
 1.00000014210855e-07 1 1 0
1  33 0 0.999999999999966 81
2  65 6 0 0.999999999999966 81
2  66 7 0 0.999999999999966 81
4 G1 6 0 7 0
0

0101000
+160 39 -220 39 *
Ed
 1e-07 1 1 0
1  34 0 -805.000003084676 915.000003084676
2  67 6 0 -805.000003084676 915.000003084676
2  68 15 38 -805.000003084676 915.000003084676
0

0101000
+160 39 -181 39 *
Wi

0101000
-159 0 +219 46 -177 0 +158 0 *
Fa
0  1e-07 6 0

0101000
+157 0 *
Ve
2.00001e-07
794.999959040152 0 170.000000000042
0 0

0101101
*
Ed
 1e-07 1 1 0
1  35 0 6.28318325918718 7.85398132550693
2  69 7 0 6.28318325918718 7.85398132550693
2  70 15 38 6.28318325918718 7.85398132550693
0

0101000
+155 39 -160 39 *
Ed
 1e-07 1 1 0
1  36 0 0.99999999999997 81
2  71 7 0 0.99999999999997 81
2  72 9 0 0.99999999999997 81
4 G1 7 0 9 0
0

0101000
+155 39 -216 39 *
Wi

0101000
-154 0 -159 0 +215 46 +153 0 *
Fa
0  1e-07 7 0

0101000
+152 0 *
Ve
2.00001e-07
100 0 189.99999959672
0 0

0101101
*
Ed
 1e-07 1 1 0
1  37 0 0.999999999999966 81
2  73 8 0 0.999999999999966 81
2  74 10 0 0.999999999999966 81
4 G1 8 0 10 0
0

0101000
+150 39 -214 39 *
Ed
 1e-07 1 1 0
1  38 0 -1815.00000020164 -94.9999997983601
2  75 8 0 -1815.00000020164 -94.9999997983601
2  76 15 38 -1815.00000020164 -94.9999997983601
0

0101000
+192 39 -150 39 *
Wi

0101000
-188 0 +213 46 +149 0 +148 0 *
Fa
0  1e-07 8 0

0101000
+147 0 *
Ve
2.00021975232391e-07
120.000000056926 0 170.000000000021
0 0

0101101
*
Ed
 1.00020975232391e-07 1 1 0
1  39 0 0.99999999999997 81
2  77 9 0 0.99999999999997 81
2  78 10 0 0.99999999999997 81
4 G1 9 0 10 0
0

0101000
+145 39 -212 39 *
Ed
 1e-07 1 1 0
1  40 0 -277.499979463149 397.499979520076
2  79 9 0 -277.499979463149 397.499979520076
2  80 15 38 -277.499979463149 397.499979520076
0

0101000
+145 39 -155 39 *
Wi

0101000
-144 0 +211 46 +153 0 +143 0 *
Fa
0  1e-07 9 0

0101000
+142 0 *
Ed
 1e-07 1 1 0
1  41 0 4.71238900054867 6.28318531002591
2  81 10 0 4.71238900054867 6.28318531002591
2  82 15 38 4.71238900054867 6.28318531002591
0

0101000
+150 39 -145 39 *
Wi

0101000
-140 0 -144 0 +210 46 +149 0 *
Fa
0  1e-07 10 0

0101000
+139 0 *
Ve
1.43107235999196e-05
864.999999999999 820.000007155362 120
0 0

0101101
*
Ed
 1e-07 1 1 0
1  42 0 0 720.000014315296
2  83 11 15 0 720.000014315296
2  84 24 0 0 720.000014315296
4 G1 11 15 24 0
0

0101000
+137 17 -207 17 *
Ed
 1.00000625277607e-07 1 1 0
1  43 0 0.999999999999912 1791
2  85 11 0 0.999999999999912 1791
2  86 23 0 0.999999999999912 1791
4 G1 11 0 23 0
0

0101000
-137 16 +172 16 *
Wi

0101100
-205 15 +136 0 -171 15 +135 15 *
Fa
0  1e-07 11 0

0101000
+134 29 *
Ed
 1.43198681143986e-05 1 1 0
1  44 0 0 1.5707963267949
2  87 12 0 0 1.5707963267949
2  88 24 0 0 1.5707963267949
4 G1 12 0 24 0
0

0101100
+207 17 -200 17 *
Ed
 1e-07 1 1 1
2  89 12 0 -0 1.5707980306754
0

0101000
+200 17 -200 17 *
Wi

0101100
-132 0 +204 0 -131 0 +199 0 *
Fa
0  1e-07 12 0

0101000
+130 0 *
Ve
2.00001e-07
505 740 100
0 0

0101101
*
Ed
 1e-07 1 1 0
1  45 0 -4.71238898038469 1.5707963267949
2  90 13 48 -4.71238898038469 1.5707963267949
2  91 25 1 -4.71238898038469 1.5707963267949
0

0101100
+128 0 -128 0 *
Wi

0101000
-127 2 *
Ve
6.18553046224246e-06
240 820 100
0 0

0101101
*
Ve
8.24768303573364e-05
844.999958761585 820 100
0 0

0101101
*
Ed
 1e-07 1 1 0
1  46 0 0 604.999958761585
2  92 13 33 0 604.999958761585
2  93 26 0 0 604.999958761585
4 G1 13 33 26 0
0

0101000
+125 17 -124 17 *
Ve
1.39354631872251e-06
70 650.000167076258 100
0 0

0101101
*
Ed
 1e-07 1 1 0
1  47 0 8.5265128291212e-14 240.4161848973
2  94 13 33 8.5265128291212e-14 240.4161848973
2  95 27 0 8.5265128291212e-14 240.4161848973
4 G1 13 33 27 0
0

0101000
+122 17 -125 17 *
Ed
 1e-07 1 1 0
1  48 0 0 720.000014315296
2  96 13 33 0 720.000014315296
2  97 24 0 0 720.000014315296
4 G1 13 33 24 0
0

0101000
+124 17 -200 17 *
Ed
 1e-07 1 1 0
1  49 0 1.4210854715202e-14 550.000166870091
2  98 13 33 1.4210854715202e-14 550.000166870091
2  99 28 0 1.4210854715202e-14 550.000166870091
4 G1 13 33 28 0
0

0101000
+198 17 -122 17 *
Wi

0101000
-123 49 -121 49 -120 49 -119 49 -197 49 *
Fa
0  1e-07 13 47

0101000
+126 0 +118 0 *
Ed
 1e-07 1 1 1
2  100 14 0 -8.88178419700125e-16 1.57079629763518
0

0101000
+198 17 -198 17 *
Ed
 4.12335140254072e-07 1 1 0
1  50 0 0 1.5707963267949
2  101 14 0 0 1.5707963267949
2  102 28 0 0 1.5707963267949
4 G1 14 0 28 0
0

0101100
+165 17 -198 17 *
Wi

0101100
-196 0 +164 0 -116 0 +115 0 *
Fa
0  1e-07 14 0

0101000
+114 0 *
Ve
1e-07
0 0 0
0 0

0101101
*
Ed
 1e-07 1 1 0
1  51 0 0 1910
2  103 15 0 0 1910
2  104 16 0 0 1910
0

0101000
-193 36 +112 36 *
Ve
1e-07
915 0 0
0 0

0101101
*
Ed
 1e-07 1 1 0
1  52 0 0 915
2  105 15 0 0 915
2  106 29 0 0 915
0

0101000
-110 36 +112 36 *
Ed
 1e-07 1 1 0
1  53 0 0 1910
2  107 15 0 0 1910
2  108 18 0 0 1910
0

0101000
-185 36 +110 36 *
Wi

0101000
+143 0 +140 0 +148 0 +191 38 +111 38 -109 38 -108 38 +180 38 +158 0 +154 0 
*
Fa
0  1e-07 15 38

0101000
+107 0 *
Ve
1e-07
0 915 0
0 0

0101101
*
Ed
 1e-07 1 1 0
1  54 0 0 1910
2  109 16 0 0 1910
2  110 17 0 0 1910
0

0101000
-190 36 +105 36 *
Ed
 1e-07 1 1 0
1  55 0 0 915
2  111 16 0 0 915
2  112 29 0 0 915
0

0101000
-105 36 +112 36 *
Wi

0101000
-111 0 -189 0 +104 0 +103 0 *
Fa
0  1e-07 16 0

0101000
+102 0 *
Ve
1e-07
915 915 0
0 0

0101101
*
Ed
 1e-07 1 1 0
1  56 0 0 915
2  113 17 0 0 915
2  114 29 0 0 915
0

0101000
-100 36 +105 36 *
Ed
 1e-07 1 1 0
1  57 0 0 1910
2  115 17 0 0 1910
2  116 18 0 0 1910
0

0101000
-187 36 +100 36 *
Wi

0101000
-99 0 -98 0 +186 0 +104 0 *
Fa
0  1e-07 17 0

0101000
+97 0 *
Ed
 1e-07 1 1 0
1  58 0 0 915
2  117 18 0 0 915
2  118 29 0 0 915
0

0101000
-100 36 +110 36 *
Wi

0101000
-108 0 -184 0 +98 0 +95 0 *
Fa
0  1e-07 18 0

0101000
+94 0 *
Ve
1.00003424815986e-07
50.0000000000034 819.99998344522 970
0 0

0101101
*
Ed
 1.00003424815986e-07 1 1 0
1  59 0 0.999999999999915 941
2  119 20 0 0.999999999999915 941
2  120 19 45 0.999999999999915 941
0

0101000
+179 45 -92 45 *
Ve
1.00003467448551e-07
70.0000165204094 839.999999999997 970
0 0

0101101
*
Ed
 1e-07 1 1 0
1  60 0 1.57079550077443 3.14159348132881
2  121 20 55 1.57079550077443 3.14159348132881
2  122 30 56 1.57079550077443 3.14159348132881
0

0101000
+90 57 -92 57 *
Ed
 1.00003467448551e-07 1 1 0
1  61 0 1.00000000000006 941
2  123 20 0 1.00000000000006 941
2  124 21 0 1.00000000000006 941
4 G1 20 0 21 0
0

0101000
+176 45 -90 45 *
Wi

0101000
-175 0 -91 0 +89 54 +88 0 *
Fa
0  1e-07 20 0

0101000
+87 0 *
Ve
0.098100524674305
240 840 970
0 0

0101101
*
Ed
 1e-07 1 1 0
1  62 0 0 169.999983479591
2  125 21 55 0 169.999983479591
2  126 30 56 0 169.999983479591
0

0101000
+85 57 -90 57 *
Ed
 4.87891966827192e-07 1 1 0
1  63 0 -941 -1
2  127 21 50 -941 -1
2  128 22 28 -941 -1
0

0101000
+85 0 -174 0 *
Wi

0101000
-173 0 -88 0 +84 54 -83 45 *
Fa
0  1e-07 21 0

0101000
+82 0 *
Ve
8.24768303573364e-05
844.999958761585 840 120
0 0

0101101
*
Ed
 1.00021259514648e-07 1 1 0
1  64 0 1.00000000000007 1791
2  129 22 0 1.00000000000007 1791
2  130 23 0 1.00000000000007 1791
4 G1 22 0 23 0
0

0101000
-80 16 +170 16 *
Ve
6.50522622436256e-07
240 840 120
0 0

0101101
*
Ed
 1e-07 1 1 0
1  65 0 0 604.999958761585
2  131 22 15 0 604.999958761585
2  132 26 0 0 604.999958761585
4 G1 22 15 26 0
0

0101000
+78 17 -80 17 *
Ed
 1e-07 1 1 0
1  66 0 941 1791
2  133 22 0 941 1791
2  134 31 0 941 1791
4 G1 22 0 31 0
0

0101000
-78 16 +85 16 *
Wi

0101000
-79 15 +77 0 -169 15 +76 15 -83 17 *
Fa
0  1e-07 22 58

0101000
+75 59 *
Ed
 1e-07 1 1 0
1  67 0 1.11022302462516e-15 1.57079803094756
2  135 23 15 1.11022302462516e-15 1.57079803094756
2  136 32 0 1.11022302462516e-15 1.57079803094756
4 G1 23 15 32 0
0

0101100
+80 17 -137 17 *
Wi

0101100
-79 15 -73 0 -168 15 +135 15 *
Fa
0  1e-07 23 0

0101000
+72 29 *
Ed
 1.43107235999196e-05 1 1 0
1  68 0 0 1.5707963267949
2  137 24 0 0 1.5707963267949
2  138 32 0 0 1.5707963267949
4 G1 24 0 32 0
0

0101100
+137 17 -124 17 *
Wi

0101100
+70 0 -136 0 +120 0 -132 0 *
Fa
0  1e-07 24 0

0101000
+69 0 *
Ve
1e-07
505 740 95
0 0

0101101
*
Ed
 1e-07 1 1 0
1  69 0 0.999999999999998 6
3  139 140CN 25 0 0.999999999999998 6
0

0101000
+128 2 -67 2 *
Ed
 1e-07 1 1 0
1  70 0 0 6.28318530717959
2  141 25 64 0 6.28318530717959
2  142 33 65 0 6.28318530717959
0

0101100
+67 66 -67 66 *
Wi

0101000
-66 0 +65 63 +66 0 -127 2 *
Fa
0  1e-07 25 0

0101000
+64 0 *
Ed
 6.50522622436256e-07 1 1 0
1  71 0 0 1.5707963267949
2  143 26 0 0 1.5707963267949
2  144 34 0 0 1.5707963267949
4 G1 26 0 34 0
0

0101100
+78 17 -125 17 *
Ed
 8.24768303573364e-05 1 1 0
1  72 0 0 1.5707963267949
2  145 26 0 0 1.5707963267949
2  146 32 0 0 1.5707963267949
4 G1 26 0 32 0
0

0101100
+80 17 -124 17 *
Wi

0101100
+62 0 -77 0 +123 0 -61 0 *
Fa
0  1e-07 26 0

0101000
+60 0 *
Ve
1.39354631872251e-06
55.8578708159441 664.14230905398 120
0 0

0101101
*
Ed
 1.39354631872251e-06 1 1 0
1  73 0 0 1.5707963267949
2  147 27 0 0 1.5707963267949
2  148 35 0 0 1.5707963267949
4 G1 27 0 35 0
0

0101100
+58 17 -122 17 *
Ve
6.18553046224246e-06
225.85786879646 834.142140369182 120
0 0

0101101
*
Ed
 1e-07 1 1 0
1  74 0 8.5265128291212e-14 240.4161848973
2  149 27 0 8.5265128291212e-14 240.4161848973
2  150 36 15 8.5265128291212e-14 240.4161848973
4 G1 27 0 36 15
0

0101000
+58 17 -56 17 *
Ed
 6.18553046224246e-06 1 1 0
1  75 0 0 1.5707963267949
2  151 27 0 0 1.5707963267949
2  152 34 0 0 1.5707963267949
4 G1 27 0 34 0
0

0101100
+56 17 -125 17 *
Wi

0101100
+57 0 -55 0 +121 0 -54 0 *
Fa
0  1e-07 27 0

0101000
+53 0 *
Ve
1.71363126355573e-07
50 650.000167076258 120
0 0

0101101
*
Ed
 1.00003424815986e-07 1 1 0
1  76 0 1.4210854715202e-14 550.000166870091
2  153 28 0 1.4210854715202e-14 550.000166870091
2  154 19 17 1.4210854715202e-14 550.000166870091
0

0101000
+165 17 -51 17 *
Ed
 1.71363126355573e-07 1 1 0
1  77 0 0 1.5707963267949
2  155 28 0 0 1.5707963267949
2  156 35 0 0 1.5707963267949
4 G1 28 0 35 0
0

0101100
+51 17 -122 17 *
Wi

0101100
+115 0 -50 0 +119 0 -49 0 *
Fa
0  1e-07 28 0

0101000
+48 0 *
Ve
2.00001e-07
490 740 0
0 0

0101101
*
Ed
 1e-07 1 1 0
1  78 0 -4.71238898038469 1.5707963267949
2  157 29 42 -4.71238898038469 1.5707963267949
2  158 37 34 -4.71238898038469 1.5707963267949
0

0101100
+46 0 -46 0 *
Wi

0101000
+45 41 *
Wi

0101000
-103 35 -99 35 +109 35 +95 35 *
Fa
0  1e-07 29 35

0101000
+44 0 +43 0 *
Ve
0.015604062418539
50 650.000167076258 970
0 0

0101101
*
Ed
 1.00003424815986e-07 1 1 0
1  79 0 0 169.999816368961
2  159 30 56 0 169.999816368961
2  160 19 57 0 169.999816368961
0

0101000
+41 57 -92 57 *
Ve
2.00001017763568e-07
55.8578708159441 664.14230905398 970
0 0

0101101
*
Ed
 1e-07 1 1 0
1  80 0 3.92699036163356 4.71238897610061
2  161 30 67 3.92699036163356 4.71238897610061
2  162 38 58 3.92699036163356 4.71238897610061
0

0101000
+39 45 -41 45 *
Ve
2.00001113686838e-07
225.85786879646 834.142140369182 970
0 0

0101101
*
Ed
 1e-07 1 1 0
1  81 0 7.07106600706121 247.487250904361
2  163 30 67 7.07106600706121 247.487250904361
2  164 36 58 7.07106600706121 247.487250904361
0

0101000
+37 45 -39 45 *
Ed
 1e-07 1 1 0
1  82 0 3.14159263732673 3.92699048143316
2  165 30 67 3.14159263732673 3.92699048143316
2  166 31 58 3.14159263732673 3.92699048143316
0

0101000
+85 45 -37 45 *
Wi

0101000
-84 54 -89 54 +40 54 +38 0 +36 0 +35 0 *
Fa
0  1e-07 30 67

0101000
+34 0 *
Ed
 1.00003424815986e-07 1 1 0
1  83 0 941 1791
2  167 38 0 941 1791
2  168 19 16 941 1791
0

0101000
-51 16 +41 16 *
Ed
 1e-07 1 1 0
1  84 0 -4.44089209850063e-16 0.785398614467054
2  169 38 15 -4.44089209850063e-16 0.785398614467054
2  170 35 0 -4.44089209850063e-16 0.785398614467054
4 G1 38 15 35 0
0

0101100
+51 17 -58 17 *
Ed
 1.00000017763568e-07 1 1 0
1  85 0 941 1791
2  171 38 0 941 1791
2  172 36 0 941 1791
4 G1 38 0 36 0
0

0101000
-58 16 +39 16 *
Wi

0101100
-32 15 -31 0 -38 68 +30 15 *
Fa
0  1e-07 38 58

0101000
+29 59 *
Ed
 1.00000113686838e-07 1 1 0
1  86 0 941 1791
2  173 31 0 941 1791
2  174 36 0 941 1791
4 G1 31 0 36 0
0

0101000
-56 16 +37 16 *
Ed
 1e-07 1 1 0
1  87 0 -0 0.785397844106435
2  175 31 15 -0 0.785397844106435
2  176 34 0 -0 0.785397844106435
4 G1 31 15 34 0
0

0101100
+56 17 -78 17 *
Wi

0101000
-27 15 -26 0 -35 68 +76 15 *
Fa
0  1e-07 31 58

0101000
+25 59 *
Ed
 1e-07 1 1 1
2  177 32 0 1.11022302462516e-15 1.57079803094756
0

0101000
+124 17 -124 17 *
Wi

0101100
-61 0 +73 0 -23 0 +70 0 *
Fa
0  1e-07 32 0

0101000
+22 0 *
Ve
2.00001e-07
490 740 95
0 0

0101101
*
Ed
 1e-07 1 1 0
1  88 0 1.5707963267949 7.85398163397449
2  178 33 70 1.5707963267949 7.85398163397449
2  179 37 34 1.5707963267949 7.85398163397449
0

0101100
+20 0 -20 0 *
Wi

0101000
-19 2 *
Wi

0101000
-65 63 *
Fa
0  1e-07 33 69

0101000
+18 0 +17 0 *
Ed
 1e-07 1 1 1
2  180 34 0 -0 0.785397844106435
0

0101000
+125 17 -125 17 *
Wi

0101100
-54 0 +26 0 -15 0 +62 0 *
Fa
0  1e-07 34 0

0101000
+14 0 *
Ed
 1e-07 1 1 1
2  181 35 0 -4.44089209850063e-16 0.785398614467054
0

0101000
+122 17 -122 17 *
Wi

0101100
-49 0 +31 0 -12 0 +57 0 *
Fa
0  1e-07 35 0

0101000
+11 0 *
Wi

0101100
-30 15 -55 0 -36 68 +27 15 *
Fa
0  1e-07 36 58

0101000
+9 59 *
Ed
 1e-07 1 1 0
1  89 0 1 96
3  182 183CN 37 0 1 96
0

0101000
+46 41 -20 41 *
Wi

0101000
+7 71 -45 2 -7 71 +19 2 *
Fa
0  1e-07 37 71

0101000
+6 0 *
Wi

0101000
+163 28 +50 30 -32 28 +40 72 -91 50 -178 0 *
Fa
0  1.00003424815986e-07 19 0

0101000
-4 0 *
Sh

0101000
-208 8 -201 28 +194 30 +166 34 -161 28 +156 8 -151 8 +146 8 +141 8 -138 8 
+133 28 -129 30 +117 1 -113 30 -106 8 -101 42 +96 42 +93 42 -86 50 -81 50 
+74 50 -71 28 +68 30 -63 1 +59 30 +52 30 +47 30 -42 34 -33 50 -28 50 
-24 50 -21 30 -16 1 -13 30 -10 30 -8 50 -5 1 -3 0 *
So

1100000
+2 2 *

+1 1 