DBRep_DrawableShape

CASCADE Topology V1, (c) Matra-Datavision
Locations 10
1
             -1               0               0              -0 
             -0 -2.22044604925031e-016              -1             -20 
              0              -1 2.22044604925031e-016 2.44929359829471e-015 
1
              1               0               0               0 
              0              -1 1.22464679914735e-016               0 
              0 -1.22464679914735e-016              -1               0 
2  1 1 2 -1 0
2  2 1 1 -1 0
2  1 -1 0
1
              1               0               0              -0 
              0               1               0             -10 
              0               0               1 3.44509284839767e-015 
2  1 1 2 -1 6 1 0
2  6 -1 2 1 1 -1 0
2  2 -1 0
2  2 -1 6 1 0
Curve2ds 24
1 0 0 0 -1 
1 3.1605648966959934 0 0 -1 
1 14.84999999999992 1.9894644777304951e-015 0 -1 
1 0 3.5527136788005009e-015 0 -1 
1 0 0 1 0 
1 0 0 1 0 
1 -3.4014720596812592e-018 -10 1 0 
1 0 0 1 0 
1 39.999999999998124 3.5527136788005009e-015 0 -1 
1 -1.7763568394002516e-015 3.5527136788005001e-015 0 -1 
1 0 0 1 0 
1 14.849999999999918 0 0 -1 
1 0 -9.9999999999999982 1 0 
1 14.849999999999918 0 0 -1 
1 14.850000000000042 1.5632492010700485e-015 0 -1 
1 6.2642130640733802 0 0 -1 
1 0 0 1 0 
1 14.849999999999918 -39.999999999998124 -1 0 
1 -1.0762083040283518e-016 -9.9999999999999982 1 0 
1 14.849999999999918 -39.999999999998124 -1 0 
1 0 0 1 0 
2 0.37949039523428313 -19.999999999998121 0 -1 1 0 20.003599999999999
1 0 -10 1 0 
2 0.37949039523428313 -19.999999999998121 0 -1 1 0 20.003599999999999
Curves 12
1 19.999999999998121 20 0.15000000000007646 -0 -1 3.4450928483976665e-016 
1 19.999999999998121 20.000000000000007 14.999999999999996 -0 -1 3.4450928483976665e-016 
1 -19.999999999998121 0.15000000000008135 0 0 1 0 
1 -19.999999999998121 0.15000000000008135 0 0 1 0 
1 -20 20.000000000000007 14.999999999999996 -0 -1 3.4450928483976665e-016 
1 -19.999999999998121 15 0 1 0 0 
1 -19.999999999998121 15 0 1 0 0 
1 -19.999999999999062 20 0.14999999999995325 -0 -1 3.4450928483976665e-016 
1 20 15 0 0 -1 0 
1 20 15 0 0 -1 0 
2 2.3687621676142003e-033 0.52949039523436447 0 0 0 1 1 0 -0 -0 1 0 20.003599999999999
2 2.3687621676142003e-033 0.52949039523436447 0 0 0 1 1 0 -0 -0 1 0 20.003599999999999
Polygon3D 0
PolygonOnTriangulations 0
Surfaces 6
1 19.999999999998121 20 0.15000000000007646 -1 0 0 0 3.4450928483976665e-016 1 0 1 -3.4450928483976665e-016 
2 -2.3687621676142003e-033 20 0.52949039523435959 0 1 -3.4450928483976665e-016 -1 0 0 0 3.4450928483976665e-016 1 20.003599999999999
1 19.999999999998121 20.000000000000004 14.999999999999995 -0 -3.4450928483976665e-016 -1 -1 0 0 0 1 -3.4450928483976665e-016 
1 19.999999999998121 -20 -0.1500000000000789 0 -1 2.3923997837040538e-016 0 -2.3923997837040538e-016 -1 1 0 0 
1 19.999999999998121 -20 -0.1500000000000789 0 -1 2.3923997837040538e-016 0 -2.3923997837040538e-016 -1 1 0 0 
1 -20 20.000000000000004 14.999999999999995 1 0 0 0 -3.4450928483976665e-016 -1 0 1 -3.4450928483976665e-016 
Triangulations 0

TShapes 34
Ve
1e-007
19.9999999999981 20 0.150000000000076
0 0

0101101
*
Ve
1e-007
19.9999999999981 10 0.15000000000008
0 0

0101101
*
Ed
 1e-007 1 1 0
1  1 0 0 10
2  1 1 0 0 10
2  2 2 0 0 10
0

0101000
+34 0 -33 0 *
Ve
1.00000001776357e-007
19.9999999999981 20 15
0 0

0101101
*
Ve
1.00000001776357e-007
19.9999999999981 10 15
0 0

0101101
*
Ed
 1e-007 1 1 0
1  2 0 0 10
2  3 1 0 0 10
2  4 3 0 0 10
0

0101000
+31 0 -30 0 *
Ed
 1e-007 1 1 0
1  3 0 0 14.8499999999999
2  5 1 4 0 14.8499999999999
2  6 4 5 0 14.8499999999999
0

0101000
+34 4 -31 4 *
Ed
 1e-007 1 1 0
1  4 0 0 14.8499999999999
2  7 1 8 0 14.8499999999999
2  8 5 5 0 14.8499999999999
0

0101000
+33 8 -30 8 *
Wi

0101000
+32 0 -29 0 -28 3 +27 7 *
Fa
0  1e-007 1 0

0101000
+26 0 *
Ve
1.00000001776357e-007
-20 20 15
0 0

0101101
*
Ve
1.00000001776357e-007
-20 10 15
0 0

0101101
*
Ed
 1.00000001776357e-007 1 1 0
1  5 0 0 10
2  9 3 0 0 10
2  10 6 0 0 10
0

0101000
+24 0 -23 0 *
Ed
 1e-007 1 1 0
1  6 0 0 39.9999999999981
2  11 3 4 0 39.9999999999981
2  12 4 5 0 39.9999999999981
0

0101000
+31 4 -24 4 *
Ed
 1e-007 1 1 0
1  7 0 0 39.9999999999981
2  13 3 8 0 39.9999999999981
2  14 5 5 0 39.9999999999981
0

0101000
+30 8 -23 8 *
Wi

0101000
+29 0 -22 0 -21 3 +20 7 *
Fa
0  1e-007 3 0

0101000
+19 0 *
Ve
1.0000093969286e-007
-19.9999999999991 20 0.149999999999953
0 0

0101101
*
Ve
1.0000093969286e-007
-19.9999999999991 10 0.149999999999957
0 0

0101101
*
Ed
 1.0000093969286e-007 1 1 0
1  8 0 0 10
2  15 6 0 0 10
2  16 2 0 0 10
0

0101000
+17 0 -16 0 *
Ed
 1e-007 1 1 0
1  9 0 0 14.85
2  17 6 4 0 14.85
2  18 4 5 0 14.85
0

0101000
+24 4 -17 4 *
Ed
 1e-007 1 1 0
1  10 0 0 14.85
2  19 6 8 0 14.85
2  20 5 5 0 14.85
0

0101000
+23 8 -16 8 *
Wi

0101000
+22 0 -15 0 -14 3 +13 7 *
Fa
0  1e-007 6 0

0101000
+12 0 *
Ed
 1e-007 1 1 0
1  11 0 3.16056489669599 6.26421306407338
2  21 2 4 3.16056489669599 6.26421306407338
2  22 4 5 3.16056489669599 6.26421306407338
0

0101000
+34 4 -17 4 *
Ed
 1e-007 1 1 0
1  12 0 3.16056489669599 6.26421306407338
2  23 2 8 3.16056489669599 6.26421306407338
2  24 5 5 3.16056489669599 6.26421306407338
0

0101000
+33 8 -16 8 *
Wi

0101000
+32 0 -15 0 -10 3 +9 7 *
Fa
0  1e-007 2 0

0101000
+8 0 *
Wi

0101100
+28 0 +21 0 +14 0 -10 0 *
Fa
0  1e-007 4 0

0101000
-6 1 *
Wi

0101100
+27 0 +20 0 +13 0 -9 0 *
Fa
0  1e-007 5 0

0101000
-4 1 *
Sh

0101000
-25 0 -18 0 -11 0 +7 0 +5 9 -3 10 *
So

1100000
+2 0 *

+1 0 