DBRep_DrawableShape

CASCADE Topology V1, (c) Matra-Datavision
Locations 24
1
              1               0              -0               0 
             -0 1.77321265310004e-16              -1               0 
              0               1 1.77321265310004e-16               0 
1
              1               0               0               0 
              0               1               0               0 
              0               0               1               0 
1
              1               0               0               0 
              0               1               0               0 
              0               0               1               0 
2  2 1 3 1 0
2  3 -1 2 -1 0
2  1 -1 3 -1 2 -1 0
2  1 -1 0
2  1 -1 3 -1 0
1
              1               0              -0               0 
             -0 1.77321265310004e-16              -1               0 
              0               1 1.77321265310004e-16               0 
1
              1               0               0               0 
              0 6.1257422745431e-17              -1               0 
              0               1 6.1257422745431e-17               0 
1
              1               0               0               0 
              0               1               0 1.47924207605232e-13 
              0               0               1             920 
2  9 1 10 -1 11 1 2 1 3 1 0
2  11 -1 10 1 9 -1 0
2  9 -1 0
2  1 -1 3 -1 2 -1 11 -1 10 1 9 -1 0
2  9 1 10 -1 2 1 3 1 0
2  10 1 9 -1 0
2  1 -1 3 -1 2 -1 10 1 9 -1 0
2  10 -1 11 1 2 1 3 1 0
2  10 -1 2 1 0
2  3 -1 2 -1 11 -1 10 1 0
2  10 -1 2 1 3 1 0
2  2 -1 10 1 0
2  9 1 10 -1 2 1 0
Curve2ds 48
1 0 3.5340968553901329e-28 0 -1 
1 300 3.5340968553901329e-28 4.4723339615027058e-17 -1 
2 100 -820 0 -1 1 0 100
1 -4.7123889803846897 299.99999999999994 1 0 
2 100 -99.999999999999986 0 -1 -1 -0 100
1 -1.5707963267948966 300 1 0 
1 0 -920 1 0 
1 0 0 0 1 
1 0 0 1 0 
1 0 0 0 1 
2 1930 -820 0 1 -1 0 100
1 -3.1415926535897931 6.8833827526759706e-15 1 0 
2 1930 -99.999999999999986 0 1 -1 0 100
1 -4.7123889803846897 -1.6074164568835592e-14 1 0 
1 2030 3.5340968553901329e-28 0 -1 
1 -1.0368513871578393e-43 3.5340968553901329e-28 -4.4723339615027058e-17 -1 
1 1.8515203342104272e-44 6.3108872417680944e-29 4.4723339615027058e-17 -1 
1 2030 6.3108872417680944e-29 0 -1 
1 7.53563877964325e-14 -819.99999999999989 1 0 
1 0 0 0 1 
1 -1.1601830607332886e-14 -99.999999999999986 1 0 
1 0 0 0 1 
1 -4.7123889803846897 -3.8683249312110319e-14 1 0 
2 1930 -819.99999999999989 0 -1 -1 -0 100
1 1.5707963267948966 0 0 1 
1 299.99999999999994 100 -1 0 
1 -1.5707963267948966 0 1 0 
2 1930 -99.999999999999986 0 -1 1 0 100
1 1.5707963267948966 0 0 1 
1 300 100 -1 0 
1 -6.8833827526759706e-15 1930 1 0 
1 0 0 0 1 
1 300.00000000000006 2030 -0 -1 
1 0 -920 1 0 
1 0 1930 1 0 
1 1.5707963267948966 0 0 1 
1 300 2030 -0 -1 
1 0 0 1 0 
1 1.5707963267948966 0 0 1 
1 -1.8540724511240114e-14 -820 1 0 
1 -3.1415926535897931 299.99999999999994 1 0 
2 100 -819.99999999999989 -0 1 1 0 100
1 0 0 0 1 
1 1.1601830607332886e-14 -99.999999999999986 1 0 
1 -4.7123889803846897 300 1 0 
2 100 -99.999999999999986 -0 1 1 0 100
1 300 6.3108872417680944e-29 -4.4723339615027058e-17 -1 
1 0 6.3108872417680944e-29 0 -1 
Curves 24
1 110 660 -7.6602136092618698e-14 0 1.6078718217960031e-16 1 
8 4.7123889803846897 6.2831853071795862
2 210 660.00000000000011 819.99999999999989 0 1 -1.1606384256457325e-16 0 1.1606384256457325e-16 1 1 -0 0 100
8 1.5707963267948966 3.1415926535897931
2 210 660 99.999999999999915 -0 -1 1.1606384256457325e-16 0 1.1606384256457325e-16 1 -1 0 0 100
1 110 660 0 1 0 0 
1 110 660 0 1 0 0 
8 3.1415926535897931 4.7123889803846897
2 2040 660.00000000000011 819.99999999999989 -0 1 -1.1606384256457325e-16 0 -1.1606384256457325e-16 -1 -1 -0 0 100
8 4.7123889803846897 6.2831853071795862
2 2040 660 99.999999999999915 -0 1 -1.1606384256457325e-16 0 -1.1606384256457325e-16 -1 -1 -0 0 100
1 2140 660 -7.6602136092618698e-14 0 1.6078718217960031e-16 1 
1 110 360 -4.1782983323246433e-14 0 1.6078718217960031e-16 1 
1 110 360.00000000000017 819.99999999999989 0 1 -1.1606384256457325e-16 
1 110 360 99.999999999999943 0 1 -1.1606384256457325e-16 
8 4.7123889803846897 6.2831853071795871
2 210 360.00000000000011 819.99999999999989 0 1 -1.1606384256457325e-16 0 1.1606384256457325e-16 1 1 -0 0 100
1 210 360.00000000000017 919.99999999999989 0 1 -1.1606384256457325e-16 
8 1.5707963267948966 3.1415926535897931
2 210 360 99.999999999999943 -0 -1 1.1606384256457325e-16 0 1.1606384256457325e-16 1 -1 0 0 100
1 210 360 -5.6843418860808015e-14 0 1 -1.1606384256457325e-16 
1 2040 660.00000000000011 919.99999999999989 0 -1 1.1606384256457325e-16 
1 2140 360 0 -1 0 0 
1 2040 660 -8.5265128291212022e-14 0 -1 1.1606384256457325e-16 
1 2140 360 0 -1 0 0 
1 2140 660.00000000000011 819.99999999999989 0 -1 1.1606384256457325e-16 
8 3.1415926535897936 4.7123889803846897
2 2040 360.00000000000011 819.99999999999989 -0 1 -1.1606384256457325e-16 0 -1.1606384256457325e-16 -1 -1 -0 0 100
1 2140 660 99.999999999999915 0 -1 1.1606384256457325e-16 
8 4.7123889803846897 6.2831853071795862
2 2040 360 99.999999999999943 -0 1 -1.1606384256457325e-16 0 -1.1606384256457325e-16 -1 -1 -0 0 100
1 2140 360 -4.1782983323246433e-14 0 1.6078718217960031e-16 1 
Polygon3D 0
PolygonOnTriangulations 0
Surfaces 10
1 110 660 -7.6602136092618345e-14 0 1 -1.6078718217960031e-16 1 0 0 0 -1.6078718217960031e-16 -1 
1 110 360 -4.178298332324637e-14 -1 0 0 0 1 -1.1606384256457325e-16 -0 -1.1606384256457325e-16 -1 
2 210 360.00000000000017 819.99999999999989 0 1 -1.1606384256457325e-16 -1 0 0 0 1.1606384256457325e-16 1 100
2 210 360 99.999999999999943 0 1 -1.1606384256457325e-16 -1 0 0 -0 -1.1606384256457325e-16 -1 100
1 110 1.1703203510460281e-13 660 0 -1 1.7732126531000425e-16 0 -1.7732126531000425e-16 -1 1 0 0 
1 110 1.1703203510460281e-13 660 0 -1 1.7732126531000425e-16 0 -1.7732126531000425e-16 -1 1 0 0 
2 2040 660.00000000000011 819.99999999999989 0 -1 1.1606384256457325e-16 -0 1.1606384256457325e-16 1 1 0 -0 100
2 2040 660 99.999999999999915 0 -1 1.1606384256457325e-16 1 0 0 0 -1.1606384256457325e-16 -1 100
1 2140 660 -7.6602136092618345e-14 1 0 -0 0 -1 1.1606384256457325e-16 0 -1.1606384256457325e-16 -1 
1 2140 360 -4.178298332324637e-14 0 -1 1.6078718217960031e-16 -1 0 0 -0 -1.6078718217960031e-16 -1 
Triangulations 0

TShapes 63
Ve
1e-07
110 -820 660
0 0

0101101
*
Ve
1e-07
110 -99.9999999999998 660
0 0

0101101
*
Ed
 1e-07 1 1 0
1  1 0 100 820
2  1 1 0 100 820
2  2 2 0 100 820
0

0101000
-63 6 +62 6 *
Ve
1e-07
210 -920 660
0 0

0101101
*
Ed
 1e-07 1 1 0
1  2 0 4.71238898038469 6.28318530717959
2  3 1 4 4.71238898038469 6.28318530717959
2  4 3 0 4.71238898038469 6.28318530717959
0

0101000
+63 7 -60 7 *
Ve
1e-07
210 2.08694823575217e-13 660
0 0

0101101
*
Ed
 1e-07 1 1 0
1  3 0 1.5707963267949 3.14159265358979
2  5 1 2 1.5707963267949 3.14159265358979
2  6 4 0 1.5707963267949 3.14159265358979
0

0101000
+62 8 -58 8 *
Ve
1e-07
2040 -920 660
0 0

0101101
*
Ed
 1e-07 1 1 0
1  4 0 100 1930
2  7 1 13 100 1930
2  8 5 14 100 1930
0

0101000
+60 15 -56 15 *
Ve
1e-07
2040 2.02297163395815e-13 660
0 0

0101101
*
Ed
 1e-07 1 1 0
1  5 0 100 1930
2  9 1 17 100 1930
2  10 6 14 100 1930
0

0101000
+58 18 -54 18 *
Ve
1e-07
2140 -820 660
0 0

0101101
*
Ed
 1e-07 1 1 0
1  6 0 3.14159265358979 4.71238898038469
2  11 1 4 3.14159265358979 4.71238898038469
2  12 7 0 3.14159265358979 4.71238898038469
0

0101000
+56 7 -52 7 *
Ve
1e-07
2140 -99.9999999999998 660
0 0

0101101
*
Ed
 1e-07 1 1 0
1  7 0 4.71238898038469 6.28318530717959
2  13 1 2 4.71238898038469 6.28318530717959
2  14 8 0 4.71238898038469 6.28318530717959
0

0101000
+50 8 -54 8 *
Ed
 1e-07 1 1 0
1  8 0 100 820
2  15 1 0 100 820
2  16 9 0 100 820
0

0101000
-52 6 +50 6 *
Wi

0101100
+61 4 +59 0 -57 3 +55 12 -53 16 +51 0 +49 3 -48 4 *
Fa
0  1e-07 1 0

0101000
+47 5 *
Ve
1e-07
110 -820 360
0 0

0101101
*
Ve
1e-07
110 -99.9999999999999 360
0 0

0101101
*
Ed
 1e-07 1 1 0
1  9 0 100 820
2  17 2 0 100 820
2  18 10 0 100 820
0

0101000
-45 6 +44 6 *
Ed
 1e-07 1 1 0
1  10 0 -3.86832493121103e-14 300
2  19 2 4 -3.86832493121103e-14 300
2  20 3 0 -3.86832493121103e-14 300
4 G1 2 4 3 0
0

0101000
+45 7 -63 7 *
Ed
 1e-07 1 1 0
1  11 0 1.60741645688356e-14 300
2  21 2 2 1.60741645688356e-14 300
2  22 4 0 1.60741645688356e-14 300
4 G1 2 2 4 0
0

0101000
+44 8 -62 8 *
Wi

0101100
+43 4 +42 0 -41 3 -61 4 *
Fa
0  1e-07 2 0

0101000
+40 5 *
Ve
1e-07
210 -920 360
0 0

0101101
*
Ed
 1e-07 1 1 0
1  12 0 4.71238898038469 6.28318530717959
2  23 3 0 4.71238898038469 6.28318530717959
2  24 10 4 4.71238898038469 6.28318530717959
0

0101000
+45 7 -38 7 *
Ed
 1e-07 1 1 0
1  13 0 -0 300
2  25 3 0 -0 300
2  26 5 19 -0 300
4 G1 3 0 5 19
0

0101000
+38 7 -60 7 *
Wi

0101100
+37 0 -42 0 +36 0 -59 0 *
Fa
0  1e-07 3 0

0101000
+35 0 *
Ve
1e-07
210 1.2067907437241e-13 360
0 0

0101101
*
Ed
 1e-07 1 1 0
1  14 0 1.5707963267949 3.14159265358979
2  27 4 0 1.5707963267949 3.14159265358979
2  28 10 2 1.5707963267949 3.14159265358979
0

0101000
+44 8 -33 8 *
Ed
 1e-07 1 1 0
1  15 0 -0 300
2  29 4 0 -0 300
2  30 6 20 -0 300
4 G1 4 0 6 20
0

0101000
+33 8 -58 8 *
Wi

0101100
+32 0 -41 0 +31 0 -57 0 *
Fa
0  1e-07 4 0

0101000
+30 0 *
Ve
1e-07
2040 -920 360
0 0

0101101
*
Ed
 1e-07 1 1 0
1  16 0 6.88338275267597e-15 300
2  31 5 19 6.88338275267597e-15 300
2  32 7 0 6.88338275267597e-15 300
4 G1 5 19 7 0
0

0101000
+56 7 -28 7 *
Ed
 1e-07 1 1 0
1  17 0 100 1930
2  33 5 14 100 1930
2  34 10 13 100 1930
0

0101000
+28 15 -38 15 *
Wi

0101100
-55 12 -36 0 -27 0 -26 12 *
Fa
0  1e-07 5 0

0101000
+25 21 *
Ve
1e-07
2040 1.14281414193007e-13 360
0 0

0101101
*
Ed
 1e-07 1 1 0
1  18 0 0 300
2  35 6 20 0 300
2  36 8 0 0 300
4 G1 6 20 8 0
0

0101000
+54 8 -23 8 *
Ed
 1e-07 1 1 0
1  19 0 100 1930
2  37 6 14 100 1930
2  38 10 17 100 1930
0

0101000
+23 18 -33 18 *
Wi

0101100
-53 24 -31 0 -22 0 -21 24 *
Fa
0  1e-07 6 0

0101000
+20 23 *
Ve
1e-07
2140 -820 360
0 0

0101101
*
Ed
 1e-07 1 1 0
1  20 0 -1.81324139730821e-14 300
2  39 7 0 -1.81324139730821e-14 300
2  40 9 4 -1.81324139730821e-14 300
4 G1 7 0 9 4
0

0101000
+52 7 -18 7 *
Ed
 1e-07 1 1 0
1  21 0 3.14159265358979 4.71238898038469
2  41 7 0 3.14159265358979 4.71238898038469
2  42 10 4 3.14159265358979 4.71238898038469
0

0101000
+28 7 -18 7 *
Wi

0101100
+51 0 -27 0 +17 0 -16 0 *
Fa
0  1e-07 7 0

0101000
+15 0 *
Ve
1e-07
2140 -99.9999999999999 360
0 0

0101101
*
Ed
 1e-07 1 1 0
1  22 0 -1.60741645688356e-14 300
2  43 8 0 -1.60741645688356e-14 300
2  44 9 2 -1.60741645688356e-14 300
4 G1 8 0 9 2
0

0101000
+50 8 -13 8 *
Ed
 1e-07 1 1 0
1  23 0 4.71238898038469 6.28318530717959
2  45 8 0 4.71238898038469 6.28318530717959
2  46 10 2 4.71238898038469 6.28318530717959
0

0101000
+13 8 -23 8 *
Wi

0101100
+49 0 -12 0 +22 0 -11 0 *
Fa
0  1e-07 8 0

0101000
+10 0 *
Ed
 1e-07 1 1 0
1  24 0 100 820
2  47 9 0 100 820
2  48 10 0 100 820
0

0101000
-18 6 +13 6 *
Wi

0101100
+48 4 +17 0 -12 3 -8 4 *
Fa
0  1e-07 9 0

0101000
+7 5 *
Wi

0101100
+8 4 -16 0 -11 3 +26 12 -21 16 -37 0 +32 3 -43 4 *
Fa
0  1e-07 10 0

0101000
+5 5 *
Sh

0101100
+46 4 +39 4 +34 0 -29 3 +24 19 -19 22 -14 0 -9 3 +6 4 +4 4 
*
So

0100000
+3 0 *
Co

1100000
+2 0 *

+1 1 