DBRep_DrawableShape

CASCADE Topology V1, (c) Matra-Datavision
Locations 108
1
              1               0               0               0 
              0               1               0               0 
              0               0               1               0 
1
              1               0               0               0 
              0               1               0               0 
              0               0               1               0 
1
              1               0               0               0 
              0               1               0               0 
              0               0               1               0 
1
              1               0               0               0 
              0               1               0               0 
              0               0               1               0 
2  2 1 3 -1 4 1 0
1
              1               0               0               0 
              0               1               0               0 
              0               0               1               0 
1
              1               0               0               0 
              0               1               0               0 
              0               0               1               0 
2  6 1 7 -1 0
2  1 -1 4 -1 3 1 2 -1 7 1 6 -1 0
1
              1               0               0               0 
              0               1               0               0 
              0               0               1               0 
1
              1               0               0               0 
              0               1               0               0 
              0               0               1               0 
2  10 1 11 -1 6 1 7 -1 0
2  11 1 10 -1 0
2  10 -1 0
2  1 -1 4 -1 3 1 2 -1 7 1 6 -1 11 1 10 -1 0
1
              1               0               0               0 
              0               1               0               0 
              0               0               1               5 
2  10 1 11 -1 16 1 6 1 7 -1 0
2  16 -1 11 1 10 -1 0
2  7 1 6 -1 16 -1 11 1 10 -1 0
2  1 -1 4 -1 3 1 2 -1 7 1 6 -1 16 -1 11 1 10 -1 0
2  11 -1 6 1 7 -1 2 1 3 -1 4 1 0
1
              1               0               0              90 
              0               1               0              30 
              0               0               1               0 
2  1 -1 0
1
              1               0               0              60 
              0               1               0              30 
              0               0               1               0 
1
              1               0               0              30 
              0               1               0              30 
              0               0               1               0 
1
              1               0               0               0 
              0               1               0              30 
              0               0               1               0 
1
              1               0               0              90 
              0               1               0               0 
              0               0               1               0 
1
              1               0               0              60 
              0               1               0               0 
              0               0               1               0 
1
              1               0               0              30 
              0               1               0               0 
              0               0               1               0 
2  11 -1 6 1 7 -1 2 1 3 -1 0
2  1 -1 4 -1 0
2  10 1 11 -1 6 1 7 -1 2 1 3 -1 4 1 0
2  1 -1 4 -1 3 1 2 -1 0
1
              1               0               0              -0 
              0               1               0               0 
              0               0               1               5 
1
              1               0               0               0 
              0               1               0               0 
              0               0               1              15 
2  34 1 7 -1 35 1 0
2  35 -1 7 1 34 -1 0
2  34 -1 0
2  1 -1 4 -1 3 1 2 -1 35 -1 7 1 34 -1 0
2  1 -1 22 -1 0
1
              1               0               0              -0 
              0               1               0               0 
              0               0               1               5 
1
              1               0               0              -0 
              0               1               0              -0 
              0               0               1             -15 
2  41 1 3 -1 42 1 22 1 0
2  42 -1 3 1 41 -1 0
2  41 -1 0
2  1 -1 22 -1 42 -1 3 1 41 -1 0
2  1 -1 24 -1 0
2  41 1 3 -1 42 1 24 1 0
2  1 -1 24 -1 42 -1 3 1 41 -1 0
2  1 -1 25 -1 0
2  41 1 3 -1 42 1 25 1 0
2  1 -1 25 -1 42 -1 3 1 41 -1 0
2  1 -1 26 -1 0
2  41 1 3 -1 42 1 26 1 0
2  1 -1 26 -1 42 -1 3 1 41 -1 0
2  1 -1 27 -1 0
2  41 1 3 -1 42 1 27 1 0
2  1 -1 27 -1 42 -1 3 1 41 -1 0
2  1 -1 28 -1 0
2  41 1 3 -1 42 1 28 1 0
2  1 -1 28 -1 42 -1 3 1 41 -1 0
2  1 -1 29 -1 0
2  41 1 3 -1 42 1 29 1 0
2  1 -1 29 -1 42 -1 3 1 41 -1 0
2  41 1 3 -1 42 1 0
2  1 -1 4 -1 42 -1 3 1 41 -1 0
2  7 -1 35 1 2 1 3 -1 4 1 0
2  3 -1 42 1 22 1 0
2  3 -1 42 1 24 1 0
2  3 -1 42 1 25 1 0
2  3 -1 42 1 26 1 0
2  3 -1 42 1 27 1 0
2  3 -1 42 1 28 1 0
2  3 -1 42 1 29 1 0
2  3 -1 42 1 4 1 0
2  34 1 7 -1 2 1 3 -1 4 1 0
2  7 1 34 -1 0
2  11 -1 16 1 6 1 34 -1 0
2  1 -1 4 -1 3 1 2 -1 7 1 34 -1 0
2  34 1 7 -1 35 1 2 1 3 -1 4 1 0
2  11 -1 16 1 6 1 7 -1 2 1 3 -1 0
2  41 1 3 -1 0
2  11 -1 16 1 6 1 7 -1 2 1 41 -1 0
2  1 -1 4 -1 3 1 41 -1 0
2  34 1 7 -1 2 1 3 -1 0
2  11 -1 16 1 6 1 7 -1 2 1 3 -1 4 1 0
2  41 1 3 -1 24 1 0
2  11 -1 16 1 6 1 7 -1 2 1 3 -1 4 1 24 -1 3 1 41 -1 0
2  1 -1 24 -1 3 1 41 -1 0
2  41 1 3 -1 25 1 0
2  11 -1 16 1 6 1 7 -1 2 1 3 -1 4 1 25 -1 3 1 41 -1 0
2  1 -1 25 -1 3 1 41 -1 0
2  41 1 3 -1 29 1 0
2  11 -1 16 1 6 1 7 -1 2 1 3 -1 4 1 29 -1 3 1 41 -1 0
2  1 -1 29 -1 3 1 41 -1 0
2  41 1 3 -1 28 1 0
2  11 -1 16 1 6 1 7 -1 2 1 3 -1 4 1 28 -1 3 1 41 -1 0
2  1 -1 28 -1 3 1 41 -1 0
2  41 1 3 -1 22 1 0
2  11 -1 16 1 6 1 7 -1 2 1 3 -1 4 1 22 -1 3 1 41 -1 0
2  1 -1 22 -1 3 1 41 -1 0
2  41 1 3 -1 27 1 0
2  11 -1 16 1 6 1 7 -1 2 1 3 -1 4 1 27 -1 3 1 41 -1 0
2  1 -1 27 -1 3 1 41 -1 0
2  41 1 3 -1 4 1 0
2  41 1 3 -1 26 1 0
2  11 -1 16 1 6 1 7 -1 2 1 3 -1 4 1 26 -1 3 1 41 -1 0
2  1 -1 26 -1 3 1 41 -1 0
Curve2ds 188
1 0 0 0 -1 
1 60 0 0 -1 
1 0 0 1 0 
1 0 0 1 0 
1 0 -5 1 0 
1 120 0 -1 -0 
1 120 0 0 -1 
1 0 0 0 -1 
1 0 0 0 -1 
1 120 0 0 -1 
1 0 0 1 0 
1 0 -60 0 1 
1 0 -5 1 0 
1 60 0 -1 0 
2 105 -15 0 -1 1 0 10
1 -1.5707963267948966 -5 1 0 
2 105 -15 0 -1 1 0 10
1 4.7123889803846897 -5 1 0 
2 75 -15 0 -1 1 0 10
1 -1.5707963267948966 -5 1 0 
2 75 -15 0 -1 1 0 10
1 4.7123889803846897 -5 1 0 
2 45 -15 0 -1 1 0 10
1 -1.5707963267948966 -5 1 0 
2 45 -15 0 -1 1 0 10
1 4.7123889803846897 -5 1 0 
2 15 -15 0 -1 1 0 10
1 -1.5707963267948966 -5 1 0 
2 15 -15 0 -1 1 0 10
1 4.7123889803846897 -5 1 0 
2 105 -45 0 -1 1 0 10
1 -1.5707963267948966 -5 1 0 
2 105 -45 0 -1 1 0 10
1 4.7123889803846897 -5 1 0 
2 75 -45 0 -1 1 0 10
1 -1.5707963267948966 -5 1 0 
2 75 -45 0 -1 1 0 10
1 4.7123889803846897 -5 1 0 
2 45 -45 0 -1 1 0 10
1 -1.5707963267948966 -5 1 0 
2 45 -45 0 -1 1 0 10
1 4.7123889803846897 -5 1 0 
2 15 -45 0 -1 1 0 10
1 -1.5707963267948966 -5 1 0 
2 15 -45 0 -1 1 0 10
1 4.7123889803846897 -5 1 0 
1 120 0 0 -1 
1 0 0 1 0 
1 120 -60 -1 0 
1 0 -0 1 0 
1 0 -0 0 -1 
1 60 0 0 -1 
1 0 -15 1 0 
1 -120 60 1 0 
1 120 0 0 -1 
1 0 0 0 -1 
1 0 -5 1 0 
1 60 0 -1 0 
1 60 0 0 -1 
1 0 -0 0 -1 
1 0 -5 1 0 
1 120 0 -1 0 
1 0 -15 1 0 
1 0 60 0 -1 
1 60 0 0 -1 
1 0 0 0 -1 
1 0 0 0 -1 
1 6.2831853071795862 0 0 -1 
1 0 -15 1 0 
2 10 0 -1 0 0 1 10
1 0 0 0 -1 
1 6.2831853071795862 0 0 -1 
1 0 -15 1 0 
2 10 0 -1 0 0 1 10
1 0 0 0 -1 
1 6.2831853071795862 0 0 -1 
1 0 -15 1 0 
2 10 0 -1 0 0 1 10
1 0 0 0 -1 
1 6.2831853071795862 0 0 -1 
1 0 -15 1 0 
2 10 0 -1 0 0 1 10
1 0 0 0 -1 
1 6.2831853071795862 0 0 -1 
1 0 -15 1 0 
2 10 0 -1 0 0 1 10
1 0 0 0 -1 
1 6.2831853071795862 0 0 -1 
1 0 -15 1 0 
2 10 0 -1 0 0 1 10
1 0 0 0 -1 
1 6.2831853071795862 0 0 -1 
1 0 -15 1 0 
2 10 0 -1 0 0 1 10
1 0 0 0 -1 
1 6.2831853071795862 0 0 -1 
1 0 -15 1 0 
2 10 0 -1 0 0 1 10
1 0 0 0 -1 
1 120 0 0 -1 
1 0 -15 1 0 
1 -120 0 0 1 
1 0 0 -1 0 
1 0 -15 1 0 
1 -5 5 -1 0 
1 0 -15 1 0 
1 -115 5 0 1 
1 0 -15 1 0 
1 -115 55 1 0 
1 0 -15 1 0 
1 -5 55 0 -1 
1 0 -15 1 0 
1 0 0 0 -1 
1 50 0 0 -1 
1 0 0 1 0 
1 5 -55 1 0 
1 0 0 1 0 
1 5 -55 1 0 
1 110 0 0 -1 
1 0 0 0 -1 
1 0 0 1 0 
1 5 -55 1 0 
1 0 0 1 0 
1 5 -55 1 0 
1 0 0 1 0 
1 5 -55 1 0 
1 0 0 1 0 
1 115 -55 0 1 
1 0 0 1 0 
1 115 -55 0 1 
1 50 0 0 -1 
1 0 -0 0 -1 
1 0 0 1 0 
1 115 -55 0 1 
1 0 -0 1 0 
1 115 -5 -1 0 
1 0 -0 1 0 
1 115 -5 -1 0 
1 110 0 0 -1 
1 0 0 0 -1 
1 0 -0 1 0 
1 115 -5 -1 0 
1 0 -0 1 0 
1 115 -5 -1 0 
1 0 -0 1 0 
1 115 -5 -1 0 
1 0 0 1 0 
1 5 -5 0 -1 
1 0 0 1 0 
1 5 -5 0 -1 
1 0 0 1 0 
1 5 -5 0 -1 
2 15 -45 1 0 -0 1 10
2 15 -45 1 0 -0 1 10
2 75 -15 1 0 -0 1 10
2 75 -15 1 0 -0 1 10
2 75 -15 1 0 -0 1 10
2 75 -15 1 0 -0 1 10
2 45 -15 1 0 -0 1 10
2 45 -15 1 0 -0 1 10
2 45 -15 1 0 -0 1 10
2 45 -15 1 0 -0 1 10
2 45 -45 1 0 -0 1 10
2 45 -45 1 0 -0 1 10
2 45 -45 1 0 -0 1 10
2 45 -45 1 0 -0 1 10
2 75 -45 1 0 -0 1 10
2 75 -45 1 0 -0 1 10
2 75 -45 1 0 -0 1 10
2 75 -45 1 0 -0 1 10
2 105 -15 1 0 -0 1 10
2 105 -15 1 0 -0 1 10
2 105 -45 1 0 -0 1 10
2 105 -45 1 0 -0 1 10
2 15 -45 1 0 -0 1 10
2 15 -45 1 0 -0 1 10
2 15 -45 1 0 -0 1 10
2 15 -45 1 0 -0 1 10
2 15 -15 1 0 -0 1 10
2 15 -15 1 0 -0 1 10
2 15 -15 1 0 -0 1 10
2 15 -15 1 0 -0 1 10
2 105 -45 1 0 -0 1 10
2 105 -45 1 0 -0 1 10
2 105 -15 1 0 -0 1 10
2 105 -15 1 0 -0 1 10
2 15 -15 1 0 -0 1 10
2 15 -15 1 0 -0 1 10
Curves 94
1 0 30 0 0 0 1 
1 0 30 0 1 0 0 
1 0 30 0 1 0 0 
1 120 30 0 0 0 1 
1 0 -30 0 0 0 1 
1 0 -30 0 0 1 0 
1 0 -30 0 0 1 0 
2 105 15 0 0 0 1 0 -1 0 1 0 -0 10
2 105 15 0 0 0 1 0 -1 0 1 0 -0 10
2 75 15 0 0 0 1 0 -1 0 1 0 -0 10
2 75 15 0 0 0 1 0 -1 0 1 0 -0 10
2 45 15 0 0 0 1 0 -1 0 1 0 -0 10
2 45 15 0 0 0 1 0 -1 0 1 0 -0 10
2 15 15 0 0 0 1 0 -1 0 1 0 -0 10
2 15 15 0 0 0 1 0 -1 0 1 0 -0 10
2 105 -15 0 0 0 1 0 -1 0 1 0 -0 10
2 105 -15 0 0 0 1 0 -1 0 1 0 -0 10
2 75 -15 0 0 0 1 0 -1 0 1 0 -0 10
2 75 -15 0 0 0 1 0 -1 0 1 0 -0 10
2 45 -15 0 0 0 1 0 -1 0 1 0 -0 10
2 45 -15 0 0 0 1 0 -1 0 1 0 -0 10
2 15 -15 0 0 0 1 0 -1 0 1 0 -0 10
2 15 -15 0 0 0 1 0 -1 0 1 0 -0 10
1 120 30 0 0 -1 0 
1 120 -30 0 -1 0 0 
1 120 30 5 0 0 1 
1 120 30 0 -1 0 0 
1 0 30 5 0 0 1 
1 120 30 0 0 -1 0 
1 120 -30 0 0 0 1 
1 120 -30 0 -1 0 0 
1 0 30 0 0 -1 0 
1 0 -30 5 0 0 1 
1 25 -15 5 -0 -0 -1 
2 15 -15 0 0 0 1 1 0 -0 -0 1 0 10
1 25 -15 5 -0 -0 -1 
2 15 -15 0 0 0 1 1 0 -0 -0 1 0 10
1 25 -15 5 -0 -0 -1 
2 15 -15 0 0 0 1 1 0 -0 -0 1 0 10
1 25 -15 5 -0 -0 -1 
2 15 -15 0 0 0 1 1 0 -0 -0 1 0 10
1 25 -15 5 -0 -0 -1 
2 15 -15 0 0 0 1 1 0 -0 -0 1 0 10
1 25 -15 5 -0 -0 -1 
2 15 -15 0 0 0 1 1 0 -0 -0 1 0 10
1 25 -15 5 -0 -0 -1 
2 15 -15 0 0 0 1 1 0 -0 -0 1 0 10
1 25 -15 5 -0 -0 -1 
2 15 -15 0 0 0 1 1 0 -0 -0 1 0 10
1 120 -30 5 0 0 1 
1 120 -30 0 0 1 0 
1 0 -30 0 1 0 0 
1 5 -25 0 1 0 0 
1 115 -25 0 0 1 0 
1 115 25 0 -1 0 0 
1 5 25 0 0 -1 0 
1 5 -25 5 0 0 1 
1 5 -25 0 1 0 0 
1 5 -25 0 1 0 0 
1 115 -25 5 0 0 1 
1 5 -25 0 1 0 0 
1 5 -25 0 1 0 0 
1 5 -25 0 1 0 0 
1 115 -25 0 0 1 0 
1 115 -25 0 0 1 0 
1 115 25 5 0 0 1 
1 115 -25 0 0 1 0 
1 115 25 0 -1 0 0 
1 115 25 0 -1 0 0 
1 5 25 5 0 0 1 
1 115 25 0 -1 0 0 
1 115 25 0 -1 0 0 
1 115 25 0 -1 0 0 
1 5 25 0 0 -1 0 
1 5 25 0 0 -1 0 
1 5 25 0 0 -1 0 
2 15 -15 0 0 0 1 1 0 -0 -0 1 0 10
2 15 -15 0 0 0 1 1 0 -0 -0 1 0 10
2 15 -15 0 0 0 1 1 0 -0 -0 1 0 10
2 15 -15 0 0 0 1 1 0 -0 -0 1 0 10
2 15 -15 0 0 0 1 1 0 -0 -0 1 0 10
2 15 -15 0 0 0 1 1 0 -0 -0 1 0 10
2 15 -15 0 0 0 1 1 0 -0 -0 1 0 10
2 15 -15 0 0 0 1 1 0 -0 -0 1 0 10
2 15 -15 0 0 0 1 1 0 -0 -0 1 0 10
2 15 -15 0 0 0 1 1 0 -0 -0 1 0 10
2 15 -15 0 0 0 1 1 0 -0 -0 1 0 10
2 15 -15 0 0 0 1 1 0 -0 -0 1 0 10
2 15 -15 0 0 0 1 1 0 -0 -0 1 0 10
2 15 -15 0 0 0 1 1 0 -0 -0 1 0 10
2 15 -15 0 0 0 1 1 0 -0 -0 1 0 10
2 15 -15 0 0 0 1 1 0 -0 -0 1 0 10
2 15 -15 0 0 0 1 1 0 -0 -0 1 0 10
2 15 -15 0 0 0 1 1 0 -0 -0 1 0 10
Polygon3D 0
PolygonOnTriangulations 0
Surfaces 43
1 0 30 0 0 1 0 1 0 0 0 0 -1 
1 0 -30 0 -1 0 0 0 1 0 0 0 -1 
1 0 30 0 -0 0 1 1 0 0 0 1 -0 
1 120 30 5 0 -1 0 -1 0 0 -0 -0 -1 
1 120 30 0 1 0 -0 0 -1 0 0 -0 -1 
1 120 -30 0 0 -1 0 -1 0 0 -0 -0 -1 
1 0 30 5 1 0 -0 0 -1 0 0 -0 -1 
2 15 -15 5 0 0 1 1 0 -0 -0 1 0 10
2 15 -15 5 0 0 1 1 0 -0 -0 1 0 10
2 15 -15 5 0 0 1 1 0 -0 -0 1 0 10
2 15 -15 5 0 0 1 1 0 -0 -0 1 0 10
2 15 -15 5 0 0 1 1 0 -0 -0 1 0 10
2 15 -15 5 0 0 1 1 0 -0 -0 1 0 10
2 15 -15 5 0 0 1 1 0 -0 -0 1 0 10
2 15 -15 5 0 0 1 1 0 -0 -0 1 0 10
1 120 -30 5 -1 0 0 0 1 0 0 0 -1 
1 0 -30 5 0 0 -1 -1 0 -0 0 1 0 
1 0 -30 5 0 1 0 1 0 0 0 0 -1 
1 25 -15 5 -0 0 -1 -1 0 0 0 1 0 
1 25 -15 5 -0 0 -1 -1 0 0 0 1 0 
1 25 -15 5 -0 0 -1 -1 0 0 0 1 0 
1 25 -15 5 -0 0 -1 -1 0 0 0 1 0 
1 25 -15 5 -0 0 -1 -1 0 0 0 1 0 
1 25 -15 5 -0 0 -1 -1 0 0 0 1 0 
1 25 -15 5 -0 0 -1 -1 0 0 0 1 0 
1 25 -15 5 -0 0 -1 -1 0 0 0 1 0 
1 5 -25 5 0 1 0 1 0 0 0 0 -1 
1 115 -25 5 -1 0 0 0 1 0 0 0 -1 
1 115 25 5 0 -1 0 -1 0 0 -0 -0 -1 
1 5 25 5 1 0 -0 0 -1 0 0 -0 -1 
1 0 30 0 -0 0 1 1 0 0 0 1 -0 
1 0 30 0 -0 0 1 1 0 0 0 1 -0 
1 0 30 0 -0 0 1 1 0 0 0 1 -0 
1 0 30 0 -0 0 1 1 0 0 0 1 -0 
1 0 30 0 -0 0 1 1 0 0 0 1 -0 
1 0 30 0 -0 0 1 1 0 0 0 1 -0 
1 0 30 0 -0 0 1 1 0 0 0 1 -0 
1 0 30 0 -0 0 1 1 0 0 0 1 -0 
1 0 30 0 -0 0 1 1 0 0 0 1 -0 
1 0 30 0 -0 0 1 1 0 0 0 1 -0 
1 0 30 0 -0 0 1 1 0 0 0 1 -0 
1 0 30 0 -0 0 1 1 0 0 0 1 -0 
1 0 30 0 -0 0 1 1 0 0 0 1 -0 
Triangulations 0

TShapes 257
Ve
1e-07
0 30 0
0 0

0101101
*
Ve
1e-07
0 30 5
0 0

0101101
*
Ed
 1e-07 1 1 0
1  1 0 0 5
2  1 1 0 0 5
2  2 2 0 0 5
0

0101000
+257 9 -256 9 *
Ve
1e-07
120 30 0
0 0

0101101
*
Ed
 1e-07 1 1 0
1  2 0 0 120
2  3 1 13 0 120
2  4 3 14 0 120
0

0101000
+257 15 -254 15 *
Ve
1e-07
120 30 5
0 0

0101101
*
Ed
 1e-07 1 1 0
1  3 0 0 120
2  5 1 18 0 120
2  6 4 19 0 120
0

0101000
+256 20 -252 20 *
Ed
 1e-07 1 1 0
1  4 0 0 5
2  7 1 0 0 5
2  8 5 0 0 5
0

0101000
+254 9 -252 9 *
Wi

0101000
+255 8 -253 12 +251 17 -250 8 *
Fa
0  1e-07 1 8

0101000
+249 0 *
Ve
1e-07
0 -30 0
0 0

0101101
*
Ve
1e-07
0 -30 5
0 0

0101101
*
Ed
 1e-07 1 1 0
1  5 0 0 5
2  9 2 0 0 5
2  10 6 0 0 5
0

0101000
+247 9 -246 9 *
Ed
 1e-07 1 1 0
1  6 0 0 60
2  11 2 13 0 60
2  12 3 14 0 60
0

0101000
+247 15 -257 15 *
Ed
 1e-07 1 1 0
1  7 0 0 60
2  13 2 18 0 60
2  14 7 19 0 60
0

0101000
+246 20 -256 20 *
Wi

0101000
+245 8 -244 12 +243 17 -255 8 *
Fa
0  1e-07 2 8

0101000
+242 0 *
Ve
2.00001e-07
115 15 0
0 0

0101101
*
Ve
1e-07
105 5 0
0 0

0101101
*
Ed
 1e-07 1 1 0
1  8 0 1.5707963267949 6.28318530717959
2  15 3 21 1.5707963267949 6.28318530717959
2  16 8 22 1.5707963267949 6.28318530717959
0

0101000
+240 23 -239 23 *
Ed
 1e-07 1 1 0
1  9 0 0 1.5707963267949
2  17 3 21 0 1.5707963267949
2  18 8 22 0 1.5707963267949
0

0101000
+239 23 -240 23 *
Wi

0101000
-238 0 -237 0 *
Ve
2.00001e-07
85 15 0
0 0

0101101
*
Ve
1e-07
75 5 0
0 0

0101101
*
Ed
 1e-07 1 1 0
1  10 0 1.5707963267949 6.28318530717959
2  19 3 21 1.5707963267949 6.28318530717959
2  20 9 24 1.5707963267949 6.28318530717959
0

0101000
+235 23 -234 23 *
Ed
 1e-07 1 1 0
1  11 0 0 1.5707963267949
2  21 3 21 0 1.5707963267949
2  22 9 24 0 1.5707963267949
0

0101000
+234 23 -235 23 *
Wi

0101000
-233 0 -232 0 *
Ve
2.00001e-07
55 15 0
0 0

0101101
*
Ve
1e-07
45 5 0
0 0

0101101
*
Ed
 1e-07 1 1 0
1  12 0 1.5707963267949 6.28318530717959
2  23 3 21 1.5707963267949 6.28318530717959
2  24 10 25 1.5707963267949 6.28318530717959
0

0101000
+230 23 -229 23 *
Ed
 1e-07 1 1 0
1  13 0 0 1.5707963267949
2  25 3 21 0 1.5707963267949
2  26 10 25 0 1.5707963267949
0

0101000
+229 23 -230 23 *
Wi

0101000
-228 0 -227 0 *
Ve
2.00001e-07
25 15 0
0 0

0101101
*
Ve
1e-07
15 5 0
0 0

0101101
*
Ed
 1e-07 1 1 0
1  14 0 1.5707963267949 6.28318530717959
2  27 3 21 1.5707963267949 6.28318530717959
2  28 11 26 1.5707963267949 6.28318530717959
0

0101000
+225 23 -224 23 *
Ed
 1e-07 1 1 0
1  15 0 0 1.5707963267949
2  29 3 21 0 1.5707963267949
2  30 11 26 0 1.5707963267949
0

0101000
+224 23 -225 23 *
Wi

0101000
-223 0 -222 0 *
Ve
2.00001e-07
115 -15 0
0 0

0101101
*
Ve
1e-07
105 -25 0
0 0

0101101
*
Ed
 1e-07 1 1 0
1  16 0 1.5707963267949 6.28318530717959
2  31 3 21 1.5707963267949 6.28318530717959
2  32 12 27 1.5707963267949 6.28318530717959
0

0101000
+220 23 -219 23 *
Ed
 1e-07 1 1 0
1  17 0 0 1.5707963267949
2  33 3 21 0 1.5707963267949
2  34 12 27 0 1.5707963267949
0

0101000
+219 23 -220 23 *
Wi

0101000
-218 0 -217 0 *
Ve
2.00001e-07
85 -15 0
0 0

0101101
*
Ve
1e-07
75 -25 0
0 0

0101101
*
Ed
 1e-07 1 1 0
1  18 0 1.5707963267949 6.28318530717959
2  35 3 21 1.5707963267949 6.28318530717959
2  36 13 28 1.5707963267949 6.28318530717959
0

0101000
+215 23 -214 23 *
Ed
 1e-07 1 1 0
1  19 0 0 1.5707963267949
2  37 3 21 0 1.5707963267949
2  38 13 28 0 1.5707963267949
0

0101000
+214 23 -215 23 *
Wi

0101000
-213 0 -212 0 *
Ve
2.00001e-07
55 -15 0
0 0

0101101
*
Ve
1e-07
45 -25 0
0 0

0101101
*
Ed
 1e-07 1 1 0
1  20 0 1.5707963267949 6.28318530717959
2  39 3 21 1.5707963267949 6.28318530717959
2  40 14 29 1.5707963267949 6.28318530717959
0

0101000
+210 23 -209 23 *
Ed
 1e-07 1 1 0
1  21 0 0 1.5707963267949
2  41 3 21 0 1.5707963267949
2  42 14 29 0 1.5707963267949
0

0101000
+209 23 -210 23 *
Wi

0101000
-208 0 -207 0 *
Ve
2.00001e-07
25 -15 0
0 0

0101101
*
Ve
1e-07
15 -25 0
0 0

0101101
*
Ed
 1e-07 1 1 0
1  22 0 1.5707963267949 6.28318530717959
2  43 3 30 1.5707963267949 6.28318530717959
2  44 15 0 1.5707963267949 6.28318530717959
0

0101000
+205 31 -204 31 *
Ed
 1e-07 1 1 0
1  23 0 0 1.5707963267949
2  45 3 30 0 1.5707963267949
2  46 15 0 0 1.5707963267949
0

0101000
+204 31 -205 31 *
Wi

0101000
-203 4 -202 4 *
Ve
1e-07
120 -30 0
0 0

0101101
*
Ed
 1e-07 1 1 0
1  24 0 0 60
2  47 3 14 0 60
2  48 5 13 0 60
0

0101000
+254 15 -200 15 *
Ed
 1e-07 1 1 0
1  25 0 0 120
2  49 3 14 0 120
2  50 6 13 0 120
0

0101000
+200 15 -247 15 *
Wi

0101000
-253 32 -244 32 -199 32 -198 32 *
Fa
0  1e-07 3 21

0101000
+236 0 +231 0 +226 0 +221 0 +216 0 +211 0 +206 0 +201 0 +197 0 *
Ve
1e-07
120 30 20
0 0

0101101
*
Ed
 1e-07 1 1 0
1  26 0 0 15
2  51 4 0 0 15
2  52 16 0 0 15
0

0101000
+252 33 -195 33 *
Ve
1e-07
0 30 20
0 0

0101101
*
Ed
 1e-07 1 1 0
1  27 0 0 120
2  53 4 37 0 120
2  54 17 38 0 120
0

0101000
+195 39 -193 39 *
Ed
 1e-07 1 1 0
1  28 0 0 15
2  55 4 0 0 15
2  56 7 0 0 15
0

0101000
+256 33 -193 33 *
Wi

0101000
+194 0 +251 17 +192 36 -191 0 *
Fa
0  1e-07 4 0

0101000
+190 0 *
Ve
1e-07
120 -30 5
0 0

0101101
*
Ed
 1e-07 1 1 0
1  29 0 0 60
2  57 5 18 0 60
2  58 16 19 0 60
0

0101000
+252 20 -188 20 *
Ed
 1e-07 1 1 0
1  30 0 0 5
2  59 5 0 0 5
2  60 6 0 0 5
0

0101000
+200 9 -188 9 *
Wi

0101000
+250 8 -199 12 +187 17 -186 8 *
Fa
0  1e-07 5 8

0101000
+185 0 *
Ed
 1e-07 1 1 0
1  31 0 0 120
2  61 6 18 0 120
2  62 18 19 0 120
0

0101000
+188 20 -246 20 *
Wi

0101000
+186 8 -198 12 +183 17 -245 8 *
Fa
0  1e-07 6 8

0101000
+182 0 *
Ve
1e-07
0 -30 20
0 0

0101101
*
Ed
 1e-07 1 1 0
1  32 0 0 60
2  63 7 37 0 60
2  64 17 38 0 60
0

0101000
+193 39 -180 39 *
Ed
 1e-07 1 1 0
1  33 0 0 15
2  65 7 0 0 15
2  66 18 0 0 15
0

0101000
+246 33 -180 33 *
Wi

0101000
+191 0 +243 17 +179 36 -178 0 *
Fa
0  1e-07 7 0

0101000
+177 0 *
Ve
1e-07
115 15 -10
0 0

0101101
*
Ed
 1e-07 1 1 0
1  34 0 5 15
3  67 68CN 8 0 5 15
0

0101000
+240 40 -175 40 *
Ed
 1e-07 1 1 0
1  35 0 0 6.28318530717959
2  69 8 44 0 6.28318530717959
2  70 19 45 0 6.28318530717959
0

0101100
+175 46 -175 46 *
Wi

0101000
-174 22 +173 43 +174 22 -238 0 -237 0 *
Fa
0  1e-07 8 22

0101000
+172 0 *
Ve
1e-07
85 15 -10
0 0

0101101
*
Ed
 1e-07 1 1 0
1  36 0 5 15
3  71 72CN 9 0 5 15
0

0101000
+235 47 -170 47 *
Ed
 1e-07 1 1 0
1  37 0 0 6.28318530717959
2  73 9 44 0 6.28318530717959
2  74 20 45 0 6.28318530717959
0

0101100
+170 49 -170 49 *
Wi

0101000
-169 24 +168 48 +169 24 -233 0 -232 0 *
Fa
0  1e-07 9 24

0101000
+167 0 *
Ve
1e-07
55 15 -10
0 0

0101101
*
Ed
 1e-07 1 1 0
1  38 0 5 15
3  75 76CN 10 0 5 15
0

0101000
+230 50 -165 50 *
Ed
 1e-07 1 1 0
1  39 0 0 6.28318530717959
2  77 10 44 0 6.28318530717959
2  78 21 45 0 6.28318530717959
0

0101100
+165 52 -165 52 *
Wi

0101000
-164 25 +163 51 +164 25 -228 0 -227 0 *
Fa
0  1e-07 10 25

0101000
+162 0 *
Ve
1e-07
25 15 -10
0 0

0101101
*
Ed
 1e-07 1 1 0
1  40 0 5 15
3  79 80CN 11 0 5 15
0

0101000
+225 53 -160 53 *
Ed
 1e-07 1 1 0
1  41 0 0 6.28318530717959
2  81 11 44 0 6.28318530717959
2  82 22 45 0 6.28318530717959
0

0101100
+160 55 -160 55 *
Wi

0101000
-159 26 +158 54 +159 26 -223 0 -222 0 *
Fa
0  1e-07 11 26

0101000
+157 0 *
Ve
1e-07
115 -15 -10
0 0

0101101
*
Ed
 1e-07 1 1 0
1  42 0 5 15
3  83 84CN 12 0 5 15
0

0101000
+220 56 -155 56 *
Ed
 1e-07 1 1 0
1  43 0 0 6.28318530717959
2  85 12 44 0 6.28318530717959
2  86 23 45 0 6.28318530717959
0

0101100
+155 58 -155 58 *
Wi

0101000
-154 27 +153 57 +154 27 -218 0 -217 0 *
Fa
0  1e-07 12 27

0101000
+152 0 *
Ve
1e-07
85 -15 -10
0 0

0101101
*
Ed
 1e-07 1 1 0
1  44 0 5 15
3  87 88CN 13 0 5 15
0

0101000
+215 59 -150 59 *
Ed
 1e-07 1 1 0
1  45 0 0 6.28318530717959
2  89 13 44 0 6.28318530717959
2  90 24 45 0 6.28318530717959
0

0101100
+150 61 -150 61 *
Wi

0101000
-149 28 +148 60 +149 28 -213 0 -212 0 *
Fa
0  1e-07 13 28

0101000
+147 0 *
Ve
1e-07
55 -15 -10
0 0

0101101
*
Ed
 1e-07 1 1 0
1  46 0 5 15
3  91 92CN 14 0 5 15
0

0101000
+210 62 -145 62 *
Ed
 1e-07 1 1 0
1  47 0 0 6.28318530717959
2  93 14 44 0 6.28318530717959
2  94 25 45 0 6.28318530717959
0

0101100
+145 64 -145 64 *
Wi

0101000
-144 29 +143 63 +144 29 -208 0 -207 0 *
Fa
0  1e-07 14 29

0101000
+142 0 *
Ve
1e-07
25 -15 -10
0 0

0101101
*
Ed
 1e-07 1 1 0
1  48 0 5 15
3  95 96CN 15 0 5 15
0

0101000
+205 31 -140 31 *
Ed
 1e-07 1 1 0
1  49 0 0 6.28318530717959
2  97 15 44 0 6.28318530717959
2  98 26 45 0 6.28318530717959
0

0101100
+140 66 -140 66 *
Wi

0101000
-139 0 +138 65 +139 0 -203 0 -202 0 *
Fa
0  1e-07 15 0

0101000
+137 0 *
Ve
1e-07
120 -30 20
0 0

0101101
*
Ed
 1e-07 1 1 0
1  50 0 0 15
2  99 16 0 0 15
2  100 18 0 0 15
0

0101000
+188 33 -135 33 *
Ed
 1e-07 1 1 0
1  51 0 0 60
2  101 16 37 0 60
2  102 17 38 0 60
0

0101000
+135 39 -195 39 *
Wi

0101000
+134 0 +187 17 +133 36 -194 0 *
Fa
0  1e-07 16 0

0101000
+132 0 *
Ed
 1e-07 1 1 0
1  52 0 0 120
2  103 17 38 0 120
2  104 18 37 0 120
0

0101000
+180 39 -135 39 *
Wi

0101100
+130 0 +133 0 +192 0 +179 0 *
Ve
1e-07
5 -25 20
0 0

0101101
*
Ve
5.09001269276204e-05
115 -25 20
0 0

0101101
*
Ed
 1e-07 1 1 0
1  53 0 0 110
2  105 17 38 0 110
2  106 27 37 0 110
0

0101000
+128 39 -127 39 *
Ve
1e-07
115 25 20
0 0

0101101
*
Ed
 1e-07 1 1 0
1  54 0 0 50
2  107 17 38 0 50
2  108 28 37 0 50
0

0101000
+127 39 -125 39 *
Ve
1e-07
5 25 20
0 0

0101101
*
Ed
 1e-07 1 1 0
1  55 0 0 110
2  109 17 38 0 110
2  110 29 37 0 110
0

0101000
+125 39 -123 39 *
Ed
 1e-07 1 1 0
1  56 0 0 50
2  111 17 38 0 50
2  112 30 37 0 50
0

0101000
+123 39 -128 39 *
Wi

0101100
+126 0 +124 0 +122 0 +121 0 *
Fa
0  1e-07 17 0

0101000
-129 34 +120 34 *
Wi

0101000
+178 0 +183 17 +130 36 -134 0 *
Fa
0  1e-07 18 0

0101000
+118 0 *
Wi

0101100
+173 0 *
Fa
0  1e-07 19 0

0101000
-116 41 *
Wi

0101100
+168 0 *
Fa
0  1e-07 20 0

0101000
-114 41 *
Wi

0101100
+163 0 *
Fa
0  1e-07 21 0

0101000
-112 41 *
Wi

0101100
+158 0 *
Fa
0  1e-07 22 0

0101000
-110 41 *
Wi

0101100
+153 0 *
Fa
0  1e-07 23 0

0101000
-108 41 *
Wi

0101100
+148 0 *
Fa
0  1e-07 24 0

0101000
-106 41 *
Wi

0101100
+143 0 *
Fa
0  1e-07 25 0

0101000
-104 41 *
Wi

0101100
+138 0 *
Fa
0  1e-07 26 0

0101000
-102 41 *
Ve
1e-07
5 -25 5
0 0

0101101
*
Ed
 1e-07 1 1 0
1  57 0 0 15
2  113 27 0 0 15
2  114 30 0 0 15
0

0101000
+100 33 -128 33 *
Ve
5.00000998737622e-07
15 -25 5
0 0

0101101
*
Ed
 1e-07 1 1 0
1  58 0 0 10
2  115 27 77 0 10
2  116 31 78 0 10
0

0101000
+100 79 -98 79 *
Ve
5.00000998737622e-07
45 -25 5
0 0

0101101
*
Ed
 1e-07 1 1 0
1  59 0 10 40
2  117 27 77 10 40
2  118 32 78 10 40
0

0101000
+98 79 -96 79 *
Ve
5.09001269276204e-05
115 -25 5
0 0

0101101
*
Ed
 1e-07 1 1 0
1  60 0 0 15
2  119 27 0 0 15
2  120 28 0 0 15
0

0101000
+94 33 -127 33 *
Ve
5.00000998737622e-07
75 -25 5
0 0

0101101
*
Ed
 1e-07 1 1 0
1  61 0 40 70
2  121 27 77 40 70
2  122 32 78 40 70
0

0101000
+96 79 -92 79 *
Ve
5.00000998737622e-07
105 -25 5
0 0

0101101
*
Ed
 1e-07 1 1 0
1  62 0 100 110
2  123 27 77 100 110
2  124 33 78 100 110
0

0101000
+90 79 -94 79 *
Ed
 1e-07 1 1 0
1  63 0 70 100
2  125 27 77 70 100
2  126 32 78 70 100
0

0101000
+92 79 -90 79 *
Wi

0101000
+99 5 -97 76 +126 80 -95 76 -93 5 -91 76 -89 76 -88 76 *
Fa
0  1e-07 27 5

0101000
+87 0 *
Ve
1.30000300115888e-06
115 -15 5
0 0

0101101
*
Ed
 1e-07 1 1 0
1  64 0 0 10
2  127 28 77 0 10
2  128 33 78 0 10
0

0101000
+94 79 -85 79 *
Ve
2.90000700244869e-06
115 15 5
0 0

0101101
*
Ed
 1e-07 1 1 0
1  65 0 10 40
2  129 28 77 10 40
2  130 32 78 10 40
0

0101000
+85 79 -83 79 *
Ve
1e-07
115 25 5
0 0

0101101
*
Ed
 1e-07 1 1 0
1  66 0 0 15
2  131 28 0 0 15
2  132 29 0 0 15
0

0101000
+81 33 -125 33 *
Ed
 1e-07 1 1 0
1  67 0 40 50
2  133 28 77 40 50
2  134 34 78 40 50
0

0101000
+83 79 -81 79 *
Wi

0101000
+93 5 -84 76 +124 80 -82 76 -80 5 -79 76 *
Fa
0  1e-07 28 5

0101000
+78 0 *
Ve
5.00000998737622e-07
105 25 5
0 0

0101101
*
Ed
 1e-07 1 1 0
1  68 0 0 10
2  135 29 77 0 10
2  136 34 78 0 10
0

0101000
+81 79 -76 79 *
Ve
5.00000998737622e-07
75 25 5
0 0

0101101
*
Ed
 1e-07 1 1 0
1  69 0 10 40
2  137 29 77 10 40
2  138 32 78 10 40
0

0101000
+76 79 -74 79 *
Ve
1e-07
5 25 5
0 0

0101101
*
Ed
 1e-07 1 1 0
1  70 0 0 15
2  139 29 0 0 15
2  140 30 0 0 15
0

0101000
+72 33 -123 33 *
Ve
5.00000998737622e-07
45 25 5
0 0

0101101
*
Ed
 1e-07 1 1 0
1  71 0 40 70
2  141 29 77 40 70
2  142 32 78 40 70
0

0101000
+74 79 -70 79 *
Ve
5.00001000513978e-07
15 25 5
0 0

0101101
*
Ed
 1e-07 1 1 0
1  72 0 100 110
2  143 29 77 100 110
2  144 35 78 100 110
0

0101000
+68 79 -72 79 *
Ed
 1e-07 1 1 0
1  73 0 70 100
2  145 29 77 70 100
2  146 32 78 70 100
0

0101000
+70 79 -68 79 *
Wi

0101000
+80 5 -75 76 +122 80 -73 76 -71 5 -69 76 -67 76 -66 76 *
Fa
0  1e-07 29 5

0101000
+65 0 *
Ve
5.00001002290335e-07
5 15 5
0 0

0101101
*
Ed
 1e-07 1 1 0
1  74 0 0 10
2  147 30 77 0 10
2  148 35 78 0 10
0

0101000
+72 79 -63 79 *
Ve
5.00001002290335e-07
5 -15 5
0 0

0101101
*
Ed
 1e-07 1 1 0
1  75 0 10 40
2  149 30 77 10 40
2  150 32 78 10 40
0

0101000
+63 79 -61 79 *
Ed
 1e-07 1 1 0
1  76 0 40 50
2  151 30 77 40 50
2  152 31 78 40 50
0

0101000
+61 79 -100 79 *
Wi

0101000
+71 5 -62 76 +121 80 -60 76 -99 5 -59 76 *
Fa
0  1e-07 30 5

0101000
+58 0 *
Ed
 1e-07 1 1 0
1  77 0 3.14159265358979 4.71238898038469
2  153 31 83 3.14159265358979 4.71238898038469
2  154 36 83 3.14159265358979 4.71238898038469
0

0101000
+61 84 -98 84 *
Wi

0101000
-56 82 +97 85 +59 85 *
Fa
0  1e-07 31 81

0101000
+55 0 *
Ve
5.00001000513978e-07
85 15 5
0 0

0101101
*
Ed
 1e-07 1 1 0
1  78 0 1.5707963267949 6.28318530717959
2  155 32 88 1.5707963267949 6.28318530717959
2  156 37 88 1.5707963267949 6.28318530717959
0

0101000
+74 89 -53 89 *
Ed
 1e-07 1 1 0
1  79 0 0 1.5707963267949
2  157 32 88 0 1.5707963267949
2  158 37 88 0 1.5707963267949
0

0101000
+53 89 -74 89 *
Wi

0101000
-52 87 -51 87 *
Ve
5.00001000513978e-07
55 15 5
0 0

0101101
*
Ed
 1e-07 1 1 0
1  80 0 1.5707963267949 6.28318530717959
2  159 32 91 1.5707963267949 6.28318530717959
2  160 38 91 1.5707963267949 6.28318530717959
0

0101000
+70 92 -49 92 *
Ed
 1e-07 1 1 0
1  81 0 0 1.5707963267949
2  161 32 91 0 1.5707963267949
2  162 38 91 0 1.5707963267949
0

0101000
+49 92 -70 92 *
Wi

0101000
-48 90 -47 90 *
Ve
1e-07
55 -15 5
0 0

0101101
*
Ed
 1e-07 1 1 0
1  82 0 4.71238898038469 6.28318530717959
2  163 32 94 4.71238898038469 6.28318530717959
2  164 39 94 4.71238898038469 6.28318530717959
0

0101000
+96 95 -45 95 *
Ed
 1e-07 1 1 0
1  83 0 0 4.71238898038469
2  165 32 94 0 4.71238898038469
2  166 39 94 0 4.71238898038469
0

0101000
+45 95 -96 95 *
Wi

0101000
-44 93 -43 93 *
Ve
1e-07
85 -15 5
0 0

0101101
*
Ed
 1e-07 1 1 0
1  84 0 4.71238898038469 6.28318530717959
2  167 32 97 4.71238898038469 6.28318530717959
2  168 40 97 4.71238898038469 6.28318530717959
0

0101000
+92 98 -41 98 *
Ed
 1e-07 1 1 0
1  85 0 0 4.71238898038469
2  169 32 97 0 4.71238898038469
2  170 40 97 0 4.71238898038469
0

0101000
+41 98 -92 98 *
Wi

0101000
-40 96 -39 96 *
Ed
 1e-07 1 1 0
1  86 0 1.5707963267949 6.28318530717959
2  171 32 100 1.5707963267949 6.28318530717959
2  172 41 100 1.5707963267949 6.28318530717959
0

0101000
+76 101 -83 101 *
Ed
 1e-07 1 1 0
1  87 0 0 4.71238898038469
2  173 32 103 0 4.71238898038469
2  174 42 103 0 4.71238898038469
0

0101000
+85 104 -90 104 *
Ve
1e-07
25 -15 5
0 0

0101101
*
Ed
 1e-07 1 1 0
1  88 0 4.71238898038469 6.28318530717959
2  175 32 83 4.71238898038469 6.28318530717959
2  176 36 83 4.71238898038469 6.28318530717959
0

0101000
+98 84 -35 84 *
Ed
 1e-07 1 1 0
1  89 0 0 3.14159265358979
2  177 32 83 0 3.14159265358979
2  178 36 83 0 3.14159265358979
0

0101000
+35 84 -61 84 *
Ve
5.00001000513978e-07
25 15 5
0 0

0101101
*
Ed
 1e-07 1 1 0
1  90 0 3.14159265358979 6.28318530717959
2  179 32 107 3.14159265358979 6.28318530717959
2  180 43 107 3.14159265358979 6.28318530717959
0

0101000
+63 108 -32 108 *
Ed
 1e-07 1 1 0
1  91 0 0 1.5707963267949
2  181 32 107 0 1.5707963267949
2  182 43 107 0 1.5707963267949
0

0101000
+32 108 -68 108 *
Wi

0101000
-37 99 +82 76 -36 102 +88 76 +91 76 +95 76 -34 105 -33 105 +60 76 -31 106 
-30 106 +66 76 +69 76 +73 76 *
Fa
0  1e-07 32 86

0101000
+50 0 +46 0 +42 0 +38 0 +29 0 *
Ed
 1e-07 1 1 0
1  92 0 4.71238898038469 6.28318530717959
2  183 33 103 4.71238898038469 6.28318530717959
2  184 42 103 4.71238898038469 6.28318530717959
0

0101000
+90 104 -85 104 *
Wi

0101000
+84 76 +89 76 -27 102 *
Fa
0  1e-07 33 86

0101000
+26 0 *
Ed
 1e-07 1 1 0
1  93 0 0 1.5707963267949
2  185 34 100 0 1.5707963267949
2  186 41 100 0 1.5707963267949
0

0101000
+83 101 -76 101 *
Wi

0101000
+79 76 -24 99 +75 76 *
Fa
0  1e-07 34 86

0101000
+23 0 *
Ed
 1e-07 1 1 0
1  94 0 1.5707963267949 3.14159265358979
2  187 35 107 1.5707963267949 3.14159265358979
2  188 43 107 1.5707963267949 3.14159265358979
0

0101000
+68 108 -63 108 *
Wi

0101000
-21 106 +62 76 +67 76 *
Fa
0  1e-07 35 86

0101000
+20 0 *
Wi

0101000
+33 82 +34 82 +56 82 *
Fa
0  1e-07 36 81

0101000
+18 0 *
Wi

0101000
+51 87 +52 87 *
Fa
0  1e-07 37 86

0101000
+16 0 *
Wi

0101000
+47 90 +48 90 *
Fa
0  1e-07 38 86

0101000
+14 0 *
Wi

0101000
+43 93 +44 93 *
Fa
0  1e-07 39 86

0101000
+12 0 *
Wi

0101000
+39 96 +40 96 *
Fa
0  1e-07 40 86

0101000
+10 0 *
Wi

0101000
+24 99 +37 99 *
Fa
0  1e-07 41 86

0101000
+8 0 *
Wi

0101000
+27 102 +36 102 *
Fa
0  1e-07 42 86

0101000
+6 0 *
Wi

0101000
+30 106 +31 106 +21 106 *
Fa
0  1e-07 43 86

0101000
+4 0 *
Sh

0101000
+248 5 +241 5 -196 0 -189 5 +184 5 +181 5 -176 5 +171 0 +166 0 +161 0 
+156 0 +151 0 +146 0 +141 0 +136 4 -131 5 -119 67 -117 5 +115 68 +113 69 
+111 70 +109 71 +107 72 +105 73 +103 74 +101 75 +86 0 +77 0 +64 0 +57 0 
+54 4 +28 0 +25 0 +22 0 +19 0 +17 4 +15 0 +13 0 +11 0 +9 0 
+7 0 +5 0 +3 0 *
So

0100000
+2 0 *

+1 1 