DBRep_DrawableShape

CASCADE Topology V1, (c) Matra-Datavision
Locations 18
1
              1               0              -0               0 
             -0 1.77321265310004e-16              -1               0 
              0               1 1.77321265310004e-16               0 
1
              1               0               0               0 
              0               1               0               0 
              0               0               1               0 
2  2 -1 0
2  1 -1 2 -1 0
2  1 -1 0
1
              1               0              -0               0 
             -0 1.77321265310004e-16              -1               0 
              0               1 1.77321265310004e-16               0 
1
              1               0               0               0 
              0 -1.83663848019044e-16              -1               0 
              0               1 -1.83663848019044e-16               0 
1
              1               0               0               0 
              0               1               0 2.81005687469138e-13 
              0               0               1            1530 
2  6 1 7 -1 8 1 2 1 0
2  8 -1 7 1 6 -1 0
2  6 -1 0
2  1 -1 2 -1 8 -1 7 1 6 -1 0
2  6 1 7 -1 2 1 0
2  7 1 6 -1 0
2  1 -1 2 -1 7 1 6 -1 0
2  7 -1 2 1 0
2  7 -1 8 1 2 1 0
2  2 -1 7 1 0
Curve2ds 36
1 0 5.0487097934144756e-29 0 -1 
1 299.99999999999989 3.1616065967060864e-29 -1.773212653100043e-16 -1 
2 99.999999999999986 -99.999999999999986 0 -1 -1 -0 100
1 -1.5707963267948966 299.99999999999989 1 0 
1 0 -1529.9999999999995 1 0 
1 1.1368683772161603e-13 0 0 1 
1 0 5.0487097934144756e-29 1 0 
1 1.1368683772161603e-13 0 0 1 
1 2029.9999999999991 5.0487097934144756e-29 0 -1 
1 -2.717752685692468e-44 5.0487097934144756e-29 1.773212653100043e-16 -1 
2 1929.9999999999995 -100 0 1 -1 0 100
1 -4.7123889803846897 -1.8350121769317156e-14 1 0 
1 1.358876342846234e-44 2.5243548967072378e-29 -1.773212653100043e-16 -1 
1 2029.9999999999991 2.5243548967072378e-29 0 -1 
1 2.0733414984874798e-14 -99.999999999999986 1 0 
1 0 0 0 1 
1 -3.1201798957047878e-13 -1529.9999999999995 1 0 
1 299.99999999999994 0 -1 0 
1 -1.5707963267948966 -5.6843418860808015e-14 1 0 
2 1929.9999999999995 -99.999999999999986 0 -1 1 0 100
1 1.5707963267948966 0 0 1 
1 299.99999999999994 99.999999999999986 -1 0 
1 1.1368683772161603e-13 2029.9999999999995 1 0 
1 3.6886140843128675e-13 -1529.9999999999995 1 0 
1 299.99999999999994 2029.9999999999995 -0 -1 
1 -4.5474735088646412e-13 -1529.9999999999995 1 0 
1 0 1929.9999999999995 1 0 
1 1.5707963267948966 0 0 1 
1 299.99999999999994 2029.9999999999995 -0 -1 
1 -4.5474735088646412e-13 2.5243548967072378e-29 1 0 
1 3.6082248300317588e-14 -100 1 0 
1 0 0 0 1 
1 299.99999999999989 4.411458093415627e-29 1.773212653100043e-16 -1 
1 0 2.5243548967072378e-29 0 -1 
1 -4.7123889803846897 299.99999999999994 1 0 
2 100 -100 -0 1 1 0 100
Curves 18
1 109.99999999999999 659.99999999999989 -2.3825017479717214e-13 0 1.8366384801904445e-16 1 
8 1.5707963267948966 3.1415926535897936
2 209.99999999999997 659.99999999999989 99.999999999999744 -0 -1 3.6098511332904875e-16 0 3.6098511332904875e-16 1 -1 0 0 100
1 110 660 0 1 0 0 
1 110 660 0 1 0 0 
1 2139.9999999999995 659.99999999999989 -2.3825017479717214e-13 0 1.8366384801904445e-16 1 
8 4.7123889803846897 6.2831853071795862
2 2039.9999999999995 659.99999999999989 99.999999999999758 -0 1 -3.6098511332904875e-16 0 -3.6098511332904875e-16 -1 -1 -0 0 100
1 109.99999999999999 359.99999999999994 -1.2995464079845753e-13 0 1.8366384801904445e-16 1 
1 109.99999999999997 360 99.999999999999858 0 1 -3.6098511332904875e-16 
1 110 360 0 0 1 0 
8 1.5707963267948966 3.1415926535897936
2 209.99999999999997 359.99999999999994 99.999999999999858 -0 -1 3.6098511332904875e-16 0 3.6098511332904875e-16 1 -1 0 0 100
1 209.99999999999997 359.99999999999994 -1.4210854715202004e-13 0 1 -3.6098511332904875e-16 
1 2140 660 0 0 -1 0 
1 2140 360 0 -1 0 0 
1 2039.9999999999995 659.99999999999989 -2.4158453015843406e-13 0 -1 3.6098511332904875e-16 
1 2140 360 0 -1 0 0 
1 2139.9999999999995 659.99999999999989 99.999999999999758 0 -1 3.6098511332904875e-16 
1 2139.9999999999995 359.99999999999994 -1.2995464079845753e-13 0 1.8366384801904445e-16 1 
8 4.7123889803846897 6.2831853071795862
2 2039.9999999999995 359.99999999999994 99.999999999999872 -0 1 -3.6098511332904875e-16 0 -3.6098511332904875e-16 -1 -1 -0 0 100
Polygon3D 0
PolygonOnTriangulations 0
Surfaces 8
1 109.99999999999999 659.99999999999989 -2.3825017479717209e-13 0 1 -1.8366384801904445e-16 1 0 0 0 -1.8366384801904445e-16 -1 
1 109.99999999999999 359.99999999999994 -1.2995464079845751e-13 -1 0 0 0 1 -3.6098511332904875e-16 -0 -3.6098511332904875e-16 -1 
2 209.99999999999997 360 99.999999999999858 0 1 -3.6098511332904875e-16 -1 0 0 -0 -3.6098511332904875e-16 -1 100
1 109.99999999999999 1.1703203510460281e-13 659.99999999999989 0 -1 1.7732126531000427e-16 0 -1.7732126531000427e-16 -1 1 0 0 
1 109.99999999999999 1.1703203510460281e-13 659.99999999999989 0 -1 1.7732126531000427e-16 0 -1.7732126531000427e-16 -1 1 0 0 
1 2139.9999999999995 659.99999999999989 -2.3825017479717209e-13 1 0 -0 0 -1 3.6098511332904875e-16 0 -3.6098511332904875e-16 -1 
2 2039.9999999999995 659.99999999999989 99.999999999999758 0 -1 3.6098511332904875e-16 1 0 0 0 -3.6098511332904875e-16 -1 100
1 2139.9999999999995 359.99999999999994 -1.2995464079845751e-13 0 -1 1.8366384801904445e-16 -1 0 0 -0 -1.8366384801904445e-16 -1 
Triangulations 0

TShapes 49
Ve
1e-07
110 -99.9999999999996 660
0 0

0101101
*
Ve
1e-07
110 -1530 660
0 0

0101101
*
Ed
 1e-07 1 1 0
1  1 0 100 1530
2  1 1 0 100 1530
2  2 2 0 100 1530
0

0101000
+49 4 -48 4 *
Ve
1e-07
210 3.67435899414903e-13 660
0 0

0101101
*
Ed
 1e-07 1 1 0
1  2 0 1.5707963267949 3.14159265358979
2  3 1 2 1.5707963267949 3.14159265358979
2  4 3 0 1.5707963267949 3.14159265358979
0

0101000
+49 5 -46 5 *
Ve
1e-07
2140 -1530 660
0 0

0101101
*
Ed
 1e-07 1 1 0
1  3 0 0 2030
2  5 1 10 0 2030
2  6 4 11 0 2030
0

0101000
+48 12 -44 12 *
Ve
1e-07
2040 3.58616565263037e-13 660
0 0

0101101
*
Ed
 1e-07 1 1 0
1  4 0 100 1930
2  7 1 14 100 1930
2  8 5 11 100 1930
0

0101000
+46 15 -42 15 *
Ve
1e-07
2140 -99.9999999999996 660
0 0

0101101
*
Ed
 1e-07 1 1 0
1  5 0 100 1530
2  9 1 0 100 1530
2  10 6 0 100 1530
0

0101000
+40 4 -44 4 *
Ed
 1e-07 1 1 0
1  6 0 4.71238898038469 6.28318530717959
2  11 1 2 4.71238898038469 6.28318530717959
2  12 7 0 4.71238898038469 6.28318530717959
0

0101000
+40 5 -42 5 *
Wi

0101100
+47 2 -45 0 +43 9 -41 13 -39 2 +38 0 *
Fa
0  1e-07 1 0

0101000
+37 3 *
Ve
1e-07
110 -99.9999999999998 360
0 0

0101101
*
Ve
1e-07
110 -1530 360
0 0

0101101
*
Ed
 1e-07 1 1 0
1  7 0 100 1530
2  13 2 0 100 1530
2  14 8 0 100 1530
0

0101000
+35 4 -34 4 *
Ed
 1e-07 1 1 0
1  8 0 -3.84655415158752e-14 300
2  15 2 2 -3.84655415158752e-14 300
2  16 3 0 -3.84655415158752e-14 300
4 G1 2 2 3 0
0

0101000
+35 5 -49 5 *
Ed
 1e-07 1 1 0
1  9 0 0 300
2  17 2 10 0 300
2  18 4 11 0 300
0

0101000
+34 12 -48 12 *
Wi

0101100
+33 2 -32 0 +31 9 -47 2 *
Fa
0  1e-07 2 0

0101000
+30 3 *
Ve
1e-07
210 2.05944202663622e-13 360
0 0

0101101
*
Ed
 1e-07 1 1 0
1  10 0 1.5707963267949 3.14159265358979
2  19 3 0 1.5707963267949 3.14159265358979
2  20 8 2 1.5707963267949 3.14159265358979
0

0101000
+35 5 -28 5 *
Ed
 1e-07 1 1 0
1  11 0 -0 300
2  21 3 0 -0 300
2  22 5 16 -0 300
4 G1 3 0 5 16
0

0101000
+28 5 -46 5 *
Wi

0101100
+27 0 -32 0 +26 0 -45 0 *
Fa
0  1e-07 3 0

0101000
+25 0 *
Ve
1e-07
2140 -1530 360
0 0

0101101
*
Ed
 1e-07 1 1 0
1  12 0 0 300
2  23 4 11 0 300
2  24 6 10 0 300
0

0101000
+44 12 -23 12 *
Ed
 1e-07 1 1 0
1  13 0 0 2030
2  25 4 11 0 2030
2  26 8 10 0 2030
0

0101000
+23 12 -34 12 *
Wi

0101100
+43 0 +22 0 +21 0 +31 0 *
Fa
0  1e-07 4 0

0101000
-20 6 *
Ve
1e-07
2040 1.97124868511755e-13 360
0 0

0101101
*
Ed
 1e-07 1 1 0
1  14 0 0 300
2  27 5 16 0 300
2  28 7 0 0 300
4 G1 5 16 7 0
0

0101000
+42 5 -18 5 *
Ed
 1e-07 1 1 0
1  15 0 100 1930
2  29 5 11 100 1930
2  30 8 14 100 1930
0

0101000
+18 15 -28 15 *
Wi

0101100
-41 13 -26 0 -17 0 -16 13 *
Fa
0  1e-07 5 0

0101000
+15 18 *
Ve
1e-07
2140 -99.9999999999998 360
0 0

0101101
*
Ed
 1e-07 1 1 0
1  16 0 -1.83501217693172e-14 300
2  31 6 2 -1.83501217693172e-14 300
2  32 7 0 -1.83501217693172e-14 300
4 G1 6 2 7 0
0

0101000
+40 5 -13 5 *
Ed
 1e-07 1 1 0
1  17 0 100 1530
2  33 6 0 100 1530
2  34 8 0 100 1530
0

0101000
+13 4 -23 4 *
Wi

0101100
+39 2 -12 0 +22 9 -11 2 *
Fa
0  1e-07 6 0

0101000
+10 3 *
Ed
 1e-07 1 1 0
1  18 0 4.71238898038469 6.28318530717959
2  35 7 0 4.71238898038469 6.28318530717959
2  36 8 2 4.71238898038469 6.28318530717959
0

0101000
+13 5 -18 5 *
Wi

0101100
+38 0 -12 0 +17 0 -8 0 *
Fa
0  1e-07 7 0

0101000
+7 0 *
Wi

0101100
+11 2 -8 0 +21 9 -16 13 -33 2 +27 0 *
Fa
0  1e-07 8 0

0101000
+5 3 *
Sh

0101100
+36 2 +29 2 -24 0 +19 17 -14 16 +9 2 -6 0 +4 2 *
So

0100000
+3 0 *
Co

1100000
+2 0 *

+1 1 