DBRep_DrawableShape

CASCADE Topology V1, (c) Matra-Datavision
Locations 9
1
              1               0               0               0 
              0               1               0               0 
              0               0               1               0 
1
              1               0               0           13700 
              0               1               0            3200 
              0               0               1            5000 
2  1 -1 2 -1 0
1
              1               0               0           13700 
              0              -1   -1.224606e-16            3200 
              0    1.224606e-16              -1            5450 
2  4 1 2 -1 0
1
              1               0               0           13700 
              0               1               0            3200 
              0               0               1               0 
2  2 1 6 -1 0
2  1 -1 6 -1 0
2  1 -1 4 -1 0
Curve2ds 18
1 6.2831853071795862 -0 0 1 
1 0 -0 0 1 
1 0 0 1 0 
2 0 0 1 0 -0 1 200
1 0 200 1 0 
2 0 0 1 0 0 -1 200
2 0 0 1 0 -0 1 100
1 0 5000 1 0 
2 0 0 1 0 -0 1 250
1 0 346.55446902326912 1 0 
1 6.2831853071795862 -0 0 1 
1 0 -0 0 1 
1 0 0 1 0 
2 0 0 1 0 -0 1 100
1 6.2831853071795862 -0 0 1 
1 0 -0 0 1 
1 0 0 1 0 
2 0 0 1 0 -0 1 10
Curves 9
1 200 -4.898425415289509e-14 0 0 0 1 
2 0 0 0 0 0 1 1 0 -0 -0 1 0 200
2 0 0 200 0 0 1 1 0 -0 -0 1 0 200
2 0 0 5000 0 0 1 1 0 -0 -0 1 0 100
2 0 0 250 0 0 1 1 0 -0 -0 1 0 250
1 100 -2.4492127076447545e-14 0 0 0 1 
2 0 0 0 0 0 1 1 0 -0 -0 1 0 100
1 10 -2.4492127076447545e-15 0 0.69253182818971348 -1.6961577540507e-16 0.7213873210309516 
2 0 0 0 0 0 1 1 0 -0 -0 1 0 10
Polygon3D 0
PolygonOnTriangulations 0
Surfaces 7
2 0 0 0 0 0 1 1 0 -0 -0 1 0 200
1 0 0 0 0 0 1 1 0 -0 -0 1 0 
1 0 0 250 0 0 1 1 0 -0 -0 1 0 
2 0 0 0 0 0 1 1 0 -0 -0 1 0 100
3 0 0 0 0 0 1 1 0 -0 -0 1 0 10
0.76499283271091023
1 0 0 0 0 0 1 1 0 -0 -0 1 0 
1 0 0 0 0 0 1 1 0 -0 -0 1 0 
Triangulations 0

TShapes 34
Ve
1e-07
13900 3200 5200
0 0

0101101
*
Ve
1e-07
13900 3200 5000
0 0

0101101
*
Ed
 1e-07 1 1 0
1  1 0 0 200
3  1 2CN 1 0 0 200
0

0101000
-34 3 +33 3 *
Ed
 1e-07 1 1 0
1  2 0 0 6.28318530717959
2  3 1 0 0 6.28318530717959
2  4 2 0 0 6.28318530717959
0

0101100
+33 3 -33 3 *
Ed
 1e-07 1 1 0
1  3 0 0 6.28318530717959
2  5 1 0 0 6.28318530717959
2  6 3 5 0 6.28318530717959
0

0101100
+34 3 -34 3 *
Wi

0101000
+32 2 +31 2 -32 2 -30 2 *
Fa
0  1e-07 1 2

0101000
+29 0 *
Ve
1e-07
13800 3200 5000
0 0

0101101
*
Ed
 1e-07 1 1 0
1  4 0 0 6.28318530717959
2  7 2 7 0 6.28318530717959
2  8 4 0 0 6.28318530717959
0

0101100
+27 8 -27 8 *
Wi

0101000
-26 6 *
Wi

0101000
+31 2 *
Fa
0  1e-07 2 2

0101000
+25 0 +24 0 *
Ve
1e-07
13950 3200 5200
0 0

0101101
*
Ed
 1e-07 1 1 0
1  5 0 0 6.28318530717959
2  9 3 0 0 6.28318530717959
2  10 5 0 0 6.28318530717959
0

0101100
+22 9 -22 9 *
Wi

0101000
+21 4 *
Wi

0101000
+30 2 *
Fa
0  1e-07 3 4

0101000
+20 0 +19 0 *
Ve
1e-07
13800 3200 0
0 0

0101101
*
Ed
 1e-07 1 1 0
1  6 0 0 5000
3  11 12CN 4 0 0 5000
0

0101000
-27 8 +17 8 *
Ed
 1e-07 1 1 0
1  7 0 0 6.28318530717959
2  13 4 0 0 6.28318530717959
2  14 6 0 0 6.28318530717959
0

0101100
+17 8 -17 8 *
Wi

0101000
+16 6 +15 6 -16 6 -26 6 *
Fa
0  1e-07 4 6

0101000
+14 0 *
Ve
1e-07
13710 3200 5450
0 0

0101101
*
Ed
 1e-07 1 1 0
1  8 0 0 346.554469023269
3  15 16CN 5 0 0 346.554469023269
0

0101000
-22 9 +12 9 *
Ed
 1e-07 1 1 0
1  9 0 0 6.28318530717959
2  17 5 0 0 6.28318530717959
2  18 7 0 0 6.28318530717959
0

0101100
+12 9 -12 9 *
Wi

0101000
+11 4 +10 4 -11 4 -21 4 *
Fa
0  1e-07 5 4

0101000
+9 0 *
Wi

0101000
-15 0 *
Fa
0  1e-07 6 0

0101000
-7 0 *
Wi

0101000
-10 0 *
Fa
0  1e-07 7 0

0101000
-5 0 *
Sh

0101000
+28 0 -23 0 +18 0 +13 0 +8 0 -6 6 -4 4 *
So

0100000
+3 0 *
Co

1100000
+2 0 *

+1 1 