DBRep_DrawableShape

CASCADE Topology V1, (c) Matra-Datavision
Locations 10
1
             -1               0               0              -0 
             -0 -2.22044604925031e-16              -1             -20 
              0              -1 2.22044604925031e-16 2.44929359829471e-15 
1
              1               0               0               0 
              0              -1 -1.22464679914735e-16               0 
              0 1.22464679914735e-16              -1               0 
2  1 1 2 -1 0
2  2 1 1 -1 0
2  1 -1 0
1
              1               0               0              -0 
              0               1               0             -10 
              0               0               1 9.9579925010296e-16 
2  1 1 2 -1 6 1 0
2  6 -1 2 1 1 -1 0
2  2 -1 0
2  2 -1 6 1 0
Curve2ds 24
1 -6.0396132539608516e-13 -3.552713678800441e-15 0 -1 
1 3.140961124799575 0 0 -1 
1 14.85 -1.4787618864028953e-15 0 -1 
1 0 0 0 -1 
1 0 0 1 0 
1 0 0 1 -9.1345170786061767e-50 
1 7.8055758929729044e-16 -10.000000000000002 1 0 
1 0 0 1 -9.1345170786061767e-50 
1 40 0 0 -1 
1 0 0 0 -1 
1 0 0 1 0 
1 14.85 -9.2119467647192757e-48 2.6965928715497553e-65 -1 
1 0 -10 1 0 
1 14.849999999999998 2.244065303973404e-49 2.6965928715497553e-65 -1 
1 14.850000000000607 -2.0739517923975449e-15 0 -1 
1 6.2838168359698043 0 0 -1 
1 0 0 1 0 
1 14.85 -40 -1 9.1345170786061767e-50 
1 1.0762083040283464e-16 -10 1 0 
1 14.849999999999998 -40 -1 9.1345170786061767e-50 
1 0 0 1 0 
2 -0.01263057748471752 -20 2.6965928715497553e-65 -1 1 2.6965928715497553e-65 20.000003988286792
1 0 -10 1 0 
2 -0.01263057748471752 -20 2.6965928715497553e-65 -1 1 2.6965928715497553e-65 20.000003988286792
Curves 12
1 20 19.999999999999996 -9.8500000000006036 -0 -1 9.9579925010295987e-17 
1 20 20 5 -0 -1 9.9579925010295987e-17 
1 -20 -9.8499999999999996 0 0 1 0 
1 -20 -9.8499999999999996 0 0 1 0 
1 -20 20 5 -0 -1 9.9579925010295987e-17 
1 -20 5 0 1 0 0 
1 -20 5 0 1 0 0 
1 -20 19.999999999999996 -9.8500000000006072 -0 -1 9.9579925010295987e-17 
1 20 5 0 0 -1 0 
1 20 5 0 0 -1 0 
2 9.2211913722089139e-20 -9.8626305774847172 0 0 0 1 1 0 -0 -0 1 0 20.000003988286792
2 9.2211913722089139e-20 -9.8626305774847172 0 0 0 1 1 0 -0 -0 1 0 20.000003988286792
Polygon3D 0
PolygonOnTriangulations 0
Surfaces 6
1 20 20 -9.8499999999999996 -1 0 0 0 9.9579925010295987e-17 1 0 1 -9.9579925010295987e-17 
2 -9.2211913722089139e-20 20 -9.8626305774847172 0 1 -9.9579925010295987e-17 -1 0 0 0 9.9579925010295987e-17 1 20.000003988286792
1 20 20 5 -0 -9.9579925010295987e-17 -1 -1 0 0 0 1 -9.9579925010295987e-17 
1 20 -19.999999999999996 9.8500000000000014 -5.3121946479529426e-33 -1 2.3923997837040415e-16 0 -2.3923997837040415e-16 -1 1 -5.3121946479529426e-33 1.2708893326756387e-48 
1 20 -19.999999999999996 9.8500000000000014 -5.3121946479529426e-33 -1 2.3923997837040415e-16 0 -2.3923997837040415e-16 -1 1 -5.3121946479529426e-33 1.2708893326756387e-48 
1 -20 20 5 1 0 0 0 -9.9579925010295987e-17 -1 0 1 -9.9579925010295987e-17 
Triangulations 0

TShapes 34
Ve
1.00000603961325e-07
20 20 -9.8500000000006
0 0

0101101
*
Ve
1.00000603961325e-07
20 10 -9.8500000000006
0 0

0101101
*
Ed
 1.00000603961325e-07 1 1 0
1  1 0 0 10
2  1 1 0 0 10
2  2 2 0 0 10
4 G1 1 0 2 0
0

0101000
+34 0 -33 0 *
Ve
1e-07
20 20 5
0 0

0101101
*
Ve
1e-07
20 10 5
0 0

0101101
*
Ed
 1e-07 1 1 0
1  2 0 0 10
2  3 1 0 0 10
2  4 3 0 0 10
0

0101000
+31 0 -30 0 *
Ed
 1e-07 1 1 0
1  3 0 0 14.85
2  5 1 4 0 14.85
2  6 4 5 0 14.85
0

0101000
+34 4 -31 4 *
Ed
 1e-07 1 1 0
1  4 0 0 14.85
2  7 1 8 0 14.85
2  8 5 5 0 14.85
0

0101000
+33 8 -30 8 *
Wi

0101000
+32 0 -29 0 -28 3 +27 7 *
Fa
0  1e-07 1 0

0101000
+26 0 *
Ve
1e-07
-20 20 5
0 0

0101101
*
Ve
1e-07
-20 10 5
0 0

0101101
*
Ed
 1e-07 1 1 0
1  5 0 0 10
2  9 3 0 0 10
2  10 6 0 0 10
0

0101000
+24 0 -23 0 *
Ed
 1e-07 1 1 0
1  6 0 0 40
2  11 3 4 0 40
2  12 4 5 0 40
0

0101000
+31 4 -24 4 *
Ed
 1e-07 1 1 0
1  7 0 0 40
2  13 3 8 0 40
2  14 5 5 0 40
0

0101000
+30 8 -23 8 *
Wi

0101000
+29 0 -22 0 -21 3 +20 7 *
Fa
0  1e-07 3 0

0101000
+19 0 *
Ve
1.00000607514039e-07
-20 20 -9.85000000000061
0 0

0101101
*
Ve
1.00000607514039e-07
-20 10 -9.85000000000061
0 0

0101101
*
Ed
 1.00000607514039e-07 1 1 0
1  8 0 0 10
2  15 6 0 0 10
2  16 2 0 0 10
4 G1 6 0 2 0
0

0101000
+17 0 -16 0 *
Ed
 1e-07 1 1 0
1  9 0 0 14.85
2  17 6 4 0 14.85
2  18 4 5 0 14.85
0

0101000
+24 4 -17 4 *
Ed
 1e-07 1 1 0
1  10 0 0 14.85
2  19 6 8 0 14.85
2  20 5 5 0 14.85
0

0101000
+23 8 -16 8 *
Wi

0101000
+22 0 -15 0 -14 3 +13 7 *
Fa
0  1e-07 6 0

0101000
+12 0 *
Ed
 1e-07 1 1 0
1  11 0 3.14096112479958 6.2838168359698
2  21 2 4 3.14096112479958 6.2838168359698
2  22 4 5 3.14096112479958 6.2838168359698
0

0101000
+34 4 -17 4 *
Ed
 1e-07 1 1 0
1  12 0 3.14096112479958 6.2838168359698
2  23 2 8 3.14096112479958 6.2838168359698
2  24 5 5 3.14096112479958 6.2838168359698
0

0101000
+33 8 -16 8 *
Wi

0101000
+32 0 -15 0 -10 3 +9 7 *
Fa
0  1e-07 2 0

0101000
+8 0 *
Wi

0101100
+28 0 +21 0 +14 0 -10 0 *
Fa
0  1e-07 4 0

0101000
-6 1 *
Wi

0101100
+27 0 +20 0 +13 0 -9 0 *
Fa
0  1e-07 5 0

0101000
-4 1 *
Sh

0101000
-25 0 -18 0 -11 0 +7 0 +5 9 -3 10 *
So

1100000
+2 0 *

+1 0 