DBRep_DrawableShape

CASCADE Topology V1, (c) Matra-Datavision
Locations 5
1
              1               0               0               0 
              0               1               0               0 
              0               0               1               0 
2  1 -1 0
1
              1               0               0               0 
              0               1               0               0 
              0               0               1            2400 
2  3 -1 0
2  1 -1 3 -1 0
Curve2ds 24
1 0 0 0 -1 
1 0 -0 0 -1 
1 900 0 0 -1 
1 0 -0 0 -1 
1 0 0 1 0 
1 0 0 0 1 
1 0 -2400 1 0 
1 0 0 0 1 
1 100 0 0 -1 
1 0 0 0 -1 
1 0 -0 1 0 
1 0 0 1 0 
1 0 -2400 1 0 
1 0 0 1 0 
1 900 0 0 -1 
1 100 0 0 -1 
1 0 0 1 0 
1 100 0 0 1 
1 0 -2400 1 0 
1 100 0 0 1 
1 0 -0 1 0 
1 0 900 1 0 
1 0 -2400 1 0 
1 0 900 1 0 
Curves 12
1 14600 250 0 0 0 1 
1 14600 1150 0 0 0 1 
1 14600 250 0 0 1 0 
1 14600 250 0 0 1 0 
1 14500 250 0 0 0 1 
1 14600 250 0 -1 0 0 
1 14600 250 0 -1 0 0 
1 14500 1150 0 0 0 1 
1 14500 250 0 0 1 0 
1 14500 250 0 0 1 0 
1 14600 1150 0 -1 0 0 
1 14600 1150 0 -1 0 0 
Polygon3D 0
PolygonOnTriangulations 0
Surfaces 6
1 14600 250 0 -1 0 0 0 1 0 0 0 -1 
1 14600 250 0 0 -1 0 -1 0 0 -0 -0 -1 
1 14600 1150 0 0 -1 0 -1 0 0 -0 -0 -1 
1 14600 250 0 0 0 -1 -1 0 -0 0 1 0 
1 14600 250 0 0 0 -1 -1 0 -0 0 1 0 
1 14500 250 0 -1 0 0 0 1 0 0 0 -1 
Triangulations 0

TShapes 34
Ve
1.00005e-07
14600 250 0
0 0

0101101
*
Ve
1.00005e-07
14600 250 2400
0 0

0101101
*
Ed
 1.00005e-07 1 1 0
1  1 0 0 2400
2  1 1 0 0 2400
2  2 2 0 0 2400
0

0101000
+34 2 -33 2 *
Ve
1.00005e-07
14600 1150 0
0 0

0101101
*
Ve
1.00005e-07
14600 1150 2400
0 0

0101101
*
Ed
 1.00005e-07 1 1 0
1  2 0 0 2400
2  3 1 0 0 2400
2  4 3 0 0 2400
0

0101000
+31 2 -30 2 *
Ed
 1.00005e-07 1 1 0
1  3 0 0 900
2  5 1 0 0 900
2  6 4 0 0 900
0

0101000
+34 2 -31 2 *
Ed
 1.00005e-07 1 1 0
1  4 0 0 900
2  7 1 4 0 900
2  8 5 0 0 900
0

0101000
+33 5 -30 5 *
Wi

0101000
+32 0 -29 0 -28 0 +27 3 *
Fa
0  1.00005e-07 1 0

0101000
+26 0 *
Ve
1.00005e-07
14500 250 0
0 0

0101101
*
Ve
1.00005e-07
14500 250 2400
0 0

0101101
*
Ed
 1.00005e-07 1 1 0
1  5 0 0 2400
2  9 2 0 0 2400
2  10 6 0 0 2400
0

0101000
+24 2 -23 2 *
Ed
 1.00005e-07 1 1 0
1  6 0 0 100
2  11 2 0 0 100
2  12 4 0 0 100
0

0101000
+34 2 -24 2 *
Ed
 1.00005e-07 1 1 0
1  7 0 0 100
2  13 2 4 0 100
2  14 5 0 0 100
0

0101000
+33 5 -23 5 *
Wi

0101000
+32 0 -22 0 -21 0 +20 3 *
Fa
0  1.00005e-07 2 0

0101000
+19 0 *
Ve
1.00005e-07
14500 1150 0
0 0

0101101
*
Ve
1.00005e-07
14500 1150 2400
0 0

0101101
*
Ed
 1.00005e-07 1 1 0
1  8 0 0 2400
2  15 6 0 0 2400
2  16 3 0 0 2400
0

0101000
+17 2 -16 2 *
Ed
 1.00005e-07 1 1 0
1  9 0 0 900
2  17 6 0 0 900
2  18 4 0 0 900
0

0101000
+24 2 -17 2 *
Ed
 1.00005e-07 1 1 0
1  10 0 0 900
2  19 6 4 0 900
2  20 5 0 0 900
0

0101000
+23 5 -16 5 *
Wi

0101000
+22 0 -15 0 -14 0 +13 3 *
Fa
0  1.00005e-07 6 0

0101000
+12 0 *
Ed
 1.00005e-07 1 1 0
1  11 0 0 100
2  21 3 0 0 100
2  22 4 0 0 100
0

0101000
+31 2 -17 2 *
Ed
 1.00005e-07 1 1 0
1  12 0 0 100
2  23 3 4 0 100
2  24 5 0 0 100
0

0101000
+30 5 -16 5 *
Wi

0101000
+29 0 -15 0 -10 0 +9 3 *
Fa
0  1.00005e-07 3 0

0101000
+8 0 *
Wi

0101100
+28 0 -21 0 -14 0 +10 0 *
Fa
0  1e-07 4 0

0101000
-6 0 *
Wi

0101100
+27 0 -20 0 -13 0 +9 0 *
Fa
0  1e-07 5 0

0101000
-4 0 *
Sh

0101000
-25 0 +18 0 +11 0 -7 0 +5 0 -3 3 *
So

1100000
+2 0 *

+1 1 