DBRep_DrawableShape

CASCADE Topology V1, (c) Matra-Datavision
Locations 10
1
              1               0               0               0 
              0               1               0               0 
              0               0               1               0 
1
              1               0               0               0 
              0               1               0               0 
              0               0               1               0 
2  1 1 2 -1 0
2  2 1 1 -1 0
2  1 -1 0
1
              1               0               0              -0 
              0               1               0              -0 
              0               0               1              -3 
2  1 1 2 -1 6 1 0
2  6 -1 2 1 1 -1 0
2  2 -1 0
2  2 -1 6 1 0
Curve2ds 96
1 1.5707963267948966 0 0 -1 
1 1194 0 0 -1 
1 3.1415926535897931 0 0 -1 
1 0 0 0 -1 
1 0 0 1 0 
2 0 -19 -1 0 0 1 19
1 0 -3 1 0 
2 0 -19 -1 0 0 1 19
1 0 0 0 -1 
1 1.5707963267948966 0 0 -1 
1 0 0 1 0 
1 -1194 0 1 0 
1 0 -3 1 0 
1 -1194 0 1 0 
1 0 0 0 -1 
1 430 0 0 -1 
1 0 0 1 0 
2 -1194 -19 -1 0 0 1 19
1 0 -3 1 0 
2 -1194 -19 -1 0 0 1 19
1 0 0 0 -1 
1 6.2831853071795862 0 0 -1 
1 0 0 1 0 
1 -1213 -449 0 1 
1 0 -3 1 0 
1 -1213 -449 0 1 
1 4.7123889803846897 0 0 -1 
1 1194 0 0 -1 
1 0 0 1 0 
2 -1194 -449 -1 0 0 1 19
1 0 -3 1 0 
2 -1194 -449 -1 0 0 1 19
1 0 0 0 -1 
1 4.7123889803846897 0 0 -1 
1 0 0 1 0 
1 0 -468 -1 0 
1 0 -3 1 0 
1 0 -468 -1 0 
1 3.1415926535897931 0 0 -1 
1 430 0 0 -1 
1 0 0 1 0 
2 0 -449 -1 0 0 1 19
1 0 -3 1 0 
2 0 -449 -1 0 0 1 19
1 0 0 1 0 
1 19 -19 0 -1 
1 0 -3 1 0 
1 19 -19 0 -1 
1 1.5705647478463647 0 0 -1 
1 0 0 0 -1 
1 3.1415926804032916 0 0 -1 
1 -5.7411853049416095e-12 0 0 -1 
1 0 0 1 0 
2 -19.000000000005734 -37.999999490532048 -1 0 0 1 19
1 0 -3 1 0 
2 -19.000000000005734 -37.999999490532048 -1 0 0 1 19
1 392 0 0 -1 
1 3.1415926535897931 0 0 -1 
1 0 0 1 0 
1 -5.7411853049416095e-12 -38 0 -1 
1 0 -3 1 0 
1 -5.7411853049416095e-12 -38 0 -1 
1 4.7123889803846897 0 0 -1 
1 0 0 0 -1 
1 0 0 1 0 
2 -19 -430 -1 0 0 1 19
1 0 -3 1 0 
2 -19 -430 -1 0 0 1 19
1 1156 0 0 -1 
1 4.7123889803846897 0 0 -1 
1 0 0 1 0 
1 -19 -449 -1 0 
1 0 -3 1 0 
1 -19 -449 -1 0 
1 6.2831853071795862 0 0 -1 
1 392 0 0 -1 
1 0 0 1 0 
2 -1175 -430 -1 0 0 1 19
1 0 -3 1 0 
2 -1175 -430 -1 0 0 1 19
1 0 0 0 -1 
1 3.1578937391188729e-07 0 0 -1 
1 0 0 1 0 
1 -1194 -38 0 -1 
1 0 -3 1 0 
1 -1194 -38 0 -1 
1 1.570796011005521 0 0 -1 
1 1155.9956000000116 0 0 -1 
1 0 0 1 0 
2 -1174.999994 -38.000005999999985 -1 0 0 1 19.000005999999985
1 0 -3 1 0 
2 -1174.999994 -38.000005999999985 -1 0 0 1 19.000005999999985
1 0 0 1 0 
1 -19.004399999988514 -19.000000000005741 -1 0 
1 0 -3 1 0 
1 -19.004399999988514 -19.000000000005741 -1 0 
Curves 48
1 19 468 0 -0 -0 -1 
1 0 449 0 -0 -0 -1 
2 19 449 0 0 0 1 1 0 -0 -0 1 0 19
2 19 449 0 0 0 1 1 0 -0 -0 1 0 19
1 1213 468 0 -0 -0 -1 
1 1213 468 0 -1 0 0 
1 1213 468 0 -1 0 0 
1 1232 449 0 -0 -0 -1 
2 1213 449 0 0 0 1 1 0 -0 -0 1 0 19
2 1213 449 0 0 0 1 1 0 -0 -0 1 0 19
1 1232 18.999999999999996 0 -0 -0 -1 
1 1232 18.999999999999996 0 0 1 0 
1 1232 18.999999999999996 0 0 1 0 
1 1213 0 0 -0 -0 -1 
2 1213 19 0 0 0 1 1 0 -0 -0 1 0 19
2 1213 19 0 0 0 1 1 0 -0 -0 1 0 19
1 19 0 0 -0 -0 -1 
1 19 0 0 1 0 0 
1 19 0 0 1 0 0 
1 0 19 0 -0 -0 -1 
2 19 19 0 0 0 1 1 0 -0 -0 1 0 19
2 19 19 0 0 0 1 1 0 -0 -0 1 0 19
1 0 449 0 0 -1 0 
1 0 449 0 0 -1 0 
1 38.004399999988514 448.99999999999426 0 -0 -0 -1 
1 19.000000000005741 430.00000000000574 0 -0 -0 -1 
2 38.000000000005734 430.00000050946795 0 0 0 1 1 0 -0 -0 1 0 19
2 38.000000000005734 430.00000050946795 0 0 0 1 1 0 -0 -0 1 0 19
1 19.000000000002871 38 0 -0 -0 -1 
1 19.000000000005741 430 0 0 -1 0 
1 19.000000000005741 430 0 0 -1 0 
1 38 19 0 -0 -0 -1 
2 38 38 0 0 0 1 1 0 -0 -0 1 0 19
2 38 38 0 0 0 1 1 0 -0 -0 1 0 19
1 1194 19 0 -0 -0 -1 
1 38 19 0 1 0 0 
1 38 19 0 1 0 0 
1 1213 38 0 -0 -0 -1 
2 1194 38 0 0 0 1 1 0 -0 -0 1 0 19
2 1194 38 0 0 0 1 1 0 -0 -0 1 0 19
1 1212.9999999999995 430 0 -0 -0 -1 
1 1213 430 0 0 -1 0 
1 1213 430 0 0 -1 0 
1 1194 448.9999999999967 0 -0 -0 -1 
2 1193.999994 429.99999400000002 0 0 0 1 1 0 -0 -0 1 0 19.000005999999999
2 1193.999994 429.99999400000002 0 0 0 1 1 0 -0 -0 1 0 19.000005999999999
1 38.004399999988514 448.99999999999426 0 1 0 0 
1 38.004399999988514 448.99999999999426 0 1 0 0 
Polygon3D 0
PolygonOnTriangulations 0
Surfaces 18
2 19 449 0 0 0 1 1 0 -0 -0 1 0 19
1 1213 468 0 0 1 -0 -1 0 0 0 0 1 
1 0 449 0 -1 0 0 0 -1 0 0 0 1 
1 19 468 0 0 0 -1 -1 0 -0 0 1 0 
1 19 468 0 0 0 -1 -1 0 -0 0 1 0 
2 1213 449 0 0 0 1 1 0 -0 -0 1 0 19
1 1232 18.999999999999996 0 1 0 0 -0 1 0 0 -0 1 
2 1213 19 0 0 0 1 1 0 -0 -0 1 0 19
1 19 0 0 0 -1 0 1 0 0 -0 0 1 
2 19 19 0 0 0 1 1 0 -0 -0 1 0 19
2 38.000000000005734 430.00000050946795 0 0 0 1 1 0 -0 -0 1 0 19
1 38.004399999988514 448.99999999999426 0 0 -1 0 1 0 0 -0 0 1 
1 19.000000000005741 430 0 -1 0 0 0 -1 0 0 0 1 
2 38 38 0 0 0 1 1 0 -0 -0 1 0 19
1 38 19 0 0 -1 0 1 0 0 -0 0 1 
2 1194 38 0 0 0 1 1 0 -0 -0 1 0 19
1 1213 430 0 -1 0 0 0 -1 0 0 0 1 
2 1193.999994 429.99999400000002 0 0 0 1 1 0 -0 -0 1 0 19.000005999999999
Triangulations 0

TShapes 120
Ve
1e-07
19 468 0
0 0

0101101
*
Ve
1e-07
19 468 -3
0 0

0101101
*
Ed
 1e-07 1 1 0
1  1 0 0 3
2  1 1 0 0 3
2  2 2 0 0 3
4 G1 1 0 2 0
0

0101000
+120 0 -119 0 *
Ve
1e-07
0 449 0
0 0

0101101
*
Ve
1e-07
0 449 -3
0 0

0101101
*
Ed
 1e-07 1 1 0
1  2 0 0 3
2  3 1 0 0 3
2  4 3 0 0 3
4 G1 1 0 3 0
0

0101000
+117 0 -116 0 *
Ed
 1e-07 1 1 0
1  3 0 1.5707963267949 3.14159265358979
2  5 1 4 1.5707963267949 3.14159265358979
2  6 4 5 1.5707963267949 3.14159265358979
0

0101000
+120 4 -117 4 *
Ed
 1e-07 1 1 0
1  4 0 1.5707963267949 3.14159265358979
2  7 1 8 1.5707963267949 3.14159265358979
2  8 5 5 1.5707963267949 3.14159265358979
0

0101000
+119 8 -116 8 *
Wi

0101000
+118 0 -115 0 -114 3 +113 7 *
Fa
0  1e-07 1 0

0101000
+112 0 *
Ve
1e-07
1213 468 0
0 0

0101101
*
Ve
1e-07
1213 468 -3
0 0

0101101
*
Ed
 1e-07 1 1 0
1  5 0 0 3
2  9 2 0 0 3
2  10 6 0 0 3
4 G1 2 0 6 0
0

0101000
+110 0 -109 0 *
Ed
 1e-07 1 1 0
1  6 0 0 1194
2  11 2 4 0 1194
2  12 4 5 0 1194
0

0101000
+110 4 -120 4 *
Ed
 1e-07 1 1 0
1  7 0 0 1194
2  13 2 8 0 1194
2  14 5 5 0 1194
0

0101000
+109 8 -119 8 *
Wi

0101000
+108 0 -118 0 -107 3 +106 7 *
Fa
0  1e-07 2 0

0101000
+105 0 *
Ve
1e-07
1232 449 0
0 0

0101101
*
Ve
1e-07
1232 449 -3
0 0

0101101
*
Ed
 1e-07 1 1 0
1  8 0 0 3
2  15 6 0 0 3
2  16 7 0 0 3
4 G1 6 0 7 0
0

0101000
+103 0 -102 0 *
Ed
 1e-07 1 1 0
1  9 0 0 1.5707963267949
2  17 6 4 0 1.5707963267949
2  18 4 5 0 1.5707963267949
0

0101000
+103 4 -110 4 *
Ed
 1e-07 1 1 0
1  10 0 0 1.5707963267949
2  19 6 8 0 1.5707963267949
2  20 5 5 0 1.5707963267949
0

0101000
+102 8 -109 8 *
Wi

0101000
+101 0 -108 0 -100 3 +99 7 *
Fa
0  1e-07 6 0

0101000
+98 0 *
Ve
1e-07
1232 19 0
0 0

0101101
*
Ve
1e-07
1232 19 -3
0 0

0101101
*
Ed
 1e-07 1 1 0
1  11 0 0 3
2  21 7 0 0 3
2  22 8 0 0 3
4 G1 7 0 8 0
0

0101000
+96 0 -95 0 *
Ed
 1e-07 1 1 0
1  12 0 0 430
2  23 7 4 0 430
2  24 4 5 0 430
0

0101000
+96 4 -103 4 *
Ed
 1e-07 1 1 0
1  13 0 0 430
2  25 7 8 0 430
2  26 5 5 0 430
0

0101000
+95 8 -102 8 *
Wi

0101000
+94 0 -101 0 -93 3 +92 7 *
Fa
0  1e-07 7 0

0101000
+91 0 *
Ve
1e-07
1213 0 0
0 0

0101101
*
Ve
1e-07
1213 0 -3
0 0

0101101
*
Ed
 1e-07 1 1 0
1  14 0 0 3
2  27 8 0 0 3
2  28 9 0 0 3
4 G1 8 0 9 0
0

0101000
+89 0 -88 0 *
Ed
 1e-07 1 1 0
1  15 0 4.71238898038469 6.28318530717959
2  29 8 4 4.71238898038469 6.28318530717959
2  30 4 5 4.71238898038469 6.28318530717959
0

0101000
+89 4 -96 4 *
Ed
 1e-07 1 1 0
1  16 0 4.71238898038469 6.28318530717959
2  31 8 8 4.71238898038469 6.28318530717959
2  32 5 5 4.71238898038469 6.28318530717959
0

0101000
+88 8 -95 8 *
Wi

0101000
+87 0 -94 0 -86 3 +85 7 *
Fa
0  1e-07 8 0

0101000
+84 0 *
Ve
1.00000001776357e-07
19 0 0
0 0

0101101
*
Ve
1.00000001776357e-07
19 0 -3
0 0

0101101
*
Ed
 1.00000001776357e-07 1 1 0
1  17 0 0 3
2  33 9 0 0 3
2  34 10 0 0 3
4 G1 9 0 10 0
0

0101000
+82 0 -81 0 *
Ed
 1e-07 1 1 0
1  18 0 0 1194
2  35 9 4 0 1194
2  36 4 5 0 1194
0

0101000
+82 4 -89 4 *
Ed
 1e-07 1 1 0
1  19 0 0 1194
2  37 9 8 0 1194
2  38 5 5 0 1194
0

0101000
+81 8 -88 8 *
Wi

0101000
+80 0 -87 0 -79 3 +78 7 *
Fa
0  1e-07 9 0

0101000
+77 0 *
Ve
1.00000001776357e-07
0 19 0
0 0

0101101
*
Ve
1.00000001776357e-07
0 19 -3
0 0

0101101
*
Ed
 1.00000001776357e-07 1 1 0
1  20 0 0 3
2  39 10 0 0 3
2  40 3 0 0 3
4 G1 10 0 3 0
0

0101000
+75 0 -74 0 *
Ed
 1e-07 1 1 0
1  21 0 3.14159265358979 4.71238898038469
2  41 10 4 3.14159265358979 4.71238898038469
2  42 4 5 3.14159265358979 4.71238898038469
0

0101000
+75 4 -82 4 *
Ed
 1e-07 1 1 0
1  22 0 3.14159265358979 4.71238898038469
2  43 10 8 3.14159265358979 4.71238898038469
2  44 5 5 3.14159265358979 4.71238898038469
0

0101000
+74 8 -81 8 *
Wi

0101000
+73 0 -80 0 -72 3 +71 7 *
Fa
0  1e-07 10 0

0101000
+70 0 *
Ed
 1e-07 1 1 0
1  23 0 0 430
2  45 3 4 0 430
2  46 4 5 0 430
0

0101000
+117 4 -75 4 *
Ed
 1e-07 1 1 0
1  24 0 0 430
2  47 3 8 0 430
2  48 5 5 0 430
0

0101000
+116 8 -74 8 *
Wi

0101000
+115 0 -73 0 -68 3 +67 7 *
Fa
0  1e-07 3 0

0101000
+66 0 *
Ve
1e-07
38.0043999999885 448.999999999994 0
0 0

0101101
*
Ve
1e-07
38.0043999999885 448.999999999994 -3
0 0

0101101
*
Ed
 1e-07 1 1 0
1  25 0 0 3
2  49 11 0 0 3
2  50 12 0 0 3
4 G1 11 0 12 0
0

0101000
+64 0 -63 0 *
Ve
1.00005741185305e-07
19.0000000000057 430.000000000006 0
0 0

0101101
*
Ve
1.00005741185305e-07
19.0000000000057 430.000000000006 -3
0 0

0101101
*
Ed
 1.00005741185305e-07 1 1 0
1  26 0 0 3
2  51 11 0 0 3
2  52 13 0 0 3
4 G1 11 0 13 0
0

0101000
+61 0 -60 0 *
Ed
 1e-07 1 1 0
1  27 0 1.57056474784636 3.14159268040329
2  53 11 4 1.57056474784636 3.14159268040329
2  54 4 5 1.57056474784636 3.14159268040329
0

0101000
+64 4 -61 4 *
Ed
 1e-07 1 1 0
1  28 0 1.57056474784636 3.14159268040329
2  55 11 8 1.57056474784636 3.14159268040329
2  56 5 5 1.57056474784636 3.14159268040329
0

0101000
+63 8 -60 8 *
Wi

0101000
+62 0 -59 0 -58 3 +57 7 *
Fa
0  1e-07 11 0

0101000
+56 0 *
Ve
1.00002870592652e-07
19.0000000000029 38 0
0 0

0101101
*
Ve
1.00002870592652e-07
19.0000000000029 38 -3
0 0

0101101
*
Ed
 1.00002870592652e-07 1 1 0
1  29 0 0 3
2  57 13 0 0 3
2  58 14 0 0 3
4 G1 13 0 14 0
0

0101000
+54 0 -53 0 *
Ed
 1e-07 1 1 0
1  30 0 0 392
2  59 13 4 0 392
2  60 4 5 0 392
0

0101000
+61 4 -54 4 *
Ed
 1e-07 1 1 0
1  31 0 0 392
2  61 13 8 0 392
2  62 5 5 0 392
0

0101000
+60 8 -53 8 *
Wi

0101000
+59 0 -52 0 -51 3 +50 7 *
Fa
0  1e-07 13 0

0101000
+49 0 *
Ve
1e-07
38 19 0
0 0

0101101
*
Ve
1e-07
38 19 -3
0 0

0101101
*
Ed
 1e-07 1 1 0
1  32 0 0 3
2  63 14 0 0 3
2  64 15 0 0 3
4 G1 14 0 15 0
0

0101000
+47 0 -46 0 *
Ed
 1e-07 1 1 0
1  33 0 3.14159265358979 4.71238898038469
2  65 14 4 3.14159265358979 4.71238898038469
2  66 4 5 3.14159265358979 4.71238898038469
0

0101000
+54 4 -47 4 *
Ed
 1e-07 1 1 0
1  34 0 3.14159265358979 4.71238898038469
2  67 14 8 3.14159265358979 4.71238898038469
2  68 5 5 3.14159265358979 4.71238898038469
0

0101000
+53 8 -46 8 *
Wi

0101000
+52 0 -45 0 -44 3 +43 7 *
Fa
0  1e-07 14 0

0101000
+42 0 *
Ve
1e-07
1194 19 0
0 0

0101101
*
Ve
1e-07
1194 19 -3
0 0

0101101
*
Ed
 1e-07 1 1 0
1  35 0 0 3
2  69 15 0 0 3
2  70 16 0 0 3
4 G1 15 0 16 0
0

0101000
+40 0 -39 0 *
Ed
 1e-07 1 1 0
1  36 0 0 1156
2  71 15 4 0 1156
2  72 4 5 0 1156
0

0101000
+47 4 -40 4 *
Ed
 1e-07 1 1 0
1  37 0 0 1156
2  73 15 8 0 1156
2  74 5 5 0 1156
0

0101000
+46 8 -39 8 *
Wi

0101000
+45 0 -38 0 -37 3 +36 7 *
Fa
0  1e-07 15 0

0101000
+35 0 *
Ve
1.00000003552714e-07
1213 38 0
0 0

0101101
*
Ve
1.00000003552714e-07
1213 38 -3
0 0

0101101
*
Ed
 1.00000003552714e-07 1 1 0
1  38 0 0 3
2  75 16 0 0 3
2  76 17 0 0 3
4 G1 16 0 17 0
0

0101000
+33 0 -32 0 *
Ed
 1e-07 1 1 0
1  39 0 4.71238898038469 6.28318530717959
2  77 16 4 4.71238898038469 6.28318530717959
2  78 4 5 4.71238898038469 6.28318530717959
0

0101000
+40 4 -33 4 *
Ed
 1e-07 1 1 0
1  40 0 4.71238898038469 6.28318530717959
2  79 16 8 4.71238898038469 6.28318530717959
2  80 5 5 4.71238898038469 6.28318530717959
0

0101000
+39 8 -32 8 *
Wi

0101000
+38 0 -31 0 -30 3 +29 7 *
Fa
0  1e-07 16 0

0101000
+28 0 *
Ve
1.00000454747351e-07
1213 430 0
0 0

0101101
*
Ve
1.00000454747351e-07
1213 430 -3
0 0

0101101
*
Ed
 1.00000454747351e-07 1 1 0
1  41 0 0 3
2  81 17 0 0 3
2  82 18 0 0 3
4 G1 17 0 18 0
0

0101000
+26 0 -25 0 *
Ed
 1e-07 1 1 0
1  42 0 0 392
2  83 17 4 0 392
2  84 4 5 0 392
0

0101000
+26 4 -33 4 *
Ed
 1e-07 1 1 0
1  43 0 0 392
2  85 17 8 0 392
2  86 5 5 0 392
0

0101000
+25 8 -32 8 *
Wi

0101000
+24 0 -31 0 -23 3 +22 7 *
Fa
0  1e-07 17 0

0101000
+21 0 *
Ve
1.00002415845302e-07
1194 448.999999999997 0
0 0

0101101
*
Ve
1.00002415845302e-07
1194 448.999999999997 -3
0 0

0101101
*
Ed
 1.00002415845302e-07 1 1 0
1  44 0 0 3
2  87 18 0 0 3
2  88 12 0 0 3
4 G1 18 0 12 0
0

0101000
+19 0 -18 0 *
Ed
 1e-07 1 1 0
1  45 0 3.15789373911887e-07 1.57079601100552
2  89 18 4 3.15789373911887e-07 1.57079601100552
2  90 4 5 3.15789373911887e-07 1.57079601100552
0

0101000
+26 4 -19 4 *
Ed
 1e-07 1 1 0
1  46 0 3.15789373911887e-07 1.57079601100552
2  91 18 8 3.15789373911887e-07 1.57079601100552
2  92 5 5 3.15789373911887e-07 1.57079601100552
0

0101000
+25 8 -18 8 *
Wi

0101000
+24 0 -17 0 -16 3 +15 7 *
Fa
0  1e-07 18 0

0101000
+14 0 *
Ed
 1e-07 1 1 0
1  47 0 0 1155.99560000001
2  93 12 4 0 1155.99560000001
2  94 4 5 0 1155.99560000001
0

0101000
+64 4 -19 4 *
Ed
 1e-07 1 1 0
1  48 0 0 1155.99560000001
2  95 12 8 0 1155.99560000001
2  96 5 5 0 1155.99560000001
0

0101000
+63 8 -18 8 *
Wi

0101000
+62 0 -17 0 -12 3 +11 7 *
Fa
0  1e-07 12 0

0101000
+10 0 *
Wi

0101100
-114 1 -107 1 -100 1 -93 1 -86 1 -79 1 -72 1 -68 1 *
Wi

0101100
+58 1 +51 1 +44 1 +37 1 +30 1 -23 1 +16 1 -12 1 *
Fa
0  1e-07 4 0

0101000
+8 0 +7 0 *
Wi

0101100
-113 1 -106 1 -99 1 -92 1 -85 1 -78 1 -71 1 -67 1 *
Wi

0101100
+57 1 +50 1 +43 1 +36 1 +29 1 -22 1 +15 1 -11 1 *
Fa
0  1e-07 5 0

0101000
+5 0 +4 0 *
Sh

0101000
-111 0 -104 0 -97 0 -90 0 -83 0 -76 0 -69 0 -65 0 +55 0 +48 0 
+41 0 +34 0 +27 0 -20 0 +13 0 -9 0 +6 9 -3 10 *
So

1100000
-2 0 *

+1 0 