DBRep_DrawableShape

CASCADE Topology V1, (c) Matra-Datavision
Locations 10
1
              1              -0               0               0 
              0 -1.36717893950422e-16               1              20 
             -0              -1 -1.36717893950422e-16              -0 
1
              1               0               0               0 
              0              -1 -1.22464679914735e-16               0 
              0 1.22464679914735e-16              -1               0 
2  1 1 2 -1 0
2  2 1 1 -1 0
2  1 -1 0
1
              1               0               0              -0 
              0               1               0           10000 
              0               0               1 1.22464679914735e-12 
2  1 1 2 -1 6 1 0
2  6 -1 2 1 1 -1 0
2  2 -1 0
2  2 -1 6 1 0
Curve2ds 6
1 0 0 0 -1 
1 6.2831853071795862 0 0 -1 
1 0 0 1 0 
2 0 -12.5 0 1 1 -0 12.500000000000004
1 0 -10000 1 0 
2 0 -12.5 0 1 1 -0 12.500000000000004
Curves 3
1 12.5 -20 -2.4492935982947065e-15 -0 1 1.2246467991473532e-16 
2 0 0 0 0 0 1 1 0 -0 -0 1 0 12.5
2 0 0 0 0 0 1 1 0 -0 -0 1 0 12.5
Polygon3D 0
PolygonOnTriangulations 0
Surfaces 3
2 0 -20 -2.4492935982947065e-15 0 -1 1.4253214035686764e-17 1 0 0 0 1.4253214035686764e-17 1 12.500000000000004
1 12.5 20 -0 -0 -1 0 0 -0 -1 1 0 0 
1 12.5 20 -0 -0 -1 0 0 -0 -1 1 0 0 
Triangulations 0

TShapes 13
Ve
1.00000001776357e-07
12.5 -20 -2.44929359829471e-15
0 0

0101101
*
Ve
1.00000001776357e-07
12.5 9980 1.22219750554906e-12
0 0

0101101
*
Ed
 1e-07 1 1 0
1  1 0 0 10000
3  1 2CN 1 0 0 10000
0

0101000
+13 0 -12 0 *
Ed
 1e-07 1 1 0
1  2 0 0 6.28318530717959
2  3 1 4 0 6.28318530717959
2  4 2 5 0 6.28318530717959
0

0101100
+13 4 -13 4 *
Ed
 1e-07 1 1 0
1  3 0 0 6.28318530717959
2  5 1 8 0 6.28318530717959
2  6 3 5 0 6.28318530717959
0

0101100
+12 8 -12 8 *
Wi

0101000
+11 0 -11 0 -10 3 +9 7 *
Fa
0  1e-07 1 0

0101000
+8 0 *
Wi

0101100
+10 0 *
Fa
0  1e-07 2 0

0101000
-6 1 *
Wi

0101100
+9 0 *
Fa
0  1e-07 3 0

0101000
-4 1 *
Sh

0101000
-7 0 +5 9 -3 10 *
So

1100000
-2 0 *

+1 0 