DBRep_DrawableShape

CASCADE Topology V1, (c) Matra-Datavision
Locations 10
1
-2.22044604925031e-016 -1.11022302462516e-016               1            12.7 
              1 -2.22044604925031e-016 1.11022302462516e-016              -0 
1.11022302462516e-016               1               0 1.40998324127395e-015 
1
              0 1.11022302462516e-016               1               0 
              1               0 1.11022302462516e-016               0 
1.11022302462516e-016               1               0               0 
2  1 1 2 -1 0
2  2 1 1 -1 0
2  1 -1 0
1
              1               0               0 -1.11022302462516e-012 
              0               1               0 -2.22044604925031e-012 
              0               0               1          -10000 
2  1 1 2 -1 6 1 0
2  6 -1 2 1 1 -1 0
2  2 -1 0
2  2 -1 6 1 0
Curve2ds 30
1 0 0 0 -1 
1 6.2831853071795862 0 0 -1 
1 0 0 1 0 
2 8.9999999999999982 -9.9920072216264069e-016 -1 2.2204460492503128e-016 2.2204460492503128e-016 1 8.9999999999999982
1 0 -10000 1 0 
2 8.9999999999999964 -9.9920072216264029e-016 -1 2.2204460492503128e-016 2.2204460492503128e-016 1 9
1 0 0 0 -1 
1 6.2831853071795862 0 0 -1 
1 0 0 1 0 
2 8.9999999999999982 -2.7755575615628914e-015 -1 2.2204460492503128e-016 2.2204460492503128e-016 1 9
1 0 -10000 1 0 
2 8.9999999999999982 -2.775557561562891e-015 -1 2.2204460492503128e-016 2.2204460492503128e-016 1 9
1 0 0 0 -1 
1 6.2831853071795862 0 0 -1 
1 0 0 1 0 
2 9 -2.7755575615628917e-015 -1 2.2204460492503128e-016 2.2204460492503128e-016 1 9
1 0 -10000 1 0 
2 9 -2.7755575615628914e-015 -1 2.2204460492503128e-016 2.2204460492503128e-016 1 9
1 0 0 0 -1 
1 6.2831853071795862 0 0 -1 
1 0 0 1 0 
2 8.9999999999999947 -9.9920072216264049e-016 -1 2.2204460492503126e-016 2.2204460492503126e-016 1 9.0000000000000018
1 0 -10000 1 0 
2 8.9999999999999929 -9.992007221626399e-016 -1 2.2204460492503126e-016 2.2204460492503126e-016 1 9
1 0 0 0 -1 
1 6.2831853071795862 0 0 -1 
1 0 0 1 0 
2 6.994405055138489e-016 3.1499999999999995 -2.2204460492503131e-016 -1 -1 2.2204460492503131e-016 3.1499999999999999
1 0 -10000 1 0 
2 6.9944050551360632e-016 3.1499999999999995 -2.2204460492503131e-016 -1 -1 2.2204460492503131e-016 3.1499999999999999
Curves 15
1 21.899999999999999 -12.899999999999993 12.699999999999985 -1.1102230246251568e-016 -2.2204460492503136e-016 -1 
2 12.9 -12.9 0 0 0 1 1 0 -0 -0 1 0 9
2 12.9 -12.9 0 0 0 1 1 0 -0 -0 1 0 9
1 -3.8999999999999986 -12.899999999999995 12.699999999999989 -1.1102230246251568e-016 -2.2204460492503136e-016 -1 
2 -12.9 -12.9 0 0 0 1 1 0 -0 -0 1 0 9
2 -12.9 -12.9 0 0 0 1 1 0 -0 -0 1 0 9
1 -3.9000000000000012 12.900000000000002 12.699999999999987 -1.1102230246251568e-016 -2.2204460492503136e-016 -1 
2 -12.9 12.9 0 0 0 1 1 0 -0 -0 1 0 9
2 -12.9 12.9 0 0 0 1 1 0 -0 -0 1 0 9
1 21.899999999999991 12.900000000000004 12.699999999999982 -1.1102230246251568e-016 -2.2204460492503136e-016 -1 
2 12.9 12.9 0 0 0 1 1 0 -0 -0 1 0 9
2 12.9 12.9 0 0 0 1 1 0 -0 -0 1 0 9
1 3.1499999999999995 3.1696867353048196e-015 12.699999999999987 -1.1102230246251568e-016 -2.2204460492503136e-016 -1 
2 0 0 0 0 0 1 1 0 -0 -0 1 0 3.1499999999999999
2 0 0 0 0 0 1 1 0 -0 -0 1 0 3.1499999999999999
Polygon3D 0
PolygonOnTriangulations 0
Surfaces 15
2 12.9 -12.899999999999993 12.699999999999987 1.1102230246251563e-016 1.1102230246251568e-016 1 1 1.1102230246251563e-016 -1.1102230246251564e-016 -1.1102230246251564e-016 1 -1.1102230246251568e-016 9
1 12.699999999999985 21.900000000000002 -12.899999999999997 -1 -1.9737298215558337e-016 -1.1395334437828523e-016 1.9737298215558337e-016 -1 0 -1.1395334437828523e-016 -2.2491311406544339e-032 1 
1 12.699999999999985 21.900000000000002 -12.899999999999997 -1 -1.9737298215558337e-016 -1.1395334437828523e-016 1.9737298215558337e-016 -1 0 -1.1395334437828523e-016 -2.2491311406544339e-032 1 
2 -12.899999999999997 -12.899999999999997 12.69999999999999 1.1102230246251563e-016 1.1102230246251568e-016 1 1 1.1102230246251563e-016 -1.1102230246251564e-016 -1.1102230246251564e-016 1 -1.1102230246251568e-016 9
1 12.69999999999999 -3.8999999999999977 -12.899999999999999 -1 -1.9737298215558332e-016 -1.1395334437828521e-016 1.9737298215558332e-016 -1 0 -1.1395334437828521e-016 -2.2491311406544328e-032 1 
1 12.69999999999999 -3.8999999999999977 -12.899999999999999 -1 -1.9737298215558332e-016 -1.1395334437828521e-016 1.9737298215558332e-016 -1 0 -1.1395334437828521e-016 -2.2491311406544328e-032 1 
2 -12.9 12.9 12.699999999999987 1.1102230246251563e-016 1.1102230246251568e-016 1 1 1.1102230246251563e-016 -1.1102230246251564e-016 -1.1102230246251564e-016 1 -1.1102230246251568e-016 9
1 12.699999999999989 -3.900000000000003 12.900000000000002 -1 -1.9737298215558335e-016 -1.1395334437828528e-016 1.9737298215558335e-016 -1 0 -1.1395334437828528e-016 -2.2491311406544344e-032 1 
1 12.699999999999989 -3.900000000000003 12.900000000000002 -1 -1.9737298215558335e-016 -1.1395334437828528e-016 1.9737298215558335e-016 -1 0 -1.1395334437828528e-016 -2.2491311406544344e-032 1 
2 12.899999999999997 12.900000000000004 12.699999999999983 1.1102230246251563e-016 1.1102230246251568e-016 1 1 1.1102230246251563e-016 -1.1102230246251564e-016 -1.1102230246251564e-016 1 -1.1102230246251568e-016 9
1 12.699999999999982 21.899999999999995 12.900000000000004 -1 -3.2895497025930572e-016 -1.1395334437828526e-016 3.2895497025930572e-016 -1 0 -1.1395334437828526e-016 -3.7485519010907248e-032 1 
1 12.699999999999982 21.899999999999995 12.900000000000004 -1 -3.2895497025930572e-016 -1.1395334437828526e-016 3.2895497025930572e-016 -1 0 -1.1395334437828526e-016 -3.7485519010907248e-032 1 
2 1.5653958587979443e-031 2.8199664825478951e-015 12.699999999999987 1.1102230246251563e-016 1.1102230246251568e-016 1 1 1.1102230246251563e-016 -1.1102230246251564e-016 -1.1102230246251564e-016 1 -1.1102230246251568e-016 3.1499999999999999
1 12.699999999999989 3.1499999999999999 1.7597034940308723e-015 -1 -0 0 -0 0 -1 0 -1 -0 
1 12.699999999999989 3.1499999999999999 1.7597034940308723e-015 -1 -0 0 -0 0 -1 0 -1 -0 
Triangulations 0

TShapes 66
Ve
1e-007
21.9 -12.9 12.7
0 0

0101101
*
Ve
1e-007
21.8999999999989 -12.9000000000022 -9987.3
0 0

0101101
*
Ed
 1e-007 1 1 0
1  1 0 0 10000
3  1 2CN 1 0 0 10000
0

0101000
+66 0 -65 0 *
Ed
 1e-007 1 1 0
1  2 0 0 6.28318530717959
2  3 1 4 0 6.28318530717959
2  4 2 5 0 6.28318530717959
0

0101100
+66 4 -66 4 *
Ed
 1e-007 1 1 0
1  3 0 0 6.28318530717959
2  5 1 8 0 6.28318530717959
2  6 3 5 0 6.28318530717959
0

0101100
+65 8 -65 8 *
Wi

0101000
+64 0 -64 0 -63 3 +62 7 *
Fa
0  1e-007 1 0

0101000
+61 0 *
Wi

0101100
+63 0 *
Fa
0  1e-007 2 0

0101000
-59 1 *
Wi

0101100
+62 0 *
Fa
0  1e-007 3 0

0101000
-57 1 *
Sh

0101000
-60 0 +58 9 -56 10 *
So

0100000
-55 0 *
Ve
1e-007
-3.9 -12.9 12.7
0 0

0101101
*
Ve
1e-007
-3.90000000000111 -12.9000000000022 -9987.3
0 0

0101101
*
Ed
 1e-007 1 1 0
1  4 0 0 10000
3  7 8CN 4 0 0 10000
0

0101000
+53 0 -52 0 *
Ed
 1e-007 1 1 0
1  5 0 0 6.28318530717959
2  9 4 4 0 6.28318530717959
2  10 5 5 0 6.28318530717959
0

0101100
+53 4 -53 4 *
Ed
 1e-007 1 1 0
1  6 0 0 6.28318530717959
2  11 4 8 0 6.28318530717959
2  12 6 5 0 6.28318530717959
0

0101100
+52 8 -52 8 *
Wi

0101000
+51 0 -51 0 -50 3 +49 7 *
Fa
0  1e-007 4 0

0101000
+48 0 *
Wi

0101100
+50 0 *
Fa
0  1e-007 5 0

0101000
-46 1 *
Wi

0101100
+49 0 *
Fa
0  1e-007 6 0

0101000
-44 1 *
Sh

0101000
-47 0 +45 9 -43 10 *
So

0100000
-42 0 *
Ve
1e-007
-3.9 12.9 12.7
0 0

0101101
*
Ve
1e-007
-3.90000000000111 12.8999999999978 -9987.3
0 0

0101101
*
Ed
 1e-007 1 1 0
1  7 0 0 10000
3  13 14CN 7 0 0 10000
0

0101000
+40 0 -39 0 *
Ed
 1e-007 1 1 0
1  8 0 0 6.28318530717959
2  15 7 4 0 6.28318530717959
2  16 8 5 0 6.28318530717959
0

0101100
+40 4 -40 4 *
Ed
 1e-007 1 1 0
1  9 0 0 6.28318530717959
2  17 7 8 0 6.28318530717959
2  18 9 5 0 6.28318530717959
0

0101100
+39 8 -39 8 *
Wi

0101000
+38 0 -38 0 -37 3 +36 7 *
Fa
0  1e-007 7 0

0101000
+35 0 *
Wi

0101100
+37 0 *
Fa
0  1e-007 8 0

0101000
-33 1 *
Wi

0101100
+36 0 *
Fa
0  1e-007 9 0

0101000
-31 1 *
Sh

0101000
-34 0 +32 9 -30 10 *
So

0100000
-29 0 *
Ve
1e-007
21.9 12.9 12.7
0 0

0101101
*
Ve
1e-007
21.8999999999989 12.8999999999978 -9987.3
0 0

0101101
*
Ed
 1e-007 1 1 0
1  10 0 0 10000
3  19 20CN 10 0 0 10000
0

0101000
+27 0 -26 0 *
Ed
 1e-007 1 1 0
1  11 0 0 6.28318530717959
2  21 10 4 0 6.28318530717959
2  22 11 5 0 6.28318530717959
0

0101100
+27 4 -27 4 *
Ed
 1e-007 1 1 0
1  12 0 0 6.28318530717959
2  23 10 8 0 6.28318530717959
2  24 12 5 0 6.28318530717959
0

0101100
+26 8 -26 8 *
Wi

0101000
+25 0 -25 0 -24 3 +23 7 *
Fa
0  1e-007 10 0

0101000
+22 0 *
Wi

0101100
+24 0 *
Fa
0  1e-007 11 0

0101000
-20 1 *
Wi

0101100
+23 0 *
Fa
0  1e-007 12 0

0101000
-18 1 *
Sh

0101000
-21 0 +19 9 -17 10 *
So

0100000
-16 0 *
Ve
1e-007
3.15 3.16968673530482e-015 12.7
0 0

0101101
*
Ve
1e-007
3.14999999999889 -2.21727636251501e-012 -9987.3
0 0

0101101
*
Ed
 1e-007 1 1 0
1  13 0 0 10000
3  25 26CN 13 0 0 10000
0

0101000
+14 0 -13 0 *
Ed
 1e-007 1 1 0
1  14 0 0 6.28318530717959
2  27 13 4 0 6.28318530717959
2  28 14 5 0 6.28318530717959
0

0101100
+14 4 -14 4 *
Ed
 1e-007 1 1 0
1  15 0 0 6.28318530717959
2  29 13 8 0 6.28318530717959
2  30 15 5 0 6.28318530717959
0

0101100
+13 8 -13 8 *
Wi

0101000
+12 0 -12 0 -11 3 +10 7 *
Fa
0  1e-007 13 0

0101000
+9 0 *
Wi

0101100
+11 0 *
Fa
0  1e-007 14 0

0101000
-7 1 *
Wi

0101100
+10 0 *
Fa
0  1e-007 15 0

0101000
-5 1 *
Sh

0101000
-8 0 +6 9 -4 10 *
So

0100000
-3 0 *
Co

1100000
+54 0 +41 0 +28 0 +15 0 +2 0 *

+1 0 