DBRep_DrawableShape

CASCADE Topology V1, (c) Matra-Datavision
Locations 61
1
              0               0               1               0 
              1               0               0               0 
              0               1               0               0 
1
              0               0               1               0 
              1               0               0               0 
              0               1               0               0 
1
              0 1.11022302462516e-016               1               0 
              1               0 1.11022302462516e-016               0 
1.11022302462516e-016               1               0               0 
1
              0               0               1               0 
              1               0               0               0 
              0               1               0               0 
1
              0 1.11022302462516e-016               1               0 
              1               0 1.11022302462516e-016               0 
1.11022302462516e-016               1               0               0 
1
              0               0               1               0 
              1               0               0               0 
              0               1               0               0 
1
              0 1.11022302462516e-016               1               0 
              1               0 1.11022302462516e-016               0 
1.11022302462516e-016               1               0               0 
2  2 1 3 -1 4 1 5 -1 6 1 7 -1 0
2  1 -1 7 1 6 -1 5 1 4 -1 3 1 2 -1 0
1
              0               0               1               0 
              1               0               0               0 
              0               1               0               0 
1
              0 1.11022302462516e-016               1               0 
              1               0 1.11022302462516e-016               0 
1.11022302462516e-016               1               0               0 
2  10 1 11 -1 0
2  11 1 10 -1 0
2  10 -1 0
2  1 -1 7 1 6 -1 5 1 4 -1 3 1 2 -1 11 1 10 -1 0
1
              1               0               0               0 
              0               1               0 1.40998324127395e-015 
              0               0               1            12.7 
2  10 1 11 -1 16 1 0
2  16 -1 11 1 10 -1 0
2  1 -1 7 1 6 -1 5 1 4 -1 3 1 2 -1 16 -1 11 1 10 -1 0
2  10 1 11 -1 2 1 3 -1 4 1 5 -1 6 1 7 -1 0
2  7 1 6 -1 5 1 4 -1 3 1 2 -1 11 1 10 -1 0
2  10 1 11 -1 16 1 2 1 3 -1 4 1 5 -1 6 1 7 -1 0
2  11 -1 2 1 3 -1 4 1 5 -1 6 1 7 -1 0
1
              0 4.44089209850063e-016              -1 -2.75446332409501e-014 
              1               0               0 -1.01854145214547e-045 
              0              -1 -4.44089209850063e-016 -9.17420580868748e-030 
2  24 1 7 -1 0
2  11 -1 2 1 3 -1 4 1 5 -1 6 1 24 -1 0
2  7 1 24 -1 0
2  1 -1 7 1 24 -1 0
2  4 1 5 -1 6 1 7 -1 0
2  11 -1 2 1 3 -1 0
2  1 -1 7 1 6 -1 5 1 4 -1 0
1
              0 1.11022302462516e-016              -1 -1.83630888273001e-014 
              1 -2.22044604925031e-016 1.11022302462516e-016 -2.26342544921216e-046 
-1.11022302462516e-016              -1 -2.22044604925031e-016 -4.0774248038611e-030 
2  32 1 5 -1 6 1 7 -1 0
2  11 -1 2 1 3 -1 4 1 32 -1 0
2  5 1 32 -1 0
2  1 -1 7 1 6 -1 5 1 32 -1 0
2  11 -1 16 1 2 1 3 -1 0
2  10 1 11 -1 16 1 2 1 3 -1 0
1
-2.22044604925031e-016 -1.11022302462516e-016               1            12.7 
              1 -2.22044604925031e-016 1.11022302462516e-016              -0 
1.11022302462516e-016               1               0 1.40998324127395e-015 
2  39 1 3 -1 0
2  11 -1 16 1 2 1 39 -1 0
2  3 1 39 -1 0
2  1 -1 7 1 6 -1 5 1 4 -1 3 1 39 -1 0
2  1 -1 0
1
              1               0               0 -6.26158343519178e-031 
              0               1               0 -7.04991620636974e-015 
              0               0               1           -12.7 
2  24 1 7 -1 45 1 0
2  45 -1 7 1 24 -1 0
2  24 -1 0
2  1 -1 45 -1 7 1 24 -1 0
2  6 1 7 -1 0
2  4 1 5 -1 0
2  39 1 3 -1 4 1 5 -1 0
2  1 -1 7 1 6 -1 0
2  32 1 5 -1 0
1
              1               0               0 -1.11022302462516e-015 
              0               1               0 2.22044604925031e-015 
              0               0               1              10 
2  32 1 5 -1 55 1 0
2  55 -1 5 1 32 -1 0
2  32 -1 0
2  1 -1 7 1 6 -1 55 -1 5 1 32 -1 0
2  5 -1 55 1 0
2  7 -1 45 1 0
Curve2ds 122
1 0 -0 4.4408920985006262e-016 -1 
1 82.699999999999946 -2.7544633240950114e-014 4.4408920985006271e-016 -1 
1 82.699999999999974 -2.7544633240950121e-014 4.4408920985006262e-016 -1 
1 -0 0 -4.4408920985006271e-016 -1 
1 0 -0 1 -3.3306690738754691e-016 
1 -3.6726177654600154e-014 -82.699999999999946 -1 -4.4408920985006252e-016 
1 7.1054273576009995e-015 -12.699999999999996 1 -3.3306690738754691e-016 
1 -3.6726177654600154e-014 -82.699999999999946 -1 -4.4408920985006252e-016 
1 0 0 4.4408920985006271e-016 -1 
1 82.699999999999974 2.7544633240950121e-014 -4.4408920985006262e-016 -1 
1 1.4012984643248174e-045 -3.1554436208840472e-030 1 -3.3306690738754686e-016 
1 1.4210854715202004e-014 -4.5907722068250138e-015 1 3.3306690738754696e-016 
1 5.6399329650957949e-015 -12.699999999999996 1 -3.3306690738754686e-016 
1 -0 -0 -4.4408920985006247e-016 -1 
1 1.4012984643248174e-045 -3.1554436208840472e-030 1 -3.3306690738754686e-016 
1 -0 -0 -4.4408920985006247e-016 -1 
1 1.4012984643248174e-045 3.1554436208840472e-030 1 3.3306690738754686e-016 
1 -82.700000000000017 -82.699999999999989 4.4408920985006247e-016 1 
1 -5.6399329650957949e-015 -12.699999999999996 1 3.3306690738754686e-016 
1 -82.700000000000017 -82.699999999999989 4.4408920985006247e-016 1 
1 1.4012984643248174e-045 3.1554436208840472e-030 1 3.3306690738754686e-016 
1 -64.699999999999989 5.968003868872526e-014 1 -3.3306690738754696e-016 
1 82.699999999999946 2.7544633240950114e-014 -4.4408920985006271e-016 -1 
1 -0 -0 -4.4408920985006262e-016 -1 
1 6.2172489379008829e-015 -17.999999999999986 -1 -1.1102230246251556e-016 
1 0 0 1 0 
2 -28.45000000000001 -54.249999999999986 1 -1.2325951644078318e-032 -1.2325951644078318e-032 -1 9
1 4.7123889803846897 -12.700000000000001 1 0 
2 -28.45000000000001 -54.249999999999986 1 -1.2325951644078318e-032 -1.2325951644078318e-032 -1 9
1 -1.5707963267948966 -12.700000000000001 1 0 
2 -28.450000000000003 -28.449999999999989 1 -1.2325951644078318e-032 -1.2325951644078318e-032 -1 9
1 4.7123889803846897 -12.700000000000005 1 0 
2 -28.450000000000003 -28.449999999999989 1 -1.2325951644078318e-032 -1.2325951644078318e-032 -1 9
1 -1.5707963267948966 -12.700000000000005 1 0 
2 -54.25 -28.449999999999985 1 -1.2325951644078318e-032 -1.2325951644078318e-032 -1 9
1 4.7123889803846897 -12.700000000000008 1 0 
2 -54.25 -28.449999999999985 1 -1.2325951644078318e-032 -1.2325951644078318e-032 -1 9
1 -1.5707963267948966 -12.700000000000008 1 0 
2 -54.250000000000014 -54.249999999999986 1 -1.2325951644078318e-032 -1.2325951644078318e-032 -1 9
1 4.7123889803846897 -12.700000000000005 1 0 
2 -54.250000000000014 -54.249999999999986 1 -1.2325951644078318e-032 -1.2325951644078318e-032 -1 9
1 -1.5707963267948966 -12.700000000000005 1 0 
1 -44.549999999999997 -35.807437415779987 -0.50000000000002776 -0.86602540378442261 
1 -4.3161772615408397e-046 3.1554436208840472e-030 1 -1.5165928555043735e-016 
1 -44.549999999999997 -35.807437415779987 1 4.4408920985006252e-016 
1 -3.5032461608120411e-046 3.1554436208840472e-030 1 1.110223024625157e-016 
1 -47.75 -41.349999999999987 0.50000000000002764 -0.86602540378442272 
1 -3.4158679198688673e-031 3.1554436208840472e-030 1 -4.0636983087915483e-017 
1 -38.149999999999999 -35.807437415779987 0.50000000000002764 -0.86602540378442272 
1 -1.2132742844034986e-015 2.8283634205600638e-030 1 -4.0636983087915483e-017 
1 -38.149999999999999 -46.892562584219988 -1 -4.4408920985006252e-016 
1 3.5032461608120411e-046 3.1554436208840472e-030 1 -1.110223024625157e-016 
1 -34.950000000000003 -41.349999999999987 -0.50000000000002776 -0.86602540378442261 
1 3.4158679198688563e-031 3.1554436208840472e-030 1 -1.5165928555043735e-016 
1 -82.699999999999974 -4.2632564145605999e-014 1 4.4408920985006252e-016 
1 -7.1054273576009995e-015 -12.699999999999996 1 3.3306690738754691e-016 
2 -28.450000000000006 -54.249999999999986 -5.5511151231257817e-016 -1 -1 5.5511151231257817e-016 9
1 0 0 1 0 
2 -28.449999999999996 -28.449999999999989 -5.5511151231257817e-016 -1 -1 5.5511151231257817e-016 9
1 0 0 1 0 
2 -54.249999999999986 -28.449999999999992 -5.5511151231257817e-016 -1 -1 5.5511151231257817e-016 9
1 0 0 1 0 
2 -54.25 -54.249999999999986 -5.5511151231257817e-016 -1 -1 5.5511151231257817e-016 9
1 0 0 1 0 
2 -41.350000000000001 -41.349999999999987 -5.5511151231257817e-016 -1 -1 5.5511151231257817e-016 3.1499999999999999
1 0 0 1 0 
1 -0 -0 1 3.3306690738754691e-016 
1 1.4270986813513869e-029 3.2135405447775161e-014 1 -4.4408920985006271e-016 
1 0 0 -1.1102230246251573e-016 -1 
1 82.699999999999989 0 1.1102230246251575e-016 -1 
1 -1.4099832412739491e-015 -12.699999999999999 1 0 
1 0 0 -1.1102230246251562e-016 -1 
1 18 -3.944304526105059e-031 -1.1102230246251573e-016 -1 
1 0 0 -1.1102230246251575e-016 -1 
1 0 0 1.1102230246251573e-016 -1 
1 82.699999999999989 0 -1.1102230246251575e-016 -1 
1 1.4099832412739493e-015 -12.700000000000001 1 0 
1 -82.699999999999989 -18.000000000000007 1.1102230246251562e-016 1 
1 17.999999999999993 -3.944304526105059e-031 1.1102230246251573e-016 -1 
1 0 0 1.1102230246251575e-016 -1 
1 -1.4654943925052069e-015 -12.699999999999999 1 0 
1 -1.9984014443252822e-015 -18 -1 -1.1102230246251562e-016 
1 0 0 0 -1 
1 6.2831853071795862 0 0 -1 
1 0 0 0 -1 
1 6.2831853071795862 0 0 -1 
1 0 0 0 -1 
1 6.2831853071795862 0 0 -1 
1 0 0 0 -1 
1 6.2831853071795862 0 0 -1 
1 0 0 2.0717043678169826e-016 -1 
1 0 0 -2.2204460492503136e-016 -1 
1 2.1529783339928128e-015 -9.9999999999999982 1 -1.5165928555043735e-016 
1 0 -0 -0.50000000000002764 -0.86602540378442261 
1 6.3999999999996477 -9.7061942752274492e-016 2.0717043678169826e-016 -1 
1 -3.4158679198688594e-031 -2.4828700941565234e-047 -1.487416814334534e-017 -1 
1 -1.9984014443252818e-015 -9.9999999999999982 1 1.110223024625157e-016 
1 0 -0 1 4.4408920985006252e-016 
1 6.3999999999999986 7.1054273576010259e-016 -2.2204460492503136e-016 -1 
1 -7.819423422353076e-046 3.1554436208840472e-030 -1.487416814334534e-017 -1 
1 -1.1155626107509816e-016 -10 1 -4.0636983087915483e-017 
1 -3.2000000000000006 -5.5425625842199997 0.50000000000002776 -0.86602540378442272 
1 6.3999999999996433 -2.6007669176264883e-016 -1.487416814334534e-017 -1 
1 6.3999999999999986 -7.1054273576010259e-016 2.2204460492503136e-016 -1 
1 -1.1617486545143581e-015 -10 1 -4.0636983087915483e-017 
1 6.3999999999999986 3.5527136788005005e-015 0.50000000000002776 -0.86602540378442272 
1 6.3999999999996433 -2.6007669176264568e-016 -1.487416814334534e-017 -1 
1 3.4158679198688607e-031 6.2752453078735804e-047 2.0717043678169826e-016 -1 
1 0 0 2.2204460492503136e-016 -1 
1 6.3999999999996477 -9.7061942752274452e-016 2.0717043678169826e-016 -1 
1 1.9984014443252818e-015 -9.9999999999999982 1 -1.110223024625157e-016 
1 6.3999999999999968 -11.085125168439994 -1 -4.4408920985006252e-016 
1 1.9978674857127791e-015 -9.9999999999999982 1 -1.5165928555043735e-016 
1 9.5999999999999961 -5.5425625842199944 -0.50000000000002764 -0.86602540378442261 
1 0 0 0 -1 
1 6.2831853071795862 0 0 -1 
1 4.7123889803846897 -2.7000000000000046 1 0 
2 3.1999999999999984 -5.5425625842199988 1 -2.465190328815663e-032 -2.465190328815663e-032 -1 3.1499999999999999
1 -1.5707963267948966 -2.7000000000000046 1 0 
2 3.1999999999999984 -5.5425625842199988 1 -2.465190328815663e-032 -2.465190328815663e-032 -1 3.1499999999999999
1 1.4654943925052062e-015 -12.700000000000001 1 0 
1 -82.699999999999989 -1.4210854715201999e-014 1 1.1102230246251562e-016 
Curves 61
1 41.349999999999987 -41.349999999999994 4.5907722068250225e-015 0 1.1102230246251568e-016 1 
1 41.350000000000001 41.350000000000009 4.5907722068250225e-015 0 1.1102230246251568e-016 1 
1 41.350000000000001 -41.350000000000001 0 0 1 0 
1 41.350000000000001 -41.350000000000001 0 0 1 0 
1 -41.349999999999987 -41.349999999999994 -4.5907722068250209e-015 0 1.1102230246251568e-016 1 
1 -41.349999999999987 -41.350000000000001 0 1 0 0 
1 -41.349999999999987 -41.350000000000001 0 1 0 0 
1 -41.349999999999987 -41.350000000000001 0 1 0 0 
1 41.350000000000001 41.350000000000016 0 -1 0 0 
1 41.350000000000001 41.350000000000016 0 -1 0 0 
1 41.350000000000001 41.350000000000016 0 -1 0 0 
1 -41.349999999999973 41.350000000000009 -4.5907722068250209e-015 0 1.1102230246251568e-016 1 
1 -23.350000000000001 41.350000000000001 0 0 -1 0 
2 12.899999999999999 -12.899999999999995 -1.4210854715202004e-014 1.1102230246251563e-016 1.1102230246251568e-016 1 0 -1 1.1102230246251568e-016 1 -1.2325951644078309e-032 -1.1102230246251563e-016 9
2 12.899999999999999 -12.899999999999995 -1.4210854715202004e-014 1.1102230246251563e-016 1.1102230246251568e-016 1 0 -1 1.1102230246251568e-016 1 -1.2325951644078309e-032 -1.1102230246251563e-016 9
2 -12.899999999999999 -12.899999999999999 -1.4210854715202004e-014 1.1102230246251563e-016 1.1102230246251568e-016 1 0 -1 1.1102230246251568e-016 1 -1.2325951644078309e-032 -1.1102230246251563e-016 9
2 -12.899999999999999 -12.899999999999999 -1.4210854715202004e-014 1.1102230246251563e-016 1.1102230246251568e-016 1 0 -1 1.1102230246251568e-016 1 -1.2325951644078309e-032 -1.1102230246251563e-016 9
2 -12.900000000000002 12.899999999999999 -2.1316282072803006e-014 1.1102230246251563e-016 1.1102230246251568e-016 1 0 -1 1.1102230246251568e-016 1 -1.2325951644078309e-032 -1.1102230246251563e-016 9
2 -12.900000000000002 12.899999999999999 -2.1316282072803006e-014 1.1102230246251563e-016 1.1102230246251568e-016 1 0 -1 1.1102230246251568e-016 1 -1.2325951644078309e-032 -1.1102230246251563e-016 9
2 12.899999999999995 12.900000000000002 -2.1316282072803006e-014 1.1102230246251563e-016 1.1102230246251568e-016 1 0 -1 1.1102230246251568e-016 1 -1.2325951644078309e-032 -1.1102230246251563e-016 9
2 12.899999999999995 12.900000000000002 -2.1316282072803006e-014 1.1102230246251563e-016 1.1102230246251568e-016 1 0 -1 1.1102230246251568e-016 1 -1.2325951644078309e-032 -1.1102230246251563e-016 9
1 -5.5425625842199997 -3.2000000000000002 0 0.86602540378442272 -0.50000000000002764 0 
1 -5.5425625842199997 -3.2000000000000002 0 0 1 0 
1 0 -6.4000000000000004 0 0.86602540378442272 0.50000000000002764 0 
1 -5.5425625842199997 3.2000000000000002 0 0.86602540378442272 0.50000000000002764 0 
1 5.5425625842199997 3.2000000000000002 0 0 -1 0 
1 0 6.4000000000000004 0 0.86602540378442272 -0.50000000000002764 0 
1 -41.349999999999987 41.350000000000016 0 0 -1 0 
2 12.9 -12.9 0 0 0 1 1 0 -0 -0 1 0 9
2 -12.9 -12.9 0 0 0 1 1 0 -0 -0 1 0 9
2 -12.9 12.9 0 0 0 1 1 0 -0 -0 1 0 9
2 12.9 12.9 0 0 0 1 1 0 -0 -0 1 0 9
2 0 0 0 0 0 1 1 0 -0 -0 1 0 3.1499999999999999
1 -41.349999999999987 41.350000000000016 0 0 -1 0 
1 -41.350000000000001 -41.349999999999994 -1.3772316620475056e-014 -4.9303806576313249e-032 -5.5511151231257837e-016 -1 
1 -41.350000000000001 41.350000000000001 0 1 0 0 
1 -23.350000000000001 -41.349999999999994 -1.1773915176149774e-014 -4.9303806576313249e-032 -5.5511151231257837e-016 -1 
1 -23.349999999999994 41.349999999999994 -4.8500092830749947e-014 -4.9303806576313249e-032 -5.5511151231257837e-016 -1 
1 -23.350000000000001 -41.350000000000001 0 -1 0 0 
1 -41.349999999999987 41.349999999999994 -5.0498494275075229e-014 -4.9303806576313249e-032 -5.5511151231257837e-016 -1 
1 -23.350000000000001 41.350000000000001 0 0 -1 0 
1 21.899999999999999 -12.899999999999993 12.699999999999985 -1.1102230246251568e-016 -2.2204460492503136e-016 -1 
1 -3.8999999999999986 -12.899999999999995 12.699999999999989 -1.1102230246251568e-016 -2.2204460492503136e-016 -1 
1 -3.9000000000000012 12.900000000000002 12.699999999999987 -1.1102230246251568e-016 -2.2204460492503136e-016 -1 
1 21.899999999999991 12.900000000000004 12.699999999999982 -1.1102230246251568e-016 -2.2204460492503136e-016 -1 
1 -5.5425625842199979 3.2000000000000002 -1.9333708254822828e-014 -1.1102230246251563e-016 2.2204460492503136e-016 1 
1 -5.5425625842199997 -3.2000000000000002 0 0.86602540378442272 -0.50000000000002764 0 
1 2.1316282072803005e-015 6.3999999999999995 -1.9073631563060184e-014 -1.1102230246251563e-016 2.2204460492503136e-016 1 
1 -5.5425625842199997 -3.2000000000000002 0 0 1 0 
1 -5.5425625842199997 -3.1999999999999993 -1.8623165519062731e-014 -1.1102230246251563e-016 2.2204460492503136e-016 1 
1 0 -6.4000000000000004 0 0.86602540378442272 0.50000000000002764 0 
1 5.5425625842199997 3.1999999999999993 -1.8103012135537436e-014 -1.1102230246251563e-016 2.2204460492503136e-016 1 
1 -5.5425625842199997 3.2000000000000002 0 0.86602540378442272 0.50000000000002764 0 
1 -2.1316282072803005e-015 -6.3999999999999995 -1.7652546091539983e-014 -1.1102230246251563e-016 2.2204460492503136e-016 1 
1 5.5425625842199979 -3.2000000000000002 -1.7392469399777339e-014 -1.1102230246251563e-016 2.2204460492503136e-016 1 
1 5.5425625842199997 3.2000000000000002 0 0 -1 0 
1 0 6.4000000000000004 0 0.86602540378442272 -0.50000000000002764 0 
1 3.1499999999999995 3.1696867353048196e-015 12.699999999999987 -1.1102230246251568e-016 -2.2204460492503136e-016 -1 
2 -2.9976021664879224e-016 3.6304292905242559e-015 9.9999999999999805 1.1102230246251564e-016 2.2204460492503136e-016 1 0 -1 2.2204460492503136e-016 1 -2.4651903288156619e-032 -1.1102230246251564e-016 3.1499999999999999
2 -2.9976021664879224e-016 3.6304292905242559e-015 9.9999999999999805 1.1102230246251564e-016 2.2204460492503136e-016 1 0 -1 2.2204460492503136e-016 1 -2.4651903288156619e-032 -1.1102230246251564e-016 3.1499999999999999
1 -41.350000000000001 -41.350000000000001 0 0 1 0 
Polygon3D 0
PolygonOnTriangulations 0
Surfaces 23
1 41.349999999999987 -41.349999999999994 4.5907722068250225e-015 -1 1.1102230246251568e-016 -1.2325951644078315e-032 1.1102230246251568e-016 1 0 1.2325951644078315e-032 -1.3684555315672051e-048 -1 
1 -41.349999999999987 -41.349999999999994 -4.5907722068250209e-015 1.2325951644078315e-032 1 -1.1102230246251568e-016 1 0 1.1102230246251568e-016 1.1102230246251568e-016 -1.1102230246251568e-016 -1 
1 41.350000000000001 41.350000000000009 4.5907722068250225e-015 -1.2325951644078315e-032 -1 1.1102230246251568e-016 -1 0 -1.1102230246251568e-016 1.1102230246251568e-016 -1.1102230246251568e-016 -1 
1 0 -41.349999999999987 -41.350000000000001 -1 0 0 0 0 -1 -0 -1 -0 
1 0 -41.349999999999987 -41.350000000000001 -1 0 0 0 0 -1 -0 -1 -0 
1 -41.349999999999973 41.350000000000009 -4.5907722068250209e-015 1 -1.1102230246251568e-016 1.2325951644078315e-032 -1.1102230246251568e-016 -1 0 1.2325951644078315e-032 -1.3684555315672051e-048 -1 
1 -41.350000000000001 -41.349999999999994 -1.3772316620475056e-014 -6.1629758220391569e-032 -1 5.5511151231257837e-016 1 0 1.1102230246251568e-016 -1.1102230246251568e-016 5.5511151231257837e-016 1 
1 -23.349999999999994 41.349999999999994 -4.8500092830749947e-014 6.1629758220391569e-032 1 -5.5511151231257837e-016 -1 0 -1.1102230246251568e-016 -1.1102230246251568e-016 5.5511151231257837e-016 1 
1 -23.350000000000001 -41.349999999999994 -1.1773915176149774e-014 1 -1.1102230246251568e-016 1.232595164407832e-032 1.1102230246251568e-016 1 -4.4408920985006262e-016 3.6977854932234928e-032 4.4408920985006262e-016 1 
2 12.9 -12.899999999999993 12.699999999999987 1.1102230246251563e-016 1.1102230246251568e-016 1 1 1.1102230246251563e-016 -1.1102230246251564e-016 -1.1102230246251564e-016 1 -1.1102230246251568e-016 9
2 -12.899999999999997 -12.899999999999997 12.69999999999999 1.1102230246251563e-016 1.1102230246251568e-016 1 1 1.1102230246251563e-016 -1.1102230246251564e-016 -1.1102230246251564e-016 1 -1.1102230246251568e-016 9
2 -12.9 12.9 12.699999999999987 1.1102230246251563e-016 1.1102230246251568e-016 1 1 1.1102230246251563e-016 -1.1102230246251564e-016 -1.1102230246251564e-016 1 -1.1102230246251568e-016 9
2 12.899999999999997 12.900000000000004 12.699999999999983 1.1102230246251563e-016 1.1102230246251568e-016 1 1 1.1102230246251563e-016 -1.1102230246251564e-016 -1.1102230246251564e-016 1 -1.1102230246251568e-016 9
1 -5.5425625842199979 3.2000000000000002 -1.9333708254822828e-014 -0.50000000000002742 0.86602540378442283 -2.4780741986961376e-016 0.86602540378442283 0.50000000000002742 4.0636983087915557e-017 1.5909636962210651e-016 -1.9428902930939939e-016 -1 
1 -5.5425625842199979 3.2000000000000002 -1.9333708254822828e-014 1 -3.3306690738754701e-016 1.110223024625157e-016 -3.3306690738754701e-016 -1 1.1102230246251564e-016 1.1102230246251565e-016 -1.1102230246251568e-016 -1 
1 2.1316282072803009e-015 6.3999999999999995 -1.9073631563060184e-014 0.50000000000002787 0.86602540378442261 -1.3678511740709197e-016 0.86602540378442261 -0.50000000000002787 1.5165928555043735e-016 6.2948235302924771e-017 -1.9428902930939939e-016 -1 
1 -5.5425625842199997 -3.1999999999999993 -1.8623165519062728e-014 0.50000000000002787 0.86602540378442261 -1.3678511740709197e-016 0.86602540378442261 -0.50000000000002787 1.5165928555043735e-016 6.2948235302924771e-017 -1.9428902930939939e-016 -1 
1 5.5425625842199979 -3.2000000000000002 -1.7392469399777339e-014 -1 3.3306690738754701e-016 -1.110223024625157e-016 3.3306690738754701e-016 1 -1.1102230246251564e-016 1.1102230246251565e-016 -1.1102230246251568e-016 -1 
1 -2.1316282072803009e-015 -6.3999999999999995 -1.7652546091539983e-014 -0.50000000000002742 0.86602540378442283 -2.4780741986961376e-016 0.86602540378442283 0.50000000000002742 4.0636983087915557e-017 1.5909636962210651e-016 -1.9428902930939939e-016 -1 
2 1.5653958587979443e-031 2.8199664825478951e-015 12.699999999999987 1.1102230246251563e-016 1.1102230246251568e-016 1 1 1.1102230246251563e-016 -1.1102230246251564e-016 -1.1102230246251564e-016 1 -1.1102230246251568e-016 3.1499999999999999
1 -41.349999999999987 41.349999999999994 -5.0498494275075229e-014 -1 1.1102230246251568e-016 -1.232595164407832e-032 -1.1102230246251568e-016 -1 4.4408920985006262e-016 3.6977854932234928e-032 4.4408920985006262e-016 1 
1 -9.1815444136500339e-015 -41.350000000000001 -41.350000000000001 -1 0 -4.4408920985006257e-016 4.4408920985006257e-016 0 -1 0 -1 -0 
1 -1.8718360195180135e-014 -5.5425625842199988 3.2000000000000006 -1 5.559680859162067e-031 -1.1102230246251526e-016 1.1102230246251526e-016 0 -1 -5.559680859162067e-031 -1 -6.1724856994094766e-047 
Triangulations 0

TShapes 161
Ve
1e-007
1.83630888273001e-014 41.35 -41.35
0 0

0101101
*
Ve
1e-007
12.7 41.35 -41.35
0 0

0101101
*
Ed
 1e-007 1 1 0
1  1 0 0 12.7
2  1 1 0 0 12.7
2  2 2 0 0 12.7
0

0101000
+161 9 -160 9 *
Ve
1e-007
1.83630888273001e-014 41.35 41.35
0 0

0101101
*
Ve
1e-007
12.7 41.35 41.35
0 0

0101101
*
Ed
 1e-007 1 1 0
1  2 0 0 12.7
2  3 1 0 0 12.7
2  4 3 0 0 12.7
0

0101000
+158 9 -157 9 *
Ed
 1e-007 1 1 0
1  3 0 0 82.7
2  5 1 13 0 82.7
2  6 4 14 0 82.7
0

0101000
+161 15 -158 15 *
Ed
 1e-007 1 1 0
1  4 0 0 82.7
2  7 1 18 0 82.7
2  8 5 14 0 82.7
0

0101000
+160 19 -157 19 *
Wi

0101000
+159 0 -156 0 -155 12 +154 17 *
Fa
0  1e-007 1 0

0101000
+153 0 *
Ve
1.00000010307424e-007
-1.60677027238876e-014 -41.35 -41.35
0 0

0101101
*
Ve
1e-007
12.7 -41.35 -41.35
0 0

0101101
*
Ed
 1e-007 1 1 0
1  5 0 0 12.7
2  9 2 0 0 12.7
2  10 6 0 0 12.7
0

0101000
+151 9 -150 9 *
Ve
1e-007
-1.17739151761498e-014 -23.35 -41.35
0 0

0101101
*
Ed
 1e-007 1 1 0
1  6 0 0 18
2  11 2 13 0 18
2  12 7 21 0 18
0

0101000
+151 15 -148 15 *
Ed
 1e-007 1 1 0
1  7 0 0 82.7
2  13 2 18 0 82.7
2  14 5 14 0 82.7
0

0101000
+150 19 -160 19 *
Ed
 1e-007 1 1 0
1  8 0 18 82.7
2  15 2 13 18 82.7
2  16 4 14 18 82.7
0

0101000
+148 15 -161 15 *
Wi

0101000
+149 8 -147 20 +146 22 -145 20 -159 8 *
Fa
0  1e-007 2 8

0101000
+144 0 *
Ve
1e-007
-4.85000928307499e-014 -23.35 41.35
0 0

0101101
*
Ed
 1e-007 1 1 0
1  9 0 0 64.7
2  17 3 13 0 64.7
2  18 4 14 0 64.7
0

0101000
+158 15 -142 15 *
Ve
1e-007
12.7 -41.3499999999999 41.35
0 0

0101101
*
Ed
 1e-007 1 1 0
1  10 0 0 82.7
2  19 3 18 0 82.7
2  20 5 14 0 82.7
0

0101000
+157 19 -140 19 *
Ve
1.00000026693725e-007
-3.44307915511876e-014 -41.35 41.35
0 0

0101101
*
Ed
 1e-007 1 1 0
1  11 0 64.7 82.7
2  21 3 13 64.7 82.7
2  22 8 21 64.7 82.7
0

0101000
+142 15 -138 15 *
Ed
 1e-007 1 1 0
1  12 0 0 12.7
2  23 3 0 0 12.7
2  24 6 0 0 12.7
0

0101000
+138 9 -140 9 *
Wi

0101000
+156 8 -141 20 +139 22 -137 20 -136 8 *
Fa
0  1e-007 3 8

0101000
+135 0 *
Ed
 1e-007 1 1 0
1  13 0 0 82.7
2  25 4 26 0 82.7
2  26 9 27 0 82.7
0

0101000
+148 28 -142 28 *
Wi

0101000
-145 20 -155 20 -141 20 +133 25 *
Ve
1e-007
-1.03472785895065e-014 12.9 -21.9
0 0

0101101
*
Ve
2.00001e-007
-9.34807786734382e-015 21.9 -12.9
0 0

0101101
*
Ed
 1e-007 1 1 0
1  14 0 0 1.5707963267949
2  27 4 30 0 1.5707963267949
2  28 10 0 0 1.5707963267949
0

0101000
+131 31 -130 31 *
Ed
 1e-007 1 1 0
1  15 0 1.5707963267949 6.28318530717959
2  29 4 30 1.5707963267949 6.28318530717959
2  30 10 0 1.5707963267949 6.28318530717959
0

0101000
+130 31 -131 31 *
Wi

0101000
+129 29 +128 29 *
Ve
1e-007
-1.60760293965723e-014 -12.9 -21.9
0 0

0101101
*
Ve
2.00001e-007
-1.50768286744096e-014 -3.9 -12.9
0 0

0101101
*
Ed
 1e-007 1 1 0
1  16 0 0 1.5707963267949
2  31 4 30 0 1.5707963267949
2  32 11 0 0 1.5707963267949
0

0101000
+126 31 -125 31 *
Ed
 1e-007 1 1 0
1  17 0 1.5707963267949 6.28318530717959
2  33 4 30 1.5707963267949 6.28318530717959
2  34 11 0 1.5707963267949 6.28318530717959
0

0101000
+125 31 -126 31 *
Wi

0101000
+124 29 +123 29 *
Ve
1e-007
-2.31814567541733e-014 -12.9 3.9
0 0

0101101
*
Ve
2.00001e-007
-2.21822560320106e-014 -3.9 12.9
0 0

0101101
*
Ed
 1e-007 1 1 0
1  18 0 0 1.5707963267949
2  35 4 30 0 1.5707963267949
2  36 12 0 0 1.5707963267949
0

0101000
+121 31 -120 31 *
Ed
 1e-007 1 1 0
1  19 0 1.5707963267949 6.28318530717959
2  37 4 30 1.5707963267949 6.28318530717959
2  38 12 0 1.5707963267949 6.28318530717959
0

0101000
+120 31 -121 31 *
Wi

0101000
+119 29 +118 29 *
Ve
1e-007
-1.74527059471075e-014 12.9 3.9
0 0

0101101
*
Ve
2.00001e-007
-1.64535052249448e-014 21.9 12.9
0 0

0101101
*
Ed
 1e-007 1 1 0
1  20 0 0 1.5707963267949
2  39 4 30 0 1.5707963267949
2  40 13 0 0 1.5707963267949
0

0101000
+116 31 -115 31 *
Ed
 1e-007 1 1 0
1  21 0 1.5707963267949 6.28318530717959
2  41 4 30 1.5707963267949 6.28318530717959
2  42 13 0 1.5707963267949 6.28318530717959
0

0101000
+115 31 -116 31 *
Wi

0101000
+114 29 +113 29 *
Ve
1e-007
-1.99490563144655e-014 -5.54256258422 3.2
0 0

0101101
*
Ve
1e-007
-1.90736315630602e-014 2.8421709430404e-015 6.4
0 0

0101101
*
Ed
 1e-007 1 1 0
1  22 0 0 6.39999999999965
2  43 4 34 0 6.39999999999965
2  44 14 35 0 6.39999999999965
0

0101000
+111 36 -110 36 *
Ve
1e-007
-1.92385135787054e-014 -5.54256258422 -3.2
0 0

0101101
*
Ed
 1e-007 1 1 0
1  23 0 0 6.4
2  45 4 34 0 6.4
2  46 15 35 0 6.4
0

0101000
+111 36 -108 36 *
Ve
1e-007
-1.74876640758947e-014 5.54256258422 3.2
0 0

0101101
*
Ed
 1e-007 1 1 0
1  24 0 0 6.39999999999965
2  47 4 34 0 6.39999999999965
2  48 16 35 0 6.39999999999965
0

0101000
+110 36 -106 36 *
Ve
1e-007
-1.765254609154e-014 -2.8421709430404e-015 -6.4
0 0

0101101
*
Ed
 1e-007 1 1 0
1  25 0 0 6.39999999999965
2  49 4 34 0 6.39999999999965
2  50 17 35 0 6.39999999999965
0

0101000
+108 36 -104 36 *
Ve
1e-007
-1.67771213401346e-014 5.54256258422 -3.2
0 0

0101101
*
Ed
 1e-007 1 1 0
1  26 0 0 6.4
2  51 4 34 0 6.4
2  52 18 35 0 6.4
0

0101000
+102 36 -106 36 *
Ed
 1e-007 1 1 0
1  27 0 0 6.39999999999965
2  53 4 34 0 6.39999999999965
2  54 19 35 0 6.39999999999965
0

0101000
+104 36 -102 36 *
Wi

0101000
-109 33 +107 33 -105 33 +103 33 +101 33 +100 33 *
Fa
0  1e-007 4 23

0101000
+132 0 +127 0 +122 0 +117 0 +112 0 +99 0 *
Ed
 1e-007 1 1 0
1  28 0 0 82.7
2  55 5 14 0 82.7
2  56 6 18 0 82.7
0

0101000
+140 19 -150 19 *
Wi

0101000
-146 38 -97 38 -154 38 -139 38 *
Ve
1e-007
12.7 21.9 -12.9
0 0

0101101
*
Ed
 1e-007 1 1 0
1  29 0 0 6.28318530717959
2  57 5 41 0 6.28318530717959
2  58 10 42 0 6.28318530717959
0

0101100
+95 43 -95 43 *
Wi

0101000
+94 40 *
Ve
1e-007
12.7 -3.9 -12.9
0 0

0101101
*
Ed
 1e-007 1 1 0
1  30 0 0 6.28318530717959
2  59 5 41 0 6.28318530717959
2  60 11 42 0 6.28318530717959
0

0101100
+92 43 -92 43 *
Wi

0101000
+91 40 *
Ve
1e-007
12.7 -3.9 12.9
0 0

0101101
*
Ed
 1e-007 1 1 0
1  31 0 0 6.28318530717959
2  61 5 41 0 6.28318530717959
2  62 12 42 0 6.28318530717959
0

0101100
+89 43 -89 43 *
Wi

0101000
+88 40 *
Ve
1e-007
12.7 21.9 12.9
0 0

0101101
*
Ed
 1e-007 1 1 0
1  32 0 0 6.28318530717959
2  63 5 41 0 6.28318530717959
2  64 13 42 0 6.28318530717959
0

0101100
+86 43 -86 43 *
Wi

0101000
+85 40 *
Ve
1e-007
12.7 3.15 5.98965321785271e-015
0 0

0101101
*
Ed
 1e-007 1 1 0
1  33 0 0 6.28318530717959
2  65 5 41 0 6.28318530717959
2  66 20 42 0 6.28318530717959
0

0101100
+83 43 -83 43 *
Wi

0101000
+82 40 *
Fa
0  1e-007 5 37

0101000
+96 0 +93 0 +90 0 +87 0 +84 0 +81 0 *
Ed
 1e-007 1 1 0
1  34 0 0 82.7
2  67 6 13 0 82.7
2  68 21 21 0 82.7
0

0101000
+138 15 -151 15 *
Wi

0101000
+136 8 -79 20 +97 22 -149 8 *
Fa
0  1e-007 6 8

0101000
+78 0 *
Ve
1e-007
-12.7 -41.35 -41.35
0 0

0101101
*
Ed
 1e-007 1 1 0
1  35 0 0 12.7
2  69 7 0 0 12.7
2  70 21 0 0 12.7
0

0101000
+151 44 -76 44 *
Ve
1e-007
-12.7 -23.35 -41.35
0 0

0101101
*
Ed
 1e-007 1 1 0
1  36 0 0 18
2  71 7 47 0 18
2  72 22 48 0 18
0

0101000
+76 49 -74 49 *
Ed
 1e-007 1 1 0
1  37 0 0 12.7
2  73 7 0 0 12.7
2  74 9 0 0 12.7
0

0101000
+148 44 -74 44 *
Wi

0101000
+75 0 -147 20 +73 46 -72 0 *
Fa
0  1e-007 7 0

0101000
+71 0 *
Ve
1e-007
-12.7 -23.35 41.35
0 0

0101101
*
Ed
 1e-007 1 1 0
1  38 0 0 12.7
2  75 8 0 0 12.7
2  76 9 0 0 12.7
0

0101000
+142 44 -69 44 *
Ve
1e-007
-12.7 -41.35 41.35
0 0

0101101
*
Ed
 1e-007 1 1 0
1  39 0 0 18
2  77 8 47 0 18
2  78 22 48 0 18
0

0101000
+69 49 -67 49 *
Ed
 1e-007 1 1 0
1  40 0 0 12.7
2  79 8 0 0 12.7
2  80 21 0 0 12.7
0

0101000
+138 44 -67 44 *
Wi

0101000
+68 0 -137 20 +66 46 -65 0 *
Fa
0  1e-007 8 0

0101000
+64 0 *
Ed
 1e-007 1 1 0
1  41 0 0 82.7
2  81 9 47 0 82.7
2  82 22 48 0 82.7
0

0101000
+74 49 -69 49 *
Wi

0101000
+72 0 -133 25 +62 46 -68 0 *
Fa
0  1e-007 9 0

0101000
+61 0 *
Ed
 1e-007 1 1 0
1  42 0 0 12.7
3  83 84CN 10 0 0 12.7
0

0101000
+95 31 -130 31 *
Wi

0101000
-94 52 -59 51 +129 51 +128 51 +59 51 *
Fa
0  1e-007 10 51

0101000
+58 0 *
Ed
 1e-007 1 1 0
1  43 0 0 12.7
3  85 86CN 11 0 0 12.7
0

0101000
+92 31 -125 31 *
Wi

0101000
-91 52 -56 51 +124 51 +123 51 +56 51 *
Fa
0  1e-007 11 51

0101000
+55 0 *
Ed
 1e-007 1 1 0
1  44 0 0 12.7
3  87 88CN 12 0 0 12.7
0

0101000
+89 31 -120 31 *
Wi

0101000
-88 52 -53 51 +119 51 +118 51 +53 51 *
Fa
0  1e-007 12 51

0101000
+52 0 *
Ed
 1e-007 1 1 0
1  45 0 0 12.7
3  89 90CN 13 0 0 12.7
0

0101000
+86 31 -115 31 *
Wi

0101000
-85 52 -50 51 +114 51 +113 51 +50 51 *
Fa
0  1e-007 13 51

0101000
+49 0 *
Ve
1e-007
9.99999999999998 -5.54256258422 3.2
0 0

0101101
*
Ed
 1e-007 1 1 0
1  46 0 0 10
2  91 14 0 0 10
2  92 15 0 0 10
0

0101000
+111 53 -47 53 *
Ve
1e-007
9.99999999999998 1.73194791841524e-015 6.4
0 0

0101101
*
Ed
 1e-007 1 1 0
1  47 0 0 6.39999999999965
2  93 14 57 0 6.39999999999965
2  94 23 58 0 6.39999999999965
0

0101000
+47 59 -45 59 *
Ed
 1e-007 1 1 0
1  48 0 0 10
2  95 14 0 0 10
2  96 16 0 0 10
0

0101000
+110 53 -45 53 *
Wi

0101000
+46 0 -109 54 +44 56 -43 0 *
Fa
0  1e-007 14 0

0101000
+42 0 *
Ve
1e-007
9.99999999999998 -5.54256258422 -3.2
0 0

0101101
*
Ed
 1e-007 1 1 0
1  49 0 0 6.4
2  97 15 57 0 6.4
2  98 23 58 0 6.4
0

0101000
+47 59 -40 59 *
Ed
 1e-007 1 1 0
1  50 0 0 10
2  99 15 0 0 10
2  100 17 0 0 10
0

0101000
+108 53 -40 53 *
Wi

0101000
+46 0 -107 54 +39 56 -38 0 *
Fa
0  1e-007 15 0

0101000
+37 0 *
Ve
1e-007
9.99999999999998 5.54256258422 3.2
0 0

0101101
*
Ed
 1e-007 1 1 0
1  51 0 0 6.39999999999965
2  101 16 57 0 6.39999999999965
2  102 23 58 0 6.39999999999965
0

0101000
+45 59 -35 59 *
Ed
 1e-007 1 1 0
1  52 0 0 10
2  103 16 0 0 10
2  104 18 0 0 10
0

0101000
+106 53 -35 53 *
Wi

0101000
+43 0 -105 54 +34 56 -33 0 *
Fa
0  1e-007 16 0

0101000
+32 0 *
Ve
1e-007
9.99999999999998 -3.95239396766556e-015 -6.4
0 0

0101101
*
Ed
 1e-007 1 1 0
1  53 0 0 6.39999999999965
2  105 17 57 0 6.39999999999965
2  106 23 58 0 6.39999999999965
0

0101000
+40 59 -30 59 *
Ed
 1e-007 1 1 0
1  54 0 0 10
2  107 17 0 0 10
2  108 19 0 0 10
0

0101000
+104 53 -30 53 *
Wi

0101000
+38 0 -103 54 +29 56 -28 0 *
Fa
0  1e-007 17 0

0101000
+27 0 *
Ve
1e-007
9.99999999999998 5.54256258422 -3.2
0 0

0101101
*
Ed
 1e-007 1 1 0
1  55 0 0 10
2  109 18 0 0 10
2  110 19 0 0 10
0

0101000
+102 53 -25 53 *
Ed
 1e-007 1 1 0
1  56 0 0 6.4
2  111 18 57 0 6.4
2  112 23 58 0 6.4
0

0101000
+25 59 -35 59 *
Wi

0101000
+24 0 -101 54 +23 56 -33 0 *
Fa
0  1e-007 18 0

0101000
+22 0 *
Ed
 1e-007 1 1 0
1  57 0 0 6.39999999999965
2  113 19 57 0 6.39999999999965
2  114 23 58 0 6.39999999999965
0

0101000
+30 59 -25 59 *
Wi

0101000
+28 0 -100 54 +20 56 -24 0 *
Fa
0  1e-007 19 0

0101000
+19 0 *
Ve
2.00001e-007
9.99999999999998 3.15 4.79061235125754e-015
0 0

0101101
*
Ed
 1e-007 1 1 0
1  58 0 0 2.7
3  115 116CN 20 0 0 2.7
0

0101000
+83 31 -17 31 *
Ve
1e-007
9.99999999999998 -1.42100795286855e-015 -3.15
0 0

0101101
*
Ed
 1e-007 1 1 0
1  59 0 0 1.5707963267949
2  117 20 51 0 1.5707963267949
2  118 23 60 0 1.5707963267949
0

0101000
+15 53 -17 53 *
Ed
 1e-007 1 1 0
1  60 0 1.5707963267949 6.28318530717959
2  119 20 51 1.5707963267949 6.28318530717959
2  120 23 60 1.5707963267949 6.28318530717959
0

0101000
+17 53 -15 53 *
Wi

0101000
+16 51 -82 52 -16 51 +14 0 +13 0 *
Fa
0  1e-007 20 51

0101000
+12 0 *
Ed
 1e-007 1 1 0
1  61 0 0 82.7
2  121 21 47 0 82.7
2  122 22 48 0 82.7
0

0101000
+67 49 -76 49 *
Wi

0101000
+65 0 -79 20 +10 46 -75 0 *
Fa
0  1e-007 21 0

0101000
+9 0 *
Wi

0101100
+73 0 +62 0 +66 0 +10 0 *
Fa
0  1e-007 22 0

0101000
-7 24 *
Wi

0101000
+14 0 +13 0 *
Wi

0101000
-39 56 +44 56 -29 56 +34 56 -20 56 -23 56 *
Fa
0  1e-007 23 60

0101000
+5 0 +4 0 *
Sh

0101000
-152 8 -143 0 -134 0 +98 0 -80 29 -77 0 +70 0 +63 0 +60 0 -57 50 
-54 50 -51 50 -48 50 -41 50 +36 50 -31 50 +26 50 +21 50 +18 50 -11 50 
+8 0 +6 61 +3 50 *
So

0100000
+2 0 *

+1 1 