DBRep_DrawableShape

CASCADE Topology V1, (c) Matra-Datavision
Locations 10
1
              0               0               1             100 
              1               0               0               0 
              0               1               0               0 
1
              0 1.11022302462516e-16               1             100 
              1               0 1.11022302462516e-16               0 
1.11022302462516e-16               1               0               0 
2  1 1 2 -1 0
2  2 1 1 -1 0
2  1 -1 0
1
              1               0               0               0 
              0               1               0 1.99840144432528e-13 
              0               0               1            1800 
2  1 1 2 -1 6 1 0
2  6 -1 2 1 1 -1 0
2  2 -1 0
2  2 -1 6 1 0
Curve2ds 36
1 0 0 1.1102230246251568e-16 -1 
1 0 0 1.1102230246251568e-16 -1 
1 249.99999999999997 -3.8893845486632153e-62 1.1102230246251568e-16 -1 
1 0 0 1.1102230246251568e-16 -1 
1 0 0 1 0 
1 0 0 1 -1.1102230246251565e-16 
1 1.9984014443252818e-13 -1799.9999999999998 1 0 
1 0 0 1 -1.1102230246251565e-16 
1 949.99999999999989 5.9952043329758579e-15 1.1102230246251568e-16 -1 
1 -8.2041705323364715e-63 5.9952043329758453e-15 1.1102230246251568e-16 -1 
1 0 0 1 0 
1 0 0 1.1102230246251565e-16 -1 
1 1.998401444325282e-13 -1799.9999999999998 1 0 
1 0 0 1.1102230246251565e-16 -1 
1 699.99999999999989 5.9952043329758453e-15 1.1102230246251568e-16 -1 
1 6.6560138878022889e-31 5.9952043329758453e-15 -1.1102230246251568e-16 -1 
1 0 0 1 0 
1 1.0547118733938987e-13 -949.99999999999989 1 -1.1102230246251565e-16 
1 1.9984014443252818e-13 -1799.9999999999998 1 0 
1 1.0547118733938988e-13 -949.99999999999989 1 -1.1102230246251565e-16 
1 639.99999999999989 0 1.1102230246251568e-16 -1 
1 496.58836071740552 6.3108872417680944e-30 -1.4755625669398027e-16 -1 
1 0 0 1 0 
1 249.99999999999997 -2.775557561562891e-14 1.1102230246251565e-16 -1 
1 1.998401444325282e-13 -1799.9999999999998 1 0 
1 249.99999999999997 -2.7755575615628914e-14 1.1102230246251565e-16 -1 
1 100 -5.1070259132757232e-15 -1.1102230246251568e-16 -1 
1 -2.3977342664612942e-31 -5.1070259132757201e-15 -1.4755625669398027e-16 -1 
1 0 0 1 0 
1 700 -950 -1.1102230246251565e-16 1 
1 -1.998401444325282e-13 -1799.9999999999998 1 0 
1 700 -950 -1.1102230246251565e-16 1 
1 -0 0 1 1.2325951644078307e-32 
1 700 -850 -0.90618313999526545 0.42288546533112398 
1 -2.9055168363560107e-13 -1799.9999999999998 1 1.2325951644078307e-32 
1 700 -850 -0.90618313999526545 0.42288546533112398 
Curves 18
1 0 0 0 0 1.1102230246251568e-16 1 
1 2.7755575615628914e-14 249.99999999999997 0 0 1.1102230246251568e-16 1 
1 0 0 0 0 1 0 
1 0 0 0 0 1 0 
1 949.99999999999989 0 9.9475983006414026e-14 0 1.1102230246251568e-16 1 
1 0 0 0 1 0 0 
1 0 0 0 1 0 0 
1 950 699.99999999999989 9.9475983006414026e-14 0 1.1102230246251568e-16 1 
1 950 0 0 0 1 0 
1 950 0 0 0 1 0 
1 639.99999999999989 249.99999999999997 7.1054273576010019e-14 0 1.1102230246251568e-16 1 
1 0 250 0 1 0 0 
1 0 250 0 1 0 0 
1 850 699.99999999999989 9.9475983006414026e-14 0 1.1102230246251568e-16 1 
1 950 700 0 -1 0 0 
1 950 700 0 -1 0 0 
1 850 700 0 -0.42288546533112387 -0.90618313999526545 0 
1 850 700 0 -0.42288546533112387 -0.90618313999526545 0 
Polygon3D 0
PolygonOnTriangulations 0
Surfaces 8
1 0 0 0 -1 1.1102230246251568e-16 -1.2325951644078315e-32 1.1102230246251568e-16 1 0 1.2325951644078315e-32 -1.3684555315672051e-48 -1 
1 0 0 0 1.2325951644078315e-32 1 -1.1102230246251568e-16 1 0 1.1102230246251568e-16 1.1102230246251568e-16 -1.1102230246251568e-16 -1 
1 2.7755575615628914e-14 249.99999999999997 0 1.2325951644078315e-32 1 -1.1102230246251568e-16 1 0 1.1102230246251568e-16 1.1102230246251568e-16 -1.1102230246251568e-16 -1 
1 100 0 0 1 0 0 -0 0 1 0 -1 0 
1 100 0 0 1 0 0 -0 0 1 0 -1 0 
1 949.99999999999989 0 1.0547118733938987e-13 -1 1.1102230246251568e-16 -1.2325951644078315e-32 1.1102230246251568e-16 1 0 1.2325951644078315e-32 -1.3684555315672051e-48 -1 
1 950 699.99999999999989 1.0547118733938987e-13 -1.2325951644078315e-32 -1 1.1102230246251568e-16 -1 0 -1.1102230246251568e-16 1.1102230246251568e-16 -1.1102230246251568e-16 -1 
1 850 699.99999999999989 9.4368957093138306e-14 0.90618313999526545 -0.42288546533112398 4.6949718038993736e-17 -0.42288546533112398 -0.90618313999526545 -4.6949718038993687e-17 6.2399396274552592e-17 2.2690689554382718e-17 -1 
Triangulations 0

TShapes 48
Ve
1e-07
0 0 0
0 0

0101101
*
Ve
1e-07
0 1.99840144432528e-13 1800
0 0

0101101
*
Ed
 1e-07 1 1 0
1  1 0 0 1800
2  1 1 0 0 1800
2  2 2 0 0 1800
0

0101000
+48 0 -47 0 *
Ve
1e-07
2.77555756156289e-14 250 0
0 0

0101101
*
Ve
1e-07
2.77555756156289e-14 250 1800
0 0

0101101
*
Ed
 1e-07 1 1 0
1  2 0 0 1800
2  3 1 0 0 1800
2  4 3 0 0 1800
0

0101000
+45 0 -44 0 *
Ed
 1e-07 1 1 0
1  3 0 0 250
2  5 1 4 0 250
2  6 4 5 0 250
0

0101000
+48 4 -45 4 *
Ed
 1e-07 1 1 0
1  4 0 0 250
2  7 1 8 0 250
2  8 5 5 0 250
0

0101000
+47 8 -44 8 *
Wi

0101000
+46 0 -43 0 -42 3 +41 7 *
Fa
0  1e-07 1 0

0101000
+40 0 *
Ve
1e-07
950 0 9.9475983006414e-14
0 0

0101101
*
Ve
1e-07
950 1.99840144432528e-13 1800
0 0

0101101
*
Ed
 1e-07 1 1 0
1  5 0 0 1800
2  9 2 0 0 1800
2  10 6 0 0 1800
0

0101000
+38 0 -37 0 *
Ed
 1e-07 1 1 0
1  6 0 0 950
2  11 2 4 0 950
2  12 4 5 0 950
0

0101000
+48 4 -38 4 *
Ed
 1e-07 1 1 0
1  7 0 0 950
2  13 2 8 0 950
2  14 5 5 0 950
0

0101000
+47 8 -37 8 *
Wi

0101000
+46 0 -36 0 -35 3 +34 7 *
Fa
0  1e-07 2 0

0101000
+33 0 *
Ve
1e-07
950 700 9.9475983006414e-14
0 0

0101101
*
Ve
1e-07
950 700 1800
0 0

0101101
*
Ed
 1e-07 1 1 0
1  8 0 0 1800
2  15 6 0 0 1800
2  16 7 0 0 1800
0

0101000
+31 0 -30 0 *
Ed
 1e-07 1 1 0
1  9 0 0 700
2  17 6 4 0 700
2  18 4 5 0 700
0

0101000
+38 4 -31 4 *
Ed
 1e-07 1 1 0
1  10 0 0 700
2  19 6 8 0 700
2  20 5 5 0 700
0

0101000
+37 8 -30 8 *
Wi

0101000
+36 0 -29 0 -28 3 +27 7 *
Fa
0  1e-07 6 0

0101000
+26 0 *
Ve
1e-07
640 250 7.105427357601e-14
0 0

0101101
*
Ve
1e-07
640 250 1800
0 0

0101101
*
Ed
 1e-07 1 1 0
1  11 0 0 1800
2  21 3 0 0 1800
2  22 8 0 0 1800
0

0101000
+24 0 -23 0 *
Ed
 1e-07 1 1 0
1  12 0 0 640
2  23 3 4 0 640
2  24 4 5 0 640
0

0101000
+45 4 -24 4 *
Ed
 1e-07 1 1 0
1  13 0 0 640
2  25 3 8 0 640
2  26 5 5 0 640
0

0101000
+44 8 -23 8 *
Wi

0101000
+43 0 -22 0 -21 3 +20 7 *
Fa
0  1e-07 3 0

0101000
+19 0 *
Ve
1e-07
850 700 9.9475983006414e-14
0 0

0101101
*
Ve
1e-07
850 700 1800
0 0

0101101
*
Ed
 1e-07 1 1 0
1  14 0 0 1800
2  27 7 0 0 1800
2  28 8 0 0 1800
0

0101000
+17 0 -16 0 *
Ed
 1e-07 1 1 0
1  15 0 0 100
2  29 7 4 0 100
2  30 4 5 0 100
0

0101000
+31 4 -17 4 *
Ed
 1e-07 1 1 0
1  16 0 0 100
2  31 7 8 0 100
2  32 5 5 0 100
0

0101000
+30 8 -16 8 *
Wi

0101000
+29 0 -15 0 -14 3 +13 7 *
Fa
0  1e-07 7 0

0101000
+12 0 *
Ed
 1e-07 1 1 0
1  17 0 0 496.588360717405
2  33 8 4 0 496.588360717405
2  34 4 5 0 496.588360717405
0

0101000
+17 4 -24 4 *
Ed
 1e-07 1 1 0
1  18 0 0 496.588360717405
2  35 8 8 0 496.588360717405
2  36 5 5 0 496.588360717405
0

0101000
+16 8 -23 8 *
Wi

0101000
+15 0 -22 0 -10 3 +9 7 *
Fa
0  1e-07 8 0

0101000
+8 0 *
Wi

0101100
+42 0 -35 0 -28 0 +21 0 -14 0 -10 0 *
Fa
0  1e-07 4 0

0101000
-6 1 *
Wi

0101100
+41 0 -34 0 -27 0 +20 0 -13 0 -9 0 *
Fa
0  1e-07 5 0

0101000
-4 1 *
Sh

0101000
-39 0 +32 0 +25 0 -18 0 +11 0 +7 0 +5 9 -3 10 *
So

1100000
-2 0 *

+1 0 