DBRep_DrawableShape

CASCADE Topology V1, (c) Matra-Datavision
Locations 2
1
              1               0               0           13700 
              0              -1   -1.224606e-16            3200 
              0    1.224606e-16              -1            5450 
2  1 -1 0
Curve2ds 6
1 0 346.55446902326912 1 0 
2 0 0 1 0 -0 1 250
1 6.2831853071795862 -0 0 1 
1 0 -0 0 1 
1 0 0 1 0 
2 0 0 1 0 -0 1 10
Curves 3
2 0 0 250 0 0 1 1 0 -0 -0 1 0 250
1 10 -2.4492127076447545e-15 0 0.69253182818971348 -1.6961577540507e-16 0.7213873210309516 
2 0 0 0 0 0 1 1 0 -0 -0 1 0 10
Polygon3D 0
PolygonOnTriangulations 0
Surfaces 3
3 0 0 0 0 0 1 1 0 -0 -0 1 0 10
0.76499283271091023
1 0 0 250 0 0 1 1 0 -0 -0 1 0 
1 0 0 0 0 0 1 1 0 -0 -0 1 0 
Triangulations 0

TShapes 13
Ve
1e-07
13950 3200 5200
0 0

0101101
*
Ed
 1e-07 1 1 0
1  1 0 0 6.28318530717959
2  1 1 0 0 6.28318530717959
2  2 2 0 0 6.28318530717959
0

0101100
+13 2 -13 2 *
Ve
1e-07
13710 3200 5450
0 0

0101101
*
Ed
 1e-07 1 1 0
1  2 0 0 346.554469023269
3  3 4CN 1 0 0 346.554469023269
0

0101000
-13 2 +11 2 *
Ed
 1e-07 1 1 0
1  3 0 0 6.28318530717959
2  5 1 0 0 6.28318530717959
2  6 3 0 0 6.28318530717959
0

0101100
+11 2 -11 2 *
Wi

0101000
-12 0 +10 0 +9 0 -10 0 *
Fa
0  1e-07 1 0

0101000
+8 0 *
Wi

0101000
+12 0 *
Fa
0  1e-07 2 0

0101000
+6 0 *
Wi

0101000
-9 0 *
Fa
0  1e-07 3 0

0101000
-4 0 *
Sh

0101100
+7 0 +5 0 -3 0 *
So

1100100
+2 0 *

+1 1 