DBRep_DrawableShape

CASCADE Topology V1, (c) Matra-Datavision
Locations 6
1
              1               0               0               0 
              0               1               0               0 
              0               0               1               0 
2  1 -1 0
1
              1               0               0               0 
              0               1               0               0 
              0               0               1            2400 
2  1 1 3 1 0
2  3 -1 1 -1 0
2  3 -1 0
Curve2ds 48
1 0 0 0 -1 
1 8100 0 0 -1 
1 25500 0 0 -1 
1 0 0 0 -1 
1 0 0 1 0 
1 0 0 1 0 
1 0 -2400 1 0 
1 0 0 1 0 
1 8100 0 0 -1 
1 0 -0 0 -1 
1 0 0 1 0 
1 25500 0 0 -1 
1 0 -2400 1 0 
1 25500 0 0 -1 
1 25500 0 0 -1 
1 0 0 0 -1 
1 0 -0 1 0 
1 25500 -8100 -1 0 
1 0 -2400 1 0 
1 25500 -8100 -1 0 
1 0 0 1 0 
1 0 -8100 0 1 
1 0 -2400 1 0 
1 0 -8100 0 1 
1 0 0 0 -1 
1 7600 0 0 -1 
1 25000 0 0 -1 
1 0 0 0 -1 
1 0 0 1 0 
1 250 -250 1 0 
1 0 -2400 1 0 
1 250 -250 1 0 
1 7600 0 0 -1 
1 0 -0 0 -1 
1 0 0 1 0 
1 25250 -250 0 -1 
1 0 -2400 1 0 
1 25250 -250 0 -1 
1 25000 0 0 -1 
1 0 0 0 -1 
1 0 -0 1 0 
1 25250 -7850 -1 0 
1 0 -2400 1 0 
1 25250 -7850 -1 0 
1 0 0 1 0 
1 250 -7850 0 1 
1 0 -2400 1 0 
1 250 -7850 0 1 
Curves 24
1 0 8100 0 0 0 1 
1 25500 8100 0 0 0 1 
1 0 8100 0 1 0 0 
1 0 8100 0 1 0 0 
1 25500 0 0 0 0 1 
1 25500 8100 0 0 -1 0 
1 25500 8100 0 0 -1 0 
1 0 0 0 0 0 1 
1 25500 0 0 -1 0 0 
1 25500 0 0 -1 0 0 
1 0 0 0 0 1 0 
1 0 0 0 0 1 0 
1 250 7850 0 0 0 1 
1 25250 7850 0 0 0 1 
1 250 7850 0 1 0 0 
1 250 7850 0 1 0 0 
1 25250 250 0 0 0 1 
1 25250 7850 0 0 -1 0 
1 25250 7850 0 0 -1 0 
1 250 250 0 0 0 1 
1 25250 250 0 -1 0 0 
1 25250 250 0 -1 0 0 
1 250 250 0 0 1 0 
1 250 250 0 0 1 0 
Polygon3D 0
PolygonOnTriangulations 0
Surfaces 10
1 0 8100 0 0 1 0 1 0 0 0 0 -1 
1 0 0 0 -1 0 0 0 1 0 0 0 -1 
1 25500 8100 0 1 0 -0 0 -1 0 0 -0 -1 
1 0 8100 0 -0 0 1 1 0 0 0 1 -0 
1 0 8100 0 -0 0 1 1 0 0 0 1 -0 
1 25500 0 0 0 -1 0 -1 0 0 -0 -0 -1 
1 250 7850 0 0 1 0 1 0 0 0 0 -1 
1 250 250 0 -1 0 0 0 1 0 0 0 -1 
1 25250 7850 0 1 0 -0 0 -1 0 0 -0 -1 
1 25250 250 0 0 -1 0 -1 0 0 -0 -0 -1 
Triangulations 0

TShapes 64
Ve
1.00015000750013e-07
0 8100 0
0 0

0101101
*
Ve
1.00015000750013e-07
0 8100 2400
0 0

0101101
*
Ed
 1.00015000750013e-07 1 1 0
1  1 0 0 2400
2  1 1 0 0 2400
2  2 2 0 0 2400
0

0101000
+64 0 -63 0 *
Ve
1.00015000750013e-07
25500 8100 0
0 0

0101101
*
Ve
1.00015000750013e-07
25500 8100 2400
0 0

0101101
*
Ed
 1.00015000750013e-07 1 1 0
1  2 0 0 2400
2  3 1 0 0 2400
2  4 3 0 0 2400
0

0101000
+61 0 -60 0 *
Ed
 1.00015000750013e-07 1 1 0
1  3 0 0 25500
2  5 1 2 0 25500
2  6 4 2 0 25500
0

0101000
+64 2 -61 2 *
Ed
 1.00015000750013e-07 1 1 0
1  4 0 0 25500
2  7 1 5 0 25500
2  8 5 2 0 25500
0

0101000
+63 5 -60 5 *
Wi

0101000
+62 0 -59 0 -58 1 +57 4 *
Fa
0  1.00015000750013e-07 1 0

0101000
+56 0 *
Ve
1.00015000750013e-07
25500 0 0
0 0

0101101
*
Ve
1.00015000750013e-07
25500 0 2400
0 0

0101101
*
Ed
 1.00015000750013e-07 1 1 0
1  5 0 0 2400
2  9 3 0 0 2400
2  10 6 0 0 2400
0

0101000
+54 0 -53 0 *
Ed
 1.00015000750013e-07 1 1 0
1  6 0 0 8100
2  11 3 2 0 8100
2  12 4 2 0 8100
0

0101000
+61 2 -54 2 *
Ed
 1.00015000750013e-07 1 1 0
1  7 0 0 8100
2  13 3 5 0 8100
2  14 5 2 0 8100
0

0101000
+60 5 -53 5 *
Wi

0101000
+59 0 -52 0 -51 1 +50 4 *
Fa
0  1.00015000750013e-07 3 0

0101000
+49 0 *
Ve
1.00015000750013e-07
0 0 0
0 0

0101101
*
Ve
1.00015000750013e-07
0 0 2400
0 0

0101101
*
Ed
 1.00015000750013e-07 1 1 0
1  8 0 0 2400
2  15 6 0 0 2400
2  16 2 0 0 2400
0

0101000
+47 0 -46 0 *
Ed
 1.00015000750013e-07 1 1 0
1  9 0 0 25500
2  17 6 2 0 25500
2  18 4 2 0 25500
0

0101000
+54 2 -47 2 *
Ed
 1.00015000750013e-07 1 1 0
1  10 0 0 25500
2  19 6 5 0 25500
2  20 5 2 0 25500
0

0101000
+53 5 -46 5 *
Wi

0101000
+52 0 -45 0 -44 1 +43 4 *
Fa
0  1.00015000750013e-07 6 0

0101000
+42 0 *
Ed
 1.00015000750013e-07 1 1 0
1  11 0 0 8100
2  21 2 2 0 8100
2  22 4 2 0 8100
0

0101000
+47 2 -64 2 *
Ed
 1.00015000750013e-07 1 1 0
1  12 0 0 8100
2  23 2 5 0 8100
2  24 5 2 0 8100
0

0101000
+46 5 -63 5 *
Wi

0101000
+45 0 -62 0 -40 1 +39 4 *
Fa
0  1.00015000750013e-07 2 0

0101000
+38 0 *
Ve
1.00005e-07
250 7850 0
0 0

0101101
*
Ve
1.00005e-07
250 7850 2400
0 0

0101101
*
Ed
 1.00005e-07 1 1 0
1  13 0 0 2400
2  25 7 0 0 2400
2  26 8 0 0 2400
0

0101000
+36 0 -35 0 *
Ve
1.00005e-07
25250 7850 0
0 0

0101101
*
Ve
1.00005e-07
25250 7850 2400
0 0

0101101
*
Ed
 1.00005e-07 1 1 0
1  14 0 0 2400
2  27 7 0 0 2400
2  28 9 0 0 2400
0

0101000
+33 0 -32 0 *
Ed
 1.00005e-07 1 1 0
1  15 0 0 25000
2  29 7 0 0 25000
2  30 4 0 0 25000
0

0101000
+36 0 -33 0 *
Ed
 1.00005e-07 1 1 0
1  16 0 0 25000
2  31 7 6 0 25000
2  32 5 0 0 25000
0

0101000
+35 6 -32 6 *
Wi

0101000
+34 0 -31 0 -30 0 +29 3 *
Fa
0  1.00005e-07 7 0

0101000
+28 0 *
Ve
1.00005e-07
25250 250 0
0 0

0101101
*
Ve
1.00005e-07
25250 250 2400
0 0

0101101
*
Ed
 1.00005e-07 1 1 0
1  17 0 0 2400
2  33 9 0 0 2400
2  34 10 0 0 2400
0

0101000
+26 0 -25 0 *
Ed
 1.00005e-07 1 1 0
1  18 0 0 7600
2  35 9 0 0 7600
2  36 4 0 0 7600
0

0101000
+33 0 -26 0 *
Ed
 1.00005e-07 1 1 0
1  19 0 0 7600
2  37 9 6 0 7600
2  38 5 0 0 7600
0

0101000
+32 6 -25 6 *
Wi

0101000
+31 0 -24 0 -23 0 +22 3 *
Fa
0  1.00005e-07 9 0

0101000
+21 0 *
Ve
1.00005e-07
250 250 0
0 0

0101101
*
Ve
1.00005e-07
250 250 2400
0 0

0101101
*
Ed
 1.00005e-07 1 1 0
1  20 0 0 2400
2  39 10 0 0 2400
2  40 8 0 0 2400
0

0101000
+19 0 -18 0 *
Ed
 1.00005e-07 1 1 0
1  21 0 0 25000
2  41 10 0 0 25000
2  42 4 0 0 25000
0

0101000
+26 0 -19 0 *
Ed
 1.00005e-07 1 1 0
1  22 0 0 25000
2  43 10 6 0 25000
2  44 5 0 0 25000
0

0101000
+25 6 -18 6 *
Wi

0101000
+24 0 -17 0 -16 0 +15 3 *
Fa
0  1.00005e-07 10 0

0101000
+14 0 *
Ed
 1.00005e-07 1 1 0
1  23 0 0 7600
2  45 8 0 0 7600
2  46 4 0 0 7600
0

0101000
+19 0 -36 0 *
Ed
 1.00005e-07 1 1 0
1  24 0 0 7600
2  47 8 6 0 7600
2  48 5 0 0 7600
0

0101000
+18 6 -35 6 *
Wi

0101000
+17 0 -34 0 -12 0 +11 3 *
Fa
0  1.00005e-07 8 0

0101000
+10 0 *
Wi

0101100
+58 1 +51 1 +44 1 +40 1 *
Wi

0101100
+30 0 +23 0 +16 0 +12 0 *
Fa
0  1.0001000025e-07 4 0

0101000
-8 0 +7 0 *
Wi

0101100
+57 1 +50 1 +43 1 +39 1 *
Wi

0101100
+29 0 +22 0 +15 0 +11 0 *
Fa
0  1.0001000025e-07 5 0

0101000
-5 0 +4 0 *
Sh

0101000
-55 0 -48 0 -41 0 -37 0 +27 0 +20 0 +13 0 +9 0 +6 0 -3 3 
*
So

1100000
-2 0 *

+1 0 