DBRep_DrawableShape

CASCADE Topology V1, (c) Matra-Datavision
Locations 17
1
              1               0               0            -120 
              0               1               0           -38.1 
              0               0               1           -41.7 
1
              1               0               0            -120 
              0               1               0           -38.1 
              0               0               1           -41.7 
1
              1               0               0            -120 
              0               1               0           -38.1 
              0               0               1           -41.7 
2  2 1 3 -1 0
2  1 -1 3 1 2 -1 0
1
              0               0               1           -94.6 
              1               0               0           -38.1 
              0               1               0           -41.7 
2  6 1 3 -1 0
2  2 1 6 -1 0
2  3 1 6 -1 0
2  1 -1 3 1 6 -1 0
2  1 -1 0
1
              1               0               0             -13 
              0               1               0              -0 
              0               0               1              -0 
2  6 1 3 -1 12 1 0
2  12 -1 3 1 6 -1 0
2  6 -1 0
2  1 -1 12 -1 3 1 6 -1 0
2  3 -1 12 1 0
Curve2ds 48
1 0 0 1 0 
1 0 0 1 0 
1 83.400000000000006 0 0 -1 
1 0 0 0 1 
1 0 -130.40000000000001 1 0 
1 0 0 1 0 
1 0 0 0 -1 
1 0 0 0 1 
1 0 0 0 1 
1 0 0 1 0 
1 0 25.399999999999999 1 0 
1 0 0 1 0 
1 83.400000000000006 0 0 1 
1 0 0 1 0 
1 0 130.40000000000001 1 0 
1 83.400000000000006 0 0 1 
1 25.399999999999999 0 0 1 
1 83.400000000000006 0 0 -1 
1 0 0 0 1 
1 0 130.40000000000001 1 0 
1 0 25.399999999999999 1 0 
1 0 -130.40000000000001 1 0 
1 25.399999999999999 0 0 1 
1 0 0 0 -1 
1 12.799999999999997 -13.199999999999999 1.0248212535001446e-16 -1 
1 0 0 1 0 
1 12.800000000000008 -117.19999999999999 1 0 
1 0 0 1 0 
1 70.599999999999994 -13.199999999999999 1.3664283380001927e-16 -1 
1 0 0 1 0 
1 70.599999999999994 -13.199999999999999 -1 0 
1 0 0 1 0 
1 0 0 0 -1 
1 57.799999999999997 0 0 -1 
1 0 -13 1 0 
1 0 -0 -1.0248212535001446e-16 -1 
1 104 0 0 -1 
1 0 0 0 -1 
1 0 -13 1 0 
1 -1.0658141036401503e-14 -104 -1 -0 
1 57.799999999999997 0 0 -1 
1 104 0 0 -1 
1 0 0 0 -1 
1 0 0 0 -1 
1 0 -13 1 0 
1 -57.799999999999997 -0 -1.3664283380001927e-16 -1 
1 0 -13 1 0 
1 -57.799999999999997 -0 1 0 
Curves 24
1 0 0 0 0 0 1 
1 0 0 83.400000000000006 -0 1 0 
1 0 130.40000000000001 0 0 0 1 
1 0 0 0 -0 1 0 
1 0 0 0 1 0 -0 
1 25.399999999999999 0 0 0 0 1 
1 0 0 83.400000000000006 1 0 -0 
1 0 130.40000000000001 83.400000000000006 1 0 -0 
1 25.399999999999999 0 83.400000000000006 0 1 0 
1 0 130.40000000000001 0 1 0 -0 
1 25.399999999999999 130.40000000000001 0 0 0 1 
1 25.399999999999999 0 0 -0 1 0 
1 13.199999999999999 12.799999999999997 0 1 1.0248212535001446e-16 0 
1 117.2 12.800000000000008 0 0 1 0 
1 13.199999999999999 70.599999999999994 0 1 1.3664283380001927e-16 0 
1 13.199999999999999 70.599999999999994 0 0 -1 0 
1 25.400000000000006 13.199999999999999 12.799999999999997 -1 -0 -0 
1 13.199999999999999 12.799999999999997 0 1 1.0248212535001446e-16 0 
1 25.400000000000006 117.19999999999999 12.800000000000008 -1 -0 -0 
1 117.2 12.800000000000008 0 0 1 0 
1 25.400000000000006 117.19999999999999 70.600000000000009 -1 -0 -0 
1 25.400000000000006 13.199999999999999 70.599999999999994 -1 -0 -0 
1 13.199999999999999 70.599999999999994 0 1 1.3664283380001927e-16 0 
1 13.199999999999999 70.599999999999994 0 0 -1 0 
Polygon3D 0
PolygonOnTriangulations 0
Surfaces 11
1 0 0 0 1 0 -0 0 0 1 0 -1 0 
1 0 0 0 -0 1 0 0 0 1 1 0 -0 
1 0 0 83.400000000000006 0 0 1 1 0 -0 -0 1 0 
1 0 130.40000000000001 0 -0 1 0 0 0 1 1 0 -0 
1 0 0 0 0 0 1 1 0 -0 -0 1 0 
1 25.399999999999999 0 0 1 0 -0 0 0 1 0 -1 0 
1 25.400000000000006 13.199999999999999 12.799999999999997 0 1.0248212535001446e-16 -1 0 1 1.0248212535001446e-16 1 -0 0 
1 25.400000000000006 117.2 12.800000000000008 0 1 0 0 -0 1 1 0 -0 
1 25.400000000000006 13.199999999999999 70.599999999999994 0 1.3664283380001927e-16 -1 0 1 1.3664283380001927e-16 1 -0 0 
1 25.400000000000006 13.199999999999999 70.599999999999994 0 -1 0 0 0 -1 1 0 0 
1 -94.599999999999994 -24.900000000000002 -28.900000000000006 -1 0 0 0 0 -1 -0 -1 -0 
Triangulations 0

TShapes 65
Ve
1e-07
-120 -38.1 41.7
0 0

0101101
*
Ve
1e-07
-120 -38.1 -41.7
0 0

0101101
*
Ed
 1e-07 1 1 0
1  1 0 0 83.4
2  1 1 0 0 83.4
2  2 2 0 0 83.4
0

0101000
-65 5 +64 5 *
Ve
1e-07
-120 92.3 41.7
0 0

0101101
*
Ed
 1e-07 1 1 0
1  2 0 0 130.4
2  3 1 0 0 130.4
2  4 3 0 0 130.4
0

0101000
-62 5 +65 5 *
Ve
1e-07
-120 92.3 -41.7
0 0

0101101
*
Ed
 1e-07 1 1 0
1  3 0 0 83.4
2  5 1 0 0 83.4
2  6 4 0 0 83.4
0

0101000
-62 5 +60 5 *
Ed
 1e-07 1 1 0
1  4 0 0 130.4
2  7 1 0 0 130.4
2  8 5 0 0 130.4
0

0101000
-60 5 +64 5 *
Wi

0101000
-63 0 -61 0 +59 0 +58 0 *
Fa
0  1e-07 1 0

0101000
+57 0 *
Ve
1e-07
-94.6 -38.1 -41.7
0 0

0101101
*
Ed
 1e-07 1 1 0
1  5 0 0 25.4
2  9 2 0 0 25.4
2  10 5 0 0 25.4
0

0101000
-55 5 +64 5 *
Ve
1e-07
-94.6 -38.1 41.7
0 0

0101101
*
Ed
 1e-07 1 1 0
1  6 0 0 83.4
2  11 2 0 0 83.4
2  12 6 0 0 83.4
0

0101000
-53 5 +55 5 *
Ed
 1e-07 1 1 0
1  7 0 0 25.4
2  13 2 0 0 25.4
2  14 3 0 0 25.4
0

0101000
-53 5 +65 5 *
Wi

0101000
-54 0 -52 0 +51 0 +63 0 *
Fa
0  1e-07 2 0

0101000
+50 0 *
Ve
1e-07
-94.6 92.3 41.7
0 0

0101101
*
Ed
 1e-07 1 1 0
1  8 0 0 25.4
2  15 3 0 0 25.4
2  16 4 0 0 25.4
0

0101000
-48 5 +62 5 *
Ed
 1e-07 1 1 0
1  9 0 0 130.4
2  17 3 0 0 130.4
2  18 6 0 0 130.4
0

0101000
-48 5 +53 5 *
Wi

0101000
-61 0 -47 0 +46 0 +51 0 *
Fa
0  1e-07 3 0

0101000
+45 0 *
Ve
1e-07
-94.6 92.3 -41.7
0 0

0101101
*
Ed
 1e-07 1 1 0
1  10 0 0 25.4
2  19 4 0 0 25.4
2  20 5 0 0 25.4
0

0101000
-43 5 +60 5 *
Ed
 1e-07 1 1 0
1  11 0 0 83.4
2  21 4 0 0 83.4
2  22 6 0 0 83.4
0

0101000
-48 5 +43 5 *
Wi

0101000
-42 0 -41 0 +47 0 +59 0 *
Fa
0  1e-07 4 0

0101000
+40 0 *
Ed
 1e-07 1 1 0
1  12 0 0 130.4
2  23 5 0 0 130.4
2  24 6 0 0 130.4
0

0101000
-43 5 +55 5 *
Wi

0101000
-58 0 -42 0 +38 0 +54 0 *
Fa
0  1e-07 5 0

0101000
+37 0 *
Ve
1e-07
-94.6 -24.9 -28.9
0 0

0101101
*
Ve
1e-07
-94.6 79.1 -28.9
0 0

0101101
*
Ed
 1e-07 1 1 0
1  13 0 0 104
2  25 6 8 0 104
2  26 7 9 0 104
0

0101000
+35 10 -34 10 *
Ve
1e-07
-94.6 79.1 28.9
0 0

0101101
*
Ed
 1e-07 1 1 0
1  14 0 0 57.8
2  27 6 8 0 57.8
2  28 8 9 0 57.8
0

0101000
+34 10 -32 10 *
Ve
1e-07
-94.6 -24.9 28.9
0 0

0101101
*
Ed
 1e-07 1 1 0
1  15 0 0 104
2  29 6 8 0 104
2  30 9 9 0 104
0

0101000
+30 10 -32 10 *
Ed
 1e-07 1 1 0
1  16 0 0 57.8
2  31 6 8 0 57.8
2  32 10 9 0 57.8
0

0101000
+30 10 -35 10 *
Wi

0101000
-33 7 -31 7 +29 7 -28 7 *
Wi

0101000
-52 4 -46 4 +38 4 +41 4 *
Fa
0  1e-07 6 4

0101000
+27 0 +26 0 *
Ve
1e-07
-107.6 -24.9 -28.9
0 0

0101101
*
Ed
 1e-07 1 1 0
1  17 0 0 13
2  33 7 0 0 13
2  34 10 0 0 13
0

0101000
+35 11 -24 11 *
Ve
1e-07
-107.6 79.1 -28.9
0 0

0101101
*
Ed
 1e-07 1 1 0
1  18 0 0 104
2  35 7 14 0 104
2  36 11 15 0 104
0

0101000
+24 16 -22 16 *
Ed
 1e-07 1 1 0
1  19 0 0 13
2  37 7 0 0 13
2  38 8 0 0 13
0

0101000
+34 11 -22 11 *
Wi

0101000
+23 0 -33 7 +21 13 -20 0 *
Fa
0  1e-07 7 0

0101000
+19 0 *
Ve
1e-07
-107.6 79.1 28.9
0 0

0101101
*
Ed
 1e-07 1 1 0
1  20 0 0 57.8
2  39 8 14 0 57.8
2  40 11 15 0 57.8
0

0101000
+22 16 -17 16 *
Ed
 1e-07 1 1 0
1  21 0 0 13
2  41 8 0 0 13
2  42 9 0 0 13
0

0101000
+32 11 -17 11 *
Wi

0101000
+20 0 -31 7 +16 13 -15 0 *
Fa
0  1e-07 8 0

0101000
+14 0 *
Ve
1e-07
-107.6 -24.9 28.9
0 0

0101101
*
Ed
 1e-07 1 1 0
1  22 0 0 13
2  43 9 0 0 13
2  44 10 0 0 13
0

0101000
+30 11 -12 11 *
Ed
 1e-07 1 1 0
1  23 0 0 104
2  45 9 14 0 104
2  46 11 15 0 104
0

0101000
+12 16 -17 16 *
Wi

0101000
+11 0 -29 7 +10 13 -15 0 *
Fa
0  1e-07 9 0

0101000
+9 0 *
Ed
 1e-07 1 1 0
1  24 0 0 57.8
2  47 10 14 0 57.8
2  48 11 15 0 57.8
0

0101000
+12 16 -24 16 *
Wi

0101000
+11 0 -28 7 +7 13 -23 0 *
Fa
0  1e-07 10 0

0101000
+6 0 *
Wi

0101100
+21 0 +16 0 -10 0 +7 0 *
Fa
0  1e-07 11 0

0101000
-4 6 *
Sh

0101000
-56 4 -49 4 +44 4 +39 4 -36 4 +25 0 -18 0 -13 0 +8 0 -5 0 
-3 17 *
So

0100000
+2 0 *

+1 1 