DBRep_DrawableShape

CASCADE Topology V1, (c) Matra-Datavision
Locations 10
1
              1               0               0              -0 
              0               1               0               0 
              0               0               1               5 
1
              1               0               0               0 
              0               1               0               0 
              0               0               1               0 
2  1 1 2 -1 0
2  2 1 1 -1 0
2  1 -1 0
1
              1               0               0               0 
              0               1               0               0 
              0               0               1              15 
2  1 1 2 -1 6 1 0
2  6 -1 2 1 1 -1 0
2  2 -1 0
2  2 -1 6 1 0
Curve2ds 48
1 0 0 0 -1 
1 60 0 0 -1 
1 120 0 0 -1 
1 0 0 0 -1 
1 0 0 1 0 
1 0 0 -1 0 
1 0 -15 1 0 
1 0 0 -1 0 
1 60 0 0 -1 
1 0 -0 0 -1 
1 0 0 1 0 
1 -120 0 0 1 
1 0 -15 1 0 
1 -120 0 0 1 
1 120 0 0 -1 
1 0 0 0 -1 
1 0 -0 1 0 
1 -120 60 1 0 
1 0 -15 1 0 
1 -120 60 1 0 
1 0 0 1 0 
1 0 60 0 -1 
1 0 -15 1 0 
1 0 60 0 -1 
1 0 0 0 -1 
1 50 0 0 -1 
1 110 0 0 -1 
1 0 0 0 -1 
1 0 0 1 0 
1 -5 5 -1 0 
1 0 -15 1 0 
1 -5 5 -1 0 
1 50 0 0 -1 
1 0 -0 0 -1 
1 0 0 1 0 
1 -115 5 0 1 
1 0 -15 1 0 
1 -115 5 0 1 
1 110 0 0 -1 
1 0 0 0 -1 
1 0 -0 1 0 
1 -115 55 1 0 
1 0 -15 1 0 
1 -115 55 1 0 
1 0 0 1 0 
1 -5 55 0 -1 
1 0 -15 1 0 
1 -5 55 0 -1 
Curves 24
1 0 -30 5 0 0 1 
1 120 -30 5 0 0 1 
1 0 -30 0 1 0 0 
1 0 -30 0 1 0 0 
1 120 30 5 0 0 1 
1 120 -30 0 0 1 0 
1 120 -30 0 0 1 0 
1 0 30 5 0 0 1 
1 120 30 0 -1 0 0 
1 120 30 0 -1 0 0 
1 0 30 0 0 -1 0 
1 0 30 0 0 -1 0 
1 5 -25 5 0 0 1 
1 115 -25 5 0 0 1 
1 5 -25 0 1 0 0 
1 5 -25 0 1 0 0 
1 115 25 5 0 0 1 
1 115 -25 0 0 1 0 
1 115 -25 0 0 1 0 
1 5 25 5 0 0 1 
1 115 25 0 -1 0 0 
1 115 25 0 -1 0 0 
1 5 25 0 0 -1 0 
1 5 25 0 0 -1 0 
Polygon3D 0
PolygonOnTriangulations 0
Surfaces 10
1 0 -30 5 0 1 0 1 0 0 0 0 -1 
1 0 30 5 1 0 -0 0 -1 0 0 -0 -1 
1 120 -30 5 -1 0 0 0 1 0 0 0 -1 
1 0 -30 5 0 0 -1 -1 0 -0 0 1 0 
1 0 -30 5 0 0 -1 -1 0 -0 0 1 0 
1 120 30 5 0 -1 0 -1 0 0 -0 -0 -1 
1 5 -25 5 0 1 0 1 0 0 0 0 -1 
1 5 25 5 1 0 -0 0 -1 0 0 -0 -1 
1 115 -25 5 -1 0 0 0 1 0 0 0 -1 
1 115 25 5 0 -1 0 -1 0 0 -0 -0 -1 
Triangulations 0

TShapes 64
Ve
1e-07
0 -30 5
0 0

0101101
*
Ve
1e-07
0 -30 20
0 0

0101101
*
Ed
 1e-07 1 1 0
1  1 0 0 15
2  1 1 0 0 15
2  2 2 0 0 15
0

0101000
+64 0 -63 0 *
Ve
1e-07
120 -30 5
0 0

0101101
*
Ve
1e-07
120 -30 20
0 0

0101101
*
Ed
 1e-07 1 1 0
1  2 0 0 15
2  3 1 0 0 15
2  4 3 0 0 15
0

0101000
+61 0 -60 0 *
Ed
 1e-07 1 1 0
1  3 0 0 120
2  5 1 4 0 120
2  6 4 5 0 120
0

0101000
+64 4 -61 4 *
Ed
 1e-07 1 1 0
1  4 0 0 120
2  7 1 8 0 120
2  8 5 5 0 120
0

0101000
+63 8 -60 8 *
Wi

0101000
+62 0 -59 0 -58 3 +57 7 *
Fa
0  1e-07 1 0

0101000
+56 0 *
Ve
1e-07
120 30 5
0 0

0101101
*
Ve
1e-07
120 30 20
0 0

0101101
*
Ed
 1e-07 1 1 0
1  5 0 0 15
2  9 3 0 0 15
2  10 6 0 0 15
0

0101000
+54 0 -53 0 *
Ed
 1e-07 1 1 0
1  6 0 0 60
2  11 3 4 0 60
2  12 4 5 0 60
0

0101000
+61 4 -54 4 *
Ed
 1e-07 1 1 0
1  7 0 0 60
2  13 3 8 0 60
2  14 5 5 0 60
0

0101000
+60 8 -53 8 *
Wi

0101000
+59 0 -52 0 -51 3 +50 7 *
Fa
0  1e-07 3 0

0101000
+49 0 *
Ve
1e-07
0 30 5
0 0

0101101
*
Ve
1e-07
0 30 20
0 0

0101101
*
Ed
 1e-07 1 1 0
1  8 0 0 15
2  15 6 0 0 15
2  16 2 0 0 15
0

0101000
+47 0 -46 0 *
Ed
 1e-07 1 1 0
1  9 0 0 120
2  17 6 4 0 120
2  18 4 5 0 120
0

0101000
+54 4 -47 4 *
Ed
 1e-07 1 1 0
1  10 0 0 120
2  19 6 8 0 120
2  20 5 5 0 120
0

0101000
+53 8 -46 8 *
Wi

0101000
+52 0 -45 0 -44 3 +43 7 *
Fa
0  1e-07 6 0

0101000
+42 0 *
Ed
 1e-07 1 1 0
1  11 0 0 60
2  21 2 4 0 60
2  22 4 5 0 60
0

0101000
+47 4 -64 4 *
Ed
 1e-07 1 1 0
1  12 0 0 60
2  23 2 8 0 60
2  24 5 5 0 60
0

0101000
+46 8 -63 8 *
Wi

0101000
+45 0 -62 0 -40 3 +39 7 *
Fa
0  1e-07 2 0

0101000
+38 0 *
Ve
1e-07
5 -25 5
0 0

0101101
*
Ve
1e-07
5 -25 20
0 0

0101101
*
Ed
 1e-07 1 1 0
1  13 0 0 15
2  25 7 0 0 15
2  26 8 0 0 15
0

0101000
+36 0 -35 0 *
Ve
5.09001269276204e-05
115 -25 5
0 0

0101101
*
Ve
5.09001269276204e-05
115 -25 20
0 0

0101101
*
Ed
 1e-07 1 1 0
1  14 0 0 15
2  27 7 0 0 15
2  28 9 0 0 15
0

0101000
+33 0 -32 0 *
Ed
 1e-07 1 1 0
1  15 0 0 110
2  29 7 4 0 110
2  30 4 5 0 110
0

0101000
+36 4 -33 4 *
Ed
 1e-07 1 1 0
1  16 0 0 110
2  31 7 8 0 110
2  32 5 5 0 110
0

0101000
+35 8 -32 8 *
Wi

0101000
+34 0 -31 0 -30 3 +29 7 *
Fa
0  1e-07 7 0

0101000
+28 0 *
Ve
1e-07
115 25 5
0 0

0101101
*
Ve
1e-07
115 25 20
0 0

0101101
*
Ed
 1e-07 1 1 0
1  17 0 0 15
2  33 9 0 0 15
2  34 10 0 0 15
0

0101000
+26 0 -25 0 *
Ed
 1e-07 1 1 0
1  18 0 0 50
2  35 9 4 0 50
2  36 4 5 0 50
0

0101000
+33 4 -26 4 *
Ed
 1e-07 1 1 0
1  19 0 0 50
2  37 9 8 0 50
2  38 5 5 0 50
0

0101000
+32 8 -25 8 *
Wi

0101000
+31 0 -24 0 -23 3 +22 7 *
Fa
0  1e-07 9 0

0101000
+21 0 *
Ve
1e-07
5 25 5
0 0

0101101
*
Ve
1e-07
5 25 20
0 0

0101101
*
Ed
 1e-07 1 1 0
1  20 0 0 15
2  39 10 0 0 15
2  40 8 0 0 15
0

0101000
+19 0 -18 0 *
Ed
 1e-07 1 1 0
1  21 0 0 110
2  41 10 4 0 110
2  42 4 5 0 110
0

0101000
+26 4 -19 4 *
Ed
 1e-07 1 1 0
1  22 0 0 110
2  43 10 8 0 110
2  44 5 5 0 110
0

0101000
+25 8 -18 8 *
Wi

0101000
+24 0 -17 0 -16 3 +15 7 *
Fa
0  1e-07 10 0

0101000
+14 0 *
Ed
 1e-07 1 1 0
1  23 0 0 50
2  45 8 4 0 50
2  46 4 5 0 50
0

0101000
+19 4 -36 4 *
Ed
 1e-07 1 1 0
1  24 0 0 50
2  47 8 8 0 50
2  48 5 5 0 50
0

0101000
+18 8 -35 8 *
Wi

0101000
+17 0 -34 0 -12 3 +11 7 *
Fa
0  1e-07 8 0

0101000
+10 0 *
Wi

0101100
+58 0 +51 0 +44 0 +40 0 *
Wi

0101100
+30 0 +23 0 +16 0 +12 0 *
Fa
0  1e-07 4 0

0101000
-8 1 +7 1 *
Wi

0101100
+57 0 +50 0 +43 0 +39 0 *
Wi

0101100
+29 0 +22 0 +15 0 +11 0 *
Fa
0  1e-07 5 0

0101000
-5 1 +4 1 *
Sh

0101000
-55 0 -48 0 -41 0 -37 0 +27 0 +20 0 +13 0 +9 0 +6 9 -3 10 
*
So

1100000
+2 0 *

+1 0 