DBRep_DrawableShape

CASCADE Topology V1, (c) Matra-Datavision
Locations 59
1
0.866025492309798 0.499999846669548               0           16000 
-0.499999846669548 0.866025492309798              -0            3500 
             -0               0               1               0 
1
              0               0               1             100 
              1               0               0               0 
              0               1               0               0 
2  1 -1 2 -1 0
1
              0               0               1             100 
              1               0               0               0 
              0               1               0               0 
1
              0 1.11022302462516e-16               1             100 
              1               0 1.11022302462516e-16               0 
1.11022302462516e-16               1               0               0 
2  4 1 5 -1 0
2  5 1 4 -1 0
2  4 -1 0
2  1 -1 2 -1 5 1 4 -1 0
1
              1               0               0               0 
              0               1               0 1.99840144432528e-13 
              0               0               1            1800 
2  4 1 5 -1 10 1 0
2  10 -1 5 1 4 -1 0
2  1 -1 2 -1 10 -1 5 1 4 -1 0
2  4 1 5 -1 2 1 0
1
              1               0               0               0 
              0 1.11022302462516e-16              -1               0 
              0               1 1.11022302462516e-16               0 
1
              1               0               0               0 
              0               1               0 -2.1094237467878e-13 
              0               0               1            -950 
1
              1               0              -0               0 
             -0 4.44089209850063e-16              -1               0 
              0               1 4.44089209850063e-16               0 
2  15 -1 16 1 17 1 2 -1 5 1 4 -1 0
2  4 1 5 -1 10 1 2 1 0
1
              1               0               0               0 
              0 -2.22044604925031e-16              -1               0 
              0               1 -2.22044604925031e-16               0 
1
              1               0               0               0 
              0               1               0 -2.1094237467878e-13 
              0               0               1            -950 
1
              1               0              -0               0 
             -0 2.22044604925031e-16              -1               0 
              0               1 2.22044604925031e-16               0 
2  20 -1 21 1 22 1 2 -1 10 -1 5 1 4 -1 0
2  17 1 2 -1 5 1 4 -1 0
2  22 1 2 -1 10 -1 5 1 4 -1 0
2  5 -1 2 1 0
2  5 -1 2 1 17 -1 0
2  1 -1 17 -1 0
2  5 -1 10 1 2 1 0
2  5 -1 10 1 2 1 22 -1 0
2  1 -1 22 -1 0
2  2 1 17 -1 0
2  2 1 22 -1 0
2  15 -1 16 1 17 1 0
1
              1               0              -0               0 
             -0 4.44089209850063e-16              -1               0 
              0               1 4.44089209850063e-16               0 
2  35 1 15 -1 16 1 17 1 0
2  35 -1 0
2  16 -1 15 1 35 -1 0
2  1 -1 17 -1 16 -1 15 1 35 -1 0
2  20 -1 21 1 22 1 0
1
              1               0              -0               0 
             -0 2.22044604925031e-16              -1               0 
              0               1 2.22044604925031e-16               0 
2  41 1 20 -1 21 1 22 1 0
2  41 -1 0
2  21 -1 20 1 41 -1 0
2  1 -1 22 -1 21 -1 20 1 41 -1 0
2  35 1 15 -1 17 1 0
2  15 1 35 -1 0
2  1 -1 17 -1 15 1 35 -1 0
2  41 1 20 -1 22 1 0
2  20 1 41 -1 0
2  1 -1 22 -1 20 1 41 -1 0
2  15 -1 17 1 2 -1 5 1 4 -1 0
2  20 -1 22 1 2 -1 10 -1 5 1 4 -1 0
2  35 1 15 -1 0
2  35 1 15 -1 16 1 0
2  41 1 20 -1 0
2  41 1 20 -1 21 1 0
2  15 -1 17 1 0
2  20 -1 22 1 0
Curve2ds 88
1 0 0 -1.1102230246251568e-16 -1 
1 699.99999999999989 4.4337959222777431e-46 1.1102230246251568e-16 -1 
1 100 -1.1102230246251569e-14 -1.1102230246251568e-16 -1 
1 -0 0 -1.4755625669398027e-16 -1 
1 0 0 1 0 
1 700 -950 -1.1102230246251565e-16 1 
1 -1.998401444325282e-13 -1799.9999999999998 1 0 
1 700 -950 -1.1102230246251565e-16 1 
1 0 0 1.1102230246251568e-16 -1 
1 949.99999999999989 5.9952043329758579e-15 1.1102230246251568e-16 -1 
1 0 0 1 0 
1 6.3282712403633933e-13 100.0000000000001 1 0 
1 1.9984014443252818e-13 -1799.9999999999998 1 0 
1 6.2172489379008766e-13 -3.5015546018257737e-11 1 0 
1 0 0 1 0 
1 1.0547118733938987e-13 -949.99999999999989 1 -1.1102230246251565e-16 
1 1.9984014443252818e-13 -1799.9999999999998 1 0 
1 1.0547118733938988e-13 -949.99999999999989 1 -1.1102230246251565e-16 
1 -0 0 1 1.2325951644078307e-32 
1 700 -850 -0.90618313999526545 0.42288546533112398 
1 -2.9055168363560107e-13 -1799.9999999999998 1 1.2325951644078307e-32 
1 700 -850 -0.90618313999526545 0.42288546533112398 
1 -0 0 1 1.2325951644078307e-32 
1 700.00000000000057 -849.99999999999943 -0.90618313999526579 0.42288546533112326 
1 -2.9055168363560107e-13 -1799.9999999999998 1 1.2325951644078307e-32 
1 -150.00000000000091 -849.99999999999955 0.90618313999526579 0.42288546533112337 
1 496.58836071740552 5.1070259132757264e-15 -1.4755625669398027e-16 -1 
1 639.99999999999989 0 1.1102230246251568e-16 -1 
1 549.99999999999977 -4.2743586448068522e-13 -5.5511151231257847e-16 -1 
1 1.6887190590729344e-07 0 0 -1 
1 549.99999999999955 -3.6637359812630161e-13 -3.3306690738754696e-16 -1 
1 3.1415914822213331 0 0 -1 
1 0 0 1.1102230246251568e-16 -1 
1 0 0 1.1102230246251568e-16 -1 
1 3.1554436208840479e-30 -2.8421709430404007e-14 1 1.1102230246251575e-16 
1 100.00000000000003 0 0 -1 
1 1.9984014443253209e-13 -1800.0000000000348 1 1.1102230246251573e-16 
1 0 0 0 -1 
1 0 0 0 1 
1 0 -949.99999999999966 1 0 
1 549.99999999999989 0 -1 0 
1 -1.6986412276764885e-13 -949.99999999999966 1 0 
2 549.99999155640455 50.000000000000007 0 1 1 -0 49.999999999999993
1 0 -949.99999999999977 1 0 
1 0 0 0 1 
1 0 -949.99999999999966 1 0 
1 0 99.999999999965667 1 0 
1 2.1094237467877964e-13 -949.99999999999966 1 0 
2 549.99994143157687 49.999999999965667 0 1 1 -0 50
1 0 -949.99999999999977 1 0 
1 0 0 1 0 
1 0 100.00000000000001 1 0 
1 549.99999999999977 0 1.1102230246251565e-16 -1 
1 1.6887190590729344e-07 0 0 -1 
1 249.99999999999997 1.6653345369377351e-13 7.7715611723760978e-16 -1 
1 0 0 1 0 
1 -1.1368683772161603e-13 7.5730646901217133e-29 1 0 
1 549.99999999999989 0 -1 0 
1 299.9999999999996 1.3877787807814472e-13 -6.6613381477509392e-16 -1 
1 1.998401444325282e-13 -1799.9999999999998 1 0 
1 -3.363116314379561e-44 -5.0487097934144756e-29 -2.2204460492503131e-16 -1 
1 3.1415914822213331 0 0 -1 
1 0 0 1.1102230246251568e-16 -1 
1 249.99999999999997 0 1.1102230246251568e-16 -1 
1 0 0 1 0 
2 549.99999155640455 50.000000000000007 0 1 1 -0 49.999999999999993
1 3.1415924847178873 0 0 -1 
1 0 0 -1.1102230246251565e-16 -1 
1 1.1713684600067609e-06 0 0 -1 
1 549.99999999999977 -1.0097419586828951e-28 2.2204460492503131e-16 -1 
1 0 0 1 0 
2 549.99994143157687 49.999999999965667 0 1 1 -0 50
1 0 0 1 0 
1 0 100 1 0 
1 1.9984014443252818e-13 -1799.9999999999998 1 0 
1 1.9984014443252818e-13 -3.5015546018257737e-11 1 0 
1 0 0 0 -1 
1 549.99999999999977 0 -1.1102230246251565e-16 -1 
1 0 0 1 0 
1 0 0 0 1 
1 0 0 1 0 
1 0 0 0 1 
1 99.999999999965667 0 0 -1 
1 0 0 2.2204460492503131e-16 -1 
1 -1.1368683772161603e-13 3.7865323450608589e-29 1 0 
1 549.99999999999989 0 -1 0 
1 0 0 1 0 
1 0 99.999999999965667 1 0 
Curves 44
1 950 699.99999999999989 9.9475983006414026e-14 0 1.1102230246251568e-16 1 
1 850 699.99999999999989 9.9475983006414026e-14 0 1.1102230246251568e-16 1 
1 950 700 0 -1 0 0 
1 950 700 0 -1 0 0 
1 949.99999999999989 0 9.9475983006414026e-14 0 1.1102230246251568e-16 1 
1 950 0 0 0 1 0 
1 950 0 0 0 1 0 
1 950 0 0 0 1 0 
1 950 0 0 0 1 0 
1 850 700 0 -0.42288546533112387 -0.90618313999526545 0 
1 850 700 0 -0.42288546533112387 -0.90618313999526545 0 
1 850 700 0 -0.42288546533112387 -0.90618313999526545 0 
1 850 700 0 -0.42288546533112387 -0.90618313999526545 0 
1 639.99999999999989 249.99999999999997 7.1054273576010019e-14 0 1.1102230246251568e-16 1 
1 99.999999999999659 549.99999999999989 -1.8318679906315083e-13 0 -2.2204460492503141e-16 -1 
1 1900.0000000000346 549.99999999999989 -2.4424906541753444e-13 0 -2.2204460492503131e-16 -1 
1 0 0 0 0 1.1102230246251568e-16 1 
1 100.00000000000001 0 0 0 -2.2204460492503141e-16 -1 
1 1900.0000000000346 0 0 0 -2.2204460492503131e-16 -1 
1 0 0 0 1 0 0 
1 0 550 0 0 -1 0 
2 50 549.99999155640467 0 0 0 1 1 0 -0 -0 1 0 50
1 1900.0000000000343 0 0 1 0 0 
1 2000 0 0 0 1 0 
2 1950 549.99994143157699 0 0 0 1 1 0 -0 -0 1 0 50
1 100 0 0 0 1 0 
1 99.999999999999659 549.99999999999989 -1.8318679906315083e-13 0 -2.2204460492503141e-16 -1 
1 0 250 0 1 0 0 
1 1900.0000000000343 550 0 0 -1 0 
1 0 250 0 1 0 0 
1 1900.0000000000346 549.99999999999989 -2.4424906541753444e-13 0 -2.2204460492503131e-16 -1 
1 2.7755575615628914e-14 249.99999999999997 0 0 1.1102230246251568e-16 1 
2 50 549.99999155640467 0 0 0 1 1 0 -0 -0 1 0 50
1 3.5527136788005014e-13 549.99999999999989 -1.8318679906315083e-13 0 -2.2204460492503141e-16 -1 
1 1999.9999999999829 549.99999999999989 -2.4424906541753444e-13 0 -2.2204460492503131e-16 -1 
2 1950 549.99994143157699 0 0 0 1 1 0 -0 -0 1 0 50
1 0 0 0 0 1 0 
1 0 0 0 0 1 0 
1 0 0 0 0 -2.2204460492503141e-16 -1 
1 0 0 0 1 0 0 
1 1900.0000000000343 0 0 1 0 0 
1 2000.0000000000002 0 0 0 -2.2204460492503131e-16 -1 
1 0 550 0 0 -1 0 
1 2000 0 0 0 1 0 
Polygon3D 0
PolygonOnTriangulations 0
Surfaces 20
1 950 699.99999999999989 1.0547118733938987e-13 -1.2325951644078315e-32 -1 1.1102230246251568e-16 -1 0 -1.1102230246251568e-16 1.1102230246251568e-16 -1.1102230246251568e-16 -1 
1 949.99999999999989 0 1.0547118733938987e-13 -1 1.1102230246251568e-16 -1.2325951644078315e-32 1.1102230246251568e-16 1 0 1.2325951644078315e-32 -1.3684555315672051e-48 -1 
1 850 699.99999999999989 9.4368957093138306e-14 0.90618313999526545 -0.42288546533112398 4.6949718038993736e-17 -0.42288546533112398 -0.90618313999526545 -4.6949718038993687e-17 6.2399396274552592e-17 2.2690689554382718e-17 -1 
1 100 0 0 1 0 0 -0 0 1 0 -1 0 
1 100 0 0 1 0 0 -0 0 1 0 -1 0 
1 0 0 0 1.2325951644078315e-32 1 -1.1102230246251568e-16 1 0 1.1102230246251568e-16 1.1102230246251568e-16 -1.1102230246251568e-16 -1 
1 0 0 0 0 1 -4.4408920985006271e-16 0 4.4408920985006271e-16 1 1 -0 0 
1 1900.0000000000346 0 0 0 1 -2.2204460492503136e-16 0 2.2204460492503136e-16 1 1 -0 0 
1 100.00000000000001 0 0 1 0 0 0 1 -3.3306690738754706e-16 -0 3.3306690738754706e-16 1 
1 1900.0000000000346 549.99999999999989 -2.4424906541753439e-13 -1 -0 0 0 -1 4.4408920985006262e-16 0 4.4408920985006262e-16 1 
1 2.7755575615628914e-14 249.99999999999997 0 1.2325951644078315e-32 1 -1.1102230246251568e-16 1 0 1.1102230246251568e-16 1.1102230246251568e-16 -1.1102230246251568e-16 -1 
2 50.000000000000007 549.99999155640455 -1.8318679625086867e-13 -0 3.3306690738754706e-16 1 1 0 0 0 1 -3.3306690738754706e-16 49.999999999999993
2 1950.0000000000002 549.99994143157687 -2.4424903940792969e-13 -0 4.4408920985006262e-16 1 1 0 0 0 1 -4.4408920985006262e-16 49.999999999999993
1 0 0 0 -1 1.1102230246251568e-16 -1.2325951644078315e-32 1.1102230246251568e-16 1 0 1.2325951644078315e-32 -1.3684555315672051e-48 -1 
1 0 0 0 0 -1 2.2204460492503141e-16 1 0 0 -0 2.2204460492503141e-16 1 
1 1900.0000000000346 0 0 0 -1 2.2204460492503131e-16 1 0 0 -0 2.2204460492503131e-16 1 
1 0 549.99999999999989 -1.8318679906315085e-13 -1 -0 0 0 -1 3.3306690738754706e-16 0 3.3306690738754706e-16 1 
1 2000.0000000000002 0 0 1 0 0 0 1 -4.4408920985006262e-16 -0 4.4408920985006262e-16 1 
1 0 0 0 0 1 -4.4408920985006271e-16 0 4.4408920985006271e-16 1 1 -0 0 
1 1900.0000000000346 0 0 0 1 -2.2204460492503136e-16 0 2.2204460492503136e-16 1 1 -0 0 
Triangulations 0

TShapes 113
Ve
1e-07
16561.602403567 4272.72423302735 700
0 0

0101101
*
Ve
1e-07
18120.4482897247 3372.72450902217 700
0 0

0101101
*
Ed
 1e-07 1 1 0
1  1 0 0 1800
2  1 1 0 0 1800
2  2 2 0 0 1800
0

0101000
+113 3 -112 3 *
Ve
1e-07
16511.6024189001 4186.12168379637 700
0 0

0101101
*
Ve
1e-07
18070.4483050577 3286.12195979119 700
0 0

0101101
*
Ed
 1e-07 1 1 0
1  2 0 0 1800
2  3 1 0 0 1800
2  4 3 0 0 1800
0

0101000
+110 3 -109 3 *
Ed
 1e-07 1 1 0
1  3 0 0 100
2  5 1 7 0 100
2  6 4 8 0 100
0

0101000
+113 9 -110 9 *
Ed
 1e-07 1 1 0
1  4 0 0 100
2  7 1 12 0 100
2  8 5 8 0 100
0

0101000
+112 13 -109 13 *
Wi

0101000
+111 0 -108 0 -107 6 +106 11 *
Fa
0  1e-07 1 0

0101000
+105 0 *
Ve
1.00000338089362e-07
16561.602403567 4272.72423302735 -3.1641356201817e-13
0 0

0101101
*
Ve
1.0001751090163e-07
18120.4482897247 3372.72450902216 -1.11022302462516e-13
0 0

0101101
*
Ed
 1e-07 1 1 0
1  5 0 0 1800
2  9 2 0 0 1800
2  10 6 0 0 1800
0

0101000
+103 3 -102 3 *
Ve
5.00001624015424e-07
16561.602403567 4272.72423302736 549.999999999999
0 0

0101101
*
Ed
 1e-07 1 1 0
1  6 0 0 549.999999999999
2  11 2 7 0 549.999999999999
2  12 7 18 0 549.999999999999
0

0101000
+103 9 -100 9 *
Ve
5.00000943120291e-07
18120.4482897247 3372.72450902215 549.999999999999
0 0

0101101
*
Ed
 1e-07 1 1 0
1  7 0 0 549.999999999999
2  13 2 12 0 549.999999999999
2  14 8 23 0 549.999999999999
0

0101000
+102 13 -98 13 *
Ed
 1e-07 1 1 0
1  8 0 549.999999999999 700
2  15 2 7 549.999999999999 700
2  16 4 8 549.999999999999 700
0

0101000
+100 9 -113 9 *
Ed
 1e-07 1 1 0
1  9 0 549.999999999999 700
2  17 2 12 549.999999999999 700
2  18 5 8 549.999999999999 700
0

0101000
+98 13 -112 13 *
Wi

0101000
+101 2 -99 14 +97 19 -96 14 +95 19 -111 2 *
Fa
0  1e-07 2 2

0101000
+94 0 *
Ve
5.00002115533534e-07
16476.6024296332 4125.49989933469 549.999999999999
0 0

0101101
*
Ed
 1e-07 1 1 0
1  10 0 0 165.529453572469
2  19 3 7 0 165.529453572469
2  20 4 8 0 165.529453572469
0

0101000
+110 9 -92 9 *
Ve
5.00036037252717e-07
18035.4483157909 3225.50017532949 549.999999999999
0 0

0101101
*
Ed
 1e-07 1 1 0
1  11 0 0 165.529453572469
2  21 3 12 0 165.529453572469
2  22 5 8 0 165.529453572469
0

0101000
+109 13 -90 13 *
Ve
1e-07
16406.6024510995 4004.25633041132 250
0 0

0101101
*
Ed
 1e-07 1 1 0
1  12 0 165.529453572469 496.588360717405
2  23 3 7 165.529453572469 496.588360717405
2  24 9 24 165.529453572469 496.588360717405
0

0101000
+92 9 -88 9 *
Ve
1e-07
17965.4483372571 3104.25660640613 250
0 0

0101101
*
Ed
 1e-07 1 1 0
1  13 0 165.529453572469 496.588360717405
2  25 3 12 165.529453572469 496.588360717405
2  26 10 25 165.529453572469 496.588360717405
0

0101000
+90 13 -86 13 *
Ed
 1e-07 1 1 0
1  14 0 0 1800
2  27 3 0 0 1800
2  28 11 0 0 1800
0

0101000
+88 3 -86 3 *
Wi

0101000
+108 2 -91 14 +89 19 -87 14 +85 19 -84 2 *
Fa
0  1e-07 3 2

0101000
+83 0 *
Ed
 1.00000355271368e-07 1 1 0
1  15 0 779.999999999999 950
2  29 4 27 779.999999999999 950
2  30 12 0 779.999999999999 950
0

0101000
+92 28 -100 28 *
Wi

0101000
+81 17 +91 14 +107 14 +96 14 *
Fa
0  1e-07 4 26

0101000
+80 0 *
Ed
 1e-07 1 1 0
1  16 0 779.999999999999 950
2  31 5 30 779.999999999999 950
2  32 13 0 779.999999999999 950
0

0101000
+90 31 -98 31 *
Wi

0101000
+78 22 +89 19 +106 19 +95 19 *
Fa
0  1e-07 5 29

0101000
+77 0 *
Ve
1.00000014210855e-07
16086.602549231 3450.00001533305 0
0 0

0101101
*
Ve
1.00017508058138e-07
17645.4484353886 2550.00029132785 9.99200722162642e-14
0 0

0101101
*
Ed
 1e-07 1 1 0
1  17 0 0 1800
2  33 6 0 0 1800
2  34 14 0 0 1800
0

0101000
+75 3 -74 3 *
Ed
 1e-07 1 1 0
1  18 0 0 950
2  35 6 32 0 950
2  36 15 0 0 950
0

0101000
+75 28 -103 28 *
Ed
 1e-07 1 1 0
1  19 0 0 950
2  37 6 33 0 950
2  38 16 0 0 950
0

0101000
+74 31 -102 31 *
Wi

0101000
+73 2 -72 17 +71 22 -101 2 *
Fa
0  1e-07 6 2

0101000
+70 0 *
Ve
1e-07
16474.9998543361 4322.72421769431 -6.32827124036339e-13
0 0

0101101
*
Ed
 1e-07 1 1 0
1  20 0 0 100
2  39 7 37 0 100
2  40 15 38 0 100
0

0101000
+68 39 -103 39 *
Ve
1.00000355271368e-07
16474.9998543361 4322.72421769431 549.999999999999
0 0

0101101
*
Ed
 1e-07 1 1 0
1  21 0 0 550
2  41 7 37 0 550
2  42 17 38 0 550
0

0101000
+66 39 -68 39 *
Ed
 1e-07 1 1 0
1  22 0 1.68871905907293e-07 3.14159248471789
2  43 7 37 1.68871905907293e-07 3.14159248471789
2  44 12 38 1.68871905907293e-07 3.14159248471789
0

0101000
+100 39 -66 39 *
Wi

0101000
-67 36 -65 36 -99 14 -64 36 *
Fa
0  1e-07 7 34

0101000
+63 0 *
Ve
1e-07
18207.0508389557 3322.72452435521 -4.21884749357559e-13
0 0

0101101
*
Ed
 1e-07 1 1 0
1  23 0 0 99.9999999999657
2  45 8 43 0 99.9999999999657
2  46 16 44 0 99.9999999999657
0

0101000
+102 45 -61 45 *
Ve
1.00017166712496e-07
18207.0508389556 3322.72452435522 549.999999999999
0 0

0101101
*
Ed
 1e-07 1 1 0
1  24 0 0 550
2  47 8 43 0 550
2  48 18 44 0 550
0

0101000
+61 45 -59 45 *
Ed
 1e-07 1 1 0
1  25 0 1.17136846000676e-06 3.14159148222133
2  49 8 43 1.17136846000676e-06 3.14159148222133
2  50 13 44 1.17136846000676e-06 3.14159148222133
0

0101000
+59 45 -98 45 *
Wi

0101000
-60 42 +97 19 -58 42 -57 42 *
Fa
0  1e-07 8 40

0101000
+56 0 *
Ve
1e-07
16086.602549231 3450.00001533305 250
0 0

0101101
*
Ve
5.00001624015424e-07
16086.602549231 3450.00001533305 550
0 0

0101101
*
Ed
 1e-07 1 1 0
1  26 0 250 550
2  51 9 47 250 550
2  52 19 37 250 550
0

0101000
+54 48 -53 48 *
Ed
 1.00000355271368e-07 1 1 0
1  27 0 0 779.999999999999
2  53 9 0 0 779.999999999999
2  54 12 0 0 779.999999999999
4 G1 9 0 12 0
0

0101000
+53 28 -92 28 *
Ed
 1e-07 1 1 0
1  28 0 0 640
2  55 9 24 0 640
2  56 11 7 0 640
0

0101000
+54 9 -88 9 *
Wi

0101000
-52 46 -51 17 -87 14 +50 14 *
Fa
0  1e-07 9 17

0101000
+49 0 *
Ve
5.00000943120291e-07
17645.4484353886 2550.00029132785 550
0 0

0101101
*
Ve
1e-07
17645.4484353886 2550.00029132786 250
0 0

0101101
*
Ed
 1e-07 1 1 0
1  29 0 0 300
2  57 10 50 0 300
2  58 20 43 0 300
0

0101000
+47 51 -46 51 *
Ed
 1e-07 1 1 0
1  30 0 0 640
2  59 10 25 0 640
2  60 11 12 0 640
0

0101000
+46 13 -86 13 *
Ed
 1e-07 1 1 0
1  31 0 0 779.999999999999
2  61 10 0 0 779.999999999999
2  62 13 0 0 779.999999999999
4 G1 10 0 13 0
0

0101000
+47 31 -90 31 *
Wi

0101000
-45 49 -44 19 +85 19 +43 22 *
Fa
0  1e-07 10 22

0101000
+42 0 *
Ed
 1e-07 1 1 0
1  32 0 0 1800
2  63 11 0 0 1800
2  64 14 0 0 1800
0

0101000
+54 3 -46 3 *
Wi

0101000
+40 2 -50 14 +44 19 -84 2 *
Fa
0  1e-07 11 2

0101000
+39 0 *
Ve
1.00000355271368e-07
16000 3500 550
0 0

0101101
*
Ed
 1e-07 1 1 0
1  33 0 1.68871905907293e-07 3.14159248471789
2  65 12 47 1.68871905907293e-07 3.14159248471789
2  66 19 37 1.68871905907293e-07 3.14159248471789
0

0101000
+53 48 -37 48 *
Ed
 1.00000355271368e-07 1 1 0
1  34 0 0 950
2  67 12 0 0 950
2  68 17 0 0 950
4 G1 12 0 17 0
0

0101000
+37 28 -66 28 *
Wi

0101000
+51 17 -36 46 +81 17 -35 17 +64 36 *
Fa
0  1e-07 12 17

0101000
+34 0 *
Ve
1.00017166712496e-07
17732.0509846196 2500.00030666092 550
0 0

0101101
*
Ed
 1.00017166712496e-07 1 1 0
1  35 0 0 950
2  69 13 0 0 950
2  70 18 0 0 950
4 G1 13 0 18 0
0

0101000
+32 31 -59 31 *
Ed
 1e-07 1 1 0
1  36 0 1.17136846000676e-06 3.14159148222133
2  71 13 50 1.17136846000676e-06 3.14159148222133
2  72 20 43 1.17136846000676e-06 3.14159148222133
0

0101000
+32 51 -47 51 *
Wi

0101000
+31 22 -30 49 +57 42 -43 22 -78 22 *
Fa
0  1e-07 13 22

0101000
+29 0 *
Ed
 1e-07 1 1 0
1  37 0 0 250
2  73 14 7 0 250
2  74 19 52 0 250
0

0101000
+75 9 -54 9 *
Ed
 1e-07 1 1 0
1  38 0 0 250
2  75 14 12 0 250
2  76 20 53 0 250
0

0101000
+74 13 -46 13 *
Wi

0101000
+73 2 -27 14 +26 19 -40 2 *
Fa
0  1e-07 14 2

0101000
+25 0 *
Ve
1e-07
16000 3500 0
0 0

0101101
*
Ed
 1e-07 1 1 0
1  39 0 0 950
2  77 15 0 0 950
2  78 17 0 0 950
0

0101000
+23 28 -68 28 *
Ed
 1e-07 1 1 0
1  40 0 0 100
2  79 15 47 0 100
2  80 19 37 0 100
0

0101000
+23 48 -75 48 *
Wi

0101000
+22 17 -21 46 +67 36 -72 17 *
Fa
0  1e-07 15 17

0101000
+20 0 *
Ve
1e-07
17732.0509846196 2500.00030666091 0
0 0

0101101
*
Ed
 1e-07 1 1 0
1  41 0 0 99.9999999999657
2  81 16 50 0 99.9999999999657
2  82 20 43 0 99.9999999999657
0

0101000
+74 51 -18 51 *
Ed
 1e-07 1 1 0
1  42 0 0 950
2  83 16 0 0 950
2  84 18 0 0 950
0

0101000
+18 31 -61 31 *
Wi

0101000
+71 22 -17 49 +60 42 -16 22 *
Fa
0  1e-07 16 22

0101000
+15 0 *
Ed
 1e-07 1 1 0
1  43 0 0 550
2  85 17 47 0 550
2  86 19 37 0 550
0

0101000
+37 48 -23 48 *
Wi

0101000
+35 0 -22 0 -13 54 +65 55 *
Fa
0  1e-07 17 0

0101000
+12 0 *
Ed
 1e-07 1 1 0
1  44 0 0 550
2  87 18 50 0 550
2  88 20 43 0 550
0

0101000
+18 51 -32 51 *
Wi

0101000
+16 0 -31 0 -10 56 +58 57 *
Fa
0  1e-07 18 0

0101000
+9 0 *
Wi

0101000
-21 46 -13 46 -27 14 -36 46 -52 46 *
Fa
0  1e-07 19 58

0101000
+7 0 *
Wi

0101000
-17 49 +26 19 -10 49 -45 49 -30 49 *
Fa
0  1e-07 20 59

0101000
+5 0 *
Sh

0101000
-104 2 -93 0 -82 0 -79 0 +76 0 -69 0 +62 0 +55 0 +48 0 +41 0 
+38 0 +33 0 +28 0 +24 0 +19 0 +14 0 +11 17 +8 22 -6 0 -4 0 
*
So

0100000
+3 0 *
Co

1100000
+2 0 *

+1 1 