DBRep_DrawableShape

CASCADE Topology V1, (c) Matra-Datavision
Locations 33
1
              1               0               0               0 
              0              -1               0               0 
              0               0              -1               0 
1
              1               0               0               0 
              0              -1               0               0 
              0               0              -1               0 
1
              1               0               0               0 
              0              -1 -1.22464679914735e-16               0 
              0 1.22464679914735e-16              -1               0 
2  2 1 3 -1 0
2  3 1 2 -1 0
2  1 -1 3 1 2 -1 0
1
              1              -0               0               0 
              0              -1               0               0 
             -0               0              -1               0 
1
              1               0               0               0 
              0              -1 1.22464679914735e-16               0 
              0 -1.22464679914735e-16              -1               0 
2  7 1 8 -1 0
2  8 1 7 -1 0
2  7 -1 0
2  1 -1 3 1 2 -1 8 1 7 -1 0
1
              1               0               0               0 
              0               1               0 1.83697019872103e-15 
              0               0               1              15 
2  7 1 8 -1 13 1 0
2  13 -1 8 1 7 -1 0
2  1 -1 3 1 2 -1 13 -1 8 1 7 -1 0
2  8 -1 2 1 3 -1 0
2  7 1 8 -1 2 1 3 -1 0
2  3 1 2 -1 8 1 7 -1 0
2  1 -1 0
1
              1               0               0              -0 
              0               1               0             -10 
              0               0               1 9.9579925010296e-16 
2  3 -1 21 1 0
2  8 -1 13 1 2 1 3 -1 0
2  3 1 2 -1 13 -1 8 1 7 -1 0
1
             -1               0               0              -0 
             -0 -2.22044604925031e-16              -1             -20 
              0              -1 2.22044604925031e-16 2.44929359829471e-15 
2  25 1 3 -1 0
2  3 1 25 -1 0
2  1 -1 3 1 25 -1 0
2  25 1 3 -1 21 1 0
2  21 -1 3 1 25 -1 0
2  25 -1 0
2  1 -1 21 -1 3 1 25 -1 0
2  7 1 8 -1 13 1 2 1 3 -1 0
Curve2ds 48
1 0 0 0 -1 
1 -6.5081024680733474e-30 80 1 0 
1 40 0 0 -1 
1 0 0 -0 -1 
1 0 0 1 0 
1 -80 0 0 1 
1 -1.7157434800794709e-15 -15 1 0 
1 -80 0 0 1 
1 80 0 -0 -1 
1 0 0 0 -1 
1 0 0 1 0 
1 -80 40 1 0 
1 -0 -15 1 0 
1 -80 40 1 0 
1 0 0 -1 0 
1 0 0 0 1 
8 -10.000000000000002 -4.9789962505147991e-16
1 -20 1.0270406073813798e-60 0 -1 
8 -10.000000000000002 -4.9789962505147991e-16
1 5 4.9789962505147991e-16 -9.9579925010296308e-17 1 
8 -30.365128141886956 10.365128141886956
1 -30 10 1 5.3121946479529426e-33 
8 -30.365128141886956 10.365128141886956
1 9.8499999999999979 -30 -6.2033311546931316e-49 -1 
8 -1.0270406073813798e-60 10.000000000000002
1 -60 1.0270406073813798e-60 0 1 
8 -1.0270406073813798e-60 10.000000000000002
1 9.8499999999999996 -9.8086226135141548e-16 -9.9579925010296308e-17 -1 
1 0 0 -1 0 
1 0 0 0 1 
1 0 40 -0 -1 
1 0 0 1 0 
1 0 0 -1 0 
1 15 0 0 1 
1 0 40 -0 -1 
1 1.7157434800794709e-15 -15 1 0 
1 40 0 0 -1 
1 -6.5081024680733474e-30 0 1 0 
1 0 0 1 0 
1 5 20 -1 0 
1 14.850000000000607 -2.0739517923975449e-15 0 -1 
1 6.2838168359698043 0 0 -1 
1 1.0762083040283464e-16 -10 1 0 
1 14.849999999999998 -40 -1 9.1345170786061767e-50 
1 0 0 1 -9.1345170786061767e-50 
1 7.8055758929729044e-16 -10.000000000000002 1 0 
2 -0.01263057748471752 -20 2.6965928715497553e-65 -1 1 2.6965928715497553e-65 20.000003988286792
1 0 -10 1 0 
1 0 0 1 0 
1 -9.8499999999999996 60 1 0 
1 -6.0396132539608516e-13 -3.552713678800441e-15 0 -1 
1 3.140961124799575 0 0 -1 
1 0 0 1 0 
2 -9.8626305774847172 40 0 -1 1 0 20.000003988286792
Curves 24
1 40 20 -2.4492935982947065e-15 0 1.2246467991473532e-16 1 
1 40 -20 2.4492935982947065e-15 0 1.2246467991473532e-16 1 
1 40 20 0 0 -1 0 
1 40 20 0 0 -1 0 
1 -40 -20 2.4492935982947065e-15 0 1.2246467991473532e-16 1 
1 40 -20 0 -1 0 0 
1 40 -20 0 -1 0 0 
1 -40 20 0 1 0 0 
1 -20 20 3.2047474274603605e-30 -0 1 3.2047474274603605e-31 
1 -10 10 1.6023737137301802e-30 -1 -5.3121946479529426e-33 -1.7024242132195888e-63 
1 20 20 3.2047474274603605e-30 -0 -1 -3.2047474274603605e-31 
1 -40 20 0 1 0 0 
1 -40 -20 0 0 1 0 
1 -40 20 0 1 0 0 
1 -40 -20 0 0 1 0 
1 -40 20 -2.4492935982947065e-15 0 1.2246467991473532e-16 1 
1 20 5 0 0 -1 0 
1 -20 19.999999999999996 -9.8500000000006072 -0 -1 9.9579925010295987e-17 
1 20 5 0 0 -1 0 
1 -20 -9.8499999999999996 0 0 1 0 
2 9.2211913722089139e-20 -9.8626305774847172 0 0 0 1 1 0 -0 -0 1 0 20.000003988286792
1 -20 -9.8499999999999996 0 0 1 0 
1 20 19.999999999999996 -9.8500000000006036 -0 -1 9.9579925010295987e-17 
2 9.2211913722089139e-20 -9.8626305774847172 0 0 0 1 1 0 -0 -0 1 0 20.000003988286792
Polygon3D 0
PolygonOnTriangulations 0
Surfaces 10
1 40 20 -2.4492935982947065e-15 1 0 -0 0 -1 1.2246467991473532e-16 0 -1.2246467991473532e-16 -1 
1 -40 20 6.4094948549207209e-30 0 1 0 0 -0 1 1 0 -0 
1 40 -20 2.4492935982947065e-15 0 -1 1.2246467991473532e-16 -1 0 0 -0 -1.2246467991473532e-16 -1 
1 -40 -20 0 0 0 -1 -1 0 -0 0 1 0 
1 -40 -20 0 0 0 -1 -1 0 -0 0 1 0 
1 -40 -20 2.4492935982947065e-15 -1 0 0 0 1 -1.2246467991473532e-16 -0 -1.2246467991473532e-16 -1 
1 -20 20 5 1 0 0 0 -9.9579925010295987e-17 -1 0 1 -9.9579925010295987e-17 
1 20 -19.999999999999996 9.8500000000000014 -5.3121946479529426e-33 -1 2.3923997837040415e-16 0 -2.3923997837040415e-16 -1 1 -5.3121946479529426e-33 1.2708893326756387e-48 
1 20 20 -9.8499999999999996 -1 0 0 0 9.9579925010295987e-17 1 0 1 -9.9579925010295987e-17 
2 -9.2211913722089139e-20 20 -9.8626305774847172 0 1 -9.9579925010295987e-17 -1 0 0 0 9.9579925010295987e-17 1 20.000003988286792
Triangulations 0

TShapes 62
Ve
1.00000001776357e-07
40 -20 3.64848168664718e-30
0 0

0101101
*
Ve
1.00000001776357e-07
40 -20 -15
0 0

0101101
*
Ed
 1e-07 1 1 0
1  1 0 0 15
2  1 1 0 0 15
2  2 2 5 0 15
0

0101000
+62 6 -61 6 *
Ve
1.00000001776357e-07
40 20 -3.64848168664718e-30
0 0

0101101
*
Ve
1.00000001776357e-07
40 20 -15
0 0

0101101
*
Ed
 1e-07 1 1 0
1  2 0 0 15
2  3 1 0 0 15
2  4 3 0 0 15
0

0101000
+59 6 -58 6 *
Ed
 1.00000001776357e-07 1 1 0
1  3 0 0 40
2  5 1 10 0 40
2  6 4 11 0 40
0

0101000
+62 12 -59 12 *
Ed
 1.00000001776357e-07 1 1 0
1  4 0 0 40
2  7 1 15 0 40
2  8 5 11 0 40
0

0101000
+61 16 -58 16 *
Wi

0101000
+60 0 -57 0 -56 9 +55 14 *
Fa
0  1e-07 1 0

0101000
+54 0 *
Ve
1.00000001776357e-07
-40 20 -3.64848168664718e-30
0 0

0101101
*
Ve
1.00000001776357e-07
-40 20 -15
0 0

0101101
*
Ed
 1e-07 1 1 0
1  5 0 0 15
2  9 3 0 0 15
2  10 6 0 0 15
0

0101000
+52 6 -51 6 *
Ed
 1.00000001776357e-07 1 1 0
1  6 0 0 80
2  11 3 10 0 80
2  12 4 11 0 80
0

0101000
+59 12 -52 12 *
Ed
 1.00000001776357e-07 1 1 0
1  7 0 0 80
2  13 3 15 0 80
2  14 5 11 0 80
0

0101000
+58 16 -51 16 *
Wi

0101000
+57 0 -50 0 -49 9 +48 14 *
Fa
0  1e-07 3 0

0101000
+47 0 *
Ve
1.00000001776357e-07
-40 -20 3.64848168664718e-30
0 0

0101101
*
Ve
1e-07
-20 -20 -3.20474742746036e-30
0 0

0101101
*
Ed
 1e-07 1 1 0
1  8 0 0 20
2  15 4 11 0 20
2  16 2 19 0 20
0

0101000
+45 12 -44 12 *
Ve
0.0001
-20 -10 0
0 0

0101101
*
Ed
 1e-07 1 1 0
1  9 0 -10 -4.9789962505148e-16
2  17 4 17 -10 -4.9789962505148e-16
2  18 7 0 -10 -4.9789962505148e-16
0

0101000
+42 20 -44 20 *
Ve
0.0001
20 -10 0
0 0

0101101
*
Ed
 1e-07 1 1 0
1  10 0 -30 10
2  19 4 17 -30 10
2  20 8 22 -30 10
0

0101000
+40 20 -42 20 *
Ve
1e-07
20 -20 -3.20474742746036e-30
0 0

0101101
*
Ed
 1e-07 1 1 0
1  11 0 -1.02704060738138e-60 10
2  21 4 17 -1.02704060738138e-60 10
2  22 9 0 -1.02704060738138e-60 10
0

0101000
+38 20 -40 20 *
Ed
 1e-07 1 1 0
1  12 0 60 80
2  23 4 11 60 80
2  24 2 19 60 80
0

0101000
+38 12 -62 12 *
Ed
 1.00000001776357e-07 1 1 0
1  13 0 0 40
2  25 4 11 0 40
2  26 6 10 0 40
0

0101000
+52 12 -45 12 *
Wi

0101000
-43 18 +41 0 +39 0 +37 0 -36 18 -56 18 -49 18 -35 18 *
Fa
0  1e-07 4 17

0101000
+34 0 *
Ve
1.00000001776357e-07
-40 -20 -15
0 0

0101101
*
Ed
 1e-07 1 1 0
1  14 0 0 80
2  27 5 11 0 80
2  28 2 24 0 80
0

0101000
+32 16 -61 16 *
Ed
 1.00000001776357e-07 1 1 0
1  15 0 0 40
2  29 5 11 0 40
2  30 6 15 0 40
0

0101000
+51 16 -32 16 *
Wi

0101100
+31 0 +55 0 +48 0 +30 0 *
Fa
0  1e-07 5 0

0101000
-29 7 *
Ed
 1e-07 1 1 0
1  16 0 0 15
2  31 6 0 0 15
2  32 2 5 0 15
0

0101000
+45 6 -32 6 *
Wi

0101000
+50 0 -27 0 -35 9 +30 14 *
Fa
0  1e-07 6 0

0101000
+26 0 *
Ve
1.00000607514039e-07
-20 -20 9.85000000000061
0 0

0101101
*
Ed
 1e-07 1 1 0
1  17 0 5 14.85
2  33 7 27 5 14.85
2  34 2 27 5 14.85
0

0101000
+44 28 -24 28 *
Ve
1.00000607514039e-07
-20 -10 9.85000000000061
0 0

0101101
*
Ed
 1.00000607514039e-07 1 1 0
1  18 0 0 10
2  35 7 0 0 10
2  36 10 0 0 10
4 G1 7 0 10 0
0

0101000
+24 20 -22 20 *
Ed
 1e-07 1 1 0
1  19 0 5 14.85
2  37 7 30 5 14.85
2  38 8 31 5 14.85
0

0101000
+42 32 -22 32 *
Wi

0101000
-23 26 -21 0 +20 29 -41 0 *
Fa
0  1e-07 7 0

0101000
+19 0 *
Ve
1.00000603961325e-07
20 -10 9.8500000000006
0 0

0101101
*
Ed
 1e-07 1 1 0
1  20 0 0 9.85
2  39 8 31 0 9.85
2  40 9 30 0 9.85
0

0101000
+17 32 -40 32 *
Ed
 1e-07 1 1 0
1  21 0 3.14096112479958 6.2838168359698
2  41 8 31 3.14096112479958 6.2838168359698
2  42 10 30 3.14096112479958 6.2838168359698
0

0101000
+17 32 -22 32 *
Wi

0101000
-16 29 -39 0 -20 29 +15 29 *
Fa
0  1e-07 8 22

0101000
+14 0 *
Ve
1.00000603961325e-07
20 -20 9.8500000000006
0 0

0101101
*
Ed
 1e-07 1 1 0
1  22 0 0 9.85
2  43 9 27 0 9.85
2  44 2 27 0 9.85
0

0101000
+12 28 -38 28 *
Ed
 1.00000603961325e-07 1 1 0
1  23 0 0 10
2  45 9 0 0 10
2  46 10 0 0 10
4 G1 9 0 10 0
0

0101000
+12 20 -17 20 *
Wi

0101000
-11 26 -37 0 +16 29 +10 0 *
Fa
0  1e-07 9 0

0101000
+9 0 *
Ed
 1e-07 1 1 0
1  24 0 3.14096112479958 6.2838168359698
2  47 10 27 3.14096112479958 6.2838168359698
2  48 2 27 3.14096112479958 6.2838168359698
0

0101000
+12 28 -24 28 *
Wi

0101000
+10 0 -21 0 -7 26 +15 29 *
Fa
0  1e-07 10 0

0101000
+6 0 *
Wi

0101100
-43 18 +27 4 +31 33 -60 4 -36 18 -11 26 +7 26 -23 26 *
Fa
0  1e-07 2 0

0101000
+4 0 *
Sh

0101100
+53 4 +46 4 -33 0 +28 23 +25 4 -18 0 -13 0 -8 0 +5 0 +3 0 
*
So

1100000
+2 0 *

+1 1 