DBRep_DrawableShape

CASCADE Topology V1, (c) Matra-Datavision
Locations 10
1
-2.22044604925031e-016               1 -1.11022302462516e-016 -5.09678100482638e-031 
-1.11022302462516e-016 -2.22044604925031e-016              -1          -41.35 
             -1 -1.11022302462516e-016               0 4.59077220682502e-015 
1
              0 1.11022302462516e-016               1               0 
              1               0 1.11022302462516e-016               0 
1.11022302462516e-016               1               0               0 
2  1 1 2 -1 0
2  2 1 1 -1 0
2  1 -1 0
1
              1               0               0          -10000 
              0               1               0 1.11022302462516e-012 
              0               0               1 -2.22044604925031e-012 
2  1 1 2 -1 6 1 0
2  6 -1 2 1 1 -1 0
2  2 -1 0
2  2 -1 6 1 0
Curve2ds 24
1 4.4919711786331673 0 0 -1 
1 8.0000000356973864 5.3292383285604252e-015 1.0488147432083254e-020 -1 
1 4.9448987551532193 0 0 -1 
1 2.5757174040535242e-014 5.7195297175616463e-030 1.1187357310822056e-020 -1 
1 0 0 1 0 
2 179.70446747876628 40.264251739887307 -3.3306690738754667e-016 1 1 3.3306690738754667e-016 184.16
1 0 -10000 1 0 
2 179.70446747876628 40.264251739887307 -3.3306690738754667e-016 1 1 3.3306690738754667e-016 184.16
1 7.500000000000103 -5.439925018758434e-015 1.1187357310822056e-020 -1 
1 -1.5777218104420261e-030 -7.1054273576010019e-015 -1.1102230246251578e-016 -1 
1 0 0 1 9.8607613152626476e-032 
1 0.50000003807719529 82.698488498653433 0.99999999492303038 0.00010076675643233416 
1 1.1205257082570411e-016 -10000 1 9.8607613152626476e-032 
1 0.50000003807719529 82.698488498653433 0.99999999492303038 0.00010076675643233416 
1 82.69999999999996 2.9531932455028953e-015 -1.1102230246251578e-016 -1 
1 -1.1044201669353e-029 7.1054273576010019e-015 1.0488147432083254e-020 -1 
1 0 0 1 5.9617662123516555e-035 
1 8.0000000000000266 82.699244249326682 -9.9893222808171632e-016 -1 
1 -1.111999381464558e-012 -10000 1 5.9617662123516555e-035 
1 8.0000000000000266 82.699244249326682 -9.9893222808171632e-016 -1 
1 0 0 1 0 
1 7.999999999999944 -0.00075575067327804391 -0.99999999553781971 9.4468833733778269e-005 
1 1.0521709503772914e-016 -10000 1 0 
1 7.999999999999944 -0.00075575067327804391 -0.99999999553781971 9.4468833733778269e-005 
Curves 12
1 -41.349999999999973 41.34924424932673 -7.9999999999999947 -1 1.1102230246251563e-016 -2.2204460492503136e-016 
1 -41.349999999999994 -41.34924424932673 -7.4999999619227644 -1 1.1102230246251563e-016 -2.2204460492503136e-016 
2 -1.0849925094393995 171.7044674787663 0 0 0 1 1 0 -0 -0 1 0 184.16
2 -1.0849925094393995 171.7044674787663 0 0 0 1 1 0 -0 -0 1 0 184.16
1 -41.350000000000001 -41.349999999999973 4.129474540093269e-014 -1 1.1102230246251563e-016 -2.2204460492503136e-016 
1 41.349244249326745 -7.4999999619227777 0 0.00010076675643233416 0.99999999492303038 0 
1 41.349244249326745 -7.4999999619227777 0 0.00010076675643233416 0.99999999492303038 0 
1 -41.349999999999973 41.349999999999987 -5.0498494275075216e-014 -1 1.1102230246251563e-016 -2.2204460492503136e-016 
1 41.349999999999987 5.5067062021407764e-014 0 -1 -1.3319991354692629e-015 0 
1 41.349999999999987 5.5067062021407764e-014 0 -1 -1.3319991354692629e-015 0 
1 -41.349999999999987 -5.5089266481900254e-014 0 9.4468833733778282e-005 -0.99999999553781982 0 
1 -41.349999999999987 -5.5089266481900254e-014 0 9.4468833733778282e-005 -0.99999999553781982 0 
Polygon3D 0
PolygonOnTriangulations 0
Surfaces 6
2 -41.350000000000023 1.084992509439404 171.70446747876628 1 -2.2204460492503141e-016 2.2204460492503136e-016 -2.2204460492503136e-016 -1 -2.2204460492503136e-016 -2.2204460492503136e-016 1.2325951644078312e-032 1 184.16
1 -41.34999999999998 41.349999999999987 -5.0498494275075229e-014 -1.1104327826197825e-016 -0.99999999553781971 9.4468833733778269e-005 2.2202362763936413e-016 -9.4468833733778269e-005 -0.99999999553781971 1 -1.1102230345331869e-016 2.2203411677764606e-016 
1 -41.349999999999994 -41.34924424932673 -7.4999999619227902 1.1099992718423718e-016 0.99999999492303038 0.00010076675643233416 -2.2206697851233926e-016 -0.00010076675643233416 0.99999999492303038 1 -1.1102230358982934e-016 2.2205579228228541e-016 
1 -7.9999999999999911 -41.349999999999987 41.349244249326716 1.6829312708070985e-015 1 -2.4562921397321224e-016 1 -1.6829312708070985e-015 0 -4.1337708521928677e-031 -2.4562921397321224e-016 -1 
1 -7.9999999999999911 -41.349999999999987 41.349244249326716 1.6829312708070985e-015 1 -2.4562921397321224e-016 1 -1.6829312708070985e-015 0 -4.1337708521928677e-031 -2.4562921397321224e-016 -1 
1 -41.349999999999994 -41.349999999999973 4.129474540093269e-014 2.2204460492503123e-016 -1.1099545305442316e-015 -1 2.2204460492503165e-016 1 -1.1099545305442316e-015 1 -2.2204460492503141e-016 2.2204460492503146e-016 
Triangulations 0

TShapes 34
Ve
1.00000017763568e-007
-41.35 41.3492442493267 -7.99999999999999
0 0

0101101
*
Ve
1.00000017763568e-007
-10041.35 41.3492442493278 -8.00000000000222
0 0

0101101
*
Ed
 1.00000017763568e-007 1 1 0
1  1 0 0 10000
2  1 1 0 0 10000
2  2 2 0 0 10000
0

0101000
+34 0 -33 0 *
Ve
1.00000026441028e-007
-41.35 -41.3492442493267 -7.49999996192276
0 0

0101101
*
Ve
1.00000026441028e-007
-10041.35 -41.3492442493256 -7.49999996192498
0 0

0101101
*
Ed
 1.00000026441028e-007 1 1 0
1  2 0 0 10000
2  3 1 0 0 10000
2  4 3 0 0 10000
0

0101000
+31 0 -30 0 *
Ed
 1e-007 1 1 0
1  3 0 4.49197117863317 4.94489875515322
2  5 1 4 4.49197117863317 4.94489875515322
2  6 4 5 4.49197117863317 4.94489875515322
0

0101000
+34 4 -31 4 *
Ed
 1e-007 1 1 0
1  4 0 4.49197117863317 4.94489875515322
2  7 1 8 4.49197117863317 4.94489875515322
2  8 5 5 4.49197117863317 4.94489875515322
0

0101000
+33 8 -30 8 *
Wi

0101000
+32 0 -29 0 -28 3 +27 7 *
Fa
0  1e-007 1 0

0101000
+26 0 *
Ve
1e-007
-41.35 -41.35 4.12947454009327e-014
0 0

0101101
*
Ve
1e-007
-10041.35 -41.3499999999989 -2.17915130384938e-012
0 0

0101101
*
Ed
 1e-007 1 1 0
1  5 0 0 10000
2  9 3 0 0 10000
2  10 6 0 0 10000
0

0101000
+24 0 -23 0 *
Ed
 1e-007 1 1 0
1  6 0 0 7.5000000000001
2  11 3 4 0 7.5000000000001
2  12 4 5 0 7.5000000000001
0

0101000
+31 4 -24 4 *
Ed
 1e-007 1 1 0
1  7 0 0 7.5000000000001
2  13 3 8 0 7.5000000000001
2  14 5 5 0 7.5000000000001
0

0101000
+30 8 -23 8 *
Wi

0101000
+29 0 -22 0 -21 3 +20 7 *
Fa
0  1e-007 3 0

0101000
+19 0 *
Ve
1e-007
-41.35 41.35 -5.04984942750752e-014
0 0

0101101
*
Ve
1e-007
-10041.35 41.3500000000011 -2.27094454352539e-012
0 0

0101101
*
Ed
 1e-007 1 1 0
1  8 0 0 10000
2  15 6 0 0 10000
2  16 2 0 0 10000
0

0101000
+17 0 -16 0 *
Ed
 1e-007 1 1 0
1  9 0 0 82.7
2  17 6 4 0 82.7
2  18 4 5 0 82.7
0

0101000
+24 4 -17 4 *
Ed
 1e-007 1 1 0
1  10 0 0 82.7
2  19 6 8 0 82.7
2  20 5 5 0 82.7
0

0101000
+23 8 -16 8 *
Wi

0101000
+22 0 -15 0 -14 3 +13 7 *
Fa
0  1e-007 6 0

0101000
+12 0 *
Ed
 1e-007 1 1 0
1  11 0 0 8.00000003569739
2  21 2 4 0 8.00000003569739
2  22 4 5 0 8.00000003569739
0

0101000
+17 4 -34 4 *
Ed
 1e-007 1 1 0
1  12 0 0 8.00000003569739
2  23 2 8 0 8.00000003569739
2  24 5 5 0 8.00000003569739
0

0101000
+16 8 -33 8 *
Wi

0101000
+15 0 -32 0 -10 3 +9 7 *
Fa
0  1e-007 2 0

0101000
+8 0 *
Wi

0101100
+28 0 +21 0 +14 0 +10 0 *
Fa
0  1e-007 4 0

0101000
-6 1 *
Wi

0101100
+27 0 +20 0 +13 0 +9 0 *
Fa
0  1e-007 5 0

0101000
-4 1 *
Sh

0101000
-25 0 -18 0 -11 0 -7 0 +5 9 -3 10 *
So

1100000
+2 0 *

+1 0 