DBRep_DrawableShape

CASCADE Topology V1, (c) Matra-Datavision
Locations 14
1
              1               0               0               0 
              0               1               0               0 
              0               0               1               0 
2  1 -1 0
1
              0               0               1            3950 
              1               0               0              -0 
              0               1               0              -0 
2  3 -1 0
2  1 -1 3 -1 0
1
              1               0               0               1 
              0               1               0               0 
              0               0               1               0 
2  3 1 6 1 0
2  6 -1 3 -1 0
2  1 -1 6 -1 3 -1 0
1
              1               0               0               1 
              0               1               0               0 
              0               0               1               0 
2  3 1 10 1 0
2  6 1 10 -1 3 -1 0
2  10 -1 3 -1 0
2  1 -1 10 -1 3 -1 0
Curve2ds 24
1 0 0 0 -1 
1 2100 0 0 -1 
1 820 0 0 -1 
1 0 0 0 -1 
1 0 0 1 0 
1 0 0 0 -1 
1 0 -1 1 0 
1 0 0 0 -1 
8 -1 0
1 2090 0 0 1 
8 -1 0
1 10 0 0 1 
1 0 0 1 0 
1 -2100 0 1 0 
1 0 -1 1 0 
1 -2100 0 1 0 
8 0 1
1 10 0 0 -1 
8 0 1
1 830 0 0 -1 
1 0 -1 1 0 
1 0 -820 -1 0 
1 0 0 1 0 
1 0 -820 -1 0 
1 -10 10 0 -1 
1 0 0 1 0 
1 -10 10 0 -1 
1 0 -1 1 0 
Curves 12
1 3950 3900 2100 1 0 0 
1 3950 4720 2100 1 0 0 
1 3900 2100 0 1 0 0 
1 3900 2100 0 1 0 0 
1 3950 3900 2090 -1 0 0 
1 3900 0 0 0 1 0 
1 3900 0 0 0 1 0 
1 3950 4720 2090 1 0 -0 
1 4720 2100 0 0 -1 0 
1 4720 2100 0 0 -1 0 
1 3890 2090 0 1 0 0 
1 3890 2090 0 1 0 0 
Polygon3D 0
PolygonOnTriangulations 0
Surfaces 6
1 3950 3900 2100 0 0 1 0 1 0 -1 0 0 
1 3950 3900 0 0 -1 0 0 0 1 -1 0 0 
1 3950 4720 2100 -0 1 0 0 0 -1 -1 0 -0 
1 3950 3900 2100 1 -0 0 -0 0 1 -0 -1 0 
1 3950 3900 2100 1 -0 0 -0 0 1 -0 -1 0 
1 3950 3890 2090 0 0 1 0 1 0 -1 0 0 
Triangulations 0

TShapes 36
Ve
1.00005e-07
3950 3900 2100
0 0

0101101
*
Ve
1.00005e-07
3951 3900 2100
0 0

0101101
*
Ed
 1e-07 1 1 0
1  1 0 0 1
2  1 1 0 0 1
2  2 2 0 0 1
0

0101000
+36 2 -35 2 *
Ve
1e-07
3950 4720 2100
0 0

0101101
*
Ve
1e-07
3951 4720 2100
0 0

0101101
*
Ed
 1e-07 1 1 0
1  2 0 0 1
2  3 1 0 0 1
2  4 3 0 0 1
0

0101000
+33 2 -32 2 *
Ed
 1e-07 1 1 0
1  3 0 0 820
2  5 1 4 0 820
2  6 4 4 0 820
0

0101000
+36 5 -33 5 *
Ed
 1e-07 1 1 0
1  4 0 0 820
2  7 1 8 0 820
2  8 5 4 0 820
0

0101000
+35 9 -32 9 *
Wi

0101000
+34 0 -31 0 -30 3 +29 7 *
Fa
0  1e-07 1 0

0101000
+28 0 *
Ve
1e-07
3951 3900 2090
0 0

0101101
*
Ve
1e-07
3950 3900 2090
0 0

0101101
*
Ed
 1e-07 1 1 0
1  5 0 -1 0
2  9 2 0 -1 0
2  10 6 0 -1 0
0

0101000
+26 2 -25 2 *
Ed
 1e-07 1 1 0
1  6 0 2090 2100
2  11 2 4 2090 2100
2  12 4 4 2090 2100
0

0101000
+25 5 -36 5 *
Ed
 1e-07 1 1 0
1  7 0 2090 2100
2  13 2 8 2090 2100
2  14 5 4 2090 2100
0

0101000
+26 9 -35 9 *
Wi

0101000
-24 0 -23 3 -34 0 +22 7 *
Fa
0  1e-07 2 0

0101000
+21 0 *
Ve
1e-07
3950 4720 2090
0 0

0101101
*
Ve
1e-07
3951 4720 2090
0 0

0101101
*
Ed
 1e-07 1 1 0
1  8 0 0 1
2  15 3 0 0 1
2  16 6 0 0 1
0

0101000
+19 2 -18 2 *
Ed
 1e-07 1 1 0
1  9 0 0 10
2  17 3 8 0 10
2  18 5 4 0 10
0

0101000
+32 9 -18 9 *
Ed
 1e-07 1 1 0
1  10 0 0 10
2  19 3 4 0 10
2  20 4 4 0 10
0

0101000
+33 5 -19 5 *
Wi

0101000
-17 0 +16 7 +31 0 -15 3 *
Fa
0  1e-07 3 0

0101000
+14 0 *
Ed
 1e-07 1 1 0
1  11 0 10 830
2  21 4 4 10 830
2  22 6 4 10 830
0

0101000
+25 5 -19 5 *
Wi

0101000
-30 3 -15 3 +12 3 -23 3 *
Fa
0  1e-07 4 0

0101000
+11 0 *
Ed
 1e-07 1 1 0
1  12 0 10 830
2  23 5 12 10 830
2  24 6 13 10 830
0

0101000
+26 14 -18 14 *
Wi

0101000
-29 7 -16 7 +9 11 -22 7 *
Fa
0  1e-07 5 6

0101000
+8 0 *
Wi

0101000
-17 0 +9 11 -24 0 -12 3 *
Fa
0  1e-07 6 0

0101000
+6 0 *
Sh

0101000
+27 0 +20 0 +13 0 -10 0 +7 0 -5 0 *
So

0100000
+4 0 *
Co

0100000
+3 0 *
Co

1100000
+2 0 *

+1 1 