DBRep_DrawableShape

CASCADE Topology V1, (c) Matra-Datavision
Locations 14
1
              1               0              -0               0 
             -0 1.77321265310004e-16              -1               0 
              0               1 1.77321265310004e-16               0 
2  1 -1 0
1
              1               0              -0               0 
             -0 1.77321265310004e-16              -1               0 
              0               1 1.77321265310004e-16               0 
1
              1               0               0               0 
              0 -1.83663848019044e-16              -1               0 
              0               1 -1.83663848019044e-16               0 
2  3 1 4 -1 0
2  4 1 3 -1 0
2  3 -1 0
2  1 -1 4 1 3 -1 0
1
              1               0               0               0 
              0               1               0 2.81005687469138e-13 
              0               0               1            1530 
2  3 1 4 -1 9 1 0
2  9 -1 4 1 3 -1 0
2  1 -1 9 -1 4 1 3 -1 0
2  4 -1 0
2  4 -1 9 1 0
Curve2ds 24
1 0 5.0487097934144756e-29 0 -1 
1 299.99999999999989 3.1616065967060864e-29 -1.773212653100043e-16 -1 
1 2029.9999999999991 5.0487097934144756e-29 0 -1 
1 -2.717752685692468e-44 5.0487097934144756e-29 1.773212653100043e-16 -1 
1 0 5.0487097934144756e-29 1 0 
1 1.1368683772161603e-13 0 0 1 
1 0 -1529.9999999999995 1 0 
1 1.1368683772161603e-13 0 0 1 
1 299.99999999999989 4.411458093415627e-29 1.773212653100043e-16 -1 
1 0 2.5243548967072378e-29 0 -1 
1 1.1368683772161603e-13 6.1198349912848818e-29 1 0 
1 1.1368683772161603e-13 2029.9999999999995 1 0 
1 3.6886140843128675e-13 -1529.9999999999995 1 0 
1 1.1368683772161603e-13 2029.9999999999995 1 0 
1 2029.9999999999991 2.5243548967072378e-29 0 -1 
1 1.358876342846234e-44 2.5243548967072378e-29 -1.773212653100043e-16 -1 
1 -4.5474735088646412e-13 2.5243548967072378e-29 1 0 
1 299.99999999999994 2029.9999999999995 -0 -1 
1 -4.5474735088646412e-13 -1529.9999999999995 1 0 
1 299.99999999999994 2029.9999999999995 -0 -1 
1 -5.6843418860808015e-14 3.0599174956424409e-29 1 0 
1 299.99999999999994 0 -1 0 
1 -3.1201798957047878e-13 -1529.9999999999995 1 0 
1 299.99999999999994 0 -1 0 
Curves 12
1 109.99999999999999 659.99999999999989 -2.3825017479717214e-13 0 1.8366384801904445e-16 1 
1 2139.9999999999995 659.99999999999989 -2.3825017479717214e-13 0 1.8366384801904445e-16 1 
1 110 660 0 1 0 0 
1 110 660 0 1 0 0 
1 2139.9999999999995 359.99999999999994 -1.2995464079845753e-13 0 1.8366384801904445e-16 1 
1 2140 660 0 0 -1 0 
1 2140 660 0 0 -1 0 
1 109.99999999999999 359.99999999999994 -1.2995464079845753e-13 0 1.8366384801904445e-16 1 
1 2140 360 0 -1 0 0 
1 2140 360 0 -1 0 0 
1 110 360 0 0 1 0 
1 110 360 0 0 1 0 
Polygon3D 0
PolygonOnTriangulations 0
Surfaces 6
1 109.99999999999999 659.99999999999989 -2.3825017479717209e-13 0 1 -1.8366384801904445e-16 1 0 0 0 -1.8366384801904445e-16 -1 
1 109.99999999999999 359.99999999999994 -1.2995464079845751e-13 -1 0 0 0 1 -3.6098511332904875e-16 -0 -3.6098511332904875e-16 -1 
1 2139.9999999999995 659.99999999999989 -2.3825017479717209e-13 1 0 -0 0 -1 3.6098511332904875e-16 0 -3.6098511332904875e-16 -1 
1 109.99999999999999 1.1703203510460281e-13 659.99999999999989 0 -1 1.7732126531000427e-16 0 -1.7732126531000427e-16 -1 1 0 0 
1 109.99999999999999 1.1703203510460281e-13 659.99999999999989 0 -1 1.7732126531000427e-16 0 -1.7732126531000427e-16 -1 1 0 0 
1 2139.9999999999995 359.99999999999994 -1.2995464079845751e-13 0 -1 1.8366384801904445e-16 -1 0 0 -0 -1.8366384801904445e-16 -1 
Triangulations 0

TShapes 34
Ve
1e-07
110 3.55282209901775e-13 660
0 0

0101101
*
Ve
1e-07
110 -1530 660
0 0

0101101
*
Ed
 1e-07 1 1 0
1  1 0 0 1530
2  1 1 0 0 1530
2  2 2 0 0 1530
0

0101000
+34 2 -33 2 *
Ve
1e-07
2140 3.55282209901775e-13 660
0 0

0101101
*
Ve
1e-07
2140 -1530 660
0 0

0101101
*
Ed
 1e-07 1 1 0
1  2 0 0 1530
2  3 1 0 0 1530
2  4 3 0 0 1530
0

0101000
+31 2 -30 2 *
Ed
 1e-07 1 1 0
1  3 0 0 2030
2  5 1 6 0 2030
2  6 4 7 0 2030
0

0101000
+34 8 -31 8 *
Ed
 1e-07 1 1 0
1  4 0 0 2030
2  7 1 11 0 2030
2  8 5 7 0 2030
0

0101000
+33 12 -30 12 *
Wi

0101000
+32 0 -29 0 -28 5 +27 10 *
Fa
0  1e-07 1 0

0101000
+26 0 *
Ve
1e-07
2140 1.93790296310059e-13 360
0 0

0101101
*
Ve
1e-07
2140 -1530 360
0 0

0101101
*
Ed
 1e-07 1 1 0
1  5 0 0 1530
2  9 3 0 0 1530
2  10 6 0 0 1530
0

0101000
+24 2 -23 2 *
Ed
 1e-07 1 1 0
1  6 0 0 300
2  11 3 6 0 300
2  12 4 7 0 300
0

0101000
+31 8 -24 8 *
Ed
 1e-07 1 1 0
1  7 0 0 300
2  13 3 11 0 300
2  14 5 7 0 300
0

0101000
+30 12 -23 12 *
Wi

0101000
+29 0 -22 0 -21 5 +20 10 *
Fa
0  1e-07 3 0

0101000
+19 0 *
Ve
1e-07
110 1.93790296310059e-13 360
0 0

0101101
*
Ve
1e-07
110 -1530 360
0 0

0101101
*
Ed
 1e-07 1 1 0
1  8 0 0 1530
2  15 6 0 0 1530
2  16 2 0 0 1530
0

0101000
+17 2 -16 2 *
Ed
 1e-07 1 1 0
1  9 0 0 2030
2  17 6 6 0 2030
2  18 4 7 0 2030
0

0101000
+24 8 -17 8 *
Ed
 1e-07 1 1 0
1  10 0 0 2030
2  19 6 11 0 2030
2  20 5 7 0 2030
0

0101000
+23 12 -16 12 *
Wi

0101000
+22 0 -15 0 -14 5 +13 10 *
Fa
0  1e-07 6 0

0101000
+12 0 *
Ed
 1e-07 1 1 0
1  11 0 0 300
2  21 2 6 0 300
2  22 4 7 0 300
0

0101000
+17 8 -34 8 *
Ed
 1e-07 1 1 0
1  12 0 0 300
2  23 2 11 0 300
2  24 5 7 0 300
0

0101000
+16 12 -33 12 *
Wi

0101000
+15 0 -32 0 -10 5 +9 10 *
Fa
0  1e-07 2 0

0101000
+8 0 *
Wi

0101100
+28 0 +21 0 +14 0 +10 0 *
Fa
0  1e-07 4 0

0101000
-6 3 *
Wi

0101100
+27 0 +20 0 +13 0 +9 0 *
Fa
0  1e-07 5 0

0101000
-4 3 *
Sh

0101000
-25 0 -18 0 -11 0 -7 0 +5 13 -3 14 *
So

1100000
-2 0 *

+1 1 