DBRep_DrawableShape

CASCADE Topology V1, (c) Matra-Datavision
Locations 50
1
              1               0               0               0 
              0              -1               0               0 
              0               0              -1               0 
1
              1               0               0               0 
              0               1               0               0 
              0               0               1               0 
1
              1               0               0               0 
              0               1               0               0 
              0               0               1               0 
2  2 1 3 1 0
1
              1               0               0               0 
              0              -1 1.22464679914735e-16               0 
              0 -1.22464679914735e-16              -1               0 
1
              1               0               0               0 
              0              -1               0               0 
              0               0              -1               0 
1
              1               0               0               0 
              0              -1 -1.22464679914735e-16               0 
              0 1.22464679914735e-16              -1               0 
2  5 -1 6 1 7 -1 0
2  3 -1 2 -1 0
2  5 -1 6 1 7 -1 2 1 3 1 0
2  1 -1 0
2  5 -1 6 1 7 -1 2 1 0
2  1 -1 3 -1 0
1
              1              -0               0               0 
              0              -1               0               0 
             -0               0              -1               0 
2  14 1 5 -1 6 1 7 -1 2 1 3 1 0
2  14 -1 0
2  7 1 6 -1 5 1 14 -1 0
2  1 -1 3 -1 2 -1 7 1 6 -1 5 1 14 -1 0
2  5 1 14 -1 0
2  3 -1 0
1
              1               0               0              -0 
              0               1               0             -10 
              0               0               1 9.9579925010296e-16 
2  7 -1 21 1 2 1 0
2  7 -1 21 1 2 1 3 1 0
2  2 -1 0
2  14 1 5 -1 6 1 7 -1 2 1 0
2  6 1 7 -1 2 1 0
2  7 1 6 -1 0
2  1 -1 3 -1 2 -1 7 1 6 -1 0
1
             -1               0               0              -0 
             -0 -2.22044604925031e-16              -1             -20 
              0              -1 2.22044604925031e-16 2.44929359829471e-15 
2  29 1 7 -1 2 1 0
2  7 1 29 -1 0
2  1 -1 3 -1 2 -1 7 1 29 -1 0
1
              1               0               0               0 
              0               1               0 1.83697019872103e-15 
              0               0               1              15 
2  14 1 5 -1 33 1 6 1 7 -1 2 1 0
2  7 1 6 -1 33 -1 5 1 14 -1 0
2  1 -1 3 -1 2 -1 7 1 6 -1 33 -1 5 1 14 -1 0
2  6 1 7 -1 2 1 3 1 0
2  14 1 5 -1 0
2  14 1 5 -1 33 1 0
2  33 -1 5 1 14 -1 0
2  7 -1 21 1 0
2  29 1 7 -1 21 1 2 1 3 1 0
2  29 -1 0
2  21 -1 7 1 29 -1 0
2  1 -1 3 -1 2 -1 21 -1 7 1 29 -1 0
2  1 -1 3 -1 2 -1 0
2  29 1 7 -1 21 1 2 1 0
2  5 -1 33 1 6 1 7 -1 2 1 3 1 0
2  29 1 7 -1 0
2  29 1 7 -1 21 1 0
Curve2ds 82
1 -64 2.0540812147627597e-60 0 1 
1 0 -1.281898970984144e-30 0 1 
1 -64 0 0 1 
1 0 0 0 1 
1 -64 11 1 5.3121946479529426e-33 
1 0 0 0 1 
1 0 0 -1 0 
1 0 0 0 1 
1 -60 11 1 5.3121946479529426e-33 
1 0 0 0 1 
1 -80 0 0 1 
1 0 0 1 0 
1 -20 11 1 5.3121946479529426e-33 
1 0 0 0 1 
1 -80 40 1 0 
1 0 0 1 0 
1 -16 10.000000000000002 0 1 
1 0 1.281898970984144e-30 0 -1 
1 0 40 -0 -1 
1 0 0 1 0 
1 -16 10.000000000000002 0 -1 
1 0 0 0 1 
1 0 0 -1 0 
1 0 0 0 1 
1 -3.1415926535897931 10 1 0 
2 5.8499999999999979 4 -1 6.2033311546931316e-49 6.2033311546931316e-49 1 4
7 0 0  7 14 3  1.4903410061606337e-08 11  0.049447403199735729 10.901104891825486  0.098881944277464912 10.802237001284865  0.14835277813514527 10.704576735180382  0.19788378577989843 10.609364615353845  0.24748011747700821 10.517921348430187  0.2971323523693355 10.431679939645795  0.40130514051124444 10.265102880608193  0.45579796902932673 10.186198718514589  0.51028716007158459 10.117566734306303  0.56460225592017588 10.061728097074544  0.61844553110815514 10.021542003252783  0.67137454976047173 10  0.72273424781341566 10 
 0 8 0.47695696720279213 6 1 8
7 0 0  7 14 3  0 5.9613640246425348e-08  0.098894717970540141 0.19778965425461648  0.19776435871714676 0.39552762715380602  0.29700097955498633 0.59262147297789969  0.39695227171520064 0.78837720404756007  0.49795204856607839 0.98201929637067686  0.60036616062284054 1.1727187207942913  0.81901833240012334 1.5645996478663284  0.93556359392350474 1.7648835279849262  1.0549352645842098 1.9594484681798872  1.1776198665172639 2.1466965205253921  1.304106376391992 2.3247430757608312  1.4349113383354388 2.4916722169057581  1.5707963267948968 2.6457513110645898 
 0 8 0.47695696720279213 6 1 8
1 1.5707963267948966 0 0 1 
1 5.8500000000000005 3.9898639947466563e-16 -9.9579925010296308e-17 -1 
1 -3.1415926535897931 0 1 0 
2 -3.9999999999999996 64 -1 0 0 1 4
1 1.5707963267948968 0 0 1 
1 8.8499999999999979 4 -6.2033311546931316e-49 -1 
8 0 1.5707963267948968
1 0 4 1 0 
8 0 1.5707963267948968
1 0 0 1 0 
2 -3.9999999999999996 16 1 0 -0 1 4
1 0 10.000000000000002 1 0 
1 -6.5081024680733474e-30 0 1 0 
1 40 0 0 -1 
1 5 20 -1 0 
1 0 0 1 0 
1 15 0 0 1 
1 0 0 -1 0 
2 -9.8626305774847172 40 0 -1 1 0 20.000003988286792
1 0 0 1 0 
1 -6.5081024680733474e-30 80 1 0 
1 0 0 0 -1 
1 -9.8499999999999996 60 1 0 
1 0 0 1 0 
1 1.5707963267948968 0 0 1 
1 8.8499999999999979 0 -6.2033311546931316e-49 -1 
8 0 1.5707963267948968
1 0 40 1 0 
8 0 1.5707963267948968
1 0 0 1 0 
1 40 0 0 -1 
1 0 0 -0 -1 
1 -1.7157434800794709e-15 -15 1 0 
1 -80 0 0 1 
1 1.5707963267948968 0 0 1 
1 8.8499999999999979 -40 -6.2033311546931316e-49 -1 
7 0 0  7 14 3  0 4.0000000596077747  0.098894621658109458 3.8022102833210529  0.19776439146858155 3.604472533870795  0.29700096116753583 3.4073785627584314  0.3969522213326363 3.2116227525043963  0.49795205850969904 3.0179807620087682  0.60036615586556163 2.8272812877307323  0.81901833271715929 2.4354003515668259  0.93556359449336091 2.2351164710412781  1.0549352653317605 2.0405515306203932  1.1776198673378744 1.8533034782663014  1.3041063771465087 1.675256923243341  1.4349113388481882 1.5083277825128354  1.5707963267948968 1.3542486889354066 
 0 8 0.4769569779880759 6 1 8
7 0 0  7 14 3  -1.4901943679035412e-08 -0.99999999999999822  0.049447418816770887 -0.90110498822788643  0.098881903946917968 -0.80223696793243082  0.14835276909744774 -0.70457675274223686  0.19788379648776738 -0.60936466449717108  0.24748010267482126 -0.51792133678778163  0.29713235010296707 -0.4316799432686303  0.4013051406621263 -0.26510288036823237  0.45579796929505745 -0.18619871813512634  0.51028716041060862 -0.11756673389805099  0.56460225627730543 -0.061728096752056552  0.61844553141964242 -0.021542003090279503  0.67137454995427337 1.8064976597953475e-15  0.72273424781341622 1.8064976597953475e-15 
 0 8 0.4769569779880759 6 1 8
1 80 0 -0 -1 
1 0 0 0 -1 
1 -0 -15 1 0 
1 -80 40 1 0 
1 0 0 1 0 
2 5.8499999999999979 -44 1 -6.2033311546931316e-49 6.2033311546931316e-49 1 4
1 1.5707963267948966 0 0 1 
1 9 -10.000000000000002 -9.9579925010296308e-17 1 
1 1.7157434800794709e-15 -15 1 0 
1 0 40 -0 -1 
1 0 0 1 -9.1345170786061767e-50 
1 7.8055758929729044e-16 -10.000000000000002 1 0 
2 -0.01263057748471752 -20 2.6965928715497553e-65 -1 1 2.6965928715497553e-65 20.000003988286792
1 0 -10 1 0 
1 14.849999999999998 -40 -1 9.1345170786061767e-50 
1 1.0762083040283464e-16 -10 1 0 
1 -6.0396132539608516e-13 -3.552713678800441e-15 0 -1 
1 3.140961124799575 0 0 -1 
1 14.850000000000607 -2.0739517923975449e-15 0 -1 
1 6.2838168359698043 0 0 -1 
Curves 41
8 10 11
1 24 20 0 -0 -1 -3.2047474274603605e-31 
1 24 20 4.4408920985006262e-16 -0 -1 -3.2047474274603605e-31 
1 24 9 0 -1 -5.3121946479529426e-33 -1.7024242132195888e-63 
1 -40 20 0 1 0 0 
1 20 9 0 -1 -5.3121946479529426e-33 -1.7024242132195888e-63 
1 40 20 0 0 -1 0 
1 -20 9 0 -1 -5.3121946479529426e-33 -1.7024242132195888e-63 
1 40 -20 0 -1 0 0 
8 -1.7763568394002505e-15 0.99999999999999822
1 -24 9.9999999999999982 0 -0 -1 -3.2047474274603605e-31 
1 -40 -20 0 0 1 0 
1 -24 9.9999999999999982 4.4408920985006262e-16 0 1 3.2047474274603605e-31 
1 -40 20 0 1 0 0 
8 3.1415926535897927 4.7123889803846897
2 24 9.9999999999999982 -3.9999999999999996 -0 -1 -3.2047474274603605e-31 0 3.2047474274603605e-31 -1 1 -0 0 4
8 0 1
7 0 0  7 14 3  23.999999940386356 9 0  23.80221034574538 9.0988951081745224 -1.8135290507410266e-08  23.604472372846207 9.1977629987151204 -0.011410151781911708  23.407378527022086 9.29542326481962 -0.034220057688378269  23.211622795952429 9.3906353846461634 -0.068418172417602438  23.01798070362933 9.4820786515698074 -0.11393576100829976  22.82728127920571 9.5683200603542051 -0.17060972484884029  22.435400352133669 9.734897119391805 -0.31224607479229777  22.235116472015083 9.8138012814853877 -0.39936558123854404  22.040551531820086 9.8824332656937628 -0.49915625074978986  21.853303479474636 9.9382719029253792 -0.61092065209857227  21.675256924239154 9.9784579967472506 -0.73331024811924572  21.508327783094241 10 -0.86411501154054227  21.35424868893541 10 -1.0000000000000002 
 0 8 0.47695696720279213 6 1 8
1 20 20 -3.9999999999999991 -0 -1 -3.2047474274603605e-31 
8 3.1415926535897931 4.7123889803846897
2 24 20 -3.9999999999999996 -0 -1 -3.2047474274603605e-31 0 3.2047474274603605e-31 -1 1 -0 0 4
1 24 10 -1.0000000000000002 -1 -5.3121946479529426e-33 -1.7024242132195888e-63 
2 20 9 -1 -1 -5.3121946479529426e-33 -1.7024242132195888e-63 1.6867516709168837e-80 -3.2047474274603605e-31 1 -5.3121946479529426e-33 1 3.2047474274603605e-31 1
8 3.2047474274603605e-31 1.5707963267948963
2 -24 20 -3.9999999999999996 0 1 3.2047474274603605e-31 0 -3.2047474274603605e-31 1 1 0 -0 4
1 -40 20 -2.4492935982947065e-15 0 1.2246467991473532e-16 1 
1 20 5 0 0 -1 0 
1 -40 20 0 1 0 0 
2 9.2211913722089139e-20 -9.8626305774847172 0 0 0 1 1 0 -0 -0 1 0 20.000003988286792
1 40 20 -2.4492935982947065e-15 0 1.2246467991473532e-16 1 
1 -20 -9.8499999999999996 0 0 1 0 
1 20 10 -1.0000000000000002 -1 -5.3121946479529426e-33 -1.7024242132195888e-63 
2 -20 9 -1 -1 -5.3121946479529426e-33 -1.7024242132195888e-63 1.6867516709168837e-80 -3.2047474274603605e-31 1 -5.3121946479529426e-33 1 3.2047474274603605e-31 1
1 40 -20 2.4492935982947065e-15 0 1.2246467991473532e-16 1 
1 40 20 0 0 -1 0 
1 -20 10 -1.0000000000000002 -1 -5.3121946479529426e-33 -1.7024242132195888e-63 
8 0 1
7 0 0  7 14 3  -24.000000059607775 9 0  -23.80221028332107 9.0988950117721128 -1.5333258472440192e-08  -23.604472533870766 9.1977630320675683 -0.011410145094781303  -23.407378562758442 9.2954232472577605 -0.034220051381704322  -23.211622752504418 9.3906353355028251 -0.06841816658985421  -23.017980762008751 9.4820786632122172 -0.11393575502496774  -22.827281287730731 9.568320056731368 -0.17060972176553446  -22.435400351566827 9.734897119631766 -0.31224607499950902  -22.235116471041238 9.8138012818648832 -0.39936558167129621  -22.04055153062049 9.8824332661019127 -0.49915625139367747  -21.85330347826622 9.9382719032479834 -0.61092065287354624  -21.675256923243367 9.9784579969097003 -0.73331024887358354  -21.508327782512836 10 -0.86411501205329155  -21.354248688935407 10 -1.0000000000000002 
 0 8 0.4769569779880759 6 1 8
1 -40 -20 2.4492935982947065e-15 0 1.2246467991473532e-16 1 
1 40 -20 0 -1 0 0 
8 4.4408920985006291e-16 1.5707963267948966
2 -24 9.9999999999999982 -3.9999999999999996 0 1 3.2047474274603605e-31 0 -3.2047474274603605e-31 1 1 0 -0 4
1 -20 9.9999999999999982 -3.9999999999999991 0 1 3.2047474274603605e-31 
1 -40 -20 0 0 1 0 
1 -20 -9.8499999999999996 0 0 1 0 
2 9.2211913722089139e-20 -9.8626305774847172 0 0 0 1 1 0 -0 -0 1 0 20.000003988286792
1 20 5 0 0 -1 0 
1 20 19.999999999999996 -9.8500000000006036 -0 -1 9.9579925010295987e-17 
1 -20 19.999999999999996 -9.8500000000006072 -0 -1 9.9579925010295987e-17 
Polygon3D 0
PolygonOnTriangulations 0
Surfaces 15
1 -40 -20 0 0 0 -1 -1 0 -0 0 1 0 
2 24 20 -3.9999999999999996 -0 -1 -3.2047474274603605e-31 0 -3.2047474274603605e-31 1 -1 0 0 4
2 24 9 -1 -1 -5.3121946479529426e-33 -1.7024242132195888e-63 1.6867516709168837e-80 -3.2047474274603605e-31 1 -5.3121946479529426e-33 1 3.2047474274603605e-31 1
1 -40 20 6.4094948549207209e-30 0 1 0 0 -0 1 1 0 -0 
2 20 9 -1 -1 -5.3121946479529426e-33 -1.7024242132195888e-63 1.6867516709168837e-80 -3.2047474274603605e-31 1 -5.3121946479529426e-33 1 3.2047474274603605e-31 1
1 40 20 -2.4492935982947065e-15 1 0 -0 0 -1 1.2246467991473532e-16 0 -1.2246467991473532e-16 -1 
2 -20 9 -1 -1 -5.3121946479529426e-33 -1.7024242132195888e-63 1.6867516709168837e-80 -3.2047474274603605e-31 1 -5.3121946479529426e-33 1 3.2047474274603605e-31 1
1 40 -20 2.4492935982947065e-15 0 -1 1.2246467991473532e-16 -1 0 0 -0 -1.2246467991473532e-16 -1 
2 -24 9.9999999999999982 -3.9999999999999996 0 1 3.2047474274603605e-31 0 -3.2047474274603605e-31 1 1 0 -0 4
1 -40 -20 2.4492935982947065e-15 -1 0 0 0 1 -1.2246467991473532e-16 -0 -1.2246467991473532e-16 -1 
1 20 -19.999999999999996 9.8500000000000014 -5.3121946479529426e-33 -1 2.3923997837040415e-16 0 -2.3923997837040415e-16 -1 1 -5.3121946479529426e-33 1.2708893326756387e-48 
1 20 20 -9.8499999999999996 -1 0 0 0 9.9579925010295987e-17 1 0 1 -9.9579925010295987e-17 
1 -20 20 5 1 0 0 0 -9.9579925010295987e-17 -1 0 1 -9.9579925010295987e-17 
1 -40 -20 0 0 0 -1 -1 0 -0 0 1 0 
2 -9.2211913722089139e-20 20 -9.8626305774847172 0 1 -9.9579925010295987e-17 -1 0 0 0 9.9579925010295987e-17 1 20.000003988286792
Triangulations 0

TShapes 102
Ve
0.0001
24 -10 -4.44089209850059e-16
0 0

0101101
*
Ve
1e-07
24 -9 3.64330048693921e-142
0 0

0101101
*
Ed
 1e-07 1 1 0
1  1 0 10 11
2  1 1 10 10 11
2  2 2 3 10 11
0

0101000
+102 11 -101 11 *
Ve
1e-07
24 -20 -4.44089209850063e-16
0 0

0101101
*
Ed
 1e-07 1 1 0
1  2 0 0 10
2  3 1 12 0 10
2  4 2 0 0 10
4 G1 1 12 2 0
0

0101000
+99 13 -102 13 *
Ve
1e-07
20 -9 0
0 0

0101101
*
Ed
 1e-07 1 1 0
1  3 0 2.1400661824758e-79 4
2  5 1 10 2.1400661824758e-79 4
2  6 3 0 2.1400661824758e-79 4
4 G1 1 10 3 0
0

0101000
+101 11 -97 11 *
Ve
1.00000001776357e-07
40 -20 3.64848168664718e-30
0 0

0101101
*
Ed
 1e-07 1 1 0
1  4 0 64 80
2  7 1 16 64 80
2  8 4 17 64 80
0

0101000
+99 18 -95 18 *
Ve
1e-07
-20 -9 0
0 0

0101101
*
Ed
 1e-07 1 1 0
1  5 0 0 40
2  9 1 10 0 40
2  10 5 0 0 40
4 G1 1 10 5 0
0

0101000
+97 11 -93 11 *
Ve
1.00000001776357e-07
40 20 -3.64848168664718e-30
0 0

0101101
*
Ed
 1.00000001776357e-07 1 1 0
1  6 0 0 40
2  11 1 16 0 40
2  12 6 19 0 40
0

0101000
+95 18 -91 18 *
Ve
1e-07
-24 -9 6.80969685287836e-63
0 0

0101101
*
Ed
 1e-07 1 1 0
1  7 0 0 4
2  13 1 10 0 4
2  14 7 0 0 4
4 G1 1 10 7 0
0

0101000
+93 11 -89 11 *
Ve
1.00000001776357e-07
-40 20 -3.64848168664718e-30
0 0

0101101
*
Ed
 1.00000001776357e-07 1 1 0
1  8 0 0 80
2  15 1 16 0 80
2  16 8 19 0 80
0

0101000
+91 18 -87 18 *
Ve
0.0001
-24 -10 -4.44089209850063e-16
0 0

0101101
*
Ed
 1e-07 1 1 0
1  9 0 -1.77635683940025e-15 0.999999999999998
2  17 1 10 -1.77635683940025e-15 0.999999999999998
2  18 9 3 -1.77635683940025e-15 0.999999999999998
0

0101000
+85 11 -89 11 *
Ve
1.00000001776357e-07
-40 -20 3.64848168664718e-30
0 0

0101101
*
Ed
 1.00000001776357e-07 1 1 0
1  10 0 0 40
2  19 1 16 0 40
2  20 10 19 0 40
0

0101000
+87 18 -83 18 *
Ve
1e-07
-24 -20 -4.44089209850063e-16
0 0

0101101
*
Ed
 1e-07 1 1 0
1  11 0 1.15012166457262e-15 10
2  21 1 12 1.15012166457262e-15 10
2  22 9 0 1.15012166457262e-15 10
4 G1 1 12 9 0
0

0101000
+85 13 -81 13 *
Ed
 1e-07 1 1 0
1  12 0 0 16
2  23 1 16 0 16
2  24 4 17 0 16
0

0101000
-81 18 +83 18 *
Wi

0101100
+100 0 +98 3 +96 0 -94 15 +92 0 -90 15 +88 0 -86 15 -84 0 -82 15 
+80 3 -79 15 *
Fa
0  1e-07 1 8

0101000
+78 9 *
Ve
1e-07
21.3542486889354 -10 1
0 0

0101101
*
Ve
1e-07
20 -10 4
0 0

0101101
*
Ed
 1e-07 1 1 0
1  13 0 3.86432690140321 4.71238898038469
2  25 2 0 3.86432690140321 4.71238898038469
2  26 11 22 3.86432690140321 4.71238898038469
0

0101000
+76 13 -75 13 *
Ed
 1e-07 1 1 0
1  14 0 0 1
2  27 2 3 0 1
2  28 3 0 0 1
0

0101000
+101 11 -76 11 *
Ve
1e-07
20 -20 4
0 0

0101101
*
Ed
 1e-07 1 1 0
1  15 0 3.98986399474666e-16 10
2  29 2 0 3.98986399474666e-16 10
2  30 12 2 3.98986399474666e-16 10
4 G1 2 0 12 2
0

0101000
+72 13 -75 13 *
Ed
 1e-07 1 1 0
1  16 0 3.14159265358979 4.71238898038469
2  31 2 0 3.14159265358979 4.71238898038469
2  32 4 2 3.14159265358979 4.71238898038469
0

0101000
+99 13 -72 13 *
Wi

0101100
-74 3 -73 0 +71 3 -100 0 +70 3 -98 3 *
Fa
0  1e-07 2 0

0101000
+69 20 *
Ve
1e-07
20 -10 1
0 0

0101101
*
Ed
 1e-07 1 1 0
1  17 0 2.64575131106459 4
2  33 3 0 2.64575131106459 4
2  34 11 23 2.64575131106459 4
4 G1 3 0 11 23
0

0101000
+76 11 -67 11 *
Ed
 1e-07 1 1 0
1  18 0 0 1.5707963267949
2  35 3 0 0 1.5707963267949
2  36 5 0 0 1.5707963267949
4 G1 3 0 5 0
0

0101000
+97 11 -67 11 *
Wi

0101100
+73 0 -96 0 +66 0 -65 0 *
Fa
0  1e-07 3 0

0101000
+64 0 *
Ve
1e-07
-20 -20 4
0 0

0101101
*
Ed
 1e-07 1 1 0
1  19 0 3.20474742746036e-31 1.5707963267949
2  37 4 2 3.20474742746036e-31 1.5707963267949
2  38 9 0 3.20474742746036e-31 1.5707963267949
0

0101000
+81 13 -62 13 *
Ve
1.00000001776357e-07
-40 -20 -15
0 0

0101101
*
Ed
 1e-07 1 1 0
1  20 0 0 15
2  39 4 27 0 15
2  40 10 0 0 15
0

0101000
+83 28 -60 28 *
Ve
1.00000607514039e-07
-20 -20 9.85000000000061
0 0

0101101
*
Ed
 1e-07 1 1 0
1  21 0 9 14.85
2  41 4 31 9 14.85
2  42 13 31 9 14.85
0

0101000
+62 32 -58 32 *
Ve
1.00000001776357e-07
40 -20 -15
0 0

0101101
*
Ed
 1e-07 1 1 0
1  22 0 0 80
2  43 4 35 0 80
2  44 14 16 0 80
0

0101000
+60 36 -56 36 *
Ve
1.00000603961325e-07
20 -20 9.8500000000006
0 0

0101101
*
Ed
 1e-07 1 1 0
1  23 0 3.14096112479958 6.2838168359698
2  45 4 31 3.14096112479958 6.2838168359698
2  46 15 31 3.14096112479958 6.2838168359698
0

0101000
+54 32 -58 32 *
Ed
 1e-07 1 1 0
1  24 0 0 15
2  47 4 27 0 15
2  48 6 0 0 15
0

0101000
+95 28 -56 28 *
Ed
 1e-07 1 1 0
1  25 0 0 5.85
2  49 4 31 0 5.85
2  50 12 31 0 5.85
0

0101000
-72 32 +54 32 *
Wi

0101100
-79 25 -61 0 +59 26 -57 30 +55 34 +53 30 -52 26 -51 30 -94 25 +70 0 
*
Fa
0  1e-07 4 0

0101000
+50 24 *
Ve
1e-07
-20 -10 1
0 0

0101101
*
Ed
 1e-07 1 1 0
1  26 0 0 40
2  51 5 0 0 40
2  52 11 23 0 40
4 G1 5 0 11 23
0

0101000
+67 11 -48 11 *
Ed
 1e-07 1 1 0
1  27 0 0 1.5707963267949
2  53 5 0 0 1.5707963267949
2  54 7 0 0 1.5707963267949
4 G1 5 0 7 0
0

0101000
+93 11 -48 11 *
Wi

0101100
+65 0 -92 0 +47 0 -46 0 *
Fa
0  1e-07 5 0

0101000
+45 0 *
Ve
1.00000001776357e-07
40 20 -15
0 0

0101101
*
Ed
 1e-07 1 1 0
1  28 0 0 15
2  55 6 0 0 15
2  56 8 0 0 15
0

0101000
+91 28 -43 28 *
Ed
 1.00000001776357e-07 1 1 0
1  29 0 0 40
2  57 6 40 0 40
2  58 14 16 0 40
0

0101000
+56 36 -43 36 *
Wi

0101000
+52 0 -42 0 -90 38 +41 39 *
Fa
0  1e-07 6 0

0101000
+40 0 *
Ve
1e-07
-21.3542486889354 -10 1
0 0

0101101
*
Ed
 1e-07 1 1 0
1  30 0 0 1.35424868893541
2  59 7 0 0 1.35424868893541
2  60 11 23 0 1.35424868893541
4 G1 7 0 11 23
0

0101000
+48 11 -38 11 *
Ed
 1e-07 1 1 0
1  31 0 0 1
2  61 7 0 0 1
2  62 9 3 0 1
0

0101000
+89 11 -38 11 *
Wi

0101100
+46 0 -88 0 +37 0 -36 0 *
Fa
0  1e-07 7 0

0101000
+35 0 *
Ve
1.00000001776357e-07
-40 20 -15
0 0

0101101
*
Ed
 1e-07 1 1 0
1  32 0 0 15
2  63 8 0 0 15
2  64 10 0 0 15
0

0101000
+87 28 -33 28 *
Ed
 1.00000001776357e-07 1 1 0
1  33 0 0 80
2  65 8 40 0 80
2  66 14 16 0 80
0

0101000
+43 36 -33 36 *
Wi

0101000
+42 0 -32 0 -86 38 +31 39 *
Fa
0  1e-07 8 0

0101000
+30 0 *
Ve
1e-07
-20 -10 4
0 0

0101101
*
Ed
 1e-07 1 1 0
1  34 0 0.722734247813416 1.5707963267949
2  67 9 0 0.722734247813416 1.5707963267949
2  68 11 22 0.722734247813416 1.5707963267949
0

0101000
+38 13 -28 13 *
Ed
 1e-07 1 1 0
1  35 0 1.97215226305253e-31 10
2  69 9 0 1.97215226305253e-31 10
2  70 13 2 1.97215226305253e-31 10
4 G1 9 0 13 2
0

0101000
+28 13 -62 13 *
Wi

0101100
+27 3 +36 0 +26 3 +84 0 -61 3 -80 3 *
Fa
0  1e-07 9 0

0101000
+25 20 *
Ed
 1.00000001776357e-07 1 1 0
1  36 0 0 40
2  71 10 40 0 40
2  72 14 16 0 40
0

0101000
+33 36 -60 36 *
Wi

0101000
+32 0 -59 0 -82 38 +23 39 *
Fa
0  1e-07 10 0

0101000
+22 0 *
Ve
1.00000603961325e-07
20 -10 9.8500000000006
0 0

0101101
*
Ed
 1e-07 1 1 0
1  37 0 0 5.85
2  73 11 43 0 5.85
2  74 12 44 0 5.85
0

0101000
-75 45 +20 45 *
Ve
1.00000607514039e-07
-20 -10 9.85000000000061
0 0

0101101
*
Ed
 1e-07 1 1 0
1  38 0 3.14096112479958 6.2838168359698
2  75 11 43 3.14096112479958 6.2838168359698
2  76 15 44 3.14096112479958 6.2838168359698
0

0101000
+20 45 -18 45 *
Ed
 1e-07 1 1 0
1  39 0 9 14.85
2  77 11 43 9 14.85
2  78 13 44 9 14.85
0

0101000
+28 45 -18 45 *
Wi

0101100
+74 3 -66 0 -19 42 -47 0 +17 42 -37 0 -16 42 -27 3 *
Fa
0  1e-07 11 41

0101000
+15 9 *
Ed
 1.00000603961325e-07 1 1 0
1  40 0 0 10
2  79 12 0 0 10
2  80 15 0 0 10
4 G1 12 0 15 0
0

0101000
+54 46 -20 46 *
Wi

0101100
-51 30 -71 0 +13 2 +19 47 *
Fa
0  1e-07 12 0

0101000
+12 24 *
Ed
 1.00000607514039e-07 1 1 0
1  41 0 0 10
2  81 13 0 0 10
2  82 15 0 0 10
4 G1 13 0 15 0
0

0101000
+58 46 -18 46 *
Wi

0101100
-57 30 -26 0 -10 2 +16 47 *
Fa
0  1e-07 13 0

0101000
+9 24 *
Wi

0101100
+55 0 +41 0 +31 0 +23 0 *
Fa
0  1e-07 14 0

0101000
-7 14 *
Wi

0101000
+13 0 -10 0 -53 49 +17 50 *
Fa
0  1e-07 15 0

0101000
+5 0 *
Sh

0101100
-77 4 -68 3 -63 0 +49 4 -44 0 +39 37 -34 0 +29 37 -24 3 +21 37 
-14 4 -11 4 -8 4 +6 48 +4 4 *
So

0100000
+3 0 *
Co

1100000
+2 0 *

+1 1 