DBRep_DrawableShape

CASCADE Topology V1, (c) Matra-Datavision
Locations 14
1
              0               0               1               0 
              1               0               0               0 
              0               1               0               0 
2  1 -1 0
1
              0               0               1               0 
              1               0               0               0 
              0               1               0               0 
1
              0 1.11022302462516e-16               1               0 
              1               0 1.11022302462516e-16               0 
1.11022302462516e-16               1               0               0 
2  3 1 4 -1 0
2  4 1 3 -1 0
2  3 -1 0
2  1 -1 4 1 3 -1 0
1
              1               0               0               0 
              0               1               0 1.40998324127395e-15 
              0               0               1            12.7 
2  3 1 4 -1 9 1 0
2  9 -1 4 1 3 -1 0
2  1 -1 9 -1 4 1 3 -1 0
2  4 -1 0
2  4 -1 9 1 0
Curve2ds 24
1 0 0 1.1102230246251568e-16 -1 
1 82.700000000000003 2.5590118440306761e-47 -1.1102230246251568e-16 -1 
1 82.699999999999974 0 1.1102230246251568e-16 -1 
1 0 0 1.1102230246251568e-16 -1 
1 0 0 1 0 
1 0 -0 -1.1102230246251565e-16 -1 
1 1.4099832412739491e-15 -12.699999999999999 1 0 
1 0 -0 -1.1102230246251565e-16 -1 
1 82.700000000000003 -2.5590118440306761e-47 1.1102230246251568e-16 -1 
1 0 0 -1.1102230246251568e-16 -1 
1 0 0 1 0 
1 -9.1815444136500433e-15 -82.699999999999974 -1 -1.1102230246251565e-16 
1 0 -12.699999999999999 1 0 
1 -9.1815444136500433e-15 -82.699999999999974 -1 -1.1102230246251565e-16 
1 82.699999999999974 0 -1.1102230246251568e-16 -1 
1 0 0 -1.1102230246251568e-16 -1 
1 0 0 1 0 
1 -82.700000000000017 -82.699999999999989 1.1102230246251565e-16 1 
1 -1.4099832412739491e-15 -12.699999999999999 1 0 
1 -82.700000000000017 -82.699999999999989 1.1102230246251565e-16 1 
1 0 0 1 0 
1 -82.700000000000003 -1.4210854715202002e-14 1 1.1102230246251565e-16 
1 0 -12.699999999999999 1 0 
1 -82.700000000000003 -1.4210854715202002e-14 1 1.1102230246251565e-16 
Curves 12
1 -41.349999999999987 -41.349999999999994 -4.5907722068250209e-15 0 1.1102230246251568e-16 1 
1 41.349999999999987 -41.349999999999994 4.5907722068250225e-15 0 1.1102230246251568e-16 1 
1 -41.349999999999987 -41.350000000000001 0 1 0 0 
1 -41.349999999999987 -41.350000000000001 0 1 0 0 
1 41.350000000000001 41.350000000000009 4.5907722068250225e-15 0 1.1102230246251568e-16 1 
1 41.350000000000001 -41.350000000000001 0 0 1 0 
1 41.350000000000001 -41.350000000000001 0 0 1 0 
1 -41.349999999999973 41.350000000000009 -4.5907722068250209e-15 0 1.1102230246251568e-16 1 
1 41.350000000000001 41.350000000000016 0 -1 0 0 
1 41.350000000000001 41.350000000000016 0 -1 0 0 
1 -41.349999999999987 41.350000000000016 0 0 -1 0 
1 -41.349999999999987 41.350000000000016 0 0 -1 0 
Polygon3D 0
PolygonOnTriangulations 0
Surfaces 6
1 -41.349999999999987 -41.349999999999994 -4.5907722068250209e-15 1.2325951644078315e-32 1 -1.1102230246251568e-16 1 0 1.1102230246251568e-16 1.1102230246251568e-16 -1.1102230246251568e-16 -1 
1 -41.349999999999973 41.350000000000009 -4.5907722068250209e-15 1 -1.1102230246251568e-16 1.2325951644078315e-32 -1.1102230246251568e-16 -1 0 1.2325951644078315e-32 -1.3684555315672051e-48 -1 
1 41.349999999999987 -41.349999999999994 4.5907722068250225e-15 -1 1.1102230246251568e-16 -1.2325951644078315e-32 1.1102230246251568e-16 1 0 1.2325951644078315e-32 -1.3684555315672051e-48 -1 
1 0 -41.349999999999987 -41.350000000000001 -1 0 0 0 0 -1 -0 -1 -0 
1 0 -41.349999999999987 -41.350000000000001 -1 0 0 0 0 -1 -0 -1 -0 
1 41.350000000000001 41.350000000000009 4.5907722068250225e-15 -1.2325951644078315e-32 -1 1.1102230246251568e-16 -1 0 -1.1102230246251568e-16 1.1102230246251568e-16 -1.1102230246251568e-16 -1 
Triangulations 0

TShapes 34
Ve
1e-07
-4.59077220682502e-15 -41.35 -41.35
0 0

0101101
*
Ve
1e-07
12.7 -41.35 -41.35
0 0

0101101
*
Ed
 1e-07 1 1 0
1  1 0 0 12.7
2  1 1 0 0 12.7
2  2 2 0 0 12.7
0

0101000
+34 2 -33 2 *
Ve
1e-07
4.59077220682502e-15 41.35 -41.35
0 0

0101101
*
Ve
1e-07
12.7 41.35 -41.35
0 0

0101101
*
Ed
 1e-07 1 1 0
1  2 0 0 12.7
2  3 1 0 0 12.7
2  4 3 0 0 12.7
0

0101000
+31 2 -30 2 *
Ed
 1e-07 1 1 0
1  3 0 0 82.7
2  5 1 6 0 82.7
2  6 4 7 0 82.7
0

0101000
+34 8 -31 8 *
Ed
 1e-07 1 1 0
1  4 0 0 82.7
2  7 1 11 0 82.7
2  8 5 7 0 82.7
0

0101000
+33 12 -30 12 *
Wi

0101000
+32 0 -29 0 -28 5 +27 10 *
Fa
0  1e-07 1 0

0101000
+26 0 *
Ve
1e-07
4.59077220682502e-15 41.35 41.35
0 0

0101101
*
Ve
1e-07
12.7 41.35 41.35
0 0

0101101
*
Ed
 1e-07 1 1 0
1  5 0 0 12.7
2  9 3 0 0 12.7
2  10 6 0 0 12.7
0

0101000
+24 2 -23 2 *
Ed
 1e-07 1 1 0
1  6 0 0 82.7
2  11 3 6 0 82.7
2  12 4 7 0 82.7
0

0101000
+31 8 -24 8 *
Ed
 1e-07 1 1 0
1  7 0 0 82.7
2  13 3 11 0 82.7
2  14 5 7 0 82.7
0

0101000
+30 12 -23 12 *
Wi

0101000
+29 0 -22 0 -21 5 +20 10 *
Fa
0  1e-07 3 0

0101000
+19 0 *
Ve
1e-07
-4.59077220682502e-15 -41.35 41.35
0 0

0101101
*
Ve
1e-07
12.7 -41.35 41.35
0 0

0101101
*
Ed
 1e-07 1 1 0
1  8 0 0 12.7
2  15 6 0 0 12.7
2  16 2 0 0 12.7
0

0101000
+17 2 -16 2 *
Ed
 1e-07 1 1 0
1  9 0 0 82.7
2  17 6 6 0 82.7
2  18 4 7 0 82.7
0

0101000
+24 8 -17 8 *
Ed
 1e-07 1 1 0
1  10 0 0 82.7
2  19 6 11 0 82.7
2  20 5 7 0 82.7
0

0101000
+23 12 -16 12 *
Wi

0101000
+22 0 -15 0 -14 5 +13 10 *
Fa
0  1e-07 6 0

0101000
+12 0 *
Ed
 1e-07 1 1 0
1  11 0 0 82.7
2  21 2 6 0 82.7
2  22 4 7 0 82.7
0

0101000
+17 8 -34 8 *
Ed
 1e-07 1 1 0
1  12 0 0 82.7
2  23 2 11 0 82.7
2  24 5 7 0 82.7
0

0101000
+16 12 -33 12 *
Wi

0101000
+15 0 -32 0 -10 5 +9 10 *
Fa
0  1e-07 2 0

0101000
+8 0 *
Wi

0101100
+28 0 +21 0 +14 0 +10 0 *
Fa
0  1e-07 4 0

0101000
-6 3 *
Wi

0101100
+27 0 +20 0 +13 0 +9 0 *
Fa
0  1e-07 5 0

0101000
-4 3 *
Sh

0101000
-25 0 -18 0 -11 0 -7 0 +5 13 -3 14 *
So

1100000
+2 0 *

+1 1 