DBRep_DrawableShape

CASCADE Topology V1, (c) Matra-Datavision
Locations 8
1
              1               0               0               0 
              0               1               0               0 
              0               0               1               0 
1
              1               0               0              -0 
              0               1               0               0 
              0               0               1             425 
2  2 -1 0
2  1 -1 2 -1 0
2  1 -1 0
1
              1               0               0              -0 
              0               1               0               0 
              0               0               1              25 
2  6 -1 0
2  1 -1 6 -1 0
Curve2ds 48
1 0 0 1 0 
1 -8.5237428748996535e-05 -100 1 0 
1 1300 0 0 1 
1 4.7123889712818894 0 0 1 
7 0 0  1 2 2  0 1  1300 1 
 0 2 1100 2
1 -1100.0000009102801 -100.00000584419664 1 0 
1 0 0 0 1 
1 4.7123890479294479 0 0 1 
7 0 0  1 2 2  4.7123889712818894 0  6.2831860971092368 0 
 4.7123889663226848 2 6.2831853247928446 2
2 1299.9999161687695 -8.664362792387692e-05 1 0 -0 1 99.999913356371962
1 6.2831860971092368 0 0 1 
1 0 0 0 1 
1 0 1 1 0 
2 0 0 1 0 -0 1 100.00000584419672
1 0 0 1 0 
1 1399.9998295251416 -8.4882303468702958e-05 0 1 
1 400 0 0 1 
1 6.2831852483991097 0 0 1 
7 0 0  1 2 2  0 1  400 1 
 0 2 299.99999999999977 2
1 100.00000584416534 7.8992964233748353e-05 0 1 
7 0 0  1 2 2  6.2831852483991097 0  7.8539816190987644 0 
 -1.2999275433855928e-08 2 1.5707963234570625 2
2 1299.9999144287872 399.99991641762369 1 0 -0 1 99.999915096354243
1 7.8539816190987644 0 0 1 
1 0 0 0 1 
1 6.2831853071795862 1 1 0 
2 -2.3978520857781405e-06 300.00008487101212 1 0 -0 1 100.00000824204881
1 0 0 1 0 
1 1299.9999147625713 499.99983151397794 -1 0 
1 1300 0 0 1 
1 1.5707962592501254 0 0 1 
7 0 0  1 2 2  0 1  1300 1 
 0 2 1100 2
1 -9.1028005044790916e-07 400.00009311306093 -1 0 
7 0 0  1 2 2  1.5707962592501254 0  3.14159279479076 0 
 1.570797179169193 2 3.141591817552607 2
2 8.8107299234252423e-13 399.99983151397794 1 0 -0 1 100
1 3.14159279479076 0 0 1 
1 0 0 0 1 
1 0 1 1 0 
2 -1100.000007664757 300.00009311306093 1 0 -0 1 100
1 0 0 1 0 
1 -99.999999999999019 399.99991511769656 0 -1 
1 400 0 0 1 
1 3.1415918052181846 0 0 1 
7 0 0  1 2 2  0 1  400 1 
 0 2 300 2
1 -1200.00000766472 300.00007899296423 0 -1 
7 0 0  1 2 2  3.1415918052181846 0  4.7123890479294479 0 
 3.1415935024128281 2 4.7123881280104021 2
2 0 0 1 0 -0 1 99.999999999999972
1 0 1 1 0 
2 -1100.0000076647559 -5.8441966359623621e-06 1 0 -0 1 100
Curves 24
1 200 100.00008488230347 0 1 0 0 
7 0 0  1 2 2  1500 100.00008488230347 425  1400 149.99991516283913 25 
 0 2 1 2
1 299.99999999999994 149.99991516283913 0 1 0 0 
7 0 0  1 2 2  200 100.00008488230347 425  299.99999999999994 149.99991516283913 25 
 0 2 1 2
2 1500.0000014061982 199.99999823867554 0 0 0 1 1 0 -0 -0 1 0 99.999913356372062
7 0 0  1 2 2  1599.9999147625701 199.99999999999983 425  1500.0000067544456 250.00000000000543 25 
 0 2 1 2
2 1400.0000009102801 249.99992100703577 0 0 0 1 1 0 -0 -0 1 0 100.00000584419665
1 1599.9999147625704 200 0 0 1 0 
7 0 0  1 2 2  1599.9999147625704 600 425  1500.0000067544454 549.99999999999977 25 
 0 2 1 2
1 1500.0000067544454 250 0 0 1 0 
2 1499.9999996662159 600.00000129992713 0 0 0 1 1 0 -0 -0 1 0 99.999915096354286
7 0 0  1 2 2  1499.9999999999993 699.99991639628138 425  1400 650.00001412009669 25 
 0 2 1 2
2 1399.999998512428 550.00000587804789 0 0 0 1 1 0 -0 -0 1 0 100.00000824204885
1 1500 699.99991639628138 0 -1 0 0 
7 0 0  1 2 2  200 699.99991639628138 425  300 650.00001412009669 25 
 0 2 1 2
1 1400 650.00001412009669 0 -1 0 0 
2 200.00008523742963 599.99991639628138 0 0 0 1 1 0 -0 -0 1 0 100
7 0 0  1 2 2  100.00008523746459 600 425  199.99999324552385 550 25 
 0 2 1 2
2 299.99999324552289 550.00001412009669 0 0 0 1 1 0 -0 -0 1 0 100
1 100.00008523742973 600 0 0 -1 0 
7 0 0  1 2 2  100.00008523742973 200 425  199.99999324556012 250 25 
 0 2 1 2
1 199.99999324556012 550 0 0 -1 0 
2 200.00008523742875 200.00008488230347 0 0 0 1 1 0 -0 -0 1 0 100
2 299.99999324552414 249.99991516283913 0 0 0 1 1 0 -0 -0 1 0 100
Polygon3D 0
PolygonOnTriangulations 0
Surfaces 10
9 0 0 0 0 1 1 2 2 2 2 200 100.00008488230347 425  299.99999999999994 149.99991516283913 25  
1500 100.00008488230347 425  1400 149.99991516283913 25  

0 2
1300 2

0 2
1 2

1 200.00008523742875 200.00008488230347 425 0 0 1 1 0 -0 -0 1 0 
9 0 0 0 0 9 1 10 2 2 2 1499.9999999999989 100.0000848823035 425  1400.0000000000002 149.9999151628391 25  
1517.4532777497182 100.00008463687507 425.00000000000063  1417.453302418101 149.99991500396555 25.000000000000234  
1534.9065557977669 103.42702725598292 424.99999999999829  1434.9066051174252 153.42686422735852 24.99999999999913  
1551.5908277697283 110.28091514797781 425.00000000000318  1451.5908998857349 160.28076523758912 25.000000000001926  
1566.7370981726742 120.3604131748739 424.99999999999511  1466.7371893919719 170.36028231314356 24.999999999997176  
1579.6395867069755 133.26290175505378 425.0000000000058  1479.639691714498 183.26279470997113 25.000000000002885  
1589.7190846801179 148.40917219373168 424.99999999999488  1489.7191969631463 198.40909208683334 24.999999999997929  
1596.572972512851 165.09344419007644 425.00000000000279  1496.5730849459937 215.09339220668789 25.000000000001009  
1599.99991506998 182.54672225027682 424.99999999999915  1500.0000205413132 232.54669758192227 24.999999999999734  
1599.9999147625701 199.99999999999983 425  1500.0000067544456 250.00000000000543 25  

4.7123889712818894 10
6.2831860971092368 10

0 2
1 2

1 1400.0000009102801 249.99992100703577 25 0 0 1 1 0 -0 -0 1 0 
9 0 0 0 0 9 1 10 2 2 2 100.00008523746479 200 425  199.99999324556012 249.99999999999997 25  
100.00010005220575 182.54672638225534 425.00000000000153  199.99997843867231 232.54669730321572 25.00000000000021  
103.42705313963208 165.09345542326932 424.99999999999523  203.42691332378325 215.09339144898487 24.999999999999162  
110.28094624452612 148.40919161855808 425.0000000000087  210.28080095083527 198.40909077662923 25.000000000001855  
120.36044427936046 133.26292840890832 424.99999999998772  220.36030619562683 183.26279291211435 24.999999999997232  
133.26292848120801 120.36044416122968 425.00000000001313  233.26280881001625 170.36028022310617 25.000000000002988  
148.40919165507 110.28094607261743 424.99999999998965  248.40909880417394 160.28076315167542 24.999999999997669  
165.09345543543964 103.42705290846726 425.00000000000591  265.09339412482728 153.42686249708046 25.000000000001247  
182.54672638225503 100.00009975906212 424.99999999999807  282.54669730320927 149.99991398395861 24.999999999999616  
199.99999999999997 100.00008488233981 425  299.99999999999994 149.99991516283933 25  

3.1415918052181846 10
4.7123890479294479 10

0 2
1 2

9 0 0 0 0 1 1 2 2 2 2 1599.9999147625704 200 425  1500.0000067544454 250 25  
1599.9999147625704 600 425  1500.0000067544454 549.99999999999977 25  

0 2
400 2

0 2
1 2

9 0 0 0 0 9 1 10 2 2 2 1599.9999147625704 600.00000000000068 425  1500.0000067544765 549.99999999999977 25  
1599.9999149894486 617.45327780881769 425.00000000000301  1500.0000077803938 567.45329444628408 25.000000000000231  
1596.5729723882293 634.90655591225766 424.99999999998818  1496.5730626367172 584.9065893441101 24.999999999999197  
1589.7190845513223 651.59082795509801 425.00000000002439  1489.7191688807491 601.59087757154714 25.00000000000156  
1579.639586609876 666.73709846308202 424.99999999996669  1479.6396618133383 616.73716287881211 24.999999999997932  
1566.7370981304859 679.6395871533249 425.00000000003132  1466.7371613791406 629.63966426334741 25.000000000001876  
1551.590827787116 689.71908534217573 424.9999999999792  1451.5908768143047 639.71917244638576 24.999999999998789  
1534.9065558562759 696.5729734516708 425.00000000000966  1434.9065890916916 646.57306743124843 25.000000000000565  
1517.4532778088158 699.99991633802347 424.99999999999727  1417.453294446286 650.00001386047063 24.999999999999858  
1499.9999999999993 699.99991639628138 425  1400 650.00001412009669 25  

6.2831852483991097 10
7.8539816190987644 10

0 2
1 2

9 0 0 0 0 1 1 2 2 2 2 1500 699.99991639628138 425  1400 650.00001412009669 25  
200 699.99991639628138 425  300 650.00001412009669 25  

0 2
1300 2

0 2
1 2

9 0 0 0 0 9 1 10 2 2 2 200.00000000000003 699.999916396245 425  300 650.00001412009647 25  
182.54672624019196 699.99990151952352 425.00000000000313  282.54670516066005 650.00001529897258 25.000000000000078  
165.09345515130366 696.57294831432557 424.99999999998795  265.09340983973578 646.57306987148695 24.999999999999826  
148.40919124766612 689.7190550386058 425.00000000002632  248.4091213378953 639.71917538806952 25.000000000000156  
133.2629279880469 679.63955678916977 424.99999999996061  233.2628360853966 629.63966721101747 25.000000000000011  
120.36044375426175 666.73707234457129 425.00000000004195  220.36033523903802 616.73716541422118 24.999999999999851  
110.28094575225028 651.59080892029806 424.99999999996822  210.28082817753889 601.59087941939117 25.000000000000139  
103.4270527491158 634.90654490468387 425.00000000001631  203.42693492305602 584.90659041265837 24.999999999999943  
100.00009982904939 617.45327375980685 424.99999999999517  199.9999907811027 567.45329483934665 25.000000000000025  
100.00008523746459 600 425  199.99999324552385 550 25  

1.5707962592501254 10
3.14159279479076 10

0 2
1 2

9 0 0 0 0 1 1 2 2 2 2 100.00008523742973 600 425  199.99999324556012 550 25  
100.00008523742973 200 425  199.99999324556012 250 25  

0 2
400 2

0 2
1 2

Triangulations 0

TShapes 62
Ve
1.00018161477886e-07
200 100.000084882322 425
0 0

0101101
*
Ve
1.00000568611797e-07
1500 100.000084882303 425
0 0

0101101
*
Ed
 1e-07 1 1 0
1  1 0 0 1300
2  1 1 3 0 1300
2  2 2 3 0 1300
0

0101000
+62 4 -61 4 *
Ve
1.00000014210855e-07
1400 149.999915162839 25
0 0

0101101
*
Ed
 1e-07 1 1 0
1  2 0 0 1
2  3 1 0 0 1
2  4 3 0 0 1
0

0101000
+61 5 -59 5 *
Ve
1.00000113686838e-07
300 149.999915162839 25
0 0

0101101
*
Ed
 1e-07 1 1 0
1  3 0 0 1100
2  5 1 7 0 1100
2  6 4 7 0 1100
0

0101000
+57 8 -59 8 *
Ed
 1e-07 1 1 0
1  4 0 0 1
2  7 1 0 0 1
2  8 5 0 0 1
0

0101000
+62 5 -57 5 *
Wi

0101000
+60 2 +58 0 -56 6 -55 0 *
Fa
0  1e-07 1 0

0101000
+54 0 *
Ve
1.00000142108547e-07
1599.99991476257 200 425
0 0

0101101
*
Ed
 1e-07 1 1 0
1  5 0 4.71238896632268 6.28318532479284
2  9 3 3 4.71238896632268 6.28318532479284
2  10 2 3 4.71238896632268 6.28318532479284
0

0101000
+61 4 -52 4 *
Ve
1.00002714273251e-07
1500.00000675445 250.000000000003 25
0 0

0101101
*
Ed
 1e-07 1 1 0
1  6 0 0 1
2  11 3 0 0 1
2  12 6 0 0 1
0

0101000
+52 5 -50 5 *
Ed
 1e-07 1 1 0
1  7 0 4.71238897128189 6.28318609710924
2  13 3 7 4.71238897128189 6.28318609710924
2  14 4 7 4.71238897128189 6.28318609710924
0

0101000
+59 8 -50 8 *
Wi

0101000
+51 2 +49 0 -48 6 -58 0 *
Fa
0  1e-07 3 0

0101000
+47 0 *
Ve
5.13649342792633e-06
1599.99991476257 600 425
0 0

0101101
*
Ed
 1e-07 1 1 0
1  8 0 0 400
2  15 6 3 0 400
2  16 2 3 0 400
0

0101000
+52 4 -45 4 *
Ve
1.00015575096768e-07
1500.00000675446 550 25
0 0

0101101
*
Ed
 1e-07 1 1 0
1  9 0 0 1
2  17 6 0 0 1
2  18 7 0 0 1
0

0101000
+45 5 -43 5 *
Ed
 1e-07 1 1 0
1  10 0 0 300
2  19 6 7 0 300
2  20 4 7 0 300
0

0101000
+50 8 -43 8 *
Wi

0101000
+44 2 +42 0 -41 6 -49 0 *
Fa
0  1e-07 6 0

0101000
+40 0 *
Ve
5.13649342792633e-06
1500 699.999916396281 425
0 0

0101101
*
Ed
 5.13649342792633e-06 1 1 0
1  11 0 -1.29992754338559e-08 1.57079632345706
2  21 7 3 -1.29992754338559e-08 1.57079632345706
2  22 2 3 -1.29992754338559e-08 1.57079632345706
0

0101000
+45 4 -38 4 *
Ve
1e-07
1400 650.000014120097 25
0 0

0101101
*
Ed
 1e-07 1 1 0
1  12 0 0 1
2  23 7 0 0 1
2  24 8 0 0 1
0

0101000
+38 5 -36 5 *
Ed
 1e-07 1 1 0
1  13 0 -5.87804764862199e-08 1.57079631191918
2  25 7 7 -5.87804764862199e-08 1.57079631191918
2  26 4 7 -5.87804764862199e-08 1.57079631191918
0

0101000
+43 8 -36 8 *
Wi

0101000
+37 2 +35 0 -34 6 -42 0 *
Fa
0  1e-07 7 0

0101000
+33 0 *
Ve
1.00018189894035e-07
200 699.999916396263 425
0 0

0101101
*
Ed
 1e-07 1 1 0
1  14 0 0 1300
2  27 8 3 0 1300
2  28 2 3 0 1300
0

0101000
+38 4 -31 4 *
Ve
1.00000113686838e-07
300 650.000014120097 25
0 0

0101101
*
Ed
 1e-07 1 1 0
1  15 0 0 1
2  29 8 0 0 1
2  30 9 0 0 1
0

0101000
+31 5 -29 5 *
Ed
 1e-07 1 1 0
1  16 0 0 1100
2  31 8 7 0 1100
2  32 4 7 0 1100
0

0101000
+36 8 -29 8 *
Wi

0101000
+30 2 +28 0 -27 6 -35 0 *
Fa
0  1e-07 8 0

0101000
+26 0 *
Ve
1.00017422507881e-07
100.000085237447 600 425
0 0

0101101
*
Ed
 1e-07 1 1 0
1  17 0 1.57079717916919 3.14159181755261
2  33 9 3 1.57079717916919 3.14159181755261
2  34 2 3 1.57079717916919 3.14159181755261
0

0101000
+31 4 -24 4 *
Ve
1.00018118839762e-07
199.999993245542 550 25
0 0

0101101
*
Ed
 1e-07 1 1 0
1  18 0 0 1
2  35 9 0 0 1
2  36 10 0 0 1
0

0101000
+24 5 -22 5 *
Ed
 1e-07 1 1 0
1  19 0 1.57079625925013 3.14159279479076
2  37 9 7 1.57079625925013 3.14159279479076
2  38 4 7 1.57079625925013 3.14159279479076
0

0101000
+29 8 -22 8 *
Wi

0101000
+23 2 +21 0 -20 6 -28 0 *
Fa
0  1e-07 9 0

0101000
+19 0 *
Ve
1.00017521989627e-07
100.000085237447 200 425
0 0

0101101
*
Ed
 1e-07 1 1 0
1  20 0 0 400
2  39 10 3 0 400
2  40 2 3 0 400
0

0101000
+24 4 -17 4 *
Ve
1e-07
199.99999324556 250 25
0 0

0101101
*
Ed
 1e-07 1 1 0
1  21 0 0 1
2  41 10 0 0 1
2  42 5 0 0 1
0

0101000
+17 5 -15 5 *
Ed
 1e-07 1 1 0
1  22 0 0 300
2  43 10 7 0 300
2  44 4 7 0 300
0

0101000
+22 8 -15 8 *
Wi

0101000
+16 2 +14 0 -13 6 -21 0 *
Fa
0  1e-07 10 0

0101000
+12 0 *
Ed
 1e-07 1 1 0
1  23 0 3.14159350241283 4.7123881280104
2  45 5 3 3.14159350241283 4.7123881280104
2  46 2 3 3.14159350241283 4.7123881280104
0

0101000
+17 4 -62 4 *
Ed
 1e-07 1 1 0
1  24 0 3.14159180521818 4.71238904792945
2  47 5 7 3.14159180521818 4.71238904792945
2  48 4 7 3.14159180521818 4.71238904792945
0

0101000
+15 8 -57 8 *
Wi

0101000
+10 2 +55 0 -9 6 -14 0 *
Fa
0  1e-07 5 0

0101000
+8 0 *
Wi

0101000
+60 0 +10 0 +16 0 +23 0 +30 0 +37 0 +44 0 +51 0 *
Fa
0  1e-07 2 0

0101000
+6 2 *
Wi

0101100
+56 6 +48 6 +41 6 +34 6 +27 6 +20 6 +13 6 +9 6 *
Fa
0  1e-07 4 0

0101000
+4 0 *
Sh

0101100
+53 0 +46 0 +39 0 +32 0 +25 0 +18 0 +11 0 +7 0 -5 0 +3 0 
*
So

1100100
-2 0 *

+1 1 