DBRep_DrawableShape

CASCADE Topology V1, (c) Matra-Datavision
Locations 32
1
              1               0               0           12950 
              0               1               0            6850 
              0               0               1               0 
1
              1               0               0               0 
              0               1               0              65 
              0               0               1               0 
2  1 -1 2 -1 0
1
              1               0               0               0 
              0               1               0               0 
              0               0               1               0 
2  4 1 2 -1 0
1
              1               0               0             680 
              0               1               0              65 
              0               0               1            1530 
2  1 -1 0
1
              1               0               0               0 
              0               1               0               0 
              0               0               1             740 
2  8 1 2 -1 0
1
              1               0               0               0 
              0               1               0               0 
              0               0               1              65 
2  10 1 2 -1 0
1
              1               0               0             680 
              0               1               0              65 
              0               0               1             115 
1
              1               0               0             680 
              0               1               0              65 
              0               0               1             595 
1
              1               0               0             680 
              0               1               0              65 
              0               0               1             790 
2  1 -1 4 -1 0
2  1 -1 6 -1 0
2  1 -1 8 -1 0
2  2 1 10 -1 0
2  1 -1 10 -1 0
2  2 1 4 -1 0
2  1 -1 12 -1 0
2  1 -1 13 -1 0
2  2 1 8 -1 0
2  1 -1 14 -1 0
1
              1               0               0               0 
              0               1               0             -20 
              0               0               1             530 
2  25 1 10 -1 0
1
              1               0               0               0 
              0               1               0             -20 
              0               0               1             740 
2  27 1 8 -1 0
2  8 1 27 -1 0
2  1 -1 27 -1 0
2  10 1 25 -1 0
2  1 -1 25 -1 0
Curve2ds 240
1 0 0 0 1 
1 0 635 1 0 
1 0 680 1 0 
1 0 -635 1 0 
1 1680 0 0 1 
1 0 635 1 0 
1 0 0 1 0 
1 0 -635 1 0 
1 0 0 0 1 
1 0 0 0 -1 
1 0 0 1 0 
1 0 65 1 0 
1 680 0 0 1 
1 0 0 0 -1 
8 0 100
1 1530 -7.5 1 0 
8 0 100
1 1.5707963267948966 0 0 1 
8 -8.0506141916795215 0
1 1630 0 0 1 
8 -8.0506141916795215 0
1 0 0 0 -1 
1 0 0 1 0 
1 -740 -65 1 0 
1 1680 0 0 -1 
1 680 0 0 1 
1 0 0 1 0 
1 0 -65 1 0 
1 0 0 1 0 
1 0 680 1 0 
1 0 0 1 0 
1 -65 -65 1 0 
8 -8.0506141916795215 0
1 115 0 0 1 
8 -8.0506141916795215 0
1 0 0 0 -1 
8 0 100
1 115 -7.5 1 0 
8 0 100
1 1.5707963267948966 0 0 1 
8 -8.0506141916795215 0
1 215 0 0 1 
8 -8.0506141916795215 0
1 0 0 0 -1 
1 0 0 1 0 
1 -65 -65 1 0 
8 -8.0506141916795215 0
1 595 0 0 1 
8 -8.0506141916795215 0
1 0 0 0 -1 
8 0 100
1 595 -7.5 1 0 
8 0 100
1 1.5707963267948966 0 0 1 
8 -8.0506141916795215 0
1 695 0 0 1 
8 -8.0506141916795215 0
1 0 0 0 -1 
1 0 0 1 0 
1 -65 -65 1 0 
1 0 0 1 0 
1 0 680 1 0 
1 0 0 1 0 
1 -740 -65 1 0 
8 -8.0506141916795215 0
1 790 0 0 1 
8 -8.0506141916795215 0
1 0 0 0 -1 
8 0 100
1 790 -7.5 1 0 
8 0 100
1 1.5707963267948966 0 0 1 
8 -8.0506141916795215 0
1 890 0 0 1 
8 -8.0506141916795215 0
1 0 0 0 -1 
1 0 0 1 0 
1 -740 -65 1 0 
8 -8.0506141916795215 0
1 1530 0 0 1 
8 -8.0506141916795215 0
1 0 0 0 -1 
1 0 0 0 1 
1 1680 0 0 -1 
1 0 0 1 0 
1 0 65 1 0 
1 0 0 1 0 
1 0 -65 1 0 
1 0 0 1 0 
1 0 0 1 0 
1 0 0 1 0 
1 -65 -65 1 0 
1 0 0 1 0 
1 0 0 1 0 
1 0 0 1 0 
1 -740 -65 1 0 
1 0 0 0 1 
1 0 0 0 -1 
1 0 0 1 0 
1 0 0 0 1 
1 680 0 0 1 
1 0 0 0 -1 
1 0 0 1 0 
2 0 0 1 0 -0 1 7.5
1 0 -0 0 1 
1 6.2831853071795862 -0 0 1 
1 0 100 1 0 
2 0 0 1 0 -0 1 7.5
2 0 0 1 0 -0 1 7.5
1 0 100 1 0 
8 -32.5 -24.449385808320478
1 0 -32.5 0 -1 
8 -32.5 -24.449385808320478
1 890 -32.5 0 1 
8 -32.5 -24.449385808320478
1 790 -32.5 0 1 
8 -32.5 -24.449385808320478
1 0 -32.5 0 -1 
8 -32.5 -24.449385808320478
1 150 -32.5 0 1 
8 -32.5 -24.449385808320478
1 0 -32.5 0 -1 
8 0 100
1 50 -57.5 1 0 
8 0 100
1 4.7123889803846897 0 0 1 
8 -32.5 -24.449385808320478
1 50 -32.5 0 1 
8 -32.5 -24.449385808320478
1 0 -32.5 0 -1 
1 0 0 0 -1 
1 680 0 0 1 
1 0 0 1 0 
1 0 680 1 0 
1 940 0 0 -1 
1 680 0 0 1 
8 0 100
1 790 -57.5 1 0 
8 0 100
1 4.7123889803846897 0 0 1 
1 0 0 1 0 
1 0 680 1 0 
1 55 0 0 -1 
1 680 0 0 1 
1 65 0 0 1 
1 0 65 1 0 
1 55 0 0 1 
1 0 65 1 0 
8 -32.5 -24.449385808320478
1 530 -32.5 0 1 
8 -32.5 -24.449385808320478
1 0 -32.5 0 -1 
8 -32.5 -24.449385808320478
1 150 -32.5 0 1 
8 -32.5 -24.449385808320478
1 0 -32.5 0 -1 
8 0 100
1 50 -57.5 1 0 
8 0 100
1 4.7123889803846897 0 0 1 
8 -32.5 -24.449385808320478
1 50 -32.5 0 1 
8 -32.5 -24.449385808320478
1 0 -32.5 0 -1 
1 0 0 0 -1 
1 680 0 0 1 
1 0 0 1 0 
1 0 680 1 0 
1 665 0 0 -1 
1 680 0 0 1 
8 -32.5 -24.449385808320478
1 630 -32.5 0 1 
8 -32.5 -24.449385808320478
1 0 -32.5 0 -1 
8 0 100
1 530 -57.5 1 0 
8 0 100
1 4.7123889803846897 0 0 1 
2 0 0 1 0 -0 1 7.5
1 0 0 1 0 
2 0 0 1 0 -0 1 7.5
1 0 0 1 0 
1 0 -0 0 1 
1 6.2831853071795862 -0 0 1 
1 0 100 1 0 
2 0 0 1 0 -0 1 7.5
2 0 0 1 0 -0 1 7.5
1 0 100 1 0 
2 0 0 1 0 -0 1 7.5
1 0 0 1 0 
2 0 0 1 0 -0 1 7.5
1 0 0 1 0 
1 0 -0 0 1 
1 6.2831853071795862 -0 0 1 
1 0 100 1 0 
2 0 0 1 0 -0 1 7.5
2 0 0 1 0 -0 1 7.5
1 0 100 1 0 
1 740 0 0 1 
1 0 65 1 0 
1 730 0 0 1 
1 0 65 1 0 
2 0 0 1 0 -0 1 7.5
1 0 0 1 0 
2 0 0 1 0 -0 1 7.5
1 0 0 1 0 
1 0 -0 0 1 
1 6.2831853071795862 -0 0 1 
1 0 100 1 0 
2 0 0 1 0 -0 1 7.5
2 0 0 1 0 -0 1 7.5
1 0 100 1 0 
2 0 0 1 0 -0 1 7.5
1 0 0 1 0 
1 0 0 0 1 
1 940 0 0 -1 
1 0 0 1 0 
1 940 0 0 1 
1 0 0 1 0 
1 0 0 1 0 
1 55 0 0 -1 
1 0 0 0 1 
1 0 0 1 0 
1 0 0 1 0 
1 0 0 0 -1 
1 0 0 0 1 
1 0 0 1 0 
1 -465 -20 1 0 
1 665 0 0 -1 
1 0 0 0 1 
1 0 0 1 0 
1 0 -20 1 0 
1 0 0 0 -1 
1 0 0 0 1 
1 0 0 1 0 
1 0 0 1 0 
1 55 0 0 1 
1 0 0 1 0 
1 0 0 1 0 
1 0 20 1 0 
1 0 0 1 0 
1 0 0 0 1 
1 300 0 0 1 
1 0 20 1 0 
1 0 100 1 0 
1 0 -20 1 0 
1 0 0 1 0 
1 0 0 0 1 
1 665 0 0 1 
1 0 0 1 0 
1 465 100 1 0 
1 0 -20 1 0 
1 465 0 0 1 
1 0 20 1 0 
1 0 0 1 0 
1 0 20 1 0 
1 0 0 1 0 
1 0 0 1 0 
1 200 0 0 -1 
1 0 0 0 1 
1 0 0 0 -1 
1 0 0 0 1 
1 0 0 1 0 
1 0 0 1 0 
1 300 0 0 -1 
1 0 0 0 1 
1 0 0 0 -1 
1 0 0 0 1 
1 0 0 1 0 
1 0 0 0 1 
1 100 0 0 1 
1 0 0 0 -1 
1 0 0 1 0 
1 300 0 0 1 
1 100 0 0 1 
1 300 0 0 -1 
1 0 0 1 0 
1 0 100 1 0 
1 0 0 1 0 
1 0 100 1 0 
1 200 0 0 -1 
1 100 0 0 1 
1 0 0 0 -1 
1 100 0 0 1 
1 0 0 1 0 
1 0 0 0 1 
1 0 0 1 0 
1 200 0 0 1 
Curves 120
1 0 635 0 1 0 -0 
1 680 635 0 0 0 1 
1 0 635 1680 1 0 -0 
1 0 635 0 0 0 1 
1 0 0 0 -0 1 0 
1 0 0 0 1 0 -0 
1 680 0 0 -0 1 0 
1 680 72.5 1530 0 0 1 
1 680 65 1630 0 -1 0 
1 680 0 0 0 0 1 
1 680 0 1680 0 1 0 
1 680 0 0 0 0 1 
1 680 0 0 0 0 1 
1 680 0 0 0 0 1 
1 680 65 115 0 -1 0 
1 680 72.5 115 0 0 1 
1 680 65 215 0 -1 0 
1 680 0 0 0 0 1 
1 680 65 595 0 -1 0 
1 680 72.5 595 0 0 1 
1 680 65 695 0 -1 0 
1 680 0 0 0 0 1 
1 680 0 0 0 0 1 
1 680 0 0 0 0 1 
1 680 65 790 0 -1 0 
1 680 72.5 790 0 0 1 
1 680 65 890 0 -1 0 
1 680 0 0 0 0 1 
1 680 65 1530 0 -1 0 
1 0 0 1680 -0 1 0 
1 0 0 1680 1 0 -0 
1 0 0 0 0 0 1 
1 0 0 0 0 0 1 
1 0 0 0 0 0 1 
1 0 0 0 0 0 1 
1 0 0 0 0 0 1 
1 0 0 0 -0 1 0 
1 0 0 0 1 0 -0 
1 680 0 0 -0 1 0 
2 0 0 0 0 0 1 1 0 -0 -0 1 0 7.5
1 7.5 -1.8369095307335659e-15 0 0 0 1 
2 0 0 100 0 0 1 1 0 -0 -0 1 0 7.5
2 0 0 100 0 0 1 1 0 -0 -0 1 0 7.5
1 680 32.5 1630 0 -1 0 
1 680 32.5 1530 0 -1 0 
1 680 32.5 890 0 -1 0 
1 680 57.5 790 0 0 1 
1 680 32.5 790 0 -1 0 
1 680 0 0 -0 1 0 
1 680 0 0 0 0 1 
1 680 0 940 0 1 0 
1 680 57.5 1530 0 0 1 
1 680 0 0 0 0 1 
1 680 0 55 0 1 0 
1 0 65 0 1 0 -0 
1 0 65 55 1 0 -0 
1 680 32.5 595 0 -1 0 
1 680 32.5 215 0 -1 0 
1 680 57.5 115 0 0 1 
1 680 32.5 115 0 -1 0 
1 680 0 0 -0 1 0 
1 680 0 0 0 0 1 
1 680 0 665 0 1 0 
1 680 32.5 695 0 -1 0 
1 680 57.5 595 0 0 1 
2 0 0 0 0 0 1 1 0 -0 -0 1 0 7.5
2 0 0 0 0 0 1 1 0 -0 -0 1 0 7.5
1 7.5 -1.8369095307335659e-15 0 0 0 1 
2 0 0 100 0 0 1 1 0 -0 -0 1 0 7.5
2 0 0 100 0 0 1 1 0 -0 -0 1 0 7.5
2 0 0 0 0 0 1 1 0 -0 -0 1 0 7.5
2 0 0 0 0 0 1 1 0 -0 -0 1 0 7.5
1 7.5 -1.8369095307335659e-15 0 0 0 1 
2 0 0 100 0 0 1 1 0 -0 -0 1 0 7.5
2 0 0 100 0 0 1 1 0 -0 -0 1 0 7.5
1 0 65 0 1 0 -0 
1 0 65 665 1 0 -0 
2 0 0 0 0 0 1 1 0 -0 -0 1 0 7.5
2 0 0 0 0 0 1 1 0 -0 -0 1 0 7.5
1 7.5 -1.8369095307335659e-15 0 0 0 1 
2 0 0 100 0 0 1 1 0 -0 -0 1 0 7.5
2 0 0 100 0 0 1 1 0 -0 -0 1 0 7.5
2 0 0 0 0 0 1 1 0 -0 -0 1 0 7.5
1 0 0 940 -0 1 0 
1 0 0 940 1 0 -0 
1 0 0 0 0 0 1 
1 0 0 55 -0 1 0 
1 0 0 0 0 0 1 
1 0 0 0 -0 1 0 
1 0 0 0 0 0 1 
1 0 0 665 -0 1 0 
1 0 0 0 0 0 1 
1 0 0 0 -0 1 0 
1 0 0 0 0 0 1 
1 0 0 55 1 0 -0 
1 0 0 0 1 0 -0 
1 0 0 0 1 0 -0 
1 0 20 300 1 0 -0 
1 100 20 0 0 0 1 
1 0 0 0 1 0 -0 
1 0 0 665 1 0 -0 
1 100 20 0 0 0 1 
1 0 20 0 1 0 -0 
1 0 0 665 1 0 -0 
1 0 0 0 0 0 1 
1 0 0 200 -0 1 0 
1 0 0 0 -0 1 0 
1 0 0 0 0 0 1 
1 0 0 300 -0 1 0 
1 0 0 0 -0 1 0 
1 0 0 0 1 0 -0 
1 100 0 0 -0 1 0 
1 0 0 300 1 0 -0 
1 100 0 300 0 1 0 
1 100 0 0 0 0 1 
1 100 0 0 0 0 1 
1 100 0 200 0 1 0 
1 100 0 0 -0 1 0 
1 0 0 0 1 0 -0 
1 0 0 200 1 0 -0 
Polygon3D 0
PolygonOnTriangulations 0
Surfaces 48
1 0 635 0 -0 1 0 0 0 1 1 0 -0 
1 0 0 0 0 0 1 1 0 -0 -0 1 0 
1 680 0 0 1 0 -0 0 0 1 0 -1 0 
1 0 0 1680 0 0 1 1 0 -0 -0 1 0 
1 0 0 0 1 0 -0 0 0 1 0 -1 0 
1 0 0 0 0 0 1 1 0 -0 -0 1 0 
2 0 0 0 0 0 1 1 0 -0 -0 1 0 7.5
1 0 0 100 0 0 1 1 0 -0 -0 1 0 
1 680 0 0 1 0 -0 0 0 1 0 -1 0 
1 680 0 0 1 0 -0 0 0 1 0 -1 0 
1 0 0 0 -0 1 0 0 0 1 1 0 -0 
1 680 0 0 1 0 -0 0 0 1 0 -1 0 
1 0 0 0 0 0 1 1 0 -0 -0 1 0 
2 0 0 0 0 0 1 1 0 -0 -0 1 0 7.5
1 0 0 100 0 0 1 1 0 -0 -0 1 0 
1 0 0 0 0 0 1 1 0 -0 -0 1 0 
2 0 0 0 0 0 1 1 0 -0 -0 1 0 7.5
1 0 0 100 0 0 1 1 0 -0 -0 1 0 
1 0 0 0 -0 1 0 0 0 1 1 0 -0 
1 0 0 0 0 0 1 1 0 -0 -0 1 0 
2 0 0 0 0 0 1 1 0 -0 -0 1 0 7.5
1 0 0 100 0 0 1 1 0 -0 -0 1 0 
1 0 0 0 0 0 1 1 0 -0 -0 1 0 
1 0 0 940 0 0 1 1 0 -0 -0 1 0 
1 0 0 0 1 0 -0 0 0 1 0 -1 0 
1 0 0 0 1 0 -0 0 0 1 0 -1 0 
1 0 0 0 1 0 -0 0 0 1 0 -1 0 
1 0 0 0 -0 1 0 0 0 1 1 0 -0 
2 0 0 0 0 0 1 1 0 -0 -0 1 0 7.5
2 0 0 0 0 0 1 1 0 -0 -0 1 0 7.5
1 0 0 0 0 0 1 1 0 -0 -0 1 0 
1 0 0 0 -0 1 0 0 0 1 1 0 -0 
1 0 0 55 0 0 1 1 0 -0 -0 1 0 
1 0 0 0 0 0 1 1 0 -0 -0 1 0 
2 0 0 0 0 0 1 1 0 -0 -0 1 0 7.5
1 0 0 0 -0 1 0 0 0 1 1 0 -0 
1 0 0 665 0 0 1 1 0 -0 -0 1 0 
2 0 0 0 0 0 1 1 0 -0 -0 1 0 7.5
1 0 0 0 1 0 -0 0 0 1 0 -1 0 
1 0 0 0 1 0 -0 0 0 1 0 -1 0 
1 0 0 0 0 0 1 1 0 -0 -0 1 0 
1 0 0 300 0 0 1 1 0 -0 -0 1 0 
1 100 0 0 1 0 -0 0 0 1 0 -1 0 
1 100 0 0 1 0 -0 0 0 1 0 -1 0 
1 0 0 0 0 0 1 1 0 -0 -0 1 0 
1 0 0 200 0 0 1 1 0 -0 -0 1 0 
1 0 0 0 -0 1 0 0 0 1 1 0 -0 
1 0 0 0 -0 1 0 0 0 1 1 0 -0 
Triangulations 0

TShapes 293
Ve
1e-07
13630 7550 0
0 0

0101101
*
Ve
1e-07
12950 7550 0
0 0

0101101
*
Ed
 1e-07 1 1 0
1  1 0 0 680
2  1 1 0 0 680
2  2 2 0 0 680
0

0101000
-293 3 +292 3 *
Ve
1e-07
13630 7550 1680
0 0

0101101
*
Ed
 1e-07 1 1 0
1  2 0 0 1680
2  3 1 0 0 1680
2  4 3 0 0 1680
0

0101000
-290 3 +293 3 *
Ve
1e-07
12950 7550 1680
0 0

0101101
*
Ed
 1e-07 1 1 0
1  3 0 0 680
2  5 1 0 0 680
2  6 4 0 0 680
0

0101000
-290 3 +288 3 *
Ed
 1e-07 1 1 0
1  4 0 0 1680
2  7 1 0 0 1680
2  8 5 0 0 1680
0

0101000
-288 3 +292 3 *
Wi

0101000
-291 0 -289 0 +287 0 +286 0 *
Fa
0  1e-07 1 0

0101000
+285 0 *
Ve
1e-07
12950 6915 0
0 0

0101101
*
Ed
 1e-07 1 1 0
1  5 0 0 635
2  9 2 0 0 635
2  10 5 0 0 635
0

0101000
+283 3 -292 3 *
Ve
1e-07
13630 6915 0
0 0

0101101
*
Ed
 1e-07 1 1 0
1  6 0 0 680
2  11 2 0 0 680
2  12 6 5 0 680
0

0101000
+283 3 -281 3 *
Ed
 1e-07 1 1 0
1  7 0 0 635
2  13 2 0 0 635
2  14 3 0 0 635
0

0101000
+281 3 -293 3 *
Wi

0101000
-282 2 +280 2 -291 2 +279 2 *
Fa
0  1e-07 2 2

0101000
+278 0 *
Ve
2.00001e-07
13630 6922.5 1530
0 0

0101101
*
Ve
2.00001e-07
13630 6922.5 1630
0 0

0101101
*
Ed
 1e-07 1 1 0
1  8 0 0 100
2  15 3 2 0 100
2  16 7 6 0 100
0

0101000
+276 7 -275 7 *
Ve
2.00001e-07
13630 6915 1630
0 0

0101101
*
Ed
 1e-07 1 1 0
1  9 0 -7.5 0
2  17 3 2 -7.5 0
2  18 8 6 -7.5 0
0

0101000
+275 7 -273 7 *
Ve
1e-07
13630 6915 1680
0 0

0101101
*
Ed
 1e-07 1 1 0
1  10 0 1630 1680
2  19 3 0 1630 1680
2  20 9 9 1630 1680
0

0101000
+273 3 -271 3 *
Ed
 1e-07 1 1 0
1  11 0 0 635
2  21 3 0 0 635
2  22 4 0 0 635
0

0101000
+271 3 -290 3 *
Ve
1e-07
13630 6915 55
0 0

0101101
*
Ed
 1e-07 1 1 0
1  12 0 0 55
2  23 3 0 0 55
2  24 10 5 0 55
0

0101000
+281 3 -268 3 *
Ve
1e-07
13630 6915 65
0 0

0101101
*
Ed
 1e-07 1 1 0
1  13 0 55 65
2  25 3 0 55 65
2  26 11 0 55 65
0

0101000
+268 3 -266 3 *
Ve
2.00001e-07
13630 6915 115
0 0

0101101
*
Ed
 1e-07 1 1 0
1  14 0 65 115
2  27 3 0 65 115
2  28 12 11 65 115
0

0101000
+266 3 -264 3 *
Ve
2.00001e-07
13630 6922.5 115
0 0

0101101
*
Ed
 1e-07 1 1 0
1  15 0 -7.5 0
2  29 3 2 -7.5 0
2  30 13 12 -7.5 0
0

0101000
+262 7 -264 7 *
Ve
2.00001e-07
13630 6922.5 215
0 0

0101101
*
Ed
 1e-07 1 1 0
1  16 0 0 100
2  31 3 2 0 100
2  32 14 12 0 100
0

0101000
+262 7 -260 7 *
Ve
2.00001e-07
13630 6915 215
0 0

0101101
*
Ed
 1e-07 1 1 0
1  17 0 -7.5 0
2  33 3 2 -7.5 0
2  34 15 12 -7.5 0
0

0101000
+260 7 -258 7 *
Ve
2.00001e-07
13630 6915 595
0 0

0101101
*
Ed
 1e-07 1 1 0
1  18 0 215 595
2  35 3 0 215 595
2  36 12 11 215 595
0

0101000
+258 3 -256 3 *
Ve
2.00001e-07
13630 6922.5 595
0 0

0101101
*
Ed
 1e-07 1 1 0
1  19 0 -7.5 0
2  37 3 2 -7.5 0
2  38 16 13 -7.5 0
0

0101000
+254 7 -256 7 *
Ve
2.00001e-07
13630 6922.5 695
0 0

0101101
*
Ed
 1e-07 1 1 0
1  20 0 0 100
2  39 3 2 0 100
2  40 17 13 0 100
0

0101000
+254 7 -252 7 *
Ve
2.00001e-07
13630 6915 695
0 0

0101101
*
Ed
 1e-07 1 1 0
1  21 0 -7.5 0
2  41 3 2 -7.5 0
2  42 18 13 -7.5 0
0

0101000
+252 7 -250 7 *
Ve
1e-07
13630 6915 730
0 0

0101101
*
Ed
 1e-07 1 1 0
1  22 0 695 730
2  43 3 0 695 730
2  44 12 11 695 730
0

0101000
+250 3 -248 3 *
Ve
1e-07
13630 6915 740
0 0

0101101
*
Ed
 1e-07 1 1 0
1  23 0 730 740
2  45 3 0 730 740
2  46 19 0 730 740
0

0101000
+248 3 -246 3 *
Ve
2.00001e-07
13630 6915 790
0 0

0101101
*
Ed
 1e-07 1 1 0
1  24 0 740 790
2  47 3 0 740 790
2  48 9 9 740 790
0

0101000
+246 3 -244 3 *
Ve
2.00001e-07
13630 6922.5 790
0 0

0101101
*
Ed
 1e-07 1 1 0
1  25 0 -7.5 0
2  49 3 2 -7.5 0
2  50 20 14 -7.5 0
0

0101000
+242 7 -244 7 *
Ve
2.00001e-07
13630 6922.5 890
0 0

0101101
*
Ed
 1e-07 1 1 0
1  26 0 0 100
2  51 3 2 0 100
2  52 21 14 0 100
0

0101000
+242 7 -240 7 *
Ve
2.00001e-07
13630 6915 890
0 0

0101101
*
Ed
 1e-07 1 1 0
1  27 0 -7.5 0
2  53 3 2 -7.5 0
2  54 22 14 -7.5 0
0

0101000
+240 7 -238 7 *
Ve
2.00001e-07
13630 6915 1530
0 0

0101101
*
Ed
 1e-07 1 1 0
1  28 0 890 1530
2  55 3 0 890 1530
2  56 9 9 890 1530
0

0101000
+238 3 -236 3 *
Ed
 1e-07 1 1 0
1  29 0 -7.5 0
2  57 3 2 -7.5 0
2  58 23 6 -7.5 0
0

0101000
+276 7 -236 7 *
Wi

0101000
-274 0 -272 0 -270 2 -269 2 +289 2 +279 2 -267 2 -265 2 -263 2 +261 0 
-259 0 -257 0 -255 2 +253 0 -251 0 -249 0 -247 2 -245 2 -243 2 +241 0 
-239 0 -237 0 -235 2 +234 0 *
Fa
0  1e-07 3 2

0101000
+233 0 *
Ve
1e-07
12950 6915 1680
0 0

0101101
*
Ed
 1e-07 1 1 0
1  30 0 0 635
2  59 4 0 0 635
2  60 5 0 0 635
0

0101000
+231 3 -288 3 *
Ed
 1e-07 1 1 0
1  31 0 0 680
2  61 4 0 0 680
2  62 24 9 0 680
0

0101000
+231 3 -271 3 *
Wi

0101000
-230 2 +229 2 -287 2 +269 2 *
Fa
0  1e-07 4 2

0101000
+228 0 *
Ve
1e-07
12950 6915 55
0 0

0101101
*
Ed
 1e-07 1 1 0
1  32 0 0 55
2  63 5 0 0 55
2  64 25 5 0 55
0

0101000
+283 3 -226 3 *
Ve
1e-07
12950 6915 65
0 0

0101101
*
Ed
 1e-07 1 1 0
1  33 0 55 65
2  65 5 0 55 65
2  66 11 0 55 65
0

0101000
+226 3 -224 3 *
Ve
1e-07
12950 6915 730
0 0

0101101
*
Ed
 1e-07 1 1 0
1  34 0 65 730
2  67 5 0 65 730
2  68 26 11 65 730
0

0101000
+224 3 -222 3 *
Ve
1e-07
12950 6915 740
0 0

0101101
*
Ed
 1e-07 1 1 0
1  35 0 730 740
2  69 5 0 730 740
2  70 19 0 730 740
0

0101000
+222 3 -220 3 *
Ed
 1e-07 1 1 0
1  36 0 740 1680
2  71 5 0 740 1680
2  72 27 9 740 1680
0

0101000
+220 3 -231 3 *
Wi

0101000
-225 2 +282 2 -223 2 +286 2 -221 2 -230 2 -219 2 -218 2 *
Fa
0  1e-07 5 2

0101000
+217 0 *
Ve
1e-07
12950 6850 0
0 0

0101101
*
Ed
 1e-07 1 1 0
1  37 0 0 65
2  73 6 0 0 65
2  74 25 0 0 65
0

0101000
+215 15 -283 15 *
Ve
1e-07
13630 6850 0
0 0

0101101
*
Ed
 1e-07 1 1 0
1  38 0 0 680
2  75 6 0 0 680
2  76 28 0 0 680
0

0101000
-213 15 +215 15 *
Ed
 1e-07 1 1 0
1  39 0 0 65
2  77 6 0 0 65
2  78 10 0 0 65
0

0101000
+213 15 -281 15 *
Wi

0101000
-214 4 +212 4 -280 2 +211 4 *
Fa
0  1e-07 6 4

0101000
+210 0 *
Ve
1e-07
13637.5 6915 1530
0 0

0101101
*
Ed
 1e-07 1 1 0
1  40 0 0 1.5707963267949
2  79 7 0 0 1.5707963267949
2  80 23 0 0 1.5707963267949
0

0101000
+208 16 -276 16 *
Ve
1e-07
13637.5 6915 1630
0 0

0101101
*
Ed
 1e-07 1 1 0
1  41 0 0 100
2  81 7 0 0 100
2  82 29 0 0 100
4 CN 7 0 29 0
0

0101000
-206 16 +208 16 *
Ed
 1e-07 1 1 0
1  42 0 0 1.5707963267949
2  83 7 0 0 1.5707963267949
2  84 8 0 0 1.5707963267949
0

0101000
+206 16 -275 16 *
Wi

0101000
+207 6 -205 6 -204 6 +274 0 *
Fa
0  1e-07 7 6

0101000
+203 0 *
Ve
2.00001e-07
13630 6907.5 1630
0 0

0101101
*
Ed
 1e-07 1 1 0
1  43 0 4.71238898038469 6.28318530717959
2  85 8 0 4.71238898038469 6.28318530717959
2  86 29 0 4.71238898038469 6.28318530717959
0

0101000
+201 16 -206 16 *
Ed
 1e-07 1 1 0
1  44 0 -32.5 -25
2  87 8 6 -32.5 -25
2  88 9 8 -32.5 -25
0

0101000
+273 7 -201 7 *
Wi

0101000
+204 6 +200 6 +199 0 +272 0 *
Fa
0  1e-07 8 6

0101000
+198 0 *
Ve
2.00001e-07
13630 6907.5 1530
0 0

0101101
*
Ed
 1e-07 1 1 0
1  45 0 -32.5 -25
2  89 9 8 -32.5 -25
2  90 23 6 -32.5 -25
0

0101000
+236 7 -196 7 *
Ve
2.00001e-07
13630 6907.5 890
0 0

0101101
*
Ed
 1e-07 1 1 0
1  46 0 -32.5 -25
2  91 9 8 -32.5 -25
2  92 22 14 -32.5 -25
0

0101000
+238 7 -194 7 *
Ve
2.00001e-07
13630 6907.5 790
0 0

0101101
*
Ed
 1e-07 1 1 0
1  47 0 0 100
2  93 9 8 0 100
2  94 30 14 0 100
0

0101000
+192 7 -194 7 *
Ed
 1e-07 1 1 0
1  48 0 -32.5 -25
2  95 9 8 -32.5 -25
2  96 20 14 -32.5 -25
0

0101000
+244 7 -192 7 *
Ve
1e-07
13630 6850 740
0 0

0101101
*
Ed
 1e-07 1 1 0
1  49 0 0 65
2  97 9 0 0 65
2  98 31 0 0 65
0

0101000
-246 17 +189 17 *
Ve
1e-07
13630 6850 1680
0 0

0101101
*
Ed
 1e-07 1 1 0
1  50 0 0 940
2  99 9 0 0 940
2  100 32 0 0 940
0

0101000
-187 17 +189 17 *
Ed
 1e-07 1 1 0
1  51 0 0 65
2  101 9 0 0 65
2  102 24 0 0 65
0

0101000
+187 17 -271 17 *
Ed
 1e-07 1 1 0
1  52 0 0 100
2  103 9 8 0 100
2  104 29 6 0 100
0

0101000
+196 7 -201 7 *
Wi

0101000
+195 0 +235 2 -193 0 +191 0 +190 0 +243 2 +188 8 -186 8 -185 8 +270 2 
-199 0 +184 0 *
Fa
0  1e-07 9 8

0101000
+183 0 *
Ve
1e-07
13630 6850 55
0 0

0101101
*
Ed
 1e-07 1 1 0
1  53 0 0 55
2  105 10 0 0 55
2  106 28 0 0 55
0

0101000
-181 15 +213 15 *
Ed
 1e-07 1 1 0
1  54 0 0 65
2  107 10 0 0 65
2  108 33 0 0 65
0

0101000
-268 15 +181 15 *
Wi

0101000
-180 4 -179 4 +211 4 +267 2 *
Fa
0  1e-07 10 4

0101000
+178 0 *
Ed
 1e-07 1 1 0
1  55 0 0 680
2  109 11 18 0 680
2  110 34 0 0 680
0

0101000
-266 19 +224 19 *
Ed
 1e-07 1 1 0
1  56 0 0 680
2  111 11 20 0 680
2  112 33 0 0 680
0

0101000
-268 15 +226 15 *
Wi

0101000
-265 2 +176 10 +223 2 -175 4 *
Fa
0  1e-07 11 2

0101000
+174 0 *
Ve
2.00001e-07
13630 6907.5 595
0 0

0101101
*
Ed
 1e-07 1 1 0
1  57 0 -32.5 -25
2  113 12 10 -32.5 -25
2  114 16 13 -32.5 -25
0

0101000
+256 7 -172 7 *
Ve
2.00001e-07
13630 6907.5 215
0 0

0101101
*
Ed
 1e-07 1 1 0
1  58 0 -32.5 -25
2  115 12 10 -32.5 -25
2  116 15 12 -32.5 -25
0

0101000
+258 7 -170 7 *
Ve
2.00001e-07
13630 6907.5 115
0 0

0101101
*
Ed
 1e-07 1 1 0
1  59 0 0 100
2  117 12 10 0 100
2  118 35 12 0 100
0

0101000
+168 7 -170 7 *
Ed
 1e-07 1 1 0
1  60 0 -32.5 -25
2  119 12 10 -32.5 -25
2  120 13 12 -32.5 -25
0

0101000
+264 7 -168 7 *
Ve
1e-07
13630 6850 65
0 0

0101101
*
Ed
 1e-07 1 1 0
1  61 0 0 65
2  121 12 0 0 65
2  122 34 0 0 65
0

0101000
-266 19 +165 19 *
Ve
1e-07
13630 6850 730
0 0

0101101
*
Ed
 1e-07 1 1 0
1  62 0 0 665
2  123 12 0 0 665
2  124 36 0 0 665
0

0101000
-163 19 +165 19 *
Ed
 1e-07 1 1 0
1  63 0 0 65
2  125 12 0 0 65
2  126 37 0 0 65
0

0101000
-248 19 +163 19 *
Ve
2.00001e-07
13630 6907.5 695
0 0

0101101
*
Ed
 1e-07 1 1 0
1  64 0 -32.5 -25
2  127 12 10 -32.5 -25
2  128 18 13 -32.5 -25
0

0101000
+250 7 -160 7 *
Ed
 1e-07 1 1 0
1  65 0 0 100
2  129 12 10 0 100
2  130 38 13 0 100
0

0101000
+172 7 -160 7 *
Wi

0101000
+171 0 +255 2 -169 0 +167 0 +166 0 +263 2 +164 10 -162 10 -161 10 +247 2 
-159 0 +158 0 *
Fa
0  1e-07 12 10

0101000
+157 0 *
Ve
1e-07
13637.5 6915 115
0 0

0101101
*
Ed
 1e-07 1 1 0
1  66 0 0 1.5707963267949
2  131 13 0 0 1.5707963267949
2  132 14 0 0 1.5707963267949
0

0101000
+155 21 -262 21 *
Ed
 1e-07 1 1 0
1  67 0 4.71238898038469 6.28318530717959
2  133 13 0 4.71238898038469 6.28318530717959
2  134 35 0 4.71238898038469 6.28318530717959
0

0101000
+168 21 -155 21 *
Wi

0101000
+154 12 +153 12 +166 0 +261 0 *
Fa
0  1e-07 13 12

0101000
+152 0 *
Ve
1e-07
13637.5 6915 215
0 0

0101101
*
Ed
 1e-07 1 1 0
1  68 0 0 100
2  135 14 0 0 100
2  136 35 0 0 100
4 CN 14 0 35 0
0

0101000
-150 21 +155 21 *
Ed
 1e-07 1 1 0
1  69 0 0 1.5707963267949
2  137 14 0 0 1.5707963267949
2  138 15 0 0 1.5707963267949
0

0101000
+150 21 -260 21 *
Wi

0101000
+154 12 -149 12 -148 12 +259 0 *
Fa
0  1e-07 14 12

0101000
+147 0 *
Ed
 1e-07 1 1 0
1  70 0 4.71238898038469 6.28318530717959
2  139 15 0 4.71238898038469 6.28318530717959
2  140 35 0 4.71238898038469 6.28318530717959
0

0101000
+170 21 -150 21 *
Wi

0101000
+148 12 +145 12 +169 0 +257 0 *
Fa
0  1e-07 15 12

0101000
+144 0 *
Ve
1e-07
13637.5 6915 595
0 0

0101101
*
Ed
 1e-07 1 1 0
1  71 0 0 1.5707963267949
2  141 16 0 0 1.5707963267949
2  142 17 0 0 1.5707963267949
0

0101000
+142 22 -254 22 *
Ed
 1e-07 1 1 0
1  72 0 4.71238898038469 6.28318530717959
2  143 16 0 4.71238898038469 6.28318530717959
2  144 38 0 4.71238898038469 6.28318530717959
0

0101000
+172 22 -142 22 *
Wi

0101000
+141 13 +140 13 +171 0 +253 0 *
Fa
0  1e-07 16 13

0101000
+139 0 *
Ve
1e-07
13637.5 6915 695
0 0

0101101
*
Ed
 1e-07 1 1 0
1  73 0 0 100
2  145 17 0 0 100
2  146 38 0 0 100
4 CN 17 0 38 0
0

0101000
-137 22 +142 22 *
Ed
 1e-07 1 1 0
1  74 0 0 1.5707963267949
2  147 17 0 0 1.5707963267949
2  148 18 0 0 1.5707963267949
0

0101000
+137 22 -252 22 *
Wi

0101000
+141 13 -136 13 -135 13 +251 0 *
Fa
0  1e-07 17 13

0101000
+134 0 *
Ed
 1e-07 1 1 0
1  75 0 4.71238898038469 6.28318530717959
2  149 18 0 4.71238898038469 6.28318530717959
2  150 38 0 4.71238898038469 6.28318530717959
0

0101000
+160 22 -137 22 *
Wi

0101000
+135 13 +132 13 +159 0 +249 0 *
Fa
0  1e-07 18 13

0101000
+131 0 *
Ed
 1e-07 1 1 0
1  76 0 0 680
2  151 19 23 0 680
2  152 31 0 0 680
0

0101000
-246 17 +220 17 *
Ed
 1e-07 1 1 0
1  77 0 0 680
2  153 19 18 0 680
2  154 37 0 0 680
0

0101000
-248 19 +222 19 *
Wi

0101000
-245 2 +129 8 +219 2 -128 10 *
Fa
0  1e-07 19 2

0101000
+127 0 *
Ve
1e-07
13637.5 6915 790
0 0

0101101
*
Ed
 1e-07 1 1 0
1  78 0 0 1.5707963267949
2  155 20 0 0 1.5707963267949
2  156 21 0 0 1.5707963267949
0

0101000
+125 24 -242 24 *
Ed
 1e-07 1 1 0
1  79 0 4.71238898038469 6.28318530717959
2  157 20 0 4.71238898038469 6.28318530717959
2  158 30 0 4.71238898038469 6.28318530717959
0

0101000
+192 24 -125 24 *
Wi

0101000
+124 14 +123 14 +190 0 +241 0 *
Fa
0  1e-07 20 14

0101000
+122 0 *
Ve
1e-07
13637.5 6915 890
0 0

0101101
*
Ed
 1e-07 1 1 0
1  80 0 0 100
2  159 21 0 0 100
2  160 30 0 0 100
4 CN 21 0 30 0
0

0101000
-120 24 +125 24 *
Ed
 1e-07 1 1 0
1  81 0 0 1.5707963267949
2  161 21 0 0 1.5707963267949
2  162 22 0 0 1.5707963267949
0

0101000
+120 24 -240 24 *
Wi

0101000
+124 14 -119 14 -118 14 +239 0 *
Fa
0  1e-07 21 14

0101000
+117 0 *
Ed
 1e-07 1 1 0
1  82 0 4.71238898038469 6.28318530717959
2  163 22 0 4.71238898038469 6.28318530717959
2  164 30 0 4.71238898038469 6.28318530717959
0

0101000
+194 24 -120 24 *
Wi

0101000
+118 14 +115 14 +193 0 +237 0 *
Fa
0  1e-07 22 14

0101000
+114 0 *
Ed
 1e-07 1 1 0
1  83 0 4.71238898038469 6.28318530717959
2  165 23 0 4.71238898038469 6.28318530717959
2  166 29 0 4.71238898038469 6.28318530717959
0

0101000
+196 16 -208 16 *
Wi

0101000
+207 6 +112 6 +195 0 +234 0 *
Fa
0  1e-07 23 6

0101000
+111 0 *
Ve
1e-07
12950 6850 1680
0 0

0101101
*
Ed
 1e-07 1 1 0
1  84 0 0 65
2  167 24 0 0 65
2  168 27 0 0 65
0

0101000
+109 17 -231 17 *
Ed
 1e-07 1 1 0
1  85 0 0 680
2  169 24 0 0 680
2  170 32 0 0 680
0

0101000
-187 17 +109 17 *
Wi

0101000
-108 8 +107 8 -229 2 +185 8 *
Fa
0  1e-07 24 8

0101000
+106 0 *
Ve
1e-07
12950 6850 55
0 0

0101101
*
Ed
 1e-07 1 1 0
1  86 0 0 55
2  171 25 0 0 55
2  172 28 0 0 55
0

0101000
-104 15 +215 15 *
Ed
 1e-07 1 1 0
1  87 0 0 65
2  173 25 0 0 65
2  174 33 0 0 65
0

0101000
-226 15 +104 15 *
Wi

0101000
-103 4 -102 4 +214 4 +225 2 *
Fa
0  1e-07 25 4

0101000
+101 0 *
Ve
1e-07
12950 6850 65
0 0

0101101
*
Ve
1e-07
12950 6850 530
0 0

0101101
*
Ed
 1e-07 1 1 0
1  88 0 0 465
2  175 26 0 0 465
2  176 36 0 0 465
0

0101000
+99 19 -98 19 *
Ed
 1e-07 1 1 0
1  89 0 0 65
2  177 26 0 0 65
2  178 34 0 0 65
0

0101000
-224 19 +99 19 *
Ve
1e-07
12950 6850 730
0 0

0101101
*
Ed
 1e-07 1 1 0
1  90 0 465 665
2  179 26 0 465 665
2  180 39 26 465 665
0

0101000
+98 19 -95 19 *
Ed
 1e-07 1 1 0
1  91 0 0 65
2  181 26 0 0 65
2  182 37 0 0 65
0

0101000
+95 19 -222 19 *
Wi

0101000
-97 10 +96 10 -94 10 +221 2 -93 10 *
Fa
0  1e-07 26 10

0101000
+92 0 *
Ve
1e-07
12950 6850 740
0 0

0101101
*
Ve
1e-07
12950 6850 1040
0 0

0101101
*
Ed
 1e-07 1 1 0
1  92 0 0 300
2  183 27 0 0 300
2  184 40 28 0 300
0

0101000
+90 17 -89 17 *
Ed
 1e-07 1 1 0
1  93 0 0 65
2  185 27 0 0 65
2  186 31 0 0 65
0

0101000
+90 17 -220 17 *
Ed
 1e-07 1 1 0
1  94 0 300 940
2  187 27 0 300 940
2  188 32 0 300 940
0

0101000
+89 17 -109 17 *
Wi

0101000
-88 8 +87 8 -86 8 +218 2 -108 8 *
Fa
0  1e-07 27 8

0101000
+85 0 *
Ed
 1e-07 1 1 0
1  95 0 0 680
2  189 28 0 0 680
2  190 33 0 0 680
0

0101000
-181 15 +104 15 *
Wi

0101000
-212 0 -180 0 +83 0 +103 0 *
Fa
0  1e-07 28 0

0101000
+82 0 *
Wi

0101000
+112 6 -184 0 -200 6 +205 6 *
Fa
0  1e-07 29 6

0101000
+80 0 *
Wi

0101000
+123 14 -191 0 -115 14 +119 14 *
Fa
0  1e-07 30 14

0101000
+78 0 *
Ve
1e-07
13050 6850 740
0 0

0101101
*
Ed
 1e-07 1 1 0
1  96 0 0 100
2  191 31 0 0 100
2  192 41 28 0 100
0

0101000
+90 17 -76 17 *
Ed
 1e-07 1 1 0
1  97 0 100 680
2  193 31 0 100 680
2  194 32 0 100 680
0

0101000
+76 17 -189 17 *
Wi

0101000
-87 8 +75 8 -129 8 +74 8 +188 8 *
Fa
0  1e-07 31 8

0101000
+73 0 *
Ve
1e-07
13050 6850 1040
0 0

0101101
*
Ed
 1e-07 1 1 0
1  98 0 0 100
2  195 32 29 0 100
2  196 42 0 0 100
0

0101000
-71 30 +89 30 *
Ed
 1e-07 1 1 0
1  99 0 0 300
2  197 32 29 0 300
2  198 43 0 0 300
0

0101000
-71 30 +76 30 *
Wi

0101000
-74 8 -186 8 +107 8 +86 8 -70 27 +69 27 *
Fa
0  1e-07 32 8

0101000
+68 0 *
Wi

0101000
-102 4 -175 4 +83 4 +179 4 *
Fa
0  1e-07 33 4

0101000
+66 0 *
Ed
 1e-07 1 1 0
1  100 0 0 680
2  199 34 0 0 680
2  200 36 0 0 680
0

0101000
-165 19 +99 19 *
Wi

0101000
-96 10 -176 10 +64 10 +164 10 *
Fa
0  1e-07 34 10

0101000
+63 0 *
Wi

0101000
+153 12 -167 0 -145 12 +149 12 *
Fa
0  1e-07 35 12

0101000
+61 0 *
Ve
1e-07
13050 6850 730
0 0

0101101
*
Ed
 1e-07 1 1 0
1  101 0 100 680
2  201 36 0 100 680
2  202 37 0 100 680
0

0101000
+59 19 -163 19 *
Ve
1e-07
13050 6850 530
0 0

0101101
*
Ed
 1e-07 1 1 0
1  102 0 0 200
2  203 36 31 0 200
2  204 44 0 0 200
0

0101000
-59 32 +57 32 *
Ed
 1e-07 1 1 0
1  103 0 0 100
2  205 36 31 0 100
2  206 45 0 0 100
0

0101000
-57 32 +98 32 *
Wi

0101000
-162 10 +58 10 +56 25 +55 25 +97 10 -64 10 *
Fa
0  1e-07 36 10

0101000
+54 0 *
Ed
 1e-07 1 1 0
1  104 0 0 100
2  207 37 0 0 100
2  208 46 26 0 100
0

0101000
+95 19 -59 19 *
Wi

0101000
-93 10 +52 10 -128 10 +58 10 +161 10 *
Fa
0  1e-07 37 10

0101000
+51 0 *
Wi

0101000
+140 13 -158 0 -132 13 +136 13 *
Fa
0  1e-07 38 13

0101000
+49 0 *
Ve
1e-07
12950 6830 730
0 0

0101101
*
Ve
1e-07
12950 6830 530
0 0

0101101
*
Ed
 1e-07 1 1 0
1  105 0 0 200
2  209 39 0 0 200
2  210 47 0 0 200
0

0101000
-47 32 +46 32 *
Ed
 1e-07 1 1 0
1  106 0 0 20
2  211 39 0 0 20
2  212 46 0 0 20
0

0101000
+47 32 -95 32 *
Ed
 1e-07 1 1 0
1  107 0 0 20
2  213 39 0 0 20
2  214 45 0 0 20
0

0101000
-98 32 +46 32 *
Wi

0101000
-45 25 -44 25 +43 25 +94 10 *
Fa
0  1e-07 39 25

0101000
+42 0 *
Ve
1e-07
12950 6830 1040
0 0

0101101
*
Ve
1e-07
12950 6830 740
0 0

0101101
*
Ed
 1e-07 1 1 0
1  108 0 0 300
2  215 40 0 0 300
2  216 48 0 0 300
0

0101000
-40 30 +39 30 *
Ed
 1e-07 1 1 0
1  109 0 0 20
2  217 40 0 0 20
2  218 42 0 0 20
0

0101000
-89 30 +40 30 *
Ed
 1e-07 1 1 0
1  110 0 0 20
2  219 40 0 0 20
2  220 41 0 0 20
0

0101000
+39 30 -90 30 *
Wi

0101000
-38 27 -37 27 +36 27 +88 8 *
Fa
0  1e-07 40 27

0101000
+35 0 *
Ve
1e-07
13050 6830 740
0 0

0101101
*
Ed
 1e-07 1 1 0
1  111 0 0 100
2  221 41 0 0 100
2  222 48 0 0 100
0

0101000
-33 30 +39 30 *
Ed
 1e-07 1 1 0
1  112 0 0 20
2  223 41 0 0 20
2  224 43 0 0 20
0

0101000
-76 30 +33 30 *
Wi

0101000
-36 27 +32 27 -75 8 +31 27 *
Fa
0  1e-07 41 27

0101000
+30 0 *
Ve
1e-07
13050 6830 1040
0 0

0101101
*
Ed
 1e-07 1 1 0
1  113 0 0 100
2  225 42 0 0 100
2  226 48 0 0 100
0

0101000
-28 30 +40 30 *
Ed
 1e-07 1 1 0
1  114 0 0 20
2  227 42 0 0 20
2  228 43 0 0 20
0

0101000
-71 30 +28 30 *
Wi

0101000
-37 27 -70 27 +27 27 +26 27 *
Fa
0  1e-07 42 27

0101000
+25 0 *
Ed
 1e-07 1 1 0
1  115 0 0 300
2  229 43 0 0 300
2  230 48 0 0 300
0

0101000
-28 30 +33 30 *
Wi

0101000
-23 27 -26 27 +31 27 +69 27 *
Fa
0  1e-07 43 27

0101000
+22 0 *
Ve
1e-07
13050 6830 730
0 0

0101101
*
Ve
1e-07
13050 6830 530
0 0

0101101
*
Ed
 1e-07 1 1 0
1  116 0 0 200
2  231 44 0 0 200
2  232 47 0 0 200
0

0101000
-20 32 +19 32 *
Ed
 1e-07 1 1 0
1  117 0 0 20
2  233 44 0 0 20
2  234 46 0 0 20
0

0101000
-59 32 +20 32 *
Ed
 1e-07 1 1 0
1  118 0 0 20
2  235 44 0 0 20
2  236 45 0 0 20
0

0101000
-57 32 +19 32 *
Wi

0101000
-18 25 -17 25 +16 25 +56 25 *
Fa
0  1e-07 44 25

0101000
+15 0 *
Ed
 1e-07 1 1 0
1  119 0 0 100
2  237 45 0 0 100
2  238 47 0 0 100
0

0101000
-19 32 +46 32 *
Wi

0101000
-43 25 -55 25 +13 25 +16 25 *
Fa
0  1e-07 45 25

0101000
+12 0 *
Ed
 1e-07 1 1 0
1  120 0 0 100
2  239 46 0 0 100
2  240 47 0 0 100
0

0101000
-20 32 +47 32 *
Wi

0101000
-44 25 +10 25 -52 10 +17 25 *
Fa
0  1e-07 46 25

0101000
+9 0 *
Wi

0101000
-13 0 -18 0 +10 0 +45 0 *
Fa
0  1e-07 47 0

0101000
+7 0 *
Wi

0101000
-32 0 -23 0 +27 0 +38 0 *
Fa
0  1e-07 48 0

0101000
+5 0 *
Sh

0101000
+284 2 -277 0 +232 0 +227 0 -216 0 -209 0 +202 0 +197 0 +182 0 +177 0 
-173 0 +156 0 -151 0 +146 0 +143 0 -138 0 +133 0 +130 0 -126 0 -121 0 
+116 0 +113 0 -110 0 +105 0 -100 0 -91 0 -84 0 -81 4 +79 0 +77 0 
-72 0 -67 0 +65 0 -62 0 +60 0 -53 0 +50 0 +48 0 -41 0 -34 0 
-29 0 +24 0 +21 0 +14 0 -11 0 +8 0 -6 25 -4 27 *
So

0100000
+3 0 *
Co

1100000
+2 0 *

+1 1 