DBRep_DrawableShape

CASCADE Topology V1, (c) Matra-Datavision
Locations 52
1
              1               0               0               0 
              0              -1               0               0 
              0               0              -1               0 
1
              1               0               0               0 
              0               1               0               0 
              0               0               1               0 
1
              1              -0               0               0 
              0              -1               0               0 
             -0               0              -1               0 
1
              1               0               0               0 
              0              -1 1.22464679914735e-016               0 
              0 -1.22464679914735e-016              -1               0 
2  3 1 4 -1 0
2  2 -1 0
1
              1              -0               0               0 
              0              -1               0               0 
             -0               0              -1               0 
1
              1               0               0               0 
              0              -1 1.22464679914735e-016               0 
              0 -1.22464679914735e-016              -1               0 
1
              1              -0               0               0 
              0              -1               0               0 
             -0               0              -1               0 
1
              1               0               0               0 
              0              -1 1.22464679914735e-016               0 
              0 -1.22464679914735e-016              -1               0 
2  7 1 8 -1 9 1 10 -1 3 1 4 -1 2 1 0
2  10 1 9 -1 8 1 7 -1 0
2  7 -1 0
2  1 -1 2 -1 4 1 3 -1 10 1 9 -1 8 1 7 -1 0
2  3 1 4 -1 2 1 0
2  1 -1 0
2  9 1 10 -1 3 1 4 -1 2 1 0
2  10 1 9 -1 0
2  1 -1 2 -1 4 1 3 -1 10 1 9 -1 0
1
             -1               0               0              -0 
             -0 -2.22044604925031e-016              -1             -20 
              0              -1 2.22044604925031e-016 2.44929359829471e-015 
2  20 1 10 -1 3 1 4 -1 2 1 0
2  10 1 20 -1 0
2  1 -1 2 -1 4 1 3 -1 10 1 20 -1 0
2  1 -1 2 -1 4 1 3 -1 0
1
             -1               0              -0              -0 
              0 -4.44089209850063e-016              -1             -20 
              0              -1 4.44089209850063e-016 8.41789581326926e-015 
2  25 1 4 -1 0
2  3 1 25 -1 0
2  4 1 25 -1 0
2  1 -1 2 -1 4 1 25 -1 0
2  8 -1 9 1 10 -1 3 1 4 -1 0
2  8 -1 9 1 10 -1 3 1 4 -1 2 1 0
2  8 1 7 -1 0
1
              1               0               0              -0 
              0               1               0             -10 
              0               0               1 3.44509284839767e-015 
2  10 -1 33 1 3 1 4 -1 2 1 0
2  8 -1 9 1 10 -1 0
2  10 -1 33 1 0
2  1 -1 2 -1 0
2  7 1 8 -1 0
1
              1               0               0               0 
              0               1               0 1.83697019872103e-015 
              0               0               1              15 
2  7 1 8 -1 39 1 0
2  39 -1 8 1 7 -1 0
2  10 1 9 -1 39 -1 8 1 7 -1 0
2  1 -1 2 -1 4 1 3 -1 10 1 9 -1 39 -1 8 1 7 -1 0
2  20 1 10 -1 33 1 3 1 4 -1 2 1 0
2  33 -1 10 1 20 -1 0
2  20 -1 0
2  1 -1 2 -1 4 1 3 -1 33 -1 10 1 20 -1 0
2  7 1 8 -1 39 1 9 1 10 -1 0
2  7 1 8 -1 9 1 10 -1 3 1 4 -1 0
2  10 -1 33 1 3 1 4 -1 0
2  9 1 10 -1 3 1 4 -1 0
2  7 1 8 -1 39 1 9 1 10 -1 3 1 4 -1 0
Curve2ds 60
1 -1.5777218104420236e-030 -59.996591031507037 0 1 
1 0 0 -1 0 
2 3.9999999999999996 3.5757768962061149 -1 0 -0 -1 4
1 8.8817841970012523e-016 10.000000000000002 1 0 
1 0 20.003408968492963 -1 0 
1 0 0 0 -1 
2 -0.52949039523436447 -19.996591031507037 0 -1 -1 -0 20.003599999999999
1 0 0 1 0 
1 -15 -59.996591031507037 0 1 
1 0 0 0 -1 
1 -1.5777218104420236e-030 -59.996591031507037 0 1 
1 0 0 -1 0 
1 0 -59.996591031507037 -1 0 
1 40 3.1554436208840472e-030 0 -1 
2 3.5193086166798425e-015 -19.996591031507037 0 -1 -1 -0 12.5
1 0 0 1 0 
1 -63.572367927713152 10 0 -1 
1 0 0 0 1 
1 -80 0 0 1 
1 5.7964558953083737e-046 -1.5777218104420236e-030 1 0 
1 -29.999999999999062 10 -1 0 
1 -0.15000000000008235 -29.999999999999062 0 1 
1 -80 40 1 0 
1 0 1.5777218104420236e-030 1 0 
8 -30.355110143850936 10.355110143849053
1 -29.999999999999062 10 1 0 
8 -30.355110143850936 10.355110143849053
1 -0.15000000000008235 -29.999999999999062 0 -1 
8 -44 1.1265924765065585e-030
1 -52.5 0 0 -1 
8 -44 1.1265924765065585e-030
1 3.1415926535897931 -1.993877986062736e-030 0 1 
1 0 0 1 0 
2 -4.1500000000000812 3.5723679277150318 1 0 0 -1 4
1 1.3809576612522707 0 0 1 
1 3.3314313191324172 -10 0 1 
1 40 -3.1554436208840472e-030 0 -1 
1 0 0 0 -1 
1 -1.5945167614379131e-015 -15 1 0 
1 0 -80 -1 0 
1 0 -10 1 0 
2 0.37949039523428313 -19.999999999998121 -0 -1 1 -0 20.003599999999999
8 -10 3.4423392620362977e-031
1 6.2567124600022543 1.8241435739171629e-016 0 1 
8 -10 3.4423392620362977e-031
1 -20.003408968492792 3.3324814962220539e-033 0 -1 
1 -40 0 1 0 
1 1.5945167614379131e-015 -15 1 0 
1 -40 -80 0 1 
1 0 -15 1 0 
1 -80 40 1 0 
1 0 1.5777218104420236e-030 1 0 
1 0 40 -0 -1 
1 5.7964558953083737e-046 1.5777218104420236e-030 1 0 
8 -30.355110143850936 10.355110143849053
1 -29.999999999999062 10 1 0 
8 -30.355110143850936 10.355110143849053
1 -0.15000000000008235 -29.999999999999062 0 -1 
1 -27.5 0 0 1 
1 0 0 0 -1 
1 0 0 0 -1 
1 80 0 0 -1 
1 0 0 0 -1 
1 6.2831853071795862 0 0 -1 
1 1.5707963267948966 -10 1 0 
2 -0.15000000000008387 -19.999999999998121 1 0 -0 1 12.5
1 -4.7123889803846897 -40 1 0 
2 40 -4.4470853841438346e-015 0 -1 -1 -0 12.5
Curves 30
1 -40 20 0 1 0 0 
8 -8.8817841970012523e-016 1.3809576612522712
2 23.572367927713152 20 -4.0000000000000071 -0 -1 4.66973964754502e-016 0 4.66973964754502e-016 1 -1 0 0 4
1 40 20 -2.4492935982947065e-015 0 1.2246467991473532e-016 1 
2 2.3687621676142003e-033 0.52949039523436447 0 0 0 1 1 0 -0 -0 1 0 20.003599999999999
1 -40 20.000000000000004 14.999999999999995 1 0 0 
1 -40 20 0 1 0 0 
1 -40 20 -2.4492935982947065e-015 0 1.2246467991473532e-016 1 
2 0 0 0 0 0 1 1 0 -0 -0 1 0 12.5
1 23.572367927713152 10 -3.6739403974420592e-015 0 1 -4.66973964754502e-016 
1 40 20 0 0 -1 0 
8 29.996591031508146 33.57236792771409
1 -10.00000000000094 10 -3.6688381893525379e-015 1 -0 -0 
1 40 -20 0 -1 0 0 
1 -10.00000000000094 10 -2.4458921262350253e-015 -1 0 0 
1 12.5 20 -7.3478807948841184e-015 0 1 -5.6655388976479796e-016 
8 0 1.3809576612522712
2 23.572367927713152 9.9999999999999982 -4.0000000000000027 -0 -1 4.66973964754502e-016 0 4.66973964754502e-016 1 -1 0 0 4
1 19.644229160576028 9.9999999999999982 -3.245198154404441 0 1 -4.66973964754502e-016 
1 40 -20 2.4492935982947065e-015 0 1.2246467991473532e-016 1 
1 40 20 0 0 -1 0 
2 2.3687621676142003e-033 0.52949039523436447 0 0 0 1 1 0 -0 -0 1 0 20.003599999999999
1 -19.996591031507208 20 -4.8849813083506888e-015 0 1 -3.4450928483976665e-016 
1 -40 -20 0 0 1 0 
1 40 -20 0 -1 0 0 
1 40 -20 0 -1 0 0 
1 -40 -20 0 0 1 0 
1 -10.00000000000094 10 -2.4458921262350253e-015 -1 0 0 
1 -12.5 20 -1.0867189411563962e-014 0 -1 5.6655388976479796e-016 
1 -40 -20 2.4492935982947065e-015 0 1.2246467991473532e-016 1 
1 -12.5 20 -1.0867189411563962e-014 0 -1 5.6655388976479796e-016 
2 0 10 -5.2016505139159832e-015 0 1 -5.6655388976479796e-016 0 5.6655388976479796e-016 1 1 -0 0 12.5
2 0 -20 1.1794966179027954e-014 0 1 -5.6655388976479796e-016 0 5.6655388976479796e-016 1 1 -0 0 12.5
Polygon3D 0
PolygonOnTriangulations 0
Surfaces 11
1 19.996591031507037 20 -4.898587196589413e-015 0 -1 4.2089479066346278e-016 0 -4.2089479066346278e-016 -1 1 0 0 
1 -40 -20 0 0 0 -1 -1 0 -0 0 1 0 
2 23.572367927713152 9.9999999999999982 -4.0000000000000027 0 1 -4.66973964754502e-016 0 4.66973964754502e-016 1 -1 0 -0 4
1 40 20 -2.4492935982947065e-015 1 0 -0 0 -1 1.2246467991473532e-016 0 -1.2246467991473532e-016 -1 
2 -2.3687621676142003e-033 20 0.52949039523435959 0 1 -3.4450928483976665e-016 -1 0 0 0 3.4450928483976665e-016 1 20.003599999999999
1 -40 20.000000000000004 14.999999999999995 -0 2.6645352591003756e-016 1 0 1 -2.6645352591003756e-016 -1 0 -0 
1 -40 -20 0 0 0 -1 -1 0 -0 0 1 0 
1 -40 -20 2.4492935982947065e-015 -1 0 0 0 1 -1.2246467991473532e-016 -0 -1.2246467991473532e-016 -1 
2 0 20 -1.0867189411563962e-014 0 1 -5.6655388976479796e-016 -1 0 0 0 5.6655388976479796e-016 1 12.5
1 19.999999999998121 -20 -0.1500000000000789 0 -1 2.3923997837040538e-016 0 -2.3923997837040538e-016 -1 1 0 0 
1 40 -20 2.4492935982947065e-015 0 -1 1.2246467991473532e-016 -1 0 0 -0 -1.2246467991473532e-016 -1 
Triangulations 0

TShapes 76
Ve
1e-007
23.5723679277132 -20 7.54951656745106e-015
0 0

0101101
*
Ve
1.00000001776357e-007
40 -20 7.34788079488412e-015
0 0

0101101
*
Ed
 1e-007 1 1 0
1  1 0 63.5723679277132 80
2  1 1 12 63.5723679277132 80
2  2 2 13 63.5723679277132 80
0

0101000
+76 14 -75 14 *
Ve
1e-007
19.644229160576 -20 3.24519815440445
0 0

0101101
*
Ed
 1e-007 1 1 0
1  2 0 -8.88178419700125e-016 1.38095766125227
2  3 1 15 -8.88178419700125e-016 1.38095766125227
2  4 3 0 -8.88178419700125e-016 1.38095766125227
0

0101000
+76 16 -73 16 *
Ve
1.00000001776357e-007
40 -20 -15
0 0

0101101
*
Ed
 1e-007 1 1 0
1  3 0 0 15
2  5 1 18 0 15
2  6 4 0 0 15
0

0101000
+75 19 -71 19 *
Ve
1.00003258566891e-007
-19.9965910315074 -20 -3.2512190105753e-012
0 0

0101101
*
Ed
 1e-007 1 1 0
1  4 0 3.33143131913242 6.25671246000258
2  7 1 22 3.33143131913242 6.25671246000258
2  8 5 22 3.33143131913242 6.25671246000258
0

0101000
+73 23 -69 23 *
Ve
1.00000001776357e-007
-40 -20 -15
0 0

0101101
*
Ed
 1e-007 1 1 0
1  5 0 0 80
2  9 1 0 0 80
2  10 6 0 0 80
0

0101000
+67 24 -71 24 *
Ve
1.00000001776357e-007
-40 -20 7.34788079488412e-015
0 0

0101101
*
Ed
 1e-007 1 1 0
1  6 0 0 20.0034089684926
2  11 1 12 0 20.0034089684926
2  12 7 13 0 20.0034089684926
0

0101000
+65 14 -69 14 *
Ed
 1e-007 1 1 0
1  7 0 0 15
2  13 1 18 0 15
2  14 8 0 0 15
0

0101000
+65 19 -67 19 *
Wi

0101100
+74 11 -72 0 +70 17 -68 21 -66 15 +64 11 -63 17 *
Ve
1e-007
-12.5 -20 1.0867189411564e-014
0 0

0101101
*
Ed
 1e-007 1 1 0
1  8 0 0 6.28318530717959
2  15 1 27 0 6.28318530717959
2  16 9 28 0 6.28318530717959
0

0101100
+61 29 -61 29 *
Wi

0101100
+60 26 *
Fa
0  1e-007 1 5

0101000
+62 6 +59 0 *
Ve
0.00315247625279928
23.5723679277132 -10 3.67394039744206e-015
0 0

0101101
*
Ed
 1e-007 1 1 0
1  9 0 -0 10
2  17 2 31 -0 10
2  18 3 0 -0 10
4 G1 2 31 3 0
0

0101000
+57 16 -76 16 *
Ve
1.00000001776357e-007
40 20 -7.34788079488412e-015
0 0

0101101
*
Ed
 1.00000001776357e-007 1 1 0
1  10 0 0 40
2  19 2 13 0 40
2  20 4 32 0 40
0

0101000
+75 14 -55 14 *
Ve
0.0001
19.9965910315072 -10 5.22144968779792e-015
0 0

0101101
*
Ed
 0.0001 1 1 0
1  11 0 29.9965910315081 33.5723679277141
2  21 2 31 29.9965910315081 33.5723679277141
2  22 10 34 29.9965910315081 33.5723679277141
0

0101000
+53 16 -57 16 *
Ve
2.00001001776357e-007
12.5 20 -7.34788079488412e-015
0 0

0101101
*
Ed
 1.00000001776357e-007 1 1 0
1  12 0 0 27.5
2  23 2 13 0 27.5
2  24 11 32 0 27.5
0

0101000
+55 14 -51 14 *
Ve
2.00001e-007
12.5 -10 3.67053892538238e-015
0 0

0101101
*
Ed
 1e-007 1 1 0
1  13 0 -29.9965910315081 -22.5000000000009
2  25 2 35 -29.9965910315081 -22.5000000000009
2  26 10 36 -29.9965910315081 -22.5000000000009
0

0101000
+53 24 -49 24 *
Ed
 1e-007 1 1 0
1  14 0 -40 -10
2  27 2 30 -40 -10
2  28 9 0 -40 -10
0

0101000
+51 37 -49 37 *
Wi

0101100
-74 11 -56 0 -54 11 -52 0 -50 11 +48 15 -47 2 *
Fa
0  1e-007 2 30

0101000
+46 6 *
Ve
1e-007
19.644229160576 -10 3.24519815440444
0 0

0101101
*
Ed
 1e-007 1 1 0
1  15 0 0 1.38095766125227
2  29 3 0 0 1.38095766125227
2  30 10 34 0 1.38095766125227
0

0101000
+57 16 -44 16 *
Ed
 1e-007 1 1 0
1  16 0 0 10
2  31 3 0 0 10
2  32 5 15 0 10
4 G1 3 0 5 15
0

0101000
+44 16 -73 16 *
Wi

0101100
+43 0 -56 0 +42 0 -72 0 *
Fa
0  1e-007 3 0

0101000
+41 0 *
Ve
1.00000001776357e-007
40 20 -15
0 0

0101101
*
Ed
 1e-007 1 1 0
1  17 0 0 15
2  33 4 0 0 15
2  34 11 0 0 15
0

0101000
+55 19 -39 19 *
Ed
 1.00000001776357e-007 1 1 0
1  18 0 0 40
2  35 4 41 0 40
2  36 6 42 0 40
0

0101000
+71 43 -39 43 *
Wi

0101000
+70 0 -38 0 -54 38 +37 40 *
Fa
0  1e-007 4 0

0101000
+36 0 *
Ve
0.0001
-19.9965910315072 -10 3.6671374533227e-015
0 0

0101101
*
Ed
 1e-007 1 1 0
1  19 0 3.33143131913242 6.25671246000225
2  37 5 45 3.33143131913242 6.25671246000225
2  38 10 46 3.33143131913242 6.25671246000225
0

0101000
+44 47 -34 47 *
Ed
 1e-007 1 1 0
1  20 0 -10 3.4423392620363e-031
2  39 5 0 -10 3.4423392620363e-031
2  40 7 35 -10 3.4423392620363e-031
0

0101000
+34 24 -69 24 *
Wi

0101100
+33 44 -42 0 +32 15 -68 21 *
Fa
0  1e-007 5 5

0101000
+31 6 *
Ve
1.00000001776357e-007
-40 20 -15
0 0

0101101
*
Ed
 1.00000001776357e-007 1 1 0
1  21 0 0 40
2  41 6 42 0 40
2  42 8 41 0 40
0

0101000
+29 43 -67 43 *
Ed
 1.00000001776357e-007 1 1 0
1  22 0 0 80
2  43 6 42 0 80
2  44 11 41 0 80
0

0101000
+39 43 -29 43 *
Wi

0101000
-66 0 -28 48 -27 48 -37 48 *
Fa
0  1.00000001776357e-007 6 0

0101000
+26 0 *
Ve
1.000000039999e-007
-12.5 20 -9.57142348695604e-015
0 0

0101101
*
Ve
1.00000001776357e-007
-40 20 -7.34788079488412e-015
0 0

0101101
*
Ed
 1.00000001776357e-007 1 1 0
1  23 0 52.5 80
2  45 7 13 52.5 80
2  46 11 32 52.5 80
0

0101000
+24 14 -23 14 *
Ed
 1.00000001776357e-007 1 1 0
1  24 0 0 40
2  47 7 13 0 40
2  48 8 32 0 40
0

0101000
+23 14 -65 14 *
Ve
34.9047820402161
-12.5 -10 4.43609471964918e-015
0 0

0101101
*
Ed
 1e-007 1 1 0
1  25 0 2.49999999999906 9.99659103150627
2  49 7 35 2.49999999999906 9.99659103150627
2  50 10 36 2.49999999999906 9.99659103150627
0

0101000
+20 24 -34 24 *
Ed
 1e-007 1 1 0
1  26 0 10 40
2  51 7 30 10 40
2  52 9 0 10 40
0

0101000
+20 37 -24 37 *
Wi

0101000
-22 49 -21 49 -64 49 +32 5 +19 5 -18 0 *
Fa
0  1e-007 7 30

0101000
+17 0 *
Ed
 1e-007 1 1 0
1  27 0 0 15
2  53 8 0 0 15
2  54 11 0 0 15
0

0101000
+23 19 -29 19 *
Wi

0101000
+15 0 -63 0 -21 38 +28 40 *
Fa
0  1e-007 8 0

0101000
+14 0 *
Ed
 1e-007 1 1 0
1  28 0 0 10
3  55 56CN 9 0 0 10
0

0101000
+61 37 -20 37 *
Ed
 1e-007 1 1 0
1  29 0 1.5707963267949 4.71238898038469
2  57 9 0 1.5707963267949 4.71238898038469
2  58 10 50 1.5707963267949 4.71238898038469
0

0101000
+49 37 -20 37 *
Ed
 1e-007 1 1 0
1  30 0 4.71238898038469 7.85398163397448
2  59 9 0 4.71238898038469 7.85398163397448
2  60 11 51 4.71238898038469 7.85398163397448
0

0101000
+24 37 -51 37 *
Wi

0101000
+18 0 +12 0 -60 26 -12 0 +11 0 +47 0 +10 0 *
Fa
0  1e-007 9 0

0101000
+9 0 *
Wi

0101100
+33 44 +43 0 -19 15 +52 0 -11 2 -48 15 *
Fa
0  1e-007 10 50

0101000
+7 6 *
Wi

0101000
-22 49 -15 51 +27 52 +38 51 -50 49 +10 0 *
Fa
0  1e-007 11 51

0101000
+5 0 *
Sh

0101100
-58 2 -45 2 +40 0 +35 17 +30 2 +25 15 -16 2 +13 17 -8 2 -6 2 
+4 2 *
So

0100000
+3 0 *
Co

1100000
+2 0 *

+1 1 