DBRep_DrawableShape

CASCADE Topology V1, (c) Matra-Datavision
Locations 12
1
              1               0               0               0 
              0               1               0               0 
              0               0               1               0 
1
              1               0               0           13250 
              0               1               0            2050 
              0               0               1               0 
2  1 -1 2 -1 0
1
              1               0               0           13250 
              0               1               0            2550 
              0               0               1               0 
2  4 1 2 -1 0
2  1 -1 4 -1 0
1
              1               0               0           13550 
              0               1               0            2935 
              0               0               1               0 
2  4 1 7 -1 0
2  1 -1 7 -1 0
2  2 1 4 -1 0
2  1 -1 0
2  7 1 4 -1 0
Curve2ds 86
1 0 0 0 1 
1 0 0 1 0 
1 0 900 1 0 
1 0 0 1 0 
1 400 0 0 1 
1 0 0 1 0 
1 0 0 1 0 
1 0 0 1 0 
1 0 0 0 1 
1 0 0 0 -1 
1 0 500 1 0 
1 0 0 1 0 
1 900 0 0 1 
1 0 0 0 -1 
1 400 0 0 -1 
1 900 0 0 1 
1 0 -500 1 0 
1 0 900 1 0 
1 0 -500 1 0 
1 0 0 1 0 
1 0 0 0 1 
1 400 0 0 -1 
1 0 500 1 0 
1 400 0 0 1 
1 0 -500 1 0 
1 0 0 1 0 
1 0 -500 1 0 
1 0 0 1 0 
1 0 0 0 1 
1 0 0 0 -1 
1 0 1300 1 0 
1 0 0 0 1 
1 900 0 0 1 
1 0 0 0 -1 
1 300 915 1 0 
1 0 530 1 0 
1 300 385 0 1 
1 0 0 0 1 
1 300 385 1 0 
1 0 0 1 0 
1 900 0 0 1 
1 0 0 0 -1 
1 100 0 0 1 
1 0 0 1 0 
1 100 0 0 -1 
1 900 0 0 1 
1 0 -385 1 0 
1 0 0 1 0 
1 100 0 0 -1 
1 0 0 0 1 
1 0 -1300 1 0 
1 0 0 1 0 
1 0 900 1 0 
1 0 -1300 1 0 
1 100 0 0 1 
1 0 1300 1 0 
1 0 -915 1 0 
1 0 -530 1 0 
1 100 0 0 -1 
1 900 0 0 1 
1 600 0 0 1 
1 0 0 0 -1 
8 -722.5 -192.5
1 300 192.5 0 -1 
8 -722.5 -192.5
1 100 192.5 0 1 
8 150 750
1 150 385 1 0 
8 150 750
1 100 -150 0 1 
8 150 750
1 150 915 1 0 
8 150 750
1 100 -150 0 1 
1 100 385 0 -1 
1 100 385 0 -1 
1 0 0 1 0 
1 0 0 1 0 
1 600 0 0 -1 
1 0 0 0 1 
1 0 -530 1 0 
1 0 0 1 0 
1 0 600 1 0 
1 0 0 1 0 
1 600 0 0 1 
1 0 0 1 0 
1 0 600 1 0 
1 0 -530 1 0 
1 600 0 0 1 
1 0 530 1 0 
1 600 0 0 -1 
1 600 0 0 1 
Curves 43
1 0 0 0 1 0 -0 
1 900 0 0 0 0 1 
1 0 0 400 1 0 -0 
1 0 0 0 0 0 1 
1 0 0 0 -0 1 0 
1 0 500 0 1 0 -0 
1 900 0 0 -0 1 0 
1 900 0 400 0 1 0 
1 900 500 0 0 0 1 
1 900 500 0 0 0 1 
1 0 0 400 -0 1 0 
1 0 500 400 1 0 -0 
1 0 500 0 0 0 1 
1 0 500 0 0 0 1 
1 0 0 0 -0 1 0 
1 0 1300 0 1 0 -0 
1 900 0 0 -0 1 0 
1 0 530 0 1 0 -0 
1 0 0 0 -0 1 0 
1 0 0 0 1 0 -0 
1 900 0 0 -0 1 0 
1 0 0 100 1 0 -0 
1 900 0 100 0 1 0 
1 600 0 0 0 0 1 
1 0 0 100 -0 1 0 
1 0 1300 0 0 0 1 
1 900 1300 0 0 0 1 
1 0 1300 100 1 0 -0 
1 600 530 0 0 0 1 
1 900 0 100 0 1 0 
1 600 0 0 -0 1 0 
1 13550 2742.5 100 0 -1 0 
1 13400 2935 100 1 0 0 
1 13400 3465 100 1 0 0 
1 900 0 100 0 1 0 
1 0 0 0 0 0 1 
1 0 0 600 -0 1 0 
1 0 530 0 0 0 1 
1 600 0 0 0 0 1 
1 0 0 600 1 0 -0 
1 600 530 0 0 0 1 
1 0 530 600 1 0 -0 
1 600 0 600 0 1 0 
Polygon3D 0
PolygonOnTriangulations 0
Surfaces 19
1 0 0 0 -0 1 0 0 0 1 1 0 -0 
1 0 0 0 0 0 1 1 0 -0 -0 1 0 
1 900 0 0 1 0 -0 0 0 1 0 -1 0 
1 0 0 400 0 0 1 1 0 -0 -0 1 0 
1 0 0 0 1 0 -0 0 0 1 0 -1 0 
1 0 0 0 0 0 1 1 0 -0 -0 1 0 
1 0 500 0 -0 1 0 0 0 1 1 0 -0 
1 900 0 0 1 0 -0 0 0 1 0 -1 0 
1 0 0 0 1 0 -0 0 0 1 0 -1 0 
1 0 1300 0 -0 1 0 0 0 1 1 0 -0 
1 900 0 0 1 0 -0 0 0 1 0 -1 0 
1 0 0 0 0 0 1 1 0 -0 -0 1 0 
1 0 0 100 0 0 1 1 0 -0 -0 1 0 
1 600 0 0 1 0 -0 0 0 1 0 -1 0 
1 0 0 0 1 0 -0 0 0 1 0 -1 0 
1 0 0 0 -0 1 0 0 0 1 1 0 -0 
1 0 530 0 -0 1 0 0 0 1 1 0 -0 
1 600 0 0 1 0 -0 0 0 1 0 -1 0 
1 0 0 600 0 0 1 1 0 -0 -0 1 0 
Triangulations 0

TShapes 110
Ve
1e-07
14150 2050 0
0 0

0101101
*
Ve
1e-07
13250 2050 0
0 0

0101101
*
Ed
 1e-07 1 1 0
1  1 0 0 900
2  1 1 0 0 900
2  2 2 0 0 900
0

0101000
-110 3 +109 3 *
Ve
1e-07
14150 2050 400
0 0

0101101
*
Ed
 1e-07 1 1 0
1  2 0 0 400
2  3 1 0 0 400
2  4 3 0 0 400
0

0101000
-107 3 +110 3 *
Ve
1e-07
13250 2050 400
0 0

0101101
*
Ed
 1e-07 1 1 0
1  3 0 0 900
2  5 1 0 0 900
2  6 4 0 0 900
0

0101000
-107 3 +105 3 *
Ed
 1e-07 1 1 0
1  4 0 0 400
2  7 1 0 0 400
2  8 5 0 0 400
0

0101000
-105 3 +109 3 *
Wi

0101000
-108 0 -106 0 +104 0 +103 0 *
Fa
0  1e-07 1 0

0101000
+102 0 *
Ve
1e-07
13250 2550 0
0 0

0101101
*
Ed
 1e-07 1 1 0
1  5 0 0 500
2  9 2 0 0 500
2  10 5 0 0 500
0

0101000
+109 3 -100 3 *
Ve
1e-07
14150 2550 0
0 0

0101101
*
Ed
 1e-07 1 1 0
1  6 0 0 900
2  11 2 0 0 900
2  12 6 5 0 900
0

0101000
+100 3 -98 3 *
Ed
 1e-07 1 1 0
1  7 0 0 500
2  13 2 0 0 500
2  14 3 0 0 500
0

0101000
+110 3 -98 3 *
Wi

0101000
-99 2 +108 2 -97 2 +96 2 *
Fa
0  1e-07 2 2

0101000
+95 0 *
Ve
1e-07
14150 2550 400
0 0

0101101
*
Ed
 1e-07 1 1 0
1  8 0 0 500
2  15 3 0 0 500
2  16 4 0 0 500
0

0101000
-93 3 +107 3 *
Ve
1e-07
14150 2550 100
0 0

0101101
*
Ed
 1e-07 1 1 0
1  9 0 100 400
2  17 3 0 100 400
2  18 7 0 100 400
0

0101000
+91 3 -93 3 *
Ed
 1e-07 1 1 0
1  10 0 0 100
2  19 3 0 0 100
2  20 8 5 0 100
0

0101000
+98 3 -91 3 *
Wi

0101000
-106 2 -92 2 +96 2 +90 2 +89 2 *
Fa
0  1e-07 3 2

0101000
+88 0 *
Ve
1e-07
13250 2550 400
0 0

0101101
*
Ed
 1e-07 1 1 0
1  11 0 0 500
2  21 4 0 0 500
2  22 5 0 0 500
0

0101000
-86 3 +105 3 *
Ed
 1e-07 1 1 0
1  12 0 0 900
2  23 4 0 0 900
2  24 7 0 0 900
0

0101000
-93 3 +86 3 *
Wi

0101000
-85 0 -84 0 +92 0 +104 0 *
Fa
0  1e-07 4 0

0101000
+83 0 *
Ve
1e-07
13250 2550 100
0 0

0101101
*
Ed
 1e-07 1 1 0
1  13 0 100 400
2  25 5 0 100 400
2  26 7 0 100 400
0

0101000
+81 3 -86 3 *
Ed
 1e-07 1 1 0
1  14 0 0 100
2  27 5 0 0 100
2  28 9 5 0 100
0

0101000
+100 3 -81 3 *
Wi

0101000
-103 2 -85 2 +99 2 +80 2 +79 2 *
Fa
0  1e-07 5 2

0101000
+78 0 *
Ve
1e-07
13250 3850 0
0 0

0101101
*
Ed
 1e-07 1 1 0
1  15 0 0 1300
2  29 6 0 0 1300
2  30 9 0 0 1300
0

0101000
+100 6 -76 6 *
Ve
1e-07
14150 3850 0
0 0

0101101
*
Ed
 1e-07 1 1 0
1  16 0 0 900
2  31 6 0 0 900
2  32 10 0 0 900
0

0101000
-74 6 +76 6 *
Ve
1e-07
14150 3465 0
0 0

0101101
*
Ed
 1e-07 1 1 0
1  17 0 915 1300
2  33 6 0 915 1300
2  34 11 0 915 1300
0

0101000
+72 6 -74 6 *
Ve
1e-07
13550 3465 0
0 0

0101101
*
Ed
 1e-07 1 1 0
1  18 0 0 600
2  35 6 8 0 600
2  36 12 0 0 600
0

0101000
-72 9 +70 9 *
Ve
1e-07
13550 2935 0
0 0

0101101
*
Ed
 1e-07 1 1 0
1  19 0 0 530
2  37 6 8 0 530
2  38 12 0 0 530
0

0101000
-70 9 +68 9 *
Ve
1e-07
14150 2935 0
0 0

0101101
*
Ed
 1e-07 1 1 0
1  20 0 0 600
2  39 6 8 0 600
2  40 12 0 0 600
0

0101000
-66 9 +68 9 *
Ed
 1e-07 1 1 0
1  21 0 0 385
2  41 6 0 0 385
2  42 8 0 0 385
0

0101000
+98 6 -66 6 *
Wi

0101000
-75 4 -73 4 +71 4 +69 7 +67 7 -65 7 +64 4 +97 2 *
Fa
0  1e-07 6 4

0101000
+63 0 *
Ed
 1e-07 1 1 0
1  22 0 0 900
2  43 7 10 0 900
2  44 13 0 0 900
0

0101000
-91 6 +81 6 *
Wi

0101000
-61 4 -90 2 +84 2 +80 2 *
Fa
0  1e-07 7 2

0101000
+60 0 *
Ve
1e-07
14150 2935 100
0 0

0101101
*
Ed
 1e-07 1 1 0
1  23 0 0 385
2  45 8 0 0 385
2  46 13 0 0 385
0

0101000
+91 6 -58 6 *
Ed
 1e-07 1 1 0
1  24 0 0 100
2  47 8 8 0 100
2  48 14 0 0 100
0

0101000
+66 9 -58 9 *
Wi

0101000
-89 2 -57 4 +56 7 +64 4 *
Fa
0  1e-07 8 4

0101000
+55 0 *
Ve
1e-07
13250 3850 100
0 0

0101101
*
Ed
 1e-07 1 1 0
1  25 0 0 1300
2  49 9 0 0 1300
2  50 13 0 0 1300
0

0101000
-53 6 +81 6 *
Ed
 1e-07 1 1 0
1  26 0 0 100
2  51 9 0 0 100
2  52 10 0 0 100
0

0101000
-53 6 +76 6 *
Wi

0101000
-79 2 +75 4 -52 4 +51 4 *
Fa
0  1e-07 9 4

0101000
+50 0 *
Ve
1e-07
14150 3850 100
0 0

0101101
*
Ed
 1e-07 1 1 0
1  27 0 0 100
2  53 10 0 0 100
2  54 11 0 0 100
0

0101000
-48 6 +74 6 *
Ed
 1e-07 1 1 0
1  28 0 0 900
2  55 10 0 0 900
2  56 13 0 0 900
0

0101000
-48 6 +53 6 *
Wi

0101000
-73 0 -47 0 +46 0 +51 0 *
Fa
0  1e-07 10 0

0101000
+45 0 *
Ve
1e-07
14150 3465 100
0 0

0101101
*
Ed
 1e-07 1 1 0
1  29 0 0 100
2  57 11 8 0 100
2  58 14 0 0 100
0

0101000
+72 9 -43 9 *
Ed
 1e-07 1 1 0
1  30 0 915 1300
2  59 11 0 915 1300
2  60 13 0 915 1300
0

0101000
+43 6 -48 6 *
Wi

0101000
-42 7 -41 4 +47 4 +71 4 *
Fa
0  1e-07 11 4

0101000
+40 0 *
Ed
 1e-07 1 1 0
1  31 0 0 530
2  61 12 0 0 530
2  62 14 0 0 530
0

0101000
-72 9 +66 9 *
Wi

0101000
-67 7 -69 7 +65 7 +38 7 *
Fa
0  1e-07 12 7

0101000
+37 0 *
Ve
2.00001e-07
13550 3465 100
0 0

0101101
*
Ve
2.00001e-07
13550 2935 100
0 0

0101101
*
Ed
 1e-07 1 1 0
1  32 0 -722.5 -192.5
2  63 13 4 -722.5 -192.5
2  64 15 7 -722.5 -192.5
0

0101000
+35 11 -34 11 *
Ed
 1e-07 1 1 0
1  33 0 150 750
2  65 13 4 150 750
2  66 16 7 150 750
0

0101000
+34 11 -58 11 *
Ed
 1e-07 1 1 0
1  34 0 150 750
2  67 13 4 150 750
2  68 17 7 150 750
0

0101000
+35 11 -43 11 *
Wi

0101000
-33 0 -32 0 +57 4 +61 4 -52 4 -46 4 +41 4 +31 0 *
Fa
0  1e-07 13 4

0101000
+30 0 *
Ed
 1e-07 1 1 0
1  35 0 385 915
2  69 14 12 385 915
2  70 18 12 385 915
0

0101000
+58 6 -43 6 *
Wi

0101000
-56 7 -28 4 +42 7 +38 7 *
Fa
0  1e-07 14 7

0101000
+27 0 *
Ve
1e-07
13550 2935 600
0 0

0101101
*
Ed
 1e-07 1 1 0
1  36 0 100 600
2  71 15 0 100 600
2  72 16 0 100 600
0

0101000
+34 9 -25 9 *
Ve
1e-07
13550 3465 600
0 0

0101101
*
Ed
 1e-07 1 1 0
1  37 0 0 530
2  73 15 0 0 530
2  74 19 0 0 530
0

0101000
-23 9 +25 9 *
Ed
 1e-07 1 1 0
1  38 0 100 600
2  75 15 0 100 600
2  76 17 0 100 600
0

0101000
+35 9 -23 9 *
Wi

0101000
-33 0 -24 7 -22 7 +21 7 *
Fa
0  1e-07 15 7

0101000
+20 0 *
Ve
1e-07
14150 2935 600
0 0

0101101
*
Ed
 1e-07 1 1 0
1  39 0 100 600
2  77 16 0 100 600
2  78 18 0 100 600
0

0101000
+58 9 -18 9 *
Ed
 1e-07 1 1 0
1  40 0 0 600
2  79 16 0 0 600
2  80 19 0 0 600
0

0101000
-18 9 +25 9 *
Wi

0101000
-32 0 -17 7 +16 7 +24 7 *
Fa
0  1e-07 16 7

0101000
+15 0 *
Ve
1e-07
14150 3465 600
0 0

0101101
*
Ed
 1e-07 1 1 0
1  41 0 100 600
2  81 17 0 100 600
2  82 18 0 100 600
0

0101000
+43 9 -13 9 *
Ed
 1e-07 1 1 0
1  42 0 0 600
2  83 17 0 0 600
2  84 19 0 0 600
0

0101000
-13 9 +23 9 *
Wi

0101000
-31 0 -12 7 +11 7 +21 7 *
Fa
0  1e-07 17 7

0101000
+10 0 *
Ed
 1e-07 1 1 0
1  43 0 0 530
2  85 18 0 0 530
2  86 19 0 0 530
0

0101000
-13 9 +18 9 *
Wi

0101000
-17 7 -8 7 +12 7 +28 4 *
Fa
0  1e-07 18 7

0101000
+7 0 *
Wi

0101000
-22 0 -11 0 +8 0 +16 0 *
Fa
0  1e-07 19 0

0101000
+5 0 *
Sh

0101000
-101 2 -94 0 +87 0 +82 2 -77 0 -62 0 +59 0 +54 0 -49 0 +44 4 
+39 0 -36 0 +29 0 +26 0 -19 0 -14 0 +9 0 +6 0 +4 7 *
So

0100000
+3 0 *
Co

1100000
+2 0 *

+1 1 