DBRep_DrawableShape

CASCADE Topology V1, (c) Matra-Datavision
Locations 6
1
              1               0               0               0 
              0               1               0               0 
              0               0               1            2400 
2  1 -1 0
1
              1               0               0               0 
              0               1               0               0 
              0               0               1            2400 
2  3 -1 0
1
              1               0               0               0 
              0               1               0               0 
              0               0               1            2400 
2  5 -1 0
Curve2ds 72
8 0 2400
1 6050 0 0 -1 
8 0 2400
1 50 0 0 -1 
1 0 -2400 1 0 
1 100 0 0 1 
8 0 2400
1 3650 0 0 -1 
8 0 2400
1 50 0 0 -1 
1 0 0 1 0 
1 100 0 0 1 
1 0 -0 1 0 
1 50 6050 1 0 
1 3650 0 0 -1 
1 100 0 0 -1 
1 0 -2400 1 0 
1 50 6050 1 0 
1 0 -0 1 0 
1 50 3650 1 0 
1 3650 0 0 -1 
1 0 0 0 -1 
1 0 -2400 1 0 
1 50 3650 1 0 
1 100 0 0 -1 
1 3650 0 0 -1 
1 0 0 1 0 
1 3700 3650 -0 -1 
1 0 -2400 1 0 
1 3700 3650 -0 -1 
1 0 0 0 -1 
1 0 -0 0 -1 
1 7600 0 0 -1 
1 0 -0 0 -1 
1 0 0 1 0 
1 0 0 0 1 
1 0 -2400 1 0 
1 0 0 0 1 
1 100 0 0 -1 
1 0 0 0 -1 
1 0 -0 1 0 
1 0 0 1 0 
1 0 -2400 1 0 
1 0 0 1 0 
1 100 0 0 -1 
1 7600 0 0 -1 
1 0 -0 1 0 
1 0 7600 1 0 
1 0 -2400 1 0 
1 0 7600 1 0 
8 0 2400
1 3550 0 0 -1 
8 0 2400
1 50 0 0 -1 
1 0 -2400 1 0 
1 100 0 0 1 
1 0 0 1 0 
1 100 0 0 1 
1 0 0 1 0 
1 100 0 0 1 
1 0 -2400 1 0 
1 100 0 0 1 
8 0 2400
1 6150 0 0 -1 
8 0 2400
1 50 0 0 -1 
1 0 -0 1 0 
1 50 3550 1 0 
1 0 -2400 1 0 
1 50 3550 1 0 
1 0 -0 1 0 
1 50 6150 1 0 
1 3650 0 0 -1 
1 0 0 0 -1 
1 0 -2400 1 0 
1 50 6150 1 0 
1 0 0 1 0 
1 3700 6150 -0 -1 
1 0 -2400 1 0 
1 3700 6150 -0 -1 
Curves 36
1 3850 6300 0 0 0 1 
1 3850 250 0 0 1 0 
1 3850 3900 0 0 0 1 
1 3850 250 0 0 1 0 
1 3900 6300 0 -1 0 0 
1 250 6300 0 0 0 1 
1 3900 6300 0 -1 0 0 
1 3900 3900 0 -1 0 0 
1 250 3900 0 0 0 1 
1 3900 3900 0 -1 0 0 
1 250 3800 0 0 0 1 
1 250 3900 0 0 -1 0 
1 250 3900 0 0 -1 0 
1 3950 250 0 0 0 1 
1 3950 7850 0 0 0 1 
1 3950 250 0 0 1 0 
1 3950 250 0 0 1 0 
1 3850 250 0 0 0 1 
1 3950 250 0 -1 0 0 
1 3950 250 0 -1 0 0 
1 3850 7850 0 0 0 1 
1 3950 7850 0 -1 0 0 
1 3950 7850 0 -1 0 0 
1 3850 3800 0 0 0 1 
1 3850 250 0 0 1 0 
1 3850 250 0 0 1 0 
1 3850 250 0 0 1 0 
1 3850 250 0 0 1 0 
1 3850 6400 0 0 0 1 
1 3900 3800 0 -1 0 0 
1 3900 3800 0 -1 0 0 
1 3900 6400 0 -1 0 0 
1 250 6400 0 0 0 1 
1 3900 6400 0 -1 0 0 
1 250 6400 0 0 -1 0 
1 250 6400 0 0 -1 0 
Polygon3D 0
PolygonOnTriangulations 0
Surfaces 14
1 3850 250 0 -1 0 0 0 1 0 0 0 -1 
1 3900 6300 0 0 -1 0 -1 0 0 -0 -0 -1 
1 3950 250 2400 0 0 -1 -1 0 -0 0 1 0 
1 3900 3900 0 0 -1 0 -1 0 0 -0 -0 -1 
1 3950 250 0 0 0 -1 -1 0 -0 0 1 0 
1 250 6400 0 1 0 -0 0 -1 0 0 -0 -1 
1 250 3900 0 1 0 -0 0 -1 0 0 -0 -1 
1 3900 3800 0 0 -1 0 -1 0 0 -0 -0 -1 
1 3950 250 0 -1 0 0 0 1 0 0 0 -1 
1 3950 250 0 0 -1 0 -1 0 0 -0 -0 -1 
1 3950 7850 0 0 -1 0 -1 0 0 -0 -0 -1 
1 3850 250 0 -1 0 0 0 1 0 0 0 -1 
1 3850 250 0 -1 0 0 0 1 0 0 0 -1 
1 3900 6400 0 0 -1 0 -1 0 0 -0 -0 -1 
Triangulations 0

TShapes 91
Ve
1.00005e-07
3850 6300 0
0 0

0101101
*
Ve
1.00005e-07
3850 6300 2400
0 0

0101101
*
Ed
 1.00005e-07 1 1 0
1  1 0 0 2400
2  1 1 0 0 2400
2  2 2 0 0 2400
0

0101000
+91 0 -90 0 *
Ve
1.00005e-07
3850 3900 2400
0 0

0101101
*
Ed
 1.00005e-07 1 1 0
1  2 0 3650 6050
2  3 1 2 3650 6050
2  4 3 2 3650 6050
0

0101000
+88 2 -90 2 *
Ve
1.00005e-07
3850 3900 0
0 0

0101101
*
Ed
 1.00005e-07 1 1 0
1  3 0 0 2400
2  5 1 0 0 2400
2  6 4 0 0 2400
0

0101000
+86 0 -88 0 *
Ed
 1.00005e-07 1 1 0
1  4 0 3650 6050
2  7 1 0 3650 6050
2  8 5 0 3650 6050
0

0101000
+86 0 -91 0 *
Wi

0101000
-89 0 +87 1 +85 0 -84 0 *
Fa
0  1.00005e-07 1 0

0101000
+83 0 *
Ve
1.00005e-07
250 6300 0
0 0

0101101
*
Ed
 1.00005e-07 1 1 0
1  5 0 50 3650
2  9 2 0 50 3650
2  10 5 0 50 3650
0

0101000
+91 0 -81 0 *
Ve
1.00005e-07
250 6300 2400
0 0

0101101
*
Ed
 1.00005e-07 1 1 0
1  6 0 0 2400
2  11 2 0 0 2400
2  12 6 0 0 2400
0

0101000
+81 0 -79 0 *
Ed
 1.00005e-07 1 1 0
1  7 0 50 3650
2  13 2 4 50 3650
2  14 3 4 50 3650
0

0101000
+90 4 -79 4 *
Wi

0101000
-80 0 -78 0 +77 3 +89 0 *
Fa
0  1.00005e-07 2 0

0101000
+76 0 *
Ve
1.00005e-07
250 3900 0
0 0

0101101
*
Ed
 1.00005e-07 1 1 0
1  8 0 50 3650
2  15 4 0 50 3650
2  16 5 0 50 3650
0

0101000
+86 0 -74 0 *
Ve
1.00005e-07
250 3900 2400
0 0

0101101
*
Ed
 1.00005e-07 1 1 0
1  9 0 0 2400
2  17 4 0 0 2400
2  18 7 0 0 2400
0

0101000
+74 0 -72 0 *
Ed
 1.00005e-07 1 1 0
1  10 0 50 3650
2  19 4 6 50 3650
2  20 3 6 50 3650
0

0101000
+88 6 -72 6 *
Wi

0101000
-73 0 -71 0 +70 5 +85 0 *
Fa
0  1.00005e-07 4 0

0101000
+69 0 *
Ve
1.00005e-07
250 3800 0
0 0

0101101
*
Ve
1.00005e-07
250 3800 2400
0 0

0101101
*
Ed
 1.00005e-07 1 1 0
1  11 0 0 2400
2  21 7 0 0 2400
2  22 8 0 0 2400
0

0101000
+67 0 -66 0 *
Ed
 1.00005e-07 1 1 0
1  12 0 0 100
2  23 7 0 0 100
2  24 5 0 0 100
0

0101000
+74 0 -67 0 *
Ed
 1.00005e-07 1 1 0
1  13 0 0 100
2  25 7 6 0 100
2  26 3 6 0 100
0

0101000
+72 6 -66 6 *
Wi

0101000
+71 0 -65 0 -64 0 +63 5 *
Fa
0  1.00005e-07 7 0

0101000
+62 0 *
Ve
1.00005e-07
3950 250 0
0 0

0101101
*
Ve
1.00005e-07
3950 250 2400
0 0

0101101
*
Ed
 1.00005e-07 1 1 0
1  14 0 0 2400
2  27 9 0 0 2400
2  28 10 0 0 2400
0

0101000
+60 0 -59 0 *
Ve
1.00005e-07
3950 7850 0
0 0

0101101
*
Ve
1.00005e-07
3950 7850 2400
0 0

0101101
*
Ed
 1.00005e-07 1 1 0
1  15 0 0 2400
2  29 9 0 0 2400
2  30 11 0 0 2400
0

0101000
+57 0 -56 0 *
Ed
 1.00005e-07 1 1 0
1  16 0 0 7600
2  31 9 0 0 7600
2  32 5 0 0 7600
0

0101000
+60 0 -57 0 *
Ed
 1.00005e-07 1 1 0
1  17 0 0 7600
2  33 9 2 0 7600
2  34 3 2 0 7600
0

0101000
+59 2 -56 2 *
Wi

0101000
+58 0 -55 0 -54 0 +53 1 *
Fa
0  1.00005e-07 9 0

0101000
+52 0 *
Ve
1.00005e-07
3850 250 0
0 0

0101101
*
Ve
1.00005e-07
3850 250 2400
0 0

0101101
*
Ed
 1.00005e-07 1 1 0
1  18 0 0 2400
2  35 10 0 0 2400
2  36 12 0 0 2400
0

0101000
+50 0 -49 0 *
Ed
 1.00005e-07 1 1 0
1  19 0 0 100
2  37 10 0 0 100
2  38 5 0 0 100
0

0101000
+60 0 -50 0 *
Ed
 1.00005e-07 1 1 0
1  20 0 0 100
2  39 10 2 0 100
2  40 3 2 0 100
0

0101000
+59 2 -49 2 *
Wi

0101000
+58 0 -48 0 -47 0 +46 1 *
Fa
0  1.00005e-07 10 0

0101000
+45 0 *
Ve
1.00005e-07
3850 7850 0
0 0

0101101
*
Ve
1.00005e-07
3850 7850 2400
0 0

0101101
*
Ed
 1.00005e-07 1 1 0
1  21 0 0 2400
2  41 11 0 0 2400
2  42 13 0 0 2400
0

0101000
+43 0 -42 0 *
Ed
 1.00005e-07 1 1 0
1  22 0 0 100
2  43 11 0 0 100
2  44 5 0 0 100
0

0101000
+57 0 -43 0 *
Ed
 1.00005e-07 1 1 0
1  23 0 0 100
2  45 11 2 0 100
2  46 3 2 0 100
0

0101000
+56 2 -42 2 *
Wi

0101000
+55 0 -41 0 -40 0 +39 1 *
Fa
0  1.00005e-07 11 0

0101000
+38 0 *
Ve
1.00005e-07
3850 3800 0
0 0

0101101
*
Ve
1.00005e-07
3850 3800 2400
0 0

0101101
*
Ed
 1.00005e-07 1 1 0
1  24 0 0 2400
2  47 12 0 0 2400
2  48 8 0 0 2400
0

0101000
+36 0 -35 0 *
Ed
 1.00005e-07 1 1 0
1  25 0 0 3550
2  49 12 2 0 3550
2  50 3 2 0 3550
0

0101000
+49 2 -35 2 *
Ed
 1.00005e-07 1 1 0
1  26 0 0 3550
2  51 12 0 0 3550
2  52 5 0 0 3550
0

0101000
+50 0 -36 0 *
Wi

0101000
-34 0 +33 1 +48 0 -32 0 *
Fa
0  1.00005e-07 12 0

0101000
+31 0 *
Ve
1.00005e-07
3850 6400 0
0 0

0101101
*
Ed
 1.00005e-07 1 1 0
1  27 0 6150 7600
2  53 13 0 6150 7600
2  54 5 0 6150 7600
0

0101000
+29 0 -43 0 *
Ve
1.00005e-07
3850 6400 2400
0 0

0101101
*
Ed
 1.00005e-07 1 1 0
1  28 0 6150 7600
2  55 13 2 6150 7600
2  56 3 2 6150 7600
0

0101000
+27 2 -42 2 *
Ed
 1.00005e-07 1 1 0
1  29 0 0 2400
2  57 13 0 0 2400
2  58 14 0 0 2400
0

0101000
+29 0 -27 0 *
Wi

0101000
-28 0 -41 0 +26 1 +25 0 *
Fa
0  1.00005e-07 13 0

0101000
+24 0 *
Ed
 1.00005e-07 1 1 0
1  30 0 50 3650
2  59 8 0 50 3650
2  60 5 0 50 3650
0

0101000
+36 0 -67 0 *
Ed
 1.00005e-07 1 1 0
1  31 0 50 3650
2  61 8 6 50 3650
2  62 3 6 50 3650
0

0101000
+35 6 -66 6 *
Wi

0101000
-22 0 -65 0 +21 5 +34 0 *
Fa
0  1.00005e-07 8 0

0101000
+20 0 *
Ve
1.00005e-07
250 6400 0
0 0

0101101
*
Ed
 1.00005e-07 1 1 0
1  32 0 50 3650
2  63 14 0 50 3650
2  64 5 0 50 3650
0

0101000
+29 0 -18 0 *
Ve
1.00005e-07
250 6400 2400
0 0

0101101
*
Ed
 1.00005e-07 1 1 0
1  33 0 0 2400
2  65 14 0 0 2400
2  66 6 0 0 2400
0

0101000
+18 0 -16 0 *
Ed
 1.00005e-07 1 1 0
1  34 0 50 3650
2  67 14 4 50 3650
2  68 3 4 50 3650
0

0101000
+27 4 -16 4 *
Wi

0101000
-17 0 -15 0 +14 3 +25 0 *
Fa
0  1.00005e-07 14 0

0101000
+13 0 *
Ed
 1.00005e-07 1 1 0
1  35 0 0 100
2  69 6 0 0 100
2  70 5 0 0 100
0

0101000
+18 0 -81 0 *
Ed
 1.00005e-07 1 1 0
1  36 0 0 100
2  71 6 4 0 100
2  72 3 4 0 100
0

0101000
+16 4 -79 4 *
Wi

0101000
+15 0 -78 0 -11 0 +10 3 *
Fa
0  1.00005e-07 6 0

0101000
+9 0 *
Wi

0101100
-54 0 +47 0 +32 0 +22 0 -64 0 -73 0 +84 0 +80 0 -11 0 -17 0 
+28 0 -40 0 *
Fa
0  1.00005e-07 5 0

0101000
+7 0 *
Wi

0101100
+53 1 +39 1 -26 1 +14 3 +10 3 -77 3 -87 1 +70 5 +63 5 -21 5 
-33 1 -46 1 *
Fa
0  1.00005e-07 3 0

0101000
-5 0 *
Sh

0101100
+82 0 +75 0 -68 0 -61 0 -51 0 +44 0 -37 0 +30 0 +23 0 +19 0 
-12 0 -8 0 +6 0 -4 0 *
So

0100000
+3 0 *
Co

1100000
+2 0 *

+1 0 