DBRep_DrawableShape

CASCADE Topology V1, (c) Matra-Datavision
Locations 32
1
              1              -0               0               0 
              0              -1               0               0 
             -0               0              -1               0 
1
              1              -0               0               0 
              0              -1               0               0 
             -0               0              -1               0 
1
              1               0               0               0 
              0              -1 1.22464679914735e-016               0 
              0 -1.22464679914735e-016              -1               0 
2  2 1 3 -1 0
2  3 1 2 -1 0
2  1 -1 3 1 2 -1 0
1
              1              -0               0               0 
              0              -1               0               0 
             -0               0              -1               0 
1
              1               0               0               0 
              0              -1 1.22464679914735e-016               0 
              0 -1.22464679914735e-016              -1               0 
2  7 1 8 -1 0
2  8 1 7 -1 0
2  7 -1 0
2  1 -1 3 1 2 -1 8 1 7 -1 0
1
              1               0               0               0 
              0               1               0 1.83697019872103e-015 
              0               0               1              15 
2  7 1 8 -1 13 1 0
2  13 -1 8 1 7 -1 0
2  3 1 2 -1 13 -1 8 1 7 -1 0
2  1 -1 3 1 2 -1 13 -1 8 1 7 -1 0
2  8 -1 2 1 3 -1 0
1
              1               0               0              -0 
              0               1               0             -10 
              0               0               1 3.44509284839767e-015 
2  3 -1 19 1 0
2  1 -1 0
2  7 1 8 -1 2 1 3 -1 0
2  3 1 2 -1 8 1 7 -1 0
1
             -1               0               0              -0 
             -0 -2.22044604925031e-016              -1             -20 
              0              -1 2.22044604925031e-016 2.44929359829471e-015 
2  24 1 3 -1 19 1 0
2  24 -1 0
2  19 -1 3 1 24 -1 0
2  1 -1 19 -1 3 1 24 -1 0
2  24 1 3 -1 0
2  3 1 24 -1 0
2  1 -1 3 1 24 -1 0
2  7 1 8 -1 13 1 2 1 3 -1 0
Curve2ds 36
1 0 0 0 -1 
1 0 20.003408968492963 -1 0 
1 40 0 0 -1 
1 0 0 0 -1 
1 0 0 1 0 
1 -80 0 0 1 
1 1.2122671864155904e-016 -15 1 0 
1 0 -80 -1 -0 
1 80 0 0 -1 
1 0 0 0 -1 
1 0 0 1 0 
1 -80 40 1 0 
1 0 -15 1 0 
1 -40 -80 0 1 
8 -30.355110143850936 10.355110143849053
1 -29.999999999999062 10 1 0 
8 -30.355110143850936 10.355110143849053
1 -0.15000000000008235 -29.999999999999062 0 -1 
8 -10 8.7970892252038726e-031
1 -59.996591031507208 3.3324814962220539e-033 0 -1 
8 -10 8.7970892252038726e-031
1 3.168065500767125 1.8241435739171629e-016 0 1 
1 0 0 -1 0 
1 0 -59.996591031507037 0 1 
1 0 40 -0 -1 
1 0 0 1 0 
1 0 0 -1 0 
1 0 -59.996591031507037 0 1 
8 -10 3.4423392620362977e-031
1 -20.003408968492792 3.3324814962220539e-033 0 -1 
8 -10 3.4423392620362977e-031
1 6.2567124600022543 1.8241435739171629e-016 0 1 
1 40 0 0 -1 
1 0 -59.996591031507037 -1 0 
1 -1.2122671864155904e-016 -15 1 0 
1 -40 -0 1 0 
2 0.37949039523428313 -19.999999999998121 -0 -1 1 -0 20.003599999999999
1 0 -10 1 0 
1 0 0 1 0 
2 -0.52949039523436447 -19.996591031507037 0 -1 -1 -0 20.003599999999999
1 -15 -59.996591031507037 0 1 
1 0 0 0 -1 
Curves 18
1 40 20 -2.4492935982947065e-015 0 1.2246467991473532e-016 1 
1 40 -20 2.4492935982947065e-015 0 1.2246467991473532e-016 1 
1 40 20 0 0 -1 0 
1 40 20 0 0 -1 0 
1 -40 -20 2.4492935982947065e-015 0 1.2246467991473532e-016 1 
1 40 -20 0 -1 0 0 
1 40 -20 0 -1 0 0 
1 -10.00000000000094 10 -2.4458921262350253e-015 -1 0 0 
1 19.996591031507208 20 -4.8849813083506888e-015 0 1 -3.4450928483976665e-016 
1 -40 20 0 1 0 0 
1 -40 -20 0 0 1 0 
1 -40 20 0 1 0 0 
1 -19.996591031507208 20 -4.8849813083506888e-015 0 1 -3.4450928483976665e-016 
1 -40 20 -2.4492935982947065e-015 0 1.2246467991473532e-016 1 
1 -40 -20 0 0 1 0 
2 2.3687621676142003e-033 0.52949039523436447 0 0 0 1 1 0 -0 -0 1 0 20.003599999999999
2 2.3687621676142003e-033 0.52949039523436447 0 0 0 1 1 0 -0 -0 1 0 20.003599999999999
1 -40 20.000000000000004 14.999999999999995 1 0 0 
Polygon3D 0
PolygonOnTriangulations 0
Surfaces 8
1 40 20 -2.4492935982947065e-015 1 0 -0 0 -1 1.2246467991473532e-016 0 -1.2246467991473532e-016 -1 
1 19.996591031507037 20 -4.898587196589413e-015 0 -1 4.2089479066346278e-016 0 -4.2089479066346278e-016 -1 1 0 0 
1 40 -20 2.4492935982947065e-015 0 -1 1.2246467991473532e-016 -1 0 0 -0 -1.2246467991473532e-016 -1 
1 -40 -20 0 0 0 -1 -1 0 -0 0 1 0 
1 -40 20.000000000000004 14.999999999999995 -0 2.6645352591003756e-016 1 0 1 -2.6645352591003756e-016 -1 0 -0 
1 -40 -20 2.4492935982947065e-015 -1 0 0 0 1 -1.2246467991473532e-016 -0 -1.2246467991473532e-016 -1 
1 19.999999999998121 -20 -0.1500000000000789 0 -1 2.3923997837040538e-016 0 -2.3923997837040538e-016 -1 1 0 0 
2 -2.3687621676142003e-033 20 0.52949039523435959 0 1 -3.4450928483976665e-016 -1 0 0 0 3.4450928483976665e-016 1 20.003599999999999
Triangulations 0

TShapes 48
Ve
1.00000001776357e-007
40 -20 4.89858719658941e-015
0 0

0101101
*
Ve
1.00000001776357e-007
40 -20 -15
0 0

0101101
*
Ed
 1e-007 1 1 0
1  1 0 0 15
2  1 1 0 0 15
2  2 2 5 0 15
0

0101000
+48 6 -47 6 *
Ve
1.00000001776357e-007
40 20 -4.89858719658941e-015
0 0

0101101
*
Ve
1.00000001776357e-007
40 20 -15
0 0

0101101
*
Ed
 1e-007 1 1 0
1  2 0 0 15
2  3 1 0 0 15
2  4 3 0 0 15
0

0101000
+45 6 -44 6 *
Ed
 1.00000001776357e-007 1 1 0
1  3 0 0 40
2  5 1 10 0 40
2  6 4 11 0 40
0

0101000
+48 12 -45 12 *
Ed
 1.00000001776357e-007 1 1 0
1  4 0 0 40
2  7 1 15 0 40
2  8 5 16 0 40
0

0101000
+47 17 -44 17 *
Wi

0101000
+46 0 -43 0 -42 9 +41 14 *
Fa
0  1e-007 1 0

0101000
+40 0 *
Ve
1.00000001776357e-007
-40 20 -4.89858719658941e-015
0 0

0101101
*
Ve
1.00000001776357e-007
-40 20 -15
0 0

0101101
*
Ed
 1e-007 1 1 0
1  5 0 0 15
2  9 3 0 0 15
2  10 6 0 0 15
0

0101000
+38 6 -37 6 *
Ed
 1.00000001776357e-007 1 1 0
1  6 0 0 80
2  11 3 10 0 80
2  12 4 11 0 80
0

0101000
+45 12 -38 12 *
Ed
 1.00000001776357e-007 1 1 0
1  7 0 0 80
2  13 3 15 0 80
2  14 5 16 0 80
0

0101000
+44 17 -37 17 *
Wi

0101000
+43 0 -36 0 -35 9 +34 14 *
Fa
0  1e-007 3 0

0101000
+33 0 *
Ve
0.0001
19.9965910315072 -10 3.99680288865056e-015
0 0

0101101
*
Ve
0.0001
-19.9965910315072 -10 2.44249065417534e-015
0 0

0101101
*
Ed
 1e-007 1 1 0
1  8 0 -29.9965910315081 9.99659103150627
2  15 4 18 -29.9965910315081 9.99659103150627
2  16 7 20 -29.9965910315081 9.99659103150627
0

0101000
+31 21 -30 21 *
Ve
1.00003251392347e-007
19.996591031507 -20 3.2562909341697e-012
0 0

0101101
*
Ed
 1e-007 1 1 0
1  9 0 -10 8.79708922520387e-031
2  17 4 18 -10 8.79708922520387e-031
2  18 8 0 -10 8.79708922520387e-031
0

0101000
+31 21 -28 21 *
Ed
 1e-007 1 1 0
1  10 0 59.996591031507 80
2  19 4 11 59.996591031507 80
2  20 2 23 59.996591031507 80
0

0101000
+28 12 -48 12 *
Ve
1.00000001776357e-007
-40 -20 4.89858719658941e-015
0 0

0101101
*
Ed
 1.00000001776357e-007 1 1 0
1  11 0 0 40
2  21 4 11 0 40
2  22 6 10 0 40
0

0101000
+38 12 -25 12 *
Ve
1.00003258566891e-007
-19.9965910315074 -20 -3.2536683041736e-012
0 0

0101101
*
Ed
 1e-007 1 1 0
1  12 0 0 20.0034089684926
2  23 4 11 0 20.0034089684926
2  24 2 23 0 20.0034089684926
0

0101000
+25 12 -23 12 *
Ed
 1e-007 1 1 0
1  13 0 -10 3.4423392620363e-031
2  25 4 18 -10 3.4423392620363e-031
2  26 8 0 -10 3.4423392620363e-031
0

0101000
+30 21 -23 21 *
Wi

0101000
+29 0 -27 0 -26 22 -42 22 -35 22 -24 22 -22 22 +21 0 *
Fa
0  1e-007 4 18

0101000
+20 0 *
Ve
1.00000001776357e-007
-40 -20 -15
0 0

0101101
*
Ed
 1e-007 1 1 0
1  14 0 0 15
2  27 6 0 0 15
2  28 2 5 0 15
0

0101000
+25 6 -18 6 *
Ed
 1.00000001776357e-007 1 1 0
1  15 0 0 40
2  29 6 15 0 40
2  30 5 16 0 40
0

0101000
+37 17 -18 17 *
Wi

0101000
+36 0 -17 0 -24 9 +16 14 *
Fa
0  1e-007 6 0

0101000
+15 0 *
Ed
 1e-007 1 1 0
1  16 0 3.16806550076713 6.25671246000225
2  31 7 26 3.16806550076713 6.25671246000225
2  32 8 27 3.16806550076713 6.25671246000225
0

0101000
+31 28 -30 28 *
Wi

0101000
-29 0 +13 25 *
Fa
0  1e-007 7 20

0101000
+12 0 *
Ed
 1e-007 1 1 0
1  17 0 3.16806550076745 6.25671246000258
2  33 8 30 3.16806550076745 6.25671246000258
2  34 2 30 3.16806550076745 6.25671246000258
0

0101000
+28 31 -23 31 *
Wi

0101000
+13 25 -27 0 -10 29 +21 0 *
Fa
0  1e-007 8 0

0101000
+9 0 *
Ed
 1e-007 1 1 0
1  18 0 0 80
2  35 2 0 0 80
2  36 5 0 0 80
0

0101000
+18 21 -47 21 *
Wi

0101000
-26 22 +10 29 -22 22 +17 4 +7 0 -46 4 *
Fa
0  1e-007 2 0

0101000
-6 0 *
Wi

0101000
-7 0 -16 32 -34 32 -41 32 *
Fa
0  1.00000001776357e-007 5 0

0101000
+4 0 *
Sh

0101000
+39 4 +32 4 -19 0 +14 4 -11 0 +8 0 -5 0 +3 0 *
So

1100000
+2 0 *

+1 1 