DBRep_DrawableShape

CASCADE Topology V1, (c) Matra-Datavision
Locations 10
1
              0 1.11022302462516e-016              -1 -1.83630888273001e-014 
              1 -2.22044604925031e-016 1.11022302462516e-016 -2.26342544921216e-046 
-1.11022302462516e-016              -1 -2.22044604925031e-016 -4.0774248038611e-030 
1
              0 1.11022302462516e-016               1               0 
              1               0 1.11022302462516e-016               0 
1.11022302462516e-016               1               0               0 
2  1 1 2 -1 0
2  2 1 1 -1 0
2  1 -1 0
1
              1               0               0 -1.11022302462516e-015 
              0               1               0 2.22044604925031e-015 
              0               0               1              10 
2  1 1 2 -1 6 1 0
2  6 -1 2 1 1 -1 0
2  2 -1 0
2  2 -1 6 1 0
Curve2ds 36
1 0 0 -1.1102230246251565e-016 -1 
1 0 0 5.5511151231260909e-017 -1 
1 6.3999999999999995 2.4651903288156619e-030 -1.1102230246251565e-016 -1 
1 -4.7855232513795969e-046 3.1554436208840472e-030 -5.5511151231260909e-017 -1 
1 0 0 1 1.2325951644078309e-032 
1 0 -0 1 3.3306690738754696e-016 
1 -1.1102230246251563e-015 -10 1 1.2325951644078309e-032 
1 0 -0 1 3.3306690738754696e-016 
1 6.3999999999996451 3.944304526105059e-031 -5.5511151231260909e-017 -1 
1 3.4158679198688603e-031 6.2752453078735813e-047 5.5511151231260909e-017 -1 
1 0 0 1 2.4651903288156619e-032 
1 6.3999999999999995 1.7763568394002503e-015 0.50000000000002776 -0.86602540378442272 
1 -3.6281524367425645e-016 -10 1 2.4651903288156619e-032 
1 6.3999999999999995 1.7763568394002503e-015 0.50000000000002776 -0.86602540378442272 
1 6.3999999999996469 1.1832913578315177e-030 5.5511151231260909e-017 -1 
1 0 0 1.1102230246251565e-016 -1 
1 0 0 1 0 
1 9.5999999999999996 -5.5425625842199961 -0.50000000000002753 -0.86602540378442283 
1 1.6653345369378837e-016 -10 1 0 
1 9.5999999999999996 -5.5425625842199953 -0.50000000000002753 -0.86602540378442283 
1 6.3999999999999995 -2.4651903288156619e-030 1.1102230246251565e-016 -1 
1 6.3999999999996451 -2.7610131682735413e-030 -5.5511151231260909e-017 -1 
1 0 0 1 -1.2325951644078309e-032 
1 6.3999999999999995 -11.085125168439996 -1 -3.3306690738754696e-016 
1 1.1102230246251561e-015 -10.000000000000002 1 -1.2325951644078309e-032 
1 6.3999999999999995 -11.085125168439996 -1 -3.3306690738754696e-016 
1 -3.4158679198688594e-031 -2.4828700941565244e-047 -5.5511151231260909e-017 -1 
1 6.3999999999996469 1.1832913578315177e-030 5.5511151231260909e-017 -1 
1 0 0 1 2.4651903288156619e-032 
1 -3.1999999999999997 -5.5425625842199997 0.50000000000002776 -0.86602540378442272 
1 -1.6653345369378827e-016 -10.000000000000002 1 2.4651903288156619e-032 
1 -3.1999999999999993 -5.5425625842199997 0.50000000000002776 -0.86602540378442272 
1 0 0 1 0 
1 0 -0 -0.50000000000002753 -0.86602540378442283 
1 7.4740778095096152e-016 -10 1 0 
1 0 -0 -0.50000000000002753 -0.86602540378442283 
Curves 18
1 -5.5425625842199979 3.2000000000000002 -1.9333708254822828e-014 -1.1102230246251563e-016 2.2204460492503136e-016 1 
1 -5.5425625842199997 -3.1999999999999993 -1.8623165519062731e-014 -1.1102230246251563e-016 2.2204460492503136e-016 1 
1 -5.5425625842199997 -3.2000000000000002 0 0 1 0 
1 -5.5425625842199997 -3.2000000000000002 0 0 1 0 
1 -2.1316282072803005e-015 -6.3999999999999995 -1.7652546091539983e-014 -1.1102230246251563e-016 2.2204460492503136e-016 1 
1 -5.5425625842199997 3.2000000000000002 0 0.86602540378442272 0.50000000000002764 0 
1 -5.5425625842199997 3.2000000000000002 0 0.86602540378442272 0.50000000000002764 0 
1 5.5425625842199979 -3.2000000000000002 -1.7392469399777339e-014 -1.1102230246251563e-016 2.2204460492503136e-016 1 
1 0 6.4000000000000004 0 0.86602540378442272 -0.50000000000002764 0 
1 0 6.4000000000000004 0 0.86602540378442272 -0.50000000000002764 0 
1 5.5425625842199997 3.1999999999999993 -1.8103012135537436e-014 -1.1102230246251563e-016 2.2204460492503136e-016 1 
1 5.5425625842199997 3.2000000000000002 0 0 -1 0 
1 5.5425625842199997 3.2000000000000002 0 0 -1 0 
1 2.1316282072803005e-015 6.3999999999999995 -1.9073631563060184e-014 -1.1102230246251563e-016 2.2204460492503136e-016 1 
1 0 -6.4000000000000004 0 0.86602540378442272 0.50000000000002764 0 
1 0 -6.4000000000000004 0 0.86602540378442272 0.50000000000002764 0 
1 -5.5425625842199997 -3.2000000000000002 0 0.86602540378442272 -0.50000000000002764 0 
1 -5.5425625842199997 -3.2000000000000002 0 0.86602540378442272 -0.50000000000002764 0 
Polygon3D 0
PolygonOnTriangulations 0
Surfaces 8
1 -5.5425625842199979 3.2000000000000002 -1.9333708254822828e-014 1 -3.3306690738754701e-016 1.110223024625157e-016 -3.3306690738754701e-016 -1 1.1102230246251564e-016 1.1102230246251565e-016 -1.1102230246251568e-016 -1 
1 -5.5425625842199979 3.2000000000000002 -1.9333708254822828e-014 -0.50000000000002742 0.86602540378442283 -2.4780741986961376e-016 0.86602540378442283 0.50000000000002742 4.0636983087915557e-017 1.5909636962210651e-016 -1.9428902930939939e-016 -1 
1 -5.5425625842199997 -3.1999999999999993 -1.8623165519062728e-014 0.50000000000002787 0.86602540378442261 -1.3678511740709197e-016 0.86602540378442261 -0.50000000000002787 1.5165928555043735e-016 6.2948235302924771e-017 -1.9428902930939939e-016 -1 
1 -1.8718360195180135e-014 -5.5425625842199988 3.2000000000000006 -1 5.559680859162067e-031 -1.1102230246251526e-016 1.1102230246251526e-016 0 -1 -5.559680859162067e-031 -1 -6.1724856994094766e-047 
1 -1.8718360195180135e-014 -5.5425625842199988 3.2000000000000006 -1 5.559680859162067e-031 -1.1102230246251526e-016 1.1102230246251526e-016 0 -1 -5.559680859162067e-031 -1 -6.1724856994094766e-047 
1 -2.1316282072803009e-015 -6.3999999999999995 -1.7652546091539983e-014 -0.50000000000002742 0.86602540378442283 -2.4780741986961376e-016 0.86602540378442283 0.50000000000002742 4.0636983087915557e-017 1.5909636962210651e-016 -1.9428902930939939e-016 -1 
1 5.5425625842199979 -3.2000000000000002 -1.7392469399777339e-014 -1 3.3306690738754701e-016 -1.110223024625157e-016 3.3306690738754701e-016 1 -1.1102230246251564e-016 1.1102230246251565e-016 -1.1102230246251568e-016 -1 
1 2.1316282072803009e-015 6.3999999999999995 -1.9073631563060184e-014 0.50000000000002787 0.86602540378442261 -1.3678511740709197e-016 0.86602540378442261 -0.50000000000002787 1.5165928555043735e-016 6.2948235302924771e-017 -1.9428902930939939e-016 -1 
Triangulations 0

TShapes 48
Ve
1e-007
-5.54256258422 3.2 -1.93337082548228e-014
0 0

0101101
*
Ve
1e-007
-5.54256258422 3.2 9.99999999999998
0 0

0101101
*
Ed
 1e-007 1 1 0
1  1 0 0 10
2  1 1 0 0 10
2  2 2 0 0 10
0

0101000
+48 0 -47 0 *
Ve
1e-007
-5.54256258422 -3.2 -1.86231655190627e-014
0 0

0101101
*
Ve
1e-007
-5.54256258422 -3.2 9.99999999999998
0 0

0101101
*
Ed
 1e-007 1 1 0
1  2 0 0 10
2  3 1 0 0 10
2  4 3 0 0 10
0

0101000
+45 0 -44 0 *
Ed
 1e-007 1 1 0
1  3 0 0 6.4
2  5 1 4 0 6.4
2  6 4 5 0 6.4
0

0101000
+48 4 -45 4 *
Ed
 1e-007 1 1 0
1  4 0 0 6.4
2  7 1 8 0 6.4
2  8 5 5 0 6.4
0

0101000
+47 8 -44 8 *
Wi

0101000
+46 0 -43 0 -42 3 +41 7 *
Fa
0  1e-007 1 0

0101000
+40 0 *
Ve
1e-007
-2.1316282072803e-015 -6.4 -1.765254609154e-014
0 0

0101101
*
Ve
1e-007
-3.24185123190546e-015 -6.4 9.99999999999998
0 0

0101101
*
Ed
 1e-007 1 1 0
1  5 0 0 10
2  9 3 0 0 10
2  10 6 0 0 10
0

0101000
+38 0 -37 0 *
Ed
 1e-007 1 1 0
1  6 0 0 6.39999999999965
2  11 3 4 0 6.39999999999965
2  12 4 5 0 6.39999999999965
0

0101000
+45 4 -38 4 *
Ed
 1e-007 1 1 0
1  7 0 0 6.39999999999965
2  13 3 8 0 6.39999999999965
2  14 5 5 0 6.39999999999965
0

0101000
+44 8 -37 8 *
Wi

0101000
+43 0 -36 0 -35 3 +34 7 *
Fa
0  1e-007 3 0

0101000
+33 0 *
Ve
1e-007
5.54256258422 -3.2 -1.73924693997773e-014
0 0

0101101
*
Ve
1e-007
5.54256258422 -3.2 9.99999999999998
0 0

0101101
*
Ed
 1e-007 1 1 0
1  8 0 0 10
2  15 6 0 0 10
2  16 7 0 0 10
0

0101000
+31 0 -30 0 *
Ed
 1e-007 1 1 0
1  9 0 0 6.39999999999965
2  17 6 4 0 6.39999999999965
2  18 4 5 0 6.39999999999965
0

0101000
+38 4 -31 4 *
Ed
 1e-007 1 1 0
1  10 0 0 6.39999999999965
2  19 6 8 0 6.39999999999965
2  20 5 5 0 6.39999999999965
0

0101000
+37 8 -30 8 *
Wi

0101000
+36 0 -29 0 -28 3 +27 7 *
Fa
0  1e-007 6 0

0101000
+26 0 *
Ve
1e-007
5.54256258422 3.2 -1.81030121355374e-014
0 0

0101101
*
Ve
1e-007
5.54256258422 3.2 9.99999999999998
0 0

0101101
*
Ed
 1e-007 1 1 0
1  11 0 0 10
2  21 7 0 0 10
2  22 8 0 0 10
0

0101000
+24 0 -23 0 *
Ed
 1e-007 1 1 0
1  12 0 0 6.4
2  23 7 4 0 6.4
2  24 4 5 0 6.4
0

0101000
+31 4 -24 4 *
Ed
 1e-007 1 1 0
1  13 0 0 6.4
2  25 7 8 0 6.4
2  26 5 5 0 6.4
0

0101000
+30 8 -23 8 *
Wi

0101000
+29 0 -22 0 -21 3 +20 7 *
Fa
0  1e-007 7 0

0101000
+19 0 *
Ve
1e-007
2.1316282072803e-015 6.4 -1.90736315630602e-014
0 0

0101101
*
Ve
1e-007
1.02140518265514e-015 6.4 9.99999999999998
0 0

0101101
*
Ed
 1e-007 1 1 0
1  14 0 0 10
2  27 8 0 0 10
2  28 2 0 0 10
0

0101000
+17 0 -16 0 *
Ed
 1e-007 1 1 0
1  15 0 0 6.39999999999965
2  29 8 4 0 6.39999999999965
2  30 4 5 0 6.39999999999965
0

0101000
+17 4 -24 4 *
Ed
 1e-007 1 1 0
1  16 0 0 6.39999999999965
2  31 8 8 0 6.39999999999965
2  32 5 5 0 6.39999999999965
0

0101000
+16 8 -23 8 *
Wi

0101000
+15 0 -22 0 -14 3 +13 7 *
Fa
0  1e-007 8 0

0101000
+12 0 *
Ed
 1e-007 1 1 0
1  17 0 0 6.39999999999965
2  33 2 4 0 6.39999999999965
2  34 4 5 0 6.39999999999965
0

0101000
+48 4 -17 4 *
Ed
 1e-007 1 1 0
1  18 0 0 6.39999999999965
2  35 2 8 0 6.39999999999965
2  36 5 5 0 6.39999999999965
0

0101000
+47 8 -16 8 *
Wi

0101000
+46 0 -15 0 -10 3 +9 7 *
Fa
0  1e-007 2 0

0101000
+8 0 *
Wi

0101100
+42 0 +35 0 +28 0 +21 0 -14 0 -10 0 *
Fa
0  1e-007 4 0

0101000
-6 1 *
Wi

0101100
+41 0 +34 0 +27 0 +20 0 -13 0 -9 0 *
Fa
0  1e-007 5 0

0101000
-4 1 *
Sh

0101000
-39 0 -32 0 -25 0 -18 0 +11 0 +7 0 +5 9 -3 10 *
So

1100000
+2 0 *

+1 0 