DBRep_DrawableShape

CASCADE Topology V1, (c) Matra-Datavision
Locations 29
1
              1               0               0               0 
              0               1               0               0 
              0               0               1            2400 
2  1 -1 0
1
              0               0               1            5150 
              1               0               0              -0 
              0               1               0              -0 
1
              1               0               0             100 
              0               1               0               0 
              0               0               1               0 
1
              1               0               0            -200 
              0               1               0              -0 
              0               0               1              -0 
2  3 1 4 1 5 1 0
2  5 -1 4 -1 3 -1 0
1
              1               0               0               0 
              0               1               0               0 
              0               0               1            2400 
2  8 -1 0
1
              1               0               0             200 
              0 1.77321265310004e-16              -1            5400 
              0               1 1.77321265310004e-16               0 
1
              1               0               0               0 
              0               1               0            -100 
              0               0               1               0 
2  10 1 11 1 0
2  11 -1 10 -1 0
1
              1               0               0               0 
              0               1               0               0 
              0               0               1            2400 
2  14 -1 0
1
              0               0               1            8250 
              1               0               0               0 
              0               1               0               0 
1
              1               0               0             100 
              0               1               0               0 
              0               0               1               0 
1
              1               0               0            -200 
              0               1               0              -0 
              0               0               1              -0 
2  16 1 17 1 18 1 0
2  18 -1 17 -1 16 -1 0
1
              1               0               0              -0 
              0 1.77321265310004e-16              -1            6200 
              0               1 1.77321265310004e-16              -0 
1
              1               0               0               0 
              0               1               0            -100 
              0               0               1               0 
1
              1               0               0              -0 
              0               1               0             200 
              0               0               1              -0 
2  21 1 22 1 23 1 0
2  23 -1 22 -1 21 -1 0
1
              1               0               0               0 
              0               1               0               0 
              0               0               1            2400 
2  26 -1 0
1
              1               0               0               0 
              0               1               0               0 
              0               0               1            2400 
2  28 -1 0
Curve2ds 252
8 0 2400
1 1800 0 0 -1 
8 0 2400
1 50 0 0 -1 
1 0 -2400 1 0 
1 -8150 100 1 0 
1 0 0 0 -1 
1 2650 0 0 -1 
1 0 0 1 0 
1 3200 -500 -1 0 
8 0 2100
1 2225 0 0 -1 
8 0 2100
1 0 -100 1 0 
1 0 0 1 0 
1 3200 2150 0 -1 
1 0 -2400 1 0 
1 -8150 2750 0 -1 
1 0 0 0 -1 
1 0 -0 0 -1 
1 0 0 1 0 
1 0 0 0 -1 
8 -1050 1050
1 1405 -1050 0 1 
8 -1050 1050
1 1050 -100 1 0 
8 -1112.5 -292.5
1 1112.5 -2100 -1 0 
8 -1112.5 -292.5
1 1112.5 -100 1 0 
1 100 0 0 -1 
1 0 0 0 -1 
1 0 -0 1 0 
1 0 0 1 0 
1 0 -2400 1 0 
1 -8150 2750 -1 0 
1 0 -2400 1 0 
1 -8250 2750 0 -1 
1 0 0 1 0 
1 100 0 0 -1 
8 -2400 0
1 1250 0 0 1 
8 -2400 0
1 50 0 -0 1 
1 2100 0 0 -1 
1 0 0 0 -1 
1 0 -200 1 0 
1 2225 0 0 -1 
1 0 0 0 -1 
1 3100 -75 1 0 
1 0 -0 0 -1 
1 0 0 0 -1 
1 3250 0 0 -1 
1 0 0 0 -1 
1 0 -0 1 0 
1 0 0 -1 0 
1 0 -2400 1 0 
1 0 0 -1 0 
1 100 0 0 -1 
1 0 -0 0 -1 
1 0 0 1 0 
1 0 0 0 1 
1 0 -2400 1 0 
1 0 0 0 1 
8 0 2400
1 500 0 0 -1 
8 0 2400
1 50 0 0 -1 
1 0 -2400 1 0 
1 -3250 0 0 1 
1 0 0 1 0 
1 -3250 0 0 1 
1 3150 0 0 -1 
1 0 0 0 -1 
1 0 -0 1 0 
1 0 100 -1 0 
1 0 -2400 1 0 
1 0 100 -1 0 
1 0 -0 1 0 
1 -3200 500 -1 0 
1 930 -2100 0 1 
1 0 0 1 0 
1 1750 -2100 -1 -0 
1 0 0 1 0 
1 1750 0 0 -1 
1 0 0 1 0 
1 0 -0 1 0 
1 -1750 -100 1 0 
8 0 2400
1 1850 0 0 -1 
8 0 2400
1 500 0 0 -1 
1 0 -2400 1 0 
1 -3200 500 -1 0 
1 2650 0 0 -1 
1 100 0 0 -1 
1 0 0 1 0 
1 -3150 100 0 1 
1 0 -2400 1 0 
1 -3150 100 0 1 
1 0 0 1 0 
1 -3250 0 0 1 
1 2750 0 0 -1 
1 0 0 0 -1 
1 0 -2400 1 0 
1 -3250 0 0 1 
8 0 2400
1 600 0 0 -1 
8 0 2400
1 50 0 0 -1 
1 0 0 1 0 
1 -3250 2750 1 0 
1 0 -2400 1 0 
1 -3250 2750 1 0 
1 0 0 -1.77321265310004e-16 -1 
1 820 0 0 -1 
1 2100 -3.7237465715100842e-13 -1.77321265310004e-16 -1 
1 -4130 500 0 1 
8 -1050 1050
1 1050 -100.00000000000018 1 -1.77321265310004e-16 
8 -1050 1050
1 930 -1050 -0 1 
1 0 0 0 -1 
1 2100 3.7237465715100842e-13 1.77321265310004e-16 -1 
8 -875 -55
1 875 -100 1 0 
8 -875 -55
1 875 -2100 -1 -0 
1 0 0 1.77321265310004e-16 -1 
1 0 -100 0 1 
8 0 2100
1 1.77321265310004e-14 -100 1 1.77321265310004e-16 
8 0 2100
1 1750 0 0 -1 
1 0 -2400 1 0 
1 -5050 0 0 1 
1 0 0 0 -1 
1 3200 0 0 -1 
1 0 0 1 0 
1 100 -600 0 1 
1 0 -0 1 0 
1 -1750 0 1 0 
8 0 2400
1 1850 0 0 -1 
8 0 2400
1 600 0 0 -1 
1 0 -2400 1 0 
1 -3200 600 -1 0 
1 0 -0 1 0 
1 -3200 600 -1 0 
1 0 0 0 -1 
1 2750 0 0 -1 
1 0 0 1 0 
1 3300 -600 -1 0 
1 0 -2400 1 0 
1 -8250 0 1 0 
8 -1050 1050
1 1870 -1050 0 -1 
8 -1050 1050
1 1050 -100 -1 0 
1 0 0 1 0 
1 -3100 -2750 0 1 
1 2750 0 0 -1 
1 100 0 0 -1 
1 0 -2400 1 0 
1 -5050 0 0 1 
1 0 0 1 0 
1 100 -600 0 1 
8 -2100 0
1 1050 0 0 1 
8 -2100 0
1 0 -100 -1 0 
8 -1345 -525
1 525 -2100 -1 0 
8 -1345 -525
1 -525 -100 -1 0 
8 -2400 0
1 1350 0 0 1 
8 -2400 0
1 50 0 -0 1 
1 0 0 1 0 
1 100 0 0 -1 
1 1405 -2100 0 1 
1 0 -200 1 0 
1 2225 -2100 -1 0 
1 0 -200 1 0 
1 0 0 1 0 
1 3300 2150 0 -1 
1 0 -2400 1 0 
1 -8250 2750 0 -1 
1 0 0 0 -1 
1 2650 0 0 -1 
1 0 0 1 0 
1 -3000 0 -1 0 
1 0 -2400 1 0 
1 -5150 2750 1 0 
1 0 0 1 0 
1 200 -500 0 1 
1 950 0 0 -1 
1 0 -200 1 0 
1 950 -2100 1 0 
1 0 -200 1 0 
1 1770 -2100 0 1 
1 0 -200 1 0 
1 0 0 1 0 
1 -3000 -2650 0 1 
1 0 -2400 1 0 
1 -5150 100 0 1 
1 0 0 0 -1 
1 3000 0 0 -1 
1 0 0 1 0 
1 3200 -500 -1 0 
1 0 -2400 1 0 
1 -8150 100 1 0 
8 0 2400
1 1900 0 0 -1 
8 0 2400
1 50 0 0 -1 
1 2100 0 0 -1 
1 0 0 0 -1 
1 0 0 0 -1 
1 0 450 1 0 
1 2100 0 0 -1 
1 -3200 -880 1 0 
1 0 0 0 -1 
1 820 0 0 -1 
1 0 -0 1 0 
1 50 -1250 1 0 
1 100 -2100 0 1 
1 -3.54642530620008e-14 -200 1 0 
1 920 -2100 -1 -0 
1 0 -200 1 0 
1 920 0 0 -1 
1 3.54642530620008e-14 -200 1 0 
1 0 -0 1 0 
1 0 0 1 0 
1 1150 0 0 -1 
1 0 0 0 -1 
1 0 -2400 1 0 
1 -8200 1500 -1 0 
8 0 2100
1 920 0 0 -1 
8 0 2100
1 1.77321265310004e-14 -100 1 1.77321265310004e-16 
1 0 -0 1 0 
1 0 -100 1 0 
1 1150 0 0 -1 
1 100 0 0 -1 
1 0 -2400 1 0 
1 -8200 1400 -1 0 
1 0 -0 1 0 
1 50 -1350 1 0 
8 -1050 1050
1 100 -1050 -0 1 
8 -1050 1050
1 1050 -100.00000000000018 1 -1.77321265310004e-16 
8 -460 360
1 460 -2100 -1 -0 
8 -460 360
1 460 -100 1 0 
1 2100 0 0 -1 
1 -100 -1405 1 0 
1 0 0 0 -1 
1 820 0 0 -1 
1 0 0 1 0 
1 1300 -550 0 1 
1 2700 0 0 -1 
1 0 -0 0 -1 
1 0 -2400 1 0 
1 -6250 50 0 1 
1 0 0 1 0 
1 1400 -550 0 1 
1 2700 0 0 -1 
1 100 0 0 -1 
1 0 -2400 1 0 
1 -6350 50 0 1 
1 2100 -3.7237465715100842e-13 -1.77321265310004e-16 -1 
1 150 -1450 0 1 
1 0 0 -1.77321265310004e-16 -1 
1 820 0 0 -1 
1 0 0 0 -1 
1 2100 3.7237465715100842e-13 1.77321265310004e-16 -1 
1 0 0 1.77321265310004e-16 -1 
1 920 -200 0 1 
1 1150 0 0 -1 
1 0 0 1 0 
1 0 -2400 1 0 
1 -9350 1500 0 -1 
1 0 -0 1 0 
1 1300 2150 1 0 
1 0 -2400 1 0 
1 -6250 2750 -1 0 
Curves 126
1 6950 4900 0 0 -0 1 
1 5150 4900 0 1 0 0 
1 5150 4900 0 0 0 1 
1 5150 4900 0 1 0 0 
1 5150 5325 0 0 -0 1 
1 5150 7550 0 0 -1 0 
1 5150 7550 0 0 -1 0 
1 5150 7550 0 0 0 1 
1 5150 7550 0 0 -1 0 
1 5150 6145 1050 0 -0 -1 
1 5150 6437.5 2100 0 1 0 
1 5050 7550 0 0 0 1 
1 5150 7550 0 -1 0 0 
1 5150 7550 0 -1 0 0 
1 5050 7550 0 0 -1 0 
1 5050 7550 0 0 -1 0 
1 5050 6300 0 0 -0 -1 
1 5250 5325 2100 -1 -0 -0 
1 5325 0 0 0 1 0 
1 5250 5325 0 -1 -0 -0 
1 13300 4800 0 0 0 1 
1 10050 4800 0 0 0 1 
1 13300 4800 0 -1 0 0 
1 13300 4800 0 -1 0 0 
1 13300 4900 0 0 0 1 
1 13300 4800 0 0 1 0 
1 13300 4800 0 0 1 0 
1 10050 5300 0 0 0 1 
1 10050 4800 0 0 1 0 
1 10050 4800 0 0 1 0 
1 10150 4900 0 0 0 1 
1 13300 4900 0 -1 0 0 
1 13300 4900 0 -1 0 0 
1 10100 5300 0 -1 0 0 
1 8970 2100 0 0 -1 0 
1 8150 2100 0 1 0 0 
1 8150 0 0 0 1 0 
1 10100 5300 0 -1 0 0 
1 8250 5300 0 0 0 1 
1 10100 5300 0 -1 0 0 
1 10150 7550 0 0 0 1 
1 10150 4900 0 0 1 0 
1 10150 4900 0 0 1 0 
1 10050 4800 0 0 1 0 
1 10050 7550 0 0 0 1 
1 10050 4800 0 0 1 0 
1 10050 5400 0 0 0 1 
1 10050 7550 0 1 0 0 
1 10050 7550 0 1 0 0 
1 9170 5300 2100 -0 1 -0 
1 9170 5300 0 -0 1 -0 
1 9170 5400 1050 0 -0 -1 
1 8350 5300 2100 -0 1 -0 
1 9225 5400 2100 1 0 0 
1 8350 5300 0 -0 1 -0 
1 8350 5400 0 0 0 1 
1 8250 4800 0 0 1 0 
1 8250 4800 0 0 0 1 
1 8250 4800 0 0 1 0 
1 10100 5400 0 -1 0 0 
1 8250 5400 0 0 0 1 
1 10100 5400 0 -1 0 0 
1 10100 5400 0 -1 0 0 
1 5050 4800 0 0 0 1 
1 5050 4800 0 1 0 0 
1 5050 4800 0 1 0 0 
1 8250 6670 1050 0 0 1 
1 8250 4800 0 0 1 0 
1 8250 7550 0 0 0 1 
1 8250 4800 0 0 1 0 
1 8250 4800 0 0 1 0 
1 8250 5850 0 0 0 -1 
1 8250 5325 2100 -0 -1 -0 
1 5050 6200 0 0 -0 -1 
1 5050 7550 0 0 -1 0 
1 6145 2100 0 0 -1 0 
1 5325 2100 0 1 0 0 
1 5050 7550 0 0 -1 0 
1 5050 7550 0 0 -1 0 
1 8150 7550 0 0 0 1 
1 8150 7550 0 1 0 0 
1 8150 7550 0 1 0 0 
1 8150 4900 0 0 1 0 
1 5850 0 0 0 1 0 
1 5850 2100 0 1 0 0 
1 6670 2100 0 0 -1 0 
1 8150 4900 0 0 1 0 
1 8150 4900 0 0 1 0 
1 8150 4900 0 0 0 1 
1 5150 4900 0 1 0 0 
1 5150 4900 0 1 0 0 
1 7050 4900 0 0 -0 1 
1 8350 5850 2100 -1 -0 -0 
1 8350 5850 0 -1 -0 -0 
1 8350 6670 0 -1 -0 -0 
1 8350 6670 2100 -1 -0 -0 
1 5100 6300 0 -1 0 0 
1 5000 2100 0 0 -1 0 
1 4180 2100 0 1 0 0 
1 4180 0 0 0 1 0 
1 5100 6300 0 -1 0 0 
1 3950 6300 0 0 0 1 
1 5100 6300 0 -1 0 0 
1 4180 6200 0 0 0 1 
1 5100 6200 0 -1 0 0 
1 3950 6200 0 0 0 1 
1 5100 6200 0 -1 0 0 
1 5100 6200 0 -1 0 0 
1 5000 6200 1050 0 -0 -1 
1 4640 6200 2100 1 0 0 
1 5250 6145 0 -1 -0 -0 
1 5250 6145 2100 -1 -0 -0 
1 7050 4850 0 0 1 0 
1 7050 7550 0 0 0 1 
1 7050 4850 0 0 1 0 
1 6950 4850 0 0 1 0 
1 6950 7550 0 0 0 1 
1 6950 4850 0 0 1 0 
1 5000 6100 0 -0 1 -0 
1 5000 6100 2100 -0 1 -0 
1 4180 6100 2100 -0 1 -0 
1 4180 6100 0 -0 1 -0 
1 3950 6300 0 0 -1 0 
1 3950 6300 0 0 -1 0 
1 7050 7550 0 -1 0 0 
1 7050 7550 0 -1 0 0 
Polygon3D 0
PolygonOnTriangulations 0
Surfaces 44
1 5150 4900 0 0 1 0 1 0 0 0 0 -1 
1 6950 4850 0 -1 0 0 0 1 0 0 0 -1 
1 13300 4800 2400 0 -0 1 1 0 0 -0 1 0 
1 5150 7550 0 1 0 -0 0 -1 0 0 -0 -1 
1 8350 5400 0 -0 -0 -1 -1 0 0 0 1 -0 
1 5250 5325 0 0 1 0 0 -0 1 1 0 -0 
1 5150 7550 0 0 -1 0 -1 0 0 -0 -0 -1 
1 5150 7550 0 -0 -0 -1 -1 0 0 0 1 -0 
1 5250 6145 2100 0 -1 0 0 0 -1 1 0 0 
1 5250 5325 2100 0 0 -1 0 1 0 1 -0 0 
1 5050 7550 0 1 0 -0 0 -1 0 0 -0 -1 
1 5100 6300 0 0 -1 0 -1 0 0 -0 -0 -1 
1 5050 7550 0 1 0 -0 0 -1 0 0 -0 -1 
1 13300 4800 0 0 -1 0 -1 0 0 -0 -0 -1 
1 13300 4800 0 -1 0 0 0 1 0 0 0 -1 
1 10050 4800 0 -1 0 0 0 1 0 0 0 -1 
1 13300 4800 0 0 0 1 1 0 -0 -0 1 0 
1 13300 4900 0 0 -1 0 -1 0 0 -0 -0 -1 
1 10100 5300 0 0 -1 0 -1 0 0 -0 -0 -1 
1 10150 4900 0 -1 0 0 0 1 0 0 0 -1 
1 9170 5300 2100 -1 -0 0 0 -1.77321265310004e-16 -1 0 -1 1.77321265310004e-16 
1 8350 5300 2100 0 0 -1 1 0 0 0 -1 0 
1 8350 5300 0 1 0 -0 0 1.77321265310004e-16 1 0 -1 1.77321265310004e-16 
1 8250 4800 0 -1 0 0 0 1 0 0 0 -1 
1 10050 7550 0 0 1 0 1 0 0 0 0 -1 
1 10050 4800 0 -1 0 0 0 1 0 0 0 -1 
1 10100 5400 0 0 -1 0 -1 0 0 -0 -0 -1 
1 5050 4800 0 0 1 0 1 0 0 0 0 -1 
1 8250 4800 0 -1 0 0 0 1 0 0 0 -1 
1 8350 6670 2100 0 -1 0 0 0 -1 1 0 0 
1 5150 7550 0 0 0 -1 -1 0 -0 0 1 0 
1 8150 7550 0 0 1 0 1 0 0 0 0 -1 
1 8350 5850 0 0 1 0 0 -0 1 1 0 -0 
1 8350 5850 2100 0 0 -1 0 1 0 1 -0 0 
1 5100 6200 0 0 -1 0 -1 0 0 -0 -0 -1 
1 8150 4900 0 -1 0 0 0 1 0 0 0 -1 
1 5150 4900 0 0 1 0 1 0 0 0 0 -1 
1 7050 4850 0 -1 0 0 0 1 0 0 0 -1 
1 5000 6100 2100 -1 -0 0 0 -1.77321265310004e-16 -1 0 -1 1.77321265310004e-16 
1 4180 6100 2100 0 0 -1 1 0 0 0 -1 0 
1 4180 6100 0 1 0 -0 0 1.77321265310004e-16 1 0 -1 1.77321265310004e-16 
1 5100 6300 0 -0 -0 -1 -1 0 0 0 1 -0 
1 3950 6300 0 1 0 -0 0 -1 0 0 -0 -1 
1 7050 7550 0 0 -1 0 -1 0 0 -0 -0 -1 
Triangulations 0

TShapes 301
Ve
1.00005000000001e-07
6950 4900 0
0 0

0101101
*
Ve
1.00005000000001e-07
6950 4900 2400
0 0

0101101
*
Ed
 1.00005e-07 1 1 0
1  1 0 0 2400
2  1 1 0 0 2400
2  2 2 0 0 2400
0

0101000
+301 0 -300 0 *
Ve
1.00005000000001e-07
5150 4900 2400
0 0

0101101
*
Ed
 1.00005000000001e-07 1 1 0
1  2 0 0 1800
2  3 1 2 0 1800
2  4 3 2 0 1800
0

0101000
+298 2 -300 2 *
Ve
1.00005000000001e-07
5150 4900 0
0 0

0101101
*
Ed
 1.00005e-07 1 1 0
1  3 0 0 2400
2  5 1 0 0 2400
2  6 4 0 0 2400
0

0101000
+296 0 -298 0 *
Ed
 1.00005000000001e-07 1 1 0
1  4 0 0 1800
2  7 1 0 0 1800
2  8 5 0 0 1800
0

0101000
+296 0 -301 0 *
Wi

0101000
-299 0 +297 1 +295 0 -294 0 *
Fa
0  1.00005e-07 1 0

0101000
+293 0 *
Ve
1.00005000000001e-07
5150 5325 0
0 0

0101101
*
Ve
2.00006e-07
5150 5325 2100
0 0

0101101
*
Ed
 1.00005e-07 1 1 0
1  5 0 0 2100
2  9 4 0 0 2100
2  10 6 0 0 2100
0

0101000
+291 0 -290 0 *
Ed
 1.00005000000001e-07 1 1 0
1  6 0 2225 2650
2  11 4 0 2225 2650
2  12 5 0 2225 2650
0

0101000
+291 0 -296 0 *
Ve
1.00005000000001e-07
5150 7550 2400
0 0

0101101
*
Ed
 1.00005000000001e-07 1 1 0
1  7 0 0 2650
2  13 4 2 0 2650
2  14 3 2 0 2650
0

0101000
+287 2 -298 2 *
Ve
1.00005000000001e-07
5150 7550 0
0 0

0101101
*
Ed
 1.00005e-07 1 1 0
1  8 0 0 2400
2  15 4 0 0 2400
2  16 7 0 0 2400
0

0101000
+285 0 -287 0 *
Ve
1.00005000000001e-07
5150 6145 0
0 0

0101101
*
Ed
 1.00005000000001e-07 1 1 0
1  9 0 0 1405
2  17 4 0 0 1405
2  18 8 0 0 1405
0

0101000
+285 0 -283 0 *
Ve
2.00006e-07
5150 6145 2100
0 0

0101101
*
Ed
 1.00005e-07 1 1 0
1  10 0 -1050 1050
2  19 4 0 -1050 1050
2  20 9 0 -1050 1050
0

0101000
+281 0 -283 0 *
Ed
 1.00005e-07 1 1 0
1  11 0 -1112.5 -292.5
2  21 4 0 -1112.5 -292.5
2  22 10 0 -1112.5 -292.5
0

0101000
+290 0 -281 0 *
Wi

0101000
+289 0 -288 0 -295 0 +286 1 +284 0 -282 0 +280 0 +279 0 *
Fa
0  1.00005e-07 4 0

0101000
+278 0 *
Ve
1.00005000000001e-07
5050 7550 0
0 0

0101101
*
Ve
1.00005000000001e-07
5050 7550 2400
0 0

0101101
*
Ed
 1.00005e-07 1 1 0
1  12 0 0 2400
2  23 7 0 0 2400
2  24 11 0 0 2400
0

0101000
+276 0 -275 0 *
Ed
 1.00005000000001e-07 1 1 0
1  13 0 0 100
2  25 7 0 0 100
2  26 8 0 0 100
0

0101000
+285 0 -276 0 *
Ed
 1.00005000000001e-07 1 1 0
1  14 0 0 100
2  27 7 2 0 100
2  28 3 2 0 100
0

0101000
+287 2 -275 2 *
Wi

0101000
+284 0 -274 0 -273 0 +272 1 *
Fa
0  1.00005e-07 7 0

0101000
+271 0 *
Ve
1.00005000000001e-07
5050 6300 2400
0 0

0101101
*
Ed
 1.00005000000001e-07 1 1 0
1  15 0 0 1250
2  29 11 2 0 1250
2  30 3 2 0 1250
0

0101000
+275 2 -269 2 *
Ve
1.00005000000001e-07
5050 6300 0
0 0

0101101
*
Ed
 1.00005000000001e-07 1 1 0
1  16 0 0 1250
2  31 11 0 0 1250
2  32 8 0 0 1250
0

0101000
+276 0 -267 0 *
Ed
 1.00005e-07 1 1 0
1  17 0 -2400 0
2  33 11 0 -2400 0
2  34 12 0 -2400 0
0

0101000
+269 0 -267 0 *
Wi

0101000
+268 1 +274 0 -266 0 +265 0 *
Fa
0  1.00005e-07 11 0

0101000
+264 0 *
Ve
1e-07
5050 5325 2100
0 0

0101101
*
Ed
 1e-07 1 1 0
1  18 0 99.9999999999999 200
2  35 6 0 99.9999999999999 200
2  36 10 0 99.9999999999999 200
0

0101000
+290 0 -262 0 *
Ve
1.00005000000001e-07
5050 5325 0
0 0

0101101
*
Ed
 1e-07 1 1 0
1  19 0 0 2100
2  37 6 7 0 2100
2  38 13 7 0 2100
0

0101000
+260 7 -262 7 *
Ed
 1.00005000000001e-07 1 1 0
1  20 0 100 200
2  39 6 0 100 200
2  40 5 0 100 200
0

0101000
+291 0 -260 0 *
Wi

0101000
-289 0 -261 0 +259 6 +258 0 *
Fa
0  1e-07 6 0

0101000
+257 0 *
Ve
1.00005000000001e-07
13300 4800 0
0 0

0101101
*
Ve
1.00005000000001e-07
13300 4800 2400
0 0

0101101
*
Ed
 1.00005e-07 1 1 0
1  21 0 0 2400
2  41 14 0 0 2400
2  42 15 0 0 2400
0

0101000
+255 0 -254 0 *
Ve
1.00005000000001e-07
10050 4800 0
0 0

0101101
*
Ve
1.00005000000001e-07
10050 4800 2400
0 0

0101101
*
Ed
 1.00005e-07 1 1 0
1  22 0 0 2400
2  43 14 0 0 2400
2  44 16 0 0 2400
0

0101000
+252 0 -251 0 *
Ed
 1.00005000000001e-07 1 1 0
1  23 0 0 3250
2  45 14 0 0 3250
2  46 17 0 0 3250
0

0101000
+255 0 -252 0 *
Ed
 1.00005000000001e-07 1 1 0
1  24 0 0 3250
2  47 14 9 0 3250
2  48 3 9 0 3250
0

0101000
+254 9 -251 9 *
Wi

0101000
+253 0 -250 0 -249 0 +248 8 *
Fa
0  1.00005e-07 14 0

0101000
+247 0 *
Ve
1.00005000000001e-07
13300 4900 0
0 0

0101101
*
Ve
1.00005000000001e-07
13300 4900 2400
0 0

0101101
*
Ed
 1.00005e-07 1 1 0
1  25 0 0 2400
2  49 15 0 0 2400
2  50 18 0 0 2400
0

0101000
+245 0 -244 0 *
Ed
 1.00005000000001e-07 1 1 0
1  26 0 0 100
2  51 15 0 0 100
2  52 17 0 0 100
0

0101000
+255 0 -245 0 *
Ed
 1.00005000000001e-07 1 1 0
1  27 0 0 100
2  53 15 9 0 100
2  54 3 9 0 100
0

0101000
+254 9 -244 9 *
Wi

0101000
+253 0 -243 0 -242 0 +241 8 *
Fa
0  1.00005e-07 15 0

0101000
+240 0 *
Ve
1.00005e-07
10050 5300 0
0 0

0101101
*
Ve
1.00005000000001e-07
10050 5300 2400
0 0

0101101
*
Ed
 1.00005e-07 1 1 0
1  28 0 0 2400
2  55 16 0 0 2400
2  56 19 0 0 2400
0

0101000
+238 0 -237 0 *
Ed
 1.00005000000001e-07 1 1 0
1  29 0 0 500
2  57 16 9 0 500
2  58 3 9 0 500
0

0101000
+251 9 -237 9 *
Ed
 1.00005e-07 1 1 0
1  30 0 0 500
2  59 16 0 0 500
2  60 17 0 0 500
0

0101000
+252 0 -238 0 *
Wi

0101000
-236 0 +235 8 +250 0 -234 0 *
Fa
0  1.00005e-07 16 0

0101000
+233 0 *
Ve
1.00005000000001e-07
10150 4900 0
0 0

0101101
*
Ve
1.00005000000001e-07
10150 4900 2400
0 0

0101101
*
Ed
 1.00005e-07 1 1 0
1  31 0 0 2400
2  61 18 0 0 2400
2  62 20 0 0 2400
0

0101000
+231 0 -230 0 *
Ed
 1.00005000000001e-07 1 1 0
1  32 0 0 3150
2  63 18 0 0 3150
2  64 17 0 0 3150
0

0101000
+245 0 -231 0 *
Ed
 1.00005000000001e-07 1 1 0
1  33 0 0 3150
2  65 18 9 0 3150
2  66 3 9 0 3150
0

0101000
+244 9 -230 9 *
Wi

0101000
+243 0 -229 0 -228 0 +227 8 *
Fa
0  1.00005e-07 18 0

0101000
+226 0 *
Ve
1.00005e-07
9170 5300 0
0 0

0101101
*
Ed
 1.00005e-07 1 1 0
1  34 0 50 930
2  67 19 0 50 930
2  68 17 0 50 930
0

0101000
+238 0 -224 0 *
Ve
1e-07
9170 5300 2100
0 0

0101101
*
Ed
 1e-07 1 1 0
1  35 0 0 2100
2  69 19 13 0 2100
2  70 21 13 0 2100
0

0101000
+222 13 -224 13 *
Ve
1e-07
8350 5300 2100
0 0

0101101
*
Ed
 1e-07 1 1 0
1  36 0 0 820
2  71 19 13 0 820
2  72 22 13 0 820
0

0101000
+220 13 -222 13 *
Ve
1.00005000000001e-07
8350 5300 0
0 0

0101101
*
Ed
 1e-07 1 1 0
1  37 0 0 2100
2  73 19 13 0 2100
2  74 23 13 0 2100
0

0101000
+218 13 -220 13 *
Ve
1.00005000000001e-07
8250 5300 0
0 0

0101101
*
Ed
 1.00005000000001e-07 1 1 0
1  38 0 1750 1850
2  75 19 0 1750 1850
2  76 5 0 1750 1850
0

0101000
+218 0 -216 0 *
Ve
1.00005000000001e-07
8250 5300 2400
0 0

0101101
*
Ed
 1.00005e-07 1 1 0
1  39 0 0 2400
2  77 19 0 0 2400
2  78 24 0 0 2400
0

0101000
+216 0 -214 0 *
Ed
 1.00005000000001e-07 1 1 0
1  40 0 50 1850
2  79 19 15 50 1850
2  80 3 15 50 1850
0

0101000
+237 15 -214 15 *
Wi

0101000
-223 0 +221 12 +219 12 +217 12 -215 0 -213 0 +212 14 +236 0 *
Fa
0  1.00005e-07 19 0

0101000
+211 0 *
Ve
1.00005000000001e-07
10150 7550 0
0 0

0101101
*
Ve
1.00005000000001e-07
10150 7550 2400
0 0

0101101
*
Ed
 1.00005e-07 1 1 0
1  41 0 0 2400
2  81 20 0 0 2400
2  82 25 0 0 2400
0

0101000
+209 0 -208 0 *
Ed
 1.00005000000001e-07 1 1 0
1  42 0 0 2650
2  83 20 0 0 2650
2  84 17 0 0 2650
0

0101000
+231 0 -209 0 *
Ed
 1.00005000000001e-07 1 1 0
1  43 0 0 2650
2  85 20 9 0 2650
2  86 3 9 0 2650
0

0101000
+230 9 -208 9 *
Wi

0101000
+229 0 -207 0 -206 0 +205 8 *
Fa
0  1.00005e-07 20 0

0101000
+204 0 *
Ve
1.00005e-07
10050 5400 0
0 0

0101101
*
Ve
1.00005000000001e-07
10050 7550 0
0 0

0101101
*
Ed
 1.00005e-07 1 1 0
1  44 0 600 2750
2  87 26 0 600 2750
2  88 17 0 600 2750
0

0101000
+202 0 -201 0 *
Ve
1.00005000000001e-07
10050 7550 2400
0 0

0101101
*
Ed
 1.00005e-07 1 1 0
1  45 0 0 2400
2  89 26 0 0 2400
2  90 25 0 0 2400
0

0101000
+201 0 -199 0 *
Ve
1.00005000000001e-07
10050 5400 2400
0 0

0101101
*
Ed
 1.00005000000001e-07 1 1 0
1  46 0 600 2750
2  91 26 9 600 2750
2  92 3 9 600 2750
0

0101000
+197 9 -199 9 *
Ed
 1.00005e-07 1 1 0
1  47 0 0 2400
2  93 26 0 0 2400
2  94 27 0 0 2400
0

0101000
+202 0 -197 0 *
Wi

0101000
-200 0 -198 0 +196 8 +195 0 *
Fa
0  1.00005e-07 26 0

0101000
+194 0 *
Ed
 1.00005000000001e-07 1 1 0
1  48 0 0 100
2  95 25 0 0 100
2  96 17 0 0 100
0

0101000
+201 0 -209 0 *
Ed
 1.00005000000001e-07 1 1 0
1  49 0 0 100
2  97 25 9 0 100
2  98 3 9 0 100
0

0101000
+199 9 -208 9 *
Wi

0101000
+198 0 -207 0 -192 0 +191 8 *
Fa
0  1.00005e-07 25 0

0101000
+190 0 *
Ve
2.00006e-07
9170 5400 2100
0 0

0101101
*
Ed
 1e-07 1 1 0
1  50 0 0 99.9999999999999
2  99 21 0 0 99.9999999999999
2  100 22 0 0 99.9999999999999
0

0101000
+222 0 -188 0 *
Ve
1.00005e-07
9170 5400 0
0 0

0101101
*
Ed
 1.00005e-07 1 1 0
1  51 0 0 100
2  101 21 0 0 100
2  102 17 0 0 100
0

0101000
+224 0 -186 0 *
Ed
 1.00005e-07 1 1 0
1  52 0 -1050 1050
2  103 21 0 -1050 1050
2  104 27 0 -1050 1050
0

0101000
+188 0 -186 0 *
Wi

0101000
+187 0 -221 12 -185 0 +184 0 *
Fa
0  1e-07 21 0

0101000
+183 0 *
Ve
2.00006e-07
8350 5400 2100
0 0

0101101
*
Ed
 1e-07 1 1 0
1  53 0 0 99.9999999999999
2  105 22 0 0 99.9999999999999
2  106 23 0 0 99.9999999999999
0

0101000
+220 0 -181 0 *
Ed
 1.00005e-07 1 1 0
1  54 0 -875 -55
2  107 22 0 -875 -55
2  108 27 0 -875 -55
0

0101000
+181 0 -188 0 *
Wi

0101000
+180 0 -219 12 -187 0 +179 0 *
Fa
0  1e-07 22 0

0101000
+178 0 *
Ve
1.00005000000001e-07
8350 5400 0
0 0

0101101
*
Ed
 1.00005000000001e-07 1 1 0
1  55 0 0 100
2  109 23 0 0 100
2  110 5 0 0 100
0

0101000
+218 0 -176 0 *
Ed
 1.00005e-07 1 1 0
1  56 0 0 2100
2  111 23 0 0 2100
2  112 27 0 0 2100
0

0101000
+176 0 -181 0 *
Wi

0101000
+175 0 -217 12 -180 0 +174 0 *
Fa
0  1e-07 23 0

0101000
+173 0 *
Ve
1.00005000000001e-07
8250 4800 2400
0 0

0101101
*
Ed
 1.00005000000001e-07 1 1 0
1  57 0 0 500
2  113 24 2 0 500
2  114 3 2 0 500
0

0101000
+171 2 -214 2 *
Ve
1.00005000000001e-07
8250 4800 0
0 0

0101101
*
Ed
 1.00005e-07 1 1 0
1  58 0 0 2400
2  115 24 0 0 2400
2  116 28 0 0 2400
0

0101000
+169 0 -171 0 *
Ed
 1.00005000000001e-07 1 1 0
1  59 0 0 500
2  117 24 0 0 500
2  118 5 0 0 500
0

0101000
+169 0 -216 0 *
Wi

0101000
-213 0 +170 1 +168 0 -167 0 *
Fa
0  1.00005e-07 24 0

0101000
+166 0 *
Ve
1.00005000000001e-07
8250 5400 0
0 0

0101101
*
Ed
 1.00005000000001e-07 1 1 0
1  60 0 1750 1850
2  119 27 0 1750 1850
2  120 5 0 1750 1850
0

0101000
+176 0 -164 0 *
Ve
1.00005000000001e-07
8250 5400 2400
0 0

0101101
*
Ed
 1.00005e-07 1 1 0
1  61 0 0 2400
2  121 27 0 0 2400
2  122 29 0 0 2400
0

0101000
+164 0 -162 0 *
Ed
 1.00005000000001e-07 1 1 0
1  62 0 50 1850
2  123 27 15 50 1850
2  124 3 15 50 1850
0

0101000
+197 15 -162 15 *
Ed
 1.00005e-07 1 1 0
1  63 0 50 930
2  125 27 0 50 930
2  126 17 0 50 930
0

0101000
+202 0 -186 0 *
Wi

0101000
+174 0 -163 0 -161 0 +160 14 +195 0 -159 0 +184 0 +179 0 *
Fa
0  1.00005e-07 27 0

0101000
+158 0 *
Ve
1.00005000000001e-07
5050 4800 0
0 0

0101101
*
Ve
1.00005000000001e-07
5050 4800 2400
0 0

0101101
*
Ed
 1.00005e-07 1 1 0
1  64 0 0 2400
2  127 28 0 0 2400
2  128 13 0 0 2400
0

0101000
+156 0 -155 0 *
Ed
 1.00005000000001e-07 1 1 0
1  65 0 0 3200
2  129 28 0 0 3200
2  130 5 0 0 3200
0

0101000
+156 0 -169 0 *
Ed
 1.00005000000001e-07 1 1 0
1  66 0 0 3200
2  131 28 2 0 3200
2  132 3 2 0 3200
0

0101000
+155 2 -171 2 *
Wi

0101000
+154 0 -168 0 -153 0 +152 1 *
Fa
0  1.00005e-07 28 0

0101000
+151 0 *
Ve
1.00005e-07
8250 6670 0
0 0

0101101
*
Ve
2.00006e-07
8250 6670 2100
0 0

0101101
*
Ed
 1.00005e-07 1 1 0
1  67 0 -1050 1050
2  133 29 0 -1050 1050
2  134 30 0 -1050 1050
0

0101000
+149 0 -148 0 *
Ve
1.00005000000001e-07
8250 7550 0
0 0

0101101
*
Ed
 1.00005e-07 1 1 0
1  68 0 1870 2750
2  135 29 0 1870 2750
2  136 31 0 1870 2750
0

0101000
+149 0 -146 0 *
Ve
1.00005000000001e-07
8250 7550 2400
0 0

0101101
*
Ed
 1.00005e-07 1 1 0
1  69 0 0 2400
2  137 29 0 0 2400
2  138 32 0 0 2400
0

0101000
+146 0 -144 0 *
Ed
 1.00005000000001e-07 1 1 0
1  70 0 600 2750
2  139 29 2 600 2750
2  140 3 2 600 2750
0

0101000
+162 2 -144 2 *
Ve
1.00005000000001e-07
8250 5850 0
0 0

0101101
*
Ed
 1.00005000000001e-07 1 1 0
1  71 0 600 1050
2  141 29 0 600 1050
2  142 5 0 600 1050
0

0101000
+164 0 -141 0 *
Ve
2.00006e-07
8250 5850 2100
0 0

0101101
*
Ed
 1.00005e-07 1 1 0
1  72 0 -2100 0
2  143 29 0 -2100 0
2  144 33 0 -2100 0
0

0101000
+139 0 -141 0 *
Ed
 1.00005e-07 1 1 0
1  73 0 -1345 -525
2  145 29 0 -1345 -525
2  146 34 0 -1345 -525
0

0101000
+148 0 -139 0 *
Wi

0101000
+147 0 -145 0 -143 0 +142 1 +161 0 -140 0 +138 0 +137 0 *
Fa
0  1.00005e-07 29 0

0101000
+136 0 *
Ve
1.00005000000001e-07
5050 6200 2400
0 0

0101101
*
Ve
1.00005000000001e-07
5050 6200 0
0 0

0101101
*
Ed
 1.00005e-07 1 1 0
1  74 0 -2400 0
2  147 13 0 -2400 0
2  148 35 0 -2400 0
0

0101000
+134 0 -133 0 *
Ve
1.00005000000001e-07
5050 6145 0
0 0

0101101
*
Ed
 1.00005000000001e-07 1 1 0
1  75 0 1350 1405
2  149 13 0 1350 1405
2  150 8 0 1350 1405
0

0101000
+133 0 -131 0 *
Ve
1e-07
5050 6145 2100
0 0

0101101
*
Ed
 1e-07 1 1 0
1  76 0 0 2100
2  151 13 7 0 2100
2  152 9 7 0 2100
0

0101000
+129 7 -131 7 *
Ed
 1e-07 1 1 0
1  77 0 0 820
2  153 13 7 0 820
2  154 10 7 0 820
0

0101000
+262 7 -129 7 *
Ed
 1.00005000000001e-07 1 1 0
1  78 0 2225 2750
2  155 13 0 2225 2750
2  156 5 0 2225 2750
0

0101000
+260 0 -156 0 *
Ed
 1.00005000000001e-07 1 1 0
1  79 0 1350 2750
2  157 13 2 1350 2750
2  158 3 2 1350 2750
0

0101000
+134 2 -155 2 *
Wi

0101000
-132 0 -130 0 +128 6 +127 6 +259 6 -126 0 -154 0 +125 1 *
Fa
0  1.00005e-07 13 0

0101000
+124 0 *
Ve
1.00005000000001e-07
8150 7550 0
0 0

0101101
*
Ve
1.00005000000001e-07
8150 7550 2400
0 0

0101101
*
Ed
 1.00005e-07 1 1 0
1  80 0 0 2400
2  159 32 0 0 2400
2  160 36 0 0 2400
0

0101000
+122 0 -121 0 *
Ed
 1.00005000000001e-07 1 1 0
1  81 0 0 100
2  161 32 0 0 100
2  162 31 0 0 100
0

0101000
+122 0 -146 0 *
Ed
 1.00005000000001e-07 1 1 0
1  82 0 0 100
2  163 32 2 0 100
2  164 3 2 0 100
0

0101000
+121 2 -144 2 *
Wi

0101000
+120 0 -143 0 -119 0 +118 1 *
Fa
0  1.00005e-07 32 0

0101000
+117 0 *
Ve
1.00005000000001e-07
8150 4900 0
0 0

0101101
*
Ve
1.00005000000001e-07
8150 5850 0
0 0

0101101
*
Ed
 1.00005000000001e-07 1 1 0
1  83 0 0 950
2  165 36 0 0 950
2  166 5 0 0 950
0

0101000
+115 0 -114 0 *
Ve
1e-07
8150 5850 2100
0 0

0101101
*
Ed
 1e-07 1 1 0
1  84 0 0 2100
2  167 36 20 0 2100
2  168 33 20 0 2100
0

0101000
+114 20 -112 20 *
Ve
1e-07
8150 6670 2100
0 0

0101101
*
Ed
 1e-07 1 1 0
1  85 0 0 820
2  169 36 20 0 820
2  170 34 20 0 820
0

0101000
+112 20 -110 20 *
Ve
1e-07
8150 6670 0
0 0

0101101
*
Ed
 1e-07 1 1 0
1  86 0 0 2100
2  171 36 20 0 2100
2  172 30 20 0 2100
0

0101000
+110 20 -108 20 *
Ed
 1.00005e-07 1 1 0
1  87 0 1770 2650
2  173 36 0 1770 2650
2  174 31 0 1770 2650
0

0101000
+108 0 -122 0 *
Ve
1.00005000000001e-07
8150 4900 2400
0 0

0101101
*
Ed
 1.00005000000001e-07 1 1 0
1  88 0 0 2650
2  175 36 2 0 2650
2  176 3 2 0 2650
0

0101000
+105 2 -121 2 *
Ed
 1.00005e-07 1 1 0
1  89 0 0 2400
2  177 36 0 0 2400
2  178 37 0 0 2400
0

0101000
+115 0 -105 0 *
Wi

0101000
-113 0 -111 19 -109 19 -107 19 -106 0 -120 0 +104 1 +103 0 *
Fa
0  1.00005e-07 36 0

0101000
+102 0 *
Ve
1.00005000000001e-07
7050 4900 0
0 0

0101101
*
Ed
 1.00005000000001e-07 1 1 0
1  90 0 1900 3000
2  179 37 0 1900 3000
2  180 5 0 1900 3000
0

0101000
+100 0 -115 0 *
Ve
1.00005000000001e-07
7050 4900 2400
0 0

0101101
*
Ed
 1.00005000000001e-07 1 1 0
1  91 0 1900 3000
2  181 37 2 1900 3000
2  182 3 2 1900 3000
0

0101000
+98 2 -105 2 *
Ed
 1.00005e-07 1 1 0
1  92 0 0 2400
2  183 37 0 0 2400
2  184 38 0 0 2400
0

0101000
+100 0 -98 0 *
Wi

0101000
-99 0 -103 0 +97 1 +96 0 *
Fa
0  1.00005e-07 37 0

0101000
+95 0 *
Ed
 1e-07 1 1 0
1  93 0 99.9999999999994 200
2  185 33 0 99.9999999999994 200
2  186 34 0 99.9999999999994 200
0

0101000
+139 0 -112 0 *
Ed
 1.00005000000001e-07 1 1 0
1  94 0 100 200
2  187 33 0 100 200
2  188 5 0 100 200
0

0101000
+141 0 -114 0 *
Wi

0101000
-93 0 +111 19 +92 0 +138 0 *
Fa
0  1e-07 33 0

0101000
+91 0 *
Ed
 1e-07 1 1 0
1  95 0 100 200
2  189 30 0 100 200
2  190 31 0 100 200
0

0101000
+149 0 -108 0 *
Ed
 1e-07 1 1 0
1  96 0 100 200
2  191 30 0 100 200
2  192 34 0 100 200
0

0101000
+148 0 -110 0 *
Wi

0101000
-89 0 +107 19 +88 0 +147 0 *
Fa
0  1e-07 30 0

0101000
+87 0 *
Wi

0101000
+89 0 -145 0 +119 0 +106 0 *
Fa
0  1e-07 31 0

0101000
+85 0 *
Wi

0101000
-88 0 +109 19 +93 0 +137 0 *
Fa
0  1e-07 34 0

0101000
+83 0 *
Ve
1.00005000000001e-07
5000 6300 0
0 0

0101101
*
Ed
 1.00005000000001e-07 1 1 0
1  97 0 50 100
2  193 12 0 50 100
2  194 8 0 50 100
0

0101000
+267 0 -81 0 *
Ve
1e-07
5000 6300 2100
0 0

0101101
*
Ed
 1e-07 1 1 0
1  98 0 0 2100
2  195 12 25 0 2100
2  196 39 25 0 2100
0

0101000
+79 25 -81 25 *
Ve
1e-07
4180 6300 2100
0 0

0101101
*
Ed
 1e-07 1 1 0
1  99 0 0 820
2  197 12 25 0 820
2  198 40 25 0 820
0

0101000
+77 25 -79 25 *
Ve
1e-07
4180 6300 0
0 0

0101101
*
Ed
 1e-07 1 1 0
1  100 0 0 2100
2  199 12 25 0 2100
2  200 41 25 0 2100
0

0101000
+75 25 -77 25 *
Ve
1.00005000000001e-07
3950 6300 0
0 0

0101101
*
Ed
 1.00005e-07 1 1 0
1  101 0 920 1150
2  201 12 0 920 1150
2  202 42 0 920 1150
0

0101000
+75 0 -73 0 *
Ve
1.00005000000001e-07
3950 6300 2400
0 0

0101101
*
Ed
 1.00005e-07 1 1 0
1  102 0 0 2400
2  203 12 0 0 2400
2  204 43 0 0 2400
0

0101000
+73 0 -71 0 *
Ed
 1.00005000000001e-07 1 1 0
1  103 0 50 1150
2  205 12 27 50 1150
2  206 3 27 50 1150
0

0101000
+269 27 -71 27 *
Wi

0101000
-265 0 -80 0 +78 24 +76 24 +74 24 -72 0 -70 0 +69 26 *
Fa
0  1.00005e-07 12 0

0101000
+68 0 *
Ve
1.00005e-07
4180 6200 0
0 0

0101101
*
Ve
2.00006e-07
4180 6200 2100
0 0

0101101
*
Ed
 1.00005e-07 1 1 0
1  104 0 0 2100
2  207 35 0 0 2100
2  208 41 0 0 2100
0

0101000
+66 0 -65 0 *
Ve
1.00005000000001e-07
3950 6200 0
0 0

0101101
*
Ed
 1.00005e-07 1 1 0
1  105 0 920 1150
2  209 35 0 920 1150
2  210 42 0 920 1150
0

0101000
+66 0 -63 0 *
Ve
1.00005000000001e-07
3950 6200 2400
0 0

0101101
*
Ed
 1.00005e-07 1 1 0
1  106 0 0 2400
2  211 35 0 0 2400
2  212 43 0 0 2400
0

0101000
+63 0 -61 0 *
Ed
 1.00005000000001e-07 1 1 0
1  107 0 50 1150
2  213 35 27 50 1150
2  214 3 27 50 1150
0

0101000
+134 27 -61 27 *
Ve
1.00005000000001e-07
5000 6200 0
0 0

0101101
*
Ed
 1.00005000000001e-07 1 1 0
1  108 0 50 100
2  215 35 0 50 100
2  216 8 0 50 100
0

0101000
+133 0 -58 0 *
Ve
2.00006e-07
5000 6200 2100
0 0

0101101
*
Ed
 1.00005e-07 1 1 0
1  109 0 -1050 1050
2  217 35 0 -1050 1050
2  218 39 0 -1050 1050
0

0101000
+56 0 -58 0 *
Ed
 1.00005e-07 1 1 0
1  110 0 -460 360
2  219 35 0 -460 360
2  220 40 0 -460 360
0

0101000
+65 0 -56 0 *
Wi

0101000
+64 0 -62 0 -60 0 +59 26 -132 0 -57 0 +55 0 +54 0 *
Fa
0  1.00005e-07 35 0

0101000
+53 0 *
Ed
 1.00005000000001e-07 1 1 0
1  111 0 100 200
2  221 9 0 100 200
2  222 8 0 100 200
0

0101000
+283 0 -131 0 *
Ed
 1e-07 1 1 0
1  112 0 99.9999999999999 200
2  223 9 0 99.9999999999999 200
2  224 10 0 99.9999999999999 200
0

0101000
+281 0 -129 0 *
Wi

0101000
-280 0 -51 0 +128 6 +50 0 *
Fa
0  1e-07 9 0

0101000
+49 0 *
Wi

0101000
-279 0 -50 0 +127 6 +261 0 *
Fa
0  1e-07 10 0

0101000
+47 0 *
Ve
1.00005000000001e-07
7050 7550 0
0 0

0101101
*
Ed
 1.00005000000001e-07 1 1 0
1  113 0 50 2700
2  225 38 0 50 2700
2  226 5 0 50 2700
0

0101000
+100 0 -45 0 *
Ve
1.00005000000001e-07
7050 7550 2400
0 0

0101101
*
Ed
 1.00005e-07 1 1 0
1  114 0 0 2400
2  227 38 0 0 2400
2  228 44 0 0 2400
0

0101000
+45 0 -43 0 *
Ed
 1.00005000000001e-07 1 1 0
1  115 0 50 2700
2  229 38 29 50 2700
2  230 3 29 50 2700
0

0101000
+98 29 -43 29 *
Wi

0101000
-44 0 -42 0 +41 28 +96 0 *
Fa
0  1.00005e-07 38 0

0101000
+40 0 *
Ve
1.00005000000001e-07
6950 7550 0
0 0

0101101
*
Ed
 1.00005000000001e-07 1 1 0
1  116 0 50 2700
2  231 2 0 50 2700
2  232 5 0 50 2700
0

0101000
+301 0 -38 0 *
Ve
1.00005000000001e-07
6950 7550 2400
0 0

0101101
*
Ed
 1.00005e-07 1 1 0
1  117 0 0 2400
2  233 2 0 0 2400
2  234 44 0 0 2400
0

0101000
+38 0 -36 0 *
Ed
 1.00005000000001e-07 1 1 0
1  118 0 50 2700
2  235 2 29 50 2700
2  236 3 29 50 2700
0

0101000
+300 29 -36 29 *
Wi

0101000
-37 0 -35 0 +34 28 +299 0 *
Fa
0  1.00005e-07 2 0

0101000
+33 0 *
Ed
 1.00005000000001e-07 1 1 0
1  119 0 100 200
2  237 39 0 100 200
2  238 8 0 100 200
0

0101000
+58 0 -81 0 *
Ed
 1e-07 1 1 0
1  120 0 99.9999999999999 200
2  239 39 0 99.9999999999999 200
2  240 40 0 99.9999999999999 200
0

0101000
+56 0 -79 0 *
Wi

0101000
-55 0 -31 0 +78 24 +30 0 *
Fa
0  1e-07 39 0

0101000
+29 0 *
Ed
 1e-07 1 1 0
1  121 0 100 200
2  241 40 0 100 200
2  242 41 0 100 200
0

0101000
+65 0 -77 0 *
Wi

0101000
-54 0 -30 0 +76 24 +27 0 *
Fa
0  1e-07 40 0

0101000
+26 0 *
Ed
 1e-07 1 1 0
1  122 0 100 200
2  243 41 0 100 200
2  244 42 0 100 200
0

0101000
+66 0 -75 0 *
Wi

0101000
-64 0 -27 0 +74 24 +24 0 *
Fa
0  1e-07 41 0

0101000
+23 0 *
Ed
 1.00005000000001e-07 1 1 0
1  123 0 0 100
2  245 42 0 0 100
2  246 43 0 0 100
0

0101000
+73 0 -63 0 *
Wi

0101000
-72 0 -21 0 +62 0 -24 0 *
Fa
0  1e-07 42 0

0101000
+20 0 *
Ed
 1.00005000000001e-07 1 1 0
1  124 0 0 100
2  247 43 27 0 100
2  248 3 27 0 100
0

0101000
+71 27 -61 27 *
Wi

0101000
+70 0 -60 0 -21 0 +18 26 *
Fa
0  1.00005e-07 43 0

0101000
+17 0 *
Ed
 1.00005000000001e-07 1 1 0
1  125 0 0 100
2  249 44 0 0 100
2  250 5 0 0 100
0

0101000
+45 0 -38 0 *
Ed
 1.00005000000001e-07 1 1 0
1  126 0 0 100
2  251 44 29 0 100
2  252 3 29 0 100
0

0101000
+43 29 -36 29 *
Wi

0101000
+42 0 -35 0 -15 0 +14 28 *
Fa
0  1.00005e-07 44 0

0101000
+13 0 *
Wi

0101100
+249 0 +234 0 +223 0 +185 0 -159 0 +200 0 +192 0 -206 0 -228 0 -242 0 
*
Fa
0  1.00005e-07 17 0

0101000
-11 0 *
Wi

0101100
-163 0 -175 0 +215 0 -167 0 -153 0 -126 0 -258 0 +288 0 +294 0 +37 0 
-15 0 -44 0 +99 0 +113 0 -92 0 -140 0 *
Fa
0  1.00005000000001e-07 5 0

0101000
+9 0 *
Wi

0101100
-273 0 +282 0 +51 0 -130 0 +57 0 +31 0 -80 0 -266 0 *
Fa
0  1.00005000000001e-07 8 0

0101000
+7 0 *
Wi

0101100
-248 8 +241 8 +227 8 +205 8 -191 8 -196 8 +160 14 +142 1 -118 1 -104 1 
-97 1 +41 28 +14 28 -34 28 -297 1 -286 1 +272 1 +268 1 +69 26 +18 26 
-59 26 +125 1 +152 1 +170 1 -212 14 -235 8 *
Fa
0  1.00005000000001e-07 3 0

0101000
+5 0 *
Sh

0101100
+292 0 +277 0 -270 0 -263 0 +256 0 +246 0 -239 0 +232 0 -225 0 +210 0 
-203 0 +193 0 +189 0 +182 0 +177 0 +172 0 -165 0 -157 0 -150 0 -135 0 
-123 0 +116 0 +101 0 +94 0 +90 0 +86 0 +84 0 +82 0 -67 0 +52 0 
+48 0 +46 0 -39 0 +32 0 +28 0 +25 0 +22 0 +19 0 -16 0 -12 0 
-10 0 +8 0 +6 0 +4 0 *
So

0100000
+3 0 *
Co

1100000
+2 0 *

+1 0 