DBRep_DrawableShape

CASCADE Topology V1, (c) Matra-Datavision
Locations 5
1
              1               0               0               0 
              0               1               0               0 
              0               0               1               0 
2  1 -1 0
1
              1               0               0               0 
              0               1               0               0 
              0               0               1             200 
2  1 1 3 1 0
2  3 -1 1 -1 0
Curve2ds 72
1 0 0 0 -1 
1 24.999999999999801 0 0 -1 
1 2.2215538223470581 0 0 -1 
1 3.1415930782863795 0 0 -1 
1 0 0 1 0 
1 0 0 0 1 
1 0 -200 1 0 
1 0 0 0 1 
1 0 -0 0 -1 
1 50 0 0 -1 
1 0 -0 1 0 
1 24.999999999999801 0 -1 0 
1 0 -200 1 0 
1 24.999999999999801 0 -1 0 
1 0 0 0 -1 
1 24.999999999972403 0 0 -1 
1 0 0 1 0 
1 24.999999999999801 50 0 -1 
1 0 -200 1 0 
1 24.999999999999801 50 0 -1 
1 0 0 0 -1 
1 0 0 0 -1 
1 0 0 1 0 
1 2.7398527890909463e-011 50 1 0 
1 0 -200 1 0 
1 2.7398527890909463e-011 50 1 0 
1 2.2215538223477296 0 0 -1 
1 3.1415883453042719 0 0 -1 
1 0 0 1 0 
1 2.7398527890909463e-011 50 0 -1 
1 0 -200 1 0 
1 2.7398527890909463e-011 50 0 -1 
1 4.6325596843430459 0 0 -1 
1 0 0 0 -1 
1 0 0 1 0 
2 3.009584522905925 47.778433211502843 1 0 -0 1 3.0095845229064508
1 0 -200 1 0 
2 3.009584522905925 47.778433211502843 1 0 -0 1 3.0095845229064508
1 11.74628528054369 0 0 -1 
1 1.4909676967720573 0 0 -1 
1 0 0 1 0 
1 2.7695866051593327 44.778433211503611 0.99681527739670095 -0.079745236525689087 
1 0 -200 1 0 
1 2.7695866051593327 44.778433211503611 0.99681527739670095 -0.079745236525689087 
1 1.2943189275915756e-007 0 0 -1 
1 0 0 0 -1 
1 0 0 1 0 
2 13.999999999999801 37.860830593638667 1 0 -0 1 6
1 0 -200 1 0 
2 13.999999999999801 37.860830593638667 1 0 -0 1 6
1 25.721671779906082 0 0 -1 
1 6.2831856191716522 0 0 -1 
1 0 0 1 0 
1 19.999999999999758 37.860831370230017 0 -1 
1 0 -200 1 0 
1 19.999999999999758 37.860831370230017 0 -1 
1 4.7922189059651918 0 0 -1 
1 11.746293606484919 0 0 -1 
1 0 0 1 0 
2 13.999999999999801 12.139157718371539 1 0 -0 1 6
1 0 -200 1 0 
2 13.999999999999801 12.139157718371539 1 0 -0 1 6
1 0 0 0 -1 
1 1.6506258064484343 0 0 -1 
1 0 0 1 0 
1 2.7695860543239093 5.2215550564400353 0.99681527739674103 0.079745236525188321 
1 0 -200 1 0 
1 2.7695860543239093 5.2215550564400353 0.99681527739674103 0.079745236525188321 
1 0 0 1 0 
2 3.0095845229061808 2.2215551005073308 1 0 -0 1 3.0095845229064508
1 0 -200 1 0 
2 3.0095845229061808 2.2215551005073308 1 0 -0 1 3.0095845229064508
Curves 36
1 84.0539491469589 27.214938949526729 0 0 0 1 
1 84.0539491469589 29.436492771873787 0 0 0 1 
1 84.0539491469589 27.214938949526729 0 0 1 0 
1 84.0539491469589 27.214938949526729 0 0 1 0 
1 109.0539491469587 27.214938949526726 0 0 0 1 
1 109.0539491469587 27.214938949526729 0 -1 0 0 
1 109.0539491469587 27.214938949526729 0 -1 0 0 
1 109.0539491469587 77.214938949526726 0 0 0 1 
1 109.0539491469587 77.214938949526726 0 0 -1 0 
1 109.0539491469587 77.214938949526726 0 0 -1 0 
1 84.053949146986298 77.214938949526726 0 0 0 1 
1 84.053949146986298 77.214938949526726 0 1 0 0 
1 84.053949146986298 77.214938949526726 0 1 0 0 
1 84.053949146986298 74.993385127178996 0 0 0 1 
1 84.053949146986298 77.214938949526726 0 0 -1 0 
1 84.053949146986298 77.214938949526726 0 0 -1 0 
1 86.823535752118232 71.993372161030337 0 0 0 1 
2 87.063533669864825 74.993372161029569 0 0 0 1 1 0 0 0 1 0 3.0095845229064548
2 87.063533669864825 74.993372161029569 0 0 0 1 1 0 0 0 1 0 3.0095845229064548
1 98.532412372424176 71.05666186303516 0 0 0 1 
1 86.823535752118232 71.993372161030337 0 0.99681527739670095 -0.079745236525689087 0 
1 86.823535752118232 71.993372161030337 0 0.99681527739670095 -0.079745236525689087 0 
1 104.05394914695866 65.075770319756742 0 0 0 1 
2 98.053949146958701 65.075769543165393 0 0 0 1 1 0 0 0 1 0 6.0000000000000018
2 98.053949146958701 65.075769543165393 0 0 0 1 1 0 0 0 1 0 6.0000000000000018
1 104.05394914695853 39.354098539850661 0 0 0 1 
1 104.05394914695866 65.075770319756742 0 0 -1 0 
1 104.05394914695866 65.075770319756742 0 0 -1 0 
1 98.532420121014638 33.373204967910212 0 0 0 1 
2 98.053949146958701 39.354096667898268 0 0 0 1 1 0 0 0 1 0 6.0000000000000018
2 98.053949146958701 39.354096667898268 0 0 0 1 1 0 0 0 1 0 6.0000000000000018
1 86.823535201282809 32.436494005966765 0 0 0 1 
1 86.823535201282809 32.436494005966765 0 0.99681527739674103 0.079745236525188321 0 
1 86.823535201282809 32.436494005966765 0 0.99681527739674103 0.079745236525188321 0 
2 87.06353366986508 29.43649405003406 0 0 0 1 1 0 0 0 1 0 3.0095845229064548
2 87.06353366986508 29.43649405003406 0 0 0 1 1 0 0 0 1 0 3.0095845229064548
Polygon3D 0
PolygonOnTriangulations 0
Surfaces 14
1 84.0539491469589 27.214938949526729 0 -1 0 0 0 1 0 0 0 -1 
1 109.0539491469587 27.214938949526729 0 0 -1 0 -1 0 0 -0 -0 -1 
2 87.06353366986508 29.43649405003406 0 -0 -0 -1 1 0 0 -0 1 -0 3.0095845229064548
1 84.0539491469589 27.214938949526729 0 0 0 1 1 0 -0 -0 1 0 
1 84.0539491469589 27.214938949526729 0 0 0 1 1 0 0 0 1 0 
1 109.0539491469587 77.214938949526726 0 1 0 -0 0 -1 0 0 -0 -1 
1 84.053949146986298 77.214938949526726 0 0 1 0 1 0 0 0 0 -1 
1 84.053949146986298 77.214938949526726 0 1 0 -0 0 -1 0 0 -0 -1 
2 87.063533669864825 74.993372161029569 0 -0 -0 -1 1 0 0 -0 1 -0 3.0095845229064548
1 86.823535752118232 71.993372161030337 0 0.079745236525689087 0.99681527739670095 -0 0.99681527739670095 -0.079745236525689087 0 0 -0 -1 
2 98.053949146958701 65.075769543165393 0 -0 -0 -1 1 0 0 -0 1 -0 6.0000000000000018
1 104.05394914695866 65.075770319756742 0 1 0 -0 0 -1 0 0 -0 -1 
2 98.053949146958701 39.354096667898268 0 -0 -0 -1 1 0 0 -0 1 -0 6.0000000000000018
1 86.823535201282809 32.436494005966765 0 -0.079745236525188321 0.99681527739674103 0 0.99681527739674103 0.079745236525188321 0 0 0 -1 
Triangulations 0

TShapes 90
Ve
1e-007
84.0539491469589 27.2149389495267 0
0 0

0101101
*
Ve
1e-007
84.0539491469589 27.2149389495267 200
0 0

0101101
*
Ed
 1e-007 1 1 0
1  1 0 0 200
2  1 1 0 0 200
2  2 2 0 0 200
0

0101000
+90 0 -89 0 *
Ve
1e-007
84.0539491469589 29.4364927718738 0
0 0

0101101
*
Ve
1e-007
84.0539491469589 29.4364927718738 200
0 0

0101101
*
Ed
 1e-007 1 1 0
1  2 0 0 200
2  3 1 0 0 200
2  4 3 0 0 200
4 G1 1 0 3 0
0

0101000
+87 0 -86 0 *
Ed
 1e-007 1 1 0
1  3 0 0 2.22155382234706
2  5 1 2 0 2.22155382234706
2  6 4 2 0 2.22155382234706
0

0101000
+90 2 -87 2 *
Ed
 1e-007 1 1 0
1  4 0 0 2.22155382234706
2  7 1 5 0 2.22155382234706
2  8 5 2 0 2.22155382234706
0

0101000
+89 5 -86 5 *
Wi

0101000
+88 0 -85 0 -84 1 +83 4 *
Fa
0  1e-007 1 0

0101000
+82 0 *
Ve
1.00000001776357e-007
109.053949146959 27.2149389495267 0
0 0

0101101
*
Ve
1.00000001776357e-007
109.053949146959 27.2149389495267 200
0 0

0101101
*
Ed
 1.00000001776357e-007 1 1 0
1  5 0 0 200
2  9 2 0 0 200
2  10 6 0 0 200
0

0101000
+80 0 -79 0 *
Ed
 1e-007 1 1 0
1  6 0 0 24.9999999999998
2  11 2 2 0 24.9999999999998
2  12 4 2 0 24.9999999999998
0

0101000
+80 2 -90 2 *
Ed
 1e-007 1 1 0
1  7 0 0 24.9999999999998
2  13 2 5 0 24.9999999999998
2  14 5 2 0 24.9999999999998
0

0101000
+79 5 -89 5 *
Wi

0101000
+78 0 -88 0 -77 1 +76 4 *
Fa
0  1e-007 2 0

0101000
+75 0 *
Ve
1e-007
109.053949146959 77.2149389495267 0
0 0

0101101
*
Ve
1e-007
109.053949146959 77.2149389495267 200
0 0

0101101
*
Ed
 1e-007 1 1 0
1  8 0 0 200
2  15 6 0 0 200
2  16 7 0 0 200
0

0101000
+73 0 -72 0 *
Ed
 1.00000001776357e-007 1 1 0
1  9 0 0 50
2  17 6 2 0 50
2  18 4 2 0 50
0

0101000
+73 2 -80 2 *
Ed
 1.00000001776357e-007 1 1 0
1  10 0 0 50
2  19 6 5 0 50
2  20 5 2 0 50
0

0101000
+72 5 -79 5 *
Wi

0101000
+71 0 -78 0 -70 1 +69 4 *
Fa
0  1e-007 6 0

0101000
+68 0 *
Ve
1e-007
84.0539491469863 77.2149389495267 0
0 0

0101101
*
Ve
1e-007
84.0539491469863 77.2149389495267 200
0 0

0101101
*
Ed
 1e-007 1 1 0
1  11 0 0 200
2  21 7 0 0 200
2  22 8 0 0 200
0

0101000
+66 0 -65 0 *
Ed
 1e-007 1 1 0
1  12 0 0 24.9999999999724
2  23 7 2 0 24.9999999999724
2  24 4 2 0 24.9999999999724
0

0101000
+66 2 -73 2 *
Ed
 1e-007 1 1 0
1  13 0 0 24.9999999999724
2  25 7 5 0 24.9999999999724
2  26 5 2 0 24.9999999999724
0

0101000
+65 5 -72 5 *
Wi

0101000
+64 0 -71 0 -63 1 +62 4 *
Fa
0  1e-007 7 0

0101000
+61 0 *
Ve
1e-007
84.0539491469863 74.993385127179 0
0 0

0101101
*
Ve
1e-007
84.0539491469863 74.993385127179 200
0 0

0101101
*
Ed
 1e-007 1 1 0
1  14 0 0 200
2  27 8 0 0 200
2  28 9 0 0 200
4 G1 8 0 9 0
0

0101000
+59 0 -58 0 *
Ed
 1e-007 1 1 0
1  15 0 0 2.22155382234773
2  29 8 2 0 2.22155382234773
2  30 4 2 0 2.22155382234773
0

0101000
+66 2 -59 2 *
Ed
 1e-007 1 1 0
1  16 0 0 2.22155382234773
2  31 8 5 0 2.22155382234773
2  32 5 2 0 2.22155382234773
0

0101000
+65 5 -58 5 *
Wi

0101000
+64 0 -57 0 -56 1 +55 4 *
Fa
0  1e-007 8 0

0101000
+54 0 *
Ve
1e-007
86.8235357521182 71.9933721610303 0
0 0

0101101
*
Ve
1e-007
86.8235357521182 71.9933721610303 200
0 0

0101101
*
Ed
 1e-007 1 1 0
1  17 0 0 200
2  33 9 0 0 200
2  34 10 0 0 200
4 G1 9 0 10 0
0

0101000
+52 0 -51 0 *
Ed
 1e-007 1 1 0
1  18 0 3.14158834530427 4.63255968434305
2  35 9 2 3.14158834530427 4.63255968434305
2  36 4 2 3.14158834530427 4.63255968434305
0

0101000
+59 2 -52 2 *
Ed
 1e-007 1 1 0
1  19 0 3.14158834530427 4.63255968434305
2  37 9 5 3.14158834530427 4.63255968434305
2  38 5 2 3.14158834530427 4.63255968434305
0

0101000
+58 5 -51 5 *
Wi

0101000
+57 0 -50 0 -49 1 +48 4 *
Fa
0  1e-007 9 0

0101000
+47 0 *
Ve
1e-007
98.5324123724242 71.0566618630352 0
0 0

0101101
*
Ve
1e-007
98.5324123724242 71.0566618630352 200
0 0

0101101
*
Ed
 1e-007 1 1 0
1  20 0 0 200
2  39 10 0 0 200
2  40 11 0 0 200
4 G1 10 0 11 0
0

0101000
+45 0 -44 0 *
Ed
 1e-007 1 1 0
1  21 0 0 11.7462852805437
2  41 10 2 0 11.7462852805437
2  42 4 2 0 11.7462852805437
0

0101000
+52 2 -45 2 *
Ed
 1e-007 1 1 0
1  22 0 0 11.7462852805437
2  43 10 5 0 11.7462852805437
2  44 5 2 0 11.7462852805437
0

0101000
+51 5 -44 5 *
Wi

0101000
+50 0 -43 0 -42 1 +41 4 *
Fa
0  1e-007 10 0

0101000
+40 0 *
Ve
1e-007
104.053949146959 65.0757703197567 0
0 0

0101101
*
Ve
1e-007
104.053949146959 65.0757703197567 200
0 0

0101101
*
Ed
 1e-007 1 1 0
1  23 0 0 200
2  45 11 0 0 200
2  46 12 0 0 200
4 G1 11 0 12 0
0

0101000
+38 0 -37 0 *
Ed
 1e-007 1 1 0
1  24 0 1.29431892759158e-007 1.49096769677206
2  47 11 2 1.29431892759158e-007 1.49096769677206
2  48 4 2 1.29431892759158e-007 1.49096769677206
0

0101000
+38 2 -45 2 *
Ed
 1e-007 1 1 0
1  25 0 1.29431892759158e-007 1.49096769677206
2  49 11 5 1.29431892759158e-007 1.49096769677206
2  50 5 2 1.29431892759158e-007 1.49096769677206
0

0101000
+37 5 -44 5 *
Wi

0101000
+36 0 -43 0 -35 1 +34 4 *
Fa
0  1e-007 11 0

0101000
+33 0 *
Ve
1.00000120792265e-007
104.053949146959 39.3540985398507 0
0 0

0101101
*
Ve
1.00000120792265e-007
104.053949146959 39.3540985398507 200
0 0

0101101
*
Ed
 1.00000120792265e-007 1 1 0
1  26 0 0 200
2  51 12 0 0 200
2  52 13 0 0 200
4 G1 12 0 13 0
0

0101000
+31 0 -30 0 *
Ed
 1.00000120792265e-007 1 1 0
1  27 0 0 25.7216717799061
2  53 12 2 0 25.7216717799061
2  54 4 2 0 25.7216717799061
0

0101000
+38 2 -31 2 *
Ed
 1.00000120792265e-007 1 1 0
1  28 0 0 25.7216717799061
2  55 12 5 0 25.7216717799061
2  56 5 2 0 25.7216717799061
0

0101000
+37 5 -30 5 *
Wi

0101000
+36 0 -29 0 -28 1 +27 4 *
Fa
0  1e-007 12 0

0101000
+26 0 *
Ve
1e-007
98.5324201210146 33.3732049679102 0
0 0

0101101
*
Ve
1e-007
98.5324201210146 33.3732049679102 200
0 0

0101101
*
Ed
 1e-007 1 1 0
1  29 0 0 200
2  57 13 0 0 200
2  58 14 0 0 200
4 G1 13 0 14 0
0

0101000
+24 0 -23 0 *
Ed
 1.00000120792265e-007 1 1 0
1  30 0 4.79221890596519 6.28318561917165
2  59 13 2 4.79221890596519 6.28318561917165
2  60 4 2 4.79221890596519 6.28318561917165
0

0101000
+24 2 -31 2 *
Ed
 1.00000120792265e-007 1 1 0
1  31 0 4.79221890596519 6.28318561917165
2  61 13 5 4.79221890596519 6.28318561917165
2  62 5 2 4.79221890596519 6.28318561917165
0

0101000
+23 5 -30 5 *
Wi

0101000
+22 0 -29 0 -21 1 +20 4 *
Fa
0  1e-007 13 0

0101000
+19 0 *
Ve
1e-007
86.8235352012828 32.4364940059668 0
0 0

0101101
*
Ve
1e-007
86.8235352012828 32.4364940059668 200
0 0

0101101
*
Ed
 1e-007 1 1 0
1  32 0 0 200
2  63 14 0 0 200
2  64 3 0 0 200
4 G1 14 0 3 0
0

0101000
+17 0 -16 0 *
Ed
 1e-007 1 1 0
1  33 0 0 11.7462936064849
2  65 14 2 0 11.7462936064849
2  66 4 2 0 11.7462936064849
0

0101000
+17 2 -24 2 *
Ed
 1e-007 1 1 0
1  34 0 0 11.7462936064849
2  67 14 5 0 11.7462936064849
2  68 5 2 0 11.7462936064849
0

0101000
+16 5 -23 5 *
Wi

0101000
+15 0 -22 0 -14 1 +13 4 *
Fa
0  1e-007 14 0

0101000
+12 0 *
Ed
 1e-007 1 1 0
1  35 0 1.65062580644843 3.14159307828638
2  69 3 2 1.65062580644843 3.14159307828638
2  70 4 2 1.65062580644843 3.14159307828638
0

0101000
+17 2 -87 2 *
Ed
 1e-007 1 1 0
1  36 0 1.65062580644843 3.14159307828638
2  71 3 5 1.65062580644843 3.14159307828638
2  72 5 2 1.65062580644843 3.14159307828638
0

0101000
+16 5 -86 5 *
Wi

0101000
+15 0 -85 0 -10 1 +9 4 *
Fa
0  1e-007 3 0

0101000
+8 0 *
Wi

0101100
-84 1 -77 1 -70 1 -63 1 +56 1 +49 1 +42 1 -35 1 +28 1 -21 1 
-14 1 +10 1 *
Fa
0  1e-007 4 0

0101000
+6 0 *
Wi

0101100
-83 1 -76 1 -69 1 -62 1 +55 1 +48 1 +41 1 -34 1 +27 1 -20 1 
-13 1 +9 1 *
Fa
0  1e-007 5 0

0101000
+4 0 *
Sh

0101000
-81 0 -74 0 -67 0 -60 0 +53 0 +46 0 +39 0 -32 0 +25 0 -18 0 
-11 0 +7 0 +5 0 -3 3 *
So

1100000
-2 0 *

+1 0 