DBRep_DrawableShape

CASCADE Topology V1, (c) Matra-Datavision
Locations 10
1
              1               0               0               0 
              0               1               0               0 
              0               0               1               0 
1
              1               0               0               0 
              0               1               0               0 
              0               0               1               0 
2  1 1 2 -1 0
2  2 1 1 -1 0
2  1 -1 0
1
              1               0               0               0 
              0               1               0               0 
              0               0               1             200 
2  1 1 2 -1 6 1 0
2  6 -1 2 1 1 -1 0
2  2 -1 0
2  2 -1 6 1 0
Curve2ds 72
1 4.7922193138141411 0 0 -1 
1 11.746298233579779 0 0 -1 
1 6.2831852687175997 0 0 -1 
1 25.721654692896223 0 0 -1 
1 0 0 1 0 
2 0.47847341335629778 5.9808915048436688 -1 0 0 1 6
1 0 -200 1 0 
2 0.47847341335629778 5.9808915048436688 -1 0 0 1 6
1 0 0 0 -1 
1 1.6506264365374259 0 0 -1 
1 0 0 1 0 
1 11.70888898859485 -0.9367181246040488 -0.99681523112720005 0.079745814892235742 
1 0 -200 1 0 
1 11.70888898859485 -0.9367181246040488 -0.99681523112720005 0.079745814892235742 
1 3.1415927489042454 0 0 -1 
1 2.2215663541817037 0 0 -1 
1 0 0 1 0 
2 11.46888860715417 -3.9367182117091879 -1 0 0 1 3.0095848062020991
1 0 -200 1 0 
2 11.46888860715417 -3.9367182117091879 -1 0 0 1 3.0095848062020991
1 0 0 0 -1 
1 25 0 0 -1 
1 0 0 1 0 
1 14.478473413356298 -6.1582848527478191 0 1 
1 0 -200 1 0 
1 14.478473413356298 -6.1582848527478191 0 1 
1 0 -0 0 -1 
1 50 0 0 -1 
1 0 -0 1 0 
1 -10.521526586643702 -6.1582848527478191 1 0 
1 0 -200 1 0 
1 -10.521526586643702 -6.1582848527478191 1 0 
1 0 0 0 -1 
1 25 0 0 -1 
1 0 0 1 0 
1 -10.521526586643702 43.841715147252181 0 -1 
1 0 -200 1 0 
1 -10.521526586643702 43.841715147252181 0 -1 
1 0 0 0 -1 
1 0 0 0 -1 
1 0 0 1 0 
1 14.478473413356298 43.841715147252181 -1 0 
1 0 -200 1 0 
1 14.478473413356298 43.841715147252181 -1 0 
1 2.2215663541817179 0 0 -1 
1 3.1415925961804083 0 0 -1 
1 0 0 1 0 
1 14.478473413356298 43.841715147252181 0 -1 
1 0 -200 1 0 
1 14.478473413356298 43.841715147252181 0 -1 
1 4.6325585077040312 0 0 -1 
1 -2.8331194169957829e-14 -0 0 -1 
1 0 0 1 0 
2 11.468888607154213 41.620148620292049 -1 0 0 1 3.0095848062020991
1 0 -200 1 0 
2 11.468888607154213 41.620148620292049 -1 0 0 1 3.0095848062020991
1 11.74629823357775 0 0 -1 
1 1.4909660845425849 0 0 -1 
1 0 0 1 0 
1 11.708890077409265 38.620148620292049 -0.99681527739674414 -0.079745236525150406 
1 0 -200 1 0 
1 11.708890077409265 38.620148620292049 -0.99681527739674414 -0.079745236525150406 
1 3.7679534052539966e-08 0 0 -1 
1 0 0 0 -1 
1 0 0 1 0 
2 0.47847341335629778 31.70254574089077 -1 0 0 1 6
1 0 -200 1 0 
2 0.47847341335629778 31.70254574089077 -1 0 0 1 6
1 0 0 1 0 
1 -5.5215265866437022 31.702545966967975 0 -1 
1 0 -200 1 0 
1 -5.5215265866437022 31.702545966967975 0 -1 
Curves 36
1 98.623177413356302 30.363294852747821 0 0 0 1 
1 104.144704 36.344186126819572 0 0 0 1 
2 98.144704000000004 36.344186357591489 0 0 0 1 1 0 -0 -0 1 0 6
2 98.144704000000004 36.344186357591489 0 0 0 1 1 0 -0 -0 1 0 6
1 86.914288424761452 29.426576728143772 0 0 0 1 
1 86.914288424761452 29.426576728143772 0 0.99681523112720005 0.079745814892235742 0 
1 86.914288424761452 29.426576728143772 0 0.99681523112720005 0.079745814892235742 0 
1 84.144704000000019 26.426576354181705 0 0 0 1 
2 87.154288806202132 26.426576641038633 0 0 0 1 1 0 -0 -0 1 0 3.0095848062020956
2 87.154288806202132 26.426576641038633 0 0 0 1 1 0 -0 -0 1 0 3.0095848062020956
1 84.144704000000004 24.205010000000001 0 0 0 1 
1 84.144704000000004 24.205010000000001 0 0 1 0 
1 84.144704000000004 24.205010000000001 0 0 1 0 
1 109.144704 24.205010000000001 0 0 0 1 
1 109.144704 24.205010000000001 0 -1 0 0 
1 109.144704 24.205010000000001 0 -1 0 0 
1 109.144704 74.205010000000001 0 0 0 1 
1 109.144704 74.205010000000001 0 0 -1 0 
1 109.144704 74.205010000000001 0 0 -1 0 
1 84.144704000000004 74.205010000000001 0 0 0 1 
1 84.144704000000004 74.205010000000001 0 1 0 0 
1 84.144704000000004 74.205010000000001 0 1 0 0 
1 84.144704000000004 71.983443645818284 0 0 0 1 
1 84.144704000000004 74.205010000000001 0 0 -1 0 
1 84.144704000000004 74.205010000000001 0 0 -1 0 
1 86.914287335947023 68.98344347304004 0 0 0 1 
2 87.154288806202089 71.98344347303987 0 0 0 1 1 0 -0 -0 1 0 3.0095848062020956
2 87.154288806202089 71.98344347303987 0 0 0 1 1 0 -0 -0 1 0 3.0095848062020956
1 98.623176868035728 68.046732142108169 0 0 0 1 
1 86.914287335947037 68.98344347303987 0 0.99681527739674414 -0.079745236525150406 0 
1 86.914287335947037 68.98344347303987 0 0.99681527739674414 -0.079745236525150406 0 
1 104.144704 62.065840819715795 0 0 0 1 
2 98.144704000000004 62.06584059363859 0 0 0 1 1 0 -0 -0 1 0 6
2 98.144704000000004 62.06584059363859 0 0 0 1 1 0 -0 -0 1 0 6
1 104.144704 62.065840819715795 0 0 -1 0 
1 104.144704 62.065840819715795 0 0 -1 0 
Polygon3D 0
PolygonOnTriangulations 0
Surfaces 14
2 98.144704000000004 36.344186357591489 0 -0 -0 -1 1 0 0 0 1 0 6
1 86.914288424761452 29.426576728143772 0 -0.079745814892235742 0.99681523112720005 0 0.99681523112720005 0.079745814892235742 0 0 0 -1 
1 104.144704 62.065840819715795 0 1 0 -0 0 -1 0 0 -0 -1 
1 98.623177413356302 30.363294852747821 0 0 0 -1 -1 0 -0 0 1 0 
1 98.623177413356302 30.363294852747821 0 0 0 -1 -1 0 -0 0 1 0 
2 87.154288806202132 26.426576641038633 0 -0 -0 -1 1 0 0 0 1 0 3.0095848062020956
1 84.144704000000004 24.205010000000001 0 -1 0 0 0 1 0 0 0 -1 
1 109.144704 24.205010000000001 0 0 -1 0 -1 0 0 -0 -0 -1 
1 109.144704 74.205010000000001 0 1 0 -0 0 -1 0 0 -0 -1 
1 84.144704000000004 74.205010000000001 0 0 1 0 1 0 0 0 0 -1 
1 84.144704000000004 74.205010000000001 0 1 0 -0 0 -1 0 0 -0 -1 
2 87.154288806202089 71.98344347303987 0 -0 -0 -1 1 0 0 0 1 0 3.0095848062020956
1 86.914287335947037 68.98344347303987 0 0.079745236525150406 0.99681527739674414 -0 0.99681527739674414 -0.079745236525150406 0 0 -0 -1 
2 98.144704000000004 62.06584059363859 0 -0 -0 -1 1 0 0 0 1 0 6
Triangulations 0

TShapes 90
Ve
1e-07
98.6231774133563 30.3632948527478 0
0 0

0101101
*
Ve
1e-07
98.6231774133563 30.3632948527478 200
0 0

0101101
*
Ed
 1e-07 1 1 0
1  1 0 0 200
2  1 1 0 0 200
2  2 2 0 0 200
4 G1 1 0 2 0
0

0101000
+90 0 -89 0 *
Ve
1e-07
104.144704 36.3441861268196 0
0 0

0101101
*
Ve
1e-07
104.144704 36.3441861268196 200
0 0

0101101
*
Ed
 1e-07 1 1 0
1  2 0 0 200
2  3 1 0 0 200
2  4 3 0 0 200
4 G1 1 0 3 0
0

0101000
+87 0 -86 0 *
Ed
 1e-07 1 1 0
1  3 0 4.79221931381414 6.2831852687176
2  5 1 4 4.79221931381414 6.2831852687176
2  6 4 5 4.79221931381414 6.2831852687176
0

0101000
+90 4 -87 4 *
Ed
 1e-07 1 1 0
1  4 0 4.79221931381414 6.2831852687176
2  7 1 8 4.79221931381414 6.2831852687176
2  8 5 5 4.79221931381414 6.2831852687176
0

0101000
+89 8 -86 8 *
Wi

0101000
+88 0 -85 0 -84 3 +83 7 *
Fa
0  1e-07 1 0

0101000
+82 0 *
Ve
1e-07
86.9142884247615 29.4265767281438 0
0 0

0101101
*
Ve
1e-07
86.9142884247615 29.4265767281438 200
0 0

0101101
*
Ed
 1e-07 1 1 0
1  5 0 0 200
2  9 2 0 0 200
2  10 6 0 0 200
4 G1 2 0 6 0
0

0101000
+80 0 -79 0 *
Ed
 1e-07 1 1 0
1  6 0 0 11.7462982335798
2  11 2 4 0 11.7462982335798
2  12 4 5 0 11.7462982335798
0

0101000
+80 4 -90 4 *
Ed
 1e-07 1 1 0
1  7 0 0 11.7462982335798
2  13 2 8 0 11.7462982335798
2  14 5 5 0 11.7462982335798
0

0101000
+79 8 -89 8 *
Wi

0101000
+78 0 -88 0 -77 3 +76 7 *
Fa
0  1e-07 2 0

0101000
+75 0 *
Ve
1.00000021316282e-07
84.144704 26.4265763541817 0
0 0

0101101
*
Ve
1.00000021316282e-07
84.144704 26.4265763541817 200
0 0

0101101
*
Ed
 1.00000021316282e-07 1 1 0
1  8 0 0 200
2  15 6 0 0 200
2  16 7 0 0 200
4 G1 6 0 7 0
0

0101000
+73 0 -72 0 *
Ed
 1e-07 1 1 0
1  9 0 1.65062643653743 3.14159274890425
2  17 6 4 1.65062643653743 3.14159274890425
2  18 4 5 1.65062643653743 3.14159274890425
0

0101000
+80 4 -73 4 *
Ed
 1e-07 1 1 0
1  10 0 1.65062643653743 3.14159274890425
2  19 6 8 1.65062643653743 3.14159274890425
2  20 5 5 1.65062643653743 3.14159274890425
0

0101000
+79 8 -72 8 *
Wi

0101000
+78 0 -71 0 -70 3 +69 7 *
Fa
0  1e-07 6 0

0101000
+68 0 *
Ve
1e-07
84.144704 24.20501 0
0 0

0101101
*
Ve
1e-07
84.144704 24.20501 200
0 0

0101101
*
Ed
 1e-07 1 1 0
1  11 0 0 200
2  21 7 0 0 200
2  22 8 0 0 200
0

0101000
+66 0 -65 0 *
Ed
 1e-07 1 1 0
1  12 0 0 2.2215663541817
2  23 7 4 0 2.2215663541817
2  24 4 5 0 2.2215663541817
0

0101000
+66 4 -73 4 *
Ed
 1e-07 1 1 0
1  13 0 0 2.2215663541817
2  25 7 8 0 2.2215663541817
2  26 5 5 0 2.2215663541817
0

0101000
+65 8 -72 8 *
Wi

0101000
+64 0 -71 0 -63 3 +62 7 *
Fa
0  1e-07 7 0

0101000
+61 0 *
Ve
1e-07
109.144704 24.20501 0
0 0

0101101
*
Ve
1e-07
109.144704 24.20501 200
0 0

0101101
*
Ed
 1e-07 1 1 0
1  14 0 0 200
2  27 8 0 0 200
2  28 9 0 0 200
0

0101000
+59 0 -58 0 *
Ed
 1e-07 1 1 0
1  15 0 0 25
2  29 8 4 0 25
2  30 4 5 0 25
0

0101000
+59 4 -66 4 *
Ed
 1e-07 1 1 0
1  16 0 0 25
2  31 8 8 0 25
2  32 5 5 0 25
0

0101000
+58 8 -65 8 *
Wi

0101000
+57 0 -64 0 -56 3 +55 7 *
Fa
0  1e-07 8 0

0101000
+54 0 *
Ve
1e-07
109.144704 74.20501 0
0 0

0101101
*
Ve
1e-07
109.144704 74.20501 200
0 0

0101101
*
Ed
 1e-07 1 1 0
1  17 0 0 200
2  33 9 0 0 200
2  34 10 0 0 200
0

0101000
+52 0 -51 0 *
Ed
 1e-07 1 1 0
1  18 0 0 50
2  35 9 4 0 50
2  36 4 5 0 50
0

0101000
+52 4 -59 4 *
Ed
 1e-07 1 1 0
1  19 0 0 50
2  37 9 8 0 50
2  38 5 5 0 50
0

0101000
+51 8 -58 8 *
Wi

0101000
+50 0 -57 0 -49 3 +48 7 *
Fa
0  1e-07 9 0

0101000
+47 0 *
Ve
1e-07
84.144704 74.20501 0
0 0

0101101
*
Ve
1e-07
84.144704 74.20501 200
0 0

0101101
*
Ed
 1e-07 1 1 0
1  20 0 0 200
2  39 10 0 0 200
2  40 11 0 0 200
0

0101000
+45 0 -44 0 *
Ed
 1e-07 1 1 0
1  21 0 0 25
2  41 10 4 0 25
2  42 4 5 0 25
0

0101000
+45 4 -52 4 *
Ed
 1e-07 1 1 0
1  22 0 0 25
2  43 10 8 0 25
2  44 5 5 0 25
0

0101000
+44 8 -51 8 *
Wi

0101000
+43 0 -50 0 -42 3 +41 7 *
Fa
0  1e-07 10 0

0101000
+40 0 *
Ve
1e-07
84.144704 71.9834436458183 0
0 0

0101101
*
Ve
1e-07
84.144704 71.9834436458183 200
0 0

0101101
*
Ed
 1e-07 1 1 0
1  23 0 0 200
2  45 11 0 0 200
2  46 12 0 0 200
4 G1 11 0 12 0
0

0101000
+38 0 -37 0 *
Ed
 1e-07 1 1 0
1  24 0 0 2.22156635418172
2  47 11 4 0 2.22156635418172
2  48 4 5 0 2.22156635418172
0

0101000
+45 4 -38 4 *
Ed
 1e-07 1 1 0
1  25 0 0 2.22156635418172
2  49 11 8 0 2.22156635418172
2  50 5 5 0 2.22156635418172
0

0101000
+44 8 -37 8 *
Wi

0101000
+43 0 -36 0 -35 3 +34 7 *
Fa
0  1e-07 11 0

0101000
+33 0 *
Ve
1.00000178203212e-07
86.914287335947 68.98344347304 0
0 0

0101101
*
Ve
1.00000178203212e-07
86.914287335947 68.98344347304 200
0 0

0101101
*
Ed
 1.00000178203212e-07 1 1 0
1  26 0 0 200
2  51 12 0 0 200
2  52 13 0 0 200
4 G1 12 0 13 0
0

0101000
+31 0 -30 0 *
Ed
 1e-07 1 1 0
1  27 0 3.14159259618041 4.63255850770403
2  53 12 4 3.14159259618041 4.63255850770403
2  54 4 5 3.14159259618041 4.63255850770403
0

0101000
+38 4 -31 4 *
Ed
 1e-07 1 1 0
1  28 0 3.14159259618041 4.63255850770403
2  55 12 8 3.14159259618041 4.63255850770403
2  56 5 5 3.14159259618041 4.63255850770403
0

0101000
+37 8 -30 8 *
Wi

0101000
+36 0 -29 0 -28 3 +27 7 *
Fa
0  1e-07 12 0

0101000
+26 0 *
Ve
1.00000092643438e-07
98.6231768680357 68.0467321421082 0
0 0

0101101
*
Ve
1.00000092643438e-07
98.6231768680357 68.0467321421082 200
0 0

0101101
*
Ed
 1.00000092643438e-07 1 1 0
1  29 0 0 200
2  57 13 0 0 200
2  58 14 0 0 200
4 G1 13 0 14 0
0

0101000
+24 0 -23 0 *
Ed
 1e-07 1 1 0
1  30 0 0 11.7462982335778
2  59 13 4 0 11.7462982335778
2  60 4 5 0 11.7462982335778
0

0101000
+31 4 -24 4 *
Ed
 1e-07 1 1 0
1  31 0 0 11.7462982335778
2  61 13 8 0 11.7462982335778
2  62 5 5 0 11.7462982335778
0

0101000
+30 8 -23 8 *
Wi

0101000
+29 0 -22 0 -21 3 +20 7 *
Fa
0  1e-07 13 0

0101000
+19 0 *
Ve
1e-07
104.144704 62.0658408197158 0
0 0

0101101
*
Ve
1e-07
104.144704 62.0658408197158 200
0 0

0101101
*
Ed
 1e-07 1 1 0
1  32 0 0 200
2  63 14 0 0 200
2  64 3 0 0 200
4 G1 14 0 3 0
0

0101000
+17 0 -16 0 *
Ed
 1e-07 1 1 0
1  33 0 3.767953405254e-08 1.49096608454258
2  65 14 4 3.767953405254e-08 1.49096608454258
2  66 4 5 3.767953405254e-08 1.49096608454258
0

0101000
+17 4 -24 4 *
Ed
 1e-07 1 1 0
1  34 0 3.767953405254e-08 1.49096608454258
2  67 14 8 3.767953405254e-08 1.49096608454258
2  68 5 5 3.767953405254e-08 1.49096608454258
0

0101000
+16 8 -23 8 *
Wi

0101000
+15 0 -22 0 -14 3 +13 7 *
Fa
0  1e-07 14 0

0101000
+12 0 *
Ed
 1e-07 1 1 0
1  35 0 0 25.7216546928962
2  69 3 4 0 25.7216546928962
2  70 4 5 0 25.7216546928962
0

0101000
+17 4 -87 4 *
Ed
 1e-07 1 1 0
1  36 0 0 25.7216546928962
2  71 3 8 0 25.7216546928962
2  72 5 5 0 25.7216546928962
0

0101000
+16 8 -86 8 *
Wi

0101000
+15 0 -85 0 -10 3 +9 7 *
Fa
0  1e-07 3 0

0101000
+8 0 *
Wi

0101100
-84 1 -77 1 +70 1 -63 1 -56 1 -49 1 -42 1 +35 1 +28 1 +21 1 
-14 1 +10 1 *
Fa
0  1e-07 4 0

0101000
-6 0 *
Wi

0101100
-83 1 -76 1 +69 1 -62 1 -55 1 -48 1 -41 1 +34 1 +27 1 +20 1 
-13 1 +9 1 *
Fa
0  1e-07 5 0

0101000
-4 0 *
Sh

0101000
+81 0 +74 0 -67 0 +60 0 +53 0 +46 0 +39 0 -32 0 -25 0 -18 0 
+11 0 -7 0 +5 9 -3 10 *
So

1100000
+2 0 *

+1 0 