DBRep_DrawableShape

CASCADE Topology V1, (c) Matra-Datavision
Locations 29
1
              0               0               1               0 
              1               0               0               0 
              0               1               0               0 
1
              0 1.11022302462516e-016               1               0 
              1               0 1.11022302462516e-016               0 
1.11022302462516e-016               1               0               0 
1
              0               0               1               0 
              1               0               0               0 
              0               1               0               0 
1
              0 1.11022302462516e-016               1               0 
              1               0 1.11022302462516e-016               0 
1.11022302462516e-016               1               0               0 
2  2 -1 3 1 4 -1 0
1
              0               0               1               0 
              1               0               0               0 
              0               1               0               0 
2  6 -1 0
2  2 1 6 -1 0
2  1 -1 4 1 3 -1 2 1 6 -1 0
2  3 1 4 -1 0
2  6 1 2 -1 3 1 4 -1 0
2  1 -1 4 1 3 -1 0
1
              1               0               0               0 
              0               1               0 6.66133814775094e-015 
              0               0               1              60 
2  6 1 2 -1 13 1 3 1 4 -1 0
2  13 -1 2 1 6 -1 0
2  1 -1 4 1 3 -1 13 -1 2 1 6 -1 0
2  2 -1 13 1 3 1 4 -1 0
1
-2.22044604925031e-016 -1.11022302462516e-016               1              60 
              1 -2.22044604925031e-016 1.11022302462516e-016              -0 
1.11022302462516e-016               1               0 6.66133814775094e-015 
2  18 1 4 -1 0
2  2 -1 13 1 3 1 18 -1 0
2  4 1 18 -1 0
2  1 -1 4 1 18 -1 0
2  1 -1 0
1
              1               0               0 -5.95634652711397e-015 
              0               1               0 -1.19126930542279e-014 
              0               0               1          -53.65 
2  18 1 4 -1 24 1 0
2  24 -1 4 1 18 -1 0
2  18 -1 0
2  1 -1 24 -1 4 1 18 -1 0
2  4 -1 24 1 0
Curve2ds 12
2 9.1815444136500433e-015 41.349999999999994 -2.2204460492503131e-016 -1 -1 2.2204460492503131e-016 41.350000000000001
1 0 0 1 0 
1 0 0 0 -1 
1 6.2831853071795898 0 0 -1 
1 0 -60 1 0 
2 9.1815444136500433e-015 41.349999999999994 -2.2204460492503131e-016 -1 -1 2.2204460492503131e-016 41.350000000000001
2 9.1815444136500417e-015 41.349999999999994 -3.3306690738754701e-016 -1 -1 3.3306690738754701e-016 35.5
1 0 0 1 0 
1 0 0 0 -1 
1 6.2831853071795862 0 0 -1 
1 0 -53.649999999999999 1 0 
2 35.499999999999993 -7.8825834748386051e-015 -1 2.2204460492503126e-016 2.2204460492503126e-016 1 35.5
Curves 6
2 0 0 0 0 0 1 1 0 -0 -0 1 0 41.350000000000001
1 41.349999999999994 0 4.5907722068250225e-015 0 1.1102230246251568e-016 1 
2 0 0 0 0 0 1 1 0 -0 -0 1 0 41.350000000000001
2 -0 -0 0 0 0 1 1 0 -0 -0 1 0 35.5
1 35.499999999999993 1.7263968032921184e-014 60 -1.1102230246251568e-016 -2.2204460492503136e-016 -1 
2 -0 -0 0 0 0 1 1 0 -0 -0 1 0 35.5
Polygon3D 0
PolygonOnTriangulations 0
Surfaces 5
1 0 41.350000000000001 0 -1 -0 0 -0 0 -1 0 -1 -0 
2 0 0 0 1.1102230246251568e-016 -1.2325951644078315e-032 -1 1 0 1.1102230246251568e-016 1.3684555315672051e-048 1 -1.2325951644078315e-032 41.350000000000001
1 0 41.350000000000001 0 -1 -0 0 -0 0 -1 0 -1 -0 
2 7.3955709864469883e-031 1.3322676295501882e-014 60 1.1102230246251563e-016 1.1102230246251568e-016 1 1 1.1102230246251563e-016 -1.1102230246251564e-016 -1.1102230246251564e-016 1 -1.1102230246251568e-016 35.5
1 60 35.5 1.0602629885170248e-014 -1 -2.0015288331270426e-016 -1.1555832105966956e-016 2.0015288331270426e-016 -1 0 -1.1555832105966956e-016 -2.3129331150868058e-032 1 
Triangulations 0

TShapes 23
Ve
1e-007
9.18154441365004e-015 41.35 5.09678100482638e-031
0 0

0101101
*
Ed
 1e-007 1 1 0
1  1 0 0 6.28318530717959
2  1 1 7 0 6.28318530717959
2  2 2 8 0 6.28318530717959
0

0101100
+23 9 -23 9 *
Wi

0101100
+22 0 *
Fa
0  1e-007 1 0

0101000
-21 6 *
Ve
1e-007
60 41.35 1.33226762955019e-014
0 0

0101101
*
Ed
 1e-007 1 1 0
1  2 0 0 60
3  3 4CN 2 0 0 60
0

0101000
+23 12 -19 12 *
Ed
 1e-007 1 1 0
1  3 0 0 6.28318530717959
2  5 2 15 0 6.28318530717959
2  6 3 7 0 6.28318530717959
0

0101100
+19 16 -19 16 *
Wi

0101000
-22 11 -18 10 +17 14 +18 10 *
Fa
0  1e-007 2 10

0101000
+16 0 *
Wi

0101000
-17 14 *
Ve
1e-007
60 35.5 1.72639680329212e-014
0 0

0101101
*
Ed
 1e-007 1 1 0
1  4 0 0 6.28318530717959
2  7 3 20 0 6.28318530717959
2  8 4 21 0 6.28318530717959
0

0101100
+13 22 -13 22 *
Wi

0101000
+12 19 *
Fa
0  1e-007 3 17

0101000
+14 0 +11 0 *
Ve
1e-007
6.35 35.5 5.35127497869325e-015
0 0

0101101
*
Ed
 1e-007 1 1 0
1  5 0 0 53.65
3  9 10CN 4 0 0 53.65
0

0101000
+13 23 -9 23 *
Ed
 1e-007 1 1 0
1  6 0 0 6.28318530717959
2  11 4 26 0 6.28318530717959
2  12 5 27 0 6.28318530717959
0

0101100
+9 28 -9 28 *
Wi

0101000
-12 19 -8 0 +7 25 +8 0 *
Fa
0  1e-007 4 0

0101000
+6 0 *
Wi

0101000
-7 25 *
Fa
0  1e-007 5 29

0101000
+4 0 *
Sh

0101000
+20 5 -15 0 -10 0 -5 0 -3 0 *
So

0100000
+2 0 *

+1 1 