DBRep_DrawableShape

CASCADE Topology V1, (c) Matra-Datavision
Locations 45
1
1.77321265310004e-16              -1               0           10850 
              1 1.77321265310004e-16               0             250 
              0               0               1               0 
1
              1               0              -0               0 
             -0 1.77321265310004e-16              -1               0 
              0               1 1.77321265310004e-16               0 
2  1 -1 2 -1 0
1
              1               0              -0               0 
             -0 1.77321265310004e-16              -1               0 
              0               1 1.77321265310004e-16               0 
1
              1               0               0               0 
              0 6.1257422745431e-17              -1               0 
              0               1 6.1257422745431e-17               0 
2  4 1 5 -1 0
2  5 1 4 -1 0
2  4 -1 0
2  1 -1 2 -1 5 1 4 -1 0
1
              1               0               0               0 
              0               1               0 1.47924207605232e-13 
              0               0               1             920 
2  4 1 5 -1 10 1 0
2  10 -1 5 1 4 -1 0
2  1 -1 2 -1 10 -1 5 1 4 -1 0
2  5 -1 2 1 0
2  4 1 5 -1 2 1 0
2  5 -1 10 1 2 1 0
2  4 1 5 -1 10 1 2 1 0
1
              1               0               0               0 
              0               1               0               0 
              0               0               1               0 
1
              1               0               0               0 
              0               1               0               0 
              0               0               1               0 
1
              1               0              -0               0 
             -0 1.77321265310004e-16              -1               0 
              0               1 1.77321265310004e-16               0 
2  18 1 19 1 20 1 0
2  19 -1 18 -1 0
2  18 1 19 1 0
2  1 -1 20 -1 19 -1 18 -1 0
2  1 -1 20 -1 0
2  1 -1 20 -1 19 -1 0
2  19 1 20 1 0
1
              1               0              -0               0 
             -0 1.77321265310004e-16              -1               0 
              0               1 1.77321265310004e-16               0 
1
              1               0               0               0 
              0 6.1257422745431e-17              -1               0 
              0               1 6.1257422745431e-17               0 
1
              1               0               0               0 
              0               1               0 1.47924207605232e-13 
              0               0               1             920 
2  28 1 29 -1 30 1 18 1 19 1 20 1 0
2  30 -1 29 1 28 -1 0
2  28 -1 0
2  1 -1 20 -1 19 -1 18 -1 30 -1 29 1 28 -1 0
2  28 1 29 -1 18 1 19 1 20 1 0
2  29 1 28 -1 0
2  1 -1 20 -1 19 -1 18 -1 29 1 28 -1 0
2  29 -1 30 1 18 1 19 1 0
2  29 -1 18 1 0
2  29 -1 30 1 18 1 19 1 20 1 0
2  19 -1 18 -1 30 -1 29 1 0
2  28 1 29 -1 30 1 18 1 19 1 0
2  29 -1 18 1 19 1 20 1 0
2  18 -1 29 1 0
2  28 1 29 -1 18 1 0
Curve2ds 120
1 0 0 4.4723339615027058e-17 -1 
1 100 0 0 -1 
1 1200 2.0194839173657902e-28 4.4723339615027058e-17 -1 
1 0 2.0194839173657902e-28 0 -1 
1 0 0 1 0 
1 0 0 -1 0 
1 4.1145472445824893e-14 -920 1 0 
1 0 0 -1 0 
1 0 0 0 -1 
1 250 0 -4.4723339615027058e-17 -1 
1 0 0 1 0 
1 0 100 -0 -1 
1 0 -920 1 0 
1 0 100 -0 -1 
1 100 2.0194839173657902e-28 0 -1 
1 -5.9248650694733672e-44 2.0194839173657902e-28 -4.4723339615027058e-17 -1 
1 0 0 1 0 
1 -1200 0 0 1 
1 0 -920 1 0 
1 -1200 0 0 1 
1 -250 100 1 0 
1 0 0 1 0 
1 -1200 100 1 0 
1 0 0 1 0 
1 -250 2080 -0 -1 
1 0 0 1 0 
1 -350 100 0 1 
1 0 0 1 0 
1 0 2080 -1 0 
1 0 0 1 0 
1 -350 2150 -1 0 
1 0 0 1 0 
1 0 2180 -0 -1 
1 0 0 1 0 
1 -800 2150 0 1 
1 0 0 1 0 
1 -800 2180 1 0 
1 0 0 1 0 
1 -250 100 1 0 
1 -4.2724504489832795e-14 -920 1 0 
1 -1200 100 1 0 
1 4.2540623801379247e-14 -920 1 0 
1 -250 2080 -0 -1 
1 0 -920 1 0 
1 -350 100 0 1 
1 0 -920 1 0 
1 0 2080 -1 0 
1 4.1145472445824893e-14 -920 1 0 
1 -350 2150 -1 0 
1 1.4302795059428778e-14 -920 1 0 
1 0 2180 -0 -1 
1 0 -920 1 0 
1 -800 2150 0 1 
1 0 -920 1 0 
1 -800 2180 1 0 
1 -7.1146213920236789e-14 -920 1 0 
1 -2.9624325347366836e-44 1.0097419586828951e-28 -4.4723339615027058e-17 -1 
1 1980 1.0097419586828951e-28 0 -1 
1 850 1.0097419586828951e-28 -4.4723339615027058e-17 -1 
1 0 1.0097419586828951e-28 0 -1 
1 0 1.0097419586828951e-28 0 -1 
1 250 1.0097419586828951e-28 4.4723339615027058e-17 -1 
1 2050 1.0097419586828951e-28 0 -1 
1 2.9624325347366836e-44 1.0097419586828951e-28 4.4723339615027058e-17 -1 
1 0 0 4.4723339615027058e-17 -1 
1 100 0 0 -1 
1 450 -2.0194839173657902e-28 4.4723339615027058e-17 -1 
1 0 -2.0194839173657902e-28 0 -1 
1 0 0 0 -1 
1 800 0 -4.4723339615027058e-17 -1 
1 30 -2.0194839173657902e-28 0 -1 
1 5.9248650694733672e-44 -2.0194839173657902e-28 -4.4723339615027058e-17 -1 
1 1.8515203342104272e-44 6.3108872417680944e-29 4.4723339615027058e-17 -1 
1 2030 6.3108872417680944e-29 0 -1 
1 7.53563877964325e-14 -819.99999999999989 1 0 
1 0 0 0 1 
1 -1.1601830607332886e-14 -99.999999999999986 1 0 
1 0 0 0 1 
1 300 3.5340968553901329e-28 4.4723339615027058e-17 -1 
1 0 3.5340968553901329e-28 0 -1 
1 0 6.3108872417680944e-29 0 -1 
1 300 6.3108872417680944e-29 -4.4723339615027058e-17 -1 
2 100 -819.99999999999989 -0 1 1 0 100
1 -3.1415926535897931 299.99999999999994 1 0 
2 100 -99.999999999999986 -0 1 1 0 100
1 -4.7123889803846897 300 1 0 
1 0 -920 1 0 
1 300.00000000000006 2030 -0 -1 
1 0 0 1 0 
1 300 2030 -0 -1 
2 1930 -819.99999999999989 0 -1 -1 -0 100
1 -4.7123889803846897 -3.8683249312110319e-14 1 0 
2 1930 -99.999999999999986 0 -1 1 0 100
1 -1.5707963267948966 0 1 0 
1 1.5707963267948966 0 0 1 
1 299.99999999999994 100 -1 0 
1 -4.7123889803846897 299.99999999999994 1 0 
2 100 -820 0 -1 1 0 100
1 1.5707963267948966 0 0 1 
1 300 100 -1 0 
1 -1.5707963267948966 300 1 0 
2 100 -99.999999999999986 0 -1 -1 -0 100
1 0 -920 1 0 
1 0 0 0 1 
1 0 0 1 0 
1 0 0 0 1 
2 1930 -820 0 1 -1 0 100
1 -3.1415926535897931 6.8833827526759706e-15 1 0 
2 1930 -99.999999999999986 0 1 -1 0 100
1 -4.7123889803846897 -1.6074164568835592e-14 1 0 
1 2030 3.5340968553901329e-28 0 -1 
1 -1.0368513871578393e-43 3.5340968553901329e-28 -4.4723339615027058e-17 -1 
1 -1.8540724511240114e-14 -820 1 0 
1 1.5707963267948966 0 0 1 
1 1.1601830607332886e-14 -99.999999999999986 1 0 
1 0 0 0 1 
1 0 0 0 1 
1 -6.8833827526759706e-15 1930 1 0 
1 1.5707963267948966 0 0 1 
1 0 1930 1 0 
Curves 60
1 0 0 0 0 1.6078718217960031e-16 1 
1 0 1200 -1.392766110774881e-13 0 1.6078718217960031e-16 1 
1 0 0 0 0 1 0 
1 0 0 0 0 1 0 
1 100 0 0 0 1.6078718217960031e-16 1 
1 100 0 0 -1 0 0 
1 100 0 0 -1 0 0 
1 100 1200 -1.392766110774881e-13 0 1.6078718217960031e-16 1 
1 0 1200 0 1 0 0 
1 0 1200 0 1 0 0 
1 100 250 0 0 -1 0 
1 100 1200 0 0 -1 0 
1 2080 250 0 -1 0 0 
1 100 350 0 1 0 0 
1 2080 0 0 0 1 0 
1 2150 350 0 0 1 0 
1 2180 0 0 -1 0 0 
1 2150 800 0 1 0 0 
1 2180 800 0 0 -1 0 
1 100 250 0 0 -1 0 
1 100 1200 0 0 -1 0 
1 2080 250 0 -1 0 0 
1 100 350 0 1 0 0 
1 2080 0 0 0 1 0 
1 2150 350 0 0 1 0 
1 2180 0 0 -1 0 0 
1 2150 800 0 1 0 0 
1 2180 800 0 0 -1 0 
1 100 250 -2.9015960641143413e-14 0 1.6078718217960031e-16 1 
1 100 350 -4.0622344897600738e-14 0 1.6078718217960031e-16 1 
1 2080 250 -2.9015960641143413e-14 0 1.6078718217960031e-16 1 
1 2150 350 -4.0622344897600738e-14 0 1.6078718217960031e-16 1 
1 2080 0 0 0 1.6078718217960031e-16 1 
1 2150 800 -9.2851074051658398e-14 0 1.6078718217960031e-16 1 
1 2180 0 0 0 1.6078718217960031e-16 1 
1 2180 800 -9.2851074051658398e-14 0 1.6078718217960031e-16 1 
1 110 360 -4.1782983323246433e-14 0 1.6078718217960031e-16 1 
1 110 360.00000000000017 819.99999999999989 0 1 -1.1606384256457325e-16 
1 110 360 99.999999999999943 0 1 -1.1606384256457325e-16 
1 110 660 -7.6602136092618698e-14 0 1.6078718217960031e-16 1 
1 2140 360 -4.1782983323246433e-14 0 1.6078718217960031e-16 1 
8 3.1415926535897936 4.7123889803846897
2 2040 360.00000000000011 819.99999999999989 -0 1 -1.1606384256457325e-16 0 -1.1606384256457325e-16 -1 -1 -0 0 100
8 4.7123889803846897 6.2831853071795862
2 2040 360 99.999999999999943 -0 1 -1.1606384256457325e-16 0 -1.1606384256457325e-16 -1 -1 -0 0 100
1 2140 360 0 -1 0 0 
1 2140 360 0 -1 0 0 
8 4.7123889803846897 6.2831853071795871
2 210 360.00000000000011 819.99999999999989 0 1 -1.1606384256457325e-16 0 1.1606384256457325e-16 1 1 -0 0 100
8 1.5707963267948966 3.1415926535897931
2 210 360 99.999999999999943 -0 -1 1.1606384256457325e-16 0 1.1606384256457325e-16 1 -1 0 0 100
1 210 360.00000000000017 919.99999999999989 0 1 -1.1606384256457325e-16 
8 4.7123889803846897 6.2831853071795862
2 210 660.00000000000011 819.99999999999989 0 1 -1.1606384256457325e-16 0 1.1606384256457325e-16 1 1 -0 0 100
1 210 360 -5.6843418860808015e-14 0 1 -1.1606384256457325e-16 
8 1.5707963267948966 3.1415926535897931
2 210 660 99.999999999999915 -0 -1 1.1606384256457325e-16 0 1.1606384256457325e-16 1 -1 0 0 100
1 110 660 0 1 0 0 
1 110 660 0 1 0 0 
8 3.1415926535897931 4.7123889803846897
2 2040 660.00000000000011 819.99999999999989 -0 1 -1.1606384256457325e-16 0 -1.1606384256457325e-16 -1 -1 -0 0 100
8 4.7123889803846897 6.2831853071795862
2 2040 660 99.999999999999915 -0 1 -1.1606384256457325e-16 0 -1.1606384256457325e-16 -1 -1 -0 0 100
1 2140 660 -7.6602136092618698e-14 0 1.6078718217960031e-16 1 
1 2140 660.00000000000011 819.99999999999989 0 -1 1.1606384256457325e-16 
1 2140 660 99.999999999999915 0 -1 1.1606384256457325e-16 
1 2040 660.00000000000011 919.99999999999989 0 -1 1.1606384256457325e-16 
1 2040 660 -8.5265128291212022e-14 0 -1 1.1606384256457325e-16 
Polygon3D 0
PolygonOnTriangulations 0
Surfaces 24
1 0 0 0 -1 0 0 0 1 -1.1606384256457325e-16 -0 -1.1606384256457325e-16 -1 
1 100 0 0 0 -1 1.6078718217960031e-16 -1 0 0 -0 -1.6078718217960031e-16 -1 
1 0 1200 -1.392766110774879e-13 0 1 -1.6078718217960031e-16 1 0 0 0 -1.6078718217960031e-16 -1 
1 0 0 0 0 -1 1.7732126531000425e-16 0 -1.7732126531000425e-16 -1 1 0 0 
1 0 0 0 0 -1 1.7732126531000425e-16 0 -1.7732126531000425e-16 -1 1 0 0 
1 100 250 -2.9015960641143312e-14 1 0 -0 0 -1 1.1606384256457325e-16 0 -1.1606384256457325e-16 -1 
1 100 1200 -1.392766110774879e-13 1 0 -0 0 -1 1.1606384256457325e-16 0 -1.1606384256457325e-16 -1 
1 2080 250 -2.9015960641143312e-14 0 -1 1.6078718217960031e-16 -1 0 0 -0 -1.6078718217960031e-16 -1 
1 100 350 -4.0622344897600637e-14 0 1 -1.6078718217960031e-16 1 0 0 0 -1.6078718217960031e-16 -1 
1 2080 0 0 -1 0 0 0 1 -1.1606384256457325e-16 -0 -1.1606384256457325e-16 -1 
1 2150 350 -4.0622344897600637e-14 -1 0 0 0 1 -1.1606384256457325e-16 -0 -1.1606384256457325e-16 -1 
1 2180 0 0 0 -1 1.6078718217960031e-16 -1 0 0 -0 -1.6078718217960031e-16 -1 
1 2150 800 -9.28510740516586e-14 0 1 -1.6078718217960031e-16 1 0 0 0 -1.6078718217960031e-16 -1 
1 2180 800 -9.28510740516586e-14 1 0 -0 0 -1 1.1606384256457325e-16 0 -1.1606384256457325e-16 -1 
1 110 360 -4.178298332324637e-14 -1 0 0 0 1 -1.1606384256457325e-16 -0 -1.1606384256457325e-16 -1 
1 2140 360 -4.178298332324637e-14 0 -1 1.6078718217960031e-16 -1 0 0 -0 -1.6078718217960031e-16 -1 
2 210 360.00000000000017 819.99999999999989 0 1 -1.1606384256457325e-16 -1 0 0 0 1.1606384256457325e-16 1 100
2 210 360 99.999999999999943 0 1 -1.1606384256457325e-16 -1 0 0 -0 -1.1606384256457325e-16 -1 100
1 110 660 -7.6602136092618345e-14 0 1 -1.6078718217960031e-16 1 0 0 0 -1.6078718217960031e-16 -1 
1 2140 660 -7.6602136092618345e-14 1 0 -0 0 -1 1.1606384256457325e-16 0 -1.1606384256457325e-16 -1 
2 2040 660.00000000000011 819.99999999999989 0 -1 1.1606384256457325e-16 -0 1.1606384256457325e-16 1 1 0 -0 100
2 2040 660 99.999999999999915 0 -1 1.1606384256457325e-16 1 0 0 0 -1.1606384256457325e-16 -1 100
1 110 1.1703203510460281e-13 660 0 -1 1.7732126531000425e-16 0 -1.7732126531000425e-16 -1 1 0 0 
1 110 1.1703203510460281e-13 660 0 -1 1.7732126531000425e-16 0 -1.7732126531000425e-16 -1 1 0 0 
Triangulations 0

TShapes 153
Ve
1e-07
10850 250 0
0 0

0101101
*
Ve
1e-07
11770 250 3.11059771690436e-13
0 0

0101101
*
Ed
 1e-07 1 1 0
1  1 0 0 920
2  1 1 0 0 920
2  2 2 0 0 920
0

0101000
+153 3 -152 3 *
Ve
1e-07
10850 250 1200
0 0

0101101
*
Ve
1e-07
11770 250 1200
0 0

0101101
*
Ed
 1e-07 1 1 0
1  2 0 0 920
2  3 1 0 0 920
2  4 3 0 0 920
0

0101000
+150 3 -149 3 *
Ed
 1e-07 1 1 0
1  3 0 0 1200
2  5 1 7 0 1200
2  6 4 8 0 1200
0

0101000
+153 9 -150 9 *
Ed
 1e-07 1 1 0
1  4 0 0 1200
2  7 1 12 0 1200
2  8 5 8 0 1200
0

0101000
+152 13 -149 13 *
Wi

0101000
+151 0 -148 0 -147 6 +146 11 *
Fa
0  1e-07 1 0

0101000
+145 0 *
Ve
1e-07
10850 350 0
0 0

0101101
*
Ve
1e-07
11770 350 3.11059771690436e-13
0 0

0101101
*
Ed
 1e-07 1 1 0
1  5 0 0 920
2  9 2 0 0 920
2  10 6 0 0 920
0

0101000
+143 3 -142 3 *
Ed
 1e-07 1 1 0
1  6 0 0 100
2  11 2 7 0 100
2  12 4 8 0 100
0

0101000
+143 9 -153 9 *
Ed
 1e-07 1 1 0
1  7 0 0 100
2  13 2 12 0 100
2  14 5 8 0 100
0

0101000
+142 13 -152 13 *
Wi

0101000
+141 0 -151 0 -140 6 +139 11 *
Fa
0  1e-07 2 0

0101000
+138 0 *
Ve
1e-07
10850 350 1200
0 0

0101101
*
Ve
1e-07
11770 350 1200
0 0

0101101
*
Ed
 1e-07 1 1 0
1  8 0 0 920
2  15 3 0 0 920
2  16 7 0 0 920
0

0101000
+136 3 -135 3 *
Ed
 1e-07 1 1 0
1  9 0 0 100
2  17 3 7 0 100
2  18 4 8 0 100
0

0101000
+150 9 -136 9 *
Ed
 1e-07 1 1 0
1  10 0 0 100
2  19 3 12 0 100
2  20 5 8 0 100
0

0101000
+149 13 -135 13 *
Wi

0101000
+148 0 -134 0 -133 6 +132 11 *
Fa
0  1e-07 3 0

0101000
+131 0 *
Ve
1e-07
10850 350 250
0 0

0101101
*
Ed
 1e-07 1 1 0
1  11 0 0 250
2  21 4 8 0 250
2  22 6 7 0 250
0

0101000
+129 9 -143 9 *
Ve
1e-07
10850 350 350
0 0

0101101
*
Ed
 1e-07 1 1 0
1  12 0 0 850
2  23 4 8 0 850
2  24 7 7 0 850
0

0101000
+136 9 -127 9 *
Ve
1e-07
10850 2330 250
0 0

0101101
*
Ed
 1e-07 1 1 0
1  13 0 0 1980
2  25 4 8 0 1980
2  26 8 7 0 1980
0

0101000
+125 9 -129 9 *
Ve
1e-07
10850 2400 350
0 0

0101101
*
Ed
 1e-07 1 1 0
1  14 0 0 2050
2  27 4 8 0 2050
2  28 9 7 0 2050
0

0101000
+127 9 -123 9 *
Ve
1e-07
10850 2330 0
0 0

0101101
*
Ed
 1e-07 1 1 0
1  15 0 0 250
2  29 4 8 0 250
2  30 10 7 0 250
0

0101000
+121 9 -125 9 *
Ve
1e-07
10850 2400 800
0 0

0101101
*
Ed
 1e-07 1 1 0
1  16 0 0 450
2  31 4 8 0 450
2  32 11 7 0 450
0

0101000
+123 9 -119 9 *
Ve
1e-07
10850 2430 0
0 0

0101101
*
Ed
 1e-07 1 1 0
1  17 0 0 100
2  33 4 8 0 100
2  34 12 7 0 100
0

0101000
+117 9 -121 9 *
Ve
1e-07
10850 2430 800
0 0

0101101
*
Ed
 1e-07 1 1 0
1  18 0 0 30
2  35 4 8 0 30
2  36 13 7 0 30
0

0101000
+119 9 -115 9 *
Ed
 1e-07 1 1 0
1  19 0 0 800
2  37 4 8 0 800
2  38 14 7 0 800
0

0101000
+115 9 -117 9 *
Wi

0101000
-147 15 -140 15 -133 15 -128 15 -126 15 -124 15 -122 15 -120 15 -118 15 -116 15 
-114 15 -113 15 *
Fa
0  1e-07 4 14

0101000
+112 0 *
Ve
1e-07
11770 350 250
0 0

0101101
*
Ed
 1e-07 1 1 0
1  20 0 0 250
2  39 5 8 0 250
2  40 6 12 0 250
0

0101000
+110 13 -142 13 *
Ve
1e-07
11770 350 350
0 0

0101101
*
Ed
 1e-07 1 1 0
1  21 0 0 850
2  41 5 8 0 850
2  42 7 12 0 850
0

0101000
+135 13 -108 13 *
Ve
1e-07
11770 2330 250
0 0

0101101
*
Ed
 1e-07 1 1 0
1  22 0 0 1980
2  43 5 8 0 1980
2  44 8 12 0 1980
0

0101000
+106 13 -110 13 *
Ve
1e-07
11770 2400 350
0 0

0101101
*
Ed
 1e-07 1 1 0
1  23 0 0 2050
2  45 5 8 0 2050
2  46 9 12 0 2050
0

0101000
+108 13 -104 13 *
Ve
1e-07
11770 2330 3.11059771690436e-13
0 0

0101101
*
Ed
 1e-07 1 1 0
1  24 0 0 250
2  47 5 8 0 250
2  48 10 12 0 250
0

0101000
+102 13 -106 13 *
Ve
1e-07
11770 2400 800
0 0

0101101
*
Ed
 1e-07 1 1 0
1  25 0 0 450
2  49 5 8 0 450
2  50 11 12 0 450
0

0101000
+104 13 -100 13 *
Ve
1e-07
11770 2430 3.11059771690436e-13
0 0

0101101
*
Ed
 1e-07 1 1 0
1  26 0 0 100
2  51 5 8 0 100
2  52 12 12 0 100
0

0101000
+98 13 -102 13 *
Ve
1e-07
11770 2430 800
0 0

0101101
*
Ed
 1e-07 1 1 0
1  27 0 0 30
2  53 5 8 0 30
2  54 13 12 0 30
0

0101000
+100 13 -96 13 *
Ed
 1e-07 1 1 0
1  28 0 0 800
2  55 5 8 0 800
2  56 14 12 0 800
0

0101000
+96 13 -98 13 *
Wi

0101000
-146 17 -139 17 -132 17 -109 17 -107 17 -105 17 -103 17 -101 17 -99 17 -97 17 
-95 17 -94 17 *
Fa
0  1e-07 5 16

0101000
+93 0 *
Ed
 1e-07 1 1 0
1  29 0 0 920
2  57 6 0 0 920
2  58 8 0 0 920
0

0101000
+129 3 -110 3 *
Wi

0101000
+91 0 -141 0 -128 6 +109 11 *
Fa
0  1e-07 6 0

0101000
+90 0 *
Ed
 1e-07 1 1 0
1  30 0 0 920
2  59 7 0 0 920
2  60 9 0 0 920
0

0101000
+127 3 -108 3 *
Wi

0101000
+134 0 -88 0 -126 6 +107 11 *
Fa
0  1e-07 7 0

0101000
+87 0 *
Ed
 1e-07 1 1 0
1  31 0 0 920
2  61 8 0 0 920
2  62 10 0 0 920
0

0101000
+125 3 -106 3 *
Wi

0101000
+85 0 -91 0 -124 6 +105 11 *
Fa
0  1e-07 8 0

0101000
+84 0 *
Ed
 1e-07 1 1 0
1  32 0 0 920
2  63 9 0 0 920
2  64 11 0 0 920
0

0101000
+123 3 -104 3 *
Wi

0101000
+88 0 -82 0 -122 6 +103 11 *
Fa
0  1e-07 9 0

0101000
+81 0 *
Ed
 1e-07 1 1 0
1  33 0 0 920
2  65 10 0 0 920
2  66 12 0 0 920
0

0101000
+121 3 -102 3 *
Wi

0101000
+79 0 -85 0 -120 6 +101 11 *
Fa
0  1e-07 10 0

0101000
+78 0 *
Ed
 1e-07 1 1 0
1  34 0 0 920
2  67 11 0 0 920
2  68 13 0 0 920
0

0101000
+119 3 -100 3 *
Wi

0101000
+82 0 -76 0 -118 6 +99 11 *
Fa
0  1e-07 11 0

0101000
+75 0 *
Ed
 1e-07 1 1 0
1  35 0 0 920
2  69 12 0 0 920
2  70 14 0 0 920
0

0101000
+117 3 -98 3 *
Wi

0101000
+73 0 -79 0 -116 6 +97 11 *
Fa
0  1e-07 12 0

0101000
+72 0 *
Ed
 1e-07 1 1 0
1  36 0 0 920
2  71 13 0 0 920
2  72 14 0 0 920
0

0101000
+115 3 -96 3 *
Wi

0101000
+76 0 -70 0 -114 6 +95 11 *
Fa
0  1e-07 13 0

0101000
+69 0 *
Wi

0101000
+70 0 -73 0 -113 6 +94 11 *
Fa
0  1e-07 14 0

0101000
+67 0 *
Sh

0101000
+144 2 +137 2 +130 2 -111 0 +92 0 +89 2 +86 2 +83 2 +80 2 +77 2 
+74 2 +71 2 +68 2 +66 2 *
So

0100000
+65 0 *
Ve
1e-07
11670 360 360
0 0

0101101
*
Ve
1e-07
10950 360 360
0 0

0101101
*
Ed
 1e-07 1 1 0
1  37 0 100 820
2  73 15 0 100 820
2  74 16 0 100 820
0

0101000
-63 24 +62 24 *
Ve
1e-07
11670 360 660
0 0

0101101
*
Ed
 1e-07 1 1 0
1  38 0 -3.86832493121103e-14 300
2  75 15 23 -3.86832493121103e-14 300
2  76 17 0 -3.86832493121103e-14 300
4 G1 15 23 17 0
0

0101000
+63 25 -60 25 *
Ve
1e-07
10950 360 660
0 0

0101101
*
Ed
 1e-07 1 1 0
1  39 0 1.60741645688356e-14 300
2  77 15 18 1.60741645688356e-14 300
2  78 18 0 1.60741645688356e-14 300
4 G1 15 18 18 0
0

0101000
+62 26 -58 26 *
Ed
 1e-07 1 1 0
1  40 0 100 820
2  79 15 0 100 820
2  80 19 0 100 820
0

0101000
-60 24 +58 24 *
Wi

0101100
+61 23 +59 0 -57 19 -56 23 *
Fa
0  1e-07 15 0

0101000
+55 22 *
Ve
1e-07
11670 2390 360
0 0

0101101
*
Ve
1e-07
10950 2390 360
0 0

0101101
*
Ed
 1e-07 1 1 0
1  41 0 100 820
2  81 16 0 100 820
2  82 20 0 100 820
0

0101000
-53 24 +52 24 *
Ve
1e-07
11770 2290 360
0 0

0101101
*
Ed
 1e-07 1 1 0
1  42 0 3.14159265358979 4.71238898038469
2  83 16 23 3.14159265358979 4.71238898038469
2  84 21 0 3.14159265358979 4.71238898038469
0

0101000
+50 25 -53 25 *
Ve
1e-07
10850 2290 360
0 0

0101101
*
Ed
 1e-07 1 1 0
1  43 0 4.71238898038469 6.28318530717959
2  85 16 18 4.71238898038469 6.28318530717959
2  86 22 0 4.71238898038469 6.28318530717959
0

0101000
+52 26 -48 26 *
Ve
1e-07
11770 460 360
0 0

0101101
*
Ed
 1e-07 1 1 0
1  44 0 100 1930
2  87 16 32 100 1930
2  88 23 33 100 1930
0

0101000
+50 34 -46 34 *
Ve
1e-07
10850 460 360
0 0

0101101
*
Ed
 1e-07 1 1 0
1  45 0 100 1930
2  89 16 36 100 1930
2  90 24 33 100 1930
0

0101000
+48 37 -44 37 *
Ed
 1e-07 1 1 0
1  46 0 4.71238898038469 6.28318530717959
2  91 16 23 4.71238898038469 6.28318530717959
2  92 17 0 4.71238898038469 6.28318530717959
0

0101000
+63 25 -46 25 *
Ed
 1e-07 1 1 0
1  47 0 1.5707963267949 3.14159265358979
2  93 16 18 1.5707963267949 3.14159265358979
2  94 18 0 1.5707963267949 3.14159265358979
0

0101000
+62 26 -44 26 *
Wi

0101000
+51 21 -49 20 -47 27 +45 31 -43 35 -42 20 +41 27 -61 21 *
Fa
0  1e-07 16 21

0101000
+40 0 *
Ve
1e-07
11770 460 660
0 0

0101101
*
Ed
 1e-07 1 1 0
1  48 0 -0 300
2  95 17 0 -0 300
2  96 23 38 -0 300
4 G1 17 0 23 38
0

0101000
+46 25 -38 25 *
Ed
 1e-07 1 1 0
1  49 0 4.71238898038469 6.28318530717959
2  97 17 0 4.71238898038469 6.28318530717959
2  98 19 23 4.71238898038469 6.28318530717959
0

0101000
+60 25 -38 25 *
Wi

0101000
+42 20 -59 20 +37 20 -36 20 *
Fa
0  1e-07 17 20

0101000
+35 0 *
Ve
1e-07
10850 460 660
0 0

0101101
*
Ed
 1e-07 1 1 0
1  50 0 -0 300
2  99 18 0 -0 300
2  100 24 39 -0 300
4 G1 18 0 24 39
0

0101000
+44 26 -33 26 *
Ed
 1e-07 1 1 0
1  51 0 1.5707963267949 3.14159265358979
2  101 18 0 1.5707963267949 3.14159265358979
2  102 19 18 1.5707963267949 3.14159265358979
0

0101000
+58 26 -33 26 *
Wi

0101000
+41 27 -57 27 +32 27 -31 27 *
Fa
0  1e-07 18 27

0101000
+30 0 *
Ve
1e-07
11770 2290 660
0 0

0101101
*
Ed
 1e-07 1 1 0
1  52 0 100 1930
2  103 19 32 100 1930
2  104 23 33 100 1930
0

0101000
+38 34 -28 34 *
Ve
1e-07
10850 2290 660
0 0

0101101
*
Ed
 1e-07 1 1 0
1  53 0 100 1930
2  105 19 36 100 1930
2  106 24 33 100 1930
0

0101000
+33 37 -26 37 *
Ve
1e-07
11670 2390 660
0 0

0101101
*
Ed
 1e-07 1 1 0
1  54 0 3.14159265358979 4.71238898038469
2  107 19 23 3.14159265358979 4.71238898038469
2  108 21 0 3.14159265358979 4.71238898038469
0

0101000
+28 25 -24 25 *
Ve
1e-07
10950 2390 660
0 0

0101101
*
Ed
 1e-07 1 1 0
1  55 0 4.71238898038469 6.28318530717959
2  109 19 18 4.71238898038469 6.28318530717959
2  110 22 0 4.71238898038469 6.28318530717959
0

0101000
+22 26 -26 26 *
Ed
 1e-07 1 1 0
1  56 0 100 820
2  111 19 0 100 820
2  112 20 0 100 820
0

0101000
-24 24 +22 24 *
Wi

0101000
+56 21 +36 20 -31 27 +27 31 -25 35 +23 20 +21 27 -20 21 *
Fa
0  1e-07 19 21

0101000
+19 0 *
Ed
 1e-07 1 1 0
1  57 0 -1.81324139730821e-14 300
2  113 20 23 -1.81324139730821e-14 300
2  114 21 0 -1.81324139730821e-14 300
4 G1 20 23 21 0
0

0101000
+24 25 -53 25 *
Ed
 1e-07 1 1 0
1  58 0 -1.60741645688356e-14 300
2  115 20 18 -1.60741645688356e-14 300
2  116 22 0 -1.60741645688356e-14 300
4 G1 20 18 22 0
0

0101000
+22 26 -52 26 *
Wi

0101100
+20 23 +17 0 -16 19 -51 23 *
Fa
0  1e-07 20 0

0101000
+15 22 *
Ed
 1e-07 1 1 0
1  59 0 6.88338275267597e-15 300
2  117 21 0 6.88338275267597e-15 300
2  118 23 38 6.88338275267597e-15 300
4 G1 21 0 23 38
0

0101000
+28 25 -50 25 *
Wi

0101000
+23 20 -13 20 +17 20 -49 20 *
Fa
0  1e-07 21 20

0101000
+12 0 *
Ed
 1e-07 1 1 0
1  60 0 0 300
2  119 22 0 0 300
2  120 24 39 0 300
4 G1 22 0 24 39
0

0101000
+26 26 -48 26 *
Wi

0101000
+21 27 -16 27 +10 27 -47 27 *
Fa
0  1e-07 22 27

0101000
+9 0 *
Wi

0101100
-27 42 -37 0 -13 0 -45 42 *
Fa
0  1e-07 23 0

0101000
+7 41 *
Wi

0101100
-25 45 -32 0 -10 0 -43 45 *
Fa
0  1e-07 24 0

0101000
+5 44 *
Sh

0101000
+54 21 +39 0 +34 0 -29 0 +18 0 +14 21 -11 0 -8 0 +6 40 -4 43 
*
So

0100000
+3 0 *
Co

1100000
+64 0 +2 0 *

+1 1 