DBRep_DrawableShape

CASCADE Topology V1, (c) Matra-Datavision
Locations 59
1
              1               0               0               0 
              0              -1               0               0 
              0               0              -1               0 
1
              1               0               0               0 
              0              -1 1.22464679914735e-16               0 
              0 -1.22464679914735e-16              -1               0 
1
              1               0               0               0 
              0              -1               0               0 
              0               0              -1               0 
1
              1               0               0               0 
              0              -1 -1.22464679914735e-16               0 
              0 1.22464679914735e-16              -1               0 
1
              1               0               0               0 
              0               1               0               0 
              0               0               1               0 
1
              1               0               0               0 
              0               1               0               0 
              0               0               1               0 
1
              1               0               0               0 
              0              -1               0               0 
              0               0              -1               0 
1
              1               0               0               0 
              0              -1 -1.22464679914735e-16               0 
              0 1.22464679914735e-16              -1               0 
2  2 -1 3 1 4 -1 5 1 6 1 7 1 8 -1 0
2  6 1 7 1 8 -1 0
2  2 -1 3 1 4 -1 5 1 0
2  1 -1 8 1 7 -1 6 -1 0
1
              1              -0               0               0 
              0              -1               0               0 
             -0               0              -1               0 
2  13 1 2 -1 3 1 4 -1 5 1 6 1 7 1 8 -1 0
2  13 -1 0
2  4 1 3 -1 2 1 13 -1 0
2  1 -1 8 1 7 -1 6 -1 5 -1 4 1 3 -1 2 1 13 -1 0
2  2 1 13 -1 0
2  1 -1 0
2  7 1 8 -1 0
2  2 -1 3 1 4 -1 5 1 6 1 0
2  8 1 7 -1 0
2  1 -1 8 1 7 -1 0
2  6 -1 0
1
              1               0               0              -0 
              0               1               0             -10 
              0               0               1 9.9579925010296e-16 
2  4 -1 25 1 5 1 0
2  5 1 6 1 7 1 8 -1 0
2  3 1 4 -1 5 1 6 1 7 1 8 -1 0
2  4 1 3 -1 0
2  1 -1 8 1 7 -1 6 -1 5 -1 4 1 3 -1 0
1
             -1               0               0              -0 
             -0 -2.22044604925031e-16              -1             -20 
              0              -1 2.22044604925031e-16 2.44929359829471e-15 
2  31 1 4 -1 5 1 6 1 7 1 8 -1 0
2  4 1 31 -1 0
2  1 -1 8 1 7 -1 6 -1 5 -1 4 1 31 -1 0
1
              1               0               0               0 
              0               1               0 1.83697019872103e-15 
              0               0               1              15 
2  13 1 2 -1 35 1 3 1 4 -1 5 1 6 1 7 1 8 -1 0
2  4 1 3 -1 35 -1 2 1 13 -1 0
2  1 -1 8 1 7 -1 6 -1 5 -1 4 1 3 -1 35 -1 2 1 13 -1 0
2  13 1 2 -1 0
2  13 1 2 -1 35 1 0
2  35 -1 2 1 13 -1 0
1
              1              -0               0               0 
              0 -1.36717893950422e-16               1              20 
             -0              -1 -1.36717893950422e-16              -0 
2  42 1 8 -1 0
2  3 1 4 -1 5 1 6 1 7 1 42 -1 0
2  8 1 42 -1 0
2  1 -1 8 1 42 -1 0
2  4 -1 25 1 5 1 6 1 7 1 8 -1 0
2  4 -1 25 1 5 1 6 1 0
2  31 1 4 -1 25 1 5 1 6 1 7 1 8 -1 0
2  31 -1 0
2  25 -1 4 1 31 -1 0
2  1 -1 8 1 7 -1 6 -1 5 -1 25 -1 4 1 31 -1 0
2  5 -1 0
2  31 1 4 -1 5 1 0
2  1 -1 8 1 7 -1 6 -1 5 -1 0
2  31 1 4 -1 25 1 5 1 0
2  2 -1 35 1 3 1 4 -1 5 1 6 1 7 1 8 -1 0
2  31 1 4 -1 0
2  31 1 4 -1 25 1 0
Curve2ds 100
1 -64 0 0 1 
1 0 0 0 1 
1 0 0 -1 0 
1 0 0 0 1 
1 -80 0 0 1 
1 0 0 1 0 
1 -80 40 1 0 
1 0 0 1 0 
1 -52.5 40 -0 -1 
1 0 0 0 -1 
1 -60 11 1 5.3121946479529426e-33 
7 0 0  3 25 23  0 5.2310609950839021e-66  0 0.11363636363636194  0 0.34090909090908911  0 0.68181818181818477  0 1.0227272727272727  0 1.363636363636364  0 1.7045454545454517  0 2.0454545454545481  0 2.3863636363636358  0 2.7272727272727266  0 3.0681818181818143  0 3.4090909090909109  0 3.7500000000000009  0 4.0909090909090891  0 4.4318181818181817  0 4.7727272727272734  0 5.1136363636363633  0 5.4545454545454524  0 5.795454545454545  0 6.1363636363636376  0 6.4772727272727257  0 6.8181818181818175  0 7.1590909090909083  -0 7.3863636363636358  0 7.5 
 0 4 0.34090909090909088 1 0.68181818181818177 1 1.0227272727272727 1 1.3636363636363635 1 1.7045454545454544 1 2.0454545454545454 1 2.3863636363636362 1 2.7272727272727271 1 3.0681818181818179 1 3.4090909090909087 1 3.7499999999999996 1 4.0909090909090908 1 4.4318181818181817 1 4.7727272727272725 1 5.1136363636363633 1 5.4545454545454541 1 5.795454545454545 1 6.1363636363636358 1 6.4772727272727266 1 6.8181818181818175 1 7.1590909090909083 1 7.5 4
1 -64 11 1 5.3121946479529426e-33 
7 0 0  3 25 23  0 -4  0 -3.9393939393939377  0 -3.8181818181818161  0 -3.636363636363638  0 -3.454545454545451  0 -3.2727272727272751  0 -3.0909090909090886  0 -2.9090909090909114  0 -2.7272727272727249  0 -2.5454545454545476  0 -2.3636363636363633  0 -2.181818181818179  0 -2  0 -1.8181818181818206  0 -1.6363636363636371  0 -1.4545454545454515  0 -1.2727272727272754  0 -1.0909090909090882  0 -0.90909090909091139  0 -0.72727272727272541  0 -0.54545454545454775  0 -0.36363636363636348  0 -0.18181818181817927  -0 -0.060606060606058929  0 5.2310609950839021e-66 
 2.1400661824757962e-79 4 0.18181818181818182 1 0.36363636363636365 1 0.54545454545454541 1 0.72727272727272729 1 0.90909090909090917 1 1.0909090909090908 1 1.2727272727272727 1 1.4545454545454546 1 1.6363636363636365 1 1.8181818181818183 1 2 1 2.1818181818181817 1 2.3636363636363638 1 2.5454545454545454 1 2.7272727272727275 1 2.9090909090909092 1 3.0909090909090908 1 3.2727272727272729 1 3.4545454545454546 1 3.6363636363636367 1 3.8181818181818183 1 4 4
1 -64 2.0540812147627597e-60 0 1 
1 0 -1.281898970984144e-30 0 1 
1 -3.1415926535897931 10 1 0 
2 5.8499999999999979 4 -1 6.2033311546931316e-49 6.2033311546931316e-49 1 4
7 0 0  7 14 3  1.4903410061606337e-08 11  0.049447403199735729 10.901104891825486  0.098881944277464912 10.802237001284865  0.14835277813514527 10.704576735180382  0.19788378577989843 10.609364615353845  0.24748011747700821 10.517921348430187  0.2971323523693355 10.431679939645795  0.40130514051124444 10.265102880608193  0.45579796902932673 10.186198718514589  0.51028716007158459 10.117566734306303  0.56460225592017588 10.061728097074544  0.61844553110815514 10.021542003252783  0.67137454976047173 10  0.72273424781341566 10 
 0 8 0.47695696720279213 6 1 8
7 0 0  3 25 23  0 -3.9999999403863562  0.021991001904185525 -3.9560181430881172  0.065970482762659294 -3.8680590338301428  0.13199953739802686 -3.7362521696357702  0.19815668505045433 -3.6046929875207567  0.26450718423715547 -3.4735059843879452  0.33111560706941645 -3.3428207122399312  0.39804634774307723 -3.2127721112883618  0.4653645604658686 -3.0834997250122442  0.53313690326432162 -2.955147311723588  0.60143273139963116 -2.8278618049836886  0.670324201151281 -2.701794298938176  0.73989121527027846 -2.5770934019556684  0.81019195747688 -2.4539576162768015  0.88131208383080206 -2.332548446175879  0.95332802651765836 -2.2130574782374146  1.0263140382362832 -2.0956926458972318  1.1003421184754536 -1.9806776881333104  1.1754837554516797 -1.8682481556679331  1.251811171307263 -1.7586484094473185  1.3293986297411182 -1.6521284982856201  1.4083241768344874 -1.5489409426721168  1.4886701434674532 -1.4493384491725925  1.5432428439030832 -1.3854917830674367  1.5707963267948968 -1.3542486889354102 
 0 4 0.045454545454545456 1 0.090909090909090912 1 0.13636363636363635 1 0.18181818181818182 1 0.22727272727272729 1 0.27272727272727271 1 0.31818181818181818 1 0.36363636363636365 1 0.40909090909090912 1 0.45454545454545459 1 0.5 1 0.54545454545454541 1 0.59090909090909094 1 0.63636363636363635 1 0.68181818181818188 1 0.72727272727272729 1 0.77272727272727271 1 0.81818181818181823 1 0.86363636363636365 1 0.90909090909090917 1 0.95454545454545459 1 1 4
1 1.5707963267948966 0 0 1 
1 5.8500000000000005 3.9898639947466563e-16 -9.9579925010296308e-17 -1 
1 -3.1415926535897931 0 1 0 
2 -3.9999999999999996 64 -1 0 0 1 4
1 0 0 0 1 
1 0 0 -1 0 
2 -3.9999999999999996 16 1 0 -0 1 4
1 0 10.000000000000002 1 0 
1 -6.7053176943786003e-30 0 1 0 
1 40 0 0 -1 
1 5 20 -1 0 
1 0 0 1 0 
1 15 0 0 1 
1 0 0 -1 0 
2 -9.8626305774847172 40 0 -1 1 0 20.000003988286792
1 0 0 1 0 
1 -6.7053176943786003e-30 80 1 0 
1 0 0 0 -1 
1 -9.8499999999999996 60 1 0 
1 0 0 1 0 
2 -5.4687157580168899e-15 40 0 1 1 -0 12.500000000000004
1 0 -40 1 0 
1 40 0 0 -1 
1 0 0 -0 -1 
1 -1.7157434800794709e-15 -15 1 0 
1 -80 0 0 1 
2 40 3.944304526105059e-31 -1 0 -0 -1 12.500000000000004
1 0 0 1 0 
1 0 0 1 0 
1 -80 40 1 0 
1 80 0 -0 -1 
1 0 0 0 -1 
1 -0 -15 1 0 
1 -80 40 1 0 
8 -44 4.0000000112172529e-07
1 3.1415926535897931 -8.9950426612005531e-47 0 1 
8 -44 4.0000000112172529e-07
1 -27.499999999999996 40 0 1 
7 0 0  8 23 4  3.1415926535897931 -29  3.1415926535897931 -29.047356565147144  3.1417976959690819 -29.09472051076829  3.1422078898551202 -29.141923969315737  3.1428222239061019 -29.188800859481738  3.1436386277537056 -29.235188842043137  3.144654089127767 -29.280931027088279  3.1458648266628861 -29.325877432626211  3.1498460996380677 -29.450877025348344  3.1530077785114701 -29.526662307908587  3.1566289244239751 -29.595416994151392  3.1605609217585831 -29.656675949163699  3.1646790295782412 -29.710428601276625  3.1688625345285355 -29.756912086675477  3.172995327105089 -29.796530901084161  3.1837757672629987 -29.887104487737123  3.1902890278378089 -29.927285924571553  3.1963859722218562 -29.955735866965647  3.2020724773839371 -29.975334310984429  3.2073712698908565 -29.988356397109008  3.2123460811776479 -29.996248285228759  3.2170804694780122 -30  3.2216782336234515 -30 
 0 9 0.16633727079939845 7 0.47245344295432634 7 1 9
7 0 0  3 47 45  0 32.5  0.017254781219897361 32.499999857651844  0.051766501877038934 32.500000113455378  0.10353742265365254 32.499999384007381  0.15530805723697544 32.499995467955557  0.20707649857350086 32.4999839776413  0.25884313377515422 32.499959082111729  0.31060721997072394 32.49991334854105  0.3623813816659322 32.499837959681486  0.41413880107486212 32.499722561072353  0.46501854139385057 32.499559009861301  0.515029596650178 32.499338507808957  0.5640403673895219 32.499053299804167  0.6119849248090774 32.498696720313632  0.65879905297322205 32.49826349827287  0.70443048936474661 32.497749920782226  0.74883057899193517 32.497153978230024  0.79195215781610717 32.496475461116994  0.83374572628567123 32.49571605841021  0.87415973756896881 32.49487933380766  0.913128762427038 32.493971062947502  0.95060790995567324 32.492998153854778  0.98643550692915771 32.491972801648359  1.0208827767318449 32.490895692990946  1.0541297073548554 32.489768080760427  1.0862302662169703 32.488594775212896  1.1172622351503985 32.487379507488527  1.1472886952756642 32.486126124898803  1.1763697072107577 32.484838230047764  1.204560321107065 32.483519242613859  1.2319120728181419 32.482172352861589  1.2584734044447299 32.480800508499577  1.2842902594136139 32.479406396355316  1.3094065385709468 32.477992428667783  1.3338645174585579 32.476560730909817  1.3577052098569882 32.475113131567241  1.3809686902721996 32.473651153422438  1.4036943783528741 32.472176006179453  1.425921289266211 32.470688580280559  1.4476882533213518 32.46918944171243  1.4690341072229265 32.467678828083841  1.4899978639285065 32.466156644663052  1.5106188535362037 32.464622465244595  1.5309368865071886 32.463075519871907  1.5509922769459719 32.461514736922553  1.5642150045762211 32.460463971157871  1.5707963267948968 32.459935794377117 
 0 4 0.022727272727272728 1 0.045454545454545456 1 0.068181818181818177 1 0.090909090909090912 1 0.11363636363636365 1 0.13636363636363635 1 0.15909090909090909 1 0.18181818181818182 1 0.20454545454545456 1 0.22727272727272729 1 0.25 1 0.27272727272727271 1 0.29545454545454547 1 0.31818181818181818 1 0.34090909090909094 1 0.36363636363636365 1 0.38636363636363635 1 0.40909090909090912 1 0.43181818181818182 1 0.45454545454545459 1 0.47727272727272729 1 0.5 1 0.52272727272727271 1 0.54545454545454541 1 0.56818181818181823 1 0.59090909090909094 1 0.61363636363636365 1 0.63636363636363635 1 0.65909090909090906 1 0.68181818181818188 1 0.70454545454545459 1 0.72727272727272729 1 0.75 1 0.77272727272727271 1 0.79545454545454553 1 0.81818181818181823 1 0.84090909090909094 1 0.86363636363636365 1 0.88636363636363635 1 0.90909090909090917 1 0.93181818181818188 1 0.95454545454545459 1 0.97727272727272729 1 1 4
1 0 -30 1 0 
2 9.8499999999999925 -20 0 1 1 -0 12.500000000000004
7 0 0  8 23 4  6.2831853071795862 -29  6.2831853071795862 -29.047356565152146  6.2829802648002513 -29.094720510772444  6.2825700709142174 -29.141923969314682  6.2819557368633347 -29.188800859473464  6.281139333015914 -29.235188842028187  6.2801238716420462 -29.280931027069709  6.2789131341069959 -29.325877432609396  6.274931861131547 -29.45087702534288  6.2717701822582503 -29.52666230790097  6.268149036345573 -29.595416994150455  6.2642170390110881 -29.656675949158348  6.2600989311913011 -29.710428601275193  6.255915426241045 -29.75691208667347  6.2517826336643676 -29.796530901083425  6.241002193506513 -29.887104487736138  6.2344889329314892 -29.927285924572654  6.2283919885476422 -29.955735866964041  6.2227054833855062 -29.975334310985325  6.21740669087845 -29.988356397108632  6.2124318795917981 -29.996248285228798  6.2076974912913689 -30  6.2030997271459274 -30 
 0 9 0.16633727082577782 7 0.47245344297310143 7 1 9
7 0 0  3 47 45  0 7.4999999999999982  0.017254781219006136 7.5000001423481564  0.051766501872241778 7.4999998865446225  0.10353742263840693 7.5000006159926098  0.1553080572084049 7.5000045320444411  0.2070764985306788 7.5000160223586887  0.25884313371922041 7.5000409178882288  0.31060721990500784 7.5000866514588678  0.36238138159593669 7.5001620403183926  0.41413880100888623 7.5002774389274638  0.46501854133017845 7.5004409901384594  0.51502959658940195 7.5006614921907246  0.56404036733168295 7.50094670019545  0.61198492475422162 7.5013032796859154  0.65879905292127816 7.5017365017265982  0.70443048931565599 7.5022500792171591  0.74883057894566674 7.5028460217693045  0.79195215777266303 7.5035245388822549  0.83374572624505483 7.5042839415889997  0.87415973753117326 7.5051206661915  0.91312876239203256 7.5060289370516315  0.95060790992344235 7.5070018461443375  0.98643550689933435 7.5080271983507405  1.0208827767041315 7.5091043070081369  1.0541297073293916 7.5102319192386595  1.0862302661936116 7.5114052247862215  1.1172622351290094 7.5126204925106137  1.1472886952560855 7.5138738751003347  1.1763697071928494 7.5151617699514173  1.2045603210907074 7.5164807573853416  1.2319120728032342 7.5178276471376515  1.2584734044311956 7.5191994914997196  1.2842902594013827 7.5205936036440049  1.3094065385599596 7.5220075713315842  1.3338645174487553 7.5234392690895904  1.3577052098483113 7.5248868684322217  1.3809686902645859 7.5263488465770836  1.4036943783462641 7.5278239938201104  1.4259212892605448 7.5293114197190389  1.4476882533165749 7.5308105582872198  1.4690341072189979 7.5323211719158811  1.4899978639253948 7.5338433553367254  1.5106188535338911 7.5353775347552272  1.5309368865056669 7.5369244801279631  1.5509922769452331 7.5384852630773933  1.5642150045759811 7.5395360288421118  1.5707963267948968 7.5400642056228833 
 0 4 0.022727272727272728 1 0.045454545454545456 1 0.068181818181818177 1 0.090909090909090912 1 0.11363636363636365 1 0.13636363636363635 1 0.15909090909090909 1 0.18181818181818182 1 0.20454545454545456 1 0.22727272727272729 1 0.25 1 0.27272727272727271 1 0.29545454545454547 1 0.31818181818181818 1 0.34090909090909094 1 0.36363636363636365 1 0.38636363636363635 1 0.40909090909090912 1 0.43181818181818182 1 0.45454545454545459 1 0.47727272727272729 1 0.5 1 0.52272727272727271 1 0.54545454545454541 1 0.56818181818181823 1 0.59090909090909094 1 0.61363636363636365 1 0.63636363636363635 1 0.65909090909090906 1 0.68181818181818188 1 0.70454545454545459 1 0.72727272727272729 1 0.75 1 0.77272727272727271 1 0.79545454545454553 1 0.81818181818181823 1 0.84090909090909094 1 0.86363636363636365 1 0.88636363636363635 1 0.90909090909090917 1 0.93181818181818188 1 0.95454545454545459 1 0.97727272727272729 1 1 4
1 0 0 0 -1 
1 6.2831853071795862 0 0 -1 
1 8.8499999999999979 4 -6.2033311546931316e-49 -1 
7 0 0  3 25 23  1.5707963267948968 -1.3542486889354102  1.5707963267948968 -1.3337297694060875  1.570796326794897 -1.2926919303474387  1.5707963267948966 -1.231135171759461  1.570796326794897 -1.1695784131714895  1.5707963267948966 -1.1080216545835171  1.5707963267948966 -1.0464648959955443  1.5707963267948968 -0.98490813740757344  1.5707963267948966 -0.92335137881959517  1.570796326794897 -0.86179462023162412  1.5707963267948968 -0.80023786164365152  1.5707963267948966 -0.7386811030556788  1.5707963267948966 -0.67712434446770808  1.570796326794897 -0.6155675858797296  1.5707963267948966 -0.55401082729175921  1.570796326794897 -0.49245406870378539  1.5707963267948966 -0.43089731011581511  1.5707963267948966 -0.36934055152783657  1.5707963267948968 -0.30778379293986585  1.5707963267948968 -0.24622703435189294  1.570796326794897 -0.18467027576392175  1.5707963267948963 -0.12311351717594352  1.5707963267948972 -0.061556758587972576  1.5707963267948968 -0.020518919529324522  1.5707963267948968 0 
 2.6457513110645898 4 2.7073080696525631 1 2.7688648282405364 1 2.8304215868285092 1 2.8919783454164825 1 2.9535351040044557 1 3.015091862592429 1 3.0766486211804023 1 3.1382053797683751 1 3.1997621383563484 1 3.2613188969443216 1 3.3228756555322949 1 3.3844324141202682 1 3.4459891727082415 1 3.5075459312962143 1 3.5691026898841876 1 3.6306594484721608 1 3.6922162070601341 1 3.7537729656481074 1 3.8153297242360802 1 3.8768864828240535 1 3.9384432414120267 1 4 4
1 8.8499999999999979 0 -6.2033311546931316e-49 -1 
7 0 0  3 25 23  1.5707963267948968 0  1.5707963267948968 0.11424339705489217  1.5707963267948968 0.34273019116467651  1.5707963267948968 0.68546038232935314  1.5707963267948966 1.0281905734940293  1.5707963267948963 1.3709207646587058  1.5707963267948968 1.7136509558233823  1.5707963267948966 2.0563811469880586  1.5707963267948966 2.3991113381527356  1.5707963267948968 2.7418415293174125  1.5707963267948966 3.0845717204820877  1.5707963267948966 3.4273019116467647  1.5707963267948966 3.7700321028114407  1.5707963267948968 4.1127622939761173  1.5707963267948966 4.4554924851407938  1.5707963267948966 4.7982226763054703  1.5707963267948966 5.1409528674701477  1.5707963267948966 5.4836830586348233  1.5707963267948966 5.8264132497994998  1.5707963267948966 6.1691434409641772  1.5707963267948966 6.5118736321288528  1.5707963267948966 6.8546038232935294  1.5707963267948972 7.1973340144582076  1.5707963267948968 7.4258208085679911  1.5707963267948968 7.5400642056228833 
 0 4 0.34273019116467651 1 0.68546038232935302 1 1.0281905734940295 1 1.370920764658706 1 1.7136509558233826 1 2.0563811469880591 1 2.3991113381527356 1 2.7418415293174121 1 3.0845717204820886 1 3.4273019116467651 1 3.7700321028114416 1 4.1127622939761181 1 4.4554924851407947 1 4.7982226763054712 1 5.1409528674701477 1 5.4836830586348242 1 5.8264132497995007 1 6.1691434409641772 1 6.5118736321288537 1 6.8546038232935302 1 7.1973340144582068 1 7.5400642056228833 4
1 8.8499999999999979 0 -6.2033311546931316e-49 -1 
7 0 0  3 25 23  1.5707963267948968 32.459935794377117  1.5707963267948968 32.574179191432009  1.5707963267948968 32.802665985541786  1.5707963267948968 33.14539617670647  1.5707963267948966 33.488126367871132  1.5707963267948963 33.830856559035823  1.5707963267948968 34.173586750200492  1.5707963267948966 34.516316941365176  1.5707963267948966 34.859047132529845  1.5707963267948968 35.201777323694529  1.5707963267948966 35.544507514859191  1.5707963267948966 35.887237706023882  1.5707963267948966 36.229967897188551  1.5707963267948968 36.572698088353235  1.5707963267948966 36.915428279517904  1.5707963267948966 37.258158470682588  1.5707963267948966 37.600888661847257  1.5707963267948966 37.943618853011941  1.5707963267948966 38.28634904417661  1.5707963267948966 38.629079235341294  1.5707963267948966 38.97180942650597  1.5707963267948966 39.31453961767064  1.5707963267948972 39.657269808835331  1.5707963267948968 39.885756602945108  1.5707963267948968 40 
 32.459935794377117 4 32.802665985541793 1 33.14539617670647 1 33.488126367871146 1 33.830856559035823 1 34.173586750200499 1 34.516316941365176 1 34.859047132529852 1 35.201777323694529 1 35.544507514859205 1 35.887237706023882 1 36.229967897188558 1 36.572698088353235 1 36.915428279517911 1 37.258158470682588 1 37.600888661847264 1 37.943618853011941 1 38.286349044176617 1 38.629079235341294 1 38.97180942650597 1 39.314539617670647 1 39.657269808835323 1 40 4
1 8.8499999999999979 -40 -6.2033311546931316e-49 -1 
7 0 0  3 25 23  1.5707963267948968 40  1.5707963267948968 40.020518919529323  1.5707963267948966 40.061556758587962  1.5707963267948972 40.123113517175952  1.5707963267948966 40.184670275763921  1.5707963267948968 40.246227034351882  1.5707963267948963 40.307783792939858  1.5707963267948968 40.369340551527849  1.5707963267948966 40.430897310115789  1.570796326794897 40.492454068703793  1.5707963267948966 40.554010827291755  1.570796326794897 40.615567585879738  1.5707963267948968 40.677124344467693  1.5707963267948966 40.738681103055676  1.5707963267948966 40.800237861643645  1.570796326794897 40.86179462023162  1.5707963267948968 40.923351378819596  1.5707963267948968 40.984908137407579  1.5707963267948966 41.046464895995541  1.5707963267948966 41.10802165458351  1.5707963267948968 41.1695784131715  1.5707963267948966 41.231135171759455  1.5707963267948972 41.292691930347438  1.5707963267948968 41.333729769406077  1.5707963267948968 41.354248688935407 
 0 4 0.061556758587973111 1 0.12311351717594622 1 0.18467027576391934 1 0.24622703435189244 1 0.30778379293986557 1 0.36934055152783868 1 0.43089731011581178 1 0.49245406870378489 1 0.55401082729175799 1 0.61556758587973115 1 0.6771243444677042 1 0.73868110305567736 1 0.80023786164365041 1 0.86179462023162356 1 0.92335137881959661 1 0.98490813740756977 1 1.0464648959955429 1 1.108021654583516 1 1.169578413171489 1 1.2311351717594623 1 1.2926919303474353 1 1.3542486889354084 4
2 5.8499999999999979 -44 1 -6.2033311546931316e-49 6.2033311546931316e-49 1 4
1 0 0 1 0 
1 14.849999999999998 -40 -1 9.1345170786061748e-50 
1 6.593308706557319e-16 -10 1 0 
2 -0.012630577484719296 -20 -8.9252773000916077e-67 -1 1 -8.9252773000916077e-67 20.000003988286792
1 0 -10 1 0 
1 -1.7763568394002505e-15 -5.3687013478437484e-65 1 -9.1345170786061748e-50 
1 2.2884754904439333e-16 -10 1 0 
1 -6.0396132539608516e-13 -3.5527136788005151e-15 0 -1 
1 3.140961124799575 0 0 -1 
1 0 40 -0 -1 
1 0 0 1 0 
1 -16 10.000000000000002 0 -1 
1 0 0 0 1 
1 -16 10.000000000000002 0 1 
1 0 1.281898970984144e-30 0 -1 
1 -20 11 1 5.3121946479529426e-33 
7 0 0  3 25 23  0 40  0 40.060606060606069  0 40.181818181818194  0 40.363636363636353  0 40.545454545454547  0 40.727272727272727  0 40.909090909090899  0 41.090909090909101  0 41.272727272727273  0 41.454545454545446  0 41.63636363636364  0 41.81818181818182  0 42  0 42.18181818181818  0 42.363636363636353  0 42.545454545454547  0 42.727272727272734  0 42.909090909090907  0 43.090909090909093  0 43.272727272727273  0 43.454545454545439  0 43.636363636363647  0 43.81818181818182  -0 43.939393939393938  0 44 
 0 4 0.18181818181818182 1 0.36363636363636365 1 0.54545454545454541 1 0.72727272727272729 1 0.90909090909090917 1 1.0909090909090908 1 1.2727272727272727 1 1.4545454545454546 1 1.6363636363636365 1 1.8181818181818183 1 2 1 2.1818181818181817 1 2.3636363636363638 1 2.5454545454545454 1 2.7272727272727275 1 2.9090909090909092 1 3.0909090909090908 1 3.2727272727272729 1 3.4545454545454546 1 3.6363636363636367 1 3.8181818181818183 1 4 4
1 -60 11 1 5.3121946479529426e-33 
7 0 0  3 25 23  0 32.5  0 32.613636363636367  0 32.840909090909093  0 33.18181818181818  0 33.522727272727273  0 33.86363636363636  0 34.204545454545453  0 34.545454545454547  0 34.886363636363626  0 35.227272727272734  0 35.568181818181813  0 35.909090909090899  0 36.250000000000007  0 36.590909090909086  0 36.93181818181818  0 37.27272727272728  0 37.61363636363636  0 37.95454545454546  0 38.295454545454547  0 38.636363636363626  0 38.977272727272734  0 39.31818181818182  0 39.659090909090899  -0 39.886363636363633  0 40 
 32.5 4 32.840909090909093 1 33.18181818181818 1 33.522727272727273 1 33.863636363636367 1 34.204545454545453 1 34.545454545454547 1 34.886363636363633 1 35.227272727272727 1 35.56818181818182 1 35.909090909090907 1 36.25 1 36.590909090909093 1 36.93181818181818 1 37.272727272727273 1 37.61363636363636 1 37.954545454545453 1 38.295454545454547 1 38.636363636363633 1 38.977272727272727 1 39.31818181818182 1 39.659090909090907 1 40 4
7 0 0  7 14 3  -1.4901943679035412e-08 -0.99999999999999822  0.049447418816770887 -0.90110498822788643  0.098881903946917968 -0.80223696793243082  0.14835276909744774 -0.70457675274223686  0.19788379648776738 -0.60936466449717108  0.24748010267482126 -0.51792133678778163  0.29713235010296707 -0.4316799432686303  0.4013051406621263 -0.26510288036823237  0.45579796929505745 -0.18619871813512634  0.51028716041060862 -0.11756673389805099  0.56460225627730543 -0.061728096752056552  0.61844553141964242 -0.021542003090279503  0.67137454995427337 1.8064976597953475e-15  0.72273424781341622 1.8064976597953475e-15 
 0 8 0.4769569779880759 6 1 8
7 0 0  3 25 23  0 44.000000059607771  0.021990982175327866 43.956018227068661  0.065970443572956047 43.868059082409417  0.13199950364963503 43.736252224891658  0.19815665810387817 43.604693049132194  0.2645071598799858 43.473506043162921  0.33111558189111323 43.342820761475764  0.39804632220985564 43.212772152330082  0.46536453712706599 43.083499763684962  0.53313688378959601 42.955147352075564  0.60143271481271099 42.827861845125831  0.67032418413409611 42.701794330607832  0.73989119946994419 42.577093429714637  0.81019194318422283 42.453957641038933  0.88131207096377406 42.332548467799448  0.95332801509587273 42.213057496880388  1.0263140282530669 42.095692661655328  1.1003421099314166 41.980677701137694  1.1754837483450686 41.868248166059409  1.2518111656358644 41.758648417383164  1.3293986255010239 41.65212850393727  1.4083241740195331 41.548940946225073  1.4886701420684383 41.449338450825429  1.5432428434387593 41.385491783593686  1.5707963267948968 41.354248688935407 
 0 4 0.045454545454545456 1 0.090909090909090912 1 0.13636363636363635 1 0.18181818181818182 1 0.22727272727272729 1 0.27272727272727271 1 0.31818181818181818 1 0.36363636363636365 1 0.40909090909090912 1 0.45454545454545459 1 0.5 1 0.54545454545454541 1 0.59090909090909094 1 0.63636363636363635 1 0.68181818181818188 1 0.72727272727272729 1 0.77272727272727271 1 0.81818181818181823 1 0.86363636363636365 1 0.90909090909090917 1 0.95454545454545459 1 1 4
1 1.5707963267948966 0 0 1 
1 9 -10.000000000000002 -9.9579925010296308e-17 1 
1 1.7157434800794709e-15 -15 1 0 
1 0 40 -0 -1 
1 14.850000000000609 -3.892552289131439e-15 0 -1 
1 6.2838168359698043 0 0 -1 
Curves 50
1 24 20 4.4408920985006262e-16 -0 -1 -3.2047474274603605e-31 
1 -40 20 0 1 0 0 
1 40 20 0 0 -1 0 
1 40 -20 0 -1 0 0 
1 12.5 -20 -2.4492935982947065e-15 -0 1 1.2246467991473532e-16 
1 20 9 0 -1 -5.3121946479529426e-33 -1.7024242132195888e-63 
1 24 9 0 -1 -5.3121946479529426e-33 -1.7024242132195888e-63 
8 10 11
1 24 20 0 -0 -1 -3.2047474274603605e-31 
8 3.1415926535897927 4.7123889803846897
2 24 9.9999999999999982 -3.9999999999999996 -0 -1 -3.2047474274603605e-31 0 3.2047474274603605e-31 -1 1 -0 0 4
8 0 1
7 0 0  7 14 3  23.999999940386356 9 0  23.80221034574538 9.0988951081745224 -1.8135290507410266e-08  23.604472372846207 9.1977629987151204 -0.011410151781911708  23.407378527022086 9.29542326481962 -0.034220057688378269  23.211622795952429 9.3906353846461634 -0.068418172417602438  23.01798070362933 9.4820786515698074 -0.11393576100829976  22.82728127920571 9.5683200603542051 -0.17060972484884029  22.435400352133669 9.734897119391805 -0.31224607479229777  22.235116472015083 9.8138012814853877 -0.39936558123854404  22.040551531820086 9.8824332656937628 -0.49915625074978986  21.853303479474636 9.9382719029253792 -0.61092065209857227  21.675256924239154 9.9784579967472506 -0.73331024811924572  21.508327783094241 10 -0.86411501154054227  21.35424868893541 10 -1.0000000000000002 
 0 8 0.47695696720279213 6 1 8
1 20 20 -3.9999999999999991 -0 -1 -3.2047474274603605e-31 
8 3.1415926535897931 4.7123889803846897
2 24 20 -3.9999999999999996 -0 -1 -3.2047474274603605e-31 0 3.2047474274603605e-31 -1 1 -0 0 4
1 -40 20 0 1 0 0 
8 3.2047474274603605e-31 1.5707963267948963
2 -24 20 -3.9999999999999996 0 1 3.2047474274603605e-31 0 -3.2047474274603605e-31 1 1 0 -0 4
1 -40 20 -2.4492935982947065e-15 0 1.2246467991473532e-16 1 
1 20 5 0 0 -1 0 
1 -40 20 0 1 0 0 
2 9.2211913722089139e-20 -9.8626305774847172 0 0 0 1 1 0 -0 -0 1 0 20.000003988286792
1 40 20 -2.4492935982947065e-15 0 1.2246467991473532e-16 1 
1 -20 -9.8499999999999996 0 0 1 0 
2 0 20 -3.0194221597221771e-15 0 -1 1.4253214035686764e-17 1 0 0 -0 1.4253214035686764e-17 1 12.500000000000004
1 40 -20 2.4492935982947065e-15 0 1.2246467991473532e-16 1 
1 40 20 0 0 -1 0 
2 0 0 0 0 0 1 1 0 -0 -0 1 0 12.5
1 40 -20 0 -1 0 0 
1 -40 -20 2.4492935982947065e-15 0 1.2246467991473532e-16 1 
1 40 -20 0 -1 0 0 
1 -12.500000000000004 -20 -2.4492935982947128e-15 0 -1 1.4253214035686764e-17 
7 0 0  8 23 4  -12.5 9 1.1102230246251565e-15  -12.5 9.0473565651471386 1.1102230246251565e-15  -12.499999997466613 9.094720510768294 -0.0025630298938848178  -12.50000000376958 9.1419239693157319 -0.0076904530932456984  -12.499997057839494 9.1888008594817308 -0.015369628889537626  -12.499985272367667 9.235188842043133 -0.025574677381465079  -12.499956012637485 9.2809310270882701 -0.03826792989619756  -12.499898207987155 9.3258774326262035 -0.053402064904421537  -12.499615844444898 9.4508770253483423 -0.10316717604577075  -12.499296542228466 9.526662307908655 -0.14268698666788926  -12.498774586387746 9.5954169941511349 -0.18794874886050894  -12.497986638617361 9.6566759491640859 -0.23709344287014877  -12.496904621884385 9.7104286012763268 -0.28855972713492395  -12.495537741644322 9.756912086675575 -0.34083671397262916  -12.493935086829316 9.7965309010841573 -0.39247224070878928  -12.489170965013107 9.8871044877371208 -0.52714350139773403  -12.485628109788905 9.9272859245714979 -0.60848485790651641  -12.481710794672511 9.9557358669658171 -0.68459968645970415  -12.477571317259377 9.9753343109841843 -0.75556324415891474  -12.473307781776036 9.9883563971091807 -0.82166299468387272  -12.468967019506133 9.996248285228706 -0.88369782244804751  -12.464533558522556 10 -0.94271215395013652  -12.459935794377117 10 -0.99999999999999889 
 0 9 0.16633727079939845 7 0.47245344295432634 7 1 9
2 0 9.9999999999999982 -2.8768900193653094e-15 0 -1 1.4253214035686764e-17 1 0 0 -0 1.4253214035686764e-17 1 12.500000000000004
7 0 0  8 23 4  12.500000000000002 9 1.1102230246251565e-15  12.500000000000002 9.0473565651521497 1.1102230246251565e-15  12.499999997466604 9.0947205107724383 -0.0025630298944343782  12.500000003769577 9.1419239693146874 -0.0076904530937497396  12.499997057839494 9.1888008594734654 -0.015369628888818716  12.499985272367674 9.2351888420281831 -0.025574677378466169  12.499956012637503 9.2809310270696983 -0.038267929890770429  12.499898207987185 9.3258774326093921 -0.053402064898146188  12.499615844444923 9.45087702534288 -0.10316717604282977  12.49929654222854 9.5266623079009225 -0.14268698666354362  12.498774586387725 9.5954169941505825 -0.18794874885856605  12.497986638617498 9.6566759491581653 -0.23709344286641132  12.496904621884408 9.7104286012753267 -0.28855972713284261  12.495537741644393 9.7569120866734238 -0.34083671397016158  12.493935086829353 9.7965309010834218 -0.39247224070781306  12.489170965013178 9.8871044877361349 -0.52714350139607169  12.485628109788848 9.9272859245727023 -0.60848485790755924  12.481710794672653 9.9557358669638916 -0.68459968645812919  12.477571317259331 9.9753343109855042 -0.75556324415829201  12.473307781776061 9.9883563971085199 -0.82166299468460091  12.468967019506165 9.996248285228825 -0.88369782244729977  12.464533558522559 10 -0.94271215395010766  12.459935794377117 10 -0.99999999999999889 
 0 9 0.16633727082577782 7 0.47245344297310143 7 1 9
1 12.5 -20 -2.4492935982947065e-15 -0 1 1.2246467991473532e-16 
1 24 10 -1.0000000000000002 -1 -5.3121946479529426e-33 -1.7024242132195888e-63 
1 20 10 -1.0000000000000002 -1 -5.3121946479529426e-33 -1.7024242132195888e-63 
1 20 10 -1.0000000000000002 -1 -5.3121946479529426e-33 -1.7024242132195888e-63 
1 -20 10 -1.0000000000000002 -1 -5.3121946479529426e-33 -1.7024242132195888e-63 
8 4.4408920985006291e-16 1.5707963267948966
2 -24 9.9999999999999982 -3.9999999999999996 0 1 3.2047474274603605e-31 0 -3.2047474274603605e-31 1 1 0 -0 4
1 20 5 0 0 -1 0 
2 9.2211913722089139e-20 -9.8626305774847172 0 0 0 1 1 0 -0 -0 1 0 20.000003988286792
1 -20 -9.8499999999999996 0 0 1 0 
1 20 19.999999999999996 -9.8500000000006036 -0 -1 9.9579925010295987e-17 
1 -40 -20 0 0 1 0 
1 -24 9.9999999999999982 4.4408920985006262e-16 0 1 3.2047474274603605e-31 
8 -1.7763568394002505e-15 0.99999999999999822
1 -24 9.9999999999999982 0 -0 -1 -3.2047474274603605e-31 
1 -20 9 0 -1 -5.3121946479529426e-33 -1.7024242132195888e-63 
1 20 9 0 -1 -5.3121946479529426e-33 -1.7024242132195888e-63 
8 0 1
7 0 0  7 14 3  -24.000000059607775 9 0  -23.80221028332107 9.0988950117721128 -1.5333258472440192e-08  -23.604472533870766 9.1977630320675683 -0.011410145094781303  -23.407378562758442 9.2954232472577605 -0.034220051381704322  -23.211622752504418 9.3906353355028251 -0.06841816658985421  -23.017980762008751 9.4820786632122172 -0.11393575502496774  -22.827281287730731 9.568320056731368 -0.17060972176553446  -22.435400351566827 9.734897119631766 -0.31224607499950902  -22.235116471041238 9.8138012818648832 -0.39936558167129621  -22.04055153062049 9.8824332661019127 -0.49915625139367747  -21.85330347826622 9.9382719032479834 -0.61092065287354624  -21.675256923243367 9.9784579969097003 -0.73331024887358354  -21.508327782512836 10 -0.86411501205329155  -21.354248688935407 10 -1.0000000000000002 
 0 8 0.4769569779880759 6 1 8
1 -20 9.9999999999999982 -3.9999999999999991 0 1 3.2047474274603605e-31 
1 -40 -20 0 0 1 0 
1 -20 19.999999999999996 -9.8500000000006072 -0 -1 9.9579925010295987e-17 
Polygon3D 0
PolygonOnTriangulations 0
Surfaces 16
1 -40 -20 0 0 0 -1 -1 0 -0 0 1 0 
2 24 20 -3.9999999999999996 -0 -1 -3.2047474274603605e-31 0 -3.2047474274603605e-31 1 -1 0 0 4
1 -40 20 6.4094948549207209e-30 0 1 0 0 -0 1 1 0 -0 
1 40 20 -2.4492935982947065e-15 1 0 -0 0 -1 1.2246467991473532e-16 0 -1.2246467991473532e-16 -1 
1 40 -20 2.4492935982947065e-15 0 -1 1.2246467991473532e-16 -1 0 0 -0 -1.2246467991473532e-16 -1 
2 0 -20 -2.4492935982947065e-15 0 -1 1.4253214035686764e-17 1 0 0 -0 1.4253214035686764e-17 1 12.500000000000004
2 20 9 -0.99999999999999889 -1 -5.3121946479529426e-33 -6.5055621720632891e-49 -1.5652849955900918e-65 -1.2246467991473564e-16 1 -5.3121946479529426e-33 1 1.2246467991473564e-16 1
1 20 -19.999999999999996 9.8500000000000014 -5.3121946479529426e-33 -1 2.3923997837040415e-16 0 -2.3923997837040415e-16 -1 1 -5.3121946479529426e-33 1.2708893326756387e-48 
1 20 20 -9.8499999999999996 -1 0 0 0 9.9579925010295987e-17 1 0 1 -9.9579925010295987e-17 
1 -40 -20 0 0 0 -1 -1 0 -0 0 1 0 
2 -24 9.9999999999999982 -3.9999999999999996 0 1 3.2047474274603605e-31 0 -3.2047474274603605e-31 1 1 0 -0 4
1 -40 -20 2.4492935982947065e-15 -1 0 0 0 1 -1.2246467991473532e-16 -0 -1.2246467991473532e-16 -1 
1 -20 20 5 1 0 0 0 -9.9579925010295987e-17 -1 0 1 -9.9579925010295987e-17 
1 -40 -20 0 0 0 -1 -1 0 -0 0 1 0 
2 -9.2211913722089139e-20 20 -9.8626305774847172 0 1 -9.9579925010295987e-17 -1 0 0 0 9.9579925010295987e-17 1 20.000003988286792
2 20 9 -0.99999999999999889 -1 -5.3121946479529426e-33 -6.5055621720632891e-49 -1.5652849955900918e-65 -1.2246467991473564e-16 1 -5.3121946479529426e-33 1 1.2246467991473564e-16 1
Triangulations 0

TShapes 120
Ve
1e-07
24 -20 -2.89338280814477e-15
0 0

0101101
*
Ve
0.0001
24 -10 -1.66873600899741e-15
0 0

0101101
*
Ed
 1e-07 1 1 0
1  1 0 0 10
2  1 1 11 0 10
2  2 2 0 0 10
4 G1 1 11 2 0
0

0101000
+120 12 -119 12 *
Ve
1.00000001776357e-07
40 -20 -2.4492935982947e-15
0 0

0101101
*
Ed
 1e-07 1 1 0
1  2 0 64 80
2  3 1 15 64 80
2  4 3 16 64 80
0

0101000
+120 17 -117 17 *
Ve
1.00000001776357e-07
40 20 2.4492935982947e-15
0 0

0101101
*
Ed
 1.00000001776357e-07 1 1 0
1  3 0 0 40
2  5 1 15 0 40
2  6 4 18 0 40
0

0101000
+117 17 -115 17 *
Ve
1.00000001776357e-07
12.5 20 2.44929359829471e-15
0 0

0101101
*
Ed
 1.00000001776357e-07 1 1 0
1  4 0 0 27.5
2  7 1 15 0 27.5
2  8 5 18 0 27.5
0

0101000
+115 17 -113 17 *
Ve
1.0000100116861e-07
12.5 -9 -1.10218211923262e-15
0 0

0101101
*
Ed
 1e-07 1 1 0
1  5 0 0 29
2  9 1 9 0 29
2  10 6 0 0 29
0

0101000
+113 19 -111 19 *
Ve
1e-07
20 -9 -1.10218211923262e-15
0 0

0101101
*
Ed
 1e-07 1 1 0
1  6 0 0 7.5
2  11 1 21 0 7.5
2  12 7 22 0 7.5
0

0101000
+109 23 -111 23 *
Ve
0.00692475008874214
24 -9 -1.10218211923262e-15
0 0

0101101
*
Ed
 1e-07 1 1 0
1  7 0 2.1400661824758e-79 4
2  13 1 21 2.1400661824758e-79 4
2  14 7 22 2.1400661824758e-79 4
0

0101000
+107 23 -109 23 *
Ed
 1e-07 1 1 0
1  8 0 10 11
2  15 1 21 10 11
2  16 2 6 10 11
0

0101000
+119 23 -107 23 *
Wi

0101000
+118 10 -116 14 -114 14 -112 14 -110 0 +108 20 +106 20 +105 20 *
Fa
0  1e-07 1 9

0101000
+104 0 *
Ve
1e-07
21.3542486889354 -10 0.999999999999999
0 0

0101101
*
Ve
1e-07
20 -10 4
0 0

0101101
*
Ed
 1e-07 1 1 0
1  9 0 3.86432690140321 4.71238898038469
2  17 2 0 3.86432690140321 4.71238898038469
2  18 8 26 3.86432690140321 4.71238898038469
0

0101000
+102 12 -101 12 *
Ed
 1e-07 1 1 0
1  10 0 0 1
2  19 2 6 0 1
2  20 7 22 0 1
0

0101000
+107 23 -102 23 *
Ve
1e-07
20 -20 4
0 0

0101101
*
Ed
 1e-07 1 1 0
1  11 0 3.98986399474666e-16 10
2  21 2 0 3.98986399474666e-16 10
2  22 9 5 3.98986399474666e-16 10
4 G1 2 0 9 5
0

0101000
+98 12 -101 12 *
Ed
 1e-07 1 1 0
1  12 0 3.14159265358979 4.71238898038469
2  23 2 0 3.14159265358979 4.71238898038469
2  24 3 5 3.14159265358979 4.71238898038469
0

0101000
+120 12 -98 12 *
Wi

0101100
-100 6 -99 0 +97 6 -105 0 +96 6 -118 6 *
Fa
0  1e-07 2 0

0101000
+95 24 *
Ve
1e-07
-24 -20 -2.89338280814477e-15
0 0

0101101
*
Ve
1.00000001776357e-07
-40 -20 -2.4492935982947e-15
0 0

0101101
*
Ed
 1e-07 1 1 0
1  13 0 0 16
2  25 3 16 0 16
2  26 10 15 0 16
0

0101000
-93 17 +92 17 *
Ve
1e-07
-20 -20 4
0 0

0101101
*
Ed
 1e-07 1 1 0
1  14 0 3.20474742746036e-31 1.5707963267949
2  27 3 5 3.20474742746036e-31 1.5707963267949
2  28 11 0 3.20474742746036e-31 1.5707963267949
0

0101000
+93 12 -90 12 *
Ve
1.00000001776357e-07
-40 -20 -15
0 0

0101101
*
Ed
 1e-07 1 1 0
1  15 0 0 15
2  29 3 29 0 15
2  30 12 0 0 15
0

0101000
+92 30 -88 30 *
Ve
1.00000607514039e-07
-20 -20 9.8500000000006
0 0

0101101
*
Ed
 1e-07 1 1 0
1  16 0 9 14.85
2  31 3 33 9 14.85
2  32 13 33 9 14.85
0

0101000
+90 34 -86 34 *
Ve
1.00000001776357e-07
40 -20 -15
0 0

0101101
*
Ed
 1e-07 1 1 0
1  17 0 0 80
2  33 3 37 0 80
2  34 14 15 0 80
0

0101000
+88 38 -84 38 *
Ve
1.00000603961325e-07
20 -20 9.8500000000006
0 0

0101101
*
Ed
 1e-07 1 1 0
1  18 0 3.14096112479958 6.2838168359698
2  35 3 33 3.14096112479958 6.2838168359698
2  36 15 33 3.14096112479958 6.2838168359698
0

0101000
+82 34 -86 34 *
Ed
 1e-07 1 1 0
1  19 0 0 15
2  37 3 29 0 15
2  38 4 0 0 15
0

0101000
+117 30 -84 30 *
Ed
 1e-07 1 1 0
1  20 0 0 5.85
2  39 3 33 0 5.85
2  40 9 33 0 5.85
0

0101000
-98 34 +82 34 *
Wi

0101000
-91 14 -89 10 +87 28 -85 32 +83 36 +81 32 -80 28 -79 32 -116 14 +96 10 
*
Ve
2.00001e-07
12.5 -20 -2.44929359829471e-15
0 0

0101101
*
Ed
 1e-07 1 1 0
1  21 0 0 6.28318530717959
2  41 3 27 0 6.28318530717959
2  42 6 0 0 6.28318530717959
0

0101100
+77 19 -77 19 *
Wi

0101000
+76 0 *
Fa
0  1e-07 3 27

0101000
+78 0 +75 0 *
Ve
1.00000001776357e-07
40 20 -15
0 0

0101101
*
Ed
 1e-07 1 1 0
1  22 0 0 15
2  43 4 0 0 15
2  44 5 0 0 15
0

0101000
+115 30 -73 30 *
Ed
 1.00000001776357e-07 1 1 0
1  23 0 0 40
2  45 4 41 0 40
2  46 14 15 0 40
0

0101000
+84 38 -73 38 *
Wi

0101000
+80 0 -72 0 -114 39 +71 40 *
Fa
0  1e-07 4 0

0101000
+70 0 *
Ve
1.000004827165e-07
-12.5 20 -4.78487568801553e-13
0 0

0101101
*
Ed
 1e-07 1 1 0
1  24 0 0 3.14159265358975
2  47 5 44 0 3.14159265358975
2  48 6 45 0 3.14159265358975
0

0101000
+113 46 -68 46 *
Ve
1.00000001776357e-07
-40 20 2.4492935982947e-15
0 0

0101101
*
Ed
 1.00000001776357e-07 1 1 0
1  25 0 52.5 80
2  49 5 18 52.5 80
2  50 10 15 52.5 80
0

0101000
+68 17 -66 17 *
Ve
1.00000001776357e-07
-40 20 -15
0 0

0101101
*
Ed
 1e-07 1 1 0
1  26 0 0 15
2  51 5 0 0 15
2  52 12 0 0 15
0

0101000
+66 30 -64 30 *
Ed
 1.00000001776357e-07 1 1 0
1  27 0 0 80
2  53 5 41 0 80
2  54 14 15 0 80
0

0101000
+73 38 -64 38 *
Wi

0101000
-112 14 -67 43 -65 14 -63 28 +62 36 +72 28 *
Fa
0  1e-07 5 28

0101000
+61 0 *
Ve
2.00001e-07
-12.5 -9 -1.10218211923262e-15
0 0

0101101
*
Ed
 1e-07 1 1 0
1  28 0 -29 6.85489603743666e-30
2  55 6 0 -29 6.85489603743666e-30
2  56 10 9 -29 6.85489603743666e-30
0

0101000
+59 19 -68 19 *
Ve
2.00001e-07
-12.4599357943771 -10 0.999999999999999
0 0

0101101
*
Ed
 1e-07 1 1 0
1  29 0 0 1
2  57 6 0 0 1
2  58 16 0 0 1
0

0101000
+59 19 -57 19 *
Ve
2.00001e-07
12.4599357943771 -10 0.999999999999999
0 0

0101101
*
Ed
 1e-07 1 1 0
1  30 0 3.22167823362345 6.20309972714593
2  59 6 0 3.22167823362345 6.20309972714593
2  60 8 47 3.22167823362345 6.20309972714593
0

0101000
+57 19 -55 19 *
Ed
 1e-07 1 1 0
1  31 0 0 1
2  61 6 0 0 1
2  62 7 0 0 1
0

0101000
+111 19 -55 19 *
Ed
 1e-07 1 1 0
1  32 0 29 40
3  63 64CN 6 0 29 40
0

0101000
+111 19 -77 19 *
Wi

0101000
-67 43 +58 0 -56 0 -54 0 +53 0 -52 0 +76 0 +52 0 +110 0 *
Fa
0  1e-07 6 0

0101000
+51 0 *
Ve
1e-07
20 -10 0.999999999999999
0 0

0101101
*
Ed
 1e-07 1 1 0
1  33 0 2.64575131106459 4
2  65 8 48 2.64575131106459 4
2  66 7 22 2.64575131106459 4
0

0101000
+102 23 -49 23 *
Ed
 1e-07 1 1 0
1  34 0 0 7.54006420562288
2  67 8 48 0 7.54006420562288
2  68 7 22 0 7.54006420562288
0

0101000
+49 23 -55 23 *
Ve
0.00103461264994288
-20 -10 0.999999999999999
0 0

0101101
*
Ed
 1e-07 1 1 0
1  35 0 32.4599357943771 40
2  69 8 48 32.4599357943771 40
2  70 16 22 32.4599357943771 40
0

0101000
+57 23 -46 23 *
Ve
1e-07
-21.3542486889354 -10 0.999999999999999
0 0

0101101
*
Ed
 1e-07 1 1 0
1  36 0 0 1.35424868893541
2  71 8 48 0 1.35424868893541
2  72 16 22 0 1.35424868893541
0

0101000
+46 23 -44 23 *
Ve
1e-07
-20 -10 4
0 0

0101101
*
Ed
 1e-07 1 1 0
1  37 0 0.722734247813416 1.5707963267949
2  73 8 26 0.722734247813416 1.5707963267949
2  74 11 0 0.722734247813416 1.5707963267949
0

0101000
+44 12 -42 12 *
Ve
1.00000607514039e-07
-20 -10 9.8500000000006
0 0

0101101
*
Ed
 1e-07 1 1 0
1  38 0 9 14.85
2  75 8 50 9 14.85
2  76 13 51 9 14.85
0

0101000
+42 52 -40 52 *
Ve
1.00000603961325e-07
20 -10 9.8500000000006
0 0

0101101
*
Ed
 1e-07 1 1 0
1  39 0 3.14096112479958 6.2838168359698
2  77 8 50 3.14096112479958 6.2838168359698
2  78 15 51 3.14096112479958 6.2838168359698
0

0101000
+38 52 -40 52 *
Ed
 1e-07 1 1 0
1  40 0 0 5.85
2  79 8 50 0 5.85
2  80 9 51 0 5.85
0

0101000
-101 52 +38 52 *
Wi

0101000
-48 20 -47 20 +54 0 -45 20 -43 20 -41 10 -39 49 +37 49 -36 49 +100 10 
*
Fa
0  1e-07 8 47

0101000
+35 0 *
Ed
 1.00000603961325e-07 1 1 0
1  41 0 0 10
2  81 9 0 0 10
2  82 15 0 0 10
4 G1 9 0 15 0
0

0101000
+82 55 -38 55 *
Wi

0101100
-79 54 -97 0 +33 5 +36 56 *
Fa
0  1e-07 9 0

0101000
+32 53 *
Ed
 1.00000001776357e-07 1 1 0
1  42 0 0 40
2  83 10 15 0 40
2  84 12 18 0 40
0

0101000
+66 17 -92 17 *
Ve
0.0001
-24 -10 -1.66873600899742e-15
0 0

0101101
*
Ed
 1e-07 1 1 0
1  43 0 1.15012166457262e-15 10
2  85 10 11 1.15012166457262e-15 10
2  86 11 0 1.15012166457262e-15 10
4 G1 10 11 11 0
0

0101000
+29 12 -93 12 *
Ve
0.00692461264994288
-24 -9 -1.10218211923262e-15
0 0

0101101
*
Ed
 1e-07 1 1 0
1  44 0 -1.77635683940025e-15 0.999999999999998
2  87 10 21 -1.77635683940025e-15 0.999999999999998
2  88 11 6 -1.77635683940025e-15 0.999999999999998
0

0101000
+29 23 -27 23 *
Ve
1e-07
-20 -9 -1.10218211923262e-15
0 0

0101101
*
Ed
 1e-07 1 1 0
1  45 0 0 4
2  89 10 21 0 4
2  90 16 22 0 4
0

0101000
+25 23 -27 23 *
Ed
 1e-07 1 1 0
1  46 0 32.5 40
2  91 10 21 32.5 40
2  92 16 22 32.5 40
0

0101000
+59 23 -25 23 *
Wi

0101000
-58 0 -65 14 -30 14 -91 14 +28 10 -26 20 +24 20 +23 20 *
Fa
0  1e-07 10 9

0101000
+22 0 *
Ed
 1e-07 1 1 0
1  47 0 0 1
2  93 11 6 0 1
2  94 16 22 0 1
0

0101000
+27 23 -44 23 *
Ed
 1e-07 1 1 0
1  48 0 1.97215226305253e-31 10
2  95 11 0 1.97215226305253e-31 10
2  96 13 5 1.97215226305253e-31 10
4 G1 11 0 13 5
0

0101000
+42 12 -90 12 *
Wi

0101100
+41 6 +20 0 +19 6 +26 0 -89 6 -28 6 *
Fa
0  1e-07 11 0

0101000
+18 24 *
Ed
 1.00000001776357e-07 1 1 0
1  49 0 0 40
2  97 12 41 0 40
2  98 14 15 0 40
0

0101000
+64 38 -88 38 *
Wi

0101000
+63 0 -87 0 -30 39 +16 40 *
Fa
0  1e-07 12 0

0101000
+15 0 *
Ed
 1.00000607514039e-07 1 1 0
1  50 0 0 10
2  99 13 0 0 10
2  100 15 0 0 10
4 G1 13 0 15 0
0

0101000
+86 55 -40 55 *
Wi

0101100
-85 54 -19 0 -13 5 +39 56 *
Fa
0  1e-07 13 0

0101000
+12 53 *
Wi

0101100
+83 0 +71 0 +62 0 +16 0 *
Fa
0  1e-07 14 0

0101000
-10 13 *
Wi

0101000
+33 0 -13 0 -81 58 +37 59 *
Fa
0  1e-07 15 0

0101000
+8 0 *
Wi

0101100
+47 20 -53 0 -108 20 -106 20 +99 20 +48 20 *
Fa
0  1e-07 7 0

0101000
+6 0 *
Wi

0101100
-24 20 -23 20 +56 0 +45 20 +43 20 -20 20 *
Fa
0  1e-07 16 0

0101000
+4 0 *
Sh

0101100
-103 0 -94 10 +74 0 +69 28 +60 0 -50 0 -34 0 -31 27 -21 0 -17 10 
+14 28 -11 27 +9 57 +7 27 -5 0 -3 0 *
So

1100000
+2 0 *

+1 1 