DBRep_DrawableShape

CASCADE Topology V1, (c) Matra-Datavision
Locations 43
1
              1               0               0               0 
              0               1               0               0 
              0               0               1               0 
1
              1               0               0               0 
              0               1               0               0 
              0               0               1               0 
1
              1               0               0               0 
              0               1               0               0 
              0               0               1               0 
1
              1               0               0               0 
              0               1               0               0 
              0               0               1               0 
1
              1               0               0               0 
              0               1               0               0 
              0               0               1               0 
1
              1               0               0               0 
              0               1               0               0 
              0               0               1               0 
1
              1               0               0               0 
              0               1               0               0 
              0               0               1               0 
2  2 1 3 -1 4 1 5 -1 6 1 7 -1 0
2  1 -1 7 1 6 -1 5 1 4 -1 3 1 2 -1 0
2  1 -1 0
2  4 1 5 -1 6 1 7 -1 0
2  2 1 3 -1 0
2  1 -1 7 1 6 -1 5 1 4 -1 0
2  6 1 7 -1 0
2  2 1 3 -1 4 1 5 -1 0
2  1 -1 7 1 6 -1 0
1
              1              -0               0              -0 
              0 1.77321265310004e-16              -1              -0 
              0               1 1.77321265310004e-16               0 
1
              1               0               0               0 
              0               1               0              -1 
              0               0               1 2.22044604925031e-16 
1
              1               0               0               0 
              0               1               0              81 
              0               0               1 -1.79856129989275e-14 
2  17 1 18 1 7 -1 19 1 0
2  19 -1 7 1 18 -1 17 -1 0
2  4 1 5 -1 6 1 7 -1 19 -1 7 1 18 -1 17 -1 0
2  1 -1 19 -1 7 1 18 -1 17 -1 0
1
              1               0               0              -0 
              0               1               0               0 
              0               0               1            1910 
1
              1               0               0               0 
              0               1               0               0 
              0               0               1               1 
1
              1               0               0              -0 
              0               1               0              -0 
              0               0               1           -1811 
2  24 1 25 1 3 -1 26 1 4 1 5 -1 6 1 7 -1 0
2  26 -1 3 1 25 -1 24 -1 0
2  24 -1 0
2  1 -1 7 1 6 -1 5 1 4 -1 26 -1 3 1 25 -1 24 -1 0
2  24 1 25 1 3 -1 26 1 0
2  4 1 5 -1 0
2  24 1 25 1 3 -1 26 1 4 1 5 -1 0
1
              1               0               0              -0 
              0               1               0               0 
              0               0               1            1910 
1
              1               0               0               0 
              0               1               0               0 
              0               0               1               1 
1
              1               0               0              -0 
              0               1               0              -0 
              0               0               1            -941 
2  34 1 35 1 5 -1 36 1 0
2  36 -1 5 1 35 -1 34 -1 0
2  34 -1 0
2  1 -1 7 1 6 -1 36 -1 5 1 35 -1 34 -1 0
2  5 1 4 -1 0
2  25 1 3 -1 26 1 4 1 5 -1 6 1 7 -1 0
2  35 1 5 -1 36 1 0
Curve2ds 140
1 0 0 1 0 
1 0 0 1 0 
1 1910 0 0 -1 
1 0 0 0 1 
1 0 -915 1 0 
1 0 0 1 0 
1 0 0 0 -1 
1 0 0 0 1 
8 -277.49997946314943 397.49997952007595
1 170.00000000004195 397.49997952007595 0 1 
8 -277.49997946314943 397.49997952007595
1 397.49997952007595 -0.9999999999999698 -1 0 
2 190 120 -1 0 0 1 20
1 -1.5707963267948966 -0.99999999999996636 1 0 
8 -1815.0000002016398 -94.999999798360136
1 94.99999979836015 100 -1 0 
8 -1815.0000002016398 -94.999999798360136
1 -94.99999979836015 -0.99999999999998324 -1 -1.7732126531000425e-16 
1 1910 0 0 1 
1 0 0 1 0 
1 0 0 0 1 
1 0 0 1 0 
1 0 915 1 0 
1 0 0 1 0 
1 1910 0 0 1 
1 0 0 1 0 
8 -805.00000308467554 915.00000308467554
1 994.99999691532446 814.99999999999909 1 0 
8 -805.00000308467554 915.00000308467554
1 994.99999691532446 -0.99999999999982359 -1 1.7732126531000425e-16 
2 190 795 -1 0 0 1 20
1 -1.5707963267948966 -0.99999999999996636 1 0 
1 0 915 1 0 
1 1910 0 0 1 
1 915 0 0 1 
1 1910 0 0 -1 
8 -80.500000000000156 -0.49999999999982359
1 814.99999999999909 -0.49999999999982359 0 -1 
8 -80.500000000000156 -0.49999999999982359
1 79.999993830648918 -0.4999999999998378 1.7732126531000425e-16 1 
8 34.99999960531904 809.99995915713691
1 34.99999960531904 80.000000000000014 1 0 
8 34.99999960531904 809.99995915713691
1 -34.99999960531904 -1 1 0 
2 845 100 0 -1 1 0 20
1 -1.5707963267948966 -1 1 0 
8 -410.0000035776809 310.00001073761496
1 865 410.0000035776809 0 -1 
8 -410.0000035776809 310.00001073761496
1 410.0000035776809 -1 1 0 
2 845 820 0 -1 1 0 20
1 -1.5707963267948966 -1 1 0 
8 120 724.99995876158494
1 120 840 1 0 
8 120 724.99995876158494
1 -120 -1 1 0 
8 -120 49.999983479590611
1 120 840 -1 0 
8 -120 49.999983479590611
1 120 -1 1 0 
2 70 819.99999999999989 0 -1 1 0 20
1 -1.5707963267948966 -1 1 0 
8 325.0000835381291 494.99989990709042
1 50 325.0000835381291 0 1 
8 325.0000835381291 494.99989990709042
1 -325.0000835381291 -1 1 0 
8 50.000000103083785 600.00016697317437
1 50 50.000000103083785 0 1 
8 50.000000103083785 600.00016697317437
1 -50.000000103083785 -1 1 0 
2 70 100 0 -1 1 0 20
1 -1.5707963267948966 -1 1 0 
8 34.99999960531904 809.99995915713691
1 34.99999960531904 80.000000000000014 1 0 
8 34.99999960531904 809.99995915713691
1 -34.99999960531904 -1 1 0 
8 0.49999999999998318 80.500000000000327
1 100 -0.49999999999998318 0 1 
8 0.49999999999998318 80.500000000000327
1 1720.0000004032797 -0.4999999999996782 1.7732126531000425e-16 -1 
1 0 0 0 1 
1 0 915 1 0 
1 0 915 1 0 
1 0 -915 1 0 
1 915 0 0 1 
1 0 0 0 -1 
1 674.99995898322538 0 0 -1 
1 4.7123889832310137 0 0 -1 
1 0 -81 1 0 
1 724.99995982951384 -1740.9999999999582 -1 0 
1 0 0 0 -1 
1 4.7123869323922829 0 0 -1 
1 0 -81 1 0 
2 50.00000078936192 -1721 1 0 -0 1 20
1 3.1415926737537787 0 0 -1 
1 0 0 -4.4723339615027058e-17 -1 
1 -1.4058686940293665e-14 -81 1 0 
1 30.00000078936192 -1721.0000004032797 0 1 
1 1800 1.0842021724855044e-17 4.4723339615027058e-17 -1 
1 6.2831849987120307 0 0 -1 
1 -1.4363022490110344e-14 -81 1 0 
1 745.00000078936102 78.999993830648918 0 -1 
1 0 -81 1 0 
2 725.00000078936193 -1721 1 0 -0 1 20
1 774.99995955181782 0 0 -1 
1 4.7123869185074803 0 0 -1 
1 0 -1811 1 0 
1 -170.00000078936193 -760 1 0 
1 0 0 0 -1 
1 4.7123889409165942 0 0 -1 
1 6.283184949182882 0 0 -1 
1 720.00001431529586 0 0 -1 
1 0 -1811 1 0 
2 605 -740 1 0 -0 1 20
1 0 -1811 1 0 
1 625 -19.9999928446382 0 -1 
1 0 0 0 -1 
1 3.5776809269742789e-07 0 0 -1 
1 1.5707983887156545 0 0 -1 
1 604.99995876158482 0 0 -1 
1 0 -1811 1 0 
2 605 -20 1 0 -0 1 20
1 0 0 0 -1 
1 0 0 0 -1 
1 1.5707963105318312 0 0 -1 
1 0 -1811 1 0 
1 0 0 1 0 
1 169.99998347959061 0 0 -1 
1 1.5707955007744272 0 0 -1 
1 0 -941 1 0 
1 0 0 1 0 
8 -1035.0999999999999 94.099999999999909
1 3.2526131121812796e-07 0 0 1 
1 3.1415934813288131 0 0 -1 
1 169.99981636896132 0 0 -1 
1 0 -941 1 0 
2 170 -20.000000000000114 -1 0 0 1 20
1 0 -941 1 0 
1 190 -189.99983292374179 0 1 
1 -1.1368683772161603e-13 0 0 -1 
1 550.00016687009054 0 0 -1 
1 0 0 0 -1 
1 3.1415926432814145 0 0 -1 
1 0 -1811 1 0 
1 -190 -739.99999979383244 0 1 
1 550.00016687009054 0 0 -1 
1 3.1415926493057156 0 0 -1 
1 0 -1811 1 0 
2 -170 -740 1 0 -0 1 20
2 -170 -189.99983300942347 1 0 -0 1 20
1 0 -1811 1 0 
1 -14.142131203540174 -5.8578596308183251 -0.70710712780479401 -0.70710643456813116 
1 -0 -1811 1 0 
2 -3.2526131121812796e-07 -20 1 0 -0 1 19.999999999999972
1 0 -1811 1 0 
1 2.3561941546382661 0 0 -1 
1 1.2058308112392845e-13 0 0 -1 
1 -1.5707963267948966 -941 1 0 
2 3.2526131121812796e-07 -20 0 -1 -1 -0 20
2 170 -189.99983300942347 0 -1 -1 -0 20
1 -1.5707963267948966 -941 1 0 
8 7.0710660070612121 247.48725090436076
1 9.1421300287690315 -0.85786335796933599 0.70710712780479401 -0.70710643456813116 
8 7.0710660070612121 247.48725090436076
1 -7.0710660070612121 -941 1 -0 
1 2.3561940348386607 0 0 -1 
1 240.41618489729956 0 0 -1 
Curves 71
1 0 0 0 0 0 1 
1 0 0 1910 -0 1 0 
1 0 915 0 0 0 1 
1 0 0 0 -0 1 0 
1 397.49997952007595 0 170.00000000004195 1 0 0 
2 120 0 190 0 -1 1.7732126531000425e-16 0 -1.7732126531000425e-16 -1 1 0 0 20
1 100 0 94.99999979836015 0 0 -1 
1 0 0 1910 1 0 -0 
1 0 0 0 1 0 -0 
1 915 0 0 0 0 1 
1 0 0 1910 1 0 -0 
1 814.99999999999909 0 994.99999691532446 -0 0 1 
2 795 0 190 0 -1 1.7732126531000425e-16 0 -1.7732126531000425e-16 -1 1 0 0 20
1 0 915 1910 1 0 -0 
1 915 0 1910 0 1 0 
1 814.99999999999909 -0.49999999999982359 1910 -0 -1 0 
1 34.99999960531904 80.000000000000014 1910 1 0 -0 
2 845 100 1910 0 0 1 0 -1 0 1 0 -0 20
1 865 410.0000035776809 1910 0 -1 0 
2 845 820 1910 0 0 1 0 -1 0 1 0 -0 20
1 120 840 1910 1 0 -0 
1 120 840 1910 -1 0 0 
2 70 819.99999999999989 1910 0 0 1 0 -1 0 1 0 -0 20
1 50 325.0000835381291 1910 0 1 0 
1 50 50.000000103083785 1910 0 1 0 
2 70 100 1910 0 0 1 0 -1 0 1 0 -0 20
1 34.99999960531904 80.000000000000014 1910 1 0 -0 
1 100 -0.49999999999998318 1910 0 1 -0 
1 0 915 0 1 0 -0 
1 915 915 0 0 0 1 
1 915 0 0 -0 1 0 
1 120.0000000569265 -0.9999999999999698 170.00000000002098 0 1 -2.2204460492503131e-16 
1 794.99995904015191 170.00000000004195 0 -1 0 0 
1 794.99995904015191 -0.9999999999999698 170.00000000004195 0 1 -2.2204460492503131e-16 
2 120 190 0 0 0 1 1 0 -0 -0 1 0 20
1 100 -0.99999999999996636 189.9999995967203 0 1 -2.2204460492503131e-16 
1 100 189.9999995967203 0 0 1 0 
1 814.99999999999909 -0.99999999999996636 189.99999383064892 0 1 -2.2204460492503131e-16 
1 814.99999999999909 1989.9999938306489 0 0 -1 0 
2 795 190 0 0 0 1 1 0 -0 -0 1 0 20
1 844.99995876245589 80.000000000021259 1911 -0 -0 -1 
1 69.99999921063808 80.000000000000014 0 1 0 0 
1 69.99999921063808 80.000000000000014 1911 -0 -0 -1 
1 864.99999999999932 99.999992840065929 1911 -0 -0 -1 
2 845 100 0 0 0 1 1 0 -0 -0 1 0 20
1 865 820.0000071553618 0 0 -1 0 
1 864.99999999999932 820.0000071553618 1911 -0 -0 -1 
1 844.99995876158482 839.99999999997874 1911 -0 -0 -1 
2 845 820 0 0 0 1 1 0 -0 -0 1 0 20
1 240 840 1911 -0 -0 -1 
1 240 840 1911 -0 -0 -1 
1 240 840 0 1 0 0 
1 70.000016520409389 839.99999999999659 1911 -0 -0 -1 
1 240 840 0 -1 0 0 
1 239.99999967473869 840 1911 0 0 1 
1 50.000000000003425 819.99998344521953 1911 -0 -0 -1 
2 70 819.99999999999989 0 0 0 1 1 0 -0 -0 1 0 20
1 50 650.00016707625821 0 0 1 0 
1 50 650.00016707625809 1911 -0 -0 -1 
1 50 100.00000020616757 1911 -0 -0 -1 
1 50 100.00000020616757 0 0 1 0 
1 50 650.00016707625809 1911 -0 -0 -1 
2 70 100 0 0 0 1 1 0 -0 -0 1 0 20
2 70 650.00016699057653 0 0 0 1 1 0 -0 -0 1 0 20
1 225.85786879645983 834.14214036918167 0 -0.70710712780479401 -0.70710643456813116 0 
2 239.99999967473869 820 0 0 0 1 1 0 -0 -0 1 0 20
1 225.85786879645983 834.14214036918156 1911 -0 -0 -1 
2 239.99999967473869 820 970 0 0 1 0 -1 0 1 0 -0 20
2 70 650.00016699057653 970 0 0 1 0 -1 0 1 0 -0 20
1 230.85786997123097 839.14213664203066 970 -0.70710712780479401 -0.70710643456813116 -0 
1 55.857870815944054 664.1423090539796 1911 -0 -0 -1 
Polygon3D 0
PolygonOnTriangulations 0
Surfaces 26
1 0 0 0 1 0 -0 0 0 1 0 -1 0 
1 0 0 0 -0 1 0 0 0 1 1 0 -0 
1 0 0 1910 0 0 1 1 0 -0 -0 1 0 
1 0 915 0 -0 1 0 0 0 1 1 0 -0 
1 0 0 0 0 0 1 1 0 -0 -0 1 0 
1 794.99995904015191 -0.9999999999999698 170.00000000004195 0 2.2204460492503131e-16 1 -1 0 0 0 -1 2.2204460492503131e-16 
2 120 -0.99999999999996636 190 0 -1 1.7732126531000425e-16 1 0 0 -0 1.7732126531000425e-16 1 20
1 100 -0.99999999999996636 189.9999995967203 1 -0 0 0 1.7732126531000425e-16 1 -0 -1 1.7732126531000425e-16 
1 915 0 0 1 0 -0 0 0 1 0 -1 0 
1 814.99999999999909 -0.99999999999964717 1989.9999938306489 -1 0 -0 0 -1.7732126531000425e-16 -1 -0 -1 1.7732126531000425e-16 
2 795 -0.99999999999996636 190 0 -1 1.7732126531000425e-16 1 0 0 -0 1.7732126531000425e-16 1 20
1 69.99999921063808 80.000000000000014 1911 0 -1 0 1 0 0 -0 0 1 
2 845 100 1911 0 0 1 1 0 -0 -0 1 0 20
1 865 820.0000071553618 1911 -1 0 0 0 -1 0 0 0 1 
2 845 820 1911 0 0 1 1 0 -0 -0 1 0 20
1 240 840 1911 0 -1 0 1 0 0 -0 0 1 
1 240 840 1911 0 1 -0 -1 0 0 0 0 1 
2 70 819.99999999999989 1911 0 0 1 1 0 -0 -0 1 0 20
1 50 650.00016707625821 1911 1 0 0 -0 1 0 0 -0 1 
1 50 100.00000020616757 1911 1 0 0 -0 1 0 0 -0 1 
2 70 100 1911 0 0 1 1 0 -0 -0 1 0 20
1 240 840 1910 -0 0 1 1 0 0 0 1 -0 
2 239.99999967473869 820 1911 0 0 1 1 0 -0 -0 1 0 20
1 240 840 1910 -0 0 -1 -1 0 0 0 1 0 
2 70 650.00016699057653 1911 0 0 1 1 0 -0 -0 1 0 20
1 225.85786879645983 834.14214036918167 1911 -0.70710643456813116 0.70710712780479401 0 -0.70710712780479401 -0.70710643456813116 0 0 0 1 
Triangulations 0

TShapes 171
Ve
1e-07
0 0 1910
0 0

0101101
*
Ve
1e-07
0 0 0
0 0

0101101
*
Ed
 1e-07 1 1 0
1  1 0 0 1910
2  1 1 0 0 1910
2  2 2 0 0 1910
0

0101000
-171 9 +170 9 *
Ve
1e-07
0 915 1910
0 0

0101101
*
Ed
 1e-07 1 1 0
1  2 0 0 915
2  3 1 0 0 915
2  4 3 0 0 915
0

0101000
-168 9 +171 9 *
Ve
1e-07
0 915 0
0 0

0101101
*
Ed
 1e-07 1 1 0
1  3 0 0 1910
2  5 1 0 0 1910
2  6 4 0 0 1910
0

0101000
-168 9 +166 9 *
Ed
 1e-07 1 1 0
1  4 0 0 915
2  7 1 0 0 915
2  8 5 0 0 915
0

0101000
-166 9 +170 9 *
Wi

0101000
-169 0 -167 0 +165 0 +164 0 *
Fa
0  1e-07 1 0

0101000
+163 0 *
Ve
2.00021975232391e-07
120.000000056926 0 170.000000000021
0 0

0101101
*
Ve
2.00001e-07
794.999959040152 0 170.000000000042
0 0

0101101
*
Ed
 1e-07 1 1 0
1  5 0 -277.499979463149 397.499979520076
2  9 2 8 -277.499979463149 397.499979520076
2  10 6 0 -277.499979463149 397.499979520076
0

0101000
+161 10 -160 10 *
Ve
2.00001e-07
100 0 189.99999959672
0 0

0101101
*
Ed
 1e-07 1 1 0
1  6 0 4.71238900054867 6.28318531002591
2  11 2 8 4.71238900054867 6.28318531002591
2  12 7 0 4.71238900054867 6.28318531002591
0

0101000
+158 10 -161 10 *
Ve
2.00001e-07
100 0 1910
0 0

0101101
*
Ed
 1e-07 1 1 0
1  7 0 -1815.00000020164 -94.9999997983601
2  13 2 8 -1815.00000020164 -94.9999997983601
2  14 8 0 -1815.00000020164 -94.9999997983601
0

0101000
+156 10 -158 10 *
Ed
 1e-07 1 1 0
1  8 0 0 100
2  15 2 0 0 100
2  16 3 0 0 100
0

0101000
+171 9 -156 9 *
Ve
1e-07
915 0 0
0 0

0101101
*
Ed
 1e-07 1 1 0
1  9 0 0 915
2  17 2 0 0 915
2  18 5 0 0 915
0

0101000
-153 9 +170 9 *
Ve
1e-07
915 0 1910
0 0

0101101
*
Ed
 1e-07 1 1 0
1  10 0 0 1910
2  19 2 0 0 1910
2  20 9 0 0 1910
0

0101000
-151 9 +153 9 *
Ve
2.00001e-07
814.999999999999 0 1910
0 0

0101101
*
Ed
 1e-07 1 1 0
1  11 0 814.999999999999 915
2  21 2 0 814.999999999999 915
2  22 3 0 814.999999999999 915
0

0101000
+149 9 -151 9 *
Ve
2.00001014210855e-07
814.999999999999 0 189.999993830649
0 0

0101101
*
Ed
 1e-07 1 1 0
1  12 0 -805.000003084676 915.000003084676
2  23 2 8 -805.000003084676 915.000003084676
2  24 10 0 -805.000003084676 915.000003084676
0

0101000
+147 10 -149 10 *
Ed
 1e-07 1 1 0
1  13 0 6.28318325918718 7.85398132550693
2  25 2 8 6.28318325918718 7.85398132550693
2  26 11 0 6.28318325918718 7.85398132550693
0

0101000
+160 10 -147 10 *
Wi

0101000
+159 0 +157 0 +155 0 +154 8 +169 8 -152 8 -150 8 +148 8 +146 0 +145 0 
*
Fa
0  1e-07 2 8

0101000
+144 0 *
Ve
1e-07
915 915 1910
0 0

0101101
*
Ed
 1e-07 1 1 0
1  14 0 0 915
2  27 3 0 0 915
2  28 4 0 0 915
0

0101000
-142 9 +168 9 *
Ed
 1e-07 1 1 0
1  15 0 0 915
2  29 3 0 0 915
2  30 9 0 0 915
0

0101000
-142 9 +151 9 *
Ve
1.00000163424829e-07
814.999999999999 80.0000000000002 1910
0 0

0101101
*
Ed
 1e-07 1 1 0
1  16 0 -80.5000000000002 -0.499999999999824
2  31 3 8 -80.5000000000002 -0.499999999999824
2  32 10 0 -80.5000000000002 -0.499999999999824
0

0101000
+139 10 -149 10 *
Ve
2.00022252409246e-07
844.999958762456 80.0000000000213 1910
0 0

0101101
*
Ed
 1e-07 1 1 0
1  17 0 780.00000039468 809.999959157137
2  33 3 12 780.00000039468 809.999959157137
2  34 12 0 780.00000039468 809.999959157137
0

0101000
+139 13 -137 13 *
Ve
2.00001625439074e-07
864.999999999999 99.9999928400659 1910
0 0

0101101
*
Ed
 1e-07 1 1 0
1  18 0 6.28318324530238 7.85398127597778
2  35 3 12 6.28318324530238 7.85398127597778
2  36 13 0 6.28318324530238 7.85398127597778
0

0101000
+137 13 -135 13 *
Ve
2.00001625277607e-07
864.999999999999 820.000007155362 1910
0 0

0101101
*
Ed
 1e-07 1 1 0
1  19 0 -410.000003577681 310.000010737615
2  37 3 12 -410.000003577681 310.000010737615
2  38 14 0 -410.000003577681 310.000010737615
0

0101000
+133 13 -135 13 *
Ve
2.00022259514648e-07
844.999958761585 839.999999999979 1910
0 0

0101101
*
Ed
 1e-07 1 1 0
1  20 0 1.57079668456299 3.14159471551055
2  39 3 12 1.57079668456299 3.14159471551055
2  40 15 0 1.57079668456299 3.14159471551055
0

0101000
+133 13 -131 13 *
Ve
0.00102371432444572
240 840 1910
0 0

0101101
*
Ed
 1e-07 1 1 0
1  21 0 120 724.999958761585
2  41 3 12 120 724.999958761585
2  42 16 0 120 724.999958761585
0

0101000
+129 13 -131 13 *
Ve
2.00004467448551e-07
70.0000165204094 839.999999999997 1910
0 0

0101101
*
Ed
 1e-07 1 1 0
1  22 0 -120 49.9999834795906
2  43 3 15 -120 49.9999834795906
2  44 17 0 -120 49.9999834795906
0

0101000
+129 16 -127 16 *
Ve
2.00004424815986e-07
50.0000000000034 819.99998344522 1910
0 0

0101101
*
Ed
 1e-07 1 1 0
1  23 0 3.14159182756932 4.71238980812371
2  45 3 15 3.14159182756932 4.71238980812371
2  46 18 0 3.14159182756932 4.71238980812371
0

0101000
+127 16 -125 16 *
Ve
0.000511707151663886
50 650.000167076258 1910
0 0

0101101
*
Ed
 1e-07 1 1 0
1  24 0 325.000083538129 494.99989990709
2  47 3 15 325.000083538129 494.99989990709
2  48 19 0 325.000083538129 494.99989990709
0

0101000
+123 16 -125 16 *
Ve
2.00001e-07
50 100.000000206168 1910
0 0

0101101
*
Ed
 1e-07 1 1 0
1  25 0 50.0000001030838 600.000166973174
2  49 3 12 50.0000001030838 600.000166973174
2  50 20 0 50.0000001030838 600.000166973174
0

0101000
+121 13 -123 13 *
Ve
2.00001e-07
69.9999992106381 80 1910
0 0

0101101
*
Ed
 1e-07 1 1 0
1  26 0 4.71238897007631 6.28318526771149
2  51 3 12 4.71238897007631 6.28318526771149
2  52 21 0 4.71238897007631 6.28318526771149
0

0101000
+121 13 -119 13 *
Ve
1.00000156319402e-07
100 80.0000000000002 1910
0 0

0101101
*
Ed
 1e-07 1 1 0
1  27 0 34.999999605319 65.000000394681
2  53 3 12 34.999999605319 65.000000394681
2  54 12 0 34.999999605319 65.000000394681
0

0101000
+119 13 -117 13 *
Ed
 1e-07 1 1 0
1  28 0 0.499999999999983 80.5000000000003
2  55 3 8 0.499999999999983 80.5000000000003
2  56 8 0 0.499999999999983 80.5000000000003
0

0101000
+156 10 -117 10 *
Wi

0101000
+154 8 -167 8 -141 8 +140 8 +148 8 +138 0 -136 11 -134 11 +132 11 -130 11 
+128 11 -126 14 -124 14 +122 14 +120 11 -118 11 -116 11 +115 0 *
Fa
0  1e-07 3 8

0101000
+114 0 *
Ve
1e-07
915 915 0
0 0

0101101
*
Ed
 1e-07 1 1 0
1  29 0 0 915
2  57 4 0 0 915
2  58 5 0 0 915
0

0101000
-112 9 +166 9 *
Ed
 1e-07 1 1 0
1  30 0 0 1910
2  59 4 0 0 1910
2  60 9 0 0 1910
0

0101000
-142 9 +112 9 *
Wi

0101000
-111 0 -110 0 +141 0 +165 0 *
Fa
0  1e-07 4 0

0101000
+109 0 *
Ed
 1e-07 1 1 0
1  31 0 0 915
2  61 5 0 0 915
2  62 9 0 0 915
0

0101000
-112 9 +153 9 *
Wi

0101000
-164 0 -111 0 +107 0 +152 0 *
Fa
0  1e-07 5 0

0101000
+106 0 *
Ve
1.00020975232391e-07
120.000000056926 80 170.000000000021
0 0

0101101
*
Ed
 1.00020975232391e-07 1 1 0
1  32 0 0.99999999999997 81
2  63 6 0 0.99999999999997 81
2  64 7 0 0.99999999999997 81
4 G1 6 0 7 0
0

0101000
+161 10 -104 10 *
Ve
1e-07
794.999959040152 80 170.000000000042
0 0

0101101
*
Ed
 1e-07 1 1 0
1  33 0 0 674.999958983225
2  65 6 21 0 674.999958983225
2  66 12 22 0 674.999958983225
0

0101000
+102 23 -104 23 *
Ed
 1e-07 1 1 0
1  34 0 0.99999999999997 81
2  67 6 0 0.99999999999997 81
2  68 11 0 0.99999999999997 81
4 G1 6 0 11 0
0

0101000
+160 10 -102 10 *
Wi

0101000
-103 0 +101 20 +100 0 +159 0 *
Fa
0  1e-07 6 0

0101000
+99 0 *
Ve
1e-07
100 80 189.99999959672
0 0

0101101
*
Ed
 1e-07 1 1 0
1  35 0 3.14159267375378 4.71238898323101
2  69 7 21 3.14159267375378 4.71238898323101
2  70 12 22 3.14159267375378 4.71238898323101
0

0101000
+97 23 -104 23 *
Ed
 1e-07 1 1 0
1  36 0 0.999999999999966 81
2  71 7 0 0.999999999999966 81
2  72 8 0 0.999999999999966 81
4 G1 7 0 8 0
0

0101000
+158 10 -97 10 *
Wi

0101000
-157 0 -103 0 +96 20 +95 0 *
Fa
0  1e-07 7 0

0101000
+94 0 *
Ed
 1e-07 1 1 0
1  37 0 0 1720.00000040328
2  73 8 21 0 1720.00000040328
2  74 12 22 0 1720.00000040328
0

0101000
+97 23 -117 23 *
Wi

0101000
-115 0 +92 20 +95 0 +155 0 *
Fa
0  1e-07 8 0

0101000
+91 0 *
Wi

0101000
-150 0 -140 0 +110 0 +107 0 *
Fa
0  1e-07 9 0

0101000
+89 0 *
Ve
1.00000014210855e-07
814.999999999999 80 189.999993830649
0 0

0101101
*
Ed
 1.00000014210855e-07 1 1 0
1  38 0 0.999999999999966 81
2  75 10 0 0.999999999999966 81
2  76 11 0 0.999999999999966 81
4 G1 10 0 11 0
0

0101000
+147 10 -87 10 *
Ed
 1e-07 1 1 0
1  39 0 79.9999938306489 1800
2  77 10 21 79.9999938306489 1800
2  78 12 22 79.9999938306489 1800
0

0101000
+139 23 -87 23 *
Wi

0101000
-86 0 +85 20 -138 0 +146 0 *
Fa
0  1e-07 10 0

0101000
+84 0 *
Ed
 1e-07 1 1 0
1  40 0 4.71238693239228 6.28318499871203
2  79 11 21 4.71238693239228 6.28318499871203
2  80 12 22 4.71238693239228 6.28318499871203
0

0101000
+102 23 -87 23 *
Wi

0101000
-145 0 -86 0 +82 20 +100 0 *
Fa
0  1e-07 11 0

0101000
+81 0 *
Ve
1.00021252409246e-07
844.999958762456 80.0000000000213 100
0 0

0101101
*
Ed
 1.00021252409246e-07 1 1 0
1  41 0 1.00000000000008 1811
2  81 12 0 1.00000000000008 1811
2  82 13 0 1.00000000000008 1811
4 G1 12 0 13 0
0

0101000
+137 13 -79 13 *
Ve
1e-07
69.9999992106381 80 100
0 0

0101101
*
Ed
 1e-07 1 1 0
1  42 0 0 774.999959551818
2  83 12 28 0 774.999959551818
2  84 22 29 0 774.999959551818
0

0101000
+77 30 -79 30 *
Ed
 1e-07 1 1 0
1  43 0 1.00000000000008 1811
2  85 12 0 1.00000000000008 1811
2  86 21 0 1.00000000000008 1811
4 G1 12 0 21 0
0

0101000
+119 13 -77 13 *
Wi

0101000
-116 11 +92 20 -96 20 +101 20 -82 20 +85 20 -136 11 -78 11 +76 27 +75 11 
*
Fa
0  1e-07 12 11

0101000
+74 0 *
Ve
1.00000625439074e-07
864.999999999999 99.9999928400659 100
0 0

0101101
*
Ed
 1.00000625439074e-07 1 1 0
1  44 0 0.999999999999912 1811
2  87 13 0 0.999999999999912 1811
2  88 14 0 0.999999999999912 1811
4 G1 13 0 14 0
0

0101000
+135 13 -72 13 *
Ed
 1e-07 1 1 0
1  45 0 4.71238691850748 6.28318494918288
2  89 13 28 4.71238691850748 6.28318494918288
2  90 22 29 4.71238691850748 6.28318494918288
0

0101000
+79 30 -72 30 *
Wi

0101000
-134 0 -71 0 +70 31 +78 0 *
Fa
0  1e-07 13 0

0101000
+69 0 *
Ve
1.00000625277607e-07
864.999999999999 820.000007155362 100
0 0

0101101
*
Ed
 1e-07 1 1 0
1  46 0 0 720.000014315296
2  91 14 28 0 720.000014315296
2  92 22 29 0 720.000014315296
0

0101000
+67 30 -72 30 *
Ed
 1.00000625277607e-07 1 1 0
1  47 0 0.999999999999912 1811
2  93 14 0 0.999999999999912 1811
2  94 15 0 0.999999999999912 1811
4 G1 14 0 15 0
0

0101000
+133 13 -67 13 *
Wi

0101000
-132 0 -71 0 +66 31 +65 0 *
Fa
0  1e-07 14 0

0101000
+64 0 *
Ve
1.00021259514648e-07
844.999958761585 839.999999999979 100
0 0

0101101
*
Ed
 1.00021259514648e-07 1 1 0
1  48 0 1.00000000000007 1811
2  95 15 0 1.00000000000007 1811
2  96 16 0 1.00000000000007 1811
4 G1 15 0 16 0
0

0101000
+131 13 -62 13 *
Ed
 1e-07 1 1 0
1  49 0 3.57768092697428e-07 1.57079838871565
2  97 15 28 3.57768092697428e-07 1.57079838871565
2  98 22 29 3.57768092697428e-07 1.57079838871565
0

0101000
+67 30 -62 30 *
Wi

0101000
-130 0 -61 0 +60 31 +65 0 *
Fa
0  1e-07 15 0

0101000
+59 0 *
Ve
0.098100524674305
240 840 970
0 0

0101101
*
Ed
 1.00000014210855e-07 1 1 0
1  50 0 1 941
2  99 16 32 1 941
0

0101000
+129 16 -57 16 *
Ve
1e-07
240 840 100
0 0

0101101
*
Ed
 1e-07 1 1 0
1  51 0 941 1811
2  100 16 0 941 1811
2  101 23 0 941 1811
4 G1 16 0 23 0
0

0101000
+57 13 -55 13 *
Ed
 1e-07 1 1 0
1  52 0 0 604.999958761585
2  102 16 28 0 604.999958761585
2  103 22 29 0 604.999958761585
0

0101000
+55 30 -62 30 *
Wi

0101000
-128 32 +56 0 -61 32 +54 32 +53 33 *
Fa
0  1e-07 16 32

0101000
+52 0 *
Ve
1.00003467448551e-07
70.0000165204094 839.999999999997 970
0 0

0101101
*
Ed
 1.00003467448551e-07 1 1 0
1  53 0 1.00000000000006 941
2  104 17 0 1.00000000000006 941
2  105 18 0 1.00000000000006 941
4 G1 17 0 18 0
0

0101000
+127 16 -50 16 *
Ed
 1e-07 1 1 0
1  54 0 0 169.999983479591
2  106 17 38 0 169.999983479591
2  107 24 39 0 169.999983479591
0

0101000
+57 40 -50 40 *
Ed
 1e-07 1 1 0
1  55 0 -941 -1
2  108 17 0 -941 -1
0

0101000
+57 16 -129 16 *
Wi

0101000
-126 0 -49 0 +48 37 -47 0 *
Fa
0  1e-07 17 0

0101000
+46 0 *
Ve
1.00003424815986e-07
50.0000000000034 819.99998344522 970
0 0

0101101
*
Ed
 1.00003424815986e-07 1 1 0
1  56 0 0.999999999999915 941
2  109 18 0 0.999999999999915 941
2  110 19 0 0.999999999999915 941
4 G1 18 0 19 0
0

0101000
+125 16 -44 16 *
Ed
 1e-07 1 1 0
1  57 0 1.57079550077443 3.14159348132881
2  111 18 38 1.57079550077443 3.14159348132881
2  112 24 39 1.57079550077443 3.14159348132881
0

0101000
+50 40 -44 40 *
Wi

0101000
-124 0 -43 0 +42 37 +49 0 *
Fa
0  1e-07 18 0

0101000
+41 0 *
Ve
0.015604062418539
50 650.000167076258 970
0 0

0101101
*
Ed
 1e-07 1 1 0
1  58 0 0 169.999816368961
2  113 19 38 0 169.999816368961
2  114 24 39 0 169.999816368961
0

0101000
+39 40 -44 40 *
Ed
 1e-07 1 1 0
1  59 0 1.00000000000009 941
2  115 19 41 1.00000000000009 941
2  116 20 0 1.00000000000009 941
0

0101000
+123 13 -39 13 *
Wi

0101000
-122 0 -43 0 +38 37 +37 32 *
Fa
0  1e-07 19 0

0101000
+36 0 *
Ve
1e-07
50 100.000000206168 100
0 0

0101101
*
Ed
 1e-07 1 1 0
1  60 0 1.00000000000009 1811
2  117 20 0 1.00000000000009 1811
2  118 21 0 1.00000000000009 1811
4 G1 20 0 21 0
0

0101000
+121 13 -34 13 *
Ve
1e-07
50 650.000167076258 100
0 0

0101101
*
Ed
 1e-07 1 1 0
1  61 0 0 550.000166870091
2  119 20 28 0 550.000166870091
2  120 22 29 0 550.000166870091
0

0101000
+34 30 -32 30 *
Ed
 1e-07 1 1 0
1  62 0 941 1811
2  121 20 0 941 1811
2  122 25 0 941 1811
4 G1 20 0 25 0
0

0101000
+39 13 -32 13 *
Wi

0101000
-120 32 +33 32 -37 32 +31 33 -30 32 *
Fa
0  1e-07 20 32

0101000
+29 0 *
Ed
 1e-07 1 1 0
1  63 0 3.14159264328141 4.71238894091659
2  123 21 28 3.14159264328141 4.71238894091659
2  124 22 29 3.14159264328141 4.71238894091659
0

0101000
+34 30 -77 30 *
Wi

0101000
-118 0 -75 0 +27 31 +33 0 *
Fa
0  1e-07 21 0

0101000
+26 0 *
Ve
1.00000017763568e-07
55.8578708159441 664.14230905398 100
0 0

0101101
*
Ed
 1e-07 1 1 0
1  64 0 2.35619403483866 3.14159264930572
2  125 22 29 2.35619403483866 3.14159264930572
2  126 25 28 2.35619403483866 3.14159264930572
0

0101000
+24 30 -32 30 *
Ve
1.00000113686838e-07
225.85786879646 834.142140369182 100
0 0

0101101
*
Ed
 1e-07 1 1 0
1  65 0 0 240.4161848973
2  127 22 29 0 240.4161848973
2  128 26 28 0 240.4161848973
0

0101000
+22 30 -24 30 *
Ed
 1e-07 1 1 0
1  66 0 1.57079631053183 2.35619415463827
2  129 22 29 1.57079631053183 2.35619415463827
2  130 23 28 1.57079631053183 2.35619415463827
0

0101000
+55 30 -22 30 *
Wi

0101100
+53 24 -60 24 +66 24 -70 24 -76 24 -27 24 +31 24 -23 24 -21 24 -20 24 
*
Fa
0  1e-07 22 0

0101000
-19 0 *
Ve
2.00001113686838e-07
225.85786879646 834.142140369182 970
0 0

0101101
*
Ed
 1.00000113686838e-07 1 1 0
1  67 0 941 1811
2  131 23 0 941 1811
2  132 26 0 941 1811
4 G1 23 0 26 0
0

0101000
+17 13 -22 13 *
Ed
 1e-07 1 1 0
1  68 0 3.14159263732673 3.92699048143316
2  133 23 32 3.14159263732673 3.92699048143316
2  134 24 43 3.14159263732673 3.92699048143316
0

0101000
+57 16 -17 16 *
Wi

0101000
-16 32 +20 33 +54 32 -15 0 *
Fa
0  1e-07 23 32

0101000
+14 0 *
Ve
2.00001017763568e-07
55.8578708159441 664.14230905398 970
0 0

0101101
*
Ed
 1e-07 1 1 0
1  69 0 3.92699036163356 4.71238897610061
2  135 24 43 3.92699036163356 4.71238897610061
2  136 25 32 3.92699036163356 4.71238897610061
0

0101000
+12 16 -39 16 *
Ed
 1e-07 1 1 0
1  70 0 7.07106600706121 247.487250904361
2  137 24 43 7.07106600706121 247.487250904361
2  138 26 32 7.07106600706121 247.487250904361
0

0101000
+17 16 -12 16 *
Wi

0101000
-48 37 -42 37 +38 37 +11 0 +10 0 +15 0 *
Fa
0  1e-07 24 43

0101000
+9 0 *
Ed
 1.00000017763568e-07 1 1 0
1  71 0 941 1811
2  139 25 0 941 1811
2  140 26 0 941 1811
4 G1 25 0 26 0
0

0101000
+12 13 -24 13 *
Wi

0101000
-11 0 -30 32 +23 33 +7 32 *
Fa
0  1e-07 25 32

0101000
+6 0 *
Wi

0101000
-10 0 -7 32 +21 33 +16 32 *
Fa
0  1e-07 26 32

0101000
+4 0 *
Sh

0101000
-162 8 -143 0 +113 0 +108 8 -105 8 +98 0 -93 0 +90 0 +88 8 +83 0 
-80 0 -73 0 -68 11 +63 11 -58 11 +51 14 -45 14 -40 14 +35 14 +28 14 
-25 11 +18 42 -13 14 -8 14 -5 14 -3 14 *
So

0100000
+2 0 *

+1 1 