DBRep_DrawableShape

CASCADE Topology V1, (c) Matra-Datavision
Locations 14
1
              1               0              -0               0 
             -0 1.77321265310004e-16              -1               0 
              0               1 1.77321265310004e-16               0 
2  1 -1 0
1
              1               0              -0               0 
             -0 1.77321265310004e-16              -1               0 
              0               1 1.77321265310004e-16               0 
1
              1               0               0               0 
              0 -1.83663848019044e-16              -1               0 
              0               1 -1.83663848019044e-16               0 
2  3 1 4 -1 0
2  4 1 3 -1 0
2  3 -1 0
2  1 -1 4 1 3 -1 0
1
              1               0               0               0 
              0               1               0 2.81005687469138e-13 
              0               0               1            1530 
2  3 1 4 -1 9 1 0
2  9 -1 4 1 3 -1 0
2  1 -1 9 -1 4 1 3 -1 0
2  4 -1 0
2  4 -1 9 1 0
Curve2ds 72
1 0 0 -1.773212653100043e-16 -1 
1 99.999999999999972 0 0 -1 
1 1199.9999999999995 -7.5484127868335567e-29 -1.773212653100043e-16 -1 
1 0 0 0 -1 
1 0 0 1 0 
1 0 0 -1 1.9976300645142177e-63 
1 -2.713015359243065e-13 -1529.9999999999995 1 0 
1 0 0 -1 1.9976300645142177e-63 
1 99.999999999999972 0 0 -1 
1 0 0 1.773212653100043e-16 -1 
1 0 1.0097419586828951e-28 1 0 
1 -1199.9999999999995 9.9300849258057671e-61 -9.6617401813105952e-64 1 
1 0 -1529.9999999999995 1 0 
1 -1199.9999999999995 -1.9925960571063364e-45 -9.6617401813105952e-64 1 
1 849.99999999999966 7.6913938259048651e-29 1.773212653100043e-16 -1 
1 0 2.5243548967072378e-29 0 -1 
1 -5.435505371384936e-44 1.0097419586828951e-28 1 0 
1 -1199.9999999999995 99.999999999999972 1 -1.9976300645142177e-63 
1 3.688614084312868e-13 -1529.9999999999995 1 0 
1 -1199.9999999999995 99.999999999999972 1 -1.9976300645142177e-63 
1 0 0 0 -1 
1 249.99999999999989 1.3940651309452568e-29 1.773212653100043e-16 -1 
1 0 0 1 0 
1 -1.6317183614313638e-61 99.999999999999972 9.6617401813105952e-64 -1 
1 0 -1529.9999999999995 1 0 
1 0 99.999999999999972 9.6617401813105952e-64 -1 
1 0 0 1.773212653100043e-16 -1 
1 1979.9999999999991 0 0 -1 
1 -1.358876342846234e-44 2.5243548967072378e-29 1 0 
1 -249.99999999999989 99.999999999999972 1 -1.9976300645142177e-63 
1 2.5517457070967072e-13 -1529.9999999999995 1 0 
1 -249.99999999999991 99.999999999999972 1 -1.9976300645142177e-63 
1 0 0 0 -1 
1 249.99999999999989 -1.3940651309452568e-29 -1.773212653100043e-16 -1 
1 -4.5474735088646412e-13 2.5243548967072378e-29 1 0 
1 -249.99999999999989 2079.9999999999995 9.6617401813105952e-64 -1 
1 -4.5474735088646412e-13 -1529.9999999999995 1 0 
1 -249.99999999999991 2079.9999999999995 9.6617401813105952e-64 -1 
1 0 0 -1.773212653100043e-16 -1 
1 100 0 0 -1 
1 0 0 1 0 
1 4.3755576172461153e-61 2079.9999999999995 -1 1.9976300645142177e-63 
1 -2.713015359243065e-13 -1529.9999999999995 1 0 
1 0 2079.9999999999995 -1 1.9976300645142177e-63 
1 0 0 0 -1 
1 799.99999999999955 -1.4446015326859779e-29 1.773212653100043e-16 -1 
1 -4.5474735088646412e-13 0 1 0 
1 2.3579393826270732e-61 2179.9999999999995 9.6617401813105952e-64 -1 
1 -4.5474735088646412e-13 -1529.9999999999995 1 0 
1 0 2179.9999999999995 9.6617401813105952e-64 -1 
1 0 0 1.773212653100043e-16 -1 
1 30 0 0 -1 
1 -1.1368683772161603e-13 -1.0711251978704062e-29 1 0 
1 -799.99999999999966 2179.9999999999995 1 -1.9976300645142177e-63 
1 1.4148773298805474e-13 -1529.9999999999995 1 0 
1 -799.99999999999966 2179.9999999999995 1 -1.9976300645142177e-63 
1 0 0 0 -1 
1 449.99999999999966 3.8259753903219073e-29 -1.773212653100043e-16 -1 
1 4.5474735088646412e-13 0 1 0 
1 -799.99999999999966 2149.9999999999995 -9.6617401813105952e-64 1 
1 4.5474735088646412e-13 -1529.9999999999995 1 0 
1 -799.99999999999966 2149.9999999999995 -9.6617401813105952e-64 1 
1 1.358876342846234e-44 2.5243548967072378e-29 -1.773212653100043e-16 -1 
1 2049.9999999999991 2.5243548967072378e-29 0 -1 
1 -5.6843418860808015e-14 3.0599174956424409e-29 1 0 
1 -349.99999999999983 2149.9999999999995 -1 1.9976300645142177e-63 
1 -3.1201798957047878e-13 -1529.9999999999995 1 0 
1 -349.99999999999983 2149.9999999999995 -1 1.9976300645142177e-63 
1 0 2.5243548967072378e-29 1 0 
1 -349.99999999999983 99.999999999999972 -9.6617401813105952e-64 1 
1 0 -1529.9999999999995 1 0 
1 -349.99999999999983 99.999999999999972 -9.6617401813105952e-64 1 
Curves 36
1 0 0 0 0 1.8366384801904445e-16 1 
1 0 1199.9999999999998 -4.3318213599485839e-13 0 1.8366384801904445e-16 1 
1 0 0 0 0 1 0 
1 0 0 0 0 1 0 
1 99.999999999999986 1199.9999999999998 -4.3318213599485839e-13 0 1.8366384801904445e-16 1 
1 0 1200 0 1 0 0 
1 0 1200 0 1 0 0 
1 99.999999999999986 349.99999999999994 -1.2634478966516705e-13 0 1.8366384801904445e-16 1 
1 100 1200 0 0 -1 0 
1 100 1200 0 0 -1 0 
1 99.999999999999986 0 0 0 1.8366384801904445e-16 1 
1 100 0 0 -1 0 0 
1 100 0 0 -1 0 0 
1 99.999999999999986 249.99999999999994 -9.0246278332262163e-14 0 1.8366384801904445e-16 1 
1 100 250 0 0 -1 0 
1 100 250 0 0 -1 0 
1 2079.9999999999995 249.99999999999994 -9.0246278332262163e-14 0 1.8366384801904445e-16 1 
1 2080 250 0 -1 0 0 
1 2080 250 0 -1 0 0 
1 2079.9999999999995 0 0 0 1.8366384801904445e-16 1 
1 2080 0 0 0 1 0 
1 2080 0 0 0 1 0 
1 2179.9999999999995 0 0 0 1.8366384801904445e-16 1 
1 2180 0 0 -1 0 0 
1 2180 0 0 -1 0 0 
1 2179.9999999999995 799.99999999999977 -2.8878809066323891e-13 0 1.8366384801904445e-16 1 
1 2180 800 0 0 -1 0 
1 2180 800 0 0 -1 0 
1 2149.9999999999995 799.99999999999977 -2.8878809066323891e-13 0 1.8366384801904445e-16 1 
1 2150 800 0 1 0 0 
1 2150 800 0 1 0 0 
1 2149.9999999999995 349.99999999999994 -1.2634478966516705e-13 0 1.8366384801904445e-16 1 
1 2150 350 0 0 1 0 
1 2150 350 0 0 1 0 
1 100 350 0 1 0 0 
1 100 350 0 1 0 0 
Polygon3D 0
PolygonOnTriangulations 0
Surfaces 14
1 0 0 0 -1 0 0 0 1 -3.6098511332904875e-16 -0 -3.6098511332904875e-16 -1 
1 99.999999999999986 0 0 0 -1 1.8366384801904445e-16 -1 0 0 -0 -1.8366384801904445e-16 -1 
1 0 1199.9999999999998 -4.3318213599485839e-13 0 1 -1.8366384801904445e-16 1 0 0 0 -1.8366384801904445e-16 -1 
1 0 0 0 -2.7557540955720687e-32 -1 1.773212653100043e-16 0 -1.773212653100043e-16 -1 1 -2.7557540955720687e-32 4.8865380311006574e-48 
1 0 0 0 -2.7557540955720687e-32 -1 1.773212653100043e-16 0 -1.773212653100043e-16 -1 1 -2.7557540955720687e-32 4.8865380311006574e-48 
1 99.999999999999986 1199.9999999999998 -4.3318213599485839e-13 1 0 -0 0 -1 3.6098511332904875e-16 0 -3.6098511332904875e-16 -1 
1 99.999999999999986 349.99999999999994 -1.2634478966516702e-13 0 1 -1.8366384801904445e-16 1 0 0 0 -1.8366384801904445e-16 -1 
1 99.999999999999986 249.99999999999994 -9.0246278332262163e-14 1 0 -0 0 -1 3.6098511332904875e-16 0 -3.6098511332904875e-16 -1 
1 2079.9999999999995 249.99999999999994 -9.0246278332262163e-14 0 -1 1.8366384801904445e-16 -1 0 0 -0 -1.8366384801904445e-16 -1 
1 2079.9999999999995 0 0 -1 0 0 0 1 -3.6098511332904875e-16 -0 -3.6098511332904875e-16 -1 
1 2179.9999999999995 0 0 0 -1 1.8366384801904445e-16 -1 0 0 -0 -1.8366384801904445e-16 -1 
1 2179.9999999999995 799.99999999999977 -2.8878809066323891e-13 1 0 -0 0 -1 3.6098511332904875e-16 0 -3.6098511332904875e-16 -1 
1 2149.9999999999995 799.99999999999977 -2.8878809066323891e-13 0 1 -1.8366384801904445e-16 1 0 0 0 -1.8366384801904445e-16 -1 
1 2149.9999999999995 349.99999999999994 -1.2634478966516702e-13 -1 0 0 0 1 -3.6098511332904875e-16 -0 -3.6098511332904875e-16 -1 
Triangulations 0

TShapes 90
Ve
1e-07
0 0 0
0 0

0101101
*
Ve
1e-07
0 -1530 5.52307223393444e-13
0 0

0101101
*
Ed
 1e-07 1 1 0
1  1 0 0 1530
2  1 1 0 0 1530
2  2 2 0 0 1530
0

0101000
+90 2 -89 2 *
Ve
1e-07
0 6.45967654366863e-13 1200
0 0

0101101
*
Ve
1e-07
0 -1530 1200
0 0

0101101
*
Ed
 1e-07 1 1 0
1  2 0 0 1530
2  3 1 0 0 1530
2  4 3 0 0 1530
0

0101000
+87 2 -86 2 *
Ed
 1e-07 1 1 0
1  3 0 0 1200
2  5 1 6 0 1200
2  6 4 7 0 1200
0

0101000
+90 8 -87 8 *
Ed
 1e-07 1 1 0
1  4 0 0 1200
2  7 1 11 0 1200
2  8 5 7 0 1200
0

0101000
+89 12 -86 12 *
Wi

0101000
+88 0 -85 0 -84 5 +83 10 *
Fa
0  1e-07 1 0

0101000
+82 0 *
Ve
1e-07
100 6.45967654366863e-13 1200
0 0

0101101
*
Ve
1e-07
100 -1530 1200
0 0

0101101
*
Ed
 1e-07 1 1 0
1  5 0 0 1530
2  9 3 0 0 1530
2  10 6 0 0 1530
0

0101000
+80 2 -79 2 *
Ed
 1e-07 1 1 0
1  6 0 0 100
2  11 3 6 0 100
2  12 4 7 0 100
0

0101000
+87 8 -80 8 *
Ed
 1e-07 1 1 0
1  7 0 0 100
2  13 3 11 0 100
2  14 5 7 0 100
0

0101000
+86 12 -79 12 *
Wi

0101000
+85 0 -78 0 -77 5 +76 10 *
Fa
0  1e-07 3 0

0101000
+75 0 *
Ve
1e-07
100 1.88407232523668e-13 350
0 0

0101101
*
Ve
1e-07
100 -1530 350
0 0

0101101
*
Ed
 1e-07 1 1 0
1  8 0 0 1530
2  15 6 0 0 1530
2  16 7 0 0 1530
0

0101000
+73 2 -72 2 *
Ed
 1e-07 1 1 0
1  9 0 0 850
2  17 6 6 0 850
2  18 4 7 0 850
0

0101000
+80 8 -73 8 *
Ed
 1e-07 1 1 0
1  10 0 0 850
2  19 6 11 0 850
2  20 5 7 0 850
0

0101000
+79 12 -72 12 *
Wi

0101000
+78 0 -71 0 -70 5 +69 10 *
Fa
0  1e-07 6 0

0101000
+68 0 *
Ve
1e-07
100 0 0
0 0

0101101
*
Ve
1e-07
100 -1530 5.52307223393444e-13
0 0

0101101
*
Ed
 1e-07 1 1 0
1  11 0 0 1530
2  21 2 0 0 1530
2  22 8 0 0 1530
0

0101000
+66 2 -65 2 *
Ed
 1e-07 1 1 0
1  12 0 0 100
2  23 2 6 0 100
2  24 4 7 0 100
0

0101000
+66 8 -90 8 *
Ed
 1e-07 1 1 0
1  13 0 0 100
2  25 2 11 0 100
2  26 5 7 0 100
0

0101000
+65 12 -89 12 *
Wi

0101000
+64 0 -88 0 -63 5 +62 10 *
Fa
0  1e-07 2 0

0101000
+61 0 *
Ve
1e-07
100 1.34576594659763e-13 250
0 0

0101101
*
Ve
1e-07
100 -1530 250
0 0

0101101
*
Ed
 1e-07 1 1 0
1  14 0 0 1530
2  27 8 0 0 1530
2  28 9 0 0 1530
0

0101000
+59 2 -58 2 *
Ed
 1e-07 1 1 0
1  15 0 0 250
2  29 8 6 0 250
2  30 4 7 0 250
0

0101000
+59 8 -66 8 *
Ed
 1e-07 1 1 0
1  16 0 0 250
2  31 8 11 0 250
2  32 5 7 0 250
0

0101000
+58 12 -65 12 *
Wi

0101000
+57 0 -64 0 -56 5 +55 10 *
Fa
0  1e-07 8 0

0101000
+54 0 *
Ve
1e-07
2080 1.34576594659763e-13 250
0 0

0101101
*
Ve
1e-07
2080 -1530 250
0 0

0101101
*
Ed
 1e-07 1 1 0
1  17 0 0 1530
2  33 9 0 0 1530
2  34 10 0 0 1530
0

0101000
+52 2 -51 2 *
Ed
 1e-07 1 1 0
1  18 0 0 1980
2  35 9 6 0 1980
2  36 4 7 0 1980
0

0101000
+52 8 -59 8 *
Ed
 1e-07 1 1 0
1  19 0 0 1980
2  37 9 11 0 1980
2  38 5 7 0 1980
0

0101000
+51 12 -58 12 *
Wi

0101000
+50 0 -57 0 -49 5 +48 10 *
Fa
0  1e-07 9 0

0101000
+47 0 *
Ve
1e-07
2080 0 0
0 0

0101101
*
Ve
1e-07
2080 -1530 5.52307223393444e-13
0 0

0101101
*
Ed
 1e-07 1 1 0
1  20 0 0 1530
2  39 10 0 0 1530
2  40 11 0 0 1530
0

0101000
+45 2 -44 2 *
Ed
 1e-07 1 1 0
1  21 0 0 250
2  41 10 6 0 250
2  42 4 7 0 250
0

0101000
+45 8 -52 8 *
Ed
 1e-07 1 1 0
1  22 0 0 250
2  43 10 11 0 250
2  44 5 7 0 250
0

0101000
+44 12 -51 12 *
Wi

0101000
+43 0 -50 0 -42 5 +41 10 *
Fa
0  1e-07 10 0

0101000
+40 0 *
Ve
1e-07
2180 0 0
0 0

0101101
*
Ve
1e-07
2180 -1530 5.52307223393444e-13
0 0

0101101
*
Ed
 1e-07 1 1 0
1  23 0 0 1530
2  45 11 0 0 1530
2  46 12 0 0 1530
0

0101000
+38 2 -37 2 *
Ed
 1e-07 1 1 0
1  24 0 0 100
2  47 11 6 0 100
2  48 4 7 0 100
0

0101000
+38 8 -45 8 *
Ed
 1e-07 1 1 0
1  25 0 0 100
2  49 11 11 0 100
2  50 5 7 0 100
0

0101000
+37 12 -44 12 *
Wi

0101000
+36 0 -43 0 -35 5 +34 10 *
Fa
0  1e-07 11 0

0101000
+33 0 *
Ve
1e-07
2180 4.30645102911242e-13 800
0 0

0101101
*
Ve
1e-07
2180 -1530 800
0 0

0101101
*
Ed
 1e-07 1 1 0
1  26 0 0 1530
2  51 12 0 0 1530
2  52 13 0 0 1530
0

0101000
+31 2 -30 2 *
Ed
 1e-07 1 1 0
1  27 0 0 800
2  53 12 6 0 800
2  54 4 7 0 800
0

0101000
+31 8 -38 8 *
Ed
 1e-07 1 1 0
1  28 0 0 800
2  55 12 11 0 800
2  56 5 7 0 800
0

0101000
+30 12 -37 12 *
Wi

0101000
+29 0 -36 0 -28 5 +27 10 *
Fa
0  1e-07 12 0

0101000
+26 0 *
Ve
1e-07
2150 4.30645102911242e-13 800
0 0

0101101
*
Ve
1e-07
2150 -1530 800
0 0

0101101
*
Ed
 1e-07 1 1 0
1  29 0 0 1530
2  57 13 0 0 1530
2  58 14 0 0 1530
0

0101000
+24 2 -23 2 *
Ed
 1e-07 1 1 0
1  30 0 0 30
2  59 13 6 0 30
2  60 4 7 0 30
0

0101000
+24 8 -31 8 *
Ed
 1e-07 1 1 0
1  31 0 0 30
2  61 13 11 0 30
2  62 5 7 0 30
0

0101000
+23 12 -30 12 *
Wi

0101000
+22 0 -29 0 -21 5 +20 10 *
Fa
0  1e-07 13 0

0101000
+19 0 *
Ve
1e-07
2150 1.88407232523668e-13 350
0 0

0101101
*
Ve
1e-07
2150 -1530 350
0 0

0101101
*
Ed
 1e-07 1 1 0
1  32 0 0 1530
2  63 14 0 0 1530
2  64 7 0 0 1530
0

0101000
+17 2 -16 2 *
Ed
 1e-07 1 1 0
1  33 0 0 450
2  65 14 6 0 450
2  66 4 7 0 450
0

0101000
+17 8 -24 8 *
Ed
 1e-07 1 1 0
1  34 0 0 450
2  67 14 11 0 450
2  68 5 7 0 450
0

0101000
+16 12 -23 12 *
Wi

0101000
+15 0 -22 0 -14 5 +13 10 *
Fa
0  1e-07 14 0

0101000
+12 0 *
Ed
 1e-07 1 1 0
1  35 0 0 2050
2  69 7 6 0 2050
2  70 4 7 0 2050
0

0101000
+73 8 -17 8 *
Ed
 1e-07 1 1 0
1  36 0 0 2050
2  71 7 11 0 2050
2  72 5 7 0 2050
0

0101000
+72 12 -16 12 *
Wi

0101000
+71 0 -15 0 -10 5 +9 10 *
Fa
0  1e-07 7 0

0101000
+8 0 *
Wi

0101000
+84 0 +77 0 +70 0 +63 0 +56 0 +49 0 +42 0 +35 0 +28 0 +21 0 
+14 0 +10 0 *
Fa
0  1e-07 4 0

0101000
-6 3 *
Wi

0101000
+83 0 +76 0 +69 0 +62 0 +55 0 +48 0 +41 0 +34 0 +27 0 +20 0 
+13 0 +9 0 *
Fa
0  1e-07 5 0

0101000
-4 3 *
Sh

0101000
-81 0 -74 0 -67 0 -60 0 -53 0 -46 0 -39 0 -32 0 -25 0 -18 0 
-11 0 -7 0 +5 13 -3 14 *
So

1100000
-2 0 *

+1 1 