DBRep_DrawableShape

CASCADE Topology V1, (c) Matra-Datavision
Locations 8
1
              1               0               0               0 
              0               1               0               0 
              0               0               1               0 
2  1 -1 0
1
              0              -1               0              65 
             -1              -0 -1.77321265310004e-16             225 
1.77321265310004e-16               0              -1             565 
2  3 -1 0
2  1 -1 3 -1 0
1
              0               0               1             285 
             -1 -2.83302027670462e-16               0             225 
2.83302027670462e-16              -1               0             360 
2  6 -1 0
2  1 -1 6 -1 0
Curve2ds 32
1 6.2831853071795862 0 0 1 
8 0 205
1 0 0 0 1 
8 0 1
7 0 0  1 2 2  6.2831853071795862 0  3.1415926535897931 0 
 0 2 1 2
7 0 0  11 12 2  0 0  -1.2789769243681803e-13 7.1399833036125244  2.2430919554294775 14.279966049059681  6.7292753386997504 20.636966871917224  13.151075073757355 25.427972860560374  20.893521990291148 28.008076764848312  29.1064780097091 28.008076764880769  36.848924926242034 25.427972860535334  43.270724661300868 20.636966871931776  47.756908044570181 14.279966049053684  50.000000000000234 7.1399833036139739  50.000000000000156 6.8212102632969618e-13 
 0 12 1 12
1 3.1415926535897931 0 0 1 
8 0 205
1 3.1415926535897931 0 0 1 
1 0 205 1 0 
8 3.1415926535897931 4.7123889823846845
1 0 0 0 1 
7 0 0  8 9 2  4.7123890127376971 204.99999919117471  4.9087385502929335 200.09126075229383  5.1050880868488928 195.18252120947156  5.3014376234025526 190.56216804930983  5.4977871599627566 186.51853097225546  5.6941366965127767 183.30454871157184  5.8904862330699101 181.10151936110955  6.0868357696243498 180.00000000490869  6.2831853071795862 179.99999999999994 
 1.5707963591479046 9 3.1415926535897931 9
7 0 0  9 10 2  4.7123890127376979 -219.9999991911746  4.8869219351201298 -215.63667613161388  5.0614548564823831 -211.27335308225449  5.2359877779239099 -207.10228164941554  5.4105206989859909 -203.31571106832507  5.5850536207877184 -200.09008634320116  5.7595865419159509 -197.57020972031592  5.9341194634273027 -195.85673641578893  6.1086523847971526 -195.00000000436322  6.2831853071795845 -194.99999999999989 
 1.5707963591479046 10 3.1415926535897931 10
8 1 2
7 0 0  1 2 2  3.1415926535897931 0  0 0 
 1 2 2 2
7 0 0  11 12 2  50.000000000000156 6.8212102632969618e-13  50.000000000000085 -7.1399833036126381  47.756908044570828 -14.279966049059169  43.270724661299347 -20.636966871918332  36.848924926244415 -25.427972860558157  29.106478009706635 -28.008076764851666  20.89352199029274 -28.008076764876677  13.151075073757028 -25.427972860539086  6.7292753386994093 -20.636966871929161  2.2430919554297759 -14.279966049054906  -2.2737367544323206e-13 -7.1399833036136044  0 0 
 1 12 2 12
7 0 0  8 9 2  -4.2512667127304448e-16 179.99999999999994  0.19634953761448939 180.00000000490869  0.39269907422866718 181.10151936202067  0.58904861084304994 183.3045487128673  0.78539814745616843 186.51853097690758  0.98174768407150959 190.56216805497974  1.1780972206866513 195.18252121805176  1.3744467573014283 200.09126076266321  1.570796294915918 204.99999920302542 
 3.1415926535897931 9 4.7123889485057111 9
7 0 0  9 10 2  -2.8837155598127397e-15 -194.99999999999989  0.17453292243509919 -195.00000000436322  0.34906584386460504 -195.85673641815362  0.52359876531709126 -197.57020971633779  0.69813168671466919 -200.09008636211456  0.87266460818449865 -203.31571106165165  1.0471975295940528 -207.10228166286493  1.2217304510458609 -211.27335308971919  1.3962633724808156 -215.63667614214785  1.5707962949159175 -219.99999920302531 
 3.1415926535897931 10 4.7123889485057111 10
1 0 205 1 0 
8 1.570796326794901 3.1415926535897931
1 0 0 0 1 
1 6.2831853071795862 0 0 1 
8 -220 -0
1 0 0 0 1 
1 0 -220 1 0 
7 0 0  1 2 2  1.5707963267948937 3.1415926535897931  1.5707963267948937 4.7123889823846845 
 3.1415926535897931 2 4.712388980384687 2
1 3.1415926535897931 0 0 1 
8 -220 -0
1 3.1415926535897931 0 0 1 
8 0 1
7 0 0  1 2 2  6.2831853071795862 0  3.1415926535897931 0 
 0 2 1 2
7 0 0  11 12 2  0 0  -1.7053025658242404e-13 -7.1399833036129792  -2.243091955428099 -14.279966049057805  -6.7292753387031894 -20.636966871921715  -13.151075073751315 -25.427972860552501  -20.893521990298893 -28.008076764858686  -29.106478009701675 -28.00807676487031  -36.848924926247491 -25.427972860543491  -43.270724661297777 -20.636966871926944  -47.756908044571446 -14.279966049055759  -49.999999999999886 -7.1399833036134623  -50.000000000000057 -3.1263880373444408e-13 
 0 12 1 12
1 0 -220 1 0 
8 1.570796326794901 3.1415926535897931
1 1.5707963267948934 0 0 1 
8 1 2
7 0 0  1 2 2  3.1415926535897931 0  0 0 
 1 2 2 2
7 0 0  11 12 2  -50.000000000000057 -3.1263880373444408e-13  -50.000000000000227 7.1399833036128086  -47.756908044570196 14.27996604905826  -43.270724661300676 20.636966871920691  -36.848924926242375 25.427972860554036  -29.10647800970861 28.008076764857094  -20.893521990291504 28.008076764871248  -13.151075073757397 25.427972860543122  -6.7292753386993809 20.636966871927029  -2.2430919554298043 14.279966049055616  2.2737367544323206e-13 7.1399833036134908  0 0 
 1 12 2 12
8 0 1.5707963267948937
1 0 3.1415926535897931 1 0 
8 0 1.5707963267948934
1 0 3.1415926535897931 1 0 
8 0 1.5707963267948937
1 0 4.7123889823846845 1 0 
8 0 1.5707963267948934
1 0 1.570796326794901 1 0 
Curves 15
1 90 225 564.99999999999989 0 0 -1 
7 0 0  11 12 2  1.2935172113320583e-13 -25.000000000000018 -4.0334892569828228e-14  -7.1399833036123743 -25.000000000000139 -4.1616035715823478e-14  -14.279966049059539 -22.756908044570533 -4.290191385575457e-14  -20.636966871917082 -18.270724661300267 -4.4052034894098647e-14  -25.427972860560224 -11.848924926242661 -4.4925252005938129e-14  -28.00807676484818 -4.1064780097088693 -4.5404549863622467e-14  -28.008076764880641 4.1064780097090852 -4.5421887146382265e-14  -25.427972860535206 11.848924926242022 -4.4975277395487248e-14  -20.636966871931627 18.270724661300854 -4.4129172703973156e-14  -14.279966049053549 22.756908044570167 -4.2997992039782011e-14  -7.139983303613838 25.00000000000022 -4.1721584088030967e-14  -5.3377402019673107e-13 25.000000000000142 -4.0440440942036449e-14 
 0 12 1 12
1 40 225 564.99999999999989 0 0 -1 
2 65 225 359.99999999999989 0 0 -1 1 0 0 0 -1 0 25
3 65 225 359.99999999999994 0.70710678118654757 0 -0.70710678118654757 -0.70710678118654757 0 -0.70710678118654757 0 1 0 35.355339059327378 25
7 0 0  11 12 2  -5.3377402019673107e-13 25.000000000000142 -4.0440440942036449e-14  7.1399833036127696 25.000000000000075 -3.9159297796041926e-14  14.279966049059313 22.756908044570814 -3.7873419656107577e-14  20.636966871918482 18.270724661299333 -3.6723298617772758e-14  25.427972860558302 11.848924926244399 -3.5850081505914653e-14  28.008076764851808 4.1064780097066187 -3.5370783648258846e-14  28.008076764876829 -4.1064780097072786 -3.5353446365464869e-14  25.427972860539239 -11.848924926242983 -3.5800056116391957e-14  20.636966871929296 -18.270724661300612 -3.6646160807882819e-14  14.27996604905505 -22.756908044570238 -3.7777341472086611e-14  7.1399833036137599 -25.000000000000238 -3.9053749423832853e-14  1.2935172113320583e-13 -25.000000000000018 -4.0334892569828228e-14 
 1 12 2 12
3 65 225 359.99999999999994 0.70710678118654757 0 -0.70710678118654757 -0.70710678118654757 0 -0.70710678118654757 0 1 0 35.355339059327378 25
2 65 225 359.99999999999989 0 0 -1 1 0 0 0 -1 0 25
1 284.99999999999989 224.99999999999994 384.99999999999994 1 0 0 
2 64.999999999999886 224.99999999999994 359.99999999999994 1 0 0 -0 2.8330202767046231e-16 1 0 -1 2.8330202767046231e-16 25
1 284.99999999999989 224.99999999999994 334.99999999999994 1 0 0 
7 0 0  11 12 2  5.2648857495896108e-14 -25.00000000000006 -4.4330316327501126e-15  -7.1399833036129179 -24.999999999999879 -4.4330316327500676e-15  -14.279966049057743 -22.756908044571968 -4.0352837290069571e-15  -20.636966871921661 -18.270724661296875 -3.2397880150717123e-15  -25.427972860552455 -11.848924926248756 -2.1010663604859852e-15  -28.008076764858615 -4.106478009701191 -7.2816587664739619e-16  -28.008076764870253 4.1064780097015845 7.2816587664734175e-16  -25.427972860543445 11.848924926247413 2.1010663604860755e-15  -20.636966871926887 18.27072466129772 3.2397880150715754e-15  -14.279966049055702 22.756908044571372 4.0352837290070313e-15  -7.1399833036134064 24.999999999999851 4.4330316327500305e-15  -2.708944180085382e-13 25 4.4330316327500621e-15 
 0 12 1 12
2 64.999999999999886 224.99999999999994 359.99999999999994 1 0 0 -0 2.8330202767046231e-16 1 0 -1 2.8330202767046231e-16 25
7 0 0  11 12 2  -2.708944180085382e-13 25 4.4330316327500621e-15  7.1399833036128646 25.000000000000153 4.4330316327500936e-15  14.279966049058316 22.75690804457016 4.0352837290067867e-15  20.636966871920752 18.27072466130064 3.2397880150721138e-15  25.427972860554089 11.848924926242317 2.1010663604852168e-15  28.00807676485714 4.1064780097085674 7.281658766483939e-16  28.008076764871294 -4.1064780097085354 -7.2816587664834755e-16  25.427972860543182 -11.848924926242653 -2.1010663604853438e-15  20.636966871927104 -18.27072466130068 -3.2397880150720192e-15  14.279966049055687 -22.756908044570274 -4.0352837290068491e-15  7.1399833036135423 -25.000000000000291 -4.4330316327500936e-15  5.2648857495896108e-14 -25.00000000000006 -4.4330316327501126e-15 
 1 12 2 12
2 64.999999999999972 225 359.99999999999989 1.1134282490988709e-33 -1 1.7732126531000435e-16 -1 -1.1134282490988709e-33 1.9743450596211451e-49 0 -1.7732126531000435e-16 -1 24.999999999999968
Polygon3D 0
PolygonOnTriangulations 0
Surfaces 8
10 3.1415926535897931 6.2831853071795862 0 205
2 65 225 564.99999999999989 0 0 -1 1 0 0 0 -1 0 25
10 0 3.1415926535897931 0 205
2 65 225 564.99999999999989 0 0 -1 1 0 0 0 -1 0 25
1 90 224.99999999999997 564.99999999999989 0 0 -1 -1 0 -0 0 1 0 
10 0 1.5707963267948937 3.1415926535897931 4.7123889823846845
7 64.999999999999972 225.00000000000006 359.99999999999989 1.1134282490988709e-33 -1 1.7732126531000435e-16 
2 65 225 359.99999999999989 0 0 -1 1 0 0 0 -1 0 25
10 3.1415926535897931 6.2831853071795862 -220 -0
2 284.99999999999989 224.99999999999994 359.99999999999994 1 0 0 -0 2.8330202767046231e-16 1 0 -1 2.8330202767046231e-16 25
10 0 3.1415926535897931 -220 -0
2 284.99999999999989 224.99999999999994 359.99999999999994 1 0 0 -0 2.8330202767046231e-16 1 0 -1 2.8330202767046231e-16 25
10 0 1.5707963267948934 1.570796326794901 3.1415926535897931
7 64.999999999999972 225.00000000000006 359.99999999999989 1.1134282490988709e-33 -1 1.7732126531000435e-16 
2 65 225 359.99999999999989 0 0 -1 1 0 0 0 -1 0 25
1 284.99999999999994 225 385 1 0 0 -0 0 1 0 -1 0 
Triangulations 0

TShapes 44
Ve
1.00000000322328e-07
90 225 565
0 0

0101101
*
Ve
1.00000028421709e-07
90 225 385
0 0

0101101
*
Ed
 1e-07 1 1 0
1  1 0 0 180
2  1 1 0 0 180
2  2 2 0 0 180
4 G1 1 0 2 0
0

0101000
+44 2 -43 2 *
Ve
1.0000000002121e-07
39.9999999999998 225.000000000001 565
0 0

0101101
*
Ed
 1e-07 1 1 0
1  2 0 0 1
2  3 1 4 0 1
2  4 3 4 0 1
0

0101000
+44 5 -41 5 *
Ve
1.00000000301094e-07
40 225 360
0 0

0101101
*
Ed
 1e-07 1 1 0
1  3 0 0 205
2  5 1 0 0 205
2  6 2 0 0 205
4 G1 1 0 2 0
0

0101000
+41 2 -39 2 *
Ve
1.12631374734768e-06
65.0000000249999 250 360
0 0

0101101
*
Ed
 1e-07 1 1 0
1  4 0 3.14159265358979 4.71238898238468
2  7 1 0 3.14159265358979 4.71238898238468
2  8 4 0 3.14159265358979 4.71238898238468
4 G1 1 0 4 0
0

0101000
+39 2 -37 2 *
Ed
 1e-07 1 1 0
1  5 0 1.5707963591479 3.14159265358979
2  9 1 0 1.5707963591479 3.14159265358979
2  10 5 0 1.5707963591479 3.14159265358979
0

0101000
+37 2 -43 2 *
Wi

0101000
+42 0 -40 3 -38 0 -36 0 -35 0 *
Fa
0  1e-07 1 0

0101000
+34 0 *
Ed
 1e-07 1 1 0
1  6 0 1 2
2  11 2 4 1 2
2  12 3 4 1 2
0

0101000
+41 5 -44 5 *
Ve
1.68587499684839e-06
64.9999999999999 200 360
0 0

0101101
*
Ed
 1e-07 1 1 0
1  7 0 3.14159265358979 4.71238894850571
2  13 2 0 3.14159265358979 4.71238894850571
2  14 6 0 3.14159265358979 4.71238894850571
0

0101000
+43 2 -31 2 *
Ed
 1e-07 1 1 0
1  8 0 1.5707963267949 3.14159265358979
2  15 2 0 1.5707963267949 3.14159265358979
2  16 7 0 1.5707963267949 3.14159265358979
4 G1 2 0 7 0
0

0101000
+31 2 -39 2 *
Wi

0101000
+38 0 -32 3 -42 0 -30 0 -29 0 *
Fa
0  1e-07 2 0

0101000
+28 0 *
Ve
1.0000097551329e-07
285 225 385
0 0

0101101
*
Ed
 1e-07 1 1 0
1  9 0 -195 -0
2  17 5 0 -195 -0
2  18 6 0 -195 -0
4 G1 5 0 6 0
0

0101000
+43 2 -26 2 *
Ve
1.00000000301094e-07
64.9999999999999 225 335
0 0

0101101
*
Ed
 1e-07 1 1 0
1  10 0 3.14159265358979 4.71238898038469
2  19 5 0 3.14159265358979 4.71238898038469
2  20 4 0 3.14159265358979 4.71238898038469
4 G1 5 0 4 0
0

0101000
+24 2 -37 2 *
Ve
1.00000975266959e-07
285 225 335
0 0

0101101
*
Ed
 1e-07 1 1 0
1  11 0 -220 -0
2  21 5 0 -220 -0
2  22 6 0 -220 -0
4 G1 5 0 6 0
0

0101000
+24 2 -22 2 *
Ed
 1e-07 1 1 0
1  12 0 0 1
2  23 5 7 0 1
2  24 8 7 0 1
0

0101000
+26 8 -22 8 *
Wi

0101000
+25 0 +23 0 +35 0 -21 0 +20 6 *
Fa
0  1e-07 5 0

0101000
+19 0 *
Ed
 1e-07 1 1 0
1  13 0 1.5707963267949 3.14159265358979
2  25 6 0 1.5707963267949 3.14159265358979
2  26 7 0 1.5707963267949 3.14159265358979
4 G1 6 0 7 0
0

0101000
+31 2 -24 2 *
Ed
 1e-07 1 1 0
1  14 0 1 2
2  27 6 7 1 2
2  28 8 7 1 2
0

0101000
+22 8 -26 8 *
Wi

0101000
+21 0 +30 0 +17 0 -25 0 +16 6 *
Fa
0  1e-07 6 0

0101000
+15 0 *
Ed
 1e-07 1 1 0
1  15 0 0 1.57079632679489
2  29 4 0 0 1.57079632679489
2  30 7 0 0 1.57079632679489
0

0101000
+39 2 -24 2 *
Ed
 1.12631374734768e-06 1 1 1
2  31 4 0 0 1.57079632679489
0

0101000
+37 2 -37 2 *
Wi

0101100
-36 0 +13 0 +23 0 -12 0 *
Fa
0  1e-07 4 0

0101000
+11 0 *
Ed
 1.68587499684839e-06 1 1 1
2  32 7 0 0 1.57079632679489
0

0101000
+31 2 -31 2 *
Wi

0101100
-29 0 +9 0 +17 0 -13 0 *
Fa
0  1e-07 7 0

0101000
+8 0 *
Wi

0101100
+40 3 +32 3 *
Fa
0  1e-07 3 0

0101000
-6 0 *
Wi

0101100
+20 6 +16 6 *
Fa
0  1e-07 8 0

0101000
-4 0 *
Sh

0101100
-33 0 -27 0 -18 0 -14 0 +10 0 +7 0 +5 0 -3 0 *
So

1100100
-2 0 *

+1 1 