DBRep_DrawableShape

CASCADE Topology V1, (c) Matra-Datavision
Locations 22
1
              1               0              -0               0 
             -0 2.22044604925031e-16              -1               0 
              0               1 2.22044604925031e-16               0 
1
              1               0              -0               0 
             -0 2.22044604925031e-16              -1               0 
              0               1 2.22044604925031e-16               0 
1
              1               0               0               0 
              0 -2.22044604925031e-16              -1               0 
              0               1 -2.22044604925031e-16               0 
2  2 1 3 -1 0
2  1 -1 3 1 2 -1 0
1
             -1               0               0              -0 
              0              -1 4.44089209850062e-16 1.11022302462516e-14 
              0 4.44089209850062e-16               1              25 
2  6 1 3 -1 0
2  2 1 6 -1 0
2  3 1 6 -1 0
2  1 -1 3 1 6 -1 0
1
              1               0              -0               0 
             -0 2.22044604925031e-16              -1               0 
              0               1 2.22044604925031e-16               0 
1
              1               0               0               0 
              0 -2.22044604925031e-16              -1               0 
              0               1 -2.22044604925031e-16               0 
2  11 1 12 -1 0
2  12 1 11 -1 0
2  1 -1 3 1 2 -1 12 1 11 -1 0
2  1 -1 0
1
              1               0               0              -0 
              0               1               0              -2 
              0               0               1 4.44089209850063e-16 
2  6 1 3 -1 17 1 0
2  17 -1 3 1 6 -1 0
2  6 -1 0
2  1 -1 17 -1 3 1 6 -1 0
2  3 -1 17 1 0
Curve2ds 48
2 0 0 -1 1.010707235303013e-16 1.010707235303013e-16 1 34
1 0 0 1 0 
2 0 0 -1 -7.5129610021048739e-32 -7.5129610021048739e-32 1 21
1 0 0 1 0 
1 -33.610691000000003 0.92649260405859513 0.0024679924837108153 -0.99999695450191273 
1 0 0 1 9.8607613152626454e-32 
1 -33.600819000000001 -3.0735073959414048 0.98064702829624617 0.19578407977601628 
1 0 0 1 -4.9303806576313238e-32 
1 -26.747889000000004 0.25463381554251929 -0.099755424315373237 -0.9950119875256076 
1 0 0 1 1.9721522630525295e-31 
1 -33.610691000000003 0.92649260405859513 0.99524210397355295 -0.097432820334298051 
1 0 0 1 3.6977854932234928e-32 
1 0 25 1 0 
2 0 0 1 0 -0 1 34
1 6.2831853071795862 0 0 1 
1 0 0 0 1 
1 0 5 1 0 
2 0 0 1 -7.5129610021048739e-32 7.5129610021048739e-32 1 21
1 6.2831853071795862 0 0 1 
1 0 0 0 1 
1 2.2204392868861172e-16 1.9721462568757294e-31 4.4408785737722295e-16 -1 
1 0 0 4.3268864195721375e-17 -1 
1 8.8817571475444589e-16 -2 1 9.8607613152626454e-32 
1 0 0 -0.0024679924837110799 0.99999695450191273 
1 4.0000121820294545 3.5527136788005033e-15 4.4408785737722295e-16 -1 
1 6.1778562559988432e-31 3.5527136788005009e-15 -8.6945597288952706e-17 -1 
1 -1.7389119457790539e-16 -2 1 -4.9303806576313238e-32 
1 -0.0098720000000014352 4 -0.98064702829624606 -0.1957840797760165 
1 6.7837038282344668 2.3730873164460982e-15 -8.6945597288952706e-17 -1 
1 2.0100260349361156 1.7763568394002505e-15 4.4187408733158695e-16 -1 
1 2.2093704366579372e-16 1.9623396768018806e-31 4.4187408733158695e-16 -1 
1 6.895610598265411 5.9673047704584671e-16 4.3268864195721375e-17 -1 
1 8.8374817466317389e-16 -2 1 1.9721522630525295e-31 
1 -6.8628019999999985 0.67185878851607406 0.099755424315372973 0.9950119875256076 
1 8.6537728391442737e-17 -2 1 3.6977854932234928e-32 
1 0 0 -0.99524210397355295 0.097432820334297787 
2 0 0 1 0 -0 1 4
1 0 0 1 0 
2 0 0 1 -1.0573552615477687e-16 1.0573552615477687e-16 1 14.000000000000002
1 0 0 1 0 
1 0 25 1 0 
2 0 0 -1 -3.944304526105059e-31 -3.944304526105059e-31 1 4
1 6.2831853071795862 0 0 1 
1 0 0 0 1 
1 0 5 1 0 
2 0 0 -1 9.9127055770103246e-16 9.9127055770103246e-16 1 14.000000000000002
1 6.2831853071795862 0 0 1 
1 0 0 0 1 
Curves 24
2 0 24.999999999999996 -5.5511151231257819e-15 -0 -1 2.2204460492503131e-16 1 -3.6252798953171501e-32 -1.6326809185664068e-16 1.6326809185664068e-16 2.2204460492503131e-16 1 34
2 0 24.999999999999996 -5.5511151231257819e-15 -0 -1 2.2204460492503131e-16 1 -5.8695007828944341e-32 -2.6433881538694208e-16 2.6433881538694208e-16 2.2204460492503131e-16 1 21
1 -33.610691000000003 0.92649260405858636 0 0.0024679924837110795 -0.99999695450191273 0 
1 -33.600819000000001 -3.0735073959414141 0 0.98064702829624606 0.19578407977601656 0 
1 -26.747889000000001 0.2546338155425123 0 -0.099755424315372945 -0.9950119875256076 0 
1 -33.610691000000003 0.92649260405858636 0 0.99524210397355295 -0.097432820334297815 0 
2 0 0 0 -0 -1 2.2204460492503131e-16 1 0 0 -0 2.2204460492503131e-16 1 34
1 34 25 0 0 -1 0 
2 0 19.999999999999996 -4.4408920985006254e-15 -0 -1 2.2204460492503131e-16 1 -4.6956006263155473e-32 -2.1147105230955366e-16 2.1147105230955366e-16 2.2204460492503131e-16 1 21
1 21 25 0 0 -1 0 
1 33.610691000000003 25 0.92649260405856948 -0 -1 2.2204460492503131e-16 
1 -33.610691000000003 0.92649260405858636 0 0.0024679924837110795 -0.99999695450191273 0 
1 33.600819000000001 25 -3.0735073959414354 -0 -1 2.2204460492503131e-16 
1 -33.600819000000001 -3.0735073959414141 0 0.98064702829624606 0.19578407977601656 0 
1 26.948399999999999 25 -1.7453661844575055 -0 -1 2.2204460492503131e-16 
1 26.747889000000001 25 0.25463381554249542 -0 -1 2.2204460492503131e-16 
1 -26.747889000000001 0.2546338155425123 0 -0.099755424315372945 -0.9950119875256076 0 
1 -33.610691000000003 0.92649260405858636 0 0.99524210397355295 -0.097432820334297815 0 
2 0 0 0 -0 -1 2.2204460492503131e-16 1 0 0 -0 2.2204460492503131e-16 1 4
2 0 19.999999999999996 -4.4408920985006254e-15 -0 -1 2.2204460492503131e-16 1 -7.0434009394733198e-32 -3.1720657846433045e-16 3.1720657846433045e-16 2.2204460492503131e-16 1 14.000000000000002
2 0 24.999999999999996 -5.5511151231257819e-15 -0 -1 2.2204460492503131e-16 1 -3.0814879110195778e-31 -1.3877787807814459e-15 1.3877787807814459e-15 2.2204460492503131e-16 1 4
1 4 0 0 0 1 0 
2 0 24.999999999999996 -5.5511151231257819e-15 -0 -1 2.2204460492503131e-16 1 -8.8042511743416501e-32 -3.9650822308041307e-16 3.9650822308041307e-16 2.2204460492503131e-16 1 14.000000000000002
1 14 20 0 0 1 0 
Polygon3D 0
PolygonOnTriangulations 0
Surfaces 13
1 0 24.999999999999996 -5.5511151231257819e-15 -0 -1 2.2204460492503131e-16 -1 5.8695007828944319e-32 2.6433881538694198e-16 2.6433881538694198e-16 2.2204460492503131e-16 1 
2 0 24.999999999999996 -5.5511151231257819e-15 -0 -1 2.2204460492503131e-16 1 -3.6252798953171496e-32 -1.6326809185664065e-16 1.6326809185664065e-16 2.2204460492503131e-16 1 34
2 0 24.999999999999996 -5.5511151231257819e-15 -0 -1 2.2204460492503131e-16 1 -5.8695007828944319e-32 -2.6433881538694198e-16 2.6433881538694198e-16 2.2204460492503131e-16 1 21
1 33.610691000000003 25 0.9264926040585697 0.99999695450191273 -5.480044160035734e-19 -0.0024679924837110795 -0.0024679924837110795 -6.6613178606583462e-16 -0.99999695450191273 -1.0960054941143438e-18 1 -6.6613110983353392e-16 
1 33.600819000000001 24.999999999999996 -3.073507395941431 -0.19578407977601656 -2.1774738196894595e-16 -0.98064702829624606 -0.98064702829624606 1.3041839593342911e-16 0.19578407977601656 8.5262941604853614e-17 1 -2.3906716868082501e-16 
1 26.747889000000001 25 0.25463381554249565 0.9950119875256076 2.2150153781235847e-17 0.099755424315372945 0.099755424315372945 -6.6281113099738062e-16 -0.9950119875256076 4.4079337075730608e-17 1 -6.617146187968975e-16 
1 33.610691000000003 25 0.9264926040585697 0.097432820334297815 -2.209881397815645e-16 -0.99524210397355295 -0.99524210397355295 -6.490329629358209e-17 -0.097432820334297815 -4.3062995438695676e-17 1 -2.2626041239628217e-16 
1 0 0 0 -0 -1 2.2204460492503131e-16 1 0 0 -0 2.2204460492503131e-16 1 
1 0 19.999999999999996 -4.4408920985006254e-15 -0 -1 2.2204460492503131e-16 1 -4.6956006263155457e-32 -2.1147105230955359e-16 2.1147105230955359e-16 2.2204460492503131e-16 1 
1 33.610691000000003 -0.92649260405857525 25 0 0 1 1 0 -0 -0 1 0 
2 0 0 0 0 1 -2.2204460492503131e-16 1 0 0 -0 2.2204460492503131e-16 1 4
2 0 19.999999999999996 -4.4408920985006254e-15 0 1 -2.2204460492503131e-16 1 -7.0434009394733177e-32 -3.1720657846433035e-16 3.1720657846433035e-16 2.2204460492503131e-16 1 14.000000000000002
1 0 24.999999999999996 -5.5511151231257819e-15 -0 -1 2.2204460492503131e-16 -1 3.0814879110195769e-31 1.3877787807814455e-15 1.3877787807814455e-15 2.2204460492503131e-16 1 
Triangulations 0

TShapes 73
Ve
1e-07
34 2.77555756156289e-14 25
0 0

0101101
*
Ed
 1e-07 1 1 0
1  1 0 0 6.28318530717959
2  1 1 0 0 6.28318530717959
2  2 2 0 0 6.28318530717959
0

0101100
+73 5 -73 5 *
Wi

0101000
-72 4 *
Ve
1e-07
21 2.77555756156289e-14 25
0 0

0101101
*
Ed
 1e-07 1 1 0
1  2 0 0 6.28318530717959
2  3 1 0 0 6.28318530717959
2  4 3 0 0 6.28318530717959
0

0101100
+70 5 -70 5 *
Wi

0101000
+69 4 *
Ve
1e-07
33.610691 -0.926492604058564 25
0 0

0101101
*
Ve
1.00000000222045e-07
33.600819 3.07350739594144 25
0 0

0101101
*
Ed
 1e-07 1 1 0
1  3 0 0 4.00001218202945
2  5 1 8 0 4.00001218202945
2  6 4 9 0 4.00001218202945
0

0101000
+67 10 -66 10 *
Ve
1e-07
26.9484 1.74536618445751 25
0 0

0101101
*
Ed
 1e-07 1 1 0
1  4 0 0 6.78370382823447
2  7 1 8 0 6.78370382823447
2  8 5 9 0 6.78370382823447
0

0101000
+66 10 -64 10 *
Ve
1e-07
26.747889 -0.25463381554249 25
0 0

0101101
*
Ed
 1e-07 1 1 0
1  5 0 0 2.01002603493611
2  9 1 8 0 2.01002603493611
2  10 6 9 0 2.01002603493611
0

0101000
+62 10 -64 10 *
Ed
 1e-07 1 1 0
1  6 0 0 6.89561059826542
2  11 1 8 0 6.89561059826542
2  12 7 9 0 6.89561059826542
0

0101000
+67 10 -62 10 *
Wi

0101000
-65 7 -63 7 +61 7 +60 7 *
Fa
0  1e-07 1 4

0101000
+71 0 +68 0 +59 0 *
Ve
1e-07
34 0 0
0 0

0101101
*
Ed
 1e-07 1 1 0
1  7 0 0 6.28318530717959
2  13 2 0 0 6.28318530717959
2  14 8 0 0 6.28318530717959
0

0101100
+57 5 -57 5 *
Ed
 1e-07 1 1 0
1  8 0 0 25
3  15 16CN 2 14 0 25
0

0101000
+73 15 -57 15 *
Wi

0101000
+72 0 -56 0 -55 13 +55 13 *
Fa
0  1e-07 2 0

0101000
+54 0 *
Ve
1e-07
21 2.22044604925031e-14 20
0 0

0101101
*
Ed
 1e-07 1 1 0
1  9 0 0 6.28318530717959
2  17 3 0 0 6.28318530717959
2  18 9 0 0 6.28318530717959
0

0101100
+52 5 -52 5 *
Ed
 1e-07 1 1 0
1  10 0 0 5
3  19 20CN 3 14 0 5
0

0101000
+70 15 -52 15 *
Wi

0101000
+69 0 -51 0 -50 13 +50 13 *
Fa
0  1e-07 3 0

0101000
+49 0 *
Ve
1e-07
33.610691 -0.926492604058565 23
0 0

0101101
*
Ed
 1e-07 1 1 0
1  11 0 0 2
2  21 4 0 0 2
2  22 7 0 0 2
0

0101000
+67 16 -47 16 *
Ve
1.00000000222045e-07
33.600819 3.07350739594144 23
0 0

0101101
*
Ed
 1e-07 1 1 0
1  12 0 0 4.00001218202945
2  23 4 19 0 4.00001218202945
2  24 10 20 0 4.00001218202945
0

0101000
+47 21 -45 21 *
Ed
 1.00000000222045e-07 1 1 0
1  13 0 0 2
2  25 4 0 0 2
2  26 5 0 0 2
0

0101000
+66 16 -45 16 *
Wi

0101000
+46 0 -65 7 +44 18 -43 0 *
Fa
0  1e-07 4 0

0101000
+42 0 *
Ve
1e-07
26.9484 1.74536618445751 23
0 0

0101101
*
Ed
 1e-07 1 1 0
1  14 0 0 6.78370382823447
2  27 5 19 0 6.78370382823447
2  28 10 20 0 6.78370382823447
0

0101000
+45 21 -40 21 *
Ed
 1e-07 1 1 0
1  15 0 0 2
2  29 5 0 0 2
2  30 6 0 0 2
0

0101000
+64 16 -40 16 *
Wi

0101000
+43 0 -63 7 +39 18 -38 0 *
Fa
0  1e-07 5 0

0101000
+37 0 *
Ve
1e-07
26.747889 -0.254633815542491 23
0 0

0101101
*
Ed
 1e-07 1 1 0
1  16 0 0 2
2  31 6 0 0 2
2  32 7 0 0 2
0

0101000
+62 16 -35 16 *
Ed
 1e-07 1 1 0
1  17 0 0 2.01002603493611
2  33 6 19 0 2.01002603493611
2  34 10 20 0 2.01002603493611
0

0101000
+35 21 -40 21 *
Wi

0101000
+34 0 -61 7 +33 18 -38 0 *
Fa
0  1e-07 6 0

0101000
+32 0 *
Ed
 1e-07 1 1 0
1  18 0 0 6.89561059826542
2  35 7 19 0 6.89561059826542
2  36 10 20 0 6.89561059826542
0

0101000
+47 21 -35 21 *
Wi

0101000
+46 0 -60 7 +30 18 -34 0 *
Fa
0  1e-07 7 0

0101000
+29 0 *
Wi

0101000
+56 0 *
Ve
1e-07
4 0 0
0 0

0101101
*
Ed
 1e-07 1 1 0
1  19 0 0 6.28318530717959
2  37 8 0 0 6.28318530717959
2  38 11 0 0 6.28318530717959
0

0101100
+26 5 -26 5 *
Wi

0101000
-25 0 *
Fa
0  1e-07 8 0

0101000
+27 0 +24 0 *
Wi

0101000
+51 0 *
Ve
1e-07
14 2.22044604925031e-14 20
0 0

0101101
*
Ed
 1e-07 1 1 0
1  20 0 0 6.28318530717959
2  39 9 0 0 6.28318530717959
2  40 12 0 0 6.28318530717959
0

0101100
+21 5 -21 5 *
Wi

0101000
-20 0 *
Fa
0  1e-07 9 0

0101000
+22 0 +19 0 *
Wi

0101100
+30 0 +33 0 -39 0 -44 0 *
Fa
0  1e-07 10 0

0101000
-17 6 *
Ve
1e-07
4 2.77555756156289e-14 25
0 0

0101101
*
Ed
 1e-07 1 1 0
1  21 0 0 6.28318530717959
2  41 11 0 0 6.28318530717959
2  42 13 0 0 6.28318530717959
0

0101100
+15 5 -15 5 *
Ed
 1e-07 1 1 0
1  22 0 0 25
3  43 44CN 11 14 0 25
0

0101000
+26 15 -15 15 *
Wi

0101000
+25 0 -14 0 -13 13 +13 13 *
Fa
0  1e-07 11 0

0101000
+12 0 *
Ve
1e-07
14 2.77555756156289e-14 25
0 0

0101101
*
Ed
 1e-07 1 1 0
1  23 0 0 6.28318530717959
2  45 12 0 0 6.28318530717959
2  46 13 0 0 6.28318530717959
0

0101100
+10 5 -10 5 *
Ed
 1e-07 1 1 0
1  24 0 0 5
3  47 48CN 12 14 0 5
0

0101000
+21 15 -10 15 *
Wi

0101000
+20 0 -9 0 -8 13 +8 13 *
Fa
0  1e-07 12 0

0101000
+7 0 *
Wi

0101000
+14 0 *
Wi

0101000
-9 0 *
Fa
0  1e-07 13 0

0101000
+5 0 +4 0 *
Sh

0101000
+58 0 +53 4 -48 4 -41 0 -36 0 +31 0 +28 0 +23 4 -18 4 +16 22 
+11 4 -6 4 +3 4 *
So

0100000
+2 0 *

+1 1 