DBRep_DrawableShape

CASCADE Topology V1, (c) Matra-Datavision
Locations 45
1
              1               0               0             250 
              0               1               0            2750 
              0               0               1               0 
1
              1               0               0               0 
              0               1               0               0 
              0               0               1               0 
1
              1               0               0               0 
              0               1               0               0 
              0               0               1               0 
1
              1               0              -0               0 
             -0 1.77321265310004e-16              -1               0 
              0               1 1.77321265310004e-16               0 
2  2 1 3 1 4 1 0
2  3 -1 2 -1 0
2  2 1 3 1 0
2  1 -1 4 -1 3 -1 2 -1 0
2  1 -1 4 -1 0
2  1 -1 4 -1 3 -1 0
2  3 1 4 1 0
1
              1               0              -0               0 
             -0 1.77321265310004e-16              -1               0 
              0               1 1.77321265310004e-16               0 
1
              1               0               0               0 
              0 -1.83663848019044e-16              -1               0 
              0               1 -1.83663848019044e-16               0 
1
              1               0               0               0 
              0               1               0 2.81005687469138e-13 
              0               0               1            1530 
2  12 1 13 -1 14 1 2 1 3 1 4 1 0
2  14 -1 13 1 12 -1 0
2  12 -1 0
2  1 -1 4 -1 3 -1 2 -1 14 -1 13 1 12 -1 0
2  12 1 13 -1 2 1 3 1 4 1 0
2  13 1 12 -1 0
2  1 -1 4 -1 3 -1 2 -1 13 1 12 -1 0
2  13 -1 14 1 2 1 3 1 0
2  13 -1 2 1 0
2  13 -1 14 1 2 1 3 1 4 1 0
2  3 -1 2 -1 14 -1 13 1 0
2  12 1 13 -1 14 1 2 1 3 1 0
2  13 -1 2 1 3 1 4 1 0
2  2 -1 13 1 0
2  12 1 13 -1 2 1 0
1
              1               0              -0               0 
             -0 1.77321265310004e-16              -1               0 
              0               1 1.77321265310004e-16               0 
2  1 -1 30 -1 0
1
              1               0              -0               0 
             -0 1.77321265310004e-16              -1               0 
              0               1 1.77321265310004e-16               0 
1
              1               0               0               0 
              0 -1.83663848019044e-16              -1               0 
              0               1 -1.83663848019044e-16               0 
2  32 1 33 -1 0
2  33 1 32 -1 0
2  32 -1 0
2  1 -1 30 -1 33 1 32 -1 0
1
              1               0               0               0 
              0               1               0 2.81005687469138e-13 
              0               0               1            1530 
2  32 1 33 -1 38 1 0
2  38 -1 33 1 32 -1 0
2  1 -1 30 -1 38 -1 33 1 32 -1 0
2  33 -1 30 1 0
2  32 1 33 -1 30 1 0
2  33 -1 38 1 30 1 0
2  32 1 33 -1 38 1 30 1 0
Curve2ds 120
1 1.358876342846234e-44 2.5243548967072378e-29 -1.773212653100043e-16 -1 
1 2029.9999999999991 2.5243548967072378e-29 0 -1 
1 -2.8882451985623447e-13 -1429.9999999999998 1 0 
1 0 0 0 1 
1 2.0733414984874798e-14 -99.999999999999986 1 0 
1 0 0 0 1 
1 299.99999999999989 3.1616065967060864e-29 -1.773212653100043e-16 -1 
1 0 5.0487097934144756e-29 0 -1 
1 0 2.5243548967072378e-29 0 -1 
1 299.99999999999989 4.411458093415627e-29 1.773212653100043e-16 -1 
2 100 -1429.9999999999998 -0 1 1 0 100
1 -3.1415926535897931 299.99999999999989 1 0 
2 100 -100 -0 1 1 0 100
1 -4.7123889803846897 299.99999999999994 1 0 
1 -4.5474735088646412e-13 -1529.9999999999995 1 0 
1 299.99999999999994 2029.9999999999995 -0 -1 
1 -4.5474735088646412e-13 2.5243548967072378e-29 1 0 
1 299.99999999999994 2029.9999999999995 -0 -1 
2 1929.9999999999995 -1429.9999999999998 0 -1 -1 -0 100
1 -4.7123889803846897 3.5255110462928365e-14 1 0 
2 1929.9999999999995 -99.999999999999986 0 -1 1 0 100
1 -1.5707963267948966 -5.6843418860808015e-14 1 0 
1 1.5707963267948966 0 0 1 
1 299.99999999999989 99.999999999999986 -1 0 
1 -4.7123889803846897 300 1 0 
2 99.999999999999986 -1429.9999999999998 0 -1 1 0 100
1 1.5707963267948966 0 0 1 
1 299.99999999999994 99.999999999999986 -1 0 
1 -1.5707963267948966 299.99999999999989 1 0 
2 99.999999999999986 -99.999999999999986 0 -1 -1 -0 100
1 0 -1529.9999999999995 1 0 
1 1.1368683772161603e-13 0 0 1 
1 0 5.0487097934144756e-29 1 0 
1 1.1368683772161603e-13 0 0 1 
2 1929.9999999999995 -1429.9999999999998 0 1 -1 0 100
1 -3.1415926535897931 1.6153745008296028e-14 1 0 
2 1929.9999999999995 -100 0 1 -1 0 100
1 -4.7123889803846897 -1.8350121769317156e-14 1 0 
1 2029.9999999999991 5.0487097934144756e-29 0 -1 
1 -2.717752685692468e-44 5.0487097934144756e-29 1.773212653100043e-16 -1 
1 2.8882451985623447e-13 -1429.9999999999998 1 0 
1 1.5707963267948966 0 0 1 
1 3.6082248300317588e-14 -100 1 0 
1 0 0 0 1 
1 0 0 0 1 
1 -1.6153745008296028e-14 1929.9999999999995 1 0 
1 1.5707963267948966 0 0 1 
1 0 1929.9999999999995 1 0 
1 0 0 -1.773212653100043e-16 -1 
1 99.999999999999972 0 0 -1 
1 1199.9999999999995 -7.5484127868335567e-29 -1.773212653100043e-16 -1 
1 0 0 0 -1 
1 0 0 1 0 
1 0 0 -1 1.9976300645142177e-63 
1 -2.713015359243065e-13 -1529.9999999999995 1 0 
1 0 0 -1 1.9976300645142177e-63 
1 0 0 0 -1 
1 249.99999999999989 1.3940651309452568e-29 1.773212653100043e-16 -1 
1 0 0 1 0 
1 -1.6317183614313638e-61 99.999999999999972 9.6617401813105952e-64 -1 
1 0 -1529.9999999999995 1 0 
1 0 99.999999999999972 9.6617401813105952e-64 -1 
1 99.999999999999972 0 0 -1 
1 0 0 1.773212653100043e-16 -1 
1 0 1.0097419586828951e-28 1 0 
1 -1199.9999999999995 9.9300849258057671e-61 -9.6617401813105952e-64 1 
1 0 -1529.9999999999995 1 0 
1 -1199.9999999999995 -1.9925960571063364e-45 -9.6617401813105952e-64 1 
1 -249.99999999999989 99.999999999999972 1 -1.9976300645142177e-63 
1 -1.358876342846234e-44 2.5243548967072378e-29 1 0 
1 -1199.9999999999995 99.999999999999972 1 -1.9976300645142177e-63 
1 -5.435505371384936e-44 1.0097419586828951e-28 1 0 
1 -249.99999999999989 2079.9999999999995 9.6617401813105952e-64 -1 
1 -4.5474735088646412e-13 2.5243548967072378e-29 1 0 
1 -349.99999999999983 99.999999999999972 -9.6617401813105952e-64 1 
1 0 2.5243548967072378e-29 1 0 
1 4.3755576172461153e-61 2079.9999999999995 -1 1.9976300645142177e-63 
1 0 0 1 0 
1 -349.99999999999983 2149.9999999999995 -1 1.9976300645142177e-63 
1 -5.6843418860808015e-14 3.0599174956424409e-29 1 0 
1 2.3579393826270732e-61 2179.9999999999995 9.6617401813105952e-64 -1 
1 -4.5474735088646412e-13 0 1 0 
1 -799.99999999999966 2149.9999999999995 -9.6617401813105952e-64 1 
1 4.5474735088646412e-13 0 1 0 
1 -799.99999999999966 2179.9999999999995 1 -1.9976300645142177e-63 
1 -1.1368683772161603e-13 -1.0711251978704062e-29 1 0 
1 -249.99999999999991 99.999999999999972 1 -1.9976300645142177e-63 
1 2.5517457070967072e-13 -1529.9999999999995 1 0 
1 -1199.9999999999995 99.999999999999972 1 -1.9976300645142177e-63 
1 3.688614084312868e-13 -1529.9999999999995 1 0 
1 -249.99999999999991 2079.9999999999995 9.6617401813105952e-64 -1 
1 -4.5474735088646412e-13 -1529.9999999999995 1 0 
1 -349.99999999999983 99.999999999999972 -9.6617401813105952e-64 1 
1 0 -1529.9999999999995 1 0 
1 0 2079.9999999999995 -1 1.9976300645142177e-63 
1 -2.713015359243065e-13 -1529.9999999999995 1 0 
1 -349.99999999999983 2149.9999999999995 -1 1.9976300645142177e-63 
1 -3.1201798957047878e-13 -1529.9999999999995 1 0 
1 0 2179.9999999999995 9.6617401813105952e-64 -1 
1 -4.5474735088646412e-13 -1529.9999999999995 1 0 
1 -799.99999999999966 2149.9999999999995 -9.6617401813105952e-64 1 
1 4.5474735088646412e-13 -1529.9999999999995 1 0 
1 -799.99999999999966 2179.9999999999995 1 -1.9976300645142177e-63 
1 1.4148773298805474e-13 -1529.9999999999995 1 0 
1 0 0 1.773212653100043e-16 -1 
1 1979.9999999999991 0 0 -1 
1 849.99999999999966 7.6913938259048651e-29 1.773212653100043e-16 -1 
1 0 2.5243548967072378e-29 0 -1 
1 0 0 0 -1 
1 249.99999999999989 -1.3940651309452568e-29 -1.773212653100043e-16 -1 
1 2049.9999999999991 2.5243548967072378e-29 0 -1 
1 1.358876342846234e-44 2.5243548967072378e-29 -1.773212653100043e-16 -1 
1 0 0 -1.773212653100043e-16 -1 
1 100 0 0 -1 
1 449.99999999999966 3.8259753903219073e-29 -1.773212653100043e-16 -1 
1 0 0 0 -1 
1 0 0 0 -1 
1 799.99999999999955 -1.4446015326859779e-29 1.773212653100043e-16 -1 
1 30 0 0 -1 
1 0 0 1.773212653100043e-16 -1 
Curves 60
1 109.99999999999999 359.99999999999994 -1.2995464079845753e-13 0 1.8366384801904445e-16 1 
1 109.99999999999997 360.00000000000017 1429.9999999999995 0 1 -3.6098511332904875e-16 
1 109.99999999999997 360 99.999999999999858 0 1 -3.6098511332904875e-16 
1 109.99999999999999 659.99999999999989 -2.3825017479717214e-13 0 1.8366384801904445e-16 1 
1 2139.9999999999995 359.99999999999994 -1.2995464079845753e-13 0 1.8366384801904445e-16 1 
8 3.1415926535897936 4.7123889803846897
2 2039.9999999999995 360.00000000000023 1429.9999999999995 -0 1 -3.6098511332904875e-16 0 -3.6098511332904875e-16 -1 -1 -0 0 100
8 4.7123889803846897 6.2831853071795862
2 2039.9999999999995 359.99999999999994 99.999999999999872 -0 1 -3.6098511332904875e-16 0 -3.6098511332904875e-16 -1 -1 -0 0 100
1 2140 360 0 -1 0 0 
1 2140 360 0 -1 0 0 
8 4.7123889803846897 6.2831853071795871
2 209.99999999999997 360.00000000000023 1429.9999999999995 0 1 -3.6098511332904875e-16 0 3.6098511332904875e-16 1 1 -0 0 100
8 1.5707963267948966 3.1415926535897936
2 209.99999999999997 359.99999999999994 99.999999999999858 -0 -1 3.6098511332904875e-16 0 3.6098511332904875e-16 1 -1 0 0 100
1 209.99999999999997 360.00000000000023 1529.9999999999995 0 1 -3.6098511332904875e-16 
8 4.7123889803846897 6.2831853071795862
2 209.99999999999997 660.00000000000011 1429.9999999999995 0 1 -3.6098511332904875e-16 0 3.6098511332904875e-16 1 1 -0 0 100
1 209.99999999999997 359.99999999999994 -1.4210854715202004e-13 0 1 -3.6098511332904875e-16 
8 1.5707963267948966 3.1415926535897936
2 209.99999999999997 659.99999999999989 99.999999999999744 -0 -1 3.6098511332904875e-16 0 3.6098511332904875e-16 1 -1 0 0 100
1 110 660 0 1 0 0 
1 110 660 0 1 0 0 
8 3.1415926535897936 4.7123889803846897
2 2039.9999999999995 660.00000000000011 1429.9999999999995 -0 1 -3.6098511332904875e-16 0 -3.6098511332904875e-16 -1 -1 -0 0 100
8 4.7123889803846897 6.2831853071795862
2 2039.9999999999995 659.99999999999989 99.999999999999758 -0 1 -3.6098511332904875e-16 0 -3.6098511332904875e-16 -1 -1 -0 0 100
1 2139.9999999999995 659.99999999999989 -2.3825017479717214e-13 0 1.8366384801904445e-16 1 
1 2139.9999999999995 660.00000000000011 1429.9999999999995 0 -1 3.6098511332904875e-16 
1 2139.9999999999995 659.99999999999989 99.999999999999758 0 -1 3.6098511332904875e-16 
1 2039.9999999999995 660.00000000000011 1529.9999999999995 0 -1 3.6098511332904875e-16 
1 2039.9999999999995 659.99999999999989 -2.4158453015843406e-13 0 -1 3.6098511332904875e-16 
1 0 0 0 0 1.8366384801904445e-16 1 
1 0 1199.9999999999998 -4.3318213599485839e-13 0 1.8366384801904445e-16 1 
1 0 0 0 0 1 0 
1 0 0 0 0 1 0 
1 99.999999999999986 0 0 0 1.8366384801904445e-16 1 
1 100 0 0 -1 0 0 
1 100 0 0 -1 0 0 
1 99.999999999999986 1199.9999999999998 -4.3318213599485839e-13 0 1.8366384801904445e-16 1 
1 0 1200 0 1 0 0 
1 0 1200 0 1 0 0 
1 100 250 0 0 -1 0 
1 100 1200 0 0 -1 0 
1 2080 250 0 -1 0 0 
1 100 350 0 1 0 0 
1 2080 0 0 0 1 0 
1 2150 350 0 0 1 0 
1 2180 0 0 -1 0 0 
1 2150 800 0 1 0 0 
1 2180 800 0 0 -1 0 
1 100 250 0 0 -1 0 
1 100 1200 0 0 -1 0 
1 2080 250 0 -1 0 0 
1 100 350 0 1 0 0 
1 2080 0 0 0 1 0 
1 2150 350 0 0 1 0 
1 2180 0 0 -1 0 0 
1 2150 800 0 1 0 0 
1 2180 800 0 0 -1 0 
1 99.999999999999986 249.99999999999994 -9.0246278332262163e-14 0 1.8366384801904445e-16 1 
1 99.999999999999986 349.99999999999994 -1.2634478966516705e-13 0 1.8366384801904445e-16 1 
1 2079.9999999999995 249.99999999999994 -9.0246278332262163e-14 0 1.8366384801904445e-16 1 
1 2149.9999999999995 349.99999999999994 -1.2634478966516705e-13 0 1.8366384801904445e-16 1 
1 2079.9999999999995 0 0 0 1.8366384801904445e-16 1 
1 2149.9999999999995 799.99999999999977 -2.8878809066323891e-13 0 1.8366384801904445e-16 1 
1 2179.9999999999995 0 0 0 1.8366384801904445e-16 1 
1 2179.9999999999995 799.99999999999977 -2.8878809066323891e-13 0 1.8366384801904445e-16 1 
Polygon3D 0
PolygonOnTriangulations 0
Surfaces 24
1 109.99999999999999 359.99999999999994 -1.2995464079845751e-13 -1 0 0 0 1 -3.6098511332904875e-16 -0 -3.6098511332904875e-16 -1 
1 2139.9999999999995 359.99999999999994 -1.2995464079845751e-13 0 -1 1.8366384801904445e-16 -1 0 0 -0 -1.8366384801904445e-16 -1 
2 209.99999999999997 360.00000000000017 1429.9999999999995 0 1 -3.6098511332904875e-16 -1 0 0 0 3.6098511332904875e-16 1 100
2 209.99999999999997 360 99.999999999999858 0 1 -3.6098511332904875e-16 -1 0 0 -0 -3.6098511332904875e-16 -1 100
1 109.99999999999999 659.99999999999989 -2.3825017479717209e-13 0 1 -1.8366384801904445e-16 1 0 0 0 -1.8366384801904445e-16 -1 
1 2139.9999999999995 659.99999999999989 -2.3825017479717209e-13 1 0 -0 0 -1 3.6098511332904875e-16 0 -3.6098511332904875e-16 -1 
2 2039.9999999999995 660.00000000000011 1429.9999999999995 0 -1 3.6098511332904875e-16 -0 3.6098511332904875e-16 1 1 0 -0 100
2 2039.9999999999995 659.99999999999989 99.999999999999758 0 -1 3.6098511332904875e-16 1 0 0 0 -3.6098511332904875e-16 -1 100
1 109.99999999999999 1.1703203510460281e-13 659.99999999999989 0 -1 1.7732126531000427e-16 0 -1.7732126531000427e-16 -1 1 0 0 
1 109.99999999999999 1.1703203510460281e-13 659.99999999999989 0 -1 1.7732126531000427e-16 0 -1.7732126531000427e-16 -1 1 0 0 
1 0 0 0 -1 0 0 0 1 -3.6098511332904875e-16 -0 -3.6098511332904875e-16 -1 
1 99.999999999999986 0 0 0 -1 1.8366384801904445e-16 -1 0 0 -0 -1.8366384801904445e-16 -1 
1 0 1199.9999999999998 -4.3318213599485839e-13 0 1 -1.8366384801904445e-16 1 0 0 0 -1.8366384801904445e-16 -1 
1 0 0 0 -2.7557540955720687e-32 -1 1.773212653100043e-16 0 -1.773212653100043e-16 -1 1 -2.7557540955720687e-32 4.8865380311006574e-48 
1 0 0 0 -2.7557540955720687e-32 -1 1.773212653100043e-16 0 -1.773212653100043e-16 -1 1 -2.7557540955720687e-32 4.8865380311006574e-48 
1 99.999999999999986 249.99999999999994 -9.0246278332262163e-14 1 0 -0 0 -1 3.6098511332904875e-16 0 -3.6098511332904875e-16 -1 
1 99.999999999999986 1199.9999999999998 -4.3318213599485839e-13 1 0 -0 0 -1 3.6098511332904875e-16 0 -3.6098511332904875e-16 -1 
1 2079.9999999999995 249.99999999999994 -9.0246278332262163e-14 0 -1 1.8366384801904445e-16 -1 0 0 -0 -1.8366384801904445e-16 -1 
1 99.999999999999986 349.99999999999994 -1.2634478966516702e-13 0 1 -1.8366384801904445e-16 1 0 0 0 -1.8366384801904445e-16 -1 
1 2079.9999999999995 0 0 -1 0 0 0 1 -3.6098511332904875e-16 -0 -3.6098511332904875e-16 -1 
1 2149.9999999999995 349.99999999999994 -1.2634478966516702e-13 -1 0 0 0 1 -3.6098511332904875e-16 -0 -3.6098511332904875e-16 -1 
1 2179.9999999999995 0 0 0 -1 1.8366384801904445e-16 -1 0 0 -0 -1.8366384801904445e-16 -1 
1 2149.9999999999995 799.99999999999977 -2.8878809066323891e-13 0 1 -1.8366384801904445e-16 1 0 0 0 -1.8366384801904445e-16 -1 
1 2179.9999999999995 799.99999999999977 -2.8878809066323891e-13 1 0 -0 0 -1 3.6098511332904875e-16 0 -3.6098511332904875e-16 -1 
Triangulations 0

TShapes 153
Ve
1e-07
360 1320 360
0 0

0101101
*
Ve
1e-07
360 2650 360
0 0

0101101
*
Ed
 1e-07 1 1 0
1  1 0 100 1430
2  1 1 0 100 1430
2  2 2 0 100 1430
0

0101000
-153 8 +152 8 *
Ve
1e-07
360 1320 660
0 0

0101101
*
Ed
 1e-07 1 1 0
1  2 0 3.52551104629284e-14 300
2  3 1 7 3.52551104629284e-14 300
2  4 3 0 3.52551104629284e-14 300
4 G1 1 7 3 0
0

0101000
+153 9 -150 9 *
Ve
1e-07
360 2650 660
0 0

0101101
*
Ed
 1e-07 1 1 0
1  3 0 -3.84655415158752e-14 300
2  5 1 2 -3.84655415158752e-14 300
2  6 4 0 -3.84655415158752e-14 300
4 G1 1 2 4 0
0

0101000
+152 10 -148 10 *
Ed
 1e-07 1 1 0
1  4 0 100 1430
2  7 1 0 100 1430
2  8 5 0 100 1430
0

0101000
-150 8 +148 8 *
Wi

0101100
+151 7 +149 0 -147 3 -146 7 *
Fa
0  1e-07 1 0

0101000
+145 6 *
Ve
1e-07
2390 1320 360
0 0

0101101
*
Ve
1e-07
2390 2650 360
0 0

0101101
*
Ed
 1e-07 1 1 0
1  5 0 100 1430
2  9 2 0 100 1430
2  10 6 0 100 1430
0

0101000
-143 8 +142 8 *
Ve
1e-07
2290 1220 360
0 0

0101101
*
Ed
 1e-07 1 1 0
1  6 0 3.14159265358979 4.71238898038469
2  11 2 7 3.14159265358979 4.71238898038469
2  12 7 0 3.14159265358979 4.71238898038469
0

0101000
+140 9 -143 9 *
Ve
1e-07
2290 2750 360
0 0

0101101
*
Ed
 1e-07 1 1 0
1  7 0 4.71238898038469 6.28318530717959
2  13 2 2 4.71238898038469 6.28318530717959
2  14 8 0 4.71238898038469 6.28318530717959
0

0101000
+142 10 -138 10 *
Ve
1e-07
460 1220 360
0 0

0101101
*
Ed
 1e-07 1 1 0
1  8 0 100 1930
2  15 2 16 100 1930
2  16 9 17 100 1930
0

0101000
+140 18 -136 18 *
Ve
1e-07
460 2750 360
0 0

0101101
*
Ed
 1e-07 1 1 0
1  9 0 100 1930
2  17 2 20 100 1930
2  18 10 17 100 1930
0

0101000
+138 21 -134 21 *
Ed
 1e-07 1 1 0
1  10 0 4.71238898038469 6.28318530717959
2  19 2 7 4.71238898038469 6.28318530717959
2  20 3 0 4.71238898038469 6.28318530717959
0

0101000
+153 9 -136 9 *
Ed
 1e-07 1 1 0
1  11 0 1.5707963267949 3.14159265358979
2  21 2 2 1.5707963267949 3.14159265358979
2  22 4 0 1.5707963267949 3.14159265358979
0

0101000
+152 10 -134 10 *
Wi

0101000
+141 5 -139 4 -137 11 +135 15 -133 19 -132 4 +131 11 -151 5 *
Fa
0  1e-07 2 5

0101000
+130 0 *
Ve
1e-07
460 1220 660
0 0

0101101
*
Ed
 1e-07 1 1 0
1  12 0 -0 300
2  23 3 0 -0 300
2  24 9 22 -0 300
4 G1 3 0 9 22
0

0101000
+136 9 -128 9 *
Ed
 1e-07 1 1 0
1  13 0 4.71238898038469 6.28318530717959
2  25 3 0 4.71238898038469 6.28318530717959
2  26 5 7 4.71238898038469 6.28318530717959
0

0101000
+150 9 -128 9 *
Wi

0101000
+132 4 -149 4 +127 4 -126 4 *
Fa
0  1e-07 3 4

0101000
+125 0 *
Ve
1e-07
460 2750 660
0 0

0101101
*
Ed
 1e-07 1 1 0
1  14 0 -0 300
2  27 4 0 -0 300
2  28 10 23 -0 300
4 G1 4 0 10 23
0

0101000
+134 10 -123 10 *
Ed
 1e-07 1 1 0
1  15 0 1.5707963267949 3.14159265358979
2  29 4 0 1.5707963267949 3.14159265358979
2  30 5 2 1.5707963267949 3.14159265358979
0

0101000
+148 10 -123 10 *
Wi

0101000
+131 11 -147 11 +122 11 -121 11 *
Fa
0  1e-07 4 11

0101000
+120 0 *
Ve
1e-07
2290 1220 660
0 0

0101101
*
Ed
 1e-07 1 1 0
1  16 0 100 1930
2  31 5 16 100 1930
2  32 9 17 100 1930
0

0101000
+128 18 -118 18 *
Ve
1e-07
2290 2750 660
0 0

0101101
*
Ed
 1e-07 1 1 0
1  17 0 100 1930
2  33 5 20 100 1930
2  34 10 17 100 1930
0

0101000
+123 21 -116 21 *
Ve
1e-07
2390 1320 660
0 0

0101101
*
Ed
 1e-07 1 1 0
1  18 0 3.14159265358979 4.71238898038469
2  35 5 7 3.14159265358979 4.71238898038469
2  36 7 0 3.14159265358979 4.71238898038469
0

0101000
+118 9 -114 9 *
Ve
1e-07
2390 2650 660
0 0

0101101
*
Ed
 1e-07 1 1 0
1  19 0 4.71238898038469 6.28318530717959
2  37 5 2 4.71238898038469 6.28318530717959
2  38 8 0 4.71238898038469 6.28318530717959
0

0101000
+112 10 -116 10 *
Ed
 1e-07 1 1 0
1  20 0 100 1430
2  39 5 0 100 1430
2  40 6 0 100 1430
0

0101000
-114 8 +112 8 *
Wi

0101000
+146 5 +126 4 -121 11 +117 15 -115 19 +113 4 +111 11 -110 5 *
Fa
0  1e-07 5 5

0101000
+109 0 *
Ed
 1e-07 1 1 0
1  21 0 -3.52551104629284e-14 300
2  41 6 7 -3.52551104629284e-14 300
2  42 7 0 -3.52551104629284e-14 300
4 G1 6 7 7 0
0

0101000
+114 9 -143 9 *
Ed
 1e-07 1 1 0
1  22 0 -1.83501217693172e-14 300
2  43 6 2 -1.83501217693172e-14 300
2  44 8 0 -1.83501217693172e-14 300
4 G1 6 2 8 0
0

0101000
+112 10 -142 10 *
Wi

0101100
+110 7 +107 0 -106 3 -141 7 *
Fa
0  1e-07 6 0

0101000
+105 6 *
Ed
 1e-07 1 1 0
1  23 0 1.6153745008296e-14 300
2  45 7 0 1.6153745008296e-14 300
2  46 9 22 1.6153745008296e-14 300
4 G1 7 0 9 22
0

0101000
+118 9 -140 9 *
Wi

0101000
+113 4 -103 4 +107 4 -139 4 *
Fa
0  1e-07 7 4

0101000
+102 0 *
Ed
 1e-07 1 1 0
1  24 0 0 300
2  47 8 0 0 300
2  48 10 23 0 300
4 G1 8 0 10 23
0

0101000
+116 10 -138 10 *
Wi

0101000
+111 11 -106 11 +100 11 -137 11 *
Fa
0  1e-07 8 11

0101000
+99 0 *
Wi

0101100
-117 26 -127 0 -103 0 -135 26 *
Fa
0  1e-07 9 0

0101000
+97 25 *
Wi

0101100
-115 29 -122 0 -100 0 -133 29 *
Fa
0  1e-07 10 0

0101000
+95 28 *
Sh

0101000
+144 5 +129 0 +124 0 -119 0 +108 0 +104 5 -101 0 -98 0 +96 24 -94 27 
*
So

0100000
+93 0 *
Ve
1e-07
250 2750 0
0 0

0101101
*
Ve
1e-07
250 1220 5.52307223393444e-13
0 0

0101101
*
Ed
 1e-07 1 1 0
1  25 0 0 1530
2  49 11 0 0 1530
2  50 12 0 0 1530
0

0101000
+91 31 -90 31 *
Ve
1e-07
250 2750 1200
0 0

0101101
*
Ve
1e-07
250 1220 1200
0 0

0101101
*
Ed
 1e-07 1 1 0
1  26 0 0 1530
2  51 11 0 0 1530
2  52 13 0 0 1530
0

0101000
+88 31 -87 31 *
Ed
 1e-07 1 1 0
1  27 0 0 1200
2  53 11 35 0 1200
2  54 14 36 0 1200
0

0101000
+91 37 -88 37 *
Ed
 1e-07 1 1 0
1  28 0 0 1200
2  55 11 40 0 1200
2  56 15 36 0 1200
0

0101000
+90 41 -87 41 *
Wi

0101000
+89 0 -86 0 -85 34 +84 39 *
Fa
0  1e-07 11 0

0101000
+83 0 *
Ve
1e-07
350 2750 0
0 0

0101101
*
Ve
1e-07
350 1220 5.52307223393444e-13
0 0

0101101
*
Ed
 1e-07 1 1 0
1  29 0 0 1530
2  57 12 0 0 1530
2  58 16 0 0 1530
0

0101000
+81 31 -80 31 *
Ed
 1e-07 1 1 0
1  30 0 0 100
2  59 12 35 0 100
2  60 14 36 0 100
0

0101000
+81 37 -91 37 *
Ed
 1e-07 1 1 0
1  31 0 0 100
2  61 12 40 0 100
2  62 15 36 0 100
0

0101000
+80 41 -90 41 *
Wi

0101000
+79 0 -89 0 -78 34 +77 39 *
Fa
0  1e-07 12 0

0101000
+76 0 *
Ve
1e-07
350 2750 1200
0 0

0101101
*
Ve
1e-07
350 1220 1200
0 0

0101101
*
Ed
 1e-07 1 1 0
1  32 0 0 1530
2  63 13 0 0 1530
2  64 17 0 0 1530
0

0101000
+74 31 -73 31 *
Ed
 1e-07 1 1 0
1  33 0 0 100
2  65 13 35 0 100
2  66 14 36 0 100
0

0101000
+88 37 -74 37 *
Ed
 1e-07 1 1 0
1  34 0 0 100
2  67 13 40 0 100
2  68 15 36 0 100
0

0101000
+87 41 -73 41 *
Wi

0101000
+86 0 -72 0 -71 34 +70 39 *
Fa
0  1e-07 13 0

0101000
+69 0 *
Ve
1e-07
350 2750 250
0 0

0101101
*
Ed
 1e-07 1 1 0
1  35 0 0 250
2  69 14 36 0 250
2  70 16 35 0 250
0

0101000
+67 37 -81 37 *
Ve
1e-07
350 2750 350
0 0

0101101
*
Ed
 1e-07 1 1 0
1  36 0 0 850
2  71 14 36 0 850
2  72 17 35 0 850
0

0101000
+74 37 -65 37 *
Ve
1e-07
2330 2750 250
0 0

0101101
*
Ed
 1e-07 1 1 0
1  37 0 0 1980
2  73 14 36 0 1980
2  74 18 35 0 1980
0

0101000
+63 37 -67 37 *
Ve
1e-07
2400 2750 350
0 0

0101101
*
Ed
 1e-07 1 1 0
1  38 0 0 2050
2  75 14 36 0 2050
2  76 19 35 0 2050
0

0101000
+65 37 -61 37 *
Ve
1e-07
2330 2750 0
0 0

0101101
*
Ed
 1e-07 1 1 0
1  39 0 0 250
2  77 14 36 0 250
2  78 20 35 0 250
0

0101000
+59 37 -63 37 *
Ve
1e-07
2400 2750 800
0 0

0101101
*
Ed
 1e-07 1 1 0
1  40 0 0 450
2  79 14 36 0 450
2  80 21 35 0 450
0

0101000
+61 37 -57 37 *
Ve
1e-07
2430 2750 0
0 0

0101101
*
Ed
 1e-07 1 1 0
1  41 0 0 100
2  81 14 36 0 100
2  82 22 35 0 100
0

0101000
+55 37 -59 37 *
Ve
1e-07
2430 2750 800
0 0

0101101
*
Ed
 1e-07 1 1 0
1  42 0 0 30
2  83 14 36 0 30
2  84 23 35 0 30
0

0101000
+57 37 -53 37 *
Ed
 1e-07 1 1 0
1  43 0 0 800
2  85 14 36 0 800
2  86 24 35 0 800
0

0101000
+53 37 -55 37 *
Wi

0101000
-85 43 -78 43 -71 43 -66 43 -64 43 -62 43 -60 43 -58 43 -56 43 -54 43 
-52 43 -51 43 *
Fa
0  1e-07 14 42

0101000
+50 0 *
Ve
1e-07
350 1220 250
0 0

0101101
*
Ed
 1e-07 1 1 0
1  44 0 0 250
2  87 15 36 0 250
2  88 16 40 0 250
0

0101000
+48 41 -80 41 *
Ve
1e-07
350 1220 350
0 0

0101101
*
Ed
 1e-07 1 1 0
1  45 0 0 850
2  89 15 36 0 850
2  90 17 40 0 850
0

0101000
+73 41 -46 41 *
Ve
1e-07
2330 1220 250
0 0

0101101
*
Ed
 1e-07 1 1 0
1  46 0 0 1980
2  91 15 36 0 1980
2  92 18 40 0 1980
0

0101000
+44 41 -48 41 *
Ve
1e-07
2400 1220 350
0 0

0101101
*
Ed
 1e-07 1 1 0
1  47 0 0 2050
2  93 15 36 0 2050
2  94 19 40 0 2050
0

0101000
+46 41 -42 41 *
Ve
1e-07
2330 1220 5.52307223393444e-13
0 0

0101101
*
Ed
 1e-07 1 1 0
1  48 0 0 250
2  95 15 36 0 250
2  96 20 40 0 250
0

0101000
+40 41 -44 41 *
Ve
1e-07
2400 1220 800
0 0

0101101
*
Ed
 1e-07 1 1 0
1  49 0 0 450
2  97 15 36 0 450
2  98 21 40 0 450
0

0101000
+42 41 -38 41 *
Ve
1e-07
2430 1220 5.52307223393444e-13
0 0

0101101
*
Ed
 1e-07 1 1 0
1  50 0 0 100
2  99 15 36 0 100
2  100 22 40 0 100
0

0101000
+36 41 -40 41 *
Ve
1e-07
2430 1220 800
0 0

0101101
*
Ed
 1e-07 1 1 0
1  51 0 0 30
2  101 15 36 0 30
2  102 23 40 0 30
0

0101000
+38 41 -34 41 *
Ed
 1e-07 1 1 0
1  52 0 0 800
2  103 15 36 0 800
2  104 24 40 0 800
0

0101000
+34 41 -36 41 *
Wi

0101000
-84 45 -77 45 -70 45 -47 45 -45 45 -43 45 -41 45 -39 45 -37 45 -35 45 
-33 45 -32 45 *
Fa
0  1e-07 15 44

0101000
+31 0 *
Ed
 1e-07 1 1 0
1  53 0 0 1530
2  105 16 0 0 1530
2  106 18 0 0 1530
0

0101000
+67 31 -48 31 *
Wi

0101000
+29 0 -79 0 -66 34 +47 39 *
Fa
0  1e-07 16 0

0101000
+28 0 *
Ed
 1e-07 1 1 0
1  54 0 0 1530
2  107 17 0 0 1530
2  108 19 0 0 1530
0

0101000
+65 31 -46 31 *
Wi

0101000
+72 0 -26 0 -64 34 +45 39 *
Fa
0  1e-07 17 0

0101000
+25 0 *
Ed
 1e-07 1 1 0
1  55 0 0 1530
2  109 18 0 0 1530
2  110 20 0 0 1530
0

0101000
+63 31 -44 31 *
Wi

0101000
+23 0 -29 0 -62 34 +43 39 *
Fa
0  1e-07 18 0

0101000
+22 0 *
Ed
 1e-07 1 1 0
1  56 0 0 1530
2  111 19 0 0 1530
2  112 21 0 0 1530
0

0101000
+61 31 -42 31 *
Wi

0101000
+26 0 -20 0 -60 34 +41 39 *
Fa
0  1e-07 19 0

0101000
+19 0 *
Ed
 1e-07 1 1 0
1  57 0 0 1530
2  113 20 0 0 1530
2  114 22 0 0 1530
0

0101000
+59 31 -40 31 *
Wi

0101000
+17 0 -23 0 -58 34 +39 39 *
Fa
0  1e-07 20 0

0101000
+16 0 *
Ed
 1e-07 1 1 0
1  58 0 0 1530
2  115 21 0 0 1530
2  116 23 0 0 1530
0

0101000
+57 31 -38 31 *
Wi

0101000
+20 0 -14 0 -56 34 +37 39 *
Fa
0  1e-07 21 0

0101000
+13 0 *
Ed
 1e-07 1 1 0
1  59 0 0 1530
2  117 22 0 0 1530
2  118 24 0 0 1530
0

0101000
+55 31 -36 31 *
Wi

0101000
+11 0 -17 0 -54 34 +35 39 *
Fa
0  1e-07 22 0

0101000
+10 0 *
Ed
 1e-07 1 1 0
1  60 0 0 1530
2  119 23 0 0 1530
2  120 24 0 0 1530
0

0101000
+53 31 -34 31 *
Wi

0101000
+14 0 -8 0 -52 34 +33 39 *
Fa
0  1e-07 23 0

0101000
+7 0 *
Wi

0101000
+8 0 -11 0 -51 34 +32 39 *
Fa
0  1e-07 24 0

0101000
+5 0 *
Sh

0101000
+82 30 +75 30 +68 30 -49 0 +30 0 +27 30 +24 30 +21 30 +18 30 +15 30 
+12 30 +9 30 +6 30 +4 30 *
So

0100000
+3 0 *
Co

1100000
+92 0 +2 0 *

+1 1 