DBRep_DrawableShape

CASCADE Topology V1, (c) Matra-Datavision
Locations 9
1
              1               0               0              -0 
              0 1.77321265310004e-16              -1              -0 
              0               1 1.77321265310004e-16               0 
2  1 -1 0
1
              1               0               0               0 
              0               1               0              -1 
              0               0               1 1.77321265310004e-16 
2  1 1 3 1 0
2  3 -1 1 -1 0
1
              1               0               0               0 
              0               1               0              -1 
              0               0               1 1.77321265310004e-16 
2  1 1 6 1 0
2  3 1 6 -1 1 -1 0
2  6 -1 1 -1 0
Curve2ds 48
1 0 0 0 -1 
1 1000 0 0 -1 
1 1800 0 0 -1 
1 0 0 0 -1 
1 0 0 1 0 
1 0 0 0 1 
1 0 -1 1 0 
1 0 0 0 1 
1 0 0 0 -1 
1 1800 0 0 -1 
1 0 0 1 0 
1 1000 0 -1 0 
1 -1.7732126531000425e-16 -1 1 0 
1 1000 0 -1 0 
1 1000 0 0 -1 
1 0 0 0 -1 
1 0 0 1 0 
1 0 1800 1 0 
1 1.7732126531000425e-16 -1 1 0 
1 0 1800 1 0 
1 1000 1800 -0 -1 
1 0 0 1 0 
1 950 50 -1 0 
1 0 0 1 0 
1 950 1750 -0 -1 
1 0 0 1 0 
1 50 1750 1 0 
1 0 0 1 0 
1 50 50 0 1 
1 0 0 1 0 
1 1000 1800 -0 -1 
1 0 -1 1 0 
1 950 50 -1 0 
1 -1.7732126531000425e-16 -1 1 0 
1 950 1750 -0 -1 
1 0 -1 1 0 
1 50 1750 1 0 
1 1.7732126531000425e-16 -1 1 0 
1 50 50 0 1 
1 0 -1 1 0 
1 0 0 0 -1 
1 1700 0 0 -1 
1 900 0 0 -1 
1 0 0 0 -1 
1 0 0 0 -1 
1 900 0 0 -1 
1 0 0 0 -1 
1 1700 0 0 -1 
Curves 24
1 1150 3.9010678368200935e-13 2200 0 -1 1.7732126531000425e-16 
1 2950 3.9010678368200935e-13 2200 0 -1 1.7732126531000425e-16 
1 1150 2200 0 1 0 0 
1 1150 2200 0 1 0 0 
1 1150 2.127855183720051e-13 1200 0 -1 1.7732126531000425e-16 
1 1150 1200 0 0 1 0 
1 1150 1200 0 0 1 0 
1 2950 2.127855183720051e-13 1200 0 -1 1.7732126531000425e-16 
1 2950 2200 0 0 -1 0 
1 2950 2200 0 0 -1 0 
1 2950 1200 0 -1 0 0 
1 1200 1250 0 0 1 0 
1 2900 1250 0 -1 0 0 
1 2900 2150 0 0 -1 0 
1 1200 2150 0 1 0 0 
1 2950 1200 0 -1 0 0 
1 1200 1250 0 0 1 0 
1 2900 1250 0 -1 0 0 
1 2900 2150 0 0 -1 0 
1 1200 2150 0 1 0 0 
1 1200 2.2165158163750531e-13 1250 0 -1 1.7732126531000425e-16 
1 1200 3.8124072041650914e-13 2150 0 -1 1.7732126531000425e-16 
1 2900 2.2165158163750531e-13 1250 0 -1 1.7732126531000425e-16 
1 2900 3.8124072041650914e-13 2150 0 -1 1.7732126531000425e-16 
Polygon3D 0
PolygonOnTriangulations 0
Surfaces 10
1 1150 3.9010678368200935e-13 2200 -0 1.7732126531000425e-16 1 1 0 0 0 1 -1.7732126531000425e-16 
1 1150 2.127855183720051e-13 1200 -1 0 0 0 1.7732126531000425e-16 1 0 1 -1.7732126531000425e-16 
1 2950 3.9010678368200935e-13 2200 1 0 0 0 -1.7732126531000425e-16 -1 0 1 -1.7732126531000425e-16 
1 1150 3.9010678368200935e-13 2200 0 -1 1.7732126531000425e-16 0 -1.7732126531000425e-16 -1 1 0 0 
1 1150 3.9010678368200935e-13 2200 0 -1 1.7732126531000425e-16 0 -1.7732126531000425e-16 -1 1 0 0 
1 2950 2.127855183720051e-13 1200 -0 -1.7732126531000425e-16 -1 -1 0 0 0 1 -1.7732126531000425e-16 
1 1200 2.2165158163750531e-13 1250 -1 0 0 0 1.7732126531000425e-16 1 0 1 -1.7732126531000425e-16 
1 2900 2.2165158163750531e-13 1250 -0 -1.7732126531000425e-16 -1 -1 0 0 0 1 -1.7732126531000425e-16 
1 2900 3.8124072041650914e-13 2150 1 0 0 0 -1.7732126531000425e-16 -1 0 1 -1.7732126531000425e-16 
1 1200 3.8124072041650914e-13 2150 -0 1.7732126531000425e-16 1 1 0 0 0 1 -1.7732126531000425e-16 
Triangulations 0

TShapes 66
Ve
1e-07
1150 3.90106783682009e-13 2200
0 0

0101101
*
Ve
1e-07
1150 -0.99999999999961 2200
0 0

0101101
*
Ed
 1e-07 1 1 0
1  1 0 0 1
2  1 1 0 0 1
2  2 2 0 0 1
0

0101000
+66 0 -65 0 *
Ve
1e-07
2950 3.90106783682009e-13 2200
0 0

0101101
*
Ve
1e-07
2950 -0.99999999999961 2200
0 0

0101101
*
Ed
 1e-07 1 1 0
1  2 0 0 1
2  3 1 0 0 1
2  4 3 0 0 1
0

0101000
+63 0 -62 0 *
Ed
 1e-07 1 1 0
1  3 0 0 1800
2  5 1 2 0 1800
2  6 4 2 0 1800
0

0101000
+66 2 -63 2 *
Ed
 1e-07 1 1 0
1  4 0 0 1800
2  7 1 5 0 1800
2  8 5 2 0 1800
0

0101000
+65 5 -62 5 *
Wi

0101000
+64 0 -61 0 -60 1 +59 4 *
Fa
0  1e-07 1 0

0101000
+58 0 *
Ve
1e-07
1150 2.12785518372005e-13 1200
0 0

0101101
*
Ve
1e-07
1150 -0.999999999999787 1200
0 0

0101101
*
Ed
 1e-07 1 1 0
1  5 0 0 1
2  9 2 0 0 1
2  10 6 0 0 1
0

0101000
+56 0 -55 0 *
Ed
 1e-07 1 1 0
1  6 0 0 1000
2  11 2 2 0 1000
2  12 4 2 0 1000
0

0101000
+56 2 -66 2 *
Ed
 1e-07 1 1 0
1  7 0 0 1000
2  13 2 5 0 1000
2  14 5 2 0 1000
0

0101000
+55 5 -65 5 *
Wi

0101000
+54 0 -64 0 -53 1 +52 4 *
Fa
0  1e-07 2 0

0101000
+51 0 *
Ve
1e-07
2950 2.12785518372005e-13 1200
0 0

0101101
*
Ve
1e-07
2950 -0.999999999999787 1200
0 0

0101101
*
Ed
 1e-07 1 1 0
1  8 0 0 1
2  15 3 0 0 1
2  16 6 0 0 1
0

0101000
+49 0 -48 0 *
Ed
 1e-07 1 1 0
1  9 0 0 1000
2  17 3 2 0 1000
2  18 4 2 0 1000
0

0101000
+63 2 -49 2 *
Ed
 1e-07 1 1 0
1  10 0 0 1000
2  19 3 5 0 1000
2  20 5 2 0 1000
0

0101000
+62 5 -48 5 *
Wi

0101000
+61 0 -47 0 -46 1 +45 4 *
Fa
0  1e-07 3 0

0101000
+44 0 *
Ed
 1e-07 1 1 0
1  11 0 0 1800
2  21 4 2 0 1800
2  22 6 2 0 1800
0

0101000
+49 2 -56 2 *
Wi

0101000
-60 1 -53 1 -46 1 -42 1 *
Ve
1e-07
1200 2.21651581637505e-13 1250
0 0

0101101
*
Ve
1e-07
1200 3.81240720416509e-13 2150
0 0

0101101
*
Ed
 1e-07 1 1 0
1  12 0 0 900
2  23 4 2 0 900
2  24 7 2 0 900
0

0101000
+40 2 -39 2 *
Ve
1e-07
2900 2.21651581637505e-13 1250
0 0

0101101
*
Ed
 1e-07 1 1 0
1  13 0 0 1700
2  25 4 2 0 1700
2  26 8 2 0 1700
0

0101000
+37 2 -40 2 *
Ve
1e-07
2900 3.81240720416509e-13 2150
0 0

0101101
*
Ed
 1e-07 1 1 0
1  14 0 0 900
2  27 4 2 0 900
2  28 9 2 0 900
0

0101000
+35 2 -37 2 *
Ed
 1e-07 1 1 0
1  15 0 0 1700
2  29 4 2 0 1700
2  30 10 2 0 1700
0

0101000
+39 2 -35 2 *
Wi

0101000
+38 1 +36 1 +34 1 +33 1 *
Fa
0  1e-07 4 0

0101000
+41 0 +32 0 *
Ed
 1e-07 1 1 0
1  16 0 0 1800
2  31 5 2 0 1800
2  32 6 5 0 1800
0

0101000
+48 5 -55 5 *
Wi

0101000
-59 4 -52 4 -45 4 -30 4 *
Ve
1e-07
1200 -0.999999999999778 1250
0 0

0101101
*
Ve
1e-07
1200 -0.999999999999619 2150
0 0

0101101
*
Ed
 1e-07 1 1 0
1  17 0 0 900
2  33 5 8 0 900
2  34 7 9 0 900
0

0101000
+28 9 -27 9 *
Ve
1e-07
2900 -0.999999999999778 1250
0 0

0101101
*
Ed
 1e-07 1 1 0
1  18 0 0 1700
2  35 5 8 0 1700
2  36 8 9 0 1700
0

0101000
+25 9 -28 9 *
Ve
1e-07
2900 -0.999999999999619 2150
0 0

0101101
*
Ed
 1e-07 1 1 0
1  19 0 0 900
2  37 5 8 0 900
2  38 9 9 0 900
0

0101000
+23 9 -25 9 *
Ed
 1e-07 1 1 0
1  20 0 0 1700
2  39 5 8 0 1700
2  40 10 9 0 1700
0

0101000
+27 9 -23 9 *
Wi

0101000
+26 7 +24 7 +22 7 +21 7 *
Fa
0  1e-07 5 3

0101000
+29 0 +20 0 *
Wi

0101000
+47 0 -54 0 -42 1 +30 4 *
Fa
0  1e-07 6 0

0101000
+18 0 *
Ed
 1e-07 1 1 0
1  21 0 0 1
2  41 7 0 0 1
2  42 8 0 0 1
0

0101000
+40 0 -28 0 *
Ed
 1e-07 1 1 0
1  22 0 0 1
2  43 7 0 0 1
2  44 10 0 0 1
0

0101000
+39 0 -27 0 *
Wi

0101000
+16 0 -38 1 +26 7 -15 0 *
Fa
0  1e-07 7 0

0101000
+14 0 *
Ed
 1e-07 1 1 0
1  23 0 0 1
2  45 8 0 0 1
2  46 9 0 0 1
0

0101000
+37 0 -25 0 *
Wi

0101000
+12 0 -36 1 +24 7 -16 0 *
Fa
0  1e-07 8 0

0101000
+11 0 *
Ed
 1e-07 1 1 0
1  24 0 0 1
2  47 9 0 0 1
2  48 10 0 0 1
0

0101000
+35 0 -23 0 *
Wi

0101000
+9 0 -34 1 +22 7 -12 0 *
Fa
0  1e-07 9 0

0101000
+8 0 *
Wi

0101000
+15 0 -33 1 +21 7 -9 0 *
Fa
0  1e-07 10 0

0101000
+6 0 *
Sh

0101000
+57 0 +50 0 +43 0 -31 0 +19 0 +17 0 -13 0 -10 0 -7 0 -5 0 
*
So

0100000
+4 0 *
Co

0100000
+3 0 *
Co

1100000
+2 0 *

+1 0 