DBRep_DrawableShape

CASCADE Topology V1, (c) Matra-Datavision
Locations 8
1
              1               0               0               0 
              0               1               0               0 
              0               0               1               0 
1
              1               0               0             500 
              0               1               0             225 
              0               0               1              10 
2  2 -1 0
2  1 -1 2 -1 0
2  1 -1 0
1
              1               0               0             500 
              0               1               0             225 
              0               0               1             410 
2  6 -1 0
2  1 -1 6 -1 0
Curve2ds 6
1 0 0 1 0 
3 0 0 1 0 -0 1 150 100
1 6.2831853071795862 0 0 1 
1 0 0 0 1 
1 0 1 1 0 
3 0 0 1 0 -0 1 250 185
Curves 3
3 0 0 0 0 0 1 1 0 -0 -0 1 0 150 100
7 0 0  1 2 2  650 225 10  750 225 410 
 0 2 1 2
3 0 0 0 0 0 1 1 0 -0 -0 1 0 250 185
Polygon3D 0
PolygonOnTriangulations 0
Surfaces 3
9 0 0 0 0 11 1 22 2 3 2 650 225 10  750 225 410  
649.99999999999011 253.5599332144439 10.000000000000195  750.00000000000068 277.83587644673571 409.99999999998897  
636.54144826746744 282.11986419626385 9.9999999999991704  727.56908044570957 330.6717487630271 410.00000000004349  
609.62434796769162 307.54786748760483 10.000000000001986  682.70724661298493 377.71355485222443 409.9999999998999  
571.09354955764638 326.71189144235717 9.9999999999966374  618.48924926247162 413.16699916808102 410.00000000016115  
524.63886805801019 337.03230705923579 10.000000000004247  541.0647800970105 432.25976805996379 409.99999999980838  
475.36113194197981 337.03230705968809 9.9999999999958984  458.93521990300849 432.25976806003069 410.00000000017195  
428.90645044237868 326.71189144200878 10.000000000003018  381.51075073748478 413.16699916802935 409.99999999988296  
390.37565203228166 307.54786748780583 9.999999999998348  317.29275338705742 377.71355485225604 410.00000000005889  
363.4585517325516 282.11986419618313 10.000000000000625  272.43091955426621 330.67174876301237 409.99999999998101  
349.9999999999996 253.55993321446118 9.9999999999998739  250.00000000000753 277.83587644673963 410.00000000000068  
350.00000000000824 196.44006678554294 10.000000000000094  249.99999999998963 172.16412355326111 410.00000000000563  
363.4585517325159 167.88013580377944 9.9999999999997087  272.43091955433971 119.32825123698255 409.99999999995998  
390.3756520323671 142.45213251229578 10.000000000000625  317.29275338688421 72.286445147755714 410.00000000011323  
428.90645044223351 123.28810855781231 9.9999999999989182  381.51075073777042 36.833000831950969 409.99999999978769  
475.36113194216625 112.96769294054143 10.000000000001558  458.93521990265242 17.740231939994526 410.00000000029308  
524.63886805782704 112.9676929405415 9.9999999999982077  541.06478009735531 17.74023194001364 409.99999999969407  
571.09354955778031 123.28810855780775 10.000000000001569  618.48924926221321 36.83300083193312 410.00000000024249  
609.62434796761818 142.45213251230328 9.9999999999989999  682.70724661312863 72.286445147769399 409.99999999985664  
636.54144826749723 167.88013580377273 10.000000000000435  727.56908044565375 119.32825123697488 410.00000000005974  
649.99999999998283 196.44006678554706 9.9999999999998863  750.00000000001319 172.16412355326361 409.99999999998533  
650 224.99999999999997 10  750 224.99999999999991 410  

0 12
3.1415926535897931 10
6.2831853071795862 12

0 2
1 2

1 500 225 10 0 0 1 1 0 -0 -0 1 0 
1 500 225 410 0 0 1 1 0 -0 -0 1 0 
Triangulations 0

TShapes 13
Ve
1e-07
650 225 10
0 0

0101101
*
Ed
 1e-07 1 1 0
1  1 0 0 6.28318530717959
2  1 1 3 0 6.28318530717959
2  2 2 3 0 6.28318530717959
0

0101100
+13 4 -13 4 *
Ve
1e-07
750 225 410
0 0

0101101
*
Ed
 1e-07 1 1 0
1  2 0 0 1
3  3 4G1 1 0 0 1
0

0101000
+13 5 -11 5 *
Ed
 1e-07 1 1 0
1  3 0 0 6.28318530717959
2  5 1 7 0 6.28318530717959
2  6 3 7 0 6.28318530717959
0

0101100
+11 8 -11 8 *
Wi

0101000
+12 2 +10 0 -9 6 -10 0 *
Fa
0  1e-07 1 0

0101000
+8 0 *
Wi

0101100
+12 2 *
Fa
0  1e-07 2 0

0101000
+6 0 *
Wi

0101100
+9 6 *
Fa
0  1e-07 3 0

0101000
+4 0 *
Sh

0101100
+7 0 -5 0 +3 0 *
So

1100100
+2 0 *

+1 1 