DBRep_DrawableShape

CASCADE Topology V1, (c) Matra-Datavision
Locations 5
1
              1               0               0               0 
              0               1               0               0 
              0               0               1               0 
2  1 -1 0
1
              1               0               0               0 
              0               1               0               0 
              0               0               1              35 
2  1 1 3 1 0
2  3 -1 1 -1 0
Curve2ds 48
1 0 0 0 -1 
1 6.4999996405198885 0 0 -1 
1 44.140575488478881 0 0 -1 
1 59.959999453590257 0 0 -1 
1 0 0 1 0 
1 0 0 0.99681527739674414 0.079745236525149588 
1 0 -35 1 0 
1 0 0 0.99681527739674414 0.079745236525149588 
1 0 0 0 -1 
1 50 0 0 -1 
1 0 0 1 0 
1 0 -6.4999996405198885 0 1 
1 0 -35 1 0 
1 0 -6.4999996405198885 0 1 
1 0 -0 0 -1 
1 80 0 0 -1 
1 0 -0 1 0 
1 50 -6.4999996405198885 -1 0 
1 0 -35 1 0 
1 50 -6.4999996405198885 -1 0 
1 0 0 0 -1 
1 50 0 0 -1 
1 0 0 1 0 
1 50 73.500000359480111 0 -1 
1 0 -35 1 0 
1 50 73.500000359480111 0 -1 
1 0 0 0 -1 
1 0 0 0 -1 
1 0 0 1 0 
1 0 73.500000359480111 1 0 
1 0 -35 1 0 
1 0 73.500000359480111 1 0 
1 6.4999996405198885 0 0 -1 
1 0 0 0 -1 
1 0 0 1 0 
1 0 73.500000359480111 0 -1 
1 0 -35 1 0 
1 0 73.500000359480111 0 -1 
1 44.140575488478881 0 0 -1 
1 0 0 0 -1 
1 0 0 1 0 
1 0 67.000000718960223 0.99681527739674414 -0.079745236525150157 
1 0 -35 1 0 
1 0 67.000000718960223 0.99681527739674414 -0.079745236525150157 
1 0 0 1 0 
1 44 63.480000086275226 0 -1 
1 0 -35 1 0 
1 44 63.480000086275226 0 -1 
Curves 24
1 -93.242811407063996 -37.162042748659985 0 0 0 1 
1 -49.242811407063996 -33.642042115975016 0 0 0 1 
1 -93.242811407063996 -37.162042748659985 0 0.99681527739674414 0.079745236525149588 0 
1 -93.242811407063996 -37.162042748659985 0 0.99681527739674414 0.079745236525149588 0 
1 -93.242811407063996 -43.662042389179874 0 0 0 1 
1 -93.242811407063996 -43.662042389179874 0 0 1 0 
1 -93.242811407063996 -43.662042389179874 0 0 1 0 
1 -43.242811407063996 -43.662042389179874 0 0 0 1 
1 -43.242811407063996 -43.662042389179874 0 -1 0 0 
1 -43.242811407063996 -43.662042389179874 0 -1 0 0 
1 -43.242811407063996 36.337957610820126 0 0 0 1 
1 -43.242811407063996 36.337957610820126 0 0 -1 0 
1 -43.242811407063996 36.337957610820126 0 0 -1 0 
1 -93.242811407063996 36.337957610820126 0 0 0 1 
1 -93.242811407063996 36.337957610820126 0 1 0 0 
1 -93.242811407063996 36.337957610820126 0 1 0 0 
1 -93.242811407063996 29.837957970300238 0 0 0 1 
1 -93.242811407063996 36.337957610820126 0 0 -1 0 
1 -93.242811407063996 36.337957610820126 0 0 -1 0 
1 -49.242811407063996 26.317957337615244 0 0 0 1 
1 -93.242811407063996 29.837957970300238 0 0.99681527739674414 -0.079745236525150157 0 
1 -93.242811407063996 29.837957970300238 0 0.99681527739674414 -0.079745236525150157 0 
1 -49.242811407063996 26.317957337615244 0 0 -1 0 
1 -49.242811407063996 26.317957337615244 0 0 -1 0 
Polygon3D 0
PolygonOnTriangulations 0
Surfaces 10
1 -93.242811407063996 -37.162042748659985 0 -0.079745236525149588 0.99681527739674414 0 0.99681527739674414 0.079745236525149588 0 0 0 -1 
1 -93.242811407063996 -43.662042389179874 0 -1 0 0 0 1 0 0 0 -1 
1 -49.242811407063996 26.317957337615244 0 1 0 -0 0 -1 0 0 -0 -1 
1 -93.242811407063996 -37.162042748659985 0 -0 0 1 1 0 0 0 1 -0 
1 -93.242811407063996 -37.162042748659985 0 -0 0 1 1 0 0 0 1 -0 
1 -43.242811407063996 -43.662042389179874 0 0 -1 0 -1 0 0 -0 -0 -1 
1 -43.242811407063996 36.337957610820126 0 1 0 -0 0 -1 0 0 -0 -1 
1 -93.242811407063996 36.337957610820126 0 0 1 0 1 0 0 0 0 -1 
1 -93.242811407063996 36.337957610820126 0 1 0 -0 0 -1 0 0 -0 -1 
1 -93.242811407063996 29.837957970300238 0 0.079745236525150157 0.99681527739674414 -0 0.99681527739674414 -0.079745236525150157 0 0 -0 -1 
Triangulations 0

TShapes 62
Ve
1e-007
-93.242811407064 -37.16204274866 0
0 0

0101101
*
Ve
1e-007
-93.242811407064 -37.16204274866 35
0 0

0101101
*
Ed
 1e-007 1 1 0
1  1 0 0 35
2  1 1 0 0 35
2  2 2 0 0 35
0

0101000
+62 0 -61 0 *
Ve
1e-007
-49.242811407064 -33.642042115975 0
0 0

0101101
*
Ve
1e-007
-49.242811407064 -33.642042115975 35
0 0

0101101
*
Ed
 1e-007 1 1 0
1  2 0 0 35
2  3 1 0 0 35
2  4 3 0 0 35
0

0101000
+59 0 -58 0 *
Ed
 1e-007 1 1 0
1  3 0 0 44.1405754884789
2  5 1 2 0 44.1405754884789
2  6 4 2 0 44.1405754884789
0

0101000
+62 2 -59 2 *
Ed
 1e-007 1 1 0
1  4 0 0 44.1405754884789
2  7 1 5 0 44.1405754884789
2  8 5 2 0 44.1405754884789
0

0101000
+61 5 -58 5 *
Wi

0101000
+60 0 -57 0 -56 1 +55 4 *
Fa
0  1e-007 1 0

0101000
+54 0 *
Ve
1e-007
-93.242811407064 -43.6620423891799 0
0 0

0101101
*
Ve
1e-007
-93.242811407064 -43.6620423891799 35
0 0

0101101
*
Ed
 1e-007 1 1 0
1  5 0 0 35
2  9 2 0 0 35
2  10 6 0 0 35
0

0101000
+52 0 -51 0 *
Ed
 1e-007 1 1 0
1  6 0 0 6.49999964051989
2  11 2 2 0 6.49999964051989
2  12 4 2 0 6.49999964051989
0

0101000
+52 2 -62 2 *
Ed
 1e-007 1 1 0
1  7 0 0 6.49999964051989
2  13 2 5 0 6.49999964051989
2  14 5 2 0 6.49999964051989
0

0101000
+51 5 -61 5 *
Wi

0101000
+50 0 -60 0 -49 1 +48 4 *
Fa
0  1e-007 2 0

0101000
+47 0 *
Ve
1e-007
-43.242811407064 -43.6620423891799 0
0 0

0101101
*
Ve
1e-007
-43.242811407064 -43.6620423891799 35
0 0

0101101
*
Ed
 1e-007 1 1 0
1  8 0 0 35
2  15 6 0 0 35
2  16 7 0 0 35
0

0101000
+45 0 -44 0 *
Ed
 1e-007 1 1 0
1  9 0 0 50
2  17 6 2 0 50
2  18 4 2 0 50
0

0101000
+45 2 -52 2 *
Ed
 1e-007 1 1 0
1  10 0 0 50
2  19 6 5 0 50
2  20 5 2 0 50
0

0101000
+44 5 -51 5 *
Wi

0101000
+43 0 -50 0 -42 1 +41 4 *
Fa
0  1e-007 6 0

0101000
+40 0 *
Ve
1e-007
-43.242811407064 36.3379576108201 0
0 0

0101101
*
Ve
1e-007
-43.242811407064 36.3379576108201 35
0 0

0101101
*
Ed
 1e-007 1 1 0
1  11 0 0 35
2  21 7 0 0 35
2  22 8 0 0 35
0

0101000
+38 0 -37 0 *
Ed
 1e-007 1 1 0
1  12 0 0 80
2  23 7 2 0 80
2  24 4 2 0 80
0

0101000
+38 2 -45 2 *
Ed
 1e-007 1 1 0
1  13 0 0 80
2  25 7 5 0 80
2  26 5 2 0 80
0

0101000
+37 5 -44 5 *
Wi

0101000
+36 0 -43 0 -35 1 +34 4 *
Fa
0  1e-007 7 0

0101000
+33 0 *
Ve
1e-007
-93.242811407064 36.3379576108201 0
0 0

0101101
*
Ve
1e-007
-93.242811407064 36.3379576108201 35
0 0

0101101
*
Ed
 1e-007 1 1 0
1  14 0 0 35
2  27 8 0 0 35
2  28 9 0 0 35
0

0101000
+31 0 -30 0 *
Ed
 1e-007 1 1 0
1  15 0 0 50
2  29 8 2 0 50
2  30 4 2 0 50
0

0101000
+31 2 -38 2 *
Ed
 1e-007 1 1 0
1  16 0 0 50
2  31 8 5 0 50
2  32 5 2 0 50
0

0101000
+30 5 -37 5 *
Wi

0101000
+29 0 -36 0 -28 1 +27 4 *
Fa
0  1e-007 8 0

0101000
+26 0 *
Ve
1e-007
-93.242811407064 29.8379579703002 0
0 0

0101101
*
Ve
1e-007
-93.242811407064 29.8379579703002 35
0 0

0101101
*
Ed
 1e-007 1 1 0
1  17 0 0 35
2  33 9 0 0 35
2  34 10 0 0 35
0

0101000
+24 0 -23 0 *
Ed
 1e-007 1 1 0
1  18 0 0 6.49999964051989
2  35 9 2 0 6.49999964051989
2  36 4 2 0 6.49999964051989
0

0101000
+31 2 -24 2 *
Ed
 1e-007 1 1 0
1  19 0 0 6.49999964051989
2  37 9 5 0 6.49999964051989
2  38 5 2 0 6.49999964051989
0

0101000
+30 5 -23 5 *
Wi

0101000
+29 0 -22 0 -21 1 +20 4 *
Fa
0  1e-007 9 0

0101000
+19 0 *
Ve
1e-007
-49.242811407064 26.3179573376152 0
0 0

0101101
*
Ve
1e-007
-49.242811407064 26.3179573376152 35
0 0

0101101
*
Ed
 1e-007 1 1 0
1  20 0 0 35
2  39 10 0 0 35
2  40 3 0 0 35
0

0101000
+17 0 -16 0 *
Ed
 1e-007 1 1 0
1  21 0 0 44.1405754884789
2  41 10 2 0 44.1405754884789
2  42 4 2 0 44.1405754884789
0

0101000
+24 2 -17 2 *
Ed
 1e-007 1 1 0
1  22 0 0 44.1405754884789
2  43 10 5 0 44.1405754884789
2  44 5 2 0 44.1405754884789
0

0101000
+23 5 -16 5 *
Wi

0101000
+22 0 -15 0 -14 1 +13 4 *
Fa
0  1e-007 10 0

0101000
+12 0 *
Ed
 1e-007 1 1 0
1  23 0 0 59.9599994535903
2  45 3 2 0 59.9599994535903
2  46 4 2 0 59.9599994535903
0

0101000
+17 2 -59 2 *
Ed
 1e-007 1 1 0
1  24 0 0 59.9599994535903
2  47 3 5 0 59.9599994535903
2  48 5 2 0 59.9599994535903
0

0101000
+16 5 -58 5 *
Wi

0101000
+15 0 -57 0 -10 1 +9 4 *
Fa
0  1e-007 3 0

0101000
+8 0 *
Wi

0101100
-56 1 -49 1 -42 1 -35 1 -28 1 +21 1 +14 1 +10 1 *
Fa
0  1e-007 4 0

0101000
+6 0 *
Wi

0101100
-55 1 -48 1 -41 1 -34 1 -27 1 +20 1 +13 1 +9 1 *
Fa
0  1e-007 5 0

0101000
+4 0 *
Sh

0101000
-53 0 -46 0 -39 0 -32 0 -25 0 +18 0 +11 0 +7 0 +5 0 -3 3 
*
So

1100000
-2 0 *

+1 0 