DBRep_DrawableShape

CASCADE Topology V1, (c) Matra-Datavision
Locations 8
1
              1               0               0               0 
              0               1               0               0 
              0               0               1               0 
1
              1               0               0             500 
              0               1               0             225 
              0               0               1             410 
2  2 -1 0
2  1 -1 2 -1 0
2  1 -1 0
1
              1               0               0             500 
              0               1               0             225 
              0               0               1              30 
2  6 -1 0
2  1 -1 6 -1 0
Curve2ds 6
1 0 0 1 0 
3 0 0 1 0 -0 1 170 105
1 6.2831853071795862 0 0 1 
1 0 0 0 1 
1 0 1 1 0 
3 0 0 1 0 -0 1 65 50
Curves 3
3 0 0 0 0 0 1 1 0 -0 -0 1 0 170 105
7 0 0  1 2 2  670 225.00000000000003 410  565 224.99999999999997 30 
 0 2 1 2
3 0 0 0 0 0 1 1 0 -0 -0 1 0 65 50
Polygon3D 0
PolygonOnTriangulations 0
Surfaces 3
9 0 0 0 0 11 1 22 2 3 2 670 225.00000000000003 410  565 224.99999999999997 30  
669.99999999998147 254.9879298751755 409.99999999998897  565.00000000001285 239.27996660722715 30.000000000000362  
654.74697470315959 284.97585740603716 410.00000000004349  559.1679609158308 253.5599320981091 29.999999999998355  
624.24092769664617 311.67526086208608 409.9999999998999  547.50388411950325 266.27393374386298 30.00000000000416  
580.57268949878437 331.79748601429532 410.00000000016115  530.80720480803541 275.85594572106163 29.999999999992607  
527.92405046559645 342.63392241243406 409.99999999980838  510.67684282547236 281.01615352979098 30.00000000000971  
472.0759495343861 342.63392241243696 410.00000000017195  489.32315717455174 281.01615352964615 29.999999999990482  
419.42731050125411 331.79748601428759 409.99999999988296  469.19279519190889 275.855945721176 30.000000000006942  
375.75907230332001 311.67526086209483 410.00000000005889  452.49611588055001 266.27393374379471 29.999999999996309  
345.25302529685814 284.97585740603205 409.99999999998101  440.83203908413833 253.55993209813676 30.000000000001339  
330.00000000001177 254.9879298751772 410.00000000000068  434.99999999999733 239.27996660722155 29.99999999999973  
329.9999999999917 195.01207012482246 410.00000000000563  434.99999999999903 210.72003339277671 30.000000000000227  
345.25302529694204 165.02414259397054 409.99999999995998  440.83203908412975 196.44006790187842 29.99999999999913  
375.75907230311418 138.32473913789809 410.00000000011323  452.49611588057985 183.72606625616686 30.000000000002032  
419.42731050161495 118.20251398572803 409.99999999978769  469.19279519184749 174.14405427888093 29.999999999996515  
472.07594953390907 107.3660775875357 410.00000000029308  489.32315717463359 168.98384647029857 30.000000000004651  
527.92405046607792 107.36607758759975 409.99999999969407  510.67684282540233 168.9838464702446 29.999999999995172  
580.57268949841568 118.20251398567531 410.00000000024249  530.80720480806906 174.14405427892461 30.000000000003823  
624.24092769685558 138.32473913793189 409.99999999985664  547.5038841195003 183.72606625613852 29.999999999997744  
654.74697470307615 165.02414259395516 410.00000000005974  559.1679609158241 196.44006790189232 30.000000000000941  
670.00000000000102 195.0120701248261 409.99999999998533  565.0000000000166 210.72003339277191 29.999999999999776  
670 224.99999999999997 410  565 225 30  

0 12
3.1415926535897931 10
6.2831853071795862 12

0 2
1 2

1 500 225 410 0 0 1 1 0 -0 -0 1 0 
1 500 225 30 0 0 1 1 0 -0 -0 1 0 
Triangulations 0

TShapes 13
Ve
1e-07
670 225 410
0 0

0101101
*
Ed
 1e-07 1 1 0
1  1 0 0 6.28318530717959
2  1 1 3 0 6.28318530717959
2  2 2 3 0 6.28318530717959
0

0101100
+13 4 -13 4 *
Ve
1e-07
565 225 30
0 0

0101101
*
Ed
 1e-07 1 1 0
1  2 0 0 1
3  3 4G1 1 0 0 1
0

0101000
+13 5 -11 5 *
Ed
 1e-07 1 1 0
1  3 0 0 6.28318530717959
2  5 1 7 0 6.28318530717959
2  6 3 7 0 6.28318530717959
0

0101100
+11 8 -11 8 *
Wi

0101000
+12 2 +10 0 -9 6 -10 0 *
Fa
0  1e-07 1 0

0101000
+8 0 *
Wi

0101100
+12 2 *
Fa
0  1e-07 2 0

0101000
+6 0 *
Wi

0101100
+9 6 *
Fa
0  1e-07 3 0

0101000
+4 0 *
Sh

0101100
+7 0 -5 0 +3 0 *
So

1100100
-2 0 *

+1 1 