DBRep_DrawableShape

CASCADE Topology V1, (c) Matra-Datavision
Locations 10
1
              1               0               0              -0 
              0               1               0               0 
              0               0               1               5 
1
              1               0               0               0 
              0               1               0               0 
              0               0               1               0 
2  1 1 2 -1 0
2  2 1 1 -1 0
2  1 -1 0
1
              1               0               0               0 
              0               1               0               0 
              0               0               1              10 
2  1 1 2 -1 6 1 0
2  6 -1 2 1 1 -1 0
2  2 -1 0
2  2 -1 6 1 0
Curve2ds 12
1 0 0 0 -1 
1 6.2831853071795862 0 0 -1 
1 0 0 1 0 
2 11.213203435596427 0 -1 0 0 1 11.213203435596427
1 0 -10 1 0 
2 11.213203435596427 0 -1 0 0 1 11.213203435596427
1 0 0 0 -1 
1 6.2831853071795862 0 0 -1 
1 0 0 1 0 
2 11.213203435596427 0 -1 0 0 1 10
1 0 -10 1 0 
2 11.213203435596427 0 -1 0 0 1 10
Curves 6
1 41.213203435596427 -15 5 0 0 1 
2 30 -15 0 0 0 1 1 0 -0 -0 1 0 11.213203435596423
2 30 -15 0 0 0 1 1 0 -0 -0 1 0 11.213203435596423
1 40 -15 5 0 0 1 
2 30 -15 0 0 0 1 1 0 -0 -0 1 0 10
2 30 -15 0 0 0 1 1 0 -0 -0 1 0 10
Polygon3D 0
PolygonOnTriangulations 0
Surfaces 4
2 30 -15 5 -0 -0 -1 1 0 0 -0 1 -0 11.213203435596423
1 41.213203435596427 -15 5 -0 0 -1 -1 0 0 0 1 0 
1 41.213203435596427 -15 5 -0 0 -1 -1 0 0 0 1 0 
2 30 -15 5 -0 -0 -1 1 0 0 -0 1 -0 10
Triangulations 0

TShapes 23
Ve
1e-07
41.2132034355964 -15 5
0 0

0101101
*
Ve
1e-07
41.2132034355964 -15 15
0 0

0101101
*
Ed
 1e-07 1 1 0
1  1 0 0 10
3  1 2CN 1 0 0 10
0

0101000
+23 0 -22 0 *
Ed
 1e-07 1 1 0
1  2 0 0 6.28318530717959
2  3 1 4 0 6.28318530717959
2  4 2 5 0 6.28318530717959
0

0101100
+23 4 -23 4 *
Ed
 1e-07 1 1 0
1  3 0 0 6.28318530717959
2  5 1 8 0 6.28318530717959
2  6 3 5 0 6.28318530717959
0

0101100
+22 8 -22 8 *
Wi

0101000
+21 0 -21 0 -20 3 +19 7 *
Fa
0  1e-07 1 0

0101000
+18 0 *
Ve
1e-07
40 -15 5
0 0

0101101
*
Ve
1e-07
40 -15 15
0 0

0101101
*
Ed
 1e-07 1 1 0
1  4 0 0 10
3  7 8CN 4 0 0 10
0

0101000
+16 0 -15 0 *
Ed
 1e-07 1 1 0
1  5 0 0 6.28318530717959
2  9 4 4 0 6.28318530717959
2  10 2 5 0 6.28318530717959
0

0101100
+16 4 -16 4 *
Ed
 1e-07 1 1 0
1  6 0 0 6.28318530717959
2  11 4 8 0 6.28318530717959
2  12 3 5 0 6.28318530717959
0

0101100
+15 8 -15 8 *
Wi

0101000
+14 0 -14 0 -13 3 +12 7 *
Fa
0  1e-07 4 0

0101000
+11 0 *
Wi

0101100
+20 0 *
Wi

0101100
+13 0 *
Fa
0  1e-07 2 0

0101000
-9 1 +8 1 *
Wi

0101100
+19 0 *
Wi

0101100
+12 0 *
Fa
0  1e-07 3 0

0101000
-6 1 +5 1 *
Sh

0101000
-17 0 +10 0 +7 9 -4 10 *
So

0100000
+3 0 *
Co

1100000
+2 0 *

+1 0 