DBRep_DrawableShape

CASCADE Topology V1, (c) Matra-Datavision
Locations 2
1
              1               0               0               0 
              0               1               0               0 
              0               0               1               0 
2  1 -1 0
Curve2ds 18
1 0 2100 1 0 
2 0 0 1 0 -0 1 820
1 1.5707963267948966 -0 0 1 
1 820 0 0 1 
1 0 0 1 0 
2 0 0 1 0 -0 1 820
1 0 -0 0 1 
1 820 0 0 1 
1 0 0 1 0 
1 0 2100 1 0 
1 0 0 6.1230317691118863e-17 1 
1 0 2100 1 0 
1 0 0 6.1230317691118863e-17 1 
1 0 0 1 0 
1 0 0 1 0 
1 0 0 1 0 
1 0 0 0 1 
1 0 0 0 1 
Curves 9
2 0 0 2100 0 0 1 1 0 -0 -0 1 0 820
1 9.1038288019262836e-14 820 0 0 0 1 
2 0 0 0 0 0 1 1 0 -0 -0 1 0 820
1 820 0 0 0 0 1 
1 0 0 2100 1 0 -0 
1 0 0 2100 1.1102230246251565e-16 1 0 
1 0 0 0 1.1102230246251565e-16 1 0 
1 0 0 0 1 0 -0 
1 0 0 0 0 0 1 
Polygon3D 0
PolygonOnTriangulations 0
Surfaces 5
2 0 0 0 0 0 1 1 0 -0 -0 1 0 820
1 0 0 2100 0 0 1 1 0 -0 -0 1 0 
1 0 0 0 1 -1.1102230246251565e-16 0 1.1102230246251565e-16 1 0 -0 0 1 
1 0 0 0 0 0 1 1 0 -0 -0 1 0 
1 0 0 0 0 -1 -0 1 0 0 0 -0 1 
Triangulations 0

TShapes 27
Ve
1e-07
9.10382880192628e-14 820 2100
0 0

0101101
*
Ve
1e-07
820 0 2100
0 0

0101101
*
Ed
 1e-07 1 1 0
1  1 0 0 1.5707963267949
2  1 1 0 0 1.5707963267949
2  2 2 0 0 1.5707963267949
0

0101100
-27 2 +26 2 *
Ve
1e-07
9.10382880192628e-14 820 0
0 0

0101101
*
Ed
 1e-07 1 1 0
1  2 0 0 2100
2  3 1 0 0 2100
2  4 3 0 0 2100
0

0101000
-27 2 +24 2 *
Ve
1e-07
820 0 0
0 0

0101101
*
Ed
 1e-07 1 1 0
1  3 0 0 1.5707963267949
2  5 1 0 0 1.5707963267949
2  6 4 0 0 1.5707963267949
0

0101100
-24 2 +22 2 *
Ed
 1e-07 1 1 0
1  4 0 0 2100
2  7 1 0 0 2100
2  8 5 0 0 2100
0

0101000
-26 2 +22 2 *
Wi

0101000
-25 0 +23 0 +21 0 -20 0 *
Fa
0  1e-07 1 0

0101000
+19 0 *
Ve
1e-07
0 0 2100
0 0

0101101
*
Ed
 1e-07 1 1 0
1  5 0 0 820
2  9 2 0 0 820
2  10 5 0 0 820
0

0101000
+17 2 -26 2 *
Ed
 1e-07 1 1 0
1  6 0 0 820
2  11 2 0 0 820
2  12 3 0 0 820
0

0101000
+17 2 -27 2 *
Wi

0101000
+25 0 +16 0 -15 0 *
Fa
0  1e-07 2 0

0101000
+14 0 *
Ve
1e-07
0 0 0
0 0

0101101
*
Ed
 1e-07 1 1 0
1  7 0 0 820
2  13 4 0 0 820
2  14 3 0 0 820
0

0101000
+12 2 -24 2 *
Ed
 1e-07 1 1 0
1  8 0 0 820
2  15 4 0 0 820
2  16 5 0 0 820
0

0101000
-22 2 +12 2 *
Wi

0101000
-21 0 +11 0 -10 0 *
Fa
0  1e-07 4 0

0101000
-9 0 *
Ed
 1e-07 1 1 0
1  9 0 0 2100
2  17 5 0 0 2100
2  18 3 0 0 2100
0

0101000
-17 2 +12 2 *
Wi

0101000
+10 0 -7 0 -16 0 +20 0 *
Fa
0  1e-07 5 0

0101000
+6 0 *
Wi

0101000
+15 0 +7 0 -11 0 -23 0 *
Fa
0  1e-07 3 0

0101000
-4 0 *
Sh

0101100
+18 0 +13 0 -8 0 +5 0 -3 0 *
So

1100100
+2 0 *

+1 1 