DBRep_DrawableShape

CASCADE Topology V1, (c) Matra-Datavision
Locations 10
1
              1               0              -0               0 
             -0 1.77321265310004e-16              -1               0 
              0               1 1.77321265310004e-16               0 
1
              1               0               0               0 
              0 6.1257422745431e-17              -1               0 
              0               1 6.1257422745431e-17               0 
2  1 1 2 -1 0
2  2 1 1 -1 0
2  1 -1 0
1
              1               0               0               0 
              0               1               0 1.47924207605232e-13 
              0               0               1             920 
2  1 1 2 -1 6 1 0
2  6 -1 2 1 1 -1 0
2  2 -1 0
2  2 -1 6 1 0
Curve2ds 72
1 0 -0 4.4723339615027058e-17 -1 
1 100 0 0 -1 
1 1200 2.0194839173657902e-28 4.4723339615027058e-17 -1 
1 0 2.0194839173657902e-28 0 -1 
1 0 -0 1 0 
1 0 0 -1 0 
1 4.1145472445824893e-14 -920 1 0 
1 0 0 -1 0 
1 100 2.0194839173657902e-28 0 -1 
1 -2.3438906344683073e-44 2.0194839173657902e-28 -4.4723339615027058e-17 -1 
1 0 0 1 0 
1 -1200 0 0 1 
1 0 -920 1 0 
1 -1200 0 0 1 
1 850 1.0097419586828951e-28 -4.4723339615027058e-17 -1 
1 0 1.0097419586828951e-28 0 -1 
1 0 0 1 0 
1 -1200 100 1 0 
1 -1.2059494028382467e-13 -920 1 0 
1 -1200 100 1 0 
1 0 -0 0 -1 
1 250 0 -4.4723339615027058e-17 -1 
1 0 -0 1 0 
1 0 100 0 -1 
1 0 -920 1 0 
1 0 100 0 -1 
1 -1.1719453172341537e-44 1.0097419586828951e-28 -4.4723339615027058e-17 -1 
1 1980 1.0097419586828951e-28 0 -1 
1 0 0 1 0 
1 -250 100 1 0 
1 -3.5329811992612641e-14 -920 1 0 
1 -250 100 1 0 
1 0 1.0097419586828951e-28 0 -1 
1 250 1.0097419586828951e-28 4.4723339615027058e-17 -1 
1 0 -0 1 0 
1 -250 2080 0 -1 
1 0 -920 1 0 
1 -250 2080 0 -1 
1 0 -0 4.4723339615027058e-17 -1 
1 100 0 0 -1 
1 0 -0 1 0 
1 0 2080 -1 0 
1 4.1145472445824893e-14 -920 1 0 
1 0 2080 -1 0 
1 0 -0 0 -1 
1 800 0 -4.4723339615027058e-17 -1 
1 0 -0 1 0 
1 0 2180 0 -1 
1 0 -920 1 0 
1 0 2180 0 -1 
1 2.3438906344683073e-44 -2.0194839173657902e-28 -4.4723339615027058e-17 -1 
1 30 -2.0194839173657902e-28 0 -1 
1 0 0 1 0 
1 -800 2180 1 0 
1 -6.9081025622086424e-15 -920 1 0 
1 -800 2180 1 0 
1 0 -2.0194839173657902e-28 0 -1 
1 450 -2.0194839173657902e-28 4.4723339615027058e-17 -1 
1 0 0 1 0 
1 -800 2150 0 1 
1 0 -920 1 0 
1 -800 2150 0 1 
1 1.1719453172341537e-44 1.0097419586828951e-28 4.4723339615027058e-17 -1 
1 2050 1.0097419586828951e-28 0 -1 
1 0 -0 1 0 
1 -350 2150 -1 0 
1 6.3751521423016655e-14 -920 1 0 
1 -350 2150 -1 0 
1 0 0 1 0 
1 -350 100 0 1 
1 0 -920 1 0 
1 -350 100 0 1 
Curves 36
1 0 0 0 0 1.6078718217960031e-16 1 
1 0 1200 -1.392766110774881e-13 0 1.6078718217960031e-16 1 
1 0 0 0 0 1 0 
1 0 0 0 0 1 0 
1 100 1200 -1.392766110774881e-13 0 1.6078718217960031e-16 1 
1 0 1200 0 1 0 0 
1 0 1200 0 1 0 0 
1 100 350 -4.0622344897600738e-14 0 1.6078718217960031e-16 1 
1 100 1200 0 0 -1 0 
1 100 1200 0 0 -1 0 
1 100 0 0 0 1.6078718217960031e-16 1 
1 100 0 0 -1 0 0 
1 100 0 0 -1 0 0 
1 100 250 -2.9015960641143413e-14 0 1.6078718217960031e-16 1 
1 100 250 0 0 -1 0 
1 100 250 0 0 -1 0 
1 2080 250 -2.9015960641143413e-14 0 1.6078718217960031e-16 1 
1 2080 250 0 -1 0 0 
1 2080 250 0 -1 0 0 
1 2080 0 0 0 1.6078718217960031e-16 1 
1 2080 0 0 0 1 0 
1 2080 0 0 0 1 0 
1 2180 0 0 0 1.6078718217960031e-16 1 
1 2180 0 0 -1 0 0 
1 2180 0 0 -1 0 0 
1 2180 800 -9.2851074051658398e-14 0 1.6078718217960031e-16 1 
1 2180 800 0 0 -1 0 
1 2180 800 0 0 -1 0 
1 2150 800 -9.2851074051658398e-14 0 1.6078718217960031e-16 1 
1 2150 800 0 1 0 0 
1 2150 800 0 1 0 0 
1 2150 350 -4.0622344897600738e-14 0 1.6078718217960031e-16 1 
1 2150 350 0 0 1 0 
1 2150 350 0 0 1 0 
1 100 350 0 1 0 0 
1 100 350 0 1 0 0 
Polygon3D 0
PolygonOnTriangulations 0
Surfaces 14
1 0 0 0 -1 0 0 0 1 -1.1606384256457325e-16 -0 -1.1606384256457325e-16 -1 
1 100 0 0 0 -1 1.6078718217960031e-16 -1 0 0 -0 -1.6078718217960031e-16 -1 
1 0 1200 -1.392766110774879e-13 0 1 -1.6078718217960031e-16 1 0 0 0 -1.6078718217960031e-16 -1 
1 0 0 0 0 -1 1.7732126531000425e-16 0 -1.7732126531000425e-16 -1 1 0 0 
1 0 0 0 0 -1 1.7732126531000425e-16 0 -1.7732126531000425e-16 -1 1 0 0 
1 100 1200 -1.392766110774879e-13 1 0 -0 0 -1 1.1606384256457325e-16 0 -1.1606384256457325e-16 -1 
1 100 350 -4.0622344897600637e-14 0 1 -1.6078718217960031e-16 1 0 0 0 -1.6078718217960031e-16 -1 
1 100 250 -2.9015960641143312e-14 1 0 -0 0 -1 1.1606384256457325e-16 0 -1.1606384256457325e-16 -1 
1 2080 250 -2.9015960641143312e-14 0 -1 1.6078718217960031e-16 -1 0 0 -0 -1.6078718217960031e-16 -1 
1 2080 0 0 -1 0 0 0 1 -1.1606384256457325e-16 -0 -1.1606384256457325e-16 -1 
1 2180 0 0 0 -1 1.6078718217960031e-16 -1 0 0 -0 -1.6078718217960031e-16 -1 
1 2180 800 -9.28510740516586e-14 1 0 -0 0 -1 1.1606384256457325e-16 0 -1.1606384256457325e-16 -1 
1 2150 800 -9.28510740516586e-14 0 1 -1.6078718217960031e-16 1 0 0 0 -1.6078718217960031e-16 -1 
1 2150 350 -4.0622344897600637e-14 -1 0 0 0 1 -1.1606384256457325e-16 -0 -1.1606384256457325e-16 -1 
Triangulations 0

TShapes 90
Ve
1e-07
0 0 0
0 0

0101101
*
Ve
1e-07
0 1.47924207605232e-13 920
0 0

0101101
*
Ed
 1e-07 1 1 0
1  1 0 0 920
2  1 1 0 0 920
2  2 2 0 0 920
0

0101000
+90 0 -89 0 *
Ve
1e-07
0 1200 -1.39276611077488e-13
0 0

0101101
*
Ve
1e-07
0 1200 920
0 0

0101101
*
Ed
 1e-07 1 1 0
1  2 0 0 920
2  3 1 0 0 920
2  4 3 0 0 920
0

0101000
+87 0 -86 0 *
Ed
 1e-07 1 1 0
1  3 0 0 1200
2  5 1 4 0 1200
2  6 4 5 0 1200
0

0101000
+90 4 -87 4 *
Ed
 1e-07 1 1 0
1  4 0 0 1200
2  7 1 8 0 1200
2  8 5 5 0 1200
0

0101000
+89 8 -86 8 *
Wi

0101000
+88 0 -85 0 -84 3 +83 7 *
Fa
0  1e-07 1 0

0101000
+82 0 *
Ve
1e-07
100 1200 -1.39276611077488e-13
0 0

0101101
*
Ve
1e-07
100 1200 920
0 0

0101101
*
Ed
 1e-07 1 1 0
1  5 0 0 920
2  9 3 0 0 920
2  10 6 0 0 920
0

0101000
+80 0 -79 0 *
Ed
 1e-07 1 1 0
1  6 0 0 100
2  11 3 4 0 100
2  12 4 5 0 100
0

0101000
+87 4 -80 4 *
Ed
 1e-07 1 1 0
1  7 0 0 100
2  13 3 8 0 100
2  14 5 5 0 100
0

0101000
+86 8 -79 8 *
Wi

0101000
+85 0 -78 0 -77 3 +76 7 *
Fa
0  1e-07 3 0

0101000
+75 0 *
Ve
1e-07
100 350 -4.06223448976007e-14
0 0

0101101
*
Ve
1e-07
100 350 920
0 0

0101101
*
Ed
 1e-07 1 1 0
1  8 0 0 920
2  15 6 0 0 920
2  16 7 0 0 920
0

0101000
+73 0 -72 0 *
Ed
 1e-07 1 1 0
1  9 0 0 850
2  17 6 4 0 850
2  18 4 5 0 850
0

0101000
+80 4 -73 4 *
Ed
 1e-07 1 1 0
1  10 0 0 850
2  19 6 8 0 850
2  20 5 5 0 850
0

0101000
+79 8 -72 8 *
Wi

0101000
+78 0 -71 0 -70 3 +69 7 *
Fa
0  1e-07 6 0

0101000
+68 0 *
Ve
1e-07
100 0 0
0 0

0101101
*
Ve
1e-07
100 1.47924207605232e-13 920
0 0

0101101
*
Ed
 1e-07 1 1 0
1  11 0 0 920
2  21 2 0 0 920
2  22 8 0 0 920
0

0101000
+66 0 -65 0 *
Ed
 1e-07 1 1 0
1  12 0 0 100
2  23 2 4 0 100
2  24 4 5 0 100
0

0101000
+66 4 -90 4 *
Ed
 1e-07 1 1 0
1  13 0 0 100
2  25 2 8 0 100
2  26 5 5 0 100
0

0101000
+65 8 -89 8 *
Wi

0101000
+64 0 -88 0 -63 3 +62 7 *
Fa
0  1e-07 2 0

0101000
+61 0 *
Ve
1e-07
100 250 -2.90159606411434e-14
0 0

0101101
*
Ve
1e-07
100 250 920
0 0

0101101
*
Ed
 1e-07 1 1 0
1  14 0 0 920
2  27 8 0 0 920
2  28 9 0 0 920
0

0101000
+59 0 -58 0 *
Ed
 1e-07 1 1 0
1  15 0 0 250
2  29 8 4 0 250
2  30 4 5 0 250
0

0101000
+59 4 -66 4 *
Ed
 1e-07 1 1 0
1  16 0 0 250
2  31 8 8 0 250
2  32 5 5 0 250
0

0101000
+58 8 -65 8 *
Wi

0101000
+57 0 -64 0 -56 3 +55 7 *
Fa
0  1e-07 8 0

0101000
+54 0 *
Ve
1e-07
2080 250 -2.90159606411434e-14
0 0

0101101
*
Ve
1e-07
2080 250 920
0 0

0101101
*
Ed
 1e-07 1 1 0
1  17 0 0 920
2  33 9 0 0 920
2  34 10 0 0 920
0

0101000
+52 0 -51 0 *
Ed
 1e-07 1 1 0
1  18 0 0 1980
2  35 9 4 0 1980
2  36 4 5 0 1980
0

0101000
+52 4 -59 4 *
Ed
 1e-07 1 1 0
1  19 0 0 1980
2  37 9 8 0 1980
2  38 5 5 0 1980
0

0101000
+51 8 -58 8 *
Wi

0101000
+50 0 -57 0 -49 3 +48 7 *
Fa
0  1e-07 9 0

0101000
+47 0 *
Ve
1e-07
2080 0 0
0 0

0101101
*
Ve
1e-07
2080 1.47924207605232e-13 920
0 0

0101101
*
Ed
 1e-07 1 1 0
1  20 0 0 920
2  39 10 0 0 920
2  40 11 0 0 920
0

0101000
+45 0 -44 0 *
Ed
 1e-07 1 1 0
1  21 0 0 250
2  41 10 4 0 250
2  42 4 5 0 250
0

0101000
+45 4 -52 4 *
Ed
 1e-07 1 1 0
1  22 0 0 250
2  43 10 8 0 250
2  44 5 5 0 250
0

0101000
+44 8 -51 8 *
Wi

0101000
+43 0 -50 0 -42 3 +41 7 *
Fa
0  1e-07 10 0

0101000
+40 0 *
Ve
1e-07
2180 0 0
0 0

0101101
*
Ve
1e-07
2180 1.47924207605232e-13 920
0 0

0101101
*
Ed
 1e-07 1 1 0
1  23 0 0 920
2  45 11 0 0 920
2  46 12 0 0 920
0

0101000
+38 0 -37 0 *
Ed
 1e-07 1 1 0
1  24 0 0 100
2  47 11 4 0 100
2  48 4 5 0 100
0

0101000
+38 4 -45 4 *
Ed
 1e-07 1 1 0
1  25 0 0 100
2  49 11 8 0 100
2  50 5 5 0 100
0

0101000
+37 8 -44 8 *
Wi

0101000
+36 0 -43 0 -35 3 +34 7 *
Fa
0  1e-07 11 0

0101000
+33 0 *
Ve
1e-07
2180 800 -9.28510740516584e-14
0 0

0101101
*
Ve
1e-07
2180 800 920
0 0

0101101
*
Ed
 1e-07 1 1 0
1  26 0 0 920
2  51 12 0 0 920
2  52 13 0 0 920
0

0101000
+31 0 -30 0 *
Ed
 1e-07 1 1 0
1  27 0 0 800
2  53 12 4 0 800
2  54 4 5 0 800
0

0101000
+31 4 -38 4 *
Ed
 1e-07 1 1 0
1  28 0 0 800
2  55 12 8 0 800
2  56 5 5 0 800
0

0101000
+30 8 -37 8 *
Wi

0101000
+29 0 -36 0 -28 3 +27 7 *
Fa
0  1e-07 12 0

0101000
+26 0 *
Ve
1e-07
2150 800 -9.28510740516584e-14
0 0

0101101
*
Ve
1e-07
2150 800 920
0 0

0101101
*
Ed
 1e-07 1 1 0
1  29 0 0 920
2  57 13 0 0 920
2  58 14 0 0 920
0

0101000
+24 0 -23 0 *
Ed
 1e-07 1 1 0
1  30 0 0 30
2  59 13 4 0 30
2  60 4 5 0 30
0

0101000
+24 4 -31 4 *
Ed
 1e-07 1 1 0
1  31 0 0 30
2  61 13 8 0 30
2  62 5 5 0 30
0

0101000
+23 8 -30 8 *
Wi

0101000
+22 0 -29 0 -21 3 +20 7 *
Fa
0  1e-07 13 0

0101000
+19 0 *
Ve
1e-07
2150 350 -4.06223448976007e-14
0 0

0101101
*
Ve
1e-07
2150 350 920
0 0

0101101
*
Ed
 1e-07 1 1 0
1  32 0 0 920
2  63 14 0 0 920
2  64 7 0 0 920
0

0101000
+17 0 -16 0 *
Ed
 1e-07 1 1 0
1  33 0 0 450
2  65 14 4 0 450
2  66 4 5 0 450
0

0101000
+17 4 -24 4 *
Ed
 1e-07 1 1 0
1  34 0 0 450
2  67 14 8 0 450
2  68 5 5 0 450
0

0101000
+16 8 -23 8 *
Wi

0101000
+15 0 -22 0 -14 3 +13 7 *
Fa
0  1e-07 14 0

0101000
+12 0 *
Ed
 1e-07 1 1 0
1  35 0 0 2050
2  69 7 4 0 2050
2  70 4 5 0 2050
0

0101000
+73 4 -17 4 *
Ed
 1e-07 1 1 0
1  36 0 0 2050
2  71 7 8 0 2050
2  72 5 5 0 2050
0

0101000
+72 8 -16 8 *
Wi

0101000
+71 0 -15 0 -10 3 +9 7 *
Fa
0  1e-07 7 0

0101000
+8 0 *
Wi

0101000
+84 0 +77 0 +70 0 +63 0 +56 0 +49 0 +42 0 +35 0 +28 0 +21 0 
+14 0 +10 0 *
Fa
0  1e-07 4 0

0101000
-6 1 *
Wi

0101000
+83 0 +76 0 +69 0 +62 0 +55 0 +48 0 +41 0 +34 0 +27 0 +20 0 
+13 0 +9 0 *
Fa
0  1e-07 5 0

0101000
-4 1 *
Sh

0101000
-81 0 -74 0 -67 0 -60 0 -53 0 -46 0 -39 0 -32 0 -25 0 -18 0 
-11 0 -7 0 +5 9 -3 10 *
So

1100000
-2 0 *

+1 0 