DBRep_DrawableShape

CASCADE Topology V1, (c) Matra-Datavision
Locations 28
1
              1               0               0               0 
              0               1               0               0 
              0               0               1            2400 
2  1 -1 0
1
              1               0               0              -0 
              0 1.77321265310004e-16              -1            3700 
              0               1 1.77321265310004e-16              -0 
1
              1               0               0               0 
              0               1               0            -100 
              0               0               1 2.16546357564983e-14 
1
              1               0               0              -0 
              0               1               0             200 
              0               0               1 -4.33092715129966e-14 
2  3 1 4 1 5 1 0
2  5 -1 4 -1 3 -1 0
1
              1               0               0              -0 
              0 1.77321265310004e-16              -1            3700 
              0               1 1.77321265310004e-16              -0 
1
              1               0               0               0 
              0               1               0            -100 
              0               0               1 2.16546357564983e-14 
1
              1               0               0              -0 
              0               1               0             200 
              0               0               1 -4.33092715129966e-14 
2  8 1 9 1 10 1 0
2  10 -1 9 -1 8 -1 0
1
              1               0               0              -0 
              0 1.77321265310004e-16              -1            3700 
              0               1 1.77321265310004e-16              -0 
1
              1               0               0               0 
              0               1               0            -100 
              0               0               1 2.16546357564983e-14 
1
              1               0               0              -0 
              0               1               0             200 
              0               0               1 -4.33092715129966e-14 
2  13 1 14 1 15 1 0
2  15 -1 14 -1 13 -1 0
1
              1               0               0              -0 
              0 1.77321265310004e-16              -1            3700 
              0               1 1.77321265310004e-16              -0 
1
              1               0               0               0 
              0               1               0            -100 
              0               0               1 2.16546357564983e-14 
1
              1               0               0              -0 
              0               1               0             200 
              0               0               1 -4.33092715129966e-14 
2  18 1 19 1 20 1 0
2  20 -1 19 -1 18 -1 0
1
              1               0               0               0 
              0               1               0               0 
              0               0               1            2400 
2  23 -1 0
1
              1               0               0               0 
              0               1               0               0 
              0               0               1            2400 
2  25 -1 0
1
              1               0               0               0 
              0               1               0               0 
              0               0               1            2400 
2  27 -1 0
Curve2ds 204
1 0 0 0 -1 
1 0 -0 0 -1 
1 3550 0 0 -1 
1 0 -0 0 -1 
1 0 0 1 0 
1 0 0 0 1 
1 0 -2400 1 0 
1 0 0 0 1 
1 100 0 0 -1 
1 0 0 0 -1 
1 0 -0 1 0 
1 0 0 1 0 
1 0 -2400 1 0 
1 0 0 1 0 
1 0 -0 1 0 
1 0 3550 1 0 
1 200 -2100 0 1 
1 -3.54642530620008e-14 -200 1 0 
1 1020 -2100 -1 -0 
1 0 -200 1 0 
1 1020 2.165463575649829e-14 0 -1 
1 -7.8450184509957792e-15 -200 1 0 
1 0 -0 1 0 
1 0 -1020 -0 1 
1 2500 -2100 0 1 
1 -3.54642530620008e-14 -200 1 0 
1 3320 -2100 -1 -0 
1 0 -200 1 0 
1 3320 2.165463575649829e-14 0 -1 
1 -7.8450184509957792e-15 -200 1 0 
1 0 -0 1 0 
1 0 -3320 -0 1 
1 4800 -2100 0 1 
1 -3.54642530620008e-14 -200 1 0 
1 5620 -2100 -1 -0 
1 0 -200 1 0 
1 5620 2.165463575649829e-14 0 -1 
1 -7.8450184509957792e-15 -200 1 0 
1 0 -0 1 0 
1 0 -5620 -0 1 
1 7100 -2100 0 1 
1 -3.54642530620008e-14 -200 1 0 
1 7920 -2100 -1 -0 
1 0 -200 1 0 
1 7920 2.165463575649829e-14 0 -1 
1 -7.8450184509957792e-15 -200 1 0 
1 0 -0 1 0 
1 0 3550 1 0 
1 9200 0 0 -1 
1 0 0 0 -1 
1 0 -2400 1 0 
1 0 3550 1 0 
1 200 3350 0 1 
1 2100 8.2372693735455711e-14 3.922509225497891e-17 -1 
1 100 3450 1 0 
1 0 -0 1 0 
1 100 0 0 1 
1 0 0 1 0 
1 3450 0 0 -1 
1 0 -0 0 -1 
1 0 -2400 1 0 
1 100 0 0 1 
8 -1050 1050
1 1050 -99.99999999999973 1 -1.77321265310004e-16 
8 -1050 1050
1 100 -1050 -0 1 
1 8.0636375655560188e-29 4.5474735088646412e-13 3.922509225497891e-17 -1 
1 820 4.5474735088646412e-13 0 -1 
8 -460 360
1 460 -99.999999999999545 1 0 
8 -460 360
1 460 -2100 -1 -0 
1 0 4.5474735088646412e-13 0 -1 
1 2100 3.7237465715100842e-13 -3.922509225497891e-17 -1 
8 -1.0827317878249145e-14 2100
1 6.9048086527512555e-15 -100 1 1.77321265310004e-16 
8 -1.0827317878249145e-14 2100
1 920 -1.0827317878249145e-14 0 -1 
1 0 0 -3.922509225497891e-17 -1 
1 200 0 -1 0 
8 -1050 1050
1 1050 -99.99999999999973 1 -1.77321265310004e-16 
8 -1050 1050
1 2400 -1050 -0 1 
1 2100 8.2372693735455711e-14 3.922509225497891e-17 -1 
1 200 1480 -1 0 
1 8.0636375655560188e-29 4.5474735088646412e-13 3.922509225497891e-17 -1 
1 820 4.5474735088646412e-13 0 -1 
8 -1610 -790
1 1610 -99.999999999999545 1 0 
8 -1610 -790
1 1610 -2100 -1 -0 
1 0 4.5474735088646412e-13 0 -1 
1 2100 3.7237465715100842e-13 -3.922509225497891e-17 -1 
8 -1.0827317878249145e-14 2100
1 6.9048086527512555e-15 -100 1 1.77321265310004e-16 
8 -1.0827317878249145e-14 2100
1 3220 -1.0827317878249145e-14 0 -1 
1 0 0 -3.922509225497891e-17 -1 
1 200 0 -1 0 
8 -1050 1050
1 1050 -99.99999999999973 1 -1.77321265310004e-16 
8 -1050 1050
1 4700 -1050 -0 1 
1 2100 8.2372693735455711e-14 3.922509225497891e-17 -1 
1 200 1480 -1 0 
1 8.0636375655560188e-29 4.5474735088646412e-13 3.922509225497891e-17 -1 
1 820 4.5474735088646412e-13 0 -1 
8 -2760 -1940
1 2760 -99.999999999999545 1 0 
8 -2760 -1940
1 2760 -2100 -1 -0 
1 0 4.5474735088646412e-13 0 -1 
1 2100 3.7237465715100842e-13 -3.922509225497891e-17 -1 
8 -1.0827317878249145e-14 2100
1 6.9048086527512555e-15 -100 1 1.77321265310004e-16 
8 -1.0827317878249145e-14 2100
1 5520 -1.0827317878249145e-14 0 -1 
1 0 0 -3.922509225497891e-17 -1 
1 200 0 -1 0 
8 -1050 1050
1 1050 -99.99999999999973 1 -1.77321265310004e-16 
8 -1050 1050
1 7000 -1050 -0 1 
1 2100 8.2372693735455711e-14 3.922509225497891e-17 -1 
1 200 1480 -1 0 
1 8.0636375655560188e-29 4.5474735088646412e-13 3.922509225497891e-17 -1 
1 820 4.5474735088646412e-13 0 -1 
8 -3910 -3090
1 3910 -99.999999999999545 1 0 
8 -3910 -3090
1 3910 -2100 -1 -0 
1 0 4.5474735088646412e-13 0 -1 
1 2100 3.7237465715100842e-13 -3.922509225497891e-17 -1 
8 -1.0827317878249145e-14 2100
1 6.9048086527512555e-15 -100 1 1.77321265310004e-16 
8 -1.0827317878249145e-14 2100
1 7820 -1.0827317878249145e-14 0 -1 
1 0 0 -3.922509225497891e-17 -1 
1 7920 3350 0 1 
1 9200 3550 -0 -1 
1 0 0 1 0 
1 100 3450 1 0 
1 0 -0 1 0 
1 100 0 0 -1 
1 9100 0 0 -1 
1 0 -2400 1 0 
1 9200 3550 -0 -1 
1 0 -0 1 0 
1 100 -920 -0 1 
8 0 2400
1 2200 0 0 -1 
8 0 2400
1 3450 0 0 -1 
1 0 -2400 1 0 
1 100 3450 1 0 
1 0 -2400 1 0 
1 100 3450 1 0 
8 0 2400
1 6900 0 0 -1 
8 0 2400
1 3450 0 0 -1 
1 0 -0 1 0 
1 100 -5520 -0 1 
1 0 -0 1 0 
1 100 -5520 -0 1 
8 0 2400
1 6800 0 0 -1 
8 0 2400
1 3450 0 0 -1 
1 0 -2400 1 0 
1 100 3450 1 0 
8 0 2400
1 4600 0 0 -1 
8 0 2400
1 3450 0 0 -1 
1 0 -0 1 0 
1 100 -3220 -0 1 
1 0 -0 1 0 
1 100 -3220 -0 1 
8 0 2400
1 4500 0 0 -1 
8 0 2400
1 3450 0 0 -1 
1 0 -2400 1 0 
1 100 3450 1 0 
8 0 2400
1 2300 0 0 -1 
8 0 2400
1 3450 0 0 -1 
1 0 -0 1 0 
1 100 -920 -0 1 
1 0 -2400 1 0 
1 2300 0 0 1 
1 0 0 0 -1 
1 0 -0 0 -1 
1 0 0 1 0 
1 3550 1280 -1 0 
1 0 -2400 1 0 
1 7000 0 0 1 
1 0 0 0 -1 
1 100 0 0 -1 
1 0 0 1 0 
1 3550 1380 -1 0 
1 0 -2400 1 0 
1 6900 0 0 1 
1 0 0 0 -1 
1 0 -0 0 -1 
1 0 0 1 0 
1 3550 1280 -1 0 
1 0 -2400 1 0 
1 4700 0 0 1 
1 0 0 0 -1 
1 100 0 0 -1 
1 0 0 1 0 
1 3550 1380 -1 0 
1 0 -2400 1 0 
1 4600 0 0 1 
1 0 0 0 -1 
1 0 -0 0 -1 
1 0 0 1 0 
1 3550 1280 -1 0 
1 0 -2400 1 0 
1 2400 0 0 1 
1 0 0 0 -1 
1 100 0 0 -1 
1 0 0 1 0 
1 3550 1380 -1 0 
1 0 -0 1 0 
1 3550 1280 -0 1 
1 0 -2400 1 0 
1 2300 0 1 0 
1 0 -0 1 0 
1 3550 1280 -0 1 
1 0 -2400 1 0 
1 6900 0 1 0 
1 0 -0 1 0 
1 3550 1280 -0 1 
1 0 -2400 1 0 
1 4600 0 1 0 
Curves 102
1 13150 250 0 0 0 1 
1 13150 3800 0 0 0 1 
1 13150 250 0 0 1 0 
1 13150 250 0 0 1 0 
1 13050 250 0 0 0 1 
1 13150 250 0 -1 0 0 
1 13150 250 0 -1 0 0 
1 13150 3800 0 -1 0 0 
1 12950 2100 0 0 -1 0 
1 12130 2100 0 1 0 0 
1 12130 0 0 0 1 0 
1 13150 3800 0 -1 0 0 
1 10650 2100 0 0 -1 0 
1 9830 2100 0 1 0 0 
1 9830 0 0 0 1 0 
1 13150 3800 0 -1 0 0 
1 8350 2100 0 0 -1 0 
1 7530 2100 0 1 0 0 
1 7530 0 0 0 1 0 
1 13150 3800 0 -1 0 0 
1 6050 2100 0 0 -1 0 
1 5230 2100 0 1 0 0 
1 5230 0 0 0 1 0 
1 13150 3800 0 -1 0 0 
1 3950 3800 0 0 0 1 
1 13150 3800 0 -1 0 0 
1 12950 3600 2.165463575649829e-14 -0 1 -2.1654635756498291e-16 
1 13050 3700 0 -1 0 0 
1 13050 250 0 0 1 0 
1 13050 3700 0 0 0 1 
1 13050 250 0 0 1 0 
1 12950 3700 1050 0 -0 -1 
1 12950 3600 2100 -0 1 -2.1654635756498291e-16 
1 12590 3700 2100 1 0 0 
1 12130 3600 2100 -0 1 -2.1654635756498291e-16 
1 12130 3700 1.0827317878249145e-14 0 0 1 
1 12130 3600 2.165463575649829e-14 -0 1 -2.1654635756498291e-16 
1 10650 3700 1050 0 -0 -1 
1 10650 3600 2.165463575649829e-14 -0 1 -2.1654635756498291e-16 
1 10650 3600 2100 -0 1 -2.1654635756498291e-16 
1 11440 3700 2100 1 0 0 
1 9830 3600 2100 -0 1 -2.1654635756498291e-16 
1 9830 3700 1.0827317878249145e-14 0 0 1 
1 9830 3600 2.165463575649829e-14 -0 1 -2.1654635756498291e-16 
1 8350 3700 1050 0 -0 -1 
1 8350 3600 2.165463575649829e-14 -0 1 -2.1654635756498291e-16 
1 8350 3600 2100 -0 1 -2.1654635756498291e-16 
1 10290 3700 2100 1 0 0 
1 7530 3600 2100 -0 1 -2.1654635756498291e-16 
1 7530 3700 1.0827317878249145e-14 0 0 1 
1 7530 3600 2.165463575649829e-14 -0 1 -2.1654635756498291e-16 
1 6050 3700 1050 0 -0 -1 
1 6050 3600 2.165463575649829e-14 -0 1 -2.1654635756498291e-16 
1 6050 3600 2100 -0 1 -2.1654635756498291e-16 
1 9140 3700 2100 1 0 0 
1 5230 3600 2100 -0 1 -2.1654635756498291e-16 
1 5230 3700 1.0827317878249145e-14 0 0 1 
1 5230 3600 2.165463575649829e-14 -0 1 -2.1654635756498291e-16 
1 3950 3800 0 0 -1 0 
1 13050 3700 0 -1 0 0 
1 3950 3700 0 0 0 1 
1 3950 3800 0 0 -1 0 
1 13050 3700 0 -1 0 0 
1 10850 3700 0 0 0 1 
1 13050 3700 0 -1 0 0 
1 13050 3700 0 -1 0 0 
1 6150 3700 0 0 0 1 
1 13050 3700 0 -1 0 0 
1 13050 3700 0 -1 0 0 
1 6250 3700 0 0 0 1 
1 13050 3700 0 -1 0 0 
1 8450 3700 0 0 0 1 
1 13050 3700 0 -1 0 0 
1 13050 3700 0 -1 0 0 
1 8550 3700 0 0 0 1 
1 13050 3700 0 -1 0 0 
1 10750 3700 0 0 0 1 
1 13050 3700 0 -1 0 0 
1 10850 250 0 0 1 0 
1 10850 250 0 0 0 1 
1 10850 250 0 0 1 0 
1 6150 250 0 0 1 0 
1 6150 250 0 0 0 1 
1 6150 250 0 0 1 0 
1 6250 250 0 0 1 0 
1 6250 250 0 0 0 1 
1 6250 250 0 0 1 0 
1 8450 250 0 0 1 0 
1 8450 250 0 0 0 1 
1 8450 250 0 0 1 0 
1 8550 250 0 0 1 0 
1 8550 250 0 0 0 1 
1 8550 250 0 0 1 0 
1 10750 250 0 0 1 0 
1 10750 250 0 0 0 1 
1 10750 250 0 0 1 0 
1 10850 250 0 -1 0 0 
1 10850 250 0 -1 0 0 
1 6250 250 0 -1 0 0 
1 6250 250 0 -1 0 0 
1 8550 250 0 -1 0 0 
1 8550 250 0 -1 0 0 
Polygon3D 0
PolygonOnTriangulations 0
Surfaces 36
1 13150 250 0 -1 0 0 0 1 0 0 0 -1 
1 13150 250 0 0 -1 0 -1 0 0 -0 -0 -1 
1 13150 3800 0 0 -1 0 -1 0 0 -0 -0 -1 
1 13150 250 0 0 0 -1 -1 0 -0 0 1 0 
1 13150 250 2400 0 0 -1 -1 0 -0 0 1 0 
1 13050 250 0 -1 0 0 0 1 0 0 0 -1 
1 12950 3600.0000000000005 2100 -1 -0 0 0 -1.77321265310004e-16 -1 0 -1 1.77321265310004e-16 
1 12130 3600.0000000000005 2100 0 -2.1654635756498291e-16 -1 1 0 0 0 -1 2.1654635756498291e-16 
1 12130 3600 2.165463575649829e-14 1 0 -0 0 1.77321265310004e-16 1 0 -1 1.77321265310004e-16 
1 12130 3800 0 0 1.1832913578315177e-32 -1 0 -1 -1.1832913578315177e-32 -1 0 -0 
1 10650 3600.0000000000005 2100 -1 -0 0 0 -1.77321265310004e-16 -1 0 -1 1.77321265310004e-16 
1 9830 3600.0000000000005 2100 0 -2.1654635756498291e-16 -1 1 0 0 0 -1 2.1654635756498291e-16 
1 9830 3600 2.165463575649829e-14 1 0 -0 0 1.77321265310004e-16 1 0 -1 1.77321265310004e-16 
1 9830 3800 0 0 1.1832913578315177e-32 -1 0 -1 -1.1832913578315177e-32 -1 0 -0 
1 8350 3600.0000000000005 2100 -1 -0 0 0 -1.77321265310004e-16 -1 0 -1 1.77321265310004e-16 
1 7530 3600.0000000000005 2100 0 -2.1654635756498291e-16 -1 1 0 0 0 -1 2.1654635756498291e-16 
1 7530 3600 2.165463575649829e-14 1 0 -0 0 1.77321265310004e-16 1 0 -1 1.77321265310004e-16 
1 7530 3800 0 0 1.1832913578315177e-32 -1 0 -1 -1.1832913578315177e-32 -1 0 -0 
1 6050 3600.0000000000005 2100 -1 -0 0 0 -1.77321265310004e-16 -1 0 -1 1.77321265310004e-16 
1 5230 3600.0000000000005 2100 0 -2.1654635756498291e-16 -1 1 0 0 0 -1 2.1654635756498291e-16 
1 5230 3600 2.165463575649829e-14 1 0 -0 0 1.77321265310004e-16 1 0 -1 1.77321265310004e-16 
1 13150 250 0 0 0 -1 -1 0 -0 0 1 0 
1 3950 3800 0 1 0 -0 0 -1 0 0 -0 -1 
1 13050 3700 0 0 -1 0 -1 0 0 -0 -0 -1 
1 13050 3700 0 0 -1 0 -1 0 0 -0 -0 -1 
1 13050 3700 0 0 -1 0 -1 0 0 -0 -0 -1 
1 13050 3700 0 0 -1 0 -1 0 0 -0 -0 -1 
1 10850 250 0 -1 0 0 0 1 0 0 0 -1 
1 6150 250 0 -1 0 0 0 1 0 0 0 -1 
1 6250 250 0 -1 0 0 0 1 0 0 0 -1 
1 8450 250 0 -1 0 0 0 1 0 0 0 -1 
1 8550 250 0 -1 0 0 0 1 0 0 0 -1 
1 10750 250 0 -1 0 0 0 1 0 0 0 -1 
1 10850 250 0 0 -1 0 -1 0 0 -0 -0 -1 
1 6250 250 0 0 -1 0 -1 0 0 -0 -0 -1 
1 8550 250 0 0 -1 0 -1 0 0 -0 -0 -1 
Triangulations 0

TShapes 245
Ve
1.00005e-07
13150 250 0
0 0

0101101
*
Ve
1.00005e-07
13150 250 2400
0 0

0101101
*
Ed
 1.00005e-07 1 1 0
1  1 0 0 2400
2  1 1 0 0 2400
2  2 2 0 0 2400
0

0101000
+245 0 -244 0 *
Ve
1.00005e-07
13150 3800 0
0 0

0101101
*
Ve
1.00005e-07
13150 3800 2400
0 0

0101101
*
Ed
 1.00005e-07 1 1 0
1  2 0 0 2400
2  3 1 0 0 2400
2  4 3 0 0 2400
0

0101000
+242 0 -241 0 *
Ed
 1.00005e-07 1 1 0
1  3 0 0 3550
2  5 1 0 0 3550
2  6 4 0 0 3550
0

0101000
+245 0 -242 0 *
Ed
 1.00005e-07 1 1 0
1  4 0 0 3550
2  7 1 2 0 3550
2  8 5 2 0 3550
0

0101000
+244 2 -241 2 *
Wi

0101000
+243 0 -240 0 -239 0 +238 1 *
Fa
0  1.00005e-07 1 0

0101000
+237 0 *
Ve
1.00005e-07
13050 250 0
0 0

0101101
*
Ve
1.00005e-07
13050 250 2400
0 0

0101101
*
Ed
 1.00005e-07 1 1 0
1  5 0 0 2400
2  9 2 0 0 2400
2  10 6 0 0 2400
0

0101000
+235 0 -234 0 *
Ed
 1.00005e-07 1 1 0
1  6 0 0 100
2  11 2 0 0 100
2  12 4 0 0 100
0

0101000
+245 0 -235 0 *
Ed
 1.00005e-07 1 1 0
1  7 0 0 100
2  13 2 2 0 100
2  14 5 2 0 100
0

0101000
+244 2 -234 2 *
Wi

0101000
+243 0 -233 0 -232 0 +231 1 *
Fa
0  1.00005e-07 2 0

0101000
+230 0 *
Ve
1e-07
12950 3800 -2.16546357564983e-14
0 0

0101101
*
Ed
 1.00005e-07 1 1 0
1  8 0 0 200
2  15 3 0 0 200
2  16 4 0 0 200
0

0101000
+242 0 -228 0 *
Ve
1e-07
12950 3800 2100
0 0

0101101
*
Ed
 1e-07 1 1 0
1  9 0 0 2100
2  17 3 7 0 2100
2  18 7 7 0 2100
0

0101000
+226 7 -228 7 *
Ve
1e-07
12130 3800 2100
0 0

0101101
*
Ed
 1e-07 1 1 0
1  10 0 0 820
2  19 3 7 0 820
2  20 8 7 0 820
0

0101000
+224 7 -226 7 *
Ve
1.00005e-07
12130 3800 -2.16546357564983e-14
0 0

0101101
*
Ed
 1e-07 1 1 0
1  11 0 0 2100
2  21 3 7 0 2100
2  22 9 7 0 2100
0

0101000
+222 7 -224 7 *
Ve
1.00005e-07
10650 3800 -2.16546357564983e-14
0 0

0101101
*
Ed
 1.00005e-07 1 1 0
1  12 0 1020 2500
2  23 3 0 1020 2500
2  24 10 0 1020 2500
0

0101000
+222 0 -220 0 *
Ve
1e-07
10650 3800 2100
0 0

0101101
*
Ed
 1e-07 1 1 0
1  13 0 0 2100
2  25 3 12 0 2100
2  26 11 12 0 2100
0

0101000
+218 12 -220 12 *
Ve
1e-07
9830 3800 2100
0 0

0101101
*
Ed
 1e-07 1 1 0
1  14 0 0 820
2  27 3 12 0 820
2  28 12 12 0 820
0

0101000
+216 12 -218 12 *
Ve
1.00005e-07
9830 3800 -2.16546357564983e-14
0 0

0101101
*
Ed
 1e-07 1 1 0
1  15 0 0 2100
2  29 3 12 0 2100
2  30 13 12 0 2100
0

0101000
+214 12 -216 12 *
Ve
1.00005e-07
8350 3800 -2.16546357564983e-14
0 0

0101101
*
Ed
 1.00005e-07 1 1 0
1  16 0 3320 4800
2  31 3 0 3320 4800
2  32 14 0 3320 4800
0

0101000
+214 0 -212 0 *
Ve
1e-07
8350 3800 2100
0 0

0101101
*
Ed
 1e-07 1 1 0
1  17 0 0 2100
2  33 3 17 0 2100
2  34 15 17 0 2100
0

0101000
+210 17 -212 17 *
Ve
1e-07
7530 3800 2100
0 0

0101101
*
Ed
 1e-07 1 1 0
1  18 0 0 820
2  35 3 17 0 820
2  36 16 17 0 820
0

0101000
+208 17 -210 17 *
Ve
1.00005e-07
7530 3800 -2.16546357564983e-14
0 0

0101101
*
Ed
 1e-07 1 1 0
1  19 0 0 2100
2  37 3 17 0 2100
2  38 17 17 0 2100
0

0101000
+206 17 -208 17 *
Ve
1.00005e-07
6050 3800 -2.16546357564983e-14
0 0

0101101
*
Ed
 1.00005e-07 1 1 0
1  20 0 5620 7100
2  39 3 0 5620 7100
2  40 18 0 5620 7100
0

0101000
+206 0 -204 0 *
Ve
1e-07
6050 3800 2100
0 0

0101101
*
Ed
 1e-07 1 1 0
1  21 0 0 2100
2  41 3 22 0 2100
2  42 19 22 0 2100
0

0101000
+202 22 -204 22 *
Ve
1e-07
5230 3800 2100
0 0

0101101
*
Ed
 1e-07 1 1 0
1  22 0 0 820
2  43 3 22 0 820
2  44 20 22 0 820
0

0101000
+200 22 -202 22 *
Ve
1e-07
5230 3800 -2.16546357564983e-14
0 0

0101101
*
Ed
 1e-07 1 1 0
1  23 0 0 2100
2  45 3 22 0 2100
2  46 21 22 0 2100
0

0101000
+198 22 -200 22 *
Ve
1.00005e-07
3950 3800 0
0 0

0101101
*
Ed
 1.00005e-07 1 1 0
1  24 0 7920 9200
2  47 3 0 7920 9200
2  48 22 0 7920 9200
0

0101000
+198 0 -196 0 *
Ve
1.00005e-07
3950 3800 2400
0 0

0101101
*
Ed
 1.00005e-07 1 1 0
1  25 0 0 2400
2  49 3 0 0 2400
2  50 23 0 0 2400
0

0101000
+196 0 -194 0 *
Ed
 1.00005e-07 1 1 0
1  26 0 0 9200
2  51 3 2 0 9200
2  52 5 2 0 9200
0

0101000
+241 2 -194 2 *
Wi

0101000
-227 0 +225 6 +223 6 +221 6 -219 0 +217 11 +215 11 +213 11 -211 0 +209 16 
+207 16 +205 16 -203 0 +201 21 +199 21 +197 21 -195 0 -193 0 +192 1 +240 0 
*
Fa
0  1.00005e-07 3 0

0101000
+191 0 *
Ve
1.00005e-07
12950 3700 -5.91645678915759e-31
0 0

0101101
*
Ed
 1e-07 1 1 0
1  27 0 100 200
2  53 4 0 100 200
2  54 7 0 100 200
0

0101000
+189 0 -228 0 *
Ve
1.00005e-07
13050 3700 0
0 0

0101101
*
Ed
 1.00005e-07 1 1 0
1  28 0 0 100
2  55 4 0 0 100
2  56 24 0 0 100
0

0101000
+187 0 -189 0 *
Ed
 1.00005e-07 1 1 0
1  29 0 0 3450
2  57 4 0 0 3450
2  58 6 0 0 3450
0

0101000
+235 0 -187 0 *
Wi

0101000
-239 0 -227 0 +188 0 +186 0 +185 0 +232 0 *
Fa
0  1e-07 4 0

0101000
+184 0 *
Ve
1.00005e-07
13050 3700 2400
0 0

0101101
*
Ed
 1.00005e-07 1 1 0
1  30 0 0 2400
2  59 6 0 0 2400
2  60 24 0 0 2400
0

0101000
+187 0 -182 0 *
Ed
 1.00005e-07 1 1 0
1  31 0 0 3450
2  61 6 2 0 3450
2  62 5 2 0 3450
0

0101000
+234 2 -182 2 *
Wi

0101000
+233 0 -181 0 -185 0 +180 1 *
Fa
0  1.00005e-07 6 0

0101000
+179 0 *
Ve
2.00006e-07
12950 3700 2100
0 0

0101101
*
Ed
 1.00005e-07 1 1 0
1  32 0 -1050 1050
2  63 7 0 -1050 1050
2  64 24 0 -1050 1050
0

0101000
+177 0 -189 0 *
Ed
 1e-07 1 1 0
1  33 0 99.9999999999999 200
2  65 7 0 99.9999999999999 200
2  66 8 0 99.9999999999999 200
0

0101000
+177 0 -226 0 *
Wi

0101000
-176 0 -188 0 +225 6 +175 0 *
Fa
0  1e-07 7 0

0101000
+174 0 *
Ve
2.00006e-07
12130 3700 2100
0 0

0101101
*
Ed
 1.00005e-07 1 1 0
1  34 0 -460 360
2  67 8 0 -460 360
2  68 24 0 -460 360
0

0101000
+172 0 -177 0 *
Ed
 1e-07 1 1 0
1  35 0 99.9999999999999 200
2  69 8 0 99.9999999999999 200
2  70 9 0 99.9999999999999 200
0

0101000
+172 0 -224 0 *
Wi

0101000
-171 0 -175 0 +223 6 +170 0 *
Fa
0  1e-07 8 0

0101000
+169 0 *
Ve
1.00005e-07
12130 3700 -5.91645678915759e-31
0 0

0101101
*
Ed
 1.00005e-07 1 1 0
1  36 0 -1.08273178782491e-14 2100
2  71 9 0 -1.08273178782491e-14 2100
2  72 24 0 -1.08273178782491e-14 2100
0

0101000
+167 0 -172 0 *
Ed
 1.00005e-07 1 1 0
1  37 0 100 200
2  73 9 0 100 200
2  74 10 0 100 200
0

0101000
+167 0 -222 0 *
Wi

0101000
-166 0 -170 0 +221 6 +165 0 *
Fa
0  1e-07 9 0

0101000
+164 0 *
Ve
2.00006e-07
10650 3700 2100
0 0

0101101
*
Ve
1.00005e-07
10650 3700 -5.91645678915759e-31
0 0

0101101
*
Ed
 1.00005e-07 1 1 0
1  38 0 -1050 1050
2  75 11 0 -1050 1050
2  76 25 0 -1050 1050
0

0101000
+162 0 -161 0 *
Ed
 1.00005e-07 1 1 0
1  39 0 100 200
2  77 11 0 100 200
2  78 10 0 100 200
0

0101000
+161 0 -220 0 *
Ed
 1e-07 1 1 0
1  40 0 99.9999999999999 200
2  79 11 0 99.9999999999999 200
2  80 12 0 99.9999999999999 200
0

0101000
+162 0 -218 0 *
Wi

0101000
-160 0 -159 0 +217 11 +158 0 *
Fa
0  1e-07 11 0

0101000
+157 0 *
Ve
2.00006e-07
9830 3700 2100
0 0

0101101
*
Ed
 1.00005e-07 1 1 0
1  41 0 -1610 -790
2  81 12 0 -1610 -790
2  82 25 0 -1610 -790
0

0101000
+155 0 -162 0 *
Ed
 1e-07 1 1 0
1  42 0 99.9999999999999 200
2  83 12 0 99.9999999999999 200
2  84 13 0 99.9999999999999 200
0

0101000
+155 0 -216 0 *
Wi

0101000
-154 0 -158 0 +215 11 +153 0 *
Fa
0  1e-07 12 0

0101000
+152 0 *
Ve
1.00005e-07
9830 3700 -5.91645678915759e-31
0 0

0101101
*
Ed
 1.00005e-07 1 1 0
1  43 0 -1.08273178782491e-14 2100
2  85 13 0 -1.08273178782491e-14 2100
2  86 25 0 -1.08273178782491e-14 2100
0

0101000
+150 0 -155 0 *
Ed
 1.00005e-07 1 1 0
1  44 0 100 200
2  87 13 0 100 200
2  88 14 0 100 200
0

0101000
+150 0 -214 0 *
Wi

0101000
-149 0 -153 0 +213 11 +148 0 *
Fa
0  1e-07 13 0

0101000
+147 0 *
Ve
2.00006e-07
8350 3700 2100
0 0

0101101
*
Ve
1.00005e-07
8350 3700 -5.91645678915759e-31
0 0

0101101
*
Ed
 1.00005e-07 1 1 0
1  45 0 -1050 1050
2  89 15 0 -1050 1050
2  90 26 0 -1050 1050
0

0101000
+145 0 -144 0 *
Ed
 1.00005e-07 1 1 0
1  46 0 100 200
2  91 15 0 100 200
2  92 14 0 100 200
0

0101000
+144 0 -212 0 *
Ed
 1e-07 1 1 0
1  47 0 99.9999999999999 200
2  93 15 0 99.9999999999999 200
2  94 16 0 99.9999999999999 200
0

0101000
+145 0 -210 0 *
Wi

0101000
-143 0 -142 0 +209 16 +141 0 *
Fa
0  1e-07 15 0

0101000
+140 0 *
Ve
2.00006e-07
7530 3700 2100
0 0

0101101
*
Ed
 1.00005e-07 1 1 0
1  48 0 -2760 -1940
2  95 16 0 -2760 -1940
2  96 26 0 -2760 -1940
0

0101000
+138 0 -145 0 *
Ed
 1e-07 1 1 0
1  49 0 99.9999999999999 200
2  97 16 0 99.9999999999999 200
2  98 17 0 99.9999999999999 200
0

0101000
+138 0 -208 0 *
Wi

0101000
-137 0 -141 0 +207 16 +136 0 *
Fa
0  1e-07 16 0

0101000
+135 0 *
Ve
1.00005e-07
7530 3700 -5.91645678915759e-31
0 0

0101101
*
Ed
 1.00005e-07 1 1 0
1  50 0 -1.08273178782491e-14 2100
2  99 17 0 -1.08273178782491e-14 2100
2  100 26 0 -1.08273178782491e-14 2100
0

0101000
+133 0 -138 0 *
Ed
 1.00005e-07 1 1 0
1  51 0 100 200
2  101 17 0 100 200
2  102 18 0 100 200
0

0101000
+133 0 -206 0 *
Wi

0101000
-132 0 -136 0 +205 16 +131 0 *
Fa
0  1e-07 17 0

0101000
+130 0 *
Ve
2.00006e-07
6050 3700 2100
0 0

0101101
*
Ve
1.00005e-07
6050 3700 -5.91645678915759e-31
0 0

0101101
*
Ed
 1.00005e-07 1 1 0
1  52 0 -1050 1050
2  103 19 0 -1050 1050
2  104 27 0 -1050 1050
0

0101000
+128 0 -127 0 *
Ed
 1.00005e-07 1 1 0
1  53 0 100 200
2  105 19 0 100 200
2  106 18 0 100 200
0

0101000
+127 0 -204 0 *
Ed
 1e-07 1 1 0
1  54 0 99.9999999999999 200
2  107 19 0 99.9999999999999 200
2  108 20 0 99.9999999999999 200
0

0101000
+128 0 -202 0 *
Wi

0101000
-126 0 -125 0 +201 21 +124 0 *
Fa
0  1e-07 19 0

0101000
+123 0 *
Ve
2.00006e-07
5230 3700 2100
0 0

0101101
*
Ed
 1.00005e-07 1 1 0
1  55 0 -3910 -3090
2  109 20 0 -3910 -3090
2  110 27 0 -3910 -3090
0

0101000
+121 0 -128 0 *
Ed
 1e-07 1 1 0
1  56 0 99.9999999999999 200
2  111 20 0 99.9999999999999 200
2  112 21 0 99.9999999999999 200
0

0101000
+121 0 -200 0 *
Wi

0101000
-120 0 -124 0 +199 21 +119 0 *
Fa
0  1e-07 20 0

0101000
+118 0 *
Ve
1.00005e-07
5230 3700 -5.91645678915759e-31
0 0

0101101
*
Ed
 1.00005e-07 1 1 0
1  57 0 -1.08273178782491e-14 2100
2  113 21 0 -1.08273178782491e-14 2100
2  114 27 0 -1.08273178782491e-14 2100
0

0101000
+116 0 -121 0 *
Ed
 1e-07 1 1 0
1  58 0 100 200
2  115 21 0 100 200
2  116 22 0 100 200
0

0101000
+116 0 -198 0 *
Wi

0101000
-115 0 -119 0 +197 21 +114 0 *
Fa
0  1e-07 21 0

0101000
+113 0 *
Ve
1.00005e-07
3950 3700 0
0 0

0101101
*
Ed
 1.00005e-07 1 1 0
1  59 0 0 100
2  117 22 0 0 100
2  118 23 0 0 100
0

0101000
+196 0 -111 0 *
Ed
 1.00005e-07 1 1 0
1  60 0 7820 9100
2  119 22 0 7820 9100
2  120 27 0 7820 9100
0

0101000
+116 0 -111 0 *
Wi

0101000
-195 0 -110 0 +109 0 -114 0 *
Fa
0  1e-07 22 0

0101000
+108 0 *
Ve
1.00005e-07
3950 3700 2400
0 0

0101101
*
Ed
 1.00005e-07 1 1 0
1  61 0 0 2400
2  121 23 0 0 2400
2  122 27 0 0 2400
0

0101000
+111 0 -106 0 *
Ed
 1.00005e-07 1 1 0
1  62 0 0 100
2  123 23 2 0 100
2  124 5 2 0 100
0

0101000
+194 2 -106 2 *
Wi

0101000
+193 0 -105 0 -110 0 +104 1 *
Fa
0  1.00005e-07 23 0

0101000
+103 0 *
Ve
1.00005e-07
10850 3700 0
0 0

0101101
*
Ed
 1.00005e-07 1 1 0
1  63 0 920 2200
2  125 24 0 920 2200
2  126 10 0 920 2200
0

0101000
+167 0 -101 0 *
Ve
1.00005e-07
10850 3700 2400
0 0

0101101
*
Ed
 1.00005e-07 1 1 0
1  64 0 0 2400
2  127 24 0 0 2400
2  128 28 0 0 2400
0

0101000
+101 0 -99 0 *
Ed
 1.00005e-07 1 1 0
1  65 0 0 2200
2  129 24 2 0 2200
2  130 5 2 0 2200
0

0101000
+182 2 -99 2 *
Wi

0101000
+166 0 -100 0 -98 0 +97 1 +181 0 -186 0 +176 0 +171 0 *
Fa
0  1.00005e-07 24 0

0101000
+96 0 *
Ve
1.00005e-07
6150 3700 2400
0 0

0101101
*
Ed
 1.00005e-07 1 1 0
1  66 0 6900 9100
2  131 27 2 6900 9100
2  132 5 2 6900 9100
0

0101000
+94 2 -106 2 *
Ve
1.00005e-07
6150 3700 0
0 0

0101101
*
Ed
 1.00005e-07 1 1 0
1  67 0 0 2400
2  133 27 0 0 2400
2  134 29 0 0 2400
0

0101000
+92 0 -94 0 *
Ed
 1.00005e-07 1 1 0
1  68 0 6900 7000
2  135 27 0 6900 7000
2  136 18 0 6900 7000
0

0101000
+92 0 -127 0 *
Wi

0101000
+115 0 -109 0 -105 0 +93 1 +91 0 -90 0 +126 0 +120 0 *
Fa
0  1.00005e-07 27 0

0101000
+89 0 *
Ve
1.00005e-07
6250 3700 0
0 0

0101101
*
Ed
 1.00005e-07 1 1 0
1  69 0 5520 6800
2  137 26 0 5520 6800
2  138 18 0 5520 6800
0

0101000
+133 0 -87 0 *
Ve
1.00005e-07
6250 3700 2400
0 0

0101101
*
Ed
 1.00005e-07 1 1 0
1  70 0 0 2400
2  139 26 0 0 2400
2  140 30 0 0 2400
0

0101000
+87 0 -85 0 *
Ve
1.00005e-07
8450 3700 2400
0 0

0101101
*
Ed
 1.00005e-07 1 1 0
1  71 0 4600 6800
2  141 26 2 4600 6800
2  142 5 2 4600 6800
0

0101000
+83 2 -85 2 *
Ve
1.00005e-07
8450 3700 0
0 0

0101101
*
Ed
 1.00005e-07 1 1 0
1  72 0 0 2400
2  143 26 0 0 2400
2  144 31 0 0 2400
0

0101000
+81 0 -83 0 *
Ed
 1.00005e-07 1 1 0
1  73 0 4600 4700
2  145 26 0 4600 4700
2  146 14 0 4600 4700
0

0101000
+81 0 -144 0 *
Wi

0101000
+132 0 -86 0 -84 0 +82 1 +80 0 -79 0 +143 0 +137 0 *
Fa
0  1.00005e-07 26 0

0101000
+78 0 *
Ve
1.00005e-07
8550 3700 0
0 0

0101101
*
Ed
 1.00005e-07 1 1 0
1  74 0 3220 4500
2  147 25 0 3220 4500
2  148 14 0 3220 4500
0

0101000
+150 0 -76 0 *
Ve
1.00005e-07
8550 3700 2400
0 0

0101101
*
Ed
 1.00005e-07 1 1 0
1  75 0 0 2400
2  149 25 0 0 2400
2  150 32 0 0 2400
0

0101000
+76 0 -74 0 *
Ve
1.00005e-07
10750 3700 2400
0 0

0101101
*
Ed
 1.00005e-07 1 1 0
1  76 0 2300 4500
2  151 25 2 2300 4500
2  152 5 2 2300 4500
0

0101000
+72 2 -74 2 *
Ve
1.00005e-07
10750 3700 0
0 0

0101101
*
Ed
 1.00005e-07 1 1 0
1  77 0 0 2400
2  153 25 0 0 2400
2  154 33 0 0 2400
0

0101000
+70 0 -72 0 *
Ed
 1.00005e-07 1 1 0
1  78 0 2300 2400
2  155 25 0 2300 2400
2  156 10 0 2300 2400
0

0101000
+70 0 -161 0 *
Wi

0101000
+149 0 -75 0 -73 0 +71 1 +69 0 -68 0 +160 0 +154 0 *
Fa
0  1.00005e-07 25 0

0101000
+67 0 *
Ve
1.00005e-07
10850 250 2400
0 0

0101101
*
Ed
 1.00005e-07 1 1 0
1  79 0 0 3450
2  157 28 24 0 3450
2  158 5 24 0 3450
0

0101000
+65 24 -99 24 *
Ve
1.00005e-07
10850 250 0
0 0

0101101
*
Ed
 1.00005e-07 1 1 0
1  80 0 0 2400
2  159 28 0 0 2400
2  160 34 0 0 2400
0

0101000
+63 0 -65 0 *
Ed
 1.00005e-07 1 1 0
1  81 0 0 3450
2  161 28 0 0 3450
2  162 10 0 0 3450
0

0101000
+63 0 -101 0 *
Wi

0101000
-98 0 +64 23 +62 0 -61 0 *
Fa
0  1.00005e-07 28 0

0101000
+60 0 *
Ve
1.00005e-07
6150 250 2400
0 0

0101101
*
Ed
 1.00005e-07 1 1 0
1  82 0 0 3450
2  163 29 26 0 3450
2  164 5 26 0 3450
0

0101000
+58 26 -94 26 *
Ve
1.00005e-07
6150 250 0
0 0

0101101
*
Ed
 1.00005e-07 1 1 0
1  83 0 0 2400
2  165 29 0 0 2400
2  166 35 0 0 2400
0

0101000
+56 0 -58 0 *
Ed
 1.00005e-07 1 1 0
1  84 0 0 3450
2  167 29 0 0 3450
2  168 18 0 0 3450
0

0101000
+56 0 -92 0 *
Wi

0101000
-91 0 +57 25 +55 0 -54 0 *
Fa
0  1.00005e-07 29 0

0101000
+53 0 *
Ve
1.00005e-07
6250 250 2400
0 0

0101101
*
Ed
 1.00005e-07 1 1 0
1  85 0 0 3450
2  169 30 26 0 3450
2  170 5 26 0 3450
0

0101000
+51 26 -85 26 *
Ve
1.00005e-07
6250 250 0
0 0

0101101
*
Ed
 1.00005e-07 1 1 0
1  86 0 0 2400
2  171 30 0 0 2400
2  172 35 0 0 2400
0

0101000
+49 0 -51 0 *
Ed
 1.00005e-07 1 1 0
1  87 0 0 3450
2  173 30 0 0 3450
2  174 18 0 0 3450
0

0101000
+49 0 -87 0 *
Wi

0101000
-84 0 +50 25 +48 0 -47 0 *
Fa
0  1.00005e-07 30 0

0101000
+46 0 *
Ve
1.00005e-07
8450 250 2400
0 0

0101101
*
Ed
 1.00005e-07 1 1 0
1  88 0 0 3450
2  175 31 28 0 3450
2  176 5 28 0 3450
0

0101000
+44 28 -83 28 *
Ve
1.00005e-07
8450 250 0
0 0

0101101
*
Ed
 1.00005e-07 1 1 0
1  89 0 0 2400
2  177 31 0 0 2400
2  178 36 0 0 2400
0

0101000
+42 0 -44 0 *
Ed
 1.00005e-07 1 1 0
1  90 0 0 3450
2  179 31 0 0 3450
2  180 14 0 0 3450
0

0101000
+42 0 -81 0 *
Wi

0101000
-80 0 +43 27 +41 0 -40 0 *
Fa
0  1.00005e-07 31 0

0101000
+39 0 *
Ve
1.00005e-07
8550 250 2400
0 0

0101101
*
Ed
 1.00005e-07 1 1 0
1  91 0 0 3450
2  181 32 28 0 3450
2  182 5 28 0 3450
0

0101000
+37 28 -74 28 *
Ve
1.00005e-07
8550 250 0
0 0

0101101
*
Ed
 1.00005e-07 1 1 0
1  92 0 0 2400
2  183 32 0 0 2400
2  184 36 0 0 2400
0

0101000
+35 0 -37 0 *
Ed
 1.00005e-07 1 1 0
1  93 0 0 3450
2  185 32 0 0 3450
2  186 14 0 0 3450
0

0101000
+35 0 -76 0 *
Wi

0101000
-73 0 +36 27 +34 0 -33 0 *
Fa
0  1.00005e-07 32 0

0101000
+32 0 *
Ve
1.00005e-07
10750 250 2400
0 0

0101101
*
Ed
 1.00005e-07 1 1 0
1  94 0 0 3450
2  187 33 24 0 3450
2  188 5 24 0 3450
0

0101000
+30 24 -72 24 *
Ve
1.00005e-07
10750 250 0
0 0

0101101
*
Ed
 1.00005e-07 1 1 0
1  95 0 0 2400
2  189 33 0 0 2400
2  190 34 0 0 2400
0

0101000
+28 0 -30 0 *
Ed
 1.00005e-07 1 1 0
1  96 0 0 3450
2  191 33 0 0 3450
2  192 10 0 0 3450
0

0101000
+28 0 -70 0 *
Wi

0101000
-69 0 +29 23 +27 0 -26 0 *
Fa
0  1.00005e-07 33 0

0101000
+25 0 *
Ed
 1.00005e-07 1 1 0
1  97 0 0 100
2  193 34 0 0 100
2  194 10 0 0 100
0

0101000
+63 0 -28 0 *
Ed
 1.00005e-07 1 1 0
1  98 0 0 100
2  195 34 24 0 100
2  196 5 24 0 100
0

0101000
+65 24 -30 24 *
Wi

0101000
+62 0 -23 0 +22 23 -27 0 *
Fa
0  1.00005e-07 34 0

0101000
+21 0 *
Ed
 1.00005e-07 1 1 0
1  99 0 0 100
2  197 35 0 0 100
2  198 18 0 0 100
0

0101000
+49 0 -56 0 *
Ed
 1.00005e-07 1 1 0
1  100 0 0 100
2  199 35 26 0 100
2  200 5 26 0 100
0

0101000
+51 26 -58 26 *
Wi

0101000
+48 0 -19 0 +18 25 -55 0 *
Fa
0  1.00005e-07 35 0

0101000
+17 0 *
Ed
 1.00005e-07 1 1 0
1  101 0 0 100
2  201 36 0 0 100
2  202 14 0 0 100
0

0101000
+35 0 -42 0 *
Ed
 1.00005e-07 1 1 0
1  102 0 0 100
2  203 36 28 0 100
2  204 5 28 0 100
0

0101000
+37 28 -44 28 *
Wi

0101000
+34 0 -15 0 +14 27 -41 0 *
Fa
0  1.00005e-07 36 0

0101000
+13 0 *
Wi

0101100
-219 0 -165 0 +100 0 -61 0 +23 0 +26 0 +68 0 +159 0 *
Fa
0  1.00005e-07 10 0

0101000
+11 0 *
Wi

0101100
-211 0 -148 0 +75 0 -33 0 +15 0 +40 0 +79 0 +142 0 *
Fa
0  1.00005e-07 14 0

0101000
+9 0 *
Wi

0101100
-203 0 -131 0 +86 0 -47 0 +19 0 +54 0 +90 0 +125 0 *
Fa
0  1.00005e-07 18 0

0101000
+7 0 *
Wi

0101100
+238 1 +192 1 +104 1 -93 1 -57 25 -18 25 +50 25 -82 1 -43 27 -14 27 
+36 27 -71 1 -29 23 -22 23 +64 23 -97 1 -180 1 -231 1 *
Fa
0  1.00005e-07 5 0

0101000
-5 0 *
Sh

0101100
-236 0 +229 0 -190 0 +183 0 +178 0 +173 0 +168 0 +163 0 +156 0 +151 0 
+146 0 +139 0 +134 0 +129 0 +122 0 +117 0 +112 0 +107 0 -102 0 +95 0 
+88 0 +77 0 +66 0 -59 0 +52 0 -45 0 +38 0 -31 0 +24 0 +20 0 
+16 0 +12 0 +10 0 +8 0 +6 0 -4 0 *
So

0100000
+3 0 *
Co

1100000
+2 0 *

+1 0 