DBRep_DrawableShape

CASCADE Topology V1, (c) Matra-Datavision
Locations 10
1
             -1               0               0              -0 
              0              -1 4.44089209850062e-16 1.11022302462516e-14 
              0 4.44089209850062e-16               1              25 
1
              1               0               0               0 
              0 -2.22044604925031e-16              -1               0 
              0               1 -2.22044604925031e-16               0 
2  1 1 2 -1 0
2  2 1 1 -1 0
2  1 -1 0
1
              1               0               0              -0 
              0               1               0              -2 
              0               0               1 4.44089209850063e-16 
2  1 1 2 -1 6 1 0
2  6 -1 2 1 1 -1 0
2  2 -1 0
2  2 -1 6 1 0
Curve2ds 24
1 -0 0 4.3268864195721375e-17 -1 
1 2.2204392868861172e-16 1.4791081911125968e-31 4.440878573772229e-16 -1 
1 6.8956105982654146 4.4754785778438508e-16 4.3268864195721375e-17 -1 
1 2.2093704366579372e-16 1.469301611038748e-31 4.418740873315869e-16 -1 
1 -0 0 1 0 
1 0 0 -0.99524210397355295 0.097432820334297815 
1 8.653772839144275e-17 -2 1 0 
1 0 0 -0.99524210397355295 0.097432820334297815 
1 2.0100260349361156 1.3322676295501875e-15 4.418740873315869e-16 -1 
1 6.7837038282344713 2.667993907034699e-15 -8.6945597288952706e-17 -1 
1 0 0 1 0 
1 -6.8628020000000021 0.67185878851607406 0.099755424315372945 0.9950119875256076 
1 8.8374817466317379e-16 -2 1 0 
1 -6.8628020000000021 0.67185878851607406 0.099755424315372945 0.9950119875256076 
1 4.6333921919991322e-31 3.5527136788005009e-15 -8.6945597288952706e-17 -1 
1 4.0000121820294554 2.6645352591003773e-15 4.440878573772229e-16 -1 
1 0 0 1 0 
1 -0.0098720000000014352 4.0000000000000009 -0.98064702829624606 -0.19578407977601656 
1 -1.7389119457790541e-16 -2 1 0 
1 -0.0098720000000014352 4.0000000000000009 -0.98064702829624606 -0.19578407977601656 
1 -0 0 1 0 
1 0 0 -0.0024679924837110795 0.99999695450191273 
1 8.8817571475444579e-16 -2 1 0 
1 0 0 -0.0024679924837110795 0.99999695450191273 
Curves 12
1 33.610691000000003 25 0.92649260405856948 -0 -1 2.2204460492503131e-16 
1 26.747889000000001 25 0.25463381554249542 -0 -1 2.2204460492503131e-16 
1 -33.610691000000003 0.92649260405858636 0 0.99524210397355295 -0.097432820334297815 0 
1 -33.610691000000003 0.92649260405858636 0 0.99524210397355295 -0.097432820334297815 0 
1 26.948399999999999 25 -1.7453661844575055 -0 -1 2.2204460492503131e-16 
1 -26.747889000000001 0.2546338155425123 0 -0.099755424315372945 -0.9950119875256076 0 
1 -26.747889000000001 0.2546338155425123 0 -0.099755424315372945 -0.9950119875256076 0 
1 33.600819000000001 25 -3.0735073959414354 -0 -1 2.2204460492503131e-16 
1 -33.600819000000001 -3.0735073959414141 0 0.98064702829624606 0.19578407977601656 0 
1 -33.600819000000001 -3.0735073959414141 0 0.98064702829624606 0.19578407977601656 0 
1 -33.610691000000003 0.92649260405858636 0 0.0024679924837110795 -0.99999695450191273 0 
1 -33.610691000000003 0.92649260405858636 0 0.0024679924837110795 -0.99999695450191273 0 
Polygon3D 0
PolygonOnTriangulations 0
Surfaces 6
1 33.610691000000003 25 0.9264926040585697 0.097432820334297815 -2.209881397815645e-16 -0.99524210397355295 -0.99524210397355295 -6.490329629358209e-17 -0.097432820334297815 -4.3062995438695676e-17 1 -2.2626041239628217e-16 
1 33.610691000000003 25 0.9264926040585697 0.99999695450191273 -5.480044160035734e-19 -0.0024679924837110795 -0.0024679924837110795 -6.6613178606583462e-16 -0.99999695450191273 -1.0960054941143438e-18 1 -6.6613110983353392e-16 
1 26.747889000000001 25 0.25463381554249565 0.9950119875256076 2.2150153781235847e-17 0.099755424315372945 0.099755424315372945 -6.6281113099738062e-16 -0.9950119875256076 4.4079337075730608e-17 1 -6.617146187968975e-16 
1 33.610691000000003 -0.92649260405857525 25 0 0 1 1 0 -0 -0 1 0 
1 33.610691000000003 -0.92649260405857525 25 0 0 1 1 0 -0 -0 1 0 
1 33.600819000000001 24.999999999999996 -3.073507395941431 -0.19578407977601656 -2.1774738196894595e-16 -0.98064702829624606 -0.98064702829624606 1.3041839593342911e-16 0.19578407977601656 8.5262941604853614e-17 1 -2.3906716868082501e-16 
Triangulations 0

TShapes 34
Ve
1e-07
33.610691 25 0.926492604058569
0 0

0101101
*
Ve
1e-07
33.610691 23 0.92649260405857
0 0

0101101
*
Ed
 1e-07 1 1 0
1  1 0 0 2
2  1 1 0 0 2
2  2 2 0 0 2
0

0101000
+34 0 -33 0 *
Ve
1e-07
26.747889 25 0.254633815542495
0 0

0101101
*
Ve
1e-07
26.747889 23 0.254633815542496
0 0

0101101
*
Ed
 1e-07 1 1 0
1  2 0 0 2
2  3 1 0 0 2
2  4 3 0 0 2
0

0101000
+31 0 -30 0 *
Ed
 1e-07 1 1 0
1  3 0 0 6.89561059826542
2  5 1 4 0 6.89561059826542
2  6 4 5 0 6.89561059826542
0

0101000
+34 4 -31 4 *
Ed
 1e-07 1 1 0
1  4 0 0 6.89561059826542
2  7 1 8 0 6.89561059826542
2  8 5 5 0 6.89561059826542
0

0101000
+33 8 -30 8 *
Wi

0101000
+32 0 -29 0 -28 3 +27 7 *
Fa
0  1e-07 1 0

0101000
+26 0 *
Ve
1e-07
26.9484 25 -1.74536618445751
0 0

0101101
*
Ve
1e-07
26.9484 23 -1.74536618445751
0 0

0101101
*
Ed
 1e-07 1 1 0
1  5 0 0 2
2  9 3 0 0 2
2  10 6 0 0 2
0

0101000
+24 0 -23 0 *
Ed
 1e-07 1 1 0
1  6 0 0 2.01002603493611
2  11 3 4 0 2.01002603493611
2  12 4 5 0 2.01002603493611
0

0101000
+31 4 -24 4 *
Ed
 1e-07 1 1 0
1  7 0 0 2.01002603493611
2  13 3 8 0 2.01002603493611
2  14 5 5 0 2.01002603493611
0

0101000
+30 8 -23 8 *
Wi

0101000
+29 0 -22 0 -21 3 +20 7 *
Fa
0  1e-07 3 0

0101000
+19 0 *
Ve
1.00000000222045e-07
33.600819 25 -3.07350739594144
0 0

0101101
*
Ve
1.00000000222045e-07
33.600819 23 -3.07350739594143
0 0

0101101
*
Ed
 1.00000000222045e-07 1 1 0
1  8 0 0 2
2  15 6 0 0 2
2  16 2 0 0 2
0

0101000
+17 0 -16 0 *
Ed
 1e-07 1 1 0
1  9 0 0 6.78370382823447
2  17 6 4 0 6.78370382823447
2  18 4 5 0 6.78370382823447
0

0101000
+17 4 -24 4 *
Ed
 1e-07 1 1 0
1  10 0 0 6.78370382823447
2  19 6 8 0 6.78370382823447
2  20 5 5 0 6.78370382823447
0

0101000
+16 8 -23 8 *
Wi

0101000
+15 0 -22 0 -14 3 +13 7 *
Fa
0  1e-07 6 0

0101000
+12 0 *
Ed
 1e-07 1 1 0
1  11 0 0 4.00001218202945
2  21 2 4 0 4.00001218202945
2  22 4 5 0 4.00001218202945
0

0101000
+34 4 -17 4 *
Ed
 1e-07 1 1 0
1  12 0 0 4.00001218202945
2  23 2 8 0 4.00001218202945
2  24 5 5 0 4.00001218202945
0

0101000
+33 8 -16 8 *
Wi

0101000
+32 0 -15 0 -10 3 +9 7 *
Fa
0  1e-07 2 0

0101000
+8 0 *
Wi

0101100
+28 0 +21 0 -14 0 -10 0 *
Fa
0  1e-07 4 0

0101000
-6 1 *
Wi

0101100
+27 0 +20 0 -13 0 -9 0 *
Fa
0  1e-07 5 0

0101000
-4 1 *
Sh

0101000
-25 0 -18 0 +11 0 +7 0 +5 9 -3 10 *
So

1100000
+2 0 *

+1 0 