DBRep_DrawableShape

CASCADE Topology V1, (c) Matra-Datavision
Locations 44
1
              1               0               0               0 
              0              -1               0               0 
              0               0              -1               0 
1
              1              -0               0               0 
              0              -1               0               0 
             -0               0              -1               0 
1
              1               0               0               0 
              0              -1 1.22464679914735e-016               0 
              0 -1.22464679914735e-016              -1               0 
1
              1              -0               0               0 
              0              -1               0               0 
             -0               0              -1               0 
1
              1               0               0               0 
              0              -1 1.22464679914735e-016               0 
              0 -1.22464679914735e-016              -1               0 
2  2 1 3 -1 4 1 5 -1 0
2  3 1 2 -1 0
2  1 -1 5 1 4 -1 3 1 2 -1 0
1
              1              -0               0               0 
              0              -1               0               0 
             -0               0              -1               0 
1
              1               0               0               0 
              0              -1 1.22464679914735e-016               0 
              0 -1.22464679914735e-016              -1               0 
2  9 1 10 -1 0
2  10 1 9 -1 0
2  9 -1 0
2  1 -1 5 1 4 -1 3 1 2 -1 10 1 9 -1 0
1
              1               0               0               0 
              0               1               0 1.83697019872103e-015 
              0               0               1              15 
2  9 1 10 -1 15 1 0
2  15 -1 10 1 9 -1 0
2  3 1 2 -1 15 -1 10 1 9 -1 0
2  1 -1 5 1 4 -1 3 1 2 -1 15 -1 10 1 9 -1 0
2  4 1 5 -1 0
2  9 1 10 -1 2 1 3 -1 4 1 5 -1 0
2  3 1 2 -1 10 1 9 -1 0
1
             -1               0               0              -0 
             -0 -2.22044604925031e-016              -1             -20 
              0              -1 2.22044604925031e-016 2.44929359829471e-015 
2  23 1 3 -1 4 1 5 -1 0
2  3 1 23 -1 0
2  1 -1 5 1 4 -1 3 1 23 -1 0
2  1 -1 5 1 4 -1 0
1
             -1               0              -0              -0 
              0 -4.44089209850063e-016              -1             -20 
              0              -1 4.44089209850063e-016 8.41789581326926e-015 
2  28 1 5 -1 0
2  4 1 28 -1 0
2  5 1 28 -1 0
2  1 -1 5 1 28 -1 0
2  9 1 10 -1 15 1 2 1 3 -1 4 1 5 -1 0
2  1 -1 0
2  10 -1 2 1 3 -1 4 1 5 -1 0
2  10 -1 2 1 3 -1 0
1
              1               0               0              -0 
              0               1               0             -10 
              0               0               1 3.44509284839767e-015 
2  3 -1 37 1 0
2  9 1 10 -1 15 1 2 1 3 -1 0
2  23 1 3 -1 37 1 4 1 5 -1 0
2  37 -1 3 1 23 -1 0
2  23 -1 0
2  1 -1 5 1 4 -1 37 -1 3 1 23 -1 0
2  3 -1 37 1 4 1 5 -1 0
Curve2ds 52
1 0 0 0 -1 
1 0 20.003408968492963 -1 0 
1 40 -3.1554436208840472e-030 0 -1 
1 0 0 0 -1 
1 5.7964558953083737e-046 -1.5777218104420236e-030 1 0 
1 -80 0 0 1 
1 -1.5945167614379131e-015 -15 1 0 
1 0 -80 -1 0 
1 -1.5777218104420236e-030 -59.996591031507037 0 1 
1 0 0 -1 0 
2 -0.52949039523436447 -19.996591031507037 0 -1 -1 -0 20.003599999999999
1 0 0 1 0 
1 -1.5777218104420236e-030 -59.996591031507037 0 1 
1 0 0 -1 0 
1 -15 -59.996591031507037 0 1 
1 0 0 0 -1 
1 0 -59.996591031507037 -1 0 
1 40 3.1554436208840472e-030 0 -1 
2 3.5193086166798425e-015 -19.996591031507037 0 -1 -1 -0 12.5
1 0 0 1 0 
1 0 1.5777218104420236e-030 1 0 
1 -80 40 1 0 
1 80 0 0 -1 
1 0 0 0 -1 
1 0 -15 1 0 
1 -40 -80 0 1 
1 0 1.5777218104420236e-030 1 0 
1 -80 40 1 0 
2 40 -4.4470853841438346e-015 0 -1 -1 -0 12.5
1 -4.7123889803846897 -40 1 0 
8 -44 1.1265924765065585e-030
1 -52.5 0 0 -1 
8 -44 1.1265924765065585e-030
1 3.1415926535897931 -1.993877986062736e-030 0 1 
8 -30.355110143850936 10.355110143849053
1 -29.999999999999062 10 1 0 
8 -30.355110143850936 10.355110143849053
1 -0.15000000000008235 -29.999999999999062 0 -1 
8 -10 8.7970892252038726e-031
1 -59.996591031507208 3.3324814962220539e-033 0 -1 
8 -10 8.7970892252038726e-031
1 3.168065500767125 1.8241435739171629e-016 0 1 
1 -40 0 1 0 
1 1.5945167614379131e-015 -15 1 0 
1 0 -10 1 0 
2 0.37949039523428313 -19.999999999998121 -0 -1 1 -0 20.003599999999999
8 -10 3.4423392620362977e-031
1 6.2567124600022543 1.8241435739171629e-016 0 1 
8 -10 3.4423392620362977e-031
1 -20.003408968492792 3.3324814962220539e-033 0 -1 
1 0 40 -0 -1 
1 5.7964558953083737e-046 1.5777218104420236e-030 1 0 
8 -30.355110143850936 10.355110143849053
1 -29.999999999999062 10 1 0 
8 -30.355110143850936 10.355110143849053
1 -0.15000000000008235 -29.999999999999062 0 -1 
1 -27.5 0 0 1 
1 0 0 0 -1 
1 0 0 0 -1 
1 6.2831853071795862 0 0 -1 
1 1.5707963267948966 -10 1 0 
2 -0.15000000000008387 -19.999999999998121 1 0 -0 1 12.5
Curves 26
1 40 20 -2.4492935982947065e-015 0 1.2246467991473532e-016 1 
1 40 -20 2.4492935982947065e-015 0 1.2246467991473532e-016 1 
1 40 20 0 0 -1 0 
1 40 20 0 0 -1 0 
1 -40 20 0 1 0 0 
2 2.3687621676142003e-033 0.52949039523436447 0 0 0 1 1 0 -0 -0 1 0 20.003599999999999
1 -40 20 0 1 0 0 
1 -40 20.000000000000004 14.999999999999995 1 0 0 
1 -40 20 -2.4492935982947065e-015 0 1.2246467991473532e-016 1 
2 0 0 0 0 0 1 1 0 -0 -0 1 0 12.5
1 40 -20 0 -1 0 0 
1 -40 -20 2.4492935982947065e-015 0 1.2246467991473532e-016 1 
1 40 -20 0 -1 0 0 
1 40 -20 0 -1 0 0 
2 0 -20 1.1794966179027954e-014 0 1 -5.6655388976479796e-016 0 5.6655388976479796e-016 1 1 -0 0 12.5
1 12.5 20 -7.3478807948841184e-015 0 1 -5.6655388976479796e-016 
1 -10.00000000000094 10 -2.4458921262350253e-015 -1 0 0 
1 19.996591031507208 20 -4.8849813083506888e-015 0 1 -3.4450928483976665e-016 
1 -40 -20 0 0 1 0 
2 2.3687621676142003e-033 0.52949039523436447 0 0 0 1 1 0 -0 -0 1 0 20.003599999999999
1 -19.996591031507208 20 -4.8849813083506888e-015 0 1 -3.4450928483976665e-016 
1 -40 -20 0 0 1 0 
1 -10.00000000000094 10 -2.4458921262350253e-015 -1 0 0 
1 -12.5 20 -1.0867189411563962e-014 0 -1 5.6655388976479796e-016 
1 -12.5 20 -1.0867189411563962e-014 0 -1 5.6655388976479796e-016 
2 0 10 -5.2016505139159832e-015 0 1 -5.6655388976479796e-016 0 5.6655388976479796e-016 1 1 -0 0 12.5
Polygon3D 0
PolygonOnTriangulations 0
Surfaces 10
1 40 20 -2.4492935982947065e-015 1 0 -0 0 -1 1.2246467991473532e-016 0 -1.2246467991473532e-016 -1 
1 19.996591031507037 20 -4.898587196589413e-015 0 -1 4.2089479066346278e-016 0 -4.2089479066346278e-016 -1 1 0 0 
1 40 -20 2.4492935982947065e-015 0 -1 1.2246467991473532e-016 -1 0 0 -0 -1.2246467991473532e-016 -1 
1 -40 -20 0 0 0 -1 -1 0 -0 0 1 0 
1 -40 20.000000000000004 14.999999999999995 -0 2.6645352591003756e-016 1 0 1 -2.6645352591003756e-016 -1 0 -0 
2 -2.3687621676142003e-033 20 0.52949039523435959 0 1 -3.4450928483976665e-016 -1 0 0 0 3.4450928483976665e-016 1 20.003599999999999
1 -40 -20 0 0 0 -1 -1 0 -0 0 1 0 
1 -40 -20 2.4492935982947065e-015 -1 0 0 0 1 -1.2246467991473532e-016 -0 -1.2246467991473532e-016 -1 
2 0 20 -1.0867189411563962e-014 0 1 -5.6655388976479796e-016 -1 0 0 0 5.6655388976479796e-016 1 12.5
1 19.999999999998121 -20 -0.1500000000000789 0 -1 2.3923997837040538e-016 0 -2.3923997837040538e-016 -1 1 0 0 
Triangulations 0

TShapes 66
Ve
1.00000001776357e-007
40 -20 7.34788079488412e-015
0 0

0101101
*
Ve
1.00000001776357e-007
40 -20 -15
0 0

0101101
*
Ed
 1e-007 1 1 0
1  1 0 0 15
2  1 1 0 0 15
2  2 2 7 0 15
0

0101000
+66 8 -65 8 *
Ve
1.00000001776357e-007
40 20 -7.34788079488412e-015
0 0

0101101
*
Ve
1.00000001776357e-007
40 20 -15
0 0

0101101
*
Ed
 1e-007 1 1 0
1  2 0 0 15
2  3 1 0 0 15
2  4 3 0 0 15
0

0101000
+63 8 -62 8 *
Ed
 1.00000001776357e-007 1 1 0
1  3 0 0 40
2  5 1 12 0 40
2  6 4 13 0 40
0

0101000
+66 14 -63 14 *
Ed
 1.00000001776357e-007 1 1 0
1  4 0 0 40
2  7 1 17 0 40
2  8 5 18 0 40
0

0101000
+65 19 -62 19 *
Wi

0101000
+64 0 -61 0 -60 11 +59 16 *
Fa
0  1e-007 1 0

0101000
+58 0 *
Ve
1.00003251392347e-007
19.996591031507 -20 3.258740227768e-012
0 0

0101101
*
Ed
 1e-007 1 1 0
1  5 0 59.996591031507 80
2  9 2 22 59.996591031507 80
2  10 4 13 59.996591031507 80
0

0101000
+56 14 -66 14 *
Ve
1.00003258566891e-007
-19.9965910315074 -20 -3.2512190105753e-012
0 0

0101101
*
Ed
 1e-007 1 1 0
1  6 0 3.16806550076745 6.25671246000258
2  11 2 25 3.16806550076745 6.25671246000258
2  12 6 25 3.16806550076745 6.25671246000258
0

0101000
+56 26 -54 26 *
Ve
1.00000001776357e-007
-40 -20 7.34788079488412e-015
0 0

0101101
*
Ed
 1e-007 1 1 0
1  7 0 0 20.0034089684926
2  13 2 22 0 20.0034089684926
2  14 7 13 0 20.0034089684926
0

0101000
+52 14 -54 14 *
Ve
1.00000001776357e-007
-40 -20 -15
0 0

0101101
*
Ed
 1e-007 1 1 0
1  8 0 0 80
2  15 2 0 0 80
2  16 5 0 0 80
0

0101000
+50 27 -65 27 *
Ed
 1e-007 1 1 0
1  9 0 0 15
2  17 2 7 0 15
2  18 8 0 0 15
0

0101000
+52 8 -50 8 *
Wi

0101000
+55 21 -53 24 +64 6 +51 21 -49 20 -48 6 *
Ve
1e-007
-12.5 -20 1.0867189411564e-014
0 0

0101101
*
Ed
 1e-007 1 1 0
1  10 0 0 6.28318530717959
2  19 2 30 0 6.28318530717959
2  20 9 31 0 6.28318530717959
0

0101100
+46 32 -46 32 *
Wi

0101100
+45 29 *
Fa
0  1e-007 2 20

0101000
+47 0 +44 0 *
Ve
1.000000039999e-007
-12.5 20 -9.57142348695604e-015
0 0

0101101
*
Ve
1.00000001776357e-007
-40 20 -7.34788079488412e-015
0 0

0101101
*
Ed
 1.00000001776357e-007 1 1 0
1  11 0 52.5 80
2  21 3 12 52.5 80
2  22 7 13 52.5 80
0

0101000
+42 14 -41 14 *
Ve
1.00000001776357e-007
-40 20 -15
0 0

0101101
*
Ed
 1e-007 1 1 0
1  12 0 0 15
2  23 3 0 0 15
2  24 8 0 0 15
0

0101000
+41 8 -39 8 *
Ed
 1.00000001776357e-007 1 1 0
1  13 0 0 80
2  25 3 17 0 80
2  26 5 18 0 80
0

0101000
+62 19 -39 19 *
Ve
2.00001001776357e-007
12.5 20 -7.34788079488412e-015
0 0

0101101
*
Ed
 1.00000001776357e-007 1 1 0
1  14 0 0 27.5
2  27 3 12 0 27.5
2  28 4 13 0 27.5
0

0101000
+63 14 -36 14 *
Ed
 1e-007 1 1 0
1  15 0 4.71238898038469 7.85398163397448
2  29 3 6 4.71238898038469 7.85398163397448
2  30 9 0 4.71238898038469 7.85398163397448
0

0101000
+42 34 -36 34 *
Wi

0101000
-40 21 -38 6 +37 33 +61 6 -35 21 +34 0 *
Fa
0  1e-007 3 6

0101000
+33 0 *
Ve
2.00001e-007
12.5 -10 3.67053892538238e-015
0 0

0101101
*
Ed
 1e-007 1 1 0
1  16 0 -40 -10
2  31 4 35 -40 -10
2  32 9 0 -40 -10
0

0101000
+36 34 -31 34 *
Ve
0.0001
19.9965910315072 -10 5.22144968779792e-015
0 0

0101101
*
Ed
 1e-007 1 1 0
1  17 0 -29.9965910315081 -22.5000000000009
2  33 4 36 -29.9965910315081 -22.5000000000009
2  34 10 38 -29.9965910315081 -22.5000000000009
0

0101000
+29 27 -31 27 *
Ed
 1e-007 1 1 0
1  18 0 -10 8.79708922520387e-031
2  35 4 36 -10 8.79708922520387e-031
2  36 6 0 -10 8.79708922520387e-031
0

0101000
+29 27 -56 27 *
Wi

0101000
-30 0 +28 20 -27 20 -55 21 -60 21 -35 21 *
Fa
0  1e-007 4 35

0101000
+26 0 *
Ed
 1.00000001776357e-007 1 1 0
1  19 0 0 40
2  37 5 18 0 40
2  38 8 17 0 40
0

0101000
+39 19 -50 19 *
Wi

0101000
-49 0 -24 39 -37 39 -59 39 *
Fa
0  1.00000001776357e-007 5 0

0101000
+23 0 *
Ve
0.0001
-19.9965910315072 -10 3.6671374533227e-015
0 0

0101101
*
Ed
 1e-007 1 1 0
1  20 0 3.16806550076713 6.25671246000225
2  39 6 41 3.16806550076713 6.25671246000225
2  40 10 42 3.16806550076713 6.25671246000225
0

0101000
+29 43 -21 43 *
Ed
 1e-007 1 1 0
1  21 0 -10 3.4423392620363e-031
2  41 6 0 -10 3.4423392620363e-031
2  42 7 36 -10 3.4423392620363e-031
0

0101000
+21 27 -54 27 *
Wi

0101000
+20 40 -27 20 +19 20 -53 24 *
Fa
0  1e-007 6 20

0101000
+18 0 *
Ed
 1.00000001776357e-007 1 1 0
1  22 0 0 40
2  43 7 13 0 40
2  44 8 12 0 40
0

0101000
+41 14 -52 14 *
Ve
34.9047820402161
-12.5 -10 4.43609471964918e-015
0 0

0101101
*
Ed
 1e-007 1 1 0
1  23 0 2.49999999999906 9.99659103150627
2  45 7 36 2.49999999999906 9.99659103150627
2  46 10 38 2.49999999999906 9.99659103150627
0

0101000
+15 27 -21 27 *
Ed
 1e-007 1 1 0
1  24 0 10 40
2  47 7 35 10 40
2  48 9 0 10 40
0

0101000
+15 34 -42 34 *
Wi

0101000
-40 21 -16 21 -51 21 +19 20 +14 20 -13 0 *
Fa
0  1e-007 7 35

0101000
+12 0 *
Wi

0101000
+38 0 -48 0 -16 11 +24 16 *
Fa
0  1e-007 8 0

0101000
+10 0 *
Ed
 1e-007 1 1 0
1  25 0 0 10
3  49 50CN 9 0 0 10
0

0101000
+46 34 -15 34 *
Ed
 1e-007 1 1 0
1  26 0 1.5707963267949 4.71238898038469
2  51 9 0 1.5707963267949 4.71238898038469
2  52 10 44 1.5707963267949 4.71238898038469
0

0101000
+31 34 -15 34 *
Wi

0101000
+13 0 +8 0 -45 29 -8 0 +7 0 +30 0 +34 0 *
Fa
0  1e-007 9 0

0101000
+6 0 *
Wi

0101000
-7 0 -14 20 +20 40 -28 20 *
Fa
0  1e-007 10 44

0101000
+4 0 *
Sh

0101000
+57 6 -43 0 +32 0 -25 0 +22 20 +17 0 -11 0 +9 6 -5 0 -3 0 
*
So

1100000
+2 0 *

+1 1 