DBRep_DrawableShape

CASCADE Topology V1, (c) Matra-Datavision
Locations 60
1
              1              -0               0               0 
              0              -1               0               0 
             -0               0              -1               0 
1
              1               0               0               0 
              0               1               0               0 
              0               0               1               0 
1
              1               0               0               0 
              0               1               0               0 
              0               0               1               0 
2  2 1 3 1 0
1
              1              -0               0               0 
              0              -1               0               0 
             -0               0              -1               0 
1
              1               0               0               0 
              0              -1 1.22464679914735e-016               0 
              0 -1.22464679914735e-016              -1               0 
2  5 1 6 -1 0
2  3 -1 2 -1 0
1
             -1               0               0              -0 
             -0 -2.22044604925031e-016              -1             -20 
              0              -1 2.22044604925031e-016 2.44929359829471e-015 
1
              1               0               0               0 
              0              -1 1.22464679914735e-016               0 
              0 -1.22464679914735e-016              -1               0 
2  9 1 10 -1 5 1 6 -1 2 1 3 1 0
2  10 1 9 -1 0
2  1 -1 3 -1 2 -1 6 1 5 -1 10 1 9 -1 0
2  5 1 6 -1 2 1 3 1 0
2  1 -1 0
2  5 1 6 -1 2 1 0
2  1 -1 3 -1 0
1
              1              -0               0               0 
              0              -1               0               0 
             -0               0              -1               0 
1
              1               0               0               0 
              0              -1 1.22464679914735e-016               0 
              0 -1.22464679914735e-016              -1               0 
1
              1              -0               0               0 
              0              -1               0               0 
             -0               0              -1               0 
2  18 1 19 -1 20 1 10 -1 5 1 6 -1 2 1 3 1 0
2  10 1 20 -1 19 1 18 -1 0
2  18 -1 0
2  1 -1 3 -1 2 -1 6 1 5 -1 10 1 20 -1 19 1 18 -1 0
2  20 1 10 -1 5 1 6 -1 2 1 3 1 0
2  10 1 20 -1 0
2  1 -1 3 -1 2 -1 6 1 5 -1 10 1 20 -1 0
2  1 -1 3 -1 2 -1 6 1 5 -1 0
1
             -1               0              -0              -0 
              0 -4.44089209850063e-016              -1             -20 
              0              -1 4.44089209850063e-016 8.41789581326926e-015 
2  29 1 6 -1 0
2  5 1 29 -1 0
2  6 1 29 -1 0
2  1 -1 3 -1 2 -1 6 1 29 -1 0
1
              1               0               0              -0 
              0               1               0             -10 
              0               0               1 3.44509284839767e-015 
2  9 1 10 -1 34 1 5 1 6 -1 2 1 3 1 0
2  34 -1 10 1 9 -1 0
2  9 -1 0
2  1 -1 3 -1 2 -1 6 1 5 -1 34 -1 10 1 9 -1 0
2  10 -1 34 1 5 1 6 -1 2 1 3 1 0
2  19 -1 20 1 10 -1 5 1 6 -1 2 1 3 1 0
2  10 -1 34 1 5 1 6 -1 2 1 0
2  19 -1 20 1 10 -1 5 1 6 -1 2 1 0
2  19 -1 20 1 10 -1 5 1 6 -1 0
2  19 1 18 -1 0
2  19 -1 20 1 10 -1 0
2  10 -1 34 1 0
2  1 -1 3 -1 2 -1 0
2  2 -1 0
2  18 1 19 -1 20 1 10 -1 5 1 6 -1 2 1 0
2  18 1 19 -1 0
1
              1               0               0               0 
              0               1               0 1.83697019872103e-015 
              0               0               1              15 
2  18 1 19 -1 51 1 0
2  51 -1 19 1 18 -1 0
2  10 1 20 -1 51 -1 19 1 18 -1 0
2  1 -1 3 -1 2 -1 6 1 5 -1 10 1 20 -1 51 -1 19 1 18 -1 0
2  18 1 19 -1 51 1 20 1 10 -1 0
2  10 -1 34 1 5 1 6 -1 0
2  20 1 10 -1 5 1 6 -1 0
2  18 1 19 -1 20 1 10 -1 5 1 6 -1 0
2  18 1 19 -1 51 1 20 1 10 -1 5 1 6 -1 0
Curve2ds 68
2 -0.52949039523436447 -19.996591031507037 0 -1 -1 -0 20.003599999999999
1 0 0 1 0 
2 3.9999999999999996 -43.56895895922019 -1 0 -0 -1 4
1 -4.9022276459273115 10 1 0 
2 3.9999999999999996 3.5757768962061149 -1 0 -0 -1 4
1 8.8817841970012523e-016 10.000000000000002 1 0 
1 -1.5777218104420236e-030 -59.996591031507037 0 1 
1 0 0 -1 0 
1 -1.5777218104420236e-030 -59.996591031507037 0 1 
1 0 0 -1 0 
1 0 -59.996591031507037 -1 0 
1 40 3.1554436208840472e-030 0 -1 
1 0 20.003408968492963 -1 0 
1 0 0 0 -1 
1 -15 -59.996591031507037 0 1 
1 0 0 0 -1 
2 3.5193086166798425e-015 -19.996591031507037 0 -1 -1 -0 12.5
1 0 0 1 0 
1 0 -10 1 0 
2 0.37949039523428313 -19.999999999998121 -0 -1 1 -0 20.003599999999999
1 6.0933466416369617 -10 0 1 
1 1.1102230246251565e-016 0 0 1 
1 3.3314313191324172 -10 0 1 
1 1.3809576612522707 0 0 1 
1 -4.9022276459273115 0 1 0 
2 -4.1500000000000812 -43.572367927711269 1 0 0 -1 4
1 1.3809576612522749 0 0 1 
1 -16.427632072286848 10 0 -1 
1 0 0 1 0 
2 -4.1500000000000812 3.5723679277150318 1 0 0 -1 4
1 0 0 0 1 
1 -63.572367927713152 10 0 -1 
1 0 40 -0 -1 
1 5.7964558953083737e-046 1.5777218104420236e-030 1 0 
1 -29.999999999999062 10 1 0 
1 -0.15000000000008235 -29.999999999999062 0 -1 
1 -80 40 1 0 
1 0 1.5777218104420236e-030 1 0 
8 -30.355110143850936 10.355110143849053
1 -29.999999999999062 10 1 0 
8 -30.355110143850936 10.355110143849053
1 -0.15000000000008235 -29.999999999999062 0 -1 
1 -27.5 0 0 1 
1 0 0 0 -1 
1 -80 0 0 1 
1 5.7964558953083737e-046 -1.5777218104420236e-030 1 0 
1 -29.999999999999062 10 -1 0 
1 -0.15000000000008235 -29.999999999999062 0 1 
1 -80 40 1 0 
1 0 1.5777218104420236e-030 1 0 
8 -30.355110143850936 10.355110143849053
1 -29.999999999999062 10 1 0 
8 -30.355110143850936 10.355110143849053
1 -0.15000000000008235 -29.999999999999062 0 -1 
8 -44 1.1265924765065585e-030
1 -52.5 0 0 -1 
8 -44 1.1265924765065585e-030
1 3.1415926535897931 -1.993877986062736e-030 0 1 
1 0 0 0 -1 
1 80 0 0 -1 
1 1.5945167614379131e-015 -15 1 0 
1 -40 0 1 0 
1 40 -3.1554436208840472e-030 0 -1 
1 0 0 0 -1 
1 -1.5945167614379131e-015 -15 1 0 
1 0 -80 -1 0 
1 -40 -80 0 1 
1 0 -15 1 0 
1 0 0 0 -1 
1 6.2831853071795862 0 0 -1 
1 1.5707963267948966 -10 1 0 
2 -0.15000000000008387 -19.999999999998121 1 0 -0 1 12.5
1 -4.7123889803846897 -40 1 0 
2 40 -4.4470853841438346e-015 0 -1 -1 -0 12.5
Curves 34
2 2.3687621676142003e-033 0.52949039523436447 0 0 0 1 1 0 -0 -0 1 0 20.003599999999999
8 4.9022276459273115 6.2831853071795853
2 -23.572367927713152 20 -4.0000000000000071 -0 -1 4.66973964754502e-016 0 4.66973964754502e-016 1 -1 0 0 4
8 -8.8817841970012523e-016 1.3809576612522712
2 23.572367927713152 20 -4.0000000000000071 -0 -1 4.66973964754502e-016 0 4.66973964754502e-016 1 -1 0 0 4
1 -40 20 0 1 0 0 
1 -40 20 0 1 0 0 
1 -40 20 -2.4492935982947065e-015 0 1.2246467991473532e-016 1 
1 40 20 -2.4492935982947065e-015 0 1.2246467991473532e-016 1 
1 -40 20.000000000000004 14.999999999999995 1 0 0 
2 0 0 0 0 0 1 1 0 -0 -0 1 0 12.5
2 2.3687621676142003e-033 0.52949039523436447 0 0 0 1 1 0 -0 -0 1 0 20.003599999999999
1 -19.644229160576028 9.9999999999999982 -3.2451981544044575 0 1 -4.66973964754502e-016 
1 19.644229160576028 9.9999999999999982 -3.245198154404441 0 1 -4.66973964754502e-016 
8 4.9022276459273115 6.2831853071795862
2 -23.572367927713152 9.9999999999999982 -4.0000000000000027 -0 -1 4.66973964754502e-016 0 4.66973964754502e-016 1 -1 0 0 4
1 -23.572367927713152 10 -3.6739403974420592e-015 0 1 -4.66973964754502e-016 
8 0 1.3809576612522712
2 23.572367927713152 9.9999999999999982 -4.0000000000000027 -0 -1 4.66973964754502e-016 0 4.66973964754502e-016 1 -1 0 0 4
1 23.572367927713152 10 -3.6739403974420592e-015 0 1 -4.66973964754502e-016 
1 -40 -20 0 0 1 0 
8 9.9965910315062683 13.572367927712213
1 -10.00000000000094 10 -3.6688381893525379e-015 -1 0 0 
1 40 -20 0 -1 0 0 
1 -10.00000000000094 10 -2.4458921262350253e-015 -1 0 0 
1 -12.5 20 -1.0867189411563962e-014 0 -1 5.6655388976479796e-016 
1 40 20 0 0 -1 0 
8 29.996591031508146 33.57236792771409
1 -10.00000000000094 10 -3.6688381893525379e-015 1 -0 -0 
1 40 -20 0 -1 0 0 
1 -10.00000000000094 10 -2.4458921262350253e-015 -1 0 0 
1 12.5 20 -7.3478807948841184e-015 0 1 -5.6655388976479796e-016 
1 -40 -20 2.4492935982947065e-015 0 1.2246467991473532e-016 1 
1 -40 -20 0 0 1 0 
1 40 -20 2.4492935982947065e-015 0 1.2246467991473532e-016 1 
1 40 20 0 0 -1 0 
1 40 -20 0 -1 0 0 
1 -12.5 20 -1.0867189411563962e-014 0 -1 5.6655388976479796e-016 
2 0 10 -5.2016505139159832e-015 0 1 -5.6655388976479796e-016 0 5.6655388976479796e-016 1 1 -0 0 12.5
2 0 -20 1.1794966179027954e-014 0 1 -5.6655388976479796e-016 0 5.6655388976479796e-016 1 1 -0 0 12.5
Polygon3D 0
PolygonOnTriangulations 0
Surfaces 12
1 19.996591031507037 20 -4.898587196589413e-015 0 -1 4.2089479066346278e-016 0 -4.2089479066346278e-016 -1 1 0 0 
2 -2.3687621676142003e-033 20 0.52949039523435959 0 1 -3.4450928483976665e-016 -1 0 0 0 3.4450928483976665e-016 1 20.003599999999999
2 -23.572367927713152 9.9999999999999982 -4.0000000000000027 0 1 -4.66973964754502e-016 0.98203469178428082 8.8118202610441765e-017 0.18870046139888624 -0.18870046139888624 4.5858463354897103e-016 0.98203469178428082 4
2 23.572367927713152 9.9999999999999982 -4.0000000000000027 0 1 -4.66973964754502e-016 0 4.66973964754502e-016 1 -1 0 -0 4
1 -40 -20 0 0 0 -1 -1 0 -0 0 1 0 
1 -40 -20 0 0 0 -1 -1 0 -0 0 1 0 
1 -40 -20 2.4492935982947065e-015 -1 0 0 0 1 -1.2246467991473532e-016 -0 -1.2246467991473532e-016 -1 
1 40 20 -2.4492935982947065e-015 1 0 -0 0 -1 1.2246467991473532e-016 0 -1.2246467991473532e-016 -1 
1 -40 20.000000000000004 14.999999999999995 -0 2.6645352591003756e-016 1 0 1 -2.6645352591003756e-016 -1 0 -0 
2 0 20 -1.0867189411563962e-014 0 1 -5.6655388976479796e-016 -1 0 0 0 5.6655388976479796e-016 1 12.5
1 19.999999999998121 -20 -0.1500000000000789 0 -1 2.3923997837040538e-016 0 -2.3923997837040538e-016 -1 1 0 0 
1 40 -20 2.4492935982947065e-015 0 -1 1.2246467991473532e-016 -1 0 0 -0 -1.2246467991473532e-016 -1 
Triangulations 0

TShapes 85
Ve
1e-007
-19.644229160576 -20 3.24519815440446
0 0

0101101
*
Ve
1e-007
19.644229160576 -20 3.24519815440445
0 0

0101101
*
Ed
 1e-007 1 1 0
1  1 0 3.33143131913242 6.09334664163696
2  1 1 12 3.33143131913242 6.09334664163696
2  2 2 12 3.33143131913242 6.09334664163696
0

0101000
-85 13 +84 13 *
Ve
1e-007
-23.5723679277132 -20 7.54951656745106e-015
0 0

0101101
*
Ed
 1e-007 1 1 0
1  2 0 4.90222764592731 6.28318530717959
2  3 1 14 4.90222764592731 6.28318530717959
2  4 3 0 4.90222764592731 6.28318530717959
0

0101000
+85 15 -82 15 *
Ve
1e-007
23.5723679277132 -20 7.54951656745106e-015
0 0

0101101
*
Ed
 1e-007 1 1 0
1  3 0 -8.88178419700125e-016 1.38095766125227
2  5 1 16 -8.88178419700125e-016 1.38095766125227
2  6 4 0 -8.88178419700125e-016 1.38095766125227
0

0101000
+80 17 -84 17 *
Ve
1.00000001776357e-007
-40 -20 7.34788079488412e-015
0 0

0101101
*
Ed
 1e-007 1 1 0
1  4 0 0 16.4276320722868
2  7 1 22 0 16.4276320722868
2  8 5 23 0 16.4276320722868
0

0101000
-82 24 +78 24 *
Ve
1.00000001776357e-007
40 -20 7.34788079488412e-015
0 0

0101101
*
Ed
 1e-007 1 1 0
1  5 0 63.5723679277132 80
2  9 1 22 63.5723679277132 80
2  10 6 23 63.5723679277132 80
0

0101000
+80 24 -76 24 *
Ve
1.00000001776357e-007
-40 -20 -15
0 0

0101101
*
Ed
 1e-007 1 1 0
1  6 0 0 15
2  11 1 26 0 15
2  12 7 0 0 15
0

0101000
+78 27 -74 27 *
Ve
1.00000001776357e-007
40 -20 -15
0 0

0101101
*
Ed
 1e-007 1 1 0
1  7 0 0 15
2  13 1 26 0 15
2  14 8 0 0 15
0

0101000
+76 27 -72 27 *
Ed
 1e-007 1 1 0
1  8 0 0 80
2  15 1 0 0 80
2  16 9 0 0 80
0

0101000
+74 28 -72 28 *
Wi

0101100
-83 11 -81 0 -79 3 +77 21 +75 21 -73 25 +71 25 -70 14 *
Ve
1e-007
-12.5 -20 1.0867189411564e-014
0 0

0101101
*
Ed
 1e-007 1 1 0
1  9 0 0 6.28318530717959
2  17 1 31 0 6.28318530717959
2  18 10 32 0 6.28318530717959
0

0101100
+68 33 -68 33 *
Wi

0101100
+67 30 *
Fa
0  1e-007 1 7

0101000
+69 8 +66 0 *
Ve
1e-007
-19.644229160576 -10 3.24519815440446
0 0

0101101
*
Ve
1e-007
19.644229160576 -10 3.24519815440444
0 0

0101101
*
Ed
 1e-007 1 1 0
1  10 0 3.33143131913242 6.09334664163696
2  19 2 36 3.33143131913242 6.09334664163696
2  20 11 37 3.33143131913242 6.09334664163696
0

0101000
-64 38 +63 38 *
Ed
 1e-007 1 1 0
1  11 0 0 10
2  21 2 14 0 10
2  22 3 0 0 10
4 G1 2 14 3 0
0

0101000
+64 15 -85 15 *
Ed
 1e-007 1 1 0
1  12 0 0 10
2  23 2 16 0 10
2  24 4 0 0 10
4 G1 2 16 4 0
0

0101000
+63 17 -84 17 *
Wi

0101100
+62 35 +61 0 -60 3 -83 11 *
Fa
0  1e-007 2 7

0101000
+59 8 *
Ve
0.00315247737695158
-23.5723679277132 -10 3.67394039744206e-015
0 0

0101101
*
Ed
 1e-007 1 1 0
1  13 0 4.90222764592731 6.28318530717959
2  25 3 0 4.90222764592731 6.28318530717959
2  26 11 39 4.90222764592731 6.28318530717959
0

0101000
+64 15 -57 15 *
Ed
 1e-007 1 1 0
1  14 0 -0 10
2  27 3 0 -0 10
2  28 5 40 -0 10
4 G1 3 0 5 40
0

0101000
+57 15 -82 15 *
Wi

0101100
+56 0 -61 0 +55 0 -81 0 *
Fa
0  1e-007 3 0

0101000
+54 0 *
Ve
0.00315247625279928
23.5723679277132 -10 3.67394039744206e-015
0 0

0101101
*
Ed
 1e-007 1 1 0
1  15 0 0 1.38095766125227
2  29 4 0 0 1.38095766125227
2  30 11 41 0 1.38095766125227
0

0101000
+52 17 -63 17 *
Ed
 1e-007 1 1 0
1  16 0 -0 10
2  31 4 0 -0 10
2  32 6 42 -0 10
4 G1 4 0 6 42
0

0101000
+52 17 -80 17 *
Wi

0101100
+51 0 -50 0 +60 0 -79 0 *
Fa
0  1e-007 4 0

0101000
+49 0 *
Ve
1.00000001776357e-007
-40 20 -7.34788079488412e-015
0 0

0101101
*
Ed
 1.00000001776357e-007 1 1 0
1  17 0 0 40
2  33 5 23 0 40
2  34 7 44 0 40
0

0101000
+47 24 -78 24 *
Ve
0.0001
-19.9965910315072 -10 3.6671374533227e-015
0 0

0101101
*
Ed
 0.0001 1 1 0
1  18 0 9.99659103150627 13.5723679277122
2  35 5 40 9.99659103150627 13.5723679277122
2  36 11 39 9.99659103150627 13.5723679277122
0

0101000
+45 15 -57 15 *
Ve
1.000000039999e-007
-12.5 20 -9.57142348695604e-015
0 0

0101101
*
Ed
 1.00000001776357e-007 1 1 0
1  19 0 52.5 80
2  37 5 23 52.5 80
2  38 12 44 52.5 80
0

0101000
+43 24 -47 24 *
Ve
34.9047820402161
-12.5 -10 4.43609471964918e-015
0 0

0101101
*
Ed
 1e-007 1 1 0
1  20 0 2.49999999999906 9.99659103150627
2  39 5 45 2.49999999999906 9.99659103150627
2  40 11 46 2.49999999999906 9.99659103150627
0

0101000
+41 28 -45 28 *
Ed
 1e-007 1 1 0
1  21 0 10 40
2  41 5 43 10 40
2  42 10 0 10 40
0

0101000
+41 47 -43 47 *
Wi

0101100
-77 21 +55 0 -46 21 +44 0 -42 21 +40 14 -39 4 *
Fa
0  1e-007 5 43

0101000
+38 8 *
Ve
1.00000001776357e-007
40 20 -7.34788079488412e-015
0 0

0101101
*
Ed
 1.00000001776357e-007 1 1 0
1  22 0 0 40
2  43 6 23 0 40
2  44 8 44 0 40
0

0101000
+76 24 -36 24 *
Ve
0.0001
19.9965910315072 -10 5.22144968779792e-015
0 0

0101101
*
Ed
 0.0001 1 1 0
1  23 0 29.9965910315081 33.5723679277141
2  45 6 42 29.9965910315081 33.5723679277141
2  46 11 41 29.9965910315081 33.5723679277141
0

0101000
+34 17 -52 17 *
Ve
2.00001001776357e-007
12.5 20 -7.34788079488412e-015
0 0

0101101
*
Ed
 1.00000001776357e-007 1 1 0
1  24 0 0 27.5
2  47 6 23 0 27.5
2  48 12 44 0 27.5
0

0101000
+36 24 -32 24 *
Ve
2.00001e-007
12.5 -10 3.67053892538238e-015
0 0

0101101
*
Ed
 1e-007 1 1 0
1  25 0 -29.9965910315081 -22.5000000000009
2  49 6 45 -29.9965910315081 -22.5000000000009
2  50 11 46 -29.9965910315081 -22.5000000000009
0

0101000
+34 28 -30 28 *
Ed
 1e-007 1 1 0
1  26 0 -40 -10
2  51 6 43 -40 -10
2  52 10 0 -40 -10
0

0101000
+32 47 -30 47 *
Wi

0101100
-75 49 -50 0 -35 49 -33 0 -31 49 +29 16 -28 2 *
Fa
0  1e-007 6 43

0101000
+27 48 *
Ve
1.00000001776357e-007
-40 20 -15
0 0

0101101
*
Ed
 1e-007 1 1 0
1  27 0 0 15
2  53 7 0 0 15
2  54 12 0 0 15
0

0101000
+47 27 -25 27 *
Ed
 1.00000001776357e-007 1 1 0
1  28 0 0 40
2  55 7 53 0 40
2  56 9 54 0 40
0

0101000
+25 55 -74 55 *
Wi

0101000
+24 0 -73 0 -46 50 +23 52 *
Fa
0  1e-007 7 0

0101000
+22 0 *
Ve
1.00000001776357e-007
40 20 -15
0 0

0101101
*
Ed
 1e-007 1 1 0
1  29 0 0 15
2  57 8 0 0 15
2  58 12 0 0 15
0

0101000
+36 27 -20 27 *
Ed
 1.00000001776357e-007 1 1 0
1  30 0 0 40
2  59 8 53 0 40
2  60 9 54 0 40
0

0101000
+72 55 -20 55 *
Wi

0101000
+71 0 -19 0 -35 50 +18 52 *
Fa
0  1e-007 8 0

0101000
+17 0 *
Ed
 1.00000001776357e-007 1 1 0
1  31 0 0 80
2  61 9 54 0 80
2  62 12 53 0 80
0

0101000
+20 55 -25 55 *
Wi

0101000
-70 0 -23 56 -15 56 -18 56 *
Fa
0  1.00000001776357e-007 9 0

0101000
+14 0 *
Ed
 1e-007 1 1 0
1  32 0 0 10
3  63 64CN 10 0 0 10
0

0101000
+68 47 -41 47 *
Ed
 1e-007 1 1 0
1  33 0 1.5707963267949 4.71238898038469
2  65 10 0 1.5707963267949 4.71238898038469
2  66 11 57 1.5707963267949 4.71238898038469
0

0101000
+30 47 -41 47 *
Ed
 1e-007 1 1 0
1  34 0 4.71238898038469 7.85398163397448
2  67 10 0 4.71238898038469 7.85398163397448
2  68 12 58 4.71238898038469 7.85398163397448
0

0101000
+43 47 -32 47 *
Wi

0101000
+39 0 +12 0 -67 30 -12 0 +11 0 +28 0 +10 0 *
Fa
0  1e-007 10 0

0101000
+9 0 *
Wi

0101100
+62 35 +56 0 +51 3 -44 0 +33 3 -40 14 -29 14 -11 4 *
Fa
0  1e-007 11 57

0101000
+7 8 *
Wi

0101000
-42 59 -24 58 +15 60 +19 58 -31 59 +10 0 *
Fa
0  1e-007 12 58

0101000
+5 0 *
Sh

0101100
-65 4 +58 4 +53 0 +48 3 -37 4 -26 4 +21 25 +16 25 +13 14 -8 4 
-6 4 +4 4 *
So

0100000
+3 0 *
Co

1100000
+2 0 *

+1 1 