DBRep_DrawableShape

CASCADE Topology V1, (c) Matra-Datavision
Locations 45
1
              1               0               0               0 
              0               1               0               0 
              0               0               1               0 
1
              1               0               0               0 
              0               1               0               0 
              0               0               1               0 
1
              1               0               0               0 
              0               1               0               0 
              0               0               1               0 
2  2 1 3 -1 0
1
              1               0               0               0 
              0               1               0               0 
              0               0               1               0 
1
              1               0               0               0 
              0               1               0               0 
              0               0               1               0 
2  5 1 6 -1 0
2  1 -1 3 1 2 -1 6 1 5 -1 0
1
              1               0               0               0 
              0               1               0               0 
              0               0               1               0 
1
              1               0               0               0 
              0               1               0               0 
              0               0               1               0 
2  9 1 10 -1 5 1 6 -1 0
2  10 1 9 -1 0
2  9 -1 0
2  1 -1 3 1 2 -1 6 1 5 -1 10 1 9 -1 0
1
              1               0               0              -0 
              0               1               0               0 
              0               0               1               5 
2  15 1 6 -1 0
2  5 1 15 -1 0
2  6 1 15 -1 0
2  1 -1 3 1 2 -1 6 1 15 -1 0
2  10 -1 5 1 6 -1 2 1 3 -1 0
2  9 1 10 -1 5 1 6 -1 2 1 3 -1 0
2  1 -1 0
2  1 -1 3 1 2 -1 0
1
              1               0               0               0 
              0               1               0               0 
              0               0               1              15 
2  15 1 6 -1 24 1 0
2  24 -1 6 1 15 -1 0
2  15 -1 0
2  1 -1 3 1 2 -1 24 -1 6 1 15 -1 0
1
              1               0               0              -0 
              0               1               0               0 
              0               0               1               5 
1
              1               0               0              -0 
              0               1               0              -0 
              0               0               1             -15 
2  29 1 3 -1 30 1 0
2  30 -1 3 1 29 -1 0
2  29 -1 0
2  1 -1 30 -1 3 1 29 -1 0
2  6 -1 24 1 2 1 3 -1 0
2  3 -1 30 1 0
2  15 1 6 -1 2 1 3 -1 0
1
              1               0               0               0 
              0               1               0               0 
              0               0               1               5 
2  10 -1 38 1 5 1 15 -1 0
2  15 1 6 -1 24 1 2 1 3 -1 0
2  10 -1 38 1 5 1 6 -1 2 1 3 -1 0
2  29 1 3 -1 0
2  10 -1 38 1 5 1 6 -1 2 1 29 -1 0
2  1 -1 3 1 29 -1 0
2  3 -1 0
Curve2ds 80
1 0 0 0 -1 
1 90 0 0 -1 
1 0 0 1 0 
1 0 0 1 0 
1 300 -5 -1 0 
1 0 -0 1 0 
1 300 0 0 -1 
1 0 0 0 -1 
1 0 0 0 -1 
1 300 0 0 -1 
1 0 0 1 0 
1 0 -90 0 1 
1 90 -5 -1 0 
1 0 0 1 0 
1 300 0 0 -1 
1 0 0 1 0 
1 300 -90 -1 0 
1 0 -0 1 0 
2 15 -75 1 0 -0 1 10
1 0 -5 1 0 
1 0 -0 0 -1 
1 90 0 0 -1 
1 0 -15 1 0 
1 -300 90 1 0 
1 300 0 0 -1 
1 0 0 0 -1 
1 90 -5 -1 0 
1 0 0 1 0 
1 90 0 0 -1 
1 0 -0 0 -1 
1 300 -5 -1 -0 
1 0 0 1 0 
1 0 -15 1 0 
1 0 90 0 -1 
1 90 0 0 -1 
1 0 0 0 -1 
1 0 0 0 -1 
1 6.2831853071795862 0 0 -1 
1 0 -15 1 0 
2 10 0 -1 0 0 1 10
1 0 0 0 -1 
1 300 0 0 -1 
1 0 -15 1 0 
1 -300 0 0 1 
1 0 0 -1 0 
1 0 -15 1 0 
1 -5 5 -1 0 
1 0 -15 1 0 
1 -295 5 0 1 
1 0 -15 1 0 
1 -295 85 1 0 
1 0 -15 1 0 
1 -5 85 0 -1 
1 0 -15 1 0 
1 0 0 0 -1 
1 80 0 0 -1 
1 0 0 1 0 
1 5 -85 1 0 
1 0 0 1 0 
1 5 -85 1 0 
1 290 0 0 -1 
1 0 0 0 -1 
1 0 0 1 0 
1 295 -85 0 1 
1 80 0 0 -1 
1 0 -0 0 -1 
1 0 -0 1 0 
1 295 -5 -1 0 
1 290 0 0 -1 
1 0 0 0 -1 
1 0 0 1 0 
1 5 -5 0 -1 
1 0 0 1 0 
1 5 -5 0 -1 
2 15 -75 1 0 -0 1 10
2 10 0 -1 0 0 1 10
2 15 -75 1 0 -0 1 10
2 10 0 -1 0 0 1 10
2 15 -75 1 0 -0 1 10
2 10 0 -1 0 0 1 10
Curves 40
1 0 45 0 0 0 1 
1 0 45 0 1 0 0 
1 300 45 0 -1 0 0 
1 300 45 0 0 0 1 
1 0 -45 0 0 0 1 
1 0 -45 0 0 1 0 
1 0 45 0 0 -1 0 
1 300 45 0 0 -1 0 
1 300 -45 0 -1 0 0 
2 15 -30 0 0 0 1 1 0 -0 -0 1 0 10
1 300 45 5 0 0 1 
1 300 45 0 -1 0 0 
1 0 45 5 0 0 1 
1 300 -45 0 0 1 0 
1 300 -45 0 0 0 1 
1 0 -45 0 1 0 0 
1 0 45 0 0 -1 0 
1 0 -45 5 0 0 1 
1 25 -30 5 -0 -0 -1 
2 15 -30 0 0 0 1 1 0 -0 -0 1 0 10
1 300 -45 5 0 0 1 
1 300 -45 0 0 1 0 
1 0 -45 0 1 0 0 
1 5 -40 0 1 0 0 
1 295 -40 0 0 1 0 
1 295 40 0 -1 0 0 
1 5 40 0 0 -1 0 
1 5 -40 5 0 0 1 
1 5 -40 0 1 0 0 
1 5 -40 0 1 0 0 
1 295 -40 5 0 0 1 
1 295 -40 0 0 1 0 
1 295 40 5 0 0 1 
1 295 40 0 -1 0 0 
1 5 40 5 0 0 1 
1 5 40 0 0 -1 0 
1 5 40 0 0 -1 0 
2 15 -30 0 0 0 1 1 0 -0 -0 1 0 10
2 15 -30 0 0 0 1 1 0 -0 -0 1 0 10
2 15 -30 0 0 0 1 1 0 -0 -0 1 0 10
Polygon3D 0
PolygonOnTriangulations 0
Surfaces 19
1 0 45 0 0 1 0 1 0 0 0 0 -1 
1 0 -45 0 -1 0 0 0 1 0 0 0 -1 
1 0 45 0 -0 0 1 1 0 0 0 1 -0 
1 300 45 5 0 -1 0 -1 0 0 -0 -0 -1 
1 300 45 0 1 0 -0 0 -1 0 0 -0 -1 
1 300 -45 0 0 -1 0 -1 0 0 -0 -0 -1 
1 0 45 5 1 0 -0 0 -1 0 0 -0 -1 
2 15 -30 5 0 0 1 1 0 -0 -0 1 0 10
1 300 -45 5 -1 0 0 0 1 0 0 0 -1 
1 0 -45 5 0 0 -1 -1 0 -0 0 1 0 
1 0 -45 5 0 1 0 1 0 0 0 0 -1 
1 25 -30 5 -0 0 -1 -1 0 0 0 1 0 
1 5 -40 5 0 1 0 1 0 0 0 0 -1 
1 295 -40 5 -1 0 0 0 1 0 0 0 -1 
1 295 40 5 0 -1 0 -1 0 0 -0 -0 -1 
1 5 40 5 1 0 -0 0 -1 0 0 -0 -1 
1 0 45 0 -0 0 1 1 0 0 0 1 -0 
1 0 45 0 -0 0 1 1 0 0 0 1 -0 
1 25 -30 5 -0 0 -1 -1 0 0 0 1 0 
Triangulations 0

TShapes 107
Ve
1e-07
0 45 0
0 0

0101101
*
Ve
1e-07
0 45 5
0 0

0101101
*
Ed
 1e-07 1 1 0
1  1 0 0 5
2  1 1 0 0 5
2  2 2 0 0 5
0

0101000
+107 8 -106 8 *
Ve
1e-07
300 45 0
0 0

0101101
*
Ed
 1e-07 1 1 0
1  2 0 0 300
2  3 1 12 0 300
2  4 3 13 0 300
0

0101000
+107 14 -104 14 *
Ve
1e-07
300 45 5
0 0

0101101
*
Ed
 1e-07 1 1 0
1  3 0 0 300
2  5 1 17 0 300
2  6 4 18 0 300
0

0101000
+102 19 -106 19 *
Ed
 1e-07 1 1 0
1  4 0 0 5
2  7 1 0 0 5
2  8 5 0 0 5
0

0101000
+104 8 -102 8 *
Wi

0101000
+105 7 -103 11 -101 16 -100 7 *
Fa
0  1e-07 1 7

0101000
+99 0 *
Ve
1e-07
0 -45 0
0 0

0101101
*
Ve
1e-07
0 -45 5
0 0

0101101
*
Ed
 1e-07 1 1 0
1  5 0 0 5
2  9 2 0 0 5
2  10 6 0 0 5
0

0101000
+97 8 -96 8 *
Ed
 1e-07 1 1 0
1  6 0 0 90
2  11 2 12 0 90
2  12 3 13 0 90
0

0101000
+97 14 -107 14 *
Ed
 1e-07 1 1 0
1  7 0 0 90
2  13 2 17 0 90
2  14 7 18 0 90
0

0101000
+106 19 -96 19 *
Wi

0101000
+95 7 -94 11 -93 16 -105 7 *
Fa
0  1e-07 2 7

0101000
+92 0 *
Ve
1e-07
300 -45 0
0 0

0101101
*
Ed
 1e-07 1 1 0
1  8 0 0 90
2  15 3 13 0 90
2  16 5 12 0 90
0

0101000
+104 14 -90 14 *
Ed
 1e-07 1 1 0
1  9 0 0 300
2  17 3 13 0 300
2  18 6 12 0 300
0

0101000
+90 14 -97 14 *
Wi

0101000
-103 21 -94 21 -89 21 -88 21 *
Ve
2.00001e-07
25 -30 0
0 0

0101101
*
Ed
 1e-07 1 1 0
1  10 0 0 6.28318530717959
2  19 3 20 0 6.28318530717959
2  20 8 0 0 6.28318530717959
0

0101100
+86 22 -86 22 *
Wi

0101000
-85 0 *
Fa
0  1e-07 3 20

0101000
+87 0 +84 0 *
Ve
1e-07
300 45 20
0 0

0101101
*
Ed
 1e-07 1 1 0
1  11 0 0 15
2  21 4 0 0 15
2  22 9 0 0 15
0

0101000
+102 23 -82 23 *
Ve
1e-07
0 45 20
0 0

0101101
*
Ed
 1e-07 1 1 0
1  12 0 0 300
2  23 4 26 0 300
2  24 10 27 0 300
0

0101000
+82 28 -80 28 *
Ed
 1e-07 1 1 0
1  13 0 0 15
2  25 4 0 0 15
2  26 7 0 0 15
0

0101000
+106 23 -80 23 *
Wi

0101000
+81 0 -101 16 +79 25 -78 0 *
Fa
0  1e-07 4 0

0101000
+77 0 *
Ve
1e-07
300 -45 5
0 0

0101101
*
Ed
 1e-07 1 1 0
1  14 0 0 90
2  27 5 17 0 90
2  28 9 18 0 90
0

0101000
+75 19 -102 19 *
Ed
 1e-07 1 1 0
1  15 0 0 5
2  29 5 0 0 5
2  30 6 0 0 5
0

0101000
+90 8 -75 8 *
Wi

0101000
+100 7 -89 11 -74 16 -73 7 *
Fa
0  1e-07 5 7

0101000
+72 0 *
Ed
 1e-07 1 1 0
1  16 0 0 300
2  31 6 17 0 300
2  32 11 18 0 300
0

0101000
+96 19 -75 19 *
Wi

0101000
+73 7 -88 11 -70 16 -95 7 *
Fa
0  1e-07 6 7

0101000
+69 0 *
Ve
1e-07
0 -45 20
0 0

0101101
*
Ed
 1e-07 1 1 0
1  17 0 0 90
2  33 7 26 0 90
2  34 10 27 0 90
0

0101000
+80 28 -67 28 *
Ed
 1e-07 1 1 0
1  18 0 0 15
2  35 7 0 0 15
2  36 11 0 0 15
0

0101000
+96 23 -67 23 *
Wi

0101000
+78 0 -93 16 +66 25 -65 0 *
Fa
0  1e-07 7 0

0101000
+64 0 *
Ve
1.0000100116861e-07
25 -30 -10
0 0

0101101
*
Ed
 1e-07 1 1 0
1  19 0 5 15
3  37 38CN 8 0 5 15
0

0101000
+86 22 -62 22 *
Ed
 1e-07 1 1 0
1  20 0 0 6.28318530717959
2  39 8 32 0 6.28318530717959
2  40 12 33 0 6.28318530717959
0

0101100
+62 34 -62 34 *
Wi

0101000
-85 0 -61 0 +60 31 +61 0 *
Fa
0  1e-07 8 0

0101000
+59 0 *
Ve
1e-07
300 -45 20
0 0

0101101
*
Ed
 1e-07 1 1 0
1  21 0 0 15
2  41 9 0 0 15
2  42 11 0 0 15
0

0101000
+75 23 -57 23 *
Ed
 1e-07 1 1 0
1  22 0 0 90
2  43 9 26 0 90
2  44 10 27 0 90
0

0101000
+57 28 -82 28 *
Wi

0101000
+56 0 -74 16 +55 25 -81 0 *
Fa
0  1e-07 9 0

0101000
+54 0 *
Ed
 1e-07 1 1 0
1  23 0 0 300
2  45 10 27 0 300
2  46 11 26 0 300
0

0101000
+67 28 -57 28 *
Wi

0101100
+52 0 +55 0 +79 0 +66 0 *
Ve
1e-07
5 -40 20
0 0

0101101
*
Ve
1e-07
295 -40 20
0 0

0101101
*
Ed
 1e-07 1 1 0
1  24 0 0 290
2  47 10 27 0 290
2  48 13 26 0 290
0

0101000
+50 28 -49 28 *
Ve
1e-07
295 40 20
0 0

0101101
*
Ed
 1e-07 1 1 0
1  25 0 0 80
2  49 10 27 0 80
2  50 14 26 0 80
0

0101000
+49 28 -47 28 *
Ve
1e-07
5 40 20
0 0

0101101
*
Ed
 1e-07 1 1 0
1  26 0 0 290
2  51 10 27 0 290
2  52 15 26 0 290
0

0101000
+47 28 -45 28 *
Ed
 1e-07 1 1 0
1  27 0 0 80
2  53 10 27 0 80
2  54 16 26 0 80
0

0101000
+45 28 -50 28 *
Wi

0101100
+48 0 +46 0 +44 0 +43 0 *
Fa
0  1e-07 10 0

0101000
-51 15 +42 15 *
Wi

0101000
+65 0 -70 16 +52 25 -56 0 *
Fa
0  1e-07 11 0

0101000
+40 0 *
Wi

0101100
+60 0 *
Fa
0  1e-07 12 0

0101000
-38 29 *
Ve
1e-07
5 -40 5
0 0

0101101
*
Ed
 1e-07 1 1 0
1  28 0 0 15
2  55 13 0 0 15
2  56 16 0 0 15
0

0101000
+36 23 -50 23 *
Ve
1.0000100116861e-07
15 -40 5
0 0

0101101
*
Ed
 1e-07 1 1 0
1  29 0 0 10
2  57 13 18 0 10
2  58 17 39 0 10
0

0101000
+36 19 -34 19 *
Ve
1e-07
295 -40 5
0 0

0101101
*
Ed
 1e-07 1 1 0
1  30 0 10 290
2  59 13 18 10 290
2  60 18 39 10 290
0

0101000
+34 19 -32 19 *
Ed
 1e-07 1 1 0
1  31 0 0 15
2  61 13 0 0 15
2  62 14 0 0 15
0

0101000
+32 23 -49 23 *
Wi

0101000
+35 4 -33 37 +48 40 -31 37 -30 4 *
Fa
0  1e-07 13 4

0101000
+29 0 *
Ve
1e-07
295 40 5
0 0

0101101
*
Ed
 1e-07 1 1 0
1  32 0 0 80
2  63 14 18 0 80
2  64 18 39 0 80
0

0101000
+32 19 -27 19 *
Ed
 1e-07 1 1 0
1  33 0 0 15
2  65 14 0 0 15
2  66 15 0 0 15
0

0101000
+27 23 -47 23 *
Wi

0101000
+30 0 -26 16 +46 25 -25 0 *
Fa
0  1e-07 14 0

0101000
+24 0 *
Ve
1e-07
5 40 5
0 0

0101101
*
Ed
 1e-07 1 1 0
1  34 0 0 290
2  67 15 18 0 290
2  68 18 39 0 290
0

0101000
+27 19 -22 19 *
Ed
 1e-07 1 1 0
1  35 0 0 15
2  69 15 0 0 15
2  70 16 0 0 15
0

0101000
+22 23 -45 23 *
Wi

0101000
+25 0 -21 16 +44 25 -20 0 *
Fa
0  1e-07 15 0

0101000
+19 0 *
Ve
1.0000100116861e-07
5 -30 5
0 0

0101101
*
Ed
 1e-07 1 1 0
1  36 0 0 70
2  71 16 18 0 70
2  72 18 39 0 70
0

0101000
+22 19 -17 19 *
Ed
 1e-07 1 1 0
1  37 0 70 80
2  73 16 18 70 80
2  74 17 39 70 80
0

0101000
+17 19 -36 19 *
Wi

0101000
+20 4 -16 37 +43 40 -15 37 -35 4 *
Fa
0  1e-07 16 4

0101000
+14 0 *
Ed
 1e-07 1 1 0
1  38 0 3.14159265358979 4.71238898038469
2  75 17 43 3.14159265358979 4.71238898038469
2  76 19 33 3.14159265358979 4.71238898038469
0

0101000
+17 44 -34 44 *
Wi

0101000
+33 37 +15 37 -12 42 *
Fa
0  1e-07 17 41

0101000
+11 0 *
Ve
1.0000100116861e-07
25 -30 5
0 0

0101101
*
Ed
 1e-07 1 1 0
1  39 0 4.71238898038469 6.28318530717959
2  77 18 43 4.71238898038469 6.28318530717959
2  78 19 33 4.71238898038469 6.28318530717959
0

0101000
+34 44 -9 44 *
Ed
 1e-07 1 1 0
1  40 0 0 3.14159265358979
2  79 18 43 0 3.14159265358979
2  80 19 33 0 3.14159265358979
0

0101000
+9 44 -17 44 *
Wi

0101000
+31 37 -8 42 -7 42 +16 37 +21 37 +26 37 *
Fa
0  1e-07 18 41

0101000
+6 0 *
Wi

0101000
-7 42 -8 42 -12 42 *
Fa
0  1e-07 19 45

0101000
+4 0 *
Sh

0101000
+98 4 +91 4 -83 0 -76 4 +71 4 +68 4 -63 4 +58 0 -53 4 -41 35 
-39 4 +37 36 +28 0 +23 4 +18 4 +13 0 +10 0 +5 0 -3 0 *
So

0100000
+2 0 *

+1 1 