DBRep_DrawableShape

CASCADE Topology V1, (c) Matra-Datavision
Locations 37
1
              1               0               0             250 
              0               1               0            6750 
              0               0               1               0 
1
              1               0               0               0 
              0               1               0               0 
              0               0               1               0 
1
              1               0               0               0 
              0               1               0               0 
              0               0               1               0 
1
              1               0               0               0 
              0               1               0               0 
              0               0               1               0 
2  3 1 4 1 0
2  1 -1 0
2  1 -1 2 -1 0
1
              1               0               0             500 
              0               1               0             225 
              0               0               1              10 
2  8 1 3 1 4 1 0
2  8 -1 0
1
              1               0               0               0 
              0               1               0            -225 
              0               0               1               0 
2  11 1 4 -1 3 -1 8 -1 0
2  1 -1 4 -1 3 -1 8 -1 0
2  1 -1 4 -1 3 -1 0
1
              1               0               0             500 
              0               1               0             225 
              0               0               1             410 
2  15 1 3 1 4 1 0
2  15 -1 0
2  1 -1 4 -1 3 -1 15 -1 0
1
              1               0               0               0 
              0               1               0               0 
              0               0               1             550 
1
              1               0               0               0 
              0               1               0               0 
              0               0               1               0 
2  19 1 20 1 0
2  1 -1 11 -1 0
1
              1               0               0             500 
              0               1               0             225 
              0               0               1             410 
1
              1               0               0               0 
              0               1               0               0 
              0               0               1               0 
2  23 1 24 1 0
2  3 1 24 -1 23 -1 0
2  23 -1 0
2  1 -1 4 -1 24 -1 23 -1 0
2  15 1 3 1 0
2  1 -1 20 -1 0
2  1 -1 4 -1 24 -1 0
1
              1               0               0             500 
              0               1               0             225 
              0               0               1              30 
2  32 1 24 1 0
2  32 -1 0
2  1 -1 4 -1 24 -1 32 -1 0
2  24 1 4 1 0
2  19 -1 0
Curve2ds 174
7 0 0  8 23 4  2.237223815131733 -17.090183963544234  2.269584918056248 -17.008768939008213  2.3036095943965766 -16.929381255519271  2.3395928224644176 -16.852140043999842  2.3778710305276887 -16.777341057896994  2.4188193520521883 -16.705441391841845  2.4629334621639165 -16.637059379402732  2.5108024740708026 -16.572929348378565  2.5893026730494473 -16.484870273118492  2.6162651629361608 -16.45712362207119  2.6444618737893908 -16.430741050282951  2.6740027171860086 -16.40585058841808  2.7049928148757072 -16.382587405720088  2.7375324987810079 -16.361093810011699  2.7717173109972544 -16.341519247694819  2.8438476282353027 -16.306380605318925  2.8818558932080522 -16.290802230753041  2.9217299763138844 -16.277496562389942  2.9633963947793154 -16.266639879775074  3.0066410054543597 -16.258373359662237  3.0511090048125298 -16.252803076013613  3.096304928950838 -16.249999999999769  3.1415926535897931 -16.249999999999634 
 0 9 0.503650932205575 7 0.75083135600251028 7 1 9
7 0 0  8 23 4  3.256703052239732 0.83636363636363642  3.2538517401239484 0.83477382611151407  3.2507087312827969 0.83314854257766546  3.2472265098667337 0.83148406193257751  3.2433465764813239 0.82977899757810281  3.2389995231066147 0.82803453895308976  3.2340926889826007 0.82625643764004264  3.2285131033017729 0.82445567229869698  3.2189176036814597 0.82177458991816321  3.2155571647676711 0.8208939016525949  3.2119731707427652 0.82001773256266264  3.2081445751863233 0.8191509143618626  3.2040513260838295 0.81830053942797365  3.1996743658266693 0.81747596080305807  3.1949956312121266 0.81668879219345991  3.1849602771632868 0.81521110458857449  3.1795955676650633 0.8145163828751697  3.1738890752815276 0.8138929406130212  3.1678528435148792 0.81336223496425475  3.1615258090367098 0.81294298246969543  3.154973801687996 0.81265115904886753  3.1482895444791059 0.81249999999999323  3.1415926535897971 0.81249999999999367 
 0 9 0.503650932205575 7 0.75083135600251028 7 1 9
8 -220 -0
1 3.1415926535897931 0 0 1 
1 3.1415926535897931 0 0 1 
1 0 -220 1 0 
8 1.570796326794901 3.1415926535897931
1 1.5707963267948934 0 0 1 
7 0 0  9 10 2  -2.8837155598127397e-15 -194.99999999999989  0.17453292243509919 -195.00000000436322  0.34906584386460504 -195.85673641815362  0.52359876531709126 -197.57020971633779  0.69813168671466919 -200.09008636211456  0.87266460818449865 -203.31571106165165  1.0471975295940528 -207.10228166286493  1.2217304510458609 -211.27335308971919  1.3962633724808156 -215.63667614214785  1.5707962949159175 -219.99999920302531 
 3.1415926535897931 10 4.7123889485057111 10
7 0 0  8 9 2  -4.2512667127304448e-16 179.99999999999994  0.19634953761448939 180.00000000490869  0.39269907422866718 181.10151936202067  0.58904861084304994 183.3045487128673  0.78539814745616843 186.51853097690758  0.98174768407150959 190.56216805497974  1.1780972206866513 195.18252121805176  1.3744467573014283 200.09126076266321  1.570796294915918 204.99999920302542 
 3.1415926535897931 9 4.7123889485057111 9
8 -220 -0
1 0 0 0 1 
1 6.2831853071795862 0 0 1 
7 0 0  7 26 5  -2.6645352591003757e-15 -28.75000000000021  0.1002471442721502 -28.750000000000572  0.20006355444531287 -28.621396093132855  0.29759359640470162 -28.366219945330435  0.39250068505268843 -28.007537944464268  0.48466080283111879 -27.569120896582227  0.57434107088199049 -27.071668287904785  0.71909314118830725 -26.177777129134977  0.77516470968979512 -25.808105228852043  0.830775270672933 -25.422672144330072  0.88610326787519877 -25.02459259562124  0.94131961030452249 -24.616662049426573  0.99660773279474579 -24.201396432988133  1.13119553514308 -23.183359771629  1.2106619473382372 -22.57633157988003  1.2913077205259231 -21.96555406641107  1.3736407670131427 -21.358097864354555  1.4581026137395723 -20.76279311856667  1.545119543176078 -20.189941715970956  1.7159087967840696 -19.164182128512934  1.7993583640276825 -18.703628807857655  1.8848972263745765 -18.280619272481939  1.9720965357655782 -17.9048172815667  2.0604385817774098 -17.581861099773541  2.1492041727223743 -17.311626395933683  2.237223815131733 -17.090183963544234 
 0 8 0.29536552604314187 6 0.4857757595982935 6 0.7564811175990237 6 1 8
7 0 0  7 26 5  3.1415926535897953 0.93749999999999245  3.1555400823580944 0.93749999999999223  3.1694278043130635 0.93676714364652902  3.1827917345545358 0.93531335166083829  3.1953954182147633 0.93324736390033547  3.207112252689122 0.93066846772695  3.2179072703772609 0.92766703323982913  3.234176489499855 0.92210335029509749  3.2401811435377255 0.91976309110178112  3.245816473557563 0.91727471778614034  3.2510803538878537 0.91464684121332163  3.255967209680533 0.91188598208152327  3.2604678273162997 0.90899648897186702  3.270395276850171 0.90169083048776888  3.2754029245404412 0.89715163336575676  3.2795596923300128 0.89236175438145404  3.2827779372186101 0.88732630478811114  3.2849382560499971 0.88206116347695873  3.2858830520413171 0.87659597074776674  3.2850454365752935 0.86594365501828963  3.2835262992734249 0.86076942715008398  3.2807530020920437 0.85555292030904551  3.2766448191224109 0.85039223194344604  3.2711835961912317 0.84539781539681114  3.2644583958512947 0.84068779460437859  3.256703052239732 0.83636363636363642 
 0 8 0.29536552604314187 6 0.4857757595982935 6 0.7564811175990237 6 1 8
7 0 0  8 37 6  3.1415926535897976 0.81249999999999356  3.1243549460638307 0.81249999999999389  3.1072359748718021 0.81347050288543166  3.0902318182617434 0.81538895772998288  3.0735205383314179 0.81832271018802505  3.057459948342288 0.82234453907930039  3.0425541312944842 0.82750160625751723  3.0294579649531701 0.83379431275376914  3.0133664744509749 0.84483821555024607  3.008578085711946 0.84883829342680206  3.004608348891975 0.85302240353360781  3.0015253936535458 0.85732028310605246  2.999338906367039 0.86166349422416888  2.9980164624339682 0.86598904138556887  2.9974963468213796 0.87023978453040707  2.9979113205342096 0.87906362322018217  2.9990611790542969 0.88361637842336116  3.0010238739002517 0.88799363538432063  3.0036947387673525 0.89218123569858354  3.0069871707277258 0.89617303908798851  3.0108332674144718 0.89996865953761596  3.0151848040496776 0.90357243739629733  3.0234535808946803 0.909418330972386  3.0271263941210003 0.91174932312882018  3.0310284300824124 0.9139856224199836  3.0351512902689302 0.91612715685800683  3.0394885930263702 0.9181730014463384  3.0440356919305889 0.92012153182636436  3.0487897253664045 0.92197043072296014  3.0626444039347178 0.92684755896286375  3.0721910544006339 0.9296442491948389  3.0824074494289042 0.93209857973343391  3.0932863179811121 0.93416869981532069  3.1047793520592468 0.9357993795717614  3.1167885276517904 0.93692863146703154  3.1291496365290672 0.93749999999999267  3.1415926535897962 0.93749999999999267 
 0 9 0.30635505134647278 7 0.46400468196284778 7 0.64372069100015417 7 0.77127632155676062 7 1 9
7 0 0  8 37 6  3.1415926535897931 -16.249999999999638  3.2581626507341479 -16.249999999999297  3.3739289502114276 -16.268521202952446  3.4915113441661494 -16.305199696464403  3.6121329311160921 -16.368226296674806  3.7367515279430346 -16.473224273187526  3.8658298709734806 -16.646462752776063  3.9999377351025145 -16.927716073165264  4.2103039918486171 -17.562503817583682  4.2827268596023371 -17.813724023564543  4.3552636587377673 -18.101620080094676  4.4273077710757853 -18.425318753003239  4.4983985452011561 -18.781456642368191  4.5681559164087568 -19.164519704461476  4.6362219310834938 -19.567473516494118  4.7774106804513634 -20.454866776219653  4.8501925388919087 -20.94461022126136  4.9207568574389073 -21.444737582339748  4.9893539018622253 -21.949169502749026  5.0562436979300642 -22.452750175391248  5.1217039414195789 -22.951393427118902  5.1860625341100359 -23.442060939344472  5.2949416070445237 -24.263702536921357  5.3397472270473436 -24.599304812631878  5.3842785420543144 -24.92842234004366  5.4286376220259625 -25.249982329405221  5.4729174597438446 -25.562855846204513  5.5172082153562654 -25.865858000644081  5.561602532755419 -26.157736098021996  5.686168802510414 -26.938163252094398  5.7666943761776048 -27.398475482710921  5.8485612269804177 -27.811886156169862  5.9321553929026631 -28.167428416023796  6.0176127765517311 -28.451536358172138  6.1049070829715495 -28.649732801154141  6.1937511220555965 -28.749999999999897  6.2831853071795862 -28.75000000000022 
 0 9 0.30635505134647278 7 0.46400468196284778 7 0.64372069100015417 7 0.77127632155676062 7 1 9
1 0 0 1 0 
3 500 450 1 0 -0 1 150 100
1 6.2831853071795862 0 0 1 
1 0 0 0 1 
1 0 1 1 0 
3 0 0 1 0 -0 1 250 185
7 0 0  9 10 2  4.7123890127376979 -219.9999991911746  4.8869219351201298 -215.63667613161388  5.0614548564823831 -211.27335308225449  5.2359877779239099 -207.10228164941554  5.4105206989859909 -203.31571106832507  5.5850536207877184 -200.09008634320116  5.7595865419159509 -197.57020972031592  5.9341194634273027 -195.85673641578893  6.1086523847971526 -195.00000000436322  6.2831853071795845 -194.99999999999989 
 1.5707963591479046 10 3.1415926535897931 10
7 0 0  8 9 2  4.7123890127376971 204.99999919117471  4.9087385502929335 200.09126075229383  5.1050880868488928 195.18252120947156  5.3014376234025526 190.56216804930983  5.4977871599627566 186.51853097225546  5.6941366965127767 183.30454871157184  5.8904862330699101 181.10151936110955  6.0868357696243498 180.00000000490869  6.2831853071795862 179.99999999999994 
 1.5707963591479046 9 3.1415926535897931 9
1 0 -220 1 0 
7 0 0  1 2 2  1.5707963267948937 3.1415926535897931  1.5707963267948937 4.7123889823846845 
 3.1415926535897931 2 4.712388980384687 2
8 1.570796326794901 3.1415926535897931
1 0 0 0 1 
1 0 205 1 0 
8 0 1.5707963267948934
1 0 1.570796326794901 1 0 
8 0 1.5707963267948934
1 0 3.1415926535897931 1 0 
8 0 1.5707963267948937
1 0 3.1415926535897931 1 0 
8 0 205
1 0 0 0 1 
1 6.2831853071795862 0 0 1 
8 0 205
1 3.1415926535897931 0 0 1 
1 3.1415926535897931 0 0 1 
1 -1.5707963267948966 14.999999999999886 1 0 
2 65 225 0 1 1 -0 25
1 0 0 0 1 
1 10 0 0 -1 
1 0 900 1 0 
1 10 0 0 1 
1 0 0 1 0 
1 10 0 0 1 
1 1500 0 0 1 
1 10 0 0 -1 
3 0 0 1 0 -0 1 170 105
1 0 0 1 0 
1 0 205 1 0 
8 3.1415926535897931 4.7123889823846845
1 0 0 0 1 
1 -1.5707963267948966 14.999999999999886 1 0 
2 65 225 0 1 1 -0 25
8 0 1.5707963267948937
1 0 4.7123889823846845 1 0 
1 19.999999999999996 0 0 1 
1 1.5707963267948966 0 0 1 
1 0 19.999999999999996 1 0 
1 1.5707963267948966 0 0 1 
1 0 430 1 0 
1 1.5707963267948966 0 0 1 
1 150 0 0 1 
1 1.5707963267948966 0 0 1 
1 0 0 1 0 
1 0 0 1 0 
1 0 -900 1 0 
1 0 0 1 0 
1 0 0 0 -1 
1 0 0 0 1 
1 0 0 0 1 
1 0 900 1 0 
1 0 1500 1 0 
1 0 -900 1 0 
1 0 0 0 1 
1 0 0 1 0 
1 0 1500 1 0 
1 0 0 1 0 
1 0 0 0 -1 
1 1500 0 0 1 
1 6.2831853071795862 0 0 1 
1 0 0 0 1 
1 0 1 1 0 
3 0 0 1 0 -0 1 65 50
8 4.7123889803846897 6.2831853071795862
1 6.2831853071795862 19.999999999999996 -1 -0 
8 4.7123889803846897 6.2831853071795862
1 0 -6.2831853071795862 0 1 
1 0 0 0 1 
1 20 0 0 -1 
8 4.7123889803846897 6.2831853071795862
1 6.2831853071795862 430 -1 -0 
8 4.7123889803846897 6.2831853071795862
1 0 -6.2831853071795862 0 1 
8 4.7123889803846897 6.2831853071795862
1 6.2831853071795862 19.999999999999996 -1 -0 
8 4.7123889803846897 6.2831853071795862
1 1.5707963267948966 -6.2831853071795862 0 1 
1 0 0 0 1 
1 20 0 0 1 
8 4.7123889803846897 6.2831853071795862
1 6.2831853071795862 150 -1 -0 
8 4.7123889803846897 6.2831853071795862
1 1.5707963267948966 -6.2831853071795862 0 1 
8 4.7123889803846897 6.2831853071795862
1 6.2831853071795862 19.999999999999996 -1 -0 
8 4.7123889803846897 6.2831853071795862
1 1.5707963267948966 -6.2831853071795862 0 1 
1 0 0 0 1 
1 20 0 0 1 
8 4.7123889803846897 6.2831853071795862
1 6.2831853071795862 150 -1 -0 
8 4.7123889803846897 6.2831853071795862
1 1.5707963267948966 -6.2831853071795862 0 1 
8 4.7123889803846897 6.2831853071795862
1 6.2831853071795862 19.999999999999996 -1 -0 
8 4.7123889803846897 6.2831853071795862
1 0 -6.2831853071795862 0 1 
1 0 0 0 1 
1 20 0 0 -1 
8 4.7123889803846897 6.2831853071795862
1 6.2831853071795862 430 -1 -0 
8 4.7123889803846897 6.2831853071795862
1 0 -6.2831853071795862 0 1 
1 0 -1.5707963267948966 1 0 
1 0 0 1 0 
1 0 20 1 0 
1 0 -19.999999999999996 1 0 
1 0 0 0 1 
1 330 0 0 -1 
1 0 0 0 1 
1 0 -430 1 0 
1 0 0 0 1 
1 0 -1.5707963267948966 1 0 
1 0 0 1 0 
1 0 20 1 0 
1 0 19.999999999999996 1 0 
1 1.5707963267948966 0 0 1 
1 330 0 0 1 
1 0 0 0 1 
1 0 150 1 0 
1 1.5707963267948966 0 0 1 
1 0 -1.5707963267948966 1 0 
1 0 0 1 0 
1 0 20 1 0 
1 0 19.999999999999996 1 0 
1 1.5707963267948966 0 0 1 
1 330 0 0 1 
1 0 0 0 1 
1 0 150 1 0 
1 1.5707963267948966 0 0 1 
1 0 -1.5707963267948966 1 0 
1 0 0 1 0 
1 0 20 1 0 
1 0 -19.999999999999996 1 0 
1 0 0 0 1 
1 330 0 0 -1 
1 0 0 0 1 
1 0 -430 1 0 
1 0 0 0 1 
1 0 330 1 0 
1 0 0 1 0 
8 4.7123889803846897 6.2831853071795862
1 6.2831853071795862 19.999999999999996 -1 -0 
8 4.7123889803846897 6.2831853071795862
1 0 -6.2831853071795862 0 1 
1 1.5707963267948966 0 0 1 
1 19.999999999999996 0 0 1 
1 0 430 1 0 
1 0 0 1 0 
8 4.7123889803846897 6.2831853071795862
1 6.2831853071795862 330 -1 -0 
8 4.7123889803846897 6.2831853071795862
1 0 -6.2831853071795862 0 1 
8 4.7123889803846897 6.2831853071795862
1 6.2831853071795862 19.999999999999996 -1 -0 
8 4.7123889803846897 6.2831853071795862
1 1.5707963267948966 -6.2831853071795862 0 1 
1 1.5707963267948966 0 0 1 
1 0 19.999999999999996 1 0 
8 4.7123889803846897 6.2831853071795862
1 6.2831853071795862 150 -1 -0 
8 4.7123889803846897 6.2831853071795862
1 1.5707963267948966 -6.2831853071795862 0 1 
1 0 330 1 0 
1 0 0 1 0 
8 4.7123889803846897 6.2831853071795862
1 -4.7123889803846897 19.999999999999996 1 0 
8 4.7123889803846897 6.2831853071795862
1 1.5707963267948966 -6.2831853071795862 0 1 
1 1.5707963267948966 0 0 1 
1 0 430 1 0 
8 4.7123889803846897 6.2831853071795862
1 -4.7123889803846897 150 1 0 
8 4.7123889803846897 6.2831853071795862
1 1.5707963267948966 -6.2831853071795862 0 1 
8 4.7123889803846897 6.2831853071795862
1 6.2831853071795862 330 -1 -0 
8 4.7123889803846897 6.2831853071795862
1 0 -6.2831853071795862 0 1 
8 4.7123889803846897 6.2831853071795862
1 6.2831853071795862 19.999999999999996 -1 -0 
8 4.7123889803846897 6.2831853071795862
1 0 -6.2831853071795862 0 1 
1 1.5707963267948966 0 0 1 
1 150 0 0 1 
1 0 430 1 0 
1 0 0 1 0 
1 0 -1.5707963267948966 1 0 
1 0 -1.5707963267948966 1 0 
1 0 -1.5707963267948966 1 0 
1 0 -1.5707963267948966 1 0 
Curves 82
7 0 0  8 23 4  267.90981603645565 205.34912152616462 344.54545454545632  267.99123106099171 205.8492476622707 343.90953044460736  268.07061874448067 206.39860422122499 343.25941703106736  268.14785995599993 207.00517116661555 342.59362477303472  268.22265894210307 207.67873750561847 341.9115990312402  268.29455860815796 208.43087788024314 341.21381558123988  268.36294062059721 209.27703051097723 340.50257505601849  268.42707065162136 210.23597819742906 339.78226891948083  268.51512972688141 211.87954545732777 338.70983596726728  268.54287637792874 212.4543672877804 338.35756066104017  268.56925894971693 213.06659735487079 338.00709302506726  268.59414941158178 213.71973291094079 337.66036574474731  268.61741259427976 214.41710495562742 337.32021577119184  268.63890618998818 215.16187823586307 336.99038432122563  268.65848075230502 215.95705124587494 336.67551687738643  268.69361939468098 217.6606854379236 336.08444183543236  268.70919776924694 218.57053003084098 335.80655315007056  268.72250343761004 219.53743050064676 335.55717624521105  268.73336012022492 220.55935322322412 335.34489398570435  268.7416266403377 221.62979045563009 335.17719298788069  268.74719692398622 222.73776033609576 335.06046361954958  268.75000000000006 223.86780688402615 334.99999999999983  268.75000000000023 225 334.99999999999994 
 0 9 0.503650932205575 7 0.75083135600251028 7 1 9
1 284.99999999999989 224.99999999999994 334.99999999999994 1 0 0 
2 64.999999999999886 224.99999999999994 359.99999999999994 1 0 0 -0 2.8330202767046231e-16 1 0 -1 2.8330202767046231e-16 25
3 65 225 359.99999999999994 0.70710678118654757 0 -0.70710678118654757 -0.70710678118654757 0 -0.70710678118654757 0 1 0 35.355339059327378 25
1 284.99999999999989 224.99999999999994 384.99999999999994 1 0 0 
7 0 0  7 26 5  256.24999999999966 225.00000000000009 384.99999999999983  256.24999999999932 222.49382139319627 384.99999999999989  256.37860390686717 219.99836880575651 384.70685745861454  256.63378005466922 217.60149658800341 384.12534066433835  256.99246205553578 215.34989631870317 383.29894556013681  257.43087910341762 213.26753118827713 382.26738709078262  257.92833171209509 211.3606873131919 381.06681329593414  258.82222287086489 208.50709391263405 378.84134011804127  259.19189477114793 207.45946424116082 377.90523644071453  259.57732785566975 206.48209082082425 376.90988711445806  259.97540740437864 205.57515383564342 375.85873648533061  260.38333795057332 204.7393620036467 374.75439283261125  260.79860356701175 203.97599894060991 373.59859558874859  261.81664022837089 202.30820114222681 370.67633219510918  262.42366842012018 201.48160802166046 368.8606533463045  263.03444593358807 200.81177091421341 366.94470175258255  263.64190213564603 200.31260749382307 364.93052191524652  264.23720688143294 200.0029310080003 362.82446539078461  264.81005828402891 199.90727660983868 360.63838829910804  265.83581787148694 200.18134385233543 356.37746200731721  266.29637119214237 200.50565546924602 354.3077708600353  266.71938072751766 201.04413029312292 352.22116812361878  267.09518271843342 201.80720185660707 350.15689277738073  267.41813890022627 202.79460126600662 348.1591261587256  267.68837360406621 203.98881796165654 346.27511784175306  267.90981603645565 205.34912152616465 344.54545454545627 
 0 8 0.29536552604314187 6 0.4857757595982935 6 0.7564811175990237 6 1 8
7 0 0  8 37 6  268.75000000000023 225.00000000000003 334.99999999999989  268.75000000000057 227.91424992860888 334.99999999999994  268.73147879704823 230.8084284910349 335.38820115417514  268.69480030353287 233.68754803176296 336.15558309199503  268.63177370332909 236.52569815265261 337.32908407521199  268.52677572680926 239.26740665626994 338.93781563172189  268.35353724722489 241.83295704172946 341.00064250300835  268.07228392683464 244.11521818954392 343.51772510150903  267.43749618241623 246.96896660161028 347.93528622009961  267.18627597643524 247.82883075827661 349.53531737072194  266.89837991990544 248.55437653685536 351.20896141344434  266.57468124699665 249.13259649149788 352.92811324242194  266.21854335763146 249.56001030819465 354.6653976896684  265.83548029553856 249.84019478339826 356.3956165542287  265.43252648350574 249.98189452518665 358.09591381216393  264.54513322378023 250.01786210547016 361.62544928807404  264.05538977873857 249.87478466335136 363.44655136934603  263.55526241766006 249.58765674748051 365.19745415372859  263.0508304972509 249.17319904061677 366.87249427943448  262.54724982460874 248.64545449156446 368.46921563519732  262.04860657288089 248.01558030362258 369.98746381504719  261.55793906065543 247.29154685779511 371.42897495852026  260.73629746307847 245.89826212219802 373.76733238895571  260.400695187368 245.27476111869811 374.69972925152979  260.07157765995618 244.60794686233638 375.5942489679947  259.75001767059467 243.89918603518026 376.4508627432038  259.43714415379543 243.14951691722527 377.26920057853698  259.13414199935585 242.35969899489243 378.04861273054786  258.84226390197796 241.53020453016427 378.78817228918575  258.06183674790555 239.10282910669434 380.73902358514744  257.60152451728891 237.41922236597702 381.85769967793823  257.18811384383014 235.60728213061611 382.83943189337492  256.83257158397606 233.66843803089776 383.66747992613074  256.54846364182771 231.61193906106172 384.31975182870804  256.35026719884587 229.45699343256265 384.77145258681475  256.25 227.23585462809976 384.99999999999994  256.2499999999996 225.00000000000003 384.99999999999994 
 0 9 0.30635505134647278 7 0.46400468196284778 7 0.64372069100015417 7 0.77127632155676062 7 1 9
3 0 0 0 0 0 1 1 0 -0 -0 1 0 150 100
7 0 0  1 2 2  650 225 10  750 225 410 
 0 2 1 2
3 0 0 0 0 0 1 1 0 -0 -0 1 0 250 185
3 65 225 359.99999999999994 0.70710678118654757 0 -0.70710678118654757 -0.70710678118654757 0 -0.70710678118654757 0 1 0 35.355339059327378 25
2 64.999999999999886 224.99999999999994 359.99999999999994 1 0 0 -0 2.8330202767046231e-16 1 0 -1 2.8330202767046231e-16 25
2 65 225 359.99999999999989 0 0 -1 1 0 0 0 -1 0 25
2 64.999999999999972 225 359.99999999999989 1.1134282490988709e-33 -1 1.7732126531000435e-16 -1 -1.1134282490988709e-33 1.9743450596211451e-49 -1.1795275559186e-65 -1.7732126531000435e-16 -1 24.999999999999968
1 90 225 564.99999999999989 0 0 -1 
1 40 225 564.99999999999989 0 0 -1 
2 65 225 550 0 0 -1 0 1 0 1 -0 0 25
1 0 0 10 -0 1 0 
1 0 900 10 1 0 -0 
1 0 0 10 1 0 -0 
1 1500 0 10 0 1 0 
3 0 0 0 0 0 1 1 0 -0 -0 1 0 170 105
2 65 225 359.99999999999989 0 0 -1 1 0 0 0 -1 0 25
2 65 225 550 0 0 -1 0 1 0 1 -0 0 25
1 19.999999999999996 0 550 0 1 0 
1 0 19.999999999999996 550 1 0 0 
1 0 430 550 1 0 0 
1 150 0 550 0 1 0 
1 0 0 0 0 0 1 
1 0 900 0 0 0 1 
1 0 0 0 -0 1 0 
1 0 900 0 1 0 -0 
1 1500 900 0 0 0 1 
1 0 0 0 1 0 -0 
1 1500 0 0 0 0 1 
1 1500 0 0 -0 1 0 
7 0 0  1 2 2  670 225.00000000000003 410  565 224.99999999999997 30 
 0 2 1 2
3 0 0 0 0 0 1 1 0 -0 -0 1 0 65 50
2 19.999999999999996 19.999999999999996 570 0 1 -0 -1 0 0 0 0 1 20
1 -3.5527136788005009e-15 0 570 0 1 0 
2 19.999999999999996 430 570 0 1 -0 -1 0 0 0 0 1 20
2 19.999999999999996 19.999999999999996 570 -1 6.1230317691118863e-17 0 -6.1230317691118863e-17 -1 0 0 0 1 20
1 0 -3.5527136788005009e-15 570 1 0 0 
2 150 19.999999999999996 570 -1 -6.1230317691118863e-17 0 6.1230317691118863e-17 -1 -0 0 0 1 20
2 19.999999999999996 430 570 1 6.1230317691118863e-17 -0 -6.1230317691118863e-17 1 0 0 0 1 20
1 0 450 570 1 0 0 
2 150 430 570 1 -6.1230317691118863e-17 0 6.1230317691118863e-17 1 0 -0 0 1 20
2 150 19.999999999999996 570 0 -1 0 1 0 0 -0 0 1 20
1 170 0 570 0 1 0 
2 150 430 570 0 -1 0 1 0 0 -0 0 1 20
2 19.999999999999996 19.999999999999996 570 0 0 1 -1 0 0 0 -1 0 20
1 -3.5527136788005009e-15 19.999999999999996 550 0 0 1 
1 -3.5527136788005009e-15 0 880 0 1 0 
1 -3.5527136788005009e-15 430 550 0 0 1 
2 19.999999999999996 430 570 -0 -0 -1 -1 0 0 0 1 -0 20
1 19.999999999999996 -3.5527136788005009e-15 550 0 0 1 
1 0 -3.5527136788005009e-15 880 1 0 0 
1 150 -3.5527136788005009e-15 550 0 0 1 
2 150 19.999999999999996 570 -0 -0 -1 1 0 -0 0 -1 0 20
1 19.999999999999996 450 550 0 0 1 
1 0 450 880 1 0 0 
1 150 450 550 0 0 1 
2 150 430 570 0 0 1 1 0 -0 -0 1 0 20
1 170 19.999999999999996 550 0 0 1 
1 170 0 880 0 1 0 
1 170 430 550 0 0 1 
2 19.999999999999996 19.999999999999996 880 0 0 1 -1 0 0 0 -1 0 20
2 19.999999999999996 19.999999999999996 880 0 -1 0 -1 0 0 -0 -0 -1 20
1 19.999999999999996 0 900 0 1 0 
2 19.999999999999996 430 880 0 1 0 -1 0 0 0 -0 1 20
2 19.999999999999996 430 880 0 -0 1 -1 0 0 -0 -1 0 20
2 19.999999999999996 19.999999999999996 880 1 -6.1230317691118863e-17 0 -6.1230317691118863e-17 -1 0 0 -0 -1 20
1 0 19.999999999999996 900 1 0 0 
2 150 19.999999999999996 880 1 6.1230317691118863e-17 -0 6.1230317691118863e-17 -1 0 0 -0 -1 20
2 150 19.999999999999996 880 -0 -0 -1 1 0 0 0 -1 0 20
2 19.999999999999996 430 880 1 -0 6.1230317691118863e-17 -6.1230317691118863e-17 0 1 -0 -1 0 20
1 0 430 900 1 0 0 
2 150 430 880 1 0 -6.1230317691118863e-17 6.1230317691118863e-17 0 1 0 -1 0 20
2 150 430 880 0 0 -1 1 0 0 0 -1 0 20
2 150 19.999999999999996 880 0 1 0 1 0 0 0 0 -1 20
1 150 0 900 0 1 0 
2 150 430 880 -0 -1 -0 1 -0 0 -0 0 1 20
Polygon3D 0
PolygonOnTriangulations 0
Surfaces 42
10 0 3.1415926535897931 -220 -0
2 284.99999999999989 224.99999999999994 359.99999999999994 1 0 0 -0 2.8330202767046231e-16 1 0 -1 2.8330202767046231e-16 25
9 0 0 0 0 11 1 22 2 3 2 650 225 10  750 225 410  
649.99999999999011 253.5599332144439 10.000000000000195  750.00000000000068 277.83587644673571 409.99999999998897  
636.54144826746744 282.11986419626385 9.9999999999991704  727.56908044570957 330.6717487630271 410.00000000004349  
609.62434796769162 307.54786748760483 10.000000000001986  682.70724661298493 377.71355485222443 409.9999999998999  
571.09354955764638 326.71189144235717 9.9999999999966374  618.48924926247162 413.16699916808102 410.00000000016115  
524.63886805801019 337.03230705923579 10.000000000004247  541.0647800970105 432.25976805996379 409.99999999980838  
475.36113194197981 337.03230705968809 9.9999999999958984  458.93521990300849 432.25976806003069 410.00000000017195  
428.90645044237868 326.71189144200878 10.000000000003018  381.51075073748478 413.16699916802935 409.99999999988296  
390.37565203228166 307.54786748780583 9.999999999998348  317.29275338705742 377.71355485225604 410.00000000005889  
363.4585517325516 282.11986419618313 10.000000000000625  272.43091955426621 330.67174876301237 409.99999999998101  
349.9999999999996 253.55993321446118 9.9999999999998739  250.00000000000753 277.83587644673963 410.00000000000068  
350.00000000000824 196.44006678554294 10.000000000000094  249.99999999998963 172.16412355326111 410.00000000000563  
363.4585517325159 167.88013580377944 9.9999999999997087  272.43091955433971 119.32825123698255 409.99999999995998  
390.3756520323671 142.45213251229578 10.000000000000625  317.29275338688421 72.286445147755714 410.00000000011323  
428.90645044223351 123.28810855781231 9.9999999999989182  381.51075073777042 36.833000831950969 409.99999999978769  
475.36113194216625 112.96769294054143 10.000000000001558  458.93521990265242 17.740231939994526 410.00000000029308  
524.63886805782704 112.9676929405415 9.9999999999982077  541.06478009735531 17.74023194001364 409.99999999969407  
571.09354955778031 123.28810855780775 10.000000000001569  618.48924926221321 36.83300083193312 410.00000000024249  
609.62434796761818 142.45213251230328 9.9999999999989999  682.70724661312863 72.286445147769399 409.99999999985664  
636.54144826749723 167.88013580377273 10.000000000000435  727.56908044565375 119.32825123697488 410.00000000005974  
649.99999999998283 196.44006678554706 9.9999999999998863  750.00000000001319 172.16412355326361 409.99999999998533  
650 224.99999999999997 10  750 224.99999999999991 410  

0 12
3.1415926535897931 10
6.2831853071795862 12

0 2
1 2

10 3.1415926535897931 6.2831853071795862 -220 -0
2 284.99999999999989 224.99999999999994 359.99999999999994 1 0 0 -0 2.8330202767046231e-16 1 0 -1 2.8330202767046231e-16 25
10 0 1.5707963267948934 1.570796326794901 3.1415926535897931
7 64.999999999999972 225.00000000000006 359.99999999999989 1.1134282490988709e-33 -1 1.7732126531000435e-16 
2 65 225 359.99999999999989 0 0 -1 1 0 0 0 -1 0 25
10 0 3.1415926535897931 0 205
2 65 225 564.99999999999989 0 0 -1 1 0 0 0 -1 0 25
1 0 0 10 0 0 1 1 0 -0 -0 1 0 
1 500 225 410 0 0 1 1 0 -0 -0 1 0 
10 3.1415926535897931 6.2831853071795862 0 205
2 65 225 564.99999999999989 0 0 -1 1 0 0 0 -1 0 25
10 0 1.5707963267948937 3.1415926535897931 4.7123889823846845
7 64.999999999999972 225.00000000000006 359.99999999999989 1.1134282490988709e-33 -1 1.7732126531000435e-16 
2 65 225 359.99999999999989 0 0 -1 1 0 0 0 -1 0 25
1 0 0 0 0 0 1 1 0 -0 -0 1 0 
1 0 0 0 1 0 -0 0 0 1 0 -1 0 
1 0 900 0 -0 1 0 0 0 1 1 0 -0 
1 0 0 0 -0 1 0 0 0 1 1 0 -0 
1 1500 0 0 1 0 -0 0 0 1 0 -1 0 
9 0 0 0 0 11 1 22 2 3 2 670 225.00000000000003 410  565 224.99999999999997 30  
669.99999999998147 254.9879298751755 409.99999999998897  565.00000000001285 239.27996660722715 30.000000000000362  
654.74697470315959 284.97585740603716 410.00000000004349  559.1679609158308 253.5599320981091 29.999999999998355  
624.24092769664617 311.67526086208608 409.9999999998999  547.50388411950325 266.27393374386298 30.00000000000416  
580.57268949878437 331.79748601429532 410.00000000016115  530.80720480803541 275.85594572106163 29.999999999992607  
527.92405046559645 342.63392241243406 409.99999999980838  510.67684282547236 281.01615352979098 30.00000000000971  
472.0759495343861 342.63392241243696 410.00000000017195  489.32315717455174 281.01615352964615 29.999999999990482  
419.42731050125411 331.79748601428759 409.99999999988296  469.19279519190889 275.855945721176 30.000000000006942  
375.75907230332001 311.67526086209483 410.00000000005889  452.49611588055001 266.27393374379471 29.999999999996309  
345.25302529685814 284.97585740603205 409.99999999998101  440.83203908413833 253.55993209813676 30.000000000001339  
330.00000000001177 254.9879298751772 410.00000000000068  434.99999999999733 239.27996660722155 29.99999999999973  
329.9999999999917 195.01207012482246 410.00000000000563  434.99999999999903 210.72003339277671 30.000000000000227  
345.25302529694204 165.02414259397054 409.99999999995998  440.83203908412975 196.44006790187842 29.99999999999913  
375.75907230311418 138.32473913789809 410.00000000011323  452.49611588057985 183.72606625616686 30.000000000002032  
419.42731050161495 118.20251398572803 409.99999999978769  469.19279519184749 174.14405427888093 29.999999999996515  
472.07594953390907 107.3660775875357 410.00000000029308  489.32315717463359 168.98384647029857 30.000000000004651  
527.92405046607792 107.36607758759975 409.99999999969407  510.67684282540233 168.9838464702446 29.999999999995172  
580.57268949841568 118.20251398567531 410.00000000024249  530.80720480806906 174.14405427892461 30.000000000003823  
624.24092769685558 138.32473913793189 409.99999999985664  547.5038841195003 183.72606625613852 29.999999999997744  
654.74697470307615 165.02414259395516 410.00000000005974  559.1679609158241 196.44006790189232 30.000000000000941  
670.00000000000102 195.0120701248261 409.99999999998533  565.0000000000166 210.72003339277191 29.999999999999776  
670 224.99999999999997 410  565 225 30  

0 12
3.1415926535897931 10
6.2831853071795862 12

0 2
1 2

2 19.999999999999996 0 570 0 1 0 -1 0 0 -0 0 -1 20
2 0 19.999999999999996 570 1 0 0 0 -1 0 0 0 -1 20
2 0 430 570 1 0 0 -0 1 0 -0 0 -1 20
2 150 0 570 0 1 0 1 0 -0 -0 0 -1 20
1 0 0 0 0 0 1 1 0 -0 -0 1 0 
1 500 225 30 0 0 1 1 0 -0 -0 1 0 
4 19.999999999999996 19.999999999999996 570 0 0 1 -1 0 0 0 -1 0 20
1 0 0 0 1 0 -0 0 0 1 0 -1 0 
4 19.999999999999996 430 570 0 0 1 -1 0 0 -0 1 -0 20
1 0 0 0 -0 1 0 0 0 1 1 0 -0 
4 150 19.999999999999996 570 0 0 1 1 0 -0 0 -1 -0 20
1 0 450 0 -0 1 0 0 0 1 1 0 -0 
4 150 430 570 0 0 1 1 0 -0 -0 1 0 20
1 170 0 0 1 0 -0 0 0 1 0 -1 0 
2 19.999999999999996 19.999999999999996 550 0 0 1 -1 -0 0 0 -1 0 20
2 19.999999999999996 0 880 0 1 0 -1 0 0 0 -0 1 20
2 19.999999999999996 430 550 0 0 1 -1 -0 0 -0 1 -0 20
2 0 19.999999999999996 880 1 0 0 0 -1 0 -0 -0 1 20
2 150 19.999999999999996 550 0 0 1 1 0 -0 0 -1 -0 20
2 0 430 880 1 0 0 -0 1 0 0 -0 1 20
2 150 430 550 0 0 1 1 0 -0 -0 1 0 20
2 150 0 880 0 1 0 1 0 -0 0 -0 1 20
4 19.999999999999996 19.999999999999996 880 -0 -0 -1 -1 0 0 -0 -1 0 20
1 0 0 350 0 0 1 1 0 -0 -0 1 0 
4 19.999999999999996 430 880 -0 -1 -0 -1 0 0 -0 -0 1 20
4 150 19.999999999999996 880 -0 -0 -1 1 0 0 0 -1 0 20
4 150 430 880 -0 -1 -0 1 -0 0 -0 0 1 20
Triangulations 0

TShapes 229
Ve
0.00228837997515873
517.909816036457 6955.34912152616 344.545454545456
0 0

0101101
*
Ve
0.00228837997515873
518.750000000001 6975 335
0 0

0101101
*
Ed
 0.00228837997515873 1 1 0
1  1 0 0 1
2  1 1 2 0 1
2  2 2 5 0 1
0

0101000
+229 6 -228 6 *
Ve
1.00000000301094e-07
315.000000000001 6975 335
0 0

0101101
*
Ed
 1e-07 1 1 0
1  2 0 -220 -16.2499999999996
2  3 1 0 -220 -16.2499999999996
2  4 3 0 -220 -16.2499999999996
4 G1 1 0 3 0
0

0101000
+226 7 -228 7 *
Ve
1.68587499684839e-06
315.000000000001 6950 360
0 0

0101101
*
Ed
 1e-07 1 1 0
1  3 0 1.5707963267949 3.14159265358979
2  5 1 0 1.5707963267949 3.14159265358979
2  6 4 0 1.5707963267949 3.14159265358979
4 G1 1 0 4 0
0

0101000
+224 7 -226 7 *
Ve
1.00000028421709e-07
340.000000000001 6975 385
0 0

0101101
*
Ed
 1e-07 1 1 0
1  4 0 3.14159265358979 4.71238894850571
2  7 1 0 3.14159265358979 4.71238894850571
2  8 5 0 3.14159265358979 4.71238894850571
0

0101000
+222 7 -224 7 *
Ve
0.00228837997515873
506.250000000001 6975 385
0 0

0101101
*
Ed
 1e-07 1 1 0
1  5 0 -195 -28.7500000000002
2  9 1 0 -195 -28.7500000000002
2  10 3 0 -195 -28.7500000000002
4 G1 1 0 3 0
0

0101000
+222 7 -220 7 *
Ed
 0.00228837997515873 1 1 0
1  6 0 0 1
2  11 1 2 0 1
2  12 2 5 0 1
0

0101000
+220 6 -229 6 *
Wi

0101000
-227 0 +225 2 +223 2 +221 2 -219 2 -218 0 *
Fa
0  1e-07 1 2

0101000
+217 0 *
Ed
 5e-06 1 1 0
1  7 0 0 1
2  13 2 5 0 1
2  14 3 2 0 1
0

0101000
+228 6 -220 6 *
Wi

0101000
+227 0 +218 0 +215 0 *
Ve
1e-07
900.000000000001 6975 10
0 0

0101101
*
Ed
 1e-07 1 1 0
1  8 0 0 6.28318530717959
2  15 2 10 0 6.28318530717959
2  16 6 12 0 6.28318530717959
0

0101100
+213 13 -213 13 *
Ve
1e-07
1000 6975 410
0 0

0101101
*
Ed
 1e-07 1 1 0
1  9 0 0 1
3  17 18G1 2 0 0 1
0

0101000
+213 14 -211 14 *
Ed
 1e-07 1 1 0
1  10 0 0 6.28318530717959
2  19 2 17 0 6.28318530717959
2  20 7 17 0 6.28318530717959
0

0101100
+211 18 -211 18 *
Wi

0101000
+212 9 -210 5 -209 16 +210 5 *
Fa
0  1e-07 2 5

0101000
+214 0 +208 0 *
Ve
1.12631374734768e-06
315.000000025001 7000 360
0 0

0101101
*
Ed
 1e-07 1 1 0
1  11 0 1.5707963591479 3.14159265358979
2  21 3 0 1.5707963591479 3.14159265358979
2  22 8 0 1.5707963591479 3.14159265358979
0

0101000
+206 7 -222 7 *
Ed
 1e-07 1 1 0
1  12 0 3.14159265358979 4.71238898038469
2  23 3 0 3.14159265358979 4.71238898038469
2  24 9 0 3.14159265358979 4.71238898038469
4 G1 3 0 9 0
0

0101000
+226 7 -206 7 *
Wi

0101000
-215 0 +219 2 +205 2 +204 2 -225 2 *
Fa
0  1e-07 3 2

0101000
+203 0 *
Ve
1.00000000301094e-07
290.000000000001 6975 360
0 0

0101101
*
Ed
 1e-07 1 1 0
1  13 0 1.5707963267949 3.14159265358979
2  25 4 0 1.5707963267949 3.14159265358979
2  26 5 0 1.5707963267949 3.14159265358979
4 G1 4 0 5 0
0

0101000
+224 7 -201 7 *
Ed
 1.68587499684839e-06 1 1 1
2  27 4 0 0 1.57079632679489
0

0101000
+224 7 -224 7 *
Ed
 1e-07 1 1 0
1  14 0 0 1.57079632679489
2  28 4 0 0 1.57079632679489
2  29 9 0 0 1.57079632679489
0

0101000
+201 7 -226 7 *
Wi

0101100
-200 0 +199 0 +223 0 -198 0 *
Fa
0  1e-07 4 0

0101000
+197 0 *
Ve
2.00001e-07
340.000000000001 6975 550
0 0

0101101
*
Ed
 1e-07 1 1 0
1  15 0 14.9999999999999 180
2  30 5 0 14.9999999999999 180
2  31 8 0 14.9999999999999 180
4 G1 5 0 8 0
0

0101000
+195 7 -222 7 *
Ve
2.00001e-07
290.000000000001 6975 550
0 0

0101101
*
Ed
 1e-07 1 1 0
1  16 0 14.9999999999999 205
2  32 5 0 14.9999999999999 205
2  33 8 0 14.9999999999999 205
4 G1 5 0 8 0
0

0101000
+193 7 -201 7 *
Ed
 1e-07 1 1 0
1  17 0 1.5707963267949 4.71238898038469
2  34 5 2 1.5707963267949 4.71238898038469
2  35 10 21 1.5707963267949 4.71238898038469
0

0101000
+195 6 -193 6 *
Wi

0101000
-194 2 -221 2 -200 2 +192 2 +191 0 *
Fa
0  1e-07 5 2

0101000
+190 0 *
Wi

0101000
-212 9 *
Ve
1e-07
250.000000000001 7425 10
0 0

0101101
*
Ve
1e-07
250.000000000001 6525 10
0 0

0101101
*
Ed
 1e-07 1 1 0
1  18 0 0 900
2  36 6 0 0 900
2  37 11 0 0 900
0

0101000
-187 22 +186 22 *
Ve
1e-07
1750 7425 10
0 0

0101101
*
Ed
 1e-07 1 1 0
1  19 0 0 1500
2  38 6 0 0 1500
2  39 12 0 0 1500
0

0101000
-184 22 +187 22 *
Ve
1e-07
1750 6525 10
0 0

0101101
*
Ed
 1e-07 1 1 0
1  20 0 0 1500
2  40 6 0 0 1500
2  41 13 0 0 1500
0

0101000
-182 22 +186 22 *
Ed
 1e-07 1 1 0
1  21 0 0 900
2  42 6 0 0 900
2  43 14 0 0 900
0

0101000
-184 22 +182 22 *
Wi

0101000
-185 11 -183 11 +181 11 +180 11 *
Fa
0  1e-07 6 11

0101000
+188 0 +179 0 *
Ve
1e-07
920.000000000001 6975 410
0 0

0101101
*
Ed
 1e-07 1 1 0
1  22 0 0 6.28318530717959
2  44 7 26 0 6.28318530717959
2  45 15 27 0 6.28318530717959
0

0101100
+177 28 -177 28 *
Wi

0101000
-176 25 *
Wi

0101000
+209 29 *
Fa
0  1e-07 7 3

0101000
+175 0 +174 0 *
Ed
 1e-07 1 1 0
1  23 0 3.14159265358979 4.71238898238468
2  46 8 0 3.14159265358979 4.71238898238468
2  47 9 0 3.14159265358979 4.71238898238468
4 G1 8 0 9 0
0

0101000
+201 7 -206 7 *
Ed
 1e-07 1 1 0
1  24 0 4.71238898038469 7.85398163397448
2  48 8 2 4.71238898038469 7.85398163397448
2  49 10 21 4.71238898038469 7.85398163397448
0

0101000
+193 6 -195 6 *
Wi

0101000
-192 2 -172 2 -205 2 +194 2 +171 0 *
Fa
0  1e-07 8 2

0101000
+170 0 *
Ed
 1.12631374734768e-06 1 1 1
2  50 9 0 0 1.57079632679489
0

0101000
+206 7 -206 7 *
Wi

0101100
-172 0 +198 0 +204 0 -168 0 *
Fa
0  1e-07 9 0

0101000
+167 0 *
Wi

0101000
+171 0 +191 0 *
Ve
1e-07
270.000000000001 6770 550
0 0

0101101
*
Ve
1e-07
270.000000000001 7180 550
0 0

0101101
*
Ed
 1e-07 1 1 0
1  25 0 20 430
2  51 10 19 20 430
2  52 16 0 20 430
4 G1 10 19 16 0
0

0101000
+164 30 -163 30 *
Ve
1e-07
400.000000000001 6770 550
0 0

0101101
*
Ed
 1e-07 1 1 0
1  26 0 20 150
2  53 10 19 20 150
2  54 17 0 20 150
4 G1 10 19 17 0
0

0101000
+164 30 -161 30 *
Ve
1e-07
400.000000000001 7180 550
0 0

0101101
*
Ed
 1e-07 1 1 0
1  27 0 20 150
2  55 10 19 20 150
2  56 18 0 20 150
4 G1 10 19 18 0
0

0101000
+163 30 -159 30 *
Ed
 1e-07 1 1 0
1  28 0 20 430
2  57 10 19 20 430
2  58 19 0 20 430
4 G1 10 19 19 0
0

0101000
+161 30 -159 30 *
Wi

0101000
-162 20 +160 20 -158 20 +157 20 *
Fa
0  1e-07 10 21

0101000
+165 0 +156 0 *
Ve
1e-07
250.000000000001 6525 0
0 0

0101101
*
Ed
 1e-07 1 1 0
1  29 0 0 10
2  59 11 0 0 10
2  60 13 0 0 10
0

0101000
-186 22 +154 22 *
Ve
1e-07
250.000000000001 7425 0
0 0

0101101
*
Ed
 1e-07 1 1 0
1  30 0 0 10
2  61 11 0 0 10
2  62 12 0 0 10
0

0101000
-187 22 +152 22 *
Ed
 1e-07 1 1 0
1  31 0 0 900
2  63 11 0 0 900
2  64 20 0 0 900
0

0101000
-152 22 +154 22 *
Wi

0101000
-153 0 -185 0 +151 0 +150 0 *
Fa
0  1e-07 11 0

0101000
+149 0 *
Ve
1e-07
1750 7425 0
0 0

0101101
*
Ed
 1e-07 1 1 0
1  32 0 0 1500
2  65 12 0 0 1500
2  66 20 0 0 1500
0

0101000
-147 22 +152 22 *
Ed
 1e-07 1 1 0
1  33 0 0 10
2  67 12 0 0 10
2  68 14 0 0 10
0

0101000
-184 22 +147 22 *
Wi

0101000
-146 0 -145 0 +183 0 +151 0 *
Fa
0  1e-07 12 0

0101000
+144 0 *
Ve
1e-07
1750 6525 0
0 0

0101101
*
Ed
 1e-07 1 1 0
1  34 0 0 1500
2  69 13 0 0 1500
2  70 20 0 0 1500
0

0101000
-142 22 +154 22 *
Ed
 1e-07 1 1 0
1  35 0 0 10
2  71 13 0 0 10
2  72 14 0 0 10
0

0101000
-182 22 +142 22 *
Wi

0101000
-141 0 -140 0 +181 0 +153 0 *
Fa
0  1e-07 13 0

0101000
+139 0 *
Ed
 1e-07 1 1 0
1  36 0 0 900
2  73 14 0 0 900
2  74 20 0 0 900
0

0101000
-147 22 +142 22 *
Wi

0101000
-140 0 -180 0 +145 0 +137 0 *
Fa
0  1e-07 14 0

0101000
+136 0 *
Ve
1e-07
815.000000000001 6975 30
0 0

0101101
*
Ed
 1e-07 1 1 0
1  37 0 0 1
3  75 76G1 15 0 0 1
0

0101000
+177 31 -134 31 *
Ed
 1e-07 1 1 0
1  38 0 0 6.28318530717959
2  77 15 34 0 6.28318530717959
2  78 21 34 0 6.28318530717959
0

0101100
+134 35 -134 35 *
Wi

0101000
-133 24 -132 33 +133 24 +176 25 *
Fa
0  1e-07 15 24

0101000
+131 0 *
Ve
1e-07
250.000000000001 6770 570
0 0

0101101
*
Ed
 1e-07 1 1 0
1  39 0 4.71238898038469 6.28318530717959
2  79 16 0 4.71238898038469 6.28318530717959
2  80 22 0 4.71238898038469 6.28318530717959
4 G1 16 0 22 0
0

0101100
+164 30 -129 30 *
Ve
1e-07
250.000000000001 7180 570
0 0

0101101
*
Ed
 1e-07 1 1 0
1  40 0 20 430
2  81 16 0 20 430
2  82 23 19 20 430
4 G1 16 0 23 19
0

0101000
+129 30 -127 30 *
Ed
 1e-07 1 1 0
1  41 0 4.71238898038469 6.28318530717959
2  83 16 0 4.71238898038469 6.28318530717959
2  84 24 0 4.71238898038469 6.28318530717959
4 G1 16 0 24 0
0

0101100
+163 30 -127 30 *
Wi

0101100
-128 0 +162 0 -126 0 +125 0 *
Fa
0  1e-07 16 0

0101000
+124 0 *
Ve
1e-07
270.000000000001 6750 570
0 0

0101101
*
Ed
 1e-07 1 1 0
1  42 0 4.71238898038469 6.28318530717959
2  85 17 0 4.71238898038469 6.28318530717959
2  86 22 0 4.71238898038469 6.28318530717959
4 G1 17 0 22 0
0

0101100
+164 30 -122 30 *
Ve
1e-07
400.000000000001 6750 570
0 0

0101101
*
Ed
 1e-07 1 1 0
1  43 0 20 150
2  87 17 0 20 150
2  88 25 19 20 150
4 G1 17 0 25 19
0

0101000
+122 30 -120 30 *
Ed
 1e-07 1 1 0
1  44 0 4.71238898038469 6.28318530717959
2  89 17 0 4.71238898038469 6.28318530717959
2  90 26 0 4.71238898038469 6.28318530717959
4 G1 17 0 26 0
0

0101100
+161 30 -120 30 *
Wi

0101100
-121 0 +160 0 -119 0 +118 0 *
Fa
0  1e-07 17 0

0101000
+117 0 *
Ve
1e-07
270.000000000001 7200 570
0 0

0101101
*
Ed
 1e-07 1 1 0
1  45 0 4.71238898038469 6.28318530717959
2  91 18 0 4.71238898038469 6.28318530717959
2  92 24 0 4.71238898038469 6.28318530717959
4 G1 18 0 24 0
0

0101100
+163 30 -115 30 *
Ve
1e-07
400.000000000001 7200 570
0 0

0101101
*
Ed
 1e-07 1 1 0
1  46 0 20 150
2  93 18 0 20 150
2  94 27 19 20 150
4 G1 18 0 27 19
0

0101000
+115 30 -113 30 *
Ed
 1e-07 1 1 0
1  47 0 4.71238898038469 6.28318530717959
2  95 18 0 4.71238898038469 6.28318530717959
2  96 28 0 4.71238898038469 6.28318530717959
4 G1 18 0 28 0
0

0101100
+159 30 -113 30 *
Wi

0101100
-114 0 +158 0 -112 0 +111 0 *
Fa
0  1e-07 18 0

0101000
+110 0 *
Ve
1e-07
420.000000000001 6770 570
0 0

0101101
*
Ed
 1e-07 1 1 0
1  48 0 4.71238898038469 6.28318530717959
2  97 19 0 4.71238898038469 6.28318530717959
2  98 26 0 4.71238898038469 6.28318530717959
4 G1 19 0 26 0
0

0101100
+161 30 -108 30 *
Ve
1e-07
420.000000000001 7180 570
0 0

0101101
*
Ed
 1e-07 1 1 0
1  49 0 20 430
2  99 19 0 20 430
2  100 29 19 20 430
4 G1 19 0 29 19
0

0101000
+108 30 -106 30 *
Ed
 1e-07 1 1 0
1  50 0 4.71238898038469 6.28318530717959
2  101 19 0 4.71238898038469 6.28318530717959
2  102 28 0 4.71238898038469 6.28318530717959
4 G1 19 0 28 0
0

0101100
+159 30 -106 30 *
Wi

0101100
-107 0 +157 0 -105 0 +104 0 *
Fa
0  1e-07 19 0

0101000
+103 0 *
Wi

0101000
-150 0 -146 0 +137 0 +141 0 *
Fa
0  1e-07 20 0

0101000
+101 0 *
Wi

0101100
+132 32 *
Fa
0  1e-07 21 0

0101000
+99 0 *
Ed
 1e-07 1 1 1
2  103 22 0 0 1.5707963267949
0

0101000
+164 30 -164 30 *
Ed
 1e-07 1 1 0
1  51 0 0 1.5707963267949
2  104 22 0 0 1.5707963267949
2  105 30 0 0 1.5707963267949
4 G1 22 0 30 0
0

0101100
+129 30 -122 30 *
Wi

0101100
-128 0 +97 0 +121 0 -96 0 *
Fa
0  1e-07 22 0

0101000
+95 0 *
Ve
1e-07
250.000000000001 6770 880
0 0

0101101
*
Ed
 1e-07 1 1 0
1  52 0 20 330
2  106 23 19 20 330
2  107 30 0 20 330
4 G1 23 19 30 0
0

0101000
+129 30 -93 30 *
Ve
1e-07
250.000000000001 7180 880
0 0

0101101
*
Ed
 1e-07 1 1 0
1  53 0 20 430
2  108 23 19 20 430
2  109 31 0 20 430
4 G1 23 19 31 0
0

0101000
+93 30 -91 30 *
Ed
 1e-07 1 1 0
1  54 0 20 330
2  110 23 19 20 330
2  111 32 0 20 330
4 G1 23 19 32 0
0

0101000
+127 30 -91 30 *
Wi

0101100
-92 0 +126 0 -90 0 +89 0 *
Fa
0  1e-07 23 0

0101000
+88 37 *
Ed
 1e-07 1 1 1
2  112 24 0 0 1.5707963267949
0

0101000
+163 30 -163 30 *
Ed
 1e-07 1 1 0
1  55 0 0 1.5707963267949
2  113 24 0 0 1.5707963267949
2  114 32 0 0 1.5707963267949
4 G1 24 0 32 0
0

0101100
+127 30 -115 30 *
Wi

0101100
-125 0 +86 0 +114 0 -85 0 *
Fa
0  1e-07 24 0

0101000
+84 0 *
Ve
1e-07
270.000000000001 6750 880
0 0

0101101
*
Ed
 1e-07 1 1 0
1  56 0 20 330
2  115 25 19 20 330
2  116 30 0 20 330
4 G1 25 19 30 0
0

0101000
+122 30 -82 30 *
Ve
1e-07
400.000000000001 6750 880
0 0

0101101
*
Ed
 1e-07 1 1 0
1  57 0 20 150
2  117 25 19 20 150
2  118 33 0 20 150
4 G1 25 19 33 0
0

0101000
+82 30 -80 30 *
Ed
 1e-07 1 1 0
1  58 0 20 330
2  119 25 19 20 330
2  120 34 0 20 330
4 G1 25 19 34 0
0

0101000
+120 30 -80 30 *
Wi

0101100
+81 0 -119 0 +79 0 -78 0 *
Fa
0  1e-07 25 0

0101000
+77 37 *
Ed
 1e-07 1 1 1
2  121 26 0 0 1.5707963267949
0

0101000
+161 30 -161 30 *
Ed
 1e-07 1 1 0
1  59 0 0 1.5707963267949
2  122 26 0 0 1.5707963267949
2  123 34 0 0 1.5707963267949
4 G1 26 0 34 0
0

0101100
+108 30 -120 30 *
Wi

0101100
-107 0 +75 0 +118 0 -74 0 *
Fa
0  1e-07 26 0

0101000
+73 0 *
Ve
1e-07
270.000000000001 7200 880
0 0

0101101
*
Ed
 1e-07 1 1 0
1  60 0 20 330
2  124 27 19 20 330
2  125 32 0 20 330
4 G1 27 19 32 0
0

0101000
+115 30 -71 30 *
Ve
1e-07
400.000000000001 7200 880
0 0

0101101
*
Ed
 1e-07 1 1 0
1  61 0 20 150
2  126 27 19 20 150
2  127 35 0 20 150
4 G1 27 19 35 0
0

0101000
+71 30 -69 30 *
Ed
 1e-07 1 1 0
1  62 0 20 330
2  128 27 19 20 330
2  129 36 0 20 330
4 G1 27 19 36 0
0

0101000
+113 30 -69 30 *
Wi

0101100
+70 0 -112 0 +68 0 -67 0 *
Fa
0  1e-07 27 0

0101000
+66 37 *
Ed
 1e-07 1 1 1
2  130 28 0 0 1.5707963267949
0

0101000
+159 30 -159 30 *
Ed
 1e-07 1 1 0
1  63 0 0 1.5707963267949
2  131 28 0 0 1.5707963267949
2  132 36 0 0 1.5707963267949
4 G1 28 0 36 0
0

0101100
+106 30 -113 30 *
Wi

0101100
-104 0 +64 0 +111 0 -63 0 *
Fa
0  1e-07 28 0

0101000
+62 0 *
Ve
1e-07
420.000000000001 6770 880
0 0

0101101
*
Ed
 1e-07 1 1 0
1  64 0 20 330
2  133 29 19 20 330
2  134 34 0 20 330
4 G1 29 19 34 0
0

0101000
+108 30 -60 30 *
Ve
1e-07
420.000000000001 7180 880
0 0

0101101
*
Ed
 1e-07 1 1 0
1  65 0 20 430
2  135 29 19 20 430
2  136 37 0 20 430
4 G1 29 19 37 0
0

0101000
+60 30 -58 30 *
Ed
 1e-07 1 1 0
1  66 0 20 330
2  137 29 19 20 330
2  138 36 0 20 330
4 G1 29 19 36 0
0

0101000
+106 30 -58 30 *
Wi

0101100
-59 0 +105 0 -57 0 +56 0 *
Fa
0  1e-07 29 0

0101000
+55 37 *
Ed
 1e-07 1 1 0
1  67 0 0 1.5707963267949
2  139 30 0 0 1.5707963267949
2  140 38 0 0 1.5707963267949
4 G1 30 0 38 0
0

0101100
+93 30 -82 30 *
Wi

0101100
-92 0 +96 0 -53 0 +81 0 *
Fa
0  1e-07 30 0

0101000
+52 0 *
Ve
1e-07
270.000000000001 6770 900
0 0

0101101
*
Ed
 1e-07 1 1 0
1  68 0 4.71238898038469 6.28318530717959
2  141 31 0 4.71238898038469 6.28318530717959
2  142 38 0 4.71238898038469 6.28318530717959
4 G1 31 0 38 0
0

0101100
+50 30 -93 30 *
Ve
1e-07
270.000000000001 7180 900
0 0

0101101
*
Ed
 1e-07 1 1 0
1  69 0 20 430
2  143 31 0 20 430
2  144 39 19 20 430
4 G1 31 0 39 19
0

0101000
+50 30 -48 30 *
Ed
 1e-07 1 1 0
1  70 0 0 1.5707963267949
2  145 31 0 0 1.5707963267949
2  146 40 0 0 1.5707963267949
4 G1 31 0 40 0
0

0101100
+91 30 -48 30 *
Wi

0101100
-49 0 +47 0 -90 0 -46 0 *
Fa
0  1e-07 31 0

0101000
+45 0 *
Ed
 1e-07 1 1 0
1  71 0 4.71238898038469 6.28318530717959
2  147 32 0 4.71238898038469 6.28318530717959
2  148 40 0 4.71238898038469 6.28318530717959
4 G1 32 0 40 0
0

0101100
+71 30 -91 30 *
Wi

0101100
-89 0 +85 0 +43 0 +70 0 *
Fa
0  1e-07 32 0

0101000
+42 0 *
Ed
 1e-07 1 1 0
1  72 0 4.71238898038469 6.28318530717959
2  149 33 0 4.71238898038469 6.28318530717959
2  150 38 0 4.71238898038469 6.28318530717959
4 G1 33 0 38 0
0

0101100
+50 30 -82 30 *
Ve
1e-07
400.000000000001 6770 900
0 0

0101101
*
Ed
 1e-07 1 1 0
1  73 0 20 150
2  151 33 0 20 150
2  152 39 19 20 150
4 G1 33 0 39 19
0

0101000
+50 30 -39 30 *
Ed
 1e-07 1 1 0
1  74 0 4.71238898038469 6.28318530717959
2  153 33 0 4.71238898038469 6.28318530717959
2  154 41 0 4.71238898038469 6.28318530717959
4 G1 33 0 41 0
0

0101100
+39 30 -80 30 *
Wi

0101100
-40 0 +38 0 -79 0 +37 0 *
Fa
0  1e-07 33 0

0101000
+36 0 *
Ed
 1e-07 1 1 0
1  75 0 0 1.5707963267949
2  155 34 0 0 1.5707963267949
2  156 41 0 0 1.5707963267949
4 G1 34 0 41 0
0

0101100
+60 30 -80 30 *
Wi

0101100
-59 0 +74 0 -34 0 +78 0 *
Fa
0  1e-07 34 0

0101000
+33 0 *
Ed
 1e-07 1 1 0
1  76 0 4.71238898038469 6.28318530717959
2  157 35 0 4.71238898038469 6.28318530717959
2  158 40 0 4.71238898038469 6.28318530717959
4 G1 35 0 40 0
0

0101100
+71 30 -48 30 *
Ve
1e-07
400.000000000001 7180 900
0 0

0101101
*
Ed
 1e-07 1 1 0
1  77 0 20 150
2  159 35 0 20 150
2  160 39 19 20 150
4 G1 35 0 39 19
0

0101000
+48 30 -30 30 *
Ed
 1e-07 1 1 0
1  78 0 4.71238898038469 6.28318530717959
2  161 35 0 4.71238898038469 6.28318530717959
2  162 42 0 4.71238898038469 6.28318530717959
4 G1 35 0 42 0
0

0101100
+69 30 -30 30 *
Wi

0101100
+31 0 -68 0 +29 0 -28 0 *
Fa
0  1e-07 35 0

0101000
+27 0 *
Ed
 1e-07 1 1 0
1  79 0 4.71238898038469 6.28318530717959
2  163 36 0 4.71238898038469 6.28318530717959
2  164 42 0 4.71238898038469 6.28318530717959
4 G1 36 0 42 0
0

0101100
+69 30 -58 30 *
Wi

0101100
-56 0 +63 0 +25 0 +67 0 *
Fa
0  1e-07 36 0

0101000
+24 0 *
Ed
 1e-07 1 1 0
1  80 0 4.71238898038469 6.28318530717959
2  165 37 0 4.71238898038469 6.28318530717959
2  166 41 0 4.71238898038469 6.28318530717959
4 G1 37 0 41 0
0

0101100
+39 30 -60 30 *
Ed
 1e-07 1 1 0
1  81 0 20 430
2  167 37 0 20 430
2  168 39 19 20 430
4 G1 37 0 39 19
0

0101000
+39 30 -30 30 *
Ed
 1e-07 1 1 0
1  82 0 0 1.5707963267949
2  169 37 0 0 1.5707963267949
2  170 42 0 0 1.5707963267949
4 G1 37 0 42 0
0

0101100
+58 30 -30 30 *
Wi

0101100
-22 0 +21 0 -57 0 -20 0 *
Fa
0  1e-07 37 0

0101000
+19 0 *
Ed
 1e-07 1 1 1
2  171 38 0 0 1.5707963267949
0

0101000
+50 30 -50 30 *
Wi

0101100
-49 0 +17 0 +40 0 -53 0 *
Fa
0  1e-07 38 0

0101000
+16 0 *
Wi

0101100
-47 0 +38 0 -29 0 +21 0 *
Fa
0  1e-07 39 0

0101000
+14 37 *
Ed
 1e-07 1 1 1
2  172 40 0 0 1.5707963267949
0

0101000
+71 30 -71 30 *
Wi

0101100
-43 0 +12 0 +31 0 -46 0 *
Fa
0  1e-07 40 0

0101000
+11 0 *
Ed
 1e-07 1 1 1
2  173 41 0 0 1.5707963267949
0

0101000
+39 30 -39 30 *
Wi

0101100
-22 0 +9 0 +37 0 -34 0 *
Fa
0  1e-07 41 0

0101000
+8 0 *
Ed
 1e-07 1 1 1
2  174 42 0 0 1.5707963267949
0

0101000
+69 30 -69 30 *
Wi

0101100
-25 0 +6 0 +28 0 -20 0 *
Fa
0  1e-07 42 0

0101000
+5 0 *
Sh

0101000
+216 0 +207 0 +202 0 -196 2 +189 0 +178 0 +173 4 +169 0 -166 2 -155 0 
-148 11 +143 11 -138 11 +135 11 +130 4 -123 20 +116 20 -109 20 +102 20 -100 11 
+98 36 +94 20 -87 21 -83 20 -76 21 -72 20 +65 21 +61 20 +54 21 +51 20 
+44 20 -41 20 -35 20 -32 20 +26 20 +23 20 -18 20 -15 20 +13 21 -10 20 
+7 20 +4 20 *
So

0100000
+3 0 *
Co

1100000
+2 0 *

+1 1 