DBRep_DrawableShape

CASCADE Topology V1, (c) Matra-Datavision
Locations 5
1
              1               0               0               0 
              0               1               0               0 
              0               0               1             -15 
2  1 -1 0
1
              1               0               0               0 
              0               1               0               0 
              0               0               1             200 
2  3 -1 0
2  1 -1 3 -1 0
Curve2ds 6
1 0 0 0 -1 
1 6.2831853071795862 0 0 -1 
1 0 0 1 0 
7 0 0  8 16 3  5.3527441648120124 29.518606503459186  16.9446738317464 27.416588785369257  27.593144336767402 20.110923987425785  34.574488199387247 8.1051661345158905  35.475630407961198 -6.4329586031426604  29.527188272805855 -19.729016828519555  18.774849299401779 -28.519044721070927  6.239185502122222 -31.620624221549299  -16.944673831746499 -27.416588785369463  -27.593144336768155 -20.110923987426112  -34.574488199386082 -8.1051661345163275  -35.475630407962818 6.4329586031434829  -29.527188272804977 19.729016828518127  -18.774849299402398 28.519044721071293  -6.2391855021223162 31.620624221549026  5.3527441648120266 29.518606503459164 
 0 9 3.1415926535897931 7 6.2831853071795862 9
1 0 -200 1 0 
7 0 0  8 16 3  5.3527441648120124 29.518606503459186  16.9446738317464 27.416588785369257  27.593144336767402 20.110923987425785  34.574488199387247 8.1051661345158905  35.475630407961198 -6.4329586031426604  29.527188272805855 -19.729016828519555  18.774849299401779 -28.519044721070927  6.239185502122222 -31.620624221549299  -16.944673831746499 -27.416588785369463  -27.593144336768155 -20.110923987426112  -34.574488199386082 -8.1051661345163275  -35.475630407962818 6.4329586031434829  -29.527188272804977 19.729016828518127  -18.774849299402398 28.519044721071293  -6.2391855021223162 31.620624221549026  5.3527441648120266 29.518606503459164 
 0 9 3.1415926535897931 7 6.2831853071795862 9
Curves 3
1 720.00000293230278 209.99999905499729 -135 0 0 1 
7 0 0  10 20 3  720.00000293230278 209.99999905499726 -135  720.00000125402084 219.42477396026359 -135.00000000000594  716.71021316060796 228.84962942080622 -134.99999999997723  710.12963102685922 236.9820985698166 -135.00000000004576  700.84316054108876 242.5320128413135 -134.99999999993611  689.99565825307968 244.50751086138499 -135.0000000000683  679.16412557160925 242.53195412611223 -134.9999999999433  669.86619927494098 236.98216129593331 -135.00000000003448  663.2912207741432 228.84960876992011 -134.99999999998684  659.99987897077085 219.42477385640365 -135.00000000000105  659.99986854991721 200.57522653941962 -135.0000000000023  663.29117465305626 191.15039452581289 -134.99999999998263  669.86649178601181 183.01781148699953 -135.00000000004107  679.16361746970335 177.46812837280982 -134.99999999993867  689.99610445502867 175.49238177745707 -135.00000000006503  700.84296246812642 177.46805850598125 -134.99999999995177  710.12965515618691 183.01787127928716 -135.00000000002541  716.71021892208103 191.15037744921244 -134.99999999999025  720.00000461061938 200.57522414973911 -135.00000000000225  720.00000293230278 209.99999905499735 -134.99999999999997 
 0 11 3.1415926535897931 9 6.2831853071795862 11
7 0 0  10 20 3  720.00000293230278 209.99999905499726 -135  720.00000125402084 219.42477396026359 -135.00000000000594  716.71021316060796 228.84962942080622 -134.99999999997723  710.12963102685922 236.9820985698166 -135.00000000004576  700.84316054108876 242.5320128413135 -134.99999999993611  689.99565825307968 244.50751086138499 -135.0000000000683  679.16412557160925 242.53195412611223 -134.9999999999433  669.86619927494098 236.98216129593331 -135.00000000003448  663.2912207741432 228.84960876992011 -134.99999999998684  659.99987897077085 219.42477385640365 -135.00000000000105  659.99986854991721 200.57522653941962 -135.0000000000023  663.29117465305626 191.15039452581289 -134.99999999998263  669.86649178601181 183.01781148699953 -135.00000000004107  679.16361746970335 177.46812837280982 -134.99999999993867  689.99610445502867 175.49238177745707 -135.00000000006503  700.84296246812642 177.46805850598125 -134.99999999995177  710.12965515618691 183.01787127928716 -135.00000000002541  716.71021892208103 191.15037744921244 -134.99999999999025  720.00000461061938 200.57522414973911 -135.00000000000225  720.00000293230278 209.99999905499735 -134.99999999999997 
 0 11 3.1415926535897931 9 6.2831853071795862 11
Polygon3D 0
PolygonOnTriangulations 0
Surfaces 3
6 -0 -0 -1 
7 0 0  10 20 3  720.00000293230278 209.99999905499726 -135  720.00000125402084 219.42477396026359 -135.00000000000594  716.71021316060796 228.84962942080622 -134.99999999997723  710.12963102685922 236.9820985698166 -135.00000000004576  700.84316054108876 242.5320128413135 -134.99999999993611  689.99565825307968 244.50751086138499 -135.0000000000683  679.16412557160925 242.53195412611223 -134.9999999999433  669.86619927494098 236.98216129593331 -135.00000000003448  663.2912207741432 228.84960876992011 -134.99999999998684  659.99987897077085 219.42477385640365 -135.00000000000105  659.99986854991721 200.57522653941962 -135.0000000000023  663.29117465305626 191.15039452581289 -134.99999999998263  669.86649178601181 183.01781148699953 -135.00000000004107  679.16361746970335 177.46812837280982 -134.99999999993867  689.99610445502867 175.49238177745707 -135.00000000006503  700.84296246812642 177.46805850598125 -134.99999999995177  710.12965515618691 183.01787127928716 -135.00000000002541  716.71021892208103 191.15037744921244 -134.99999999999025  720.00000461061938 200.57522414973911 -135.00000000000225  720.00000293230278 209.99999905499735 -134.99999999999997 
 0 11 3.1415926535897931 9 6.2831853071795862 11
9 0 0 0 0 8 8 9 9 2 2 633.13998251508497 183.93270349408732 -135  649.41383215558812 182.46102961631038 -134.99999999999909  663.35382615668107 180.98974239518122 -135.00000000000301  674.9593364948397 179.51890068714829 -134.99999999999486  684.23156353306695 178.04838372553331 -135.00000000000495  691.17008192370611 176.57826320474823 -134.99999999999716  695.7741756080884 175.10860792702383 -135.00000000000097  698.04454856431505 173.6392925229365 -134.9999999999998  697.98099796574161 172.17038175854466 -135  
642.51539114189256 191.91872152601024 -135.00000000000111  658.7892734214372 190.44704638875078 -135.00000000000685  672.72934465640617 188.97575019473467 -134.99999999998337  684.33481678138389 187.5049259752353 -135.00000000003197  693.60690150126118 186.03439731839529 -134.99999999996291  700.54566748531533 184.56427842619598 -135.00000000003342  705.14957081072635 183.09463151623703 -134.99999999998357  707.41997386661365 181.62530961994437 -135.00000000000696  707.35642739593891 180.15639772623265 -135.00000000000111  
649.62594278490803 199.90513069231375 -134.99999999999673  665.89985446597063 198.43344763939092 -134.9999999999809  679.83998478443971 196.96214925229276 -135.00000000004562  691.44592054990585 195.49129395242005 -134.99999999991442  700.717108135231 194.02084500208773 -135.00000000009484  707.65653238195341 192.55064024896217 -134.99999999991763  712.26003209666499 191.08101311559915 -135.00000000003794  714.53044486990143 189.61169911484291 -134.99999999998317  714.46694387350271 188.14277880193393 -134.99999999999673  
654.47121747485073 207.89191439594561 -135.000000000005  670.74511120267539 206.4202769630441 -135.00000000002586  684.68497595246242 204.94902012051512 -134.99999999994137  696.29122623760657 203.47795148588489 -135.00000000010883  705.56393370926321 202.00750063263632 -134.99999999987685  712.50076683203065 200.53774409722325 -135.00000000011107  717.10589835138012 199.06782273816808 -134.99999999994793  719.37637559870507 197.5984637039023 -135.00000000002433  719.31278884534436 196.1295920915544 -135.000000000005  
657.05218893220945 215.87905401264027 -134.99999999999474  673.32588467372193 214.40734229712257 -134.99999999996967  687.26587884323476 212.93607867229952 -135.00000000007233  698.8726420348014 211.4653325323369 -134.99999999986895  708.14406006134755 209.994928834343 -135.00000000014833  715.08298115997991 208.52429400073203 -134.9999999998706  719.68670431317196 207.05487023440367 -135.00000000006099  721.95703438916371 205.58571914672194 -134.99999999997235  721.89355053014901 204.116759186965 -134.99999999999474  
657.36854982229181 223.86660142608534 -135.00000000000404  673.64255639551811 222.39495847850503 -135.00000000002444  687.58250580094648 220.92369900104705 -134.9999999999406  699.18827184954478 219.45280871759982 -135.00000000010746  708.45922727405082 217.98201345531564 -134.99999999987506  715.39872934365883 216.51261500307342 -135.00000000010996  720.00261099445902 215.04250646282824 -134.99999999994606  722.2729841308867 213.57314690785793 -135.00000000002359  722.2094188986805 212.10428514904441 -135.00000000000404  
655.41962145715115 231.85456702026019 -134.99999999999795  671.69339379746953 230.38289160235874 -134.99999999998244  685.63315631998967 228.91161290582377 -135.00000000004678  697.23871668778315 227.44065669719501 -134.99999999991593  706.51191014725964 225.97033309965704 -135.00000000009686  713.44909574104372 224.50002067811178 -134.99999999991905  718.05375549428072 223.03045746106761 -135.00000000004013  720.32414816120377 221.56114542950718 -134.99999999998437  720.26060599138805 220.0922170835841 -134.99999999999795  
651.20574259645775 239.84286548252655 -135.00000000000051  667.47950319726795 238.37119208381048 -135.00000000000625  681.41924882817818 236.89990991958504 -134.99999999998275  693.02517581361201 235.42902441241128 -135.00000000003143  702.29779980858882 233.95857546473408 -134.99999999996211  709.23554519451204 232.48842685780639 -135.00000000003283  713.8398637125606 231.01875702388773 -134.99999999998263  716.11027154687895 229.54945502840533 -135.00000000000631  716.04674177117408 228.08054282585917 -135.00000000000051  
644.72703199923126 247.83156176918382 -135  661.00078827000141 246.35988867337608 -134.99999999999909  674.94054325118043 244.88860975967719 -135.00000000000301  686.54667136722105 243.41773524747271 -134.99999999999486  695.81890217467685 241.94724955023241 -135.00000000000495  702.75702904006823 240.47714742264958 -134.99999999999716  707.3611712711529 239.00744282350149 -135.00000000000097  709.63158969724202 237.53815049326391 -134.9999999999998  709.56805570261793 236.06924024739698 -135  

-32.470465465829605 9
32.470464051608843 9

-32.949348045980308 9
32.973816789595944 9

9 0 0 0 0 8 8 9 9 2 2 633.13998251508497 183.93270349408732 -135  649.41383215558812 182.46102961631038 -134.99999999999909  663.35382615668107 180.98974239518122 -135.00000000000301  674.9593364948397 179.51890068714829 -134.99999999999486  684.23156353306695 178.04838372553331 -135.00000000000495  691.17008192370611 176.57826320474823 -134.99999999999716  695.7741756080884 175.10860792702383 -135.00000000000097  698.04454856431505 173.6392925229365 -134.9999999999998  697.98099796574161 172.17038175854466 -135  
642.51539114189256 191.91872152601024 -135.00000000000111  658.7892734214372 190.44704638875078 -135.00000000000685  672.72934465640617 188.97575019473467 -134.99999999998337  684.33481678138389 187.5049259752353 -135.00000000003197  693.60690150126118 186.03439731839529 -134.99999999996291  700.54566748531533 184.56427842619598 -135.00000000003342  705.14957081072635 183.09463151623703 -134.99999999998357  707.41997386661365 181.62530961994437 -135.00000000000696  707.35642739593891 180.15639772623265 -135.00000000000111  
649.62594278490803 199.90513069231375 -134.99999999999673  665.89985446597063 198.43344763939092 -134.9999999999809  679.83998478443971 196.96214925229276 -135.00000000004562  691.44592054990585 195.49129395242005 -134.99999999991442  700.717108135231 194.02084500208773 -135.00000000009484  707.65653238195341 192.55064024896217 -134.99999999991763  712.26003209666499 191.08101311559915 -135.00000000003794  714.53044486990143 189.61169911484291 -134.99999999998317  714.46694387350271 188.14277880193393 -134.99999999999673  
654.47121747485073 207.89191439594561 -135.000000000005  670.74511120267539 206.4202769630441 -135.00000000002586  684.68497595246242 204.94902012051512 -134.99999999994137  696.29122623760657 203.47795148588489 -135.00000000010883  705.56393370926321 202.00750063263632 -134.99999999987685  712.50076683203065 200.53774409722325 -135.00000000011107  717.10589835138012 199.06782273816808 -134.99999999994793  719.37637559870507 197.5984637039023 -135.00000000002433  719.31278884534436 196.1295920915544 -135.000000000005  
657.05218893220945 215.87905401264027 -134.99999999999474  673.32588467372193 214.40734229712257 -134.99999999996967  687.26587884323476 212.93607867229952 -135.00000000007233  698.8726420348014 211.4653325323369 -134.99999999986895  708.14406006134755 209.994928834343 -135.00000000014833  715.08298115997991 208.52429400073203 -134.9999999998706  719.68670431317196 207.05487023440367 -135.00000000006099  721.95703438916371 205.58571914672194 -134.99999999997235  721.89355053014901 204.116759186965 -134.99999999999474  
657.36854982229181 223.86660142608534 -135.00000000000404  673.64255639551811 222.39495847850503 -135.00000000002444  687.58250580094648 220.92369900104705 -134.9999999999406  699.18827184954478 219.45280871759982 -135.00000000010746  708.45922727405082 217.98201345531564 -134.99999999987506  715.39872934365883 216.51261500307342 -135.00000000010996  720.00261099445902 215.04250646282824 -134.99999999994606  722.2729841308867 213.57314690785793 -135.00000000002359  722.2094188986805 212.10428514904441 -135.00000000000404  
655.41962145715115 231.85456702026019 -134.99999999999795  671.69339379746953 230.38289160235874 -134.99999999998244  685.63315631998967 228.91161290582377 -135.00000000004678  697.23871668778315 227.44065669719501 -134.99999999991593  706.51191014725964 225.97033309965704 -135.00000000009686  713.44909574104372 224.50002067811178 -134.99999999991905  718.05375549428072 223.03045746106761 -135.00000000004013  720.32414816120377 221.56114542950718 -134.99999999998437  720.26060599138805 220.0922170835841 -134.99999999999795  
651.20574259645775 239.84286548252655 -135.00000000000051  667.47950319726795 238.37119208381048 -135.00000000000625  681.41924882817818 236.89990991958504 -134.99999999998275  693.02517581361201 235.42902441241128 -135.00000000003143  702.29779980858882 233.95857546473408 -134.99999999996211  709.23554519451204 232.48842685780639 -135.00000000003283  713.8398637125606 231.01875702388773 -134.99999999998263  716.11027154687895 229.54945502840533 -135.00000000000631  716.04674177117408 228.08054282585917 -135.00000000000051  
644.72703199923126 247.83156176918382 -135  661.00078827000141 246.35988867337608 -134.99999999999909  674.94054325118043 244.88860975967719 -135.00000000000301  686.54667136722105 243.41773524747271 -134.99999999999486  695.81890217467685 241.94724955023241 -135.00000000000495  702.75702904006823 240.47714742264958 -134.99999999999716  707.3611712711529 239.00744282350149 -135.00000000000097  709.63158969724202 237.53815049326391 -134.9999999999998  709.56805570261793 236.06924024739698 -135  

-32.470465465829605 9
32.470464051608843 9

-32.949348045980308 9
32.973816789595944 9

Triangulations 0

TShapes 13
Ve
0.000139122446083496
720.000002932303 209.999999054997 -150
0 0

0101101
*
Ve
0.000139122446083496
720.000002932303 209.999999054997 50
0 0

0101101
*
Ed
 0.000139122446083496 1 1 0
1  1 0 0 200
3  1 2C1 1 0 0 200
0

0101000
+13 2 -12 2 *
Ed
 1e-05 1 1 0
1  2 0 0 6.28318530717959
2  3 1 0 0 6.28318530717959
2  4 2 0 0 6.28318530717959
0

0101000
+13 2 -13 2 *
Ed
 1e-05 1 1 0
1  3 0 0 6.28318530717959
2  5 1 4 0 6.28318530717959
2  6 3 0 0 6.28318530717959
0

0101000
+12 5 -12 5 *
Wi

0101000
+11 0 -11 0 -10 0 +9 3 *
Fa
0  1e-05 1 0

0101000
+8 0 *
Wi

0101100
+10 0 *
Fa
0  1e-07 2 0

0101000
-6 0 *
Wi

0101100
+9 0 *
Fa
0  1e-07 3 0

0101000
-4 0 *
Sh

0101000
-7 0 +5 0 -3 3 *
So

1100000
+2 0 *

+1 1 